<?xml version="1.0" encoding="UTF-8" standalone="no"?>
<!DOCTYPE svg PUBLIC "-//W3C//DTD SVG 1.1//EN"
 "http://www.w3.org/Graphics/SVG/1.1/DTD/svg11.dtd">
<!-- Generated by graphviz version 15.0.0 (0)
 -->
<!-- Title: PFDSL Pages: 1 -->
<svg width="595pt" height="115pt"
 viewBox="0.00 0.00 595.00 115.00" xmlns="http://www.w3.org/2000/svg" xmlns:xlink="http://www.w3.org/1999/xlink">
<g id="graph0" class="graph" transform="scale(1 1) rotate(0) translate(4 110.8)">
<title>PFDSL</title>
<polygon fill="white" stroke="none" points="-4,4 -4,-110.8 590.83,-110.8 590.83,4 -4,4"/>
<!-- analyze -->
<g id="node1" class="node">
<title>analyze</title>
<ellipse fill="none" stroke="black" cx="456.31" cy="-61.8" rx="40.52" ry="18"/>
<text xml:space="preserve" text-anchor="middle" x="456.31" y="-57.6" font-family="Times,serif" font-size="14.00">analyze</text>
</g>
<!-- report -->
<g id="node5" class="node">
<title>report</title>
<polygon fill="#f8f9fa" stroke="#0066cc" stroke-width="2" points="586.83,-79.8 532.83,-79.8 532.83,-43.8 586.83,-43.8 586.83,-79.8"/>
<text xml:space="preserve" text-anchor="middle" x="559.83" y="-57.6" font-family="Times,serif" font-size="14.00">report</text>
<text xml:space="preserve" text-anchor="middle" x="494.34" y="-31.2" font-family="Times,serif" font-size="14.00">todo, external</text>
</g>
<!-- analyze&#45;&gt;report -->
<g id="edge4" class="edge">
<title>analyze&#45;&gt;report</title>
<path fill="none" stroke="black" d="M497.14,-61.8C504.89,-61.8 512.99,-61.8 520.68,-61.8"/>
<polygon fill="black" stroke="black" points="520.42,-65.3 530.42,-61.8 520.42,-58.3 520.42,-65.3"/>
</g>
<!-- ingest -->
<g id="node2" class="node">
<title>ingest</title>
<ellipse fill="none" stroke="black" cx="238.48" cy="-88.8" rx="34.1" ry="18"/>
<text xml:space="preserve" text-anchor="middle" x="238.48" y="-84.6" font-family="Times,serif" font-size="14.00">ingest</text>
</g>
<!-- processed -->
<g id="node3" class="node">
<title>processed</title>
<polygon fill="#d4edda" stroke="#0066cc" stroke-width="2" points="379.79,-106.8 308.59,-106.8 308.59,-70.8 379.79,-70.8 379.79,-106.8"/>
<text xml:space="preserve" text-anchor="middle" x="344.19" y="-84.6" font-family="Times,serif" font-size="14.00">processed</text>
<text xml:space="preserve" text-anchor="middle" x="268.94" y="-58.2" font-family="Times,serif" font-size="14.00">done, external</text>
</g>
<!-- ingest&#45;&gt;processed -->
<g id="edge2" class="edge">
<title>ingest&#45;&gt;processed</title>
<path fill="none" stroke="black" d="M272.87,-88.8C280.35,-88.8 288.41,-88.8 296.33,-88.8"/>
<polygon fill="black" stroke="black" points="296.21,-92.3 306.21,-88.8 296.21,-85.3 296.21,-92.3"/>
</g>
<!-- processed&#45;&gt;analyze -->
<g id="edge5" class="edge">
<title>processed&#45;&gt;analyze</title>
<path fill="none" stroke="black" d="M380.64,-80.11C389.77,-77.87 399.72,-75.43 409.3,-73.08"/>
<polygon fill="black" stroke="black" points="409.95,-76.52 418.83,-70.74 408.29,-69.73 409.95,-76.52"/>
</g>
<!-- raw_data -->
<g id="node4" class="node">
<title>raw_data</title>
<polygon fill="none" stroke="#0066cc" stroke-width="2" stroke-dasharray="5,2" points="168.38,-106.8 101.08,-106.8 101.08,-70.8 168.38,-70.8 168.38,-106.8"/>
<text xml:space="preserve" text-anchor="middle" x="134.73" y="-84.6" font-family="Times,serif" font-size="14.00">raw_data</text>
<text xml:space="preserve" text-anchor="middle" x="50.54" y="-58.2" font-family="Times,serif" font-size="14.00">external, sensitive</text>
</g>
<!-- raw_data&#45;&gt;ingest -->
<g id="edge1" class="edge">
<title>raw_data&#45;&gt;ingest</title>
<path fill="none" stroke="black" d="M169.33,-88.8C176.8,-88.8 184.83,-88.8 192.66,-88.8"/>
<polygon fill="black" stroke="black" points="192.4,-92.3 202.4,-88.8 192.4,-85.3 192.4,-92.3"/>
</g>
<!-- spec -->
<g id="node6" class="node">
<title>spec</title>
<polygon fill="#fff3cd" stroke="black" stroke-width="2" points="371.19,-52.8 317.19,-52.8 317.19,-16.8 371.19,-16.8 371.19,-52.8"/>
<text xml:space="preserve" text-anchor="middle" x="344.19" y="-30.6" font-family="Times,serif" font-size="14.00">spec</text>
<text xml:space="preserve" text-anchor="middle" x="306.69" y="-4.2" font-family="Times,serif" font-size="14.00">wip</text>
</g>
<!-- spec&#45;&gt;analyze -->
<g id="edge3" class="edge">
<title>spec&#45;&gt;analyze</title>
<path fill="none" stroke="black" d="M372.13,-41.4C383.35,-44.16 396.72,-47.43 409.41,-50.55"/>
<polygon fill="black" stroke="black" points="408.31,-53.88 418.85,-52.86 409.97,-47.08 408.31,-53.88"/>
</g>
</g>
</svg>
