<?xml version="1.0" encoding="UTF-8" standalone="no"?>
<!DOCTYPE svg PUBLIC "-//W3C//DTD SVG 1.1//EN"
 "http://www.w3.org/Graphics/SVG/1.1/DTD/svg11.dtd">
<!-- Generated by graphviz version 15.0.0 (0)
 -->
<!-- Title: PFDSL Pages: 1 -->
<svg width="575pt" height="218pt"
 viewBox="0.00 0.00 575.00 218.00" xmlns="http://www.w3.org/2000/svg" xmlns:xlink="http://www.w3.org/1999/xlink">
<g id="graph0" class="graph" transform="scale(1 1) rotate(0) translate(4 213.8)">
<title>PFDSL</title>
<polygon fill="white" stroke="none" points="-4,4 -4,-213.8 570.99,-213.8 570.99,4 -4,4"/>
<text xml:space="preserve" text-anchor="middle" x="283.49" y="-193.2" font-family="Times,serif" font-size="14.00">Issue 依存フロー（2026&#45;06） — diff</text>
<text xml:space="preserve" text-anchor="middle" x="283.49" y="-176.4" font-family="Times,serif" font-size="14.00">green = added · red = removed · yellow = changed</text>
<!-- featured_toolchain -->
<g id="node1" class="node">
<title>featured_toolchain</title>
<polygon fill="#f5f5f5" stroke="#bbbbbb" points="151.2,-168.2 0,-168.2 0,-93 151.2,-93 151.2,-168.2"/>
<text xml:space="preserve" text-anchor="middle" x="75.6" y="-151.6" font-family="Times,serif" font-size="14.00" fill="#777777">featured_toolchain</text>
<text xml:space="preserve" text-anchor="middle" x="75.6" y="-134.8" font-family="Times,serif" font-size="14.00" fill="#777777">spec v0.0.7</text>
<text xml:space="preserve" text-anchor="middle" x="75.6" y="-118" font-family="Times,serif" font-size="14.00" fill="#777777">実装済みツールチェ</text>
<text xml:space="preserve" text-anchor="middle" x="75.6" y="-101.2" font-family="Times,serif" font-size="14.00" fill="#777777">ーン (#52)</text>
</g>
<!-- implement_multifile -->
<g id="node2" class="node">
<title>implement_multifile</title>
<ellipse fill="#c3e6cb" stroke="#28a745" cx="279.89" cy="-83.6" rx="92.69" ry="41.3"/>
<text xml:space="preserve" text-anchor="middle" x="279.89" y="-96.2" font-family="Times,serif" font-size="14.00">implement_multifile</text>
<text xml:space="preserve" text-anchor="middle" x="279.89" y="-79.4" font-family="Times,serif" font-size="14.00">マルチファイル機能</text>
<text xml:space="preserve" text-anchor="middle" x="279.89" y="-62.6" font-family="Times,serif" font-size="14.00">実装</text>
</g>
<!-- featured_toolchain&#45;&gt;implement_multifile -->
<g id="edge1" class="edge">
<title>featured_toolchain&#45;&gt;implement_multifile</title>
<path fill="none" stroke="#28a745" d="M151.64,-113.17C162.89,-110.55 174.6,-107.83 186.16,-105.15"/>
<polygon fill="#28a745" stroke="#28a745" points="186.76,-108.6 195.71,-102.93 185.17,-101.78 186.76,-108.6"/>
</g>
<!-- multifile_toolchain -->
<g id="node3" class="node">
<title>multifile_toolchain</title>
<polygon fill="#c3e6cb" stroke="#28a745" points="566.99,-121.2 408.59,-121.2 408.59,-46 566.99,-46 566.99,-121.2"/>
<text xml:space="preserve" text-anchor="middle" x="487.79" y="-104.6" font-family="Times,serif" font-size="14.00">multifile_toolchain</text>
<text xml:space="preserve" text-anchor="middle" x="487.79" y="-87.8" font-family="Times,serif" font-size="14.00">spec v0.0.8</text>
<text xml:space="preserve" text-anchor="middle" x="487.79" y="-71" font-family="Times,serif" font-size="14.00">実装済みツールチェ</text>
<text xml:space="preserve" text-anchor="middle" x="487.79" y="-54.2" font-family="Times,serif" font-size="14.00">ーン</text>
</g>
<!-- implement_multifile&#45;&gt;multifile_toolchain -->
<g id="edge2" class="edge">
<title>implement_multifile&#45;&gt;multifile_toolchain</title>
<path fill="none" stroke="#28a745" d="M373,-83.6C380.92,-83.6 388.91,-83.6 396.81,-83.6"/>
<polygon fill="#28a745" stroke="#28a745" points="396.77,-87.1 406.77,-83.6 396.77,-80.1 396.77,-87.1"/>
</g>
<!-- spec_v008 -->
<g id="node4" class="node">
<title>spec_v008</title>
<polygon fill="#f5f5f5" stroke="#bbbbbb" points="147.6,-75.2 3.6,-75.2 3.6,0 147.6,0 147.6,-75.2"/>
<text xml:space="preserve" text-anchor="middle" x="75.6" y="-58.6" font-family="Times,serif" font-size="14.00" fill="#777777">spec_v008</text>
<text xml:space="preserve" text-anchor="middle" x="75.6" y="-41.8" font-family="Times,serif" font-size="14.00" fill="#777777">仕様書 v0.0</text>
<text xml:space="preserve" text-anchor="middle" x="75.6" y="-25" font-family="Times,serif" font-size="14.00" fill="#777777">8（マルチファイル</text>
<text xml:space="preserve" text-anchor="middle" x="75.6" y="-8.2" font-family="Times,serif" font-size="14.00" fill="#777777">統合）</text>
</g>
<!-- spec_v008&#45;&gt;implement_multifile -->
<g id="edge3" class="edge">
<title>spec_v008&#45;&gt;implement_multifile</title>
<path fill="none" stroke="#28a745" d="M147.92,-53.82C160.15,-56.6 173.02,-59.52 185.72,-62.41"/>
<polygon fill="#28a745" stroke="#28a745" points="184.81,-65.8 195.34,-64.6 186.36,-58.97 184.81,-65.8"/>
</g>
</g>
</svg>
