<?xml version="1.0" encoding="UTF-8" standalone="no"?>
<!DOCTYPE svg PUBLIC "-//W3C//DTD SVG 1.1//EN"
 "http://www.w3.org/Graphics/SVG/1.1/DTD/svg11.dtd">
<!-- Generated by graphviz version 15.0.0 (0)
 -->
<!-- Title: PFDSL Pages: 1 -->
<svg width="591pt" height="108pt"
 viewBox="0.00 0.00 591.00 108.00" xmlns="http://www.w3.org/2000/svg" xmlns:xlink="http://www.w3.org/1999/xlink">
<g id="graph0" class="graph" transform="scale(1 1) rotate(0) translate(4 104.43)">
<title>PFDSL</title>
<polygon fill="white" stroke="none" points="-4,4 -4,-104.43 587.26,-104.43 587.26,4 -4,4"/>
<text xml:space="preserve" text-anchor="middle" x="291.63" y="-83.83" font-family="Times,serif" font-size="14.00">Issue 依存フロー（2026&#45;06） — diff</text>
<text xml:space="preserve" text-anchor="middle" x="291.63" y="-67.03" font-family="Times,serif" font-size="14.00">green = added · red = removed · yellow = changed</text>
<!-- cli_tool -->
<g id="node1" class="node">
<title>cli_tool</title>
<polygon fill="#f5f5f5" stroke="#bbbbbb" points="136.8,-50.22 0,-50.22 0,-8.62 136.8,-8.62 136.8,-50.22"/>
<text xml:space="preserve" text-anchor="middle" x="68.4" y="-33.62" font-family="Times,serif" font-size="14.00" fill="#777777">cli_tool</text>
<text xml:space="preserve" text-anchor="middle" x="68.4" y="-16.82" font-family="Times,serif" font-size="14.00" fill="#777777">CLI 実装（現行）</text>
</g>
<!-- implement_pr_diff_image -->
<g id="node3" class="node">
<title>implement_pr_diff_image</title>
<ellipse fill="#f5c6cb" stroke="#dc3545" cx="288.03" cy="-29.42" rx="115.23" ry="29.42"/>
<text xml:space="preserve" text-anchor="middle" x="288.03" y="-33.62" font-family="Times,serif" font-size="14.00">implement_pr_diff_image</text>
<text xml:space="preserve" text-anchor="middle" x="288.03" y="-16.82" font-family="Times,serif" font-size="14.00">PR diff画像実装</text>
</g>
<!-- cli_tool&#45;&gt;implement_pr_diff_image -->
<g id="edge1" class="edge">
<title>cli_tool&#45;&gt;implement_pr_diff_image</title>
<path fill="none" stroke="#dc3545" stroke-dasharray="5,2" d="M137.07,-29.42C144.87,-29.42 153.01,-29.42 161.28,-29.42"/>
<polygon fill="#dc3545" stroke="#dc3545" points="161.11,-32.92 171.11,-29.42 161.11,-25.92 161.11,-32.92"/>
</g>
<!-- i99_pr_diff_image -->
<g id="node2" class="node">
<title>i99_pr_diff_image</title>
<polygon fill="#f5c6cb" stroke="#dc3545" points="583.26,-50.22 439.26,-50.22 439.26,-8.62 583.26,-8.62 583.26,-50.22"/>
<text xml:space="preserve" text-anchor="middle" x="511.26" y="-33.62" font-family="Times,serif" font-size="14.00">i99_pr_diff_image</text>
<text xml:space="preserve" text-anchor="middle" x="511.26" y="-16.82" font-family="Times,serif" font-size="14.00">PR diff画像 (#99)</text>
</g>
<!-- implement_pr_diff_image&#45;&gt;i99_pr_diff_image -->
<g id="edge2" class="edge">
<title>implement_pr_diff_image&#45;&gt;i99_pr_diff_image</title>
<path fill="none" stroke="#dc3545" stroke-dasharray="5,2" d="M403.53,-29.42C411.61,-29.42 419.66,-29.42 427.5,-29.42"/>
<polygon fill="#dc3545" stroke="#dc3545" points="427.32,-32.92 437.32,-29.42 427.32,-25.92 427.32,-32.92"/>
</g>
</g>
</svg>
