<?xml version="1.0" encoding="UTF-8" standalone="no"?>
<!DOCTYPE svg PUBLIC "-//W3C//DTD SVG 1.1//EN"
 "http://www.w3.org/Graphics/SVG/1.1/DTD/svg11.dtd">
<!-- Generated by graphviz version 15.0.0 (0)
 -->
<!-- Title: PFDSL Pages: 1 -->
<svg width="644pt" height="347pt"
 viewBox="0.00 0.00 644.00 347.00" xmlns="http://www.w3.org/2000/svg" xmlns:xlink="http://www.w3.org/1999/xlink">
<g id="graph0" class="graph" transform="scale(1 1) rotate(0) translate(4 342.62)">
<title>PFDSL</title>
<polygon fill="white" stroke="none" points="-4,4 -4,-342.62 640.33,-342.62 640.33,4 -4,4"/>
<text xml:space="preserve" text-anchor="middle" x="318.16" y="-322.02" font-family="Times,serif" font-size="14.00">Issue 依存フロー（2026&#45;06） — diff</text>
<text xml:space="preserve" text-anchor="middle" x="318.16" y="-305.22" font-family="Times,serif" font-size="14.00">green = added · red = removed · yellow = changed</text>
<!-- cli_tool -->
<g id="node1" class="node">
<title>cli_tool</title>
<polygon fill="#f5f5f5" stroke="#bbbbbb" points="151.2,-50.22 14.4,-50.22 14.4,-8.62 151.2,-8.62 151.2,-50.22"/>
<text xml:space="preserve" text-anchor="middle" x="82.8" y="-33.62" font-family="Times,serif" font-size="14.00" fill="#777777">cli_tool</text>
<text xml:space="preserve" text-anchor="middle" x="82.8" y="-16.82" font-family="Times,serif" font-size="14.00" fill="#777777">CLI 実装（現行）</text>
</g>
<!-- implement_example_check -->
<g id="node4" class="node">
<title>implement_example_check</title>
<ellipse fill="#c3e6cb" stroke="#28a745" cx="321.76" cy="-29.42" rx="120.16" ry="29.42"/>
<text xml:space="preserve" text-anchor="middle" x="321.76" y="-33.62" font-family="Times,serif" font-size="14.00">implement_example_check</text>
<text xml:space="preserve" text-anchor="middle" x="321.76" y="-16.82" font-family="Times,serif" font-size="14.00">埋込例check実装</text>
</g>
<!-- cli_tool&#45;&gt;implement_example_check -->
<g id="edge1" class="edge">
<title>cli_tool&#45;&gt;implement_example_check</title>
<path fill="none" stroke="#28a745" d="M151.39,-29.42C163.57,-29.42 176.64,-29.42 189.92,-29.42"/>
<polygon fill="#28a745" stroke="#28a745" points="189.6,-32.92 199.6,-29.42 189.6,-25.92 189.6,-32.92"/>
</g>
<!-- i137_status_lint -->
<g id="node2" class="node">
<title>i137_status_lint</title>
<polygon fill="#c3e6cb" stroke="#28a745" points="636.33,-135.62 477.93,-135.62 477.93,-77.22 636.33,-77.22 636.33,-135.62"/>
<text xml:space="preserve" text-anchor="middle" x="557.13" y="-119.02" font-family="Times,serif" font-size="14.00">i137_status_lint</text>
<text xml:space="preserve" text-anchor="middle" x="557.13" y="-102.22" font-family="Times,serif" font-size="14.00">status 非単調 lint </text>
<text xml:space="preserve" text-anchor="middle" x="557.13" y="-85.42" font-family="Times,serif" font-size="14.00">#137)</text>
</g>
<!-- i138_example_check -->
<g id="node3" class="node">
<title>i138_example_check</title>
<polygon fill="#c3e6cb" stroke="#28a745" points="632.73,-58.62 481.53,-58.62 481.53,-0.22 632.73,-0.22 632.73,-58.62"/>
<text xml:space="preserve" text-anchor="middle" x="557.13" y="-42.02" font-family="Times,serif" font-size="14.00">i138_example_check</text>
<text xml:space="preserve" text-anchor="middle" x="557.13" y="-25.22" font-family="Times,serif" font-size="14.00">doc 埋込例の check</text>
<text xml:space="preserve" text-anchor="middle" x="557.13" y="-8.42" font-family="Times,serif" font-size="14.00">検証 (#138)</text>
</g>
<!-- implement_example_check&#45;&gt;i138_example_check -->
<g id="edge2" class="edge">
<title>implement_example_check&#45;&gt;i138_example_check</title>
<path fill="none" stroke="#28a745" d="M442.18,-29.42C451.49,-29.42 460.77,-29.42 469.79,-29.42"/>
<polygon fill="#28a745" stroke="#28a745" points="469.54,-32.92 479.54,-29.42 469.54,-25.92 469.54,-32.92"/>
</g>
<!-- implement_status_lint -->
<g id="node5" class="node">
<title>implement_status_lint</title>
<ellipse fill="#c3e6cb" stroke="#28a745" cx="321.76" cy="-106.42" rx="99.3" ry="29.42"/>
<text xml:space="preserve" text-anchor="middle" x="321.76" y="-110.62" font-family="Times,serif" font-size="14.00">implement_status_lint</text>
<text xml:space="preserve" text-anchor="middle" x="321.76" y="-93.82" font-family="Times,serif" font-size="14.00">status非単調lint実装</text>
</g>
<!-- implement_status_lint&#45;&gt;i137_status_lint -->
<g id="edge3" class="edge">
<title>implement_status_lint&#45;&gt;i137_status_lint</title>
<path fill="none" stroke="#28a745" d="M421.39,-106.42C436.36,-106.42 451.74,-106.42 466.5,-106.42"/>
<polygon fill="#28a745" stroke="#28a745" points="466.14,-109.92 476.14,-106.42 466.14,-102.92 466.14,-109.92"/>
</g>
<!-- lint_checker -->
<g id="node6" class="node">
<title>lint_checker</title>
<polygon fill="#f5f5f5" stroke="#bbbbbb" points="165.6,-127.22 0,-127.22 0,-85.62 165.6,-85.62 165.6,-127.22"/>
<text xml:space="preserve" text-anchor="middle" x="82.8" y="-110.62" font-family="Times,serif" font-size="14.00" fill="#777777">lint_checker</text>
<text xml:space="preserve" text-anchor="middle" x="82.8" y="-93.82" font-family="Times,serif" font-size="14.00" fill="#777777">lint拡張checker (#4)</text>
</g>
<!-- lint_checker&#45;&gt;implement_status_lint -->
<g id="edge4" class="edge">
<title>lint_checker&#45;&gt;implement_status_lint</title>
<path fill="none" stroke="#28a745" d="M166.01,-106.42C180.39,-106.42 195.56,-106.42 210.56,-106.42"/>
<polygon fill="#28a745" stroke="#28a745" points="210.46,-109.92 220.46,-106.42 210.46,-102.92 210.46,-109.92"/>
</g>
<!-- spec_v007 -->
<g id="node7" class="node">
<title>spec_v007</title>
<polygon fill="#ffeeba" stroke="#e0a800" points="162,-203.62 3.6,-203.62 3.6,-145.22 162,-145.22 162,-203.62"/>
<text xml:space="preserve" text-anchor="middle" x="82.8" y="-187.02" font-family="Times,serif" font-size="14.00">spec_v007</text>
<text xml:space="preserve" text-anchor="middle" x="82.8" y="-170.22" font-family="Times,serif" font-size="14.00">仕様書 v0.0.7（統合</text>
<text xml:space="preserve" text-anchor="middle" x="82.8" y="-153.42" font-family="Times,serif" font-size="14.00">）</text>
</g>
<!-- spec_v008 -->
<g id="node8" class="node">
<title>spec_v008</title>
<polygon fill="#ffeeba" stroke="#e0a800" points="154.8,-297.02 10.8,-297.02 10.8,-221.82 154.8,-221.82 154.8,-297.02"/>
<text xml:space="preserve" text-anchor="middle" x="82.8" y="-280.42" font-family="Times,serif" font-size="14.00">spec_v008</text>
<text xml:space="preserve" text-anchor="middle" x="82.8" y="-263.62" font-family="Times,serif" font-size="14.00">仕様書 v0.0</text>
<text xml:space="preserve" text-anchor="middle" x="82.8" y="-246.82" font-family="Times,serif" font-size="14.00">8（マルチファイル</text>
<text xml:space="preserve" text-anchor="middle" x="82.8" y="-230.02" font-family="Times,serif" font-size="14.00">統合）</text>
</g>
</g>
</svg>
