<?xml version="1.0" encoding="UTF-8" standalone="no"?>
<!DOCTYPE svg PUBLIC "-//W3C//DTD SVG 1.1//EN"
 "http://www.w3.org/Graphics/SVG/1.1/DTD/svg11.dtd">
<!-- Generated by graphviz version 15.0.0 (0)
 -->
<!-- Title: PFDSL Pages: 1 -->
<svg width="553pt" height="108pt"
 viewBox="0.00 0.00 553.00 108.00" xmlns="http://www.w3.org/2000/svg" xmlns:xlink="http://www.w3.org/1999/xlink">
<g id="graph0" class="graph" transform="scale(1 1) rotate(0) translate(4 104.43)">
<title>PFDSL</title>
<polygon fill="white" stroke="none" points="-4,4 -4,-104.43 549.36,-104.43 549.36,4 -4,4"/>
<text xml:space="preserve" text-anchor="middle" x="272.68" y="-83.83" font-family="Times,serif" font-size="14.00">Issue 依存フロー（2026&#45;06） — diff</text>
<text xml:space="preserve" text-anchor="middle" x="272.68" y="-67.03" font-family="Times,serif" font-size="14.00">green = added · red = removed · yellow = changed</text>
<!-- clarify_process_tags -->
<g id="node1" class="node">
<title>clarify_process_tags</title>
<ellipse fill="#f5c6cb" stroke="#dc3545" cx="243.88" cy="-29.42" rx="92.68" ry="29.42"/>
<text xml:space="preserve" text-anchor="middle" x="243.88" y="-33.62" font-family="Times,serif" font-size="14.00">clarify_process_tags</text>
<text xml:space="preserve" text-anchor="middle" x="243.88" y="-16.82" font-family="Times,serif" font-size="14.00">process tags 明示化</text>
</g>
<!-- i127_process_tags -->
<g id="node2" class="node">
<title>i127_process_tags</title>
<polygon fill="#f5c6cb" stroke="#dc3545" points="545.36,-58.62 372.56,-58.62 372.56,-0.22 545.36,-0.22 545.36,-58.62"/>
<text xml:space="preserve" text-anchor="middle" x="458.96" y="-42.02" font-family="Times,serif" font-size="14.00">i127_process_tags</text>
<text xml:space="preserve" text-anchor="middle" x="458.96" y="-25.22" font-family="Times,serif" font-size="14.00">process tags 明示許可</text>
<text xml:space="preserve" text-anchor="middle" x="458.96" y="-8.42" font-family="Times,serif" font-size="14.00"> (#127)</text>
</g>
<!-- clarify_process_tags&#45;&gt;i127_process_tags -->
<g id="edge1" class="edge">
<title>clarify_process_tags&#45;&gt;i127_process_tags</title>
<path fill="none" stroke="#dc3545" stroke-dasharray="5,2" d="M336.79,-29.42C344.75,-29.42 352.83,-29.42 360.83,-29.42"/>
<polygon fill="#dc3545" stroke="#dc3545" points="360.56,-32.92 370.56,-29.42 360.56,-25.92 360.56,-32.92"/>
</g>
<!-- spec_v006 -->
<g id="node3" class="node">
<title>spec_v006</title>
<polygon fill="#f5f5f5" stroke="#bbbbbb" points="115.2,-50.22 0,-50.22 0,-8.62 115.2,-8.62 115.2,-50.22"/>
<text xml:space="preserve" text-anchor="middle" x="57.6" y="-33.62" font-family="Times,serif" font-size="14.00" fill="#777777">spec_v006</text>
<text xml:space="preserve" text-anchor="middle" x="57.6" y="-16.82" font-family="Times,serif" font-size="14.00" fill="#777777">仕様書 v0.0.6</text>
</g>
<!-- spec_v006&#45;&gt;clarify_process_tags -->
<g id="edge2" class="edge">
<title>spec_v006&#45;&gt;clarify_process_tags</title>
<path fill="none" stroke="#dc3545" stroke-dasharray="5,2" d="M115.65,-29.42C123.35,-29.42 131.44,-29.42 139.64,-29.42"/>
<polygon fill="#dc3545" stroke="#dc3545" points="139.37,-32.92 149.37,-29.42 139.37,-25.92 139.37,-32.92"/>
</g>
</g>
</svg>
