<?xml version="1.0" encoding="UTF-8" standalone="no"?>
<!DOCTYPE svg PUBLIC "-//W3C//DTD SVG 1.1//EN"
 "http://www.w3.org/Graphics/SVG/1.1/DTD/svg11.dtd">
<!-- Generated by graphviz version 15.0.0 (0)
 -->
<!-- Title: PFDSL Pages: 1 -->
<svg width="2341pt" height="1041pt"
 viewBox="0.00 0.00 2341.00 1041.00" xmlns="http://www.w3.org/2000/svg" xmlns:xlink="http://www.w3.org/1999/xlink">
<g id="graph0" class="graph" transform="scale(1 1) rotate(0) translate(4 1036.82)">
<title>PFDSL</title>
<polygon fill="white" stroke="none" points="-4,4 -4,-1036.82 2337.4,-1036.82 2337.4,4 -4,4"/>
<text xml:space="preserve" text-anchor="middle" x="1166.7" y="-1016.22" font-family="Times,serif" font-size="14.00">Issue 依存フロー（2026&#45;06）</text>
<!-- adr_corpus -->
<g id="node1" class="node">
<title>adr_corpus</title>
<g id="a_node1"><a xlink:title="ADR 群 (docs/adr)&#10;&#10;方法論の設計決定記録。一覧と本数は docs/adr/README.md が一次情報（ここに数を書かない — ドリフトするため）&#10;criteria: 対象判断が文書化され docs/adr/README.md の一覧に追記済み&#10;location: docs/adr/">
<polygon fill="#d4edda" stroke="black" stroke-width="2" points="178.41,-58.4 34.41,-58.4 34.41,-16.8 178.41,-16.8 178.41,-58.4"/>
<text xml:space="preserve" text-anchor="middle" x="106.41" y="-41.8" font-family="Times,serif" font-size="14.00">adr_corpus</text>
<text xml:space="preserve" text-anchor="middle" x="106.41" y="-25" font-family="Times,serif" font-size="14.00">ADR 群 (docs/adr)</text>
</a>
</g>
<text xml:space="preserve" text-anchor="middle" x="20.81" y="-4.2" font-family="Times,serif" font-size="14.00">done</text>
</g>
<!-- write_article -->
<g id="node38" class="node">
<title>write_article</title>
<ellipse fill="none" stroke="black" cx="342.88" cy="-37.6" rx="61.33" ry="29.42"/>
<text xml:space="preserve" text-anchor="middle" x="342.88" y="-41.8" font-family="Times,serif" font-size="14.00">write_article</text>
<text xml:space="preserve" text-anchor="middle" x="342.88" y="-25" font-family="Times,serif" font-size="14.00">記事執筆</text>
</g>
<!-- adr_corpus&#45;&gt;write_article -->
<g id="edge40" class="edge">
<title>adr_corpus&#45;&gt;write_article</title>
<path fill="none" stroke="black" d="M179.35,-37.6C208.11,-37.6 241.17,-37.6 269.93,-37.6"/>
<polygon fill="black" stroke="black" points="269.62,-41.1 279.62,-37.6 269.62,-34.1 269.62,-41.1"/>
</g>
<!-- audit_distribution -->
<g id="node2" class="node">
<title>audit_distribution</title>
<g id="a_node2"><a xlink:href="https://github.com/takasek/pfdsl/issues/43" xlink:title="L3資産の階層化配布 (#43)&#10;&#10;audit コア + flow&#45;sync action を skill 同梱・配布可能化。scripts/lib/issues&#45;flow&#45;audit.mjs を #37 と共有するため着手順を調整。実配布フローは #11&#10;criteria: install/ に配布可能ファイルが揃い、CI で identity が強制されている&#10;location: https://github.com/takasek/pfdsl/issues/43">
<polygon fill="#d4edda" stroke="black" stroke-width="2" points="680.14,-752.8 528.94,-752.8 528.94,-694.4 680.14,-694.4 680.14,-752.8"/>
<text xml:space="preserve" text-anchor="middle" x="604.54" y="-736.2" font-family="Times,serif" font-size="14.00">audit_distribution</text>
<text xml:space="preserve" text-anchor="middle" x="604.54" y="-719.4" font-family="Times,serif" font-size="14.00">L3資産の階層化配布</text>
<text xml:space="preserve" text-anchor="middle" x="604.54" y="-702.6" font-family="Times,serif" font-size="14.00"> (#43)</text>
</a>
</g>
<text xml:space="preserve" text-anchor="middle" x="515.33" y="-681.8" font-family="Times,serif" font-size="14.00">done</text>
</g>
<!-- build_obsidian_plugin -->
<g id="node3" class="node">
<title>build_obsidian_plugin</title>
<g id="a_node3"><a xlink:title="Obsidianプラグイン実装">
<ellipse fill="none" stroke="black" cx="342.88" cy="-889.6" rx="100.41" ry="41.3"/>
<text xml:space="preserve" text-anchor="middle" x="342.88" y="-902.2" font-family="Times,serif" font-size="14.00">build_obsidian_plugin</text>
<text xml:space="preserve" text-anchor="middle" x="342.88" y="-885.4" font-family="Times,serif" font-size="14.00">Obsidianプラグイン</text>
<text xml:space="preserve" text-anchor="middle" x="342.88" y="-868.6" font-family="Times,serif" font-size="14.00">実装</text>
</a>
</g>
</g>
<!-- i3_obsidian_plugin -->
<g id="node17" class="node">
<title>i3_obsidian_plugin</title>
<g id="a_node17"><a xlink:href="https://github.com/takasek/pfdsl/issues/3" xlink:title="Obsidian プラグイン (#3)&#10;criteria: Obsidian 上で .pfdsl のプレビュー・編集が動作確認済み&#10;location: https://github.com/takasek/pfdsl/issues/3">
<polygon fill="#f8f9fa" stroke="black" stroke-width="2" points="687.34,-918.8 521.74,-918.8 521.74,-860.4 687.34,-860.4 687.34,-918.8"/>
<text xml:space="preserve" text-anchor="middle" x="604.54" y="-902.2" font-family="Times,serif" font-size="14.00">i3_obsidian_plugin</text>
<text xml:space="preserve" text-anchor="middle" x="604.54" y="-885.4" font-family="Times,serif" font-size="14.00">Obsidian プラグイン </text>
<text xml:space="preserve" text-anchor="middle" x="604.54" y="-868.6" font-family="Times,serif" font-size="14.00">(#3)</text>
</a>
</g>
<text xml:space="preserve" text-anchor="middle" x="509.29" y="-847.8" font-family="Times,serif" font-size="14.00">todo</text>
</g>
<!-- build_obsidian_plugin&#45;&gt;i3_obsidian_plugin -->
<g id="edge43" class="edge">
<title>build_obsidian_plugin&#45;&gt;i3_obsidian_plugin</title>
<path fill="none" stroke="black" d="M443.53,-889.6C465.23,-889.6 488.12,-889.6 509.59,-889.6"/>
<polygon fill="black" stroke="black" points="509.5,-893.1 519.5,-889.6 509.5,-886.1 509.5,-893.1"/>
</g>
<!-- cli_tool -->
<g id="node4" class="node">
<title>cli_tool</title>
<g id="a_node4"><a xlink:title="CLI 実装（現行）&#10;criteria: check/fmt/graph が全サンプルに対してエラーなし、npm 公開済み">
<polygon fill="#d4edda" stroke="black" stroke-width="2" points="174.81,-782.4 38.01,-782.4 38.01,-740.8 174.81,-740.8 174.81,-782.4"/>
<text xml:space="preserve" text-anchor="middle" x="106.41" y="-765.8" font-family="Times,serif" font-size="14.00">cli_tool</text>
<text xml:space="preserve" text-anchor="middle" x="106.41" y="-749" font-family="Times,serif" font-size="14.00">CLI 実装（現行）</text>
</a>
</g>
<text xml:space="preserve" text-anchor="middle" x="24.41" y="-728.2" font-family="Times,serif" font-size="14.00">done</text>
</g>
<!-- cli_tool&#45;&gt;build_obsidian_plugin -->
<g id="edge42" class="edge">
<title>cli_tool&#45;&gt;build_obsidian_plugin</title>
<path fill="none" stroke="black" d="M136.02,-783.15C158.55,-799.56 191.14,-822.06 221.61,-838.6 233.29,-844.94 245.93,-851.05 258.47,-856.7"/>
<polygon fill="black" stroke="black" points="257.01,-859.88 267.57,-860.72 259.84,-853.48 257.01,-859.88"/>
</g>
<!-- implement_lints -->
<g id="node18" class="node">
<title>implement_lints</title>
<ellipse fill="none" stroke="black" cx="342.88" cy="-646.6" rx="75.66" ry="29.42"/>
<text xml:space="preserve" text-anchor="middle" x="342.88" y="-650.8" font-family="Times,serif" font-size="14.00">implement_lints</text>
<text xml:space="preserve" text-anchor="middle" x="342.88" y="-634" font-family="Times,serif" font-size="14.00">lint実装</text>
</g>
<!-- cli_tool&#45;&gt;implement_lints -->
<g id="edge21" class="edge">
<title>cli_tool&#45;&gt;implement_lints</title>
<path fill="none" stroke="black" d="M135.21,-739.95C157.57,-723.33 190.31,-700.74 221.61,-685.6 236.47,-678.42 252.96,-672.09 268.86,-666.74"/>
<polygon fill="black" stroke="black" points="269.88,-670.09 278.3,-663.66 267.71,-663.43 269.88,-670.09"/>
</g>
<!-- layer_audit_assets -->
<g id="node23" class="node">
<title>layer_audit_assets</title>
<ellipse fill="none" stroke="black" cx="342.88" cy="-723.6" rx="83.89" ry="29.42"/>
<text xml:space="preserve" text-anchor="middle" x="342.88" y="-727.8" font-family="Times,serif" font-size="14.00">layer_audit_assets</text>
<text xml:space="preserve" text-anchor="middle" x="342.88" y="-711" font-family="Times,serif" font-size="14.00">L3資産階層化</text>
</g>
<!-- cli_tool&#45;&gt;layer_audit_assets -->
<g id="edge38" class="edge">
<title>cli_tool&#45;&gt;layer_audit_assets</title>
<path fill="none" stroke="black" d="M175.54,-750.56C200.39,-746.53 228.82,-741.92 255.07,-737.67"/>
<polygon fill="black" stroke="black" points="255.37,-741.17 264.68,-736.11 254.25,-734.26 255.37,-741.17"/>
</g>
<!-- publish_cli -->
<g id="node29" class="node">
<title>publish_cli</title>
<ellipse fill="none" stroke="black" cx="342.88" cy="-800.6" rx="55.31" ry="29.42"/>
<text xml:space="preserve" text-anchor="middle" x="342.88" y="-804.8" font-family="Times,serif" font-size="14.00">publish_cli</text>
<text xml:space="preserve" text-anchor="middle" x="342.88" y="-788" font-family="Times,serif" font-size="14.00">CLI公開</text>
</g>
<!-- cli_tool&#45;&gt;publish_cli -->
<g id="edge36" class="edge">
<title>cli_tool&#45;&gt;publish_cli</title>
<path fill="none" stroke="black" d="M175.54,-772.93C208.08,-778.34 246.77,-784.78 278.65,-790.08"/>
<polygon fill="black" stroke="black" points="277.69,-793.47 288.12,-791.66 278.83,-786.57 277.69,-793.47"/>
</g>
<!-- criteria_spec -->
<g id="node5" class="node">
<title>criteria_spec</title>
<g id="a_node5"><a xlink:href="https://github.com/takasek/pfdsl/issues/7" xlink:title="合否基準仕様案 (#7)&#10;criteria: 仕様案として起草完了&#10;location: https://github.com/takasek/pfdsl/issues/7">
<polygon fill="#d4edda" stroke="black" points="683.74,-216.4 525.34,-216.4 525.34,-174.8 683.74,-174.8 683.74,-216.4"/>
<text xml:space="preserve" text-anchor="middle" x="604.54" y="-199.8" font-family="Times,serif" font-size="14.00">criteria_spec</text>
<text xml:space="preserve" text-anchor="middle" x="604.54" y="-183" font-family="Times,serif" font-size="14.00">合否基準仕様案 (#7)</text>
</a>
</g>
<text xml:space="preserve" text-anchor="middle" x="511.73" y="-162.2" font-family="Times,serif" font-size="14.00">done</text>
</g>
<!-- integrate_spec -->
<g id="node22" class="node">
<title>integrate_spec</title>
<ellipse fill="none" stroke="black" cx="813.42" cy="-382.6" rx="68.48" ry="29.42"/>
<text xml:space="preserve" text-anchor="middle" x="813.42" y="-386.8" font-family="Times,serif" font-size="14.00">integrate_spec</text>
<text xml:space="preserve" text-anchor="middle" x="813.42" y="-370" font-family="Times,serif" font-size="14.00">仕様統合</text>
</g>
<!-- criteria_spec&#45;&gt;integrate_spec -->
<g id="edge13" class="edge">
<title>criteria_spec&#45;&gt;integrate_spec</title>
<path fill="none" stroke="black" d="M678.85,-216.88C689.51,-221.74 699.92,-227.6 708.94,-234.6 746.63,-263.89 776.09,-310.69 793.78,-343.81"/>
<polygon fill="black" stroke="black" points="790.46,-345.02 798.19,-352.27 796.67,-341.79 790.46,-345.02"/>
</g>
<!-- design_notes -->
<g id="node6" class="node">
<title>design_notes</title>
<g id="a_node6"><a xlink:href="https://github.com/takasek/pfdsl/issues/9" xlink:title="設計判断ノート・分岐なし方針 (#9)&#10;criteria: 仕様案として起草完了&#10;location: https://github.com/takasek/pfdsl/issues/9">
<polygon fill="#d4edda" stroke="black" points="680.14,-148.8 528.94,-148.8 528.94,-90.4 680.14,-90.4 680.14,-148.8"/>
<text xml:space="preserve" text-anchor="middle" x="604.54" y="-132.2" font-family="Times,serif" font-size="14.00">design_notes</text>
<text xml:space="preserve" text-anchor="middle" x="604.54" y="-115.4" font-family="Times,serif" font-size="14.00">設計判断ノート・分</text>
<text xml:space="preserve" text-anchor="middle" x="604.54" y="-98.6" font-family="Times,serif" font-size="14.00">岐なし方針 (#9)</text>
</a>
</g>
<text xml:space="preserve" text-anchor="middle" x="515.33" y="-77.8" font-family="Times,serif" font-size="14.00">done</text>
</g>
<!-- design_notes&#45;&gt;integrate_spec -->
<g id="edge16" class="edge">
<title>design_notes&#45;&gt;integrate_spec</title>
<path fill="none" stroke="black" d="M680.5,-145.17C690.83,-150.82 700.7,-157.58 708.94,-165.6 759.73,-215.07 788.68,-294.44 802.41,-342.25"/>
<polygon fill="black" stroke="black" points="798.97,-342.94 805.02,-351.64 805.72,-341.07 798.97,-342.94"/>
</g>
<!-- draft_criteria -->
<g id="node7" class="node">
<title>draft_criteria</title>
<ellipse fill="none" stroke="black" cx="342.88" cy="-191.6" rx="70.71" ry="29.42"/>
<text xml:space="preserve" text-anchor="middle" x="342.88" y="-195.8" font-family="Times,serif" font-size="14.00">draft_criteria</text>
<text xml:space="preserve" text-anchor="middle" x="342.88" y="-179" font-family="Times,serif" font-size="14.00">合否基準仕様起草</text>
</g>
<!-- draft_criteria&#45;&gt;criteria_spec -->
<g id="edge6" class="edge">
<title>draft_criteria&#45;&gt;criteria_spec</title>
<path fill="none" stroke="black" d="M413.8,-192.68C444.57,-193.15 481.09,-193.71 513.84,-194.22"/>
<polygon fill="black" stroke="black" points="513.68,-197.72 523.73,-194.37 513.79,-190.72 513.68,-197.72"/>
</g>
<!-- draft_external_stakeholders -->
<g id="node8" class="node">
<title>draft_external_stakeholders</title>
<g id="a_node8"><a xlink:title="externalStakeholders仕様起草&#10;&#10;artifact / process の externalStakeholders フィールドを spec に定義する。型・終端監査との連携（#37）・サンプル反映を含む">
<ellipse fill="none" stroke="black" cx="342.88" cy="-557.6" rx="121.26" ry="41.3"/>
<text xml:space="preserve" text-anchor="middle" x="342.88" y="-570.2" font-family="Times,serif" font-size="14.00">draft_external_stakeholders</text>
<text xml:space="preserve" text-anchor="middle" x="342.88" y="-553.4" font-family="Times,serif" font-size="14.00">externalStakeholders</text>
<text xml:space="preserve" text-anchor="middle" x="342.88" y="-536.6" font-family="Times,serif" font-size="14.00">仕様起草</text>
</a>
</g>
</g>
<!-- external_stakeholders_spec -->
<g id="node12" class="node">
<title>external_stakeholders_spec</title>
<g id="a_node12"><a xlink:href="https://github.com/takasek/pfdsl/issues/97" xlink:title="externalStakeholders フィールド仕様案 (#97)&#10;&#10;artifact / process に外部消費者を列挙するフィールド。owner と対称。終端監査（#37）で消費者として扱う。ecosystem 廃止（ADR&#45;0017）の代替手段。v0.0.7 スコープ&#10;criteria: 仕様案として起草完了&#10;location: https://github.com/takasek/pfdsl/issues/97">
<polygon fill="#d4edda" stroke="black" points="708.94,-586.2 500.14,-586.2 500.14,-511 708.94,-511 708.94,-586.2"/>
<text xml:space="preserve" text-anchor="middle" x="604.54" y="-569.6" font-family="Times,serif" font-size="14.00">external_stakeholders_spec</text>
<text xml:space="preserve" text-anchor="middle" x="604.54" y="-552.8" font-family="Times,serif" font-size="14.00">externalStakeholders</text>
<text xml:space="preserve" text-anchor="middle" x="604.54" y="-536" font-family="Times,serif" font-size="14.00">フィールド仕様案 </text>
<text xml:space="preserve" text-anchor="middle" x="604.54" y="-519.2" font-family="Times,serif" font-size="14.00">#97)</text>
</a>
</g>
<text xml:space="preserve" text-anchor="middle" x="486.53" y="-498.4" font-family="Times,serif" font-size="14.00">done</text>
</g>
<!-- draft_external_stakeholders&#45;&gt;external_stakeholders_spec -->
<g id="edge45" class="edge">
<title>draft_external_stakeholders&#45;&gt;external_stakeholders_spec</title>
<path fill="none" stroke="black" d="M463.83,-553.44C472.14,-553.15 480.51,-552.86 488.79,-552.58"/>
<polygon fill="black" stroke="black" points="488.64,-556.08 498.51,-552.24 488.4,-549.09 488.64,-556.08"/>
</g>
<!-- draft_location -->
<g id="node9" class="node">
<title>draft_location</title>
<g id="a_node9"><a xlink:title="location/command 起草">
<ellipse fill="none" stroke="black" cx="342.88" cy="-456.6" rx="84.99" ry="41.3"/>
<text xml:space="preserve" text-anchor="middle" x="342.88" y="-469.2" font-family="Times,serif" font-size="14.00">draft_location</text>
<text xml:space="preserve" text-anchor="middle" x="342.88" y="-452.4" font-family="Times,serif" font-size="14.00">location/command</text>
<text xml:space="preserve" text-anchor="middle" x="342.88" y="-435.6" font-family="Times,serif" font-size="14.00">起草</text>
</a>
</g>
</g>
<!-- location_spec -->
<g id="node25" class="node">
<title>location_spec</title>
<g id="a_node25"><a xlink:href="https://github.com/takasek/pfdsl/issues/13" xlink:title="location/command 仕様案 (#13)&#10;&#10;ノードと実ファイル・実行手順を結ぶメタデータ。パス解決規則のみ multifile 方針と接点&#10;criteria: 仕様案として起草完了&#10;location: https://github.com/takasek/pfdsl/issues/13">
<polygon fill="#d4edda" stroke="black" points="672.94,-478.8 536.14,-478.8 536.14,-420.4 672.94,-420.4 672.94,-478.8"/>
<text xml:space="preserve" text-anchor="middle" x="604.54" y="-462.2" font-family="Times,serif" font-size="14.00">location_spec</text>
<text xml:space="preserve" text-anchor="middle" x="604.54" y="-445.4" font-family="Times,serif" font-size="14.00">location/command</text>
<text xml:space="preserve" text-anchor="middle" x="604.54" y="-428.6" font-family="Times,serif" font-size="14.00">仕様案 (#13)</text>
</a>
</g>
<text xml:space="preserve" text-anchor="middle" x="522.53" y="-407.8" font-family="Times,serif" font-size="14.00">done</text>
</g>
<!-- draft_location&#45;&gt;location_spec -->
<g id="edge10" class="edge">
<title>draft_location&#45;&gt;location_spec</title>
<path fill="none" stroke="black" d="M428.18,-454.33C459.04,-453.5 493.82,-452.56 524.23,-451.74"/>
<polygon fill="black" stroke="black" points="524.24,-455.24 534.14,-451.47 524.05,-448.24 524.24,-455.24"/>
</g>
<!-- draft_multifile_specs -->
<g id="node10" class="node">
<title>draft_multifile_specs</title>
<g id="a_node10"><a xlink:title="階層・プリセット共同起草&#10;&#10;#5 と #6 は決定が往復で形成される相互依存のため分割せず共同設計する。共有決定は方針記録として外化">
<ellipse fill="none" stroke="black" cx="1231.97" cy="-286.6" rx="95.44" ry="41.3"/>
<text xml:space="preserve" text-anchor="middle" x="1231.97" y="-299.2" font-family="Times,serif" font-size="14.00">draft_multifile_specs</text>
<text xml:space="preserve" text-anchor="middle" x="1231.97" y="-282.4" font-family="Times,serif" font-size="14.00">階層・プリセット共</text>
<text xml:space="preserve" text-anchor="middle" x="1231.97" y="-265.6" font-family="Times,serif" font-size="14.00">同起草</text>
</a>
</g>
</g>
<!-- hierarchy_spec -->
<g id="node15" class="node">
<title>hierarchy_spec</title>
<g id="a_node15"><a xlink:href="https://github.com/takasek/pfdsl/issues/5" xlink:title="階層PFD仕様案 (#5)&#10;criteria: 仕様案として起草完了&#10;location: https://github.com/takasek/pfdsl/issues/5">
<polygon fill="#d4edda" stroke="black" points="1531.64,-307.4 1380.44,-307.4 1380.44,-265.8 1531.64,-265.8 1531.64,-307.4"/>
<text xml:space="preserve" text-anchor="middle" x="1456.04" y="-290.8" font-family="Times,serif" font-size="14.00">hierarchy_spec</text>
<text xml:space="preserve" text-anchor="middle" x="1456.04" y="-274" font-family="Times,serif" font-size="14.00">階層PFD仕様案 (#5)</text>
</a>
</g>
<text xml:space="preserve" text-anchor="middle" x="1366.83" y="-253.2" font-family="Times,serif" font-size="14.00">done</text>
</g>
<!-- draft_multifile_specs&#45;&gt;hierarchy_spec -->
<g id="edge2" class="edge">
<title>draft_multifile_specs&#45;&gt;hierarchy_spec</title>
<path fill="none" stroke="black" d="M1327.79,-286.6C1341.42,-286.6 1355.39,-286.6 1368.84,-286.6"/>
<polygon fill="black" stroke="black" points="1368.49,-290.1 1378.49,-286.6 1368.49,-283.1 1368.49,-290.1"/>
</g>
<!-- multifile_policy -->
<g id="node26" class="node">
<title>multifile_policy</title>
<g id="a_node26"><a xlink:title="マルチファイル意味論方針&#10;&#10;共同起草で確定した ID スコープ・継承解決順・ファイル間参照の決定記録。ファイル横断機能（#8 実装等）と仕様統合の前提資料&#10;criteria: ID スコープ・継承解決順・ファイル間参照の決定が文書化済み&#10;location: docs/spec/proposals/multifile&#45;policy.md">
<polygon fill="#d4edda" stroke="black" points="1531.64,-247.8 1380.44,-247.8 1380.44,-189.4 1531.64,-189.4 1531.64,-247.8"/>
<text xml:space="preserve" text-anchor="middle" x="1456.04" y="-231.2" font-family="Times,serif" font-size="14.00">multifile_policy</text>
<text xml:space="preserve" text-anchor="middle" x="1456.04" y="-214.4" font-family="Times,serif" font-size="14.00">マルチファイル意味</text>
<text xml:space="preserve" text-anchor="middle" x="1456.04" y="-197.6" font-family="Times,serif" font-size="14.00">論方針</text>
</a>
</g>
<text xml:space="preserve" text-anchor="middle" x="1366.83" y="-176.8" font-family="Times,serif" font-size="14.00">done</text>
</g>
<!-- draft_multifile_specs&#45;&gt;multifile_policy -->
<g id="edge4" class="edge">
<title>draft_multifile_specs&#45;&gt;multifile_policy</title>
<path fill="none" stroke="black" d="M1310.64,-262.82C1329.55,-257.03 1349.88,-250.8 1369.14,-244.9"/>
<polygon fill="black" stroke="black" points="1370.05,-248.29 1378.59,-242.01 1368,-241.59 1370.05,-248.29"/>
</g>
<!-- presets_spec -->
<g id="node28" class="node">
<title>presets_spec</title>
<g id="a_node28"><a xlink:href="https://github.com/takasek/pfdsl/issues/6" xlink:title="共有プリセット仕様案 (#6)&#10;criteria: 仕様案として起草完了&#10;location: https://github.com/takasek/pfdsl/issues/6">
<polygon fill="#d4edda" stroke="black" points="1531.64,-383.8 1380.44,-383.8 1380.44,-325.4 1531.64,-325.4 1531.64,-383.8"/>
<text xml:space="preserve" text-anchor="middle" x="1456.04" y="-367.2" font-family="Times,serif" font-size="14.00">presets_spec</text>
<text xml:space="preserve" text-anchor="middle" x="1456.04" y="-350.4" font-family="Times,serif" font-size="14.00">共有プリセット仕様</text>
<text xml:space="preserve" text-anchor="middle" x="1456.04" y="-333.6" font-family="Times,serif" font-size="14.00">案 (#6)</text>
</a>
</g>
<text xml:space="preserve" text-anchor="middle" x="1366.83" y="-312.8" font-family="Times,serif" font-size="14.00">done</text>
</g>
<!-- draft_multifile_specs&#45;&gt;presets_spec -->
<g id="edge3" class="edge">
<title>draft_multifile_specs&#45;&gt;presets_spec</title>
<path fill="none" stroke="black" d="M1310.64,-310.38C1329.55,-316.17 1349.88,-322.4 1369.14,-328.3"/>
<polygon fill="black" stroke="black" points="1368,-331.61 1378.59,-331.19 1370.05,-324.91 1368,-331.61"/>
</g>
<!-- draft_revises -->
<g id="node11" class="node">
<title>draft_revises</title>
<g id="a_node11"><a xlink:title="改版チェーン仕様起草">
<ellipse fill="none" stroke="black" cx="342.88" cy="-355.6" rx="78.14" ry="41.3"/>
<text xml:space="preserve" text-anchor="middle" x="342.88" y="-368.2" font-family="Times,serif" font-size="14.00">draft_revises</text>
<text xml:space="preserve" text-anchor="middle" x="342.88" y="-351.4" font-family="Times,serif" font-size="14.00">改版チェーン仕様起</text>
<text xml:space="preserve" text-anchor="middle" x="342.88" y="-334.6" font-family="Times,serif" font-size="14.00">草</text>
</a>
</g>
</g>
<!-- revises_spec -->
<g id="node33" class="node">
<title>revises_spec</title>
<g id="a_node33"><a xlink:href="https://github.com/takasek/pfdsl/issues/8" xlink:title="改版チェーン仕様案 (#8)&#10;criteria: 仕様案として起草完了&#10;location: https://github.com/takasek/pfdsl/issues/8">
<polygon fill="#d4edda" stroke="black" points="683.74,-390.8 525.34,-390.8 525.34,-332.4 683.74,-332.4 683.74,-390.8"/>
<text xml:space="preserve" text-anchor="middle" x="604.54" y="-374.2" font-family="Times,serif" font-size="14.00">revises_spec</text>
<text xml:space="preserve" text-anchor="middle" x="604.54" y="-357.4" font-family="Times,serif" font-size="14.00">改版チェーン仕様案 </text>
<text xml:space="preserve" text-anchor="middle" x="604.54" y="-340.6" font-family="Times,serif" font-size="14.00">(#8)</text>
</a>
</g>
<text xml:space="preserve" text-anchor="middle" x="511.73" y="-319.8" font-family="Times,serif" font-size="14.00">done</text>
</g>
<!-- draft_revises&#45;&gt;revises_spec -->
<g id="edge8" class="edge">
<title>draft_revises&#45;&gt;revises_spec</title>
<path fill="none" stroke="black" d="M421.43,-357.39C450.45,-358.06 483.65,-358.83 513.69,-359.52"/>
<polygon fill="black" stroke="black" points="513.44,-363.02 523.52,-359.75 513.61,-356.02 513.44,-363.02"/>
</g>
<!-- external_stakeholders_spec&#45;&gt;integrate_spec -->
<g id="edge17" class="edge">
<title>external_stakeholders_spec&#45;&gt;integrate_spec</title>
<path fill="none" stroke="black" d="M675.58,-510.64C687.07,-503.48 698.59,-495.68 708.94,-487.6 735.18,-467.11 761.47,-440.34 780.99,-418.95"/>
<polygon fill="black" stroke="black" points="783.54,-421.35 787.64,-411.57 778.34,-416.66 783.54,-421.35"/>
</g>
<!-- featured_toolchain -->
<g id="node13" class="node">
<title>featured_toolchain</title>
<g id="a_node13"><a xlink:href="https://github.com/takasek/pfdsl/issues/52" xlink:title="spec v0.0.7 実装済みツールチェーン (#52)&#10;criteria: spec v0.0.7 の全機能が実装され、check/fmt/graph がエラーなしで動作&#10;location: https://github.com/takasek/pfdsl/issues/52">
<polygon fill="#d4edda" stroke="black" points="1531.64,-477.2 1380.44,-477.2 1380.44,-402 1531.64,-402 1531.64,-477.2"/>
<text xml:space="preserve" text-anchor="middle" x="1456.04" y="-460.6" font-family="Times,serif" font-size="14.00">featured_toolchain</text>
<text xml:space="preserve" text-anchor="middle" x="1456.04" y="-443.8" font-family="Times,serif" font-size="14.00">spec v0.0.7</text>
<text xml:space="preserve" text-anchor="middle" x="1456.04" y="-427" font-family="Times,serif" font-size="14.00">実装済みツールチェ</text>
<text xml:space="preserve" text-anchor="middle" x="1456.04" y="-410.2" font-family="Times,serif" font-size="14.00">ーン (#52)</text>
</a>
</g>
<text xml:space="preserve" text-anchor="middle" x="1366.83" y="-389.4" font-family="Times,serif" font-size="14.00">done</text>
</g>
<!-- implement_multifile -->
<g id="node19" class="node">
<title>implement_multifile</title>
<g id="a_node19"><a xlink:title="マルチファイル機能実装">
<ellipse fill="none" stroke="black" cx="2046.3" cy="-397.6" rx="92.69" ry="41.3"/>
<text xml:space="preserve" text-anchor="middle" x="2046.3" y="-410.2" font-family="Times,serif" font-size="14.00">implement_multifile</text>
<text xml:space="preserve" text-anchor="middle" x="2046.3" y="-393.4" font-family="Times,serif" font-size="14.00">マルチファイル機能</text>
<text xml:space="preserve" text-anchor="middle" x="2046.3" y="-376.6" font-family="Times,serif" font-size="14.00">実装</text>
</a>
</g>
</g>
<!-- featured_toolchain&#45;&gt;implement_multifile -->
<g id="edge32" class="edge">
<title>featured_toolchain&#45;&gt;implement_multifile</title>
<path fill="none" stroke="black" d="M1532.11,-436.16C1623.34,-431.71 1781.92,-423.16 1917.61,-411.6 1926.46,-410.85 1935.64,-409.99 1944.84,-409.08"/>
<polygon fill="black" stroke="black" points="1944.95,-412.58 1954.55,-408.1 1944.25,-405.62 1944.95,-412.58"/>
</g>
<!-- integrate_multifile -->
<g id="node21" class="node">
<title>integrate_multifile</title>
<g id="a_node21"><a xlink:title="マルチファイル仕様統合">
<ellipse fill="none" stroke="black" cx="1652.63" cy="-354.6" rx="84.98" ry="41.3"/>
<text xml:space="preserve" text-anchor="middle" x="1652.63" y="-367.2" font-family="Times,serif" font-size="14.00">integrate_multifile</text>
<text xml:space="preserve" text-anchor="middle" x="1652.63" y="-350.4" font-family="Times,serif" font-size="14.00">マルチファイル仕様</text>
<text xml:space="preserve" text-anchor="middle" x="1652.63" y="-333.6" font-family="Times,serif" font-size="14.00">統合</text>
</a>
</g>
</g>
<!-- featured_toolchain&#45;&gt;integrate_multifile -->
<g id="edge29" class="edge">
<title>featured_toolchain&#45;&gt;integrate_multifile</title>
<path fill="none" stroke="black" d="M1531.99,-406.86C1547.22,-400.21 1563.21,-393.22 1578.37,-386.6"/>
<polygon fill="black" stroke="black" points="1579.57,-389.9 1587.33,-382.69 1576.77,-383.48 1579.57,-389.9"/>
</g>
<!-- findings_r12 -->
<g id="node14" class="node">
<title>findings_r12</title>
<g id="a_node14"><a xlink:title="実践ラウンド1/2レビュー知見&#10;&#10;docs/examples の執筆・レビューで得た品質知見&#10;criteria: skill_template または adr_corpus への反映が確認済み">
<polygon fill="#d4edda" stroke="black" stroke-width="2" points="185.61,-675.8 27.21,-675.8 27.21,-617.4 185.61,-617.4 185.61,-675.8"/>
<text xml:space="preserve" text-anchor="middle" x="106.41" y="-659.2" font-family="Times,serif" font-size="14.00">findings_r12</text>
<text xml:space="preserve" text-anchor="middle" x="106.41" y="-642.4" font-family="Times,serif" font-size="14.00">実践ラウンド1/2レビ</text>
<text xml:space="preserve" text-anchor="middle" x="106.41" y="-625.6" font-family="Times,serif" font-size="14.00">ュー知見</text>
</a>
</g>
<text xml:space="preserve" text-anchor="middle" x="13.61" y="-604.8" font-family="Times,serif" font-size="14.00">done</text>
</g>
<!-- findings_r12&#45;&gt;implement_lints -->
<g id="edge20" class="edge">
<title>findings_r12&#45;&gt;implement_lints</title>
<path fill="none" stroke="black" d="M186.47,-646.6C208.64,-646.6 232.87,-646.6 255.45,-646.6"/>
<polygon fill="black" stroke="black" points="255.22,-650.1 265.22,-646.6 255.22,-643.1 255.22,-650.1"/>
</g>
<!-- hierarchy_spec&#45;&gt;integrate_multifile -->
<g id="edge26" class="edge">
<title>hierarchy_spec&#45;&gt;integrate_multifile</title>
<path fill="none" stroke="black" d="M1517.81,-307.84C1534.97,-313.83 1553.91,-320.45 1572.01,-326.78"/>
<polygon fill="black" stroke="black" points="1570.82,-330.07 1581.41,-330.06 1573.13,-323.46 1570.82,-330.07"/>
</g>
<!-- i12_article -->
<g id="node16" class="node">
<title>i12_article</title>
<g id="a_node16"><a xlink:href="https://github.com/takasek/pfdsl/issues/12" xlink:title="公開記事 (#12)&#10;&#10;ADR 群を素材とした外部公開記事。依存なしで着手可能、spec v0.0.7 確定後はより充実&#10;criteria: 外部メディアに公開済みで URL が存在する&#10;location: https://github.com/takasek/pfdsl/issues/12">
<polygon fill="#f8f9fa" stroke="black" stroke-width="2" points="665.74,-58.4 543.34,-58.4 543.34,-16.8 665.74,-16.8 665.74,-58.4"/>
<text xml:space="preserve" text-anchor="middle" x="604.54" y="-41.8" font-family="Times,serif" font-size="14.00">i12_article</text>
<text xml:space="preserve" text-anchor="middle" x="604.54" y="-25" font-family="Times,serif" font-size="14.00">公開記事 (#12)</text>
</a>
</g>
<text xml:space="preserve" text-anchor="middle" x="530.89" y="-4.2" font-family="Times,serif" font-size="14.00">todo</text>
</g>
<!-- lint_checker -->
<g id="node24" class="node">
<title>lint_checker</title>
<g id="a_node24"><a xlink:href="https://github.com/takasek/pfdsl/issues/4" xlink:title="lint拡張checker (#4)&#10;&#10;lint 候補の完全リストは issue #4 が一次情報（本文+コメント）。ここに列挙しない — 列挙は同期漏れで腐るため&#10;criteria: issue #4 の対象 lint がすべて実装され、check コマンドで動作確認済み&#10;location: https://github.com/takasek/pfdsl/issues/4">
<polygon fill="#d4edda" stroke="black" points="1083.5,-573.4 917.9,-573.4 917.9,-531.8 1083.5,-531.8 1083.5,-573.4"/>
<text xml:space="preserve" text-anchor="middle" x="1000.7" y="-556.8" font-family="Times,serif" font-size="14.00">lint_checker</text>
<text xml:space="preserve" text-anchor="middle" x="1000.7" y="-540" font-family="Times,serif" font-size="14.00">lint拡張checker (#4)</text>
</a>
</g>
<text xml:space="preserve" text-anchor="middle" x="904.3" y="-519.2" font-family="Times,serif" font-size="14.00">done</text>
</g>
<!-- implement_lints&#45;&gt;lint_checker -->
<g id="edge22" class="edge">
<title>implement_lints&#45;&gt;lint_checker</title>
<path fill="none" stroke="black" d="M414.57,-636.9C488.12,-626.76 606.64,-610.31 708.94,-595.6 774.99,-586.1 849.44,-575.09 906.47,-566.58"/>
<polygon fill="black" stroke="black" points="906.77,-570.08 916.14,-565.14 905.73,-563.15 906.77,-570.08"/>
</g>
<!-- multifile_toolchain -->
<g id="node27" class="node">
<title>multifile_toolchain</title>
<g id="a_node27"><a xlink:title="spec v0.0.8 実装済みツールチェーン&#10;&#10;subflow:/extends: の parser・checker・renderer 実装。実装 issue は spec_v008 確定後に起票（手段の盲点が統合で露出するため詳細を先書きしない — ADR&#45;0013 対称）。後続門番のプレースホルダ（ADR&#45;0018）&#10;criteria: subflow/extends が parser・checker・renderer に実装され check/fmt/graph がエラーなし">
<polygon fill="#f8f9fa" stroke="black" stroke-width="2" points="2333.4,-435.2 2175,-435.2 2175,-360 2333.4,-360 2333.4,-435.2"/>
<text xml:space="preserve" text-anchor="middle" x="2254.2" y="-418.6" font-family="Times,serif" font-size="14.00">multifile_toolchain</text>
<text xml:space="preserve" text-anchor="middle" x="2254.2" y="-401.8" font-family="Times,serif" font-size="14.00">spec v0.0.8</text>
<text xml:space="preserve" text-anchor="middle" x="2254.2" y="-385" font-family="Times,serif" font-size="14.00">実装済みツールチェ</text>
<text xml:space="preserve" text-anchor="middle" x="2254.2" y="-368.2" font-family="Times,serif" font-size="14.00">ーン</text>
</a>
</g>
<text xml:space="preserve" text-anchor="middle" x="2162.55" y="-347.4" font-family="Times,serif" font-size="14.00">todo</text>
</g>
<!-- implement_multifile&#45;&gt;multifile_toolchain -->
<g id="edge33" class="edge">
<title>implement_multifile&#45;&gt;multifile_toolchain</title>
<path fill="none" stroke="black" d="M2139.41,-397.6C2147.18,-397.6 2155.03,-397.6 2162.79,-397.6"/>
<polygon fill="black" stroke="black" points="2162.55,-401.1 2172.55,-397.6 2162.55,-394.1 2162.55,-401.1"/>
</g>
<!-- implement_spec_features -->
<g id="node20" class="node">
<title>implement_spec_features</title>
<ellipse fill="none" stroke="black" cx="1231.97" cy="-439.6" rx="112.47" ry="29.42"/>
<text xml:space="preserve" text-anchor="middle" x="1231.97" y="-443.8" font-family="Times,serif" font-size="14.00">implement_spec_features</text>
<text xml:space="preserve" text-anchor="middle" x="1231.97" y="-427" font-family="Times,serif" font-size="14.00">新仕様実装</text>
</g>
<!-- implement_spec_features&#45;&gt;featured_toolchain -->
<g id="edge25" class="edge">
<title>implement_spec_features&#45;&gt;featured_toolchain</title>
<path fill="none" stroke="black" d="M1344.66,-439.6C1352.71,-439.6 1360.76,-439.6 1368.64,-439.6"/>
<polygon fill="black" stroke="black" points="1368.52,-443.1 1378.52,-439.6 1368.52,-436.1 1368.52,-443.1"/>
</g>
<!-- spec_v008 -->
<g id="node37" class="node">
<title>spec_v008</title>
<g id="a_node37"><a xlink:title="仕様書 v0.0.8（マルチファイル統合）&#10;criteria: check/fmt/graph が全サンプルにエラーなし&#10;location: docs/spec/spec.md">
<polygon fill="#f8f9fa" stroke="black" points="1917.61,-402.2 1773.61,-402.2 1773.61,-327 1917.61,-327 1917.61,-402.2"/>
<text xml:space="preserve" text-anchor="middle" x="1845.61" y="-385.6" font-family="Times,serif" font-size="14.00">spec_v008</text>
<text xml:space="preserve" text-anchor="middle" x="1845.61" y="-368.8" font-family="Times,serif" font-size="14.00">仕様書 v0.0</text>
<text xml:space="preserve" text-anchor="middle" x="1845.61" y="-352" font-family="Times,serif" font-size="14.00">8（マルチファイル</text>
<text xml:space="preserve" text-anchor="middle" x="1845.61" y="-335.2" font-family="Times,serif" font-size="14.00">統合）</text>
</a>
</g>
<text xml:space="preserve" text-anchor="middle" x="1761.17" y="-314.4" font-family="Times,serif" font-size="14.00">todo</text>
</g>
<!-- integrate_multifile&#45;&gt;spec_v008 -->
<g id="edge30" class="edge">
<title>integrate_multifile&#45;&gt;spec_v008</title>
<path fill="none" stroke="black" d="M1737.39,-358.99C1745.5,-359.41 1753.72,-359.84 1761.82,-360.27"/>
<polygon fill="black" stroke="black" points="1761.48,-363.75 1771.65,-360.78 1761.84,-356.76 1761.48,-363.75"/>
</g>
<!-- spec_v007 -->
<g id="node36" class="node">
<title>spec_v007</title>
<g id="a_node36"><a xlink:title="仕様書 v0.0.7（統合）&#10;criteria: check/fmt/graph が全サンプルにエラーなし、v0.0.7 全フィールドが spec 本文に統合済み&#10;location: docs/spec/spec.md">
<polygon fill="#fff3cd" stroke="black" points="1079.9,-453.8 921.5,-453.8 921.5,-395.4 1079.9,-395.4 1079.9,-453.8"/>
<text xml:space="preserve" text-anchor="middle" x="1000.7" y="-437.2" font-family="Times,serif" font-size="14.00">spec_v007</text>
<text xml:space="preserve" text-anchor="middle" x="1000.7" y="-420.4" font-family="Times,serif" font-size="14.00">仕様書 v0.0.7（統合</text>
<text xml:space="preserve" text-anchor="middle" x="1000.7" y="-403.6" font-family="Times,serif" font-size="14.00">）</text>
</a>
</g>
<text xml:space="preserve" text-anchor="middle" x="911" y="-382.8" font-family="Times,serif" font-size="14.00">wip</text>
</g>
<!-- integrate_spec&#45;&gt;spec_v007 -->
<g id="edge18" class="edge">
<title>integrate_spec&#45;&gt;spec_v007</title>
<path fill="none" stroke="black" d="M874.58,-396.24C885.98,-398.82 898.14,-401.58 910.23,-404.32"/>
<polygon fill="black" stroke="black" points="909.28,-407.69 919.81,-406.49 910.83,-400.87 909.28,-407.69"/>
</g>
<!-- layer_audit_assets&#45;&gt;audit_distribution -->
<g id="edge39" class="edge">
<title>layer_audit_assets&#45;&gt;audit_distribution</title>
<path fill="none" stroke="black" d="M427.11,-723.6C455.79,-723.6 487.96,-723.6 516.91,-723.6"/>
<polygon fill="black" stroke="black" points="516.73,-727.1 526.73,-723.6 516.73,-720.1 516.73,-727.1"/>
</g>
<!-- lint_checker&#45;&gt;implement_spec_features -->
<g id="edge24" class="edge">
<title>lint_checker&#45;&gt;implement_spec_features</title>
<path fill="none" stroke="black" d="M1044.83,-531.35C1079.48,-514.27 1128.64,-490.04 1167.74,-470.76"/>
<polygon fill="black" stroke="black" points="1169.19,-473.95 1176.61,-466.39 1166.09,-467.68 1169.19,-473.95"/>
</g>
<!-- location_spec&#45;&gt;integrate_spec -->
<g id="edge15" class="edge">
<title>location_spec&#45;&gt;integrate_spec</title>
<path fill="none" stroke="black" d="M673.28,-427.66C696.98,-419.99 723.54,-411.39 747.04,-403.77"/>
<polygon fill="black" stroke="black" points="748.08,-407.11 756.52,-400.7 745.93,-400.46 748.08,-407.11"/>
</g>
<!-- multifile_policy&#45;&gt;integrate_multifile -->
<g id="edge28" class="edge">
<title>multifile_policy&#45;&gt;integrate_multifile</title>
<path fill="none" stroke="black" d="M1517.92,-248.22C1522.63,-250.93 1527.26,-253.74 1531.64,-256.6 1556.29,-272.68 1581.79,-292.92 1602.91,-310.82"/>
<polygon fill="black" stroke="black" points="1600.35,-313.24 1610.22,-317.09 1604.91,-307.92 1600.35,-313.24"/>
</g>
<!-- presets_spec&#45;&gt;integrate_multifile -->
<g id="edge27" class="edge">
<title>presets_spec&#45;&gt;integrate_multifile</title>
<path fill="none" stroke="black" d="M1531.99,-354.6C1539.85,-354.6 1547.92,-354.6 1555.97,-354.6"/>
<polygon fill="black" stroke="black" points="1555.8,-358.1 1565.8,-354.6 1555.8,-351.1 1555.8,-358.1"/>
</g>
<!-- published_cli -->
<g id="node30" class="node">
<title>published_cli</title>
<g id="a_node30"><a xlink:href="https://www.npmjs.com/package/@pfdsl/cli" xlink:title="npm公開済みCLI&#10;&#10;現行公開バージョンは npm 一次情報（ここに書かない — ドリフトするため）。詳細は docs/pfdsl_implementation_flow.pfdsl の cli_published 参照&#10;criteria: npm show @pfdsl/cli version が期待バージョンを返す&#10;location: https://www.npmjs.com/package/@pfdsl/cli">
<polygon fill="#d4edda" stroke="black" stroke-width="2" points="665.74,-821.4 543.34,-821.4 543.34,-779.8 665.74,-779.8 665.74,-821.4"/>
<text xml:space="preserve" text-anchor="middle" x="604.54" y="-804.8" font-family="Times,serif" font-size="14.00">published_cli</text>
<text xml:space="preserve" text-anchor="middle" x="604.54" y="-788" font-family="Times,serif" font-size="14.00">npm公開済みCLI</text>
</a>
</g>
<text xml:space="preserve" text-anchor="middle" x="529.73" y="-767.2" font-family="Times,serif" font-size="14.00">done</text>
</g>
<!-- publish_cli&#45;&gt;published_cli -->
<g id="edge37" class="edge">
<title>publish_cli&#45;&gt;published_cli</title>
<path fill="none" stroke="black" d="M398.63,-800.6C437.2,-800.6 489.24,-800.6 531.23,-800.6"/>
<polygon fill="black" stroke="black" points="530.99,-804.1 540.99,-800.6 530.99,-797.1 530.99,-804.1"/>
</g>
<!-- restructure_skillgen -->
<g id="node31" class="node">
<title>restructure_skillgen</title>
<ellipse fill="none" stroke="black" cx="342.88" cy="-978.6" rx="89.93" ry="29.42"/>
<text xml:space="preserve" text-anchor="middle" x="342.88" y="-982.8" font-family="Times,serif" font-size="14.00">restructure_skillgen</text>
<text xml:space="preserve" text-anchor="middle" x="342.88" y="-966" font-family="Times,serif" font-size="14.00">生成系再構成</text>
</g>
<!-- restructured_gen -->
<g id="node32" class="node">
<title>restructured_gen</title>
<g id="a_node32"><a xlink:href="https://github.com/takasek/pfdsl/issues/10" xlink:title="再構成済みスキル生成系 (#10)&#10;criteria: make gen&#45;skill が差分なしで完了し、skill と gh_skill_dist が一致&#10;location: https://github.com/takasek/pfdsl/issues/10">
<polygon fill="#d4edda" stroke="black" stroke-width="2" points="680.14,-1007.8 528.94,-1007.8 528.94,-949.4 680.14,-949.4 680.14,-1007.8"/>
<text xml:space="preserve" text-anchor="middle" x="604.54" y="-991.2" font-family="Times,serif" font-size="14.00">restructured_gen</text>
<text xml:space="preserve" text-anchor="middle" x="604.54" y="-974.4" font-family="Times,serif" font-size="14.00">再構成済みスキル生</text>
<text xml:space="preserve" text-anchor="middle" x="604.54" y="-957.6" font-family="Times,serif" font-size="14.00">成系 (#10)</text>
</a>
</g>
<text xml:space="preserve" text-anchor="middle" x="515.33" y="-936.8" font-family="Times,serif" font-size="14.00">done</text>
</g>
<!-- restructure_skillgen&#45;&gt;restructured_gen -->
<g id="edge35" class="edge">
<title>restructure_skillgen&#45;&gt;restructured_gen</title>
<path fill="none" stroke="black" d="M433.24,-978.6C460.32,-978.6 490.02,-978.6 516.92,-978.6"/>
<polygon fill="black" stroke="black" points="516.75,-982.1 526.75,-978.6 516.75,-975.1 516.75,-982.1"/>
</g>
<!-- revises_spec&#45;&gt;integrate_spec -->
<g id="edge14" class="edge">
<title>revises_spec&#45;&gt;integrate_spec</title>
<path fill="none" stroke="black" d="M684.05,-369.57C700.76,-371.27 718.4,-373.06 735.08,-374.75"/>
<polygon fill="black" stroke="black" points="734.64,-378.22 744.94,-375.75 735.34,-371.26 734.64,-378.22"/>
</g>
<!-- skill_gen -->
<g id="node34" class="node">
<title>skill_gen</title>
<g id="a_node34"><a xlink:title="スキル生成系（現行）&#10;&#10;scripts/gen&#45;skill.mjs と docs/samples 構成&#10;criteria: make gen&#45;skill が差分なしで完了し、skill と gh_skill_dist が一致">
<polygon fill="#d4edda" stroke="black" stroke-width="2" points="182.01,-1007.8 30.81,-1007.8 30.81,-949.4 182.01,-949.4 182.01,-1007.8"/>
<text xml:space="preserve" text-anchor="middle" x="106.41" y="-991.2" font-family="Times,serif" font-size="14.00">skill_gen</text>
<text xml:space="preserve" text-anchor="middle" x="106.41" y="-974.4" font-family="Times,serif" font-size="14.00">スキル生成系（現行</text>
<text xml:space="preserve" text-anchor="middle" x="106.41" y="-957.6" font-family="Times,serif" font-size="14.00">）</text>
</a>
</g>
<text xml:space="preserve" text-anchor="middle" x="17.21" y="-936.8" font-family="Times,serif" font-size="14.00">done</text>
</g>
<!-- skill_gen&#45;&gt;restructure_skillgen -->
<g id="edge34" class="edge">
<title>skill_gen&#45;&gt;restructure_skillgen</title>
<path fill="none" stroke="black" d="M182.89,-978.6C201.47,-978.6 221.65,-978.6 241.21,-978.6"/>
<polygon fill="black" stroke="black" points="241.12,-982.1 251.12,-978.6 241.12,-975.1 241.12,-982.1"/>
</g>
<!-- spec_v006 -->
<g id="node35" class="node">
<title>spec_v006</title>
<g id="a_node35"><a xlink:title="仕様書 v0.0.6&#10;criteria: check/fmt/graph が全サンプルにエラーなし&#10;location: docs/spec/spec.md">
<polygon fill="#d4edda" stroke="black" stroke-width="2" points="164.01,-376.4 48.81,-376.4 48.81,-334.8 164.01,-334.8 164.01,-376.4"/>
<text xml:space="preserve" text-anchor="middle" x="106.41" y="-359.8" font-family="Times,serif" font-size="14.00">spec_v006</text>
<text xml:space="preserve" text-anchor="middle" x="106.41" y="-343" font-family="Times,serif" font-size="14.00">仕様書 v0.0.6</text>
</a>
</g>
<text xml:space="preserve" text-anchor="middle" x="35.21" y="-322.2" font-family="Times,serif" font-size="14.00">done</text>
</g>
<!-- spec_v006&#45;&gt;draft_criteria -->
<g id="edge5" class="edge">
<title>spec_v006&#45;&gt;draft_criteria</title>
<path fill="none" stroke="black" d="M122.8,-333.85C142.77,-307.06 180.02,-261.78 221.61,-234.6 236.68,-224.76 254.28,-216.83 271.29,-210.6"/>
<polygon fill="black" stroke="black" points="272.06,-214.04 280.35,-207.43 269.76,-207.43 272.06,-214.04"/>
</g>
<!-- spec_v006&#45;&gt;draft_external_stakeholders -->
<g id="edge44" class="edge">
<title>spec_v006&#45;&gt;draft_external_stakeholders</title>
<path fill="none" stroke="black" d="M118.85,-377.2C136.83,-409.35 174.57,-469.92 221.61,-506.6 229.35,-512.63 237.9,-518.07 246.77,-522.96"/>
<polygon fill="black" stroke="black" points="245.07,-526.02 255.55,-527.55 248.31,-519.82 245.07,-526.02"/>
</g>
<!-- spec_v006&#45;&gt;draft_location -->
<g id="edge9" class="edge">
<title>spec_v006&#45;&gt;draft_location</title>
<path fill="none" stroke="black" d="M156.83,-377.38C176.91,-386.2 200.35,-396.43 221.61,-405.6 236.42,-411.98 252.28,-418.75 267.46,-425.2"/>
<polygon fill="black" stroke="black" points="265.88,-428.33 276.45,-429.02 268.61,-421.89 265.88,-428.33"/>
</g>
<!-- spec_v006&#45;&gt;draft_multifile_specs -->
<g id="edge1" class="edge">
<title>spec_v006&#45;&gt;draft_multifile_specs</title>
<path fill="none" stroke="black" d="M147.4,-333.82C168.77,-323.29 195.91,-311.65 221.61,-305.6 387.05,-266.66 433.58,-286.6 603.54,-286.6 603.54,-286.6 603.54,-286.6 814.42,-286.6 920.03,-286.6 1040.7,-286.6 1124.89,-286.6"/>
<polygon fill="black" stroke="black" points="1124.75,-290.1 1134.75,-286.6 1124.75,-283.1 1124.75,-290.1"/>
</g>
<!-- spec_v006&#45;&gt;draft_revises -->
<g id="edge7" class="edge">
<title>spec_v006&#45;&gt;draft_revises</title>
<path fill="none" stroke="black" d="M164.77,-355.6C191.34,-355.6 223.51,-355.6 253.11,-355.6"/>
<polygon fill="black" stroke="black" points="252.8,-359.1 262.8,-355.6 252.8,-352.1 252.8,-359.1"/>
</g>
<!-- spec_v006&#45;&gt;implement_lints -->
<g id="edge19" class="edge">
<title>spec_v006&#45;&gt;implement_lints</title>
<path fill="none" stroke="black" d="M111.14,-377.31C120.58,-425.78 149.99,-543.58 221.61,-607.6 233.2,-617.96 247.58,-625.57 262.32,-631.16"/>
<polygon fill="black" stroke="black" points="261.06,-634.43 271.65,-634.39 263.35,-627.81 261.06,-634.43"/>
</g>
<!-- spec_v006&#45;&gt;integrate_spec -->
<g id="edge46" class="edge">
<title>spec_v006&#45;&gt;integrate_spec</title>
<path fill="none" stroke="#888888" stroke-dasharray="5,2" d="M146.24,-333.81C167.73,-323 195.35,-311.1 221.61,-305.6 433.75,-261.19 501.61,-260.42 708.94,-323.6 729.47,-329.86 750.36,-340.74 767.95,-351.46"/>
<polygon fill="#888888" stroke="#888888" points="765.74,-354.21 776.07,-356.57 769.47,-348.29 765.74,-354.21"/>
</g>
<!-- write_design_notes -->
<g id="node39" class="node">
<title>write_design_notes</title>
<ellipse fill="none" stroke="black" cx="342.88" cy="-114.6" rx="88.3" ry="29.42"/>
<text xml:space="preserve" text-anchor="middle" x="342.88" y="-118.8" font-family="Times,serif" font-size="14.00">write_design_notes</text>
<text xml:space="preserve" text-anchor="middle" x="342.88" y="-102" font-family="Times,serif" font-size="14.00">設計ノート執筆</text>
</g>
<!-- spec_v006&#45;&gt;write_design_notes -->
<g id="edge11" class="edge">
<title>spec_v006&#45;&gt;write_design_notes</title>
<path fill="none" stroke="black" d="M113.82,-333.86C127.07,-292.62 161.4,-202.79 221.61,-153.6 231.71,-145.36 243.59,-138.84 255.88,-133.69"/>
<polygon fill="black" stroke="black" points="256.8,-137.09 264.87,-130.22 254.28,-130.56 256.8,-137.09"/>
</g>
<!-- spec_v007&#45;&gt;implement_spec_features -->
<g id="edge23" class="edge">
<title>spec_v007&#45;&gt;implement_spec_features</title>
<path fill="none" stroke="black" d="M1080.28,-429.74C1090.28,-430.4 1100.68,-431.08 1111.14,-431.76"/>
<polygon fill="black" stroke="black" points="1110.78,-435.24 1120.99,-432.4 1111.24,-428.26 1110.78,-435.24"/>
</g>
<!-- spec_v008&#45;&gt;implement_multifile -->
<g id="edge31" class="edge">
<title>spec_v008&#45;&gt;implement_multifile</title>
<path fill="none" stroke="black" d="M1918.06,-376.47C1927.68,-378.06 1937.68,-379.73 1947.66,-381.38"/>
<polygon fill="black" stroke="black" points="1946.96,-384.81 1957.4,-383 1948.11,-377.91 1946.96,-384.81"/>
</g>
<!-- write_article&#45;&gt;i12_article -->
<g id="edge41" class="edge">
<title>write_article&#45;&gt;i12_article</title>
<path fill="none" stroke="black" d="M404.43,-37.6C442.29,-37.6 491.27,-37.6 531.17,-37.6"/>
<polygon fill="black" stroke="black" points="530.93,-41.1 540.93,-37.6 530.93,-34.1 530.93,-41.1"/>
</g>
<!-- write_design_notes&#45;&gt;design_notes -->
<g id="edge12" class="edge">
<title>write_design_notes&#45;&gt;design_notes</title>
<path fill="none" stroke="black" d="M431.42,-116.29C459.12,-116.82 489.69,-117.41 517.29,-117.94"/>
<polygon fill="black" stroke="black" points="516.93,-121.43 527,-118.13 517.07,-114.43 516.93,-121.43"/>
</g>
</g>
</svg>
