<?xml version="1.0" encoding="UTF-8" standalone="no"?>
<!DOCTYPE svg PUBLIC "-//W3C//DTD SVG 1.1//EN"
 "http://www.w3.org/Graphics/SVG/1.1/DTD/svg11.dtd">
<!-- Generated by graphviz version 15.0.0 (0)
 -->
<!-- Title: PFDSL Pages: 1 -->
<svg width="2010pt" height="1093pt"
 viewBox="0.00 0.00 2010.00 1093.00" xmlns="http://www.w3.org/2000/svg" xmlns:xlink="http://www.w3.org/1999/xlink">
<g id="graph0" class="graph" transform="scale(1 1) rotate(0) translate(4 1088.82)">
<title>PFDSL</title>
<polygon fill="white" stroke="none" points="-4,4 -4,-1088.82 2005.81,-1088.82 2005.81,4 -4,4"/>
<text xml:space="preserve" text-anchor="middle" x="1000.9" y="-1068.22" font-family="Times,serif" font-size="14.00">Issue 依存フロー（2026&#45;06）</text>
<!-- adr_corpus -->
<g id="node1" class="node">
<title>adr_corpus</title>
<g id="a_node1"><a xlink:title="ADR 群 (docs/adr)&#10;&#10;方法論の設計決定記録。一覧と本数は docs/adr/README.md が一次情報（ここに数を書かない — ドリフトするため）&#10;criteria: 対象判断が文書化され docs/adr/README.md の一覧に追記済み&#10;location: docs/adr/">
<polygon fill="#d4edda" stroke="black" stroke-width="2" points="178.41,-58.4 34.41,-58.4 34.41,-16.8 178.41,-16.8 178.41,-58.4"/>
<text xml:space="preserve" text-anchor="middle" x="106.41" y="-41.8" font-family="Times,serif" font-size="14.00">adr_corpus</text>
<text xml:space="preserve" text-anchor="middle" x="106.41" y="-25" font-family="Times,serif" font-size="14.00">ADR 群 (docs/adr)</text>
</a>
</g>
<text xml:space="preserve" text-anchor="middle" x="20.81" y="-4.2" font-family="Times,serif" font-size="14.00">done</text>
</g>
<!-- write_article -->
<g id="node40" class="node">
<title>write_article</title>
<ellipse fill="none" stroke="black" cx="332.98" cy="-37.6" rx="61.33" ry="29.42"/>
<text xml:space="preserve" text-anchor="middle" x="332.98" y="-41.8" font-family="Times,serif" font-size="14.00">write_article</text>
<text xml:space="preserve" text-anchor="middle" x="332.98" y="-25" font-family="Times,serif" font-size="14.00">記事執筆</text>
</g>
<!-- adr_corpus&#45;&gt;write_article -->
<g id="edge36" class="edge">
<title>adr_corpus&#45;&gt;write_article</title>
<path fill="none" stroke="black" d="M179.39,-37.6C205.21,-37.6 234.3,-37.6 260.11,-37.6"/>
<polygon fill="black" stroke="black" points="259.81,-41.1 269.81,-37.6 259.81,-34.1 259.81,-41.1"/>
</g>
<!-- audit_distribution -->
<g id="node2" class="node">
<title>audit_distribution</title>
<g id="a_node2"><a xlink:href="https://github.com/takasek/pfdsl/issues/43" xlink:title="L3資産の階層化配布 (#43)&#10;&#10;audit コア + flow&#45;sync action を skill 同梱・配布可能化。scripts/lib/issues&#45;flow&#45;audit.mjs を #37 と共有するため着手順を調整。実配布フローは #11&#10;criteria: install/ に配布可能ファイルが揃い、CI で identity が強制されている&#10;location: https://github.com/takasek/pfdsl/issues/43">
<polygon fill="#d4edda" stroke="black" stroke-width="2" points="660.35,-828.8 509.15,-828.8 509.15,-770.4 660.35,-770.4 660.35,-828.8"/>
<text xml:space="preserve" text-anchor="middle" x="584.75" y="-812.2" font-family="Times,serif" font-size="14.00">audit_distribution</text>
<text xml:space="preserve" text-anchor="middle" x="584.75" y="-795.4" font-family="Times,serif" font-size="14.00">L3資産の階層化配布</text>
<text xml:space="preserve" text-anchor="middle" x="584.75" y="-778.6" font-family="Times,serif" font-size="14.00"> (#43)</text>
</a>
</g>
<text xml:space="preserve" text-anchor="middle" x="495.54" y="-757.8" font-family="Times,serif" font-size="14.00">done</text>
</g>
<!-- build_obsidian_plugin -->
<g id="node3" class="node">
<title>build_obsidian_plugin</title>
<g id="a_node3"><a xlink:title="Obsidianプラグイン実装">
<ellipse fill="none" stroke="black" cx="332.98" cy="-710.6" rx="100.41" ry="41.3"/>
<text xml:space="preserve" text-anchor="middle" x="332.98" y="-723.2" font-family="Times,serif" font-size="14.00">build_obsidian_plugin</text>
<text xml:space="preserve" text-anchor="middle" x="332.98" y="-706.4" font-family="Times,serif" font-size="14.00">Obsidianプラグイン</text>
<text xml:space="preserve" text-anchor="middle" x="332.98" y="-689.6" font-family="Times,serif" font-size="14.00">実装</text>
</a>
</g>
</g>
<!-- i3_obsidian_plugin -->
<g id="node17" class="node">
<title>i3_obsidian_plugin</title>
<g id="a_node17"><a xlink:href="https://github.com/takasek/pfdsl/issues/3" xlink:title="Obsidian プラグイン (#3)&#10;criteria: Obsidian 上で .pfdsl のプレビュー・編集が動作確認済み&#10;location: https://github.com/takasek/pfdsl/issues/3">
<polygon fill="#f8f9fa" stroke="black" stroke-width="2" points="667.55,-739.8 501.95,-739.8 501.95,-681.4 667.55,-681.4 667.55,-739.8"/>
<text xml:space="preserve" text-anchor="middle" x="584.75" y="-723.2" font-family="Times,serif" font-size="14.00">i3_obsidian_plugin</text>
<text xml:space="preserve" text-anchor="middle" x="584.75" y="-706.4" font-family="Times,serif" font-size="14.00">Obsidian プラグイン </text>
<text xml:space="preserve" text-anchor="middle" x="584.75" y="-689.6" font-family="Times,serif" font-size="14.00">(#3)</text>
</a>
</g>
<text xml:space="preserve" text-anchor="middle" x="489.5" y="-668.8" font-family="Times,serif" font-size="14.00">todo</text>
</g>
<!-- build_obsidian_plugin&#45;&gt;i3_obsidian_plugin -->
<g id="edge39" class="edge">
<title>build_obsidian_plugin&#45;&gt;i3_obsidian_plugin</title>
<path fill="none" stroke="black" d="M433.77,-710.6C452.14,-710.6 471.26,-710.6 489.46,-710.6"/>
<polygon fill="black" stroke="black" points="489.45,-714.1 499.45,-710.6 489.45,-707.1 489.45,-714.1"/>
</g>
<!-- cli_tool -->
<g id="node4" class="node">
<title>cli_tool</title>
<g id="a_node4"><a xlink:title="CLI 実装（現行）&#10;criteria: check/fmt/graph が全サンプルに対してエラーなし、npm 公開済み">
<polygon fill="#d4edda" stroke="black" stroke-width="2" points="174.81,-775.4 38.01,-775.4 38.01,-733.8 174.81,-733.8 174.81,-775.4"/>
<text xml:space="preserve" text-anchor="middle" x="106.41" y="-758.8" font-family="Times,serif" font-size="14.00">cli_tool</text>
<text xml:space="preserve" text-anchor="middle" x="106.41" y="-742" font-family="Times,serif" font-size="14.00">CLI 実装（現行）</text>
</a>
</g>
<text xml:space="preserve" text-anchor="middle" x="24.41" y="-721.2" font-family="Times,serif" font-size="14.00">done</text>
</g>
<!-- cli_tool&#45;&gt;build_obsidian_plugin -->
<g id="edge38" class="edge">
<title>cli_tool&#45;&gt;build_obsidian_plugin</title>
<path fill="none" stroke="black" d="M175.71,-741.22C192.99,-737.83 211.93,-734.12 230.47,-730.49"/>
<polygon fill="black" stroke="black" points="231.01,-733.95 240.15,-728.59 229.67,-727.08 231.01,-733.95"/>
</g>
<!-- implement_criteria_warn -->
<g id="node21" class="node">
<title>implement_criteria_warn</title>
<g id="a_node21"><a xlink:title="criteria警告拡張実装&#10;&#10;status を問わず criteria 未設定の artifact に warning を出す。spec §15.7 の severity 定義も更新">
<ellipse fill="none" stroke="black" cx="332.98" cy="-621.6" rx="111.37" ry="29.42"/>
<text xml:space="preserve" text-anchor="middle" x="332.98" y="-625.8" font-family="Times,serif" font-size="14.00">implement_criteria_warn</text>
<text xml:space="preserve" text-anchor="middle" x="332.98" y="-609" font-family="Times,serif" font-size="14.00">criteria警告拡張実装</text>
</a>
</g>
</g>
<!-- cli_tool&#45;&gt;implement_criteria_warn -->
<g id="edge42" class="edge">
<title>cli_tool&#45;&gt;implement_criteria_warn</title>
<path fill="none" stroke="black" d="M128.86,-732.99C150.62,-712.08 186.06,-680.68 221.61,-660.6 229.75,-656 238.53,-651.8 247.46,-647.99"/>
<polygon fill="black" stroke="black" points="248.63,-651.3 256.57,-644.28 245.99,-644.81 248.63,-651.3"/>
</g>
<!-- implement_lints -->
<g id="node22" class="node">
<title>implement_lints</title>
<ellipse fill="none" stroke="black" cx="332.98" cy="-544.6" rx="75.66" ry="29.42"/>
<text xml:space="preserve" text-anchor="middle" x="332.98" y="-548.8" font-family="Times,serif" font-size="14.00">implement_lints</text>
<text xml:space="preserve" text-anchor="middle" x="332.98" y="-532" font-family="Times,serif" font-size="14.00">lint実装</text>
</g>
<!-- cli_tool&#45;&gt;implement_lints -->
<g id="edge20" class="edge">
<title>cli_tool&#45;&gt;implement_lints</title>
<path fill="none" stroke="black" d="M116.34,-732.96C132.27,-696.93 168.91,-624.57 221.61,-583.6 232.08,-575.46 244.38,-568.94 256.9,-563.74"/>
<polygon fill="black" stroke="black" points="257.95,-567.08 266.02,-560.22 255.43,-560.55 257.95,-567.08"/>
</g>
<!-- implement_orphan_lint -->
<g id="node23" class="node">
<title>implement_orphan_lint</title>
<ellipse fill="none" stroke="black" cx="332.98" cy="-953.6" rx="104.24" ry="29.42"/>
<text xml:space="preserve" text-anchor="middle" x="332.98" y="-957.8" font-family="Times,serif" font-size="14.00">implement_orphan_lint</text>
<text xml:space="preserve" text-anchor="middle" x="332.98" y="-941" font-family="Times,serif" font-size="14.00">孤児検出lint実装</text>
</g>
<!-- cli_tool&#45;&gt;implement_orphan_lint -->
<g id="edge40" class="edge">
<title>cli_tool&#45;&gt;implement_orphan_lint</title>
<path fill="none" stroke="black" d="M117.39,-776.21C134.2,-810.34 171.31,-876.73 221.61,-914.6 228.83,-920.03 236.86,-924.75 245.22,-928.84"/>
<polygon fill="black" stroke="black" points="243.6,-931.95 254.15,-932.91 246.5,-925.58 243.6,-931.95"/>
</g>
<!-- layer_audit_assets -->
<g id="node27" class="node">
<title>layer_audit_assets</title>
<ellipse fill="none" stroke="black" cx="332.98" cy="-799.6" rx="83.89" ry="29.42"/>
<text xml:space="preserve" text-anchor="middle" x="332.98" y="-803.8" font-family="Times,serif" font-size="14.00">layer_audit_assets</text>
<text xml:space="preserve" text-anchor="middle" x="332.98" y="-787" font-family="Times,serif" font-size="14.00">L3資産階層化</text>
</g>
<!-- cli_tool&#45;&gt;layer_audit_assets -->
<g id="edge34" class="edge">
<title>cli_tool&#45;&gt;layer_audit_assets</title>
<path fill="none" stroke="black" d="M175.71,-768.28C198.54,-772.86 224.26,-778.01 248.15,-782.8"/>
<polygon fill="black" stroke="black" points="247.36,-786.21 257.85,-784.75 248.73,-779.35 247.36,-786.21"/>
</g>
<!-- publish_cli -->
<g id="node31" class="node">
<title>publish_cli</title>
<ellipse fill="none" stroke="black" cx="332.98" cy="-876.6" rx="55.31" ry="29.42"/>
<text xml:space="preserve" text-anchor="middle" x="332.98" y="-880.8" font-family="Times,serif" font-size="14.00">publish_cli</text>
<text xml:space="preserve" text-anchor="middle" x="332.98" y="-864" font-family="Times,serif" font-size="14.00">CLI公開</text>
</g>
<!-- cli_tool&#45;&gt;publish_cli -->
<g id="edge32" class="edge">
<title>cli_tool&#45;&gt;publish_cli</title>
<path fill="none" stroke="black" d="M132.76,-776.34C155.01,-794.59 188.86,-820.38 221.61,-837.6 237.78,-846.1 256.19,-853.43 273.28,-859.38"/>
<polygon fill="black" stroke="black" points="271.69,-862.54 282.29,-862.41 273.93,-855.9 271.69,-862.54"/>
</g>
<!-- criteria_spec -->
<g id="node5" class="node">
<title>criteria_spec</title>
<g id="a_node5"><a xlink:href="https://github.com/takasek/pfdsl/issues/7" xlink:title="合否基準仕様案 (#7)&#10;criteria: 仕様案として起草完了&#10;location: https://github.com/takasek/pfdsl/issues/7">
<polygon fill="#d4edda" stroke="black" points="663.95,-483.4 505.55,-483.4 505.55,-441.8 663.95,-441.8 663.95,-483.4"/>
<text xml:space="preserve" text-anchor="middle" x="584.75" y="-466.8" font-family="Times,serif" font-size="14.00">criteria_spec</text>
<text xml:space="preserve" text-anchor="middle" x="584.75" y="-450" font-family="Times,serif" font-size="14.00">合否基準仕様案 (#7)</text>
</a>
</g>
<text xml:space="preserve" text-anchor="middle" x="491.94" y="-429.2" font-family="Times,serif" font-size="14.00">done</text>
</g>
<!-- integrate_spec -->
<g id="node26" class="node">
<title>integrate_spec</title>
<ellipse fill="none" stroke="black" cx="793.63" cy="-346.6" rx="68.48" ry="29.42"/>
<text xml:space="preserve" text-anchor="middle" x="793.63" y="-350.8" font-family="Times,serif" font-size="14.00">integrate_spec</text>
<text xml:space="preserve" text-anchor="middle" x="793.63" y="-334" font-family="Times,serif" font-size="14.00">仕様統合</text>
</g>
<!-- criteria_spec&#45;&gt;integrate_spec -->
<g id="edge13" class="edge">
<title>criteria_spec&#45;&gt;integrate_spec</title>
<path fill="none" stroke="black" d="M661.05,-441.32C670.73,-437.59 680.33,-433.35 689.15,-428.6 713.02,-415.75 736.92,-397.27 755.73,-381.11"/>
<polygon fill="black" stroke="black" points="757.91,-383.85 763.12,-374.63 753.29,-378.59 757.91,-383.85"/>
</g>
<!-- design_notes -->
<g id="node6" class="node">
<title>design_notes</title>
<g id="a_node6"><a xlink:href="https://github.com/takasek/pfdsl/issues/9" xlink:title="設計判断ノート・分岐なし方針 (#9)&#10;criteria: 仕様案として起草完了&#10;location: https://github.com/takasek/pfdsl/issues/9">
<polygon fill="#d4edda" stroke="black" points="660.35,-419.8 509.15,-419.8 509.15,-361.4 660.35,-361.4 660.35,-419.8"/>
<text xml:space="preserve" text-anchor="middle" x="584.75" y="-403.2" font-family="Times,serif" font-size="14.00">design_notes</text>
<text xml:space="preserve" text-anchor="middle" x="584.75" y="-386.4" font-family="Times,serif" font-size="14.00">設計判断ノート・分</text>
<text xml:space="preserve" text-anchor="middle" x="584.75" y="-369.6" font-family="Times,serif" font-size="14.00">岐なし方針 (#9)</text>
</a>
</g>
<text xml:space="preserve" text-anchor="middle" x="495.54" y="-348.8" font-family="Times,serif" font-size="14.00">done</text>
</g>
<!-- design_notes&#45;&gt;integrate_spec -->
<g id="edge16" class="edge">
<title>design_notes&#45;&gt;integrate_spec</title>
<path fill="none" stroke="black" d="M660.73,-374.65C680.26,-370.5 701.25,-366.03 720.62,-361.92"/>
<polygon fill="black" stroke="black" points="721.28,-365.35 730.33,-359.85 719.82,-358.51 721.28,-365.35"/>
</g>
<!-- draft_criteria -->
<g id="node7" class="node">
<title>draft_criteria</title>
<ellipse fill="none" stroke="black" cx="332.98" cy="-467.6" rx="70.71" ry="29.42"/>
<text xml:space="preserve" text-anchor="middle" x="332.98" y="-471.8" font-family="Times,serif" font-size="14.00">draft_criteria</text>
<text xml:space="preserve" text-anchor="middle" x="332.98" y="-455" font-family="Times,serif" font-size="14.00">合否基準仕様起草</text>
</g>
<!-- draft_criteria&#45;&gt;criteria_spec -->
<g id="edge6" class="edge">
<title>draft_criteria&#45;&gt;criteria_spec</title>
<path fill="none" stroke="black" d="M403.89,-466.2C431.78,-465.64 464.25,-464.99 493.87,-464.4"/>
<polygon fill="black" stroke="black" points="493.62,-467.91 503.55,-464.21 493.48,-460.91 493.62,-467.91"/>
</g>
<!-- draft_external_stakeholders -->
<g id="node8" class="node">
<title>draft_external_stakeholders</title>
<g id="a_node8"><a xlink:title="externalStakeholders仕様起草&#10;&#10;artifact / process の externalStakeholders フィールドを spec に定義する。型・終端監査との連携（#37）・サンプル反映を含む">
<ellipse fill="none" stroke="black" cx="1220.97" cy="-334.6" rx="121.26" ry="41.3"/>
<text xml:space="preserve" text-anchor="middle" x="1220.97" y="-347.2" font-family="Times,serif" font-size="14.00">draft_external_stakeholders</text>
<text xml:space="preserve" text-anchor="middle" x="1220.97" y="-330.4" font-family="Times,serif" font-size="14.00">externalStakeholders</text>
<text xml:space="preserve" text-anchor="middle" x="1220.97" y="-313.6" font-family="Times,serif" font-size="14.00">仕様起草</text>
</a>
</g>
</g>
<!-- i97_external_stakeholders_spec -->
<g id="node20" class="node">
<title>i97_external_stakeholders_spec</title>
<g id="a_node20"><a xlink:href="https://github.com/takasek/pfdsl/issues/97" xlink:title="externalStakeholders フィールド仕様案 (#97)&#10;&#10;artifact / process に外部消費者を列挙するフィールド。owner と対称。終端監査（#37）で消費者として扱う。ecosystem 廃止（ADR&#45;0017）の代替手段&#10;criteria: 仕様案として起草完了&#10;location: https://github.com/takasek/pfdsl/issues/97">
<polygon fill="#f8f9fa" stroke="black" points="1615.84,-370.2 1378.24,-370.2 1378.24,-295 1615.84,-295 1615.84,-370.2"/>
<text xml:space="preserve" text-anchor="middle" x="1497.04" y="-353.6" font-family="Times,serif" font-size="14.00">i97_external_stakeholders_spec</text>
<text xml:space="preserve" text-anchor="middle" x="1497.04" y="-336.8" font-family="Times,serif" font-size="14.00">externalStakeholders</text>
<text xml:space="preserve" text-anchor="middle" x="1497.04" y="-320" font-family="Times,serif" font-size="14.00">フィールド仕様案 </text>
<text xml:space="preserve" text-anchor="middle" x="1497.04" y="-303.2" font-family="Times,serif" font-size="14.00">#97)</text>
</a>
</g>
<text xml:space="preserve" text-anchor="middle" x="1365.79" y="-282.4" font-family="Times,serif" font-size="14.00">todo</text>
</g>
<!-- draft_external_stakeholders&#45;&gt;i97_external_stakeholders_spec -->
<g id="edge45" class="edge">
<title>draft_external_stakeholders&#45;&gt;i97_external_stakeholders_spec</title>
<path fill="none" stroke="black" d="M1342.58,-333.72C1350.59,-333.66 1358.66,-333.6 1366.71,-333.54"/>
<polygon fill="black" stroke="black" points="1366.56,-337.05 1376.53,-333.47 1366.51,-330.05 1366.56,-337.05"/>
</g>
<!-- draft_location -->
<g id="node9" class="node">
<title>draft_location</title>
<g id="a_node9"><a xlink:title="location/command 起草">
<ellipse fill="none" stroke="black" cx="332.98" cy="-264.6" rx="84.99" ry="41.3"/>
<text xml:space="preserve" text-anchor="middle" x="332.98" y="-277.2" font-family="Times,serif" font-size="14.00">draft_location</text>
<text xml:space="preserve" text-anchor="middle" x="332.98" y="-260.4" font-family="Times,serif" font-size="14.00">location/command</text>
<text xml:space="preserve" text-anchor="middle" x="332.98" y="-243.6" font-family="Times,serif" font-size="14.00">起草</text>
</a>
</g>
</g>
<!-- location_spec -->
<g id="node29" class="node">
<title>location_spec</title>
<g id="a_node29"><a xlink:href="https://github.com/takasek/pfdsl/issues/13" xlink:title="location/command 仕様案 (#13)&#10;&#10;ノードと実ファイル・実行手順を結ぶメタデータ。パス解決規則のみ multifile 方針と接点&#10;criteria: 仕様案として起草完了&#10;location: https://github.com/takasek/pfdsl/issues/13">
<polygon fill="#d4edda" stroke="black" points="653.15,-299.8 516.35,-299.8 516.35,-241.4 653.15,-241.4 653.15,-299.8"/>
<text xml:space="preserve" text-anchor="middle" x="584.75" y="-283.2" font-family="Times,serif" font-size="14.00">location_spec</text>
<text xml:space="preserve" text-anchor="middle" x="584.75" y="-266.4" font-family="Times,serif" font-size="14.00">location/command</text>
<text xml:space="preserve" text-anchor="middle" x="584.75" y="-249.6" font-family="Times,serif" font-size="14.00">仕様案 (#13)</text>
</a>
</g>
<text xml:space="preserve" text-anchor="middle" x="502.74" y="-228.8" font-family="Times,serif" font-size="14.00">done</text>
</g>
<!-- draft_location&#45;&gt;location_spec -->
<g id="edge10" class="edge">
<title>draft_location&#45;&gt;location_spec</title>
<path fill="none" stroke="black" d="M418.19,-266.62C446.2,-267.3 477.27,-268.04 504.86,-268.7"/>
<polygon fill="black" stroke="black" points="504.45,-272.2 514.53,-268.94 504.62,-265.2 504.45,-272.2"/>
</g>
<!-- draft_multifile_specs -->
<g id="node10" class="node">
<title>draft_multifile_specs</title>
<g id="a_node10"><a xlink:title="階層・プリセット共同起草&#10;&#10;#5 と #6 は決定が往復で形成される相互依存のため分割せず共同設計する。共有決定は方針記録として外化">
<ellipse fill="none" stroke="black" cx="1220.97" cy="-145.6" rx="95.44" ry="41.3"/>
<text xml:space="preserve" text-anchor="middle" x="1220.97" y="-158.2" font-family="Times,serif" font-size="14.00">draft_multifile_specs</text>
<text xml:space="preserve" text-anchor="middle" x="1220.97" y="-141.4" font-family="Times,serif" font-size="14.00">階層・プリセット共</text>
<text xml:space="preserve" text-anchor="middle" x="1220.97" y="-124.6" font-family="Times,serif" font-size="14.00">同起草</text>
</a>
</g>
</g>
<!-- i5_hierarchy_spec -->
<g id="node18" class="node">
<title>i5_hierarchy_spec</title>
<g id="a_node18"><a xlink:href="https://github.com/takasek/pfdsl/issues/5" xlink:title="階層PFD仕様案 (#5)&#10;criteria: 仕様案として起草完了&#10;location: https://github.com/takasek/pfdsl/issues/5">
<polygon fill="#f8f9fa" stroke="black" points="1572.64,-200.4 1421.44,-200.4 1421.44,-158.8 1572.64,-158.8 1572.64,-200.4"/>
<text xml:space="preserve" text-anchor="middle" x="1497.04" y="-183.8" font-family="Times,serif" font-size="14.00">i5_hierarchy_spec</text>
<text xml:space="preserve" text-anchor="middle" x="1497.04" y="-167" font-family="Times,serif" font-size="14.00">階層PFD仕様案 (#5)</text>
</a>
</g>
<text xml:space="preserve" text-anchor="middle" x="1408.99" y="-146.2" font-family="Times,serif" font-size="14.00">todo</text>
</g>
<!-- draft_multifile_specs&#45;&gt;i5_hierarchy_spec -->
<g id="edge2" class="edge">
<title>draft_multifile_specs&#45;&gt;i5_hierarchy_spec</title>
<path fill="none" stroke="black" d="M1313.23,-156.92C1344.44,-160.79 1379.22,-165.11 1410,-168.93"/>
<polygon fill="black" stroke="black" points="1409.28,-172.36 1419.64,-170.12 1410.14,-165.42 1409.28,-172.36"/>
</g>
<!-- i6_presets_spec -->
<g id="node19" class="node">
<title>i6_presets_spec</title>
<g id="a_node19"><a xlink:href="https://github.com/takasek/pfdsl/issues/6" xlink:title="共有プリセット仕様案 (#6)&#10;criteria: 仕様案として起草完了&#10;location: https://github.com/takasek/pfdsl/issues/6">
<polygon fill="#f8f9fa" stroke="black" points="1572.64,-140.8 1421.44,-140.8 1421.44,-82.4 1572.64,-82.4 1572.64,-140.8"/>
<text xml:space="preserve" text-anchor="middle" x="1497.04" y="-124.2" font-family="Times,serif" font-size="14.00">i6_presets_spec</text>
<text xml:space="preserve" text-anchor="middle" x="1497.04" y="-107.4" font-family="Times,serif" font-size="14.00">共有プリセット仕様</text>
<text xml:space="preserve" text-anchor="middle" x="1497.04" y="-90.6" font-family="Times,serif" font-size="14.00">案 (#6)</text>
</a>
</g>
<text xml:space="preserve" text-anchor="middle" x="1408.99" y="-69.8" font-family="Times,serif" font-size="14.00">todo</text>
</g>
<!-- draft_multifile_specs&#45;&gt;i6_presets_spec -->
<g id="edge3" class="edge">
<title>draft_multifile_specs&#45;&gt;i6_presets_spec</title>
<path fill="none" stroke="black" d="M1313.23,-134.28C1344.44,-130.41 1379.22,-126.09 1410,-122.27"/>
<polygon fill="black" stroke="black" points="1410.14,-125.78 1419.64,-121.08 1409.28,-118.84 1410.14,-125.78"/>
</g>
<!-- multifile_policy -->
<g id="node30" class="node">
<title>multifile_policy</title>
<g id="a_node30"><a xlink:title="マルチファイル意味論方針&#10;&#10;共同起草で確定した ID スコープ・継承解決順・ファイル間参照の決定記録。ファイル横断機能（#8 実装等）と仕様統合の前提資料&#10;criteria: ID スコープ・継承解決順・ファイル間参照の決定が文書化済み">
<polygon fill="#f8f9fa" stroke="black" points="1572.64,-276.8 1421.44,-276.8 1421.44,-218.4 1572.64,-218.4 1572.64,-276.8"/>
<text xml:space="preserve" text-anchor="middle" x="1497.04" y="-260.2" font-family="Times,serif" font-size="14.00">multifile_policy</text>
<text xml:space="preserve" text-anchor="middle" x="1497.04" y="-243.4" font-family="Times,serif" font-size="14.00">マルチファイル意味</text>
<text xml:space="preserve" text-anchor="middle" x="1497.04" y="-226.6" font-family="Times,serif" font-size="14.00">論方針</text>
</a>
</g>
<text xml:space="preserve" text-anchor="middle" x="1408.99" y="-205.8" font-family="Times,serif" font-size="14.00">todo</text>
</g>
<!-- draft_multifile_specs&#45;&gt;multifile_policy -->
<g id="edge4" class="edge">
<title>draft_multifile_specs&#45;&gt;multifile_policy</title>
<path fill="none" stroke="black" d="M1289.6,-174.62C1316.94,-186.01 1348.91,-198.88 1378.24,-209.6 1388.53,-213.36 1399.4,-217.13 1410.2,-220.76"/>
<polygon fill="black" stroke="black" points="1408.93,-224.03 1419.53,-223.86 1411.14,-217.38 1408.93,-224.03"/>
</g>
<!-- draft_revises -->
<g id="node11" class="node">
<title>draft_revises</title>
<g id="a_node11"><a xlink:title="改版チェーン仕様起草">
<ellipse fill="none" stroke="black" cx="332.98" cy="-163.6" rx="78.14" ry="41.3"/>
<text xml:space="preserve" text-anchor="middle" x="332.98" y="-176.2" font-family="Times,serif" font-size="14.00">draft_revises</text>
<text xml:space="preserve" text-anchor="middle" x="332.98" y="-159.4" font-family="Times,serif" font-size="14.00">改版チェーン仕様起</text>
<text xml:space="preserve" text-anchor="middle" x="332.98" y="-142.6" font-family="Times,serif" font-size="14.00">草</text>
</a>
</g>
</g>
<!-- revises_spec -->
<g id="node35" class="node">
<title>revises_spec</title>
<g id="a_node35"><a xlink:href="https://github.com/takasek/pfdsl/issues/8" xlink:title="改版チェーン仕様案 (#8)&#10;criteria: 仕様案として起草完了&#10;location: https://github.com/takasek/pfdsl/issues/8">
<polygon fill="#d4edda" stroke="black" points="663.95,-205.8 505.55,-205.8 505.55,-147.4 663.95,-147.4 663.95,-205.8"/>
<text xml:space="preserve" text-anchor="middle" x="584.75" y="-189.2" font-family="Times,serif" font-size="14.00">revises_spec</text>
<text xml:space="preserve" text-anchor="middle" x="584.75" y="-172.4" font-family="Times,serif" font-size="14.00">改版チェーン仕様案 </text>
<text xml:space="preserve" text-anchor="middle" x="584.75" y="-155.6" font-family="Times,serif" font-size="14.00">(#8)</text>
</a>
</g>
<text xml:space="preserve" text-anchor="middle" x="491.94" y="-134.8" font-family="Times,serif" font-size="14.00">done</text>
</g>
<!-- draft_revises&#45;&gt;revises_spec -->
<g id="edge8" class="edge">
<title>draft_revises&#45;&gt;revises_spec</title>
<path fill="none" stroke="black" d="M410.96,-167.61C437.17,-168.97 466.7,-170.51 493.84,-171.92"/>
<polygon fill="black" stroke="black" points="493.62,-175.41 503.79,-172.44 493.99,-168.42 493.62,-175.41"/>
</g>
<!-- featured_toolchain -->
<g id="node12" class="node">
<title>featured_toolchain</title>
<g id="a_node12"><a xlink:href="https://github.com/takasek/pfdsl/issues/52" xlink:title="spec v0.0.7 実装済みツールチェーン (#52)&#10;criteria: spec v0.0.7 の全機能が実装され、check/fmt/graph がエラーなしで動作&#10;location: https://github.com/takasek/pfdsl/issues/52">
<polygon fill="#d4edda" stroke="black" points="1572.64,-463.2 1421.44,-463.2 1421.44,-388 1572.64,-388 1572.64,-463.2"/>
<text xml:space="preserve" text-anchor="middle" x="1497.04" y="-446.6" font-family="Times,serif" font-size="14.00">featured_toolchain</text>
<text xml:space="preserve" text-anchor="middle" x="1497.04" y="-429.8" font-family="Times,serif" font-size="14.00">spec v0.0.7</text>
<text xml:space="preserve" text-anchor="middle" x="1497.04" y="-413" font-family="Times,serif" font-size="14.00">実装済みツールチェ</text>
<text xml:space="preserve" text-anchor="middle" x="1497.04" y="-396.2" font-family="Times,serif" font-size="14.00">ーン (#52)</text>
</a>
</g>
<text xml:space="preserve" text-anchor="middle" x="1407.83" y="-375.4" font-family="Times,serif" font-size="14.00">done</text>
</g>
<!-- integrate_multifile -->
<g id="node25" class="node">
<title>integrate_multifile</title>
<g id="a_node25"><a xlink:title="マルチファイル仕様統合">
<ellipse fill="none" stroke="black" cx="1736.82" cy="-247.6" rx="84.98" ry="41.3"/>
<text xml:space="preserve" text-anchor="middle" x="1736.82" y="-260.2" font-family="Times,serif" font-size="14.00">integrate_multifile</text>
<text xml:space="preserve" text-anchor="middle" x="1736.82" y="-243.4" font-family="Times,serif" font-size="14.00">マルチファイル仕様</text>
<text xml:space="preserve" text-anchor="middle" x="1736.82" y="-226.6" font-family="Times,serif" font-size="14.00">統合</text>
</a>
</g>
</g>
<!-- featured_toolchain&#45;&gt;integrate_multifile -->
<g id="edge28" class="edge">
<title>featured_toolchain&#45;&gt;integrate_multifile</title>
<path fill="none" stroke="black" d="M1572.94,-402.36C1587.8,-396.12 1602.81,-388.56 1615.84,-379.6 1648.99,-356.79 1679.4,-323.13 1701.31,-295.51"/>
<polygon fill="black" stroke="black" points="1703.8,-298.01 1707.18,-287.97 1698.28,-293.7 1703.8,-298.01"/>
</g>
<!-- findings_r12 -->
<g id="node13" class="node">
<title>findings_r12</title>
<g id="a_node13"><a xlink:title="実践ラウンド1/2レビュー知見&#10;&#10;docs/examples の執筆・レビューで得た品質知見&#10;criteria: skill_template または adr_corpus への反映が確認済み">
<polygon fill="#d4edda" stroke="black" stroke-width="2" points="185.61,-573.8 27.21,-573.8 27.21,-515.4 185.61,-515.4 185.61,-573.8"/>
<text xml:space="preserve" text-anchor="middle" x="106.41" y="-557.2" font-family="Times,serif" font-size="14.00">findings_r12</text>
<text xml:space="preserve" text-anchor="middle" x="106.41" y="-540.4" font-family="Times,serif" font-size="14.00">実践ラウンド1/2レビ</text>
<text xml:space="preserve" text-anchor="middle" x="106.41" y="-523.6" font-family="Times,serif" font-size="14.00">ュー知見</text>
</a>
</g>
<text xml:space="preserve" text-anchor="middle" x="13.61" y="-502.8" font-family="Times,serif" font-size="14.00">done</text>
</g>
<!-- findings_r12&#45;&gt;implement_lints -->
<g id="edge19" class="edge">
<title>findings_r12&#45;&gt;implement_lints</title>
<path fill="none" stroke="black" d="M186.59,-544.6C205.69,-544.6 226.21,-544.6 245.62,-544.6"/>
<polygon fill="black" stroke="black" points="245.4,-548.1 255.4,-544.6 245.4,-541.1 245.4,-548.1"/>
</g>
<!-- i103_criteria_warn_nondone -->
<g id="node14" class="node">
<title>i103_criteria_warn_nondone</title>
<g id="a_node14"><a xlink:href="https://github.com/takasek/pfdsl/issues/103" xlink:title="全statusでcriteria未設定を警告 (#103)&#10;&#10;status: done 以外でも criteria 未設定の artifact に warning を出す。spec §15.7 の severity 定義も合わせて更新&#10;criteria: check が criteria 未設定の全 artifact に warning を出し、spec §15.7 が更新済み&#10;location: https://github.com/takasek/pfdsl/issues/103">
<polygon fill="#f8f9fa" stroke="black" stroke-width="2" points="689.15,-650.8 480.35,-650.8 480.35,-592.4 689.15,-592.4 689.15,-650.8"/>
<text xml:space="preserve" text-anchor="middle" x="584.75" y="-634.2" font-family="Times,serif" font-size="14.00">i103_criteria_warn_nondone</text>
<text xml:space="preserve" text-anchor="middle" x="584.75" y="-617.4" font-family="Times,serif" font-size="14.00">全statusでcriteria未設</text>
<text xml:space="preserve" text-anchor="middle" x="584.75" y="-600.6" font-family="Times,serif" font-size="14.00">定を警告 (#103)</text>
</a>
</g>
<text xml:space="preserve" text-anchor="middle" x="467.9" y="-579.8" font-family="Times,serif" font-size="14.00">todo</text>
</g>
<!-- i12_article -->
<g id="node15" class="node">
<title>i12_article</title>
<g id="a_node15"><a xlink:href="https://github.com/takasek/pfdsl/issues/12" xlink:title="公開記事 (#12)&#10;&#10;ADR 群を素材とした外部公開記事。依存なしで着手可能、spec v0.0.7 確定後はより充実&#10;criteria: 外部メディアに公開済みで URL が存在する&#10;location: https://github.com/takasek/pfdsl/issues/12">
<polygon fill="#f8f9fa" stroke="black" stroke-width="2" points="645.95,-58.4 523.55,-58.4 523.55,-16.8 645.95,-16.8 645.95,-58.4"/>
<text xml:space="preserve" text-anchor="middle" x="584.75" y="-41.8" font-family="Times,serif" font-size="14.00">i12_article</text>
<text xml:space="preserve" text-anchor="middle" x="584.75" y="-25" font-family="Times,serif" font-size="14.00">公開記事 (#12)</text>
</a>
</g>
<text xml:space="preserve" text-anchor="middle" x="511.1" y="-4.2" font-family="Times,serif" font-size="14.00">todo</text>
</g>
<!-- i37_orphan_lint -->
<g id="node16" class="node">
<title>i37_orphan_lint</title>
<g id="a_node16"><a xlink:href="https://github.com/takasek/pfdsl/issues/37" xlink:title="孤児process検出lint (#37)&#10;&#10;check/audit が出力なき process・孤立ノードを検出する。終端監査の機械化（学習ループの lint 要件経路、dogfood #16 由来）&#10;criteria: check コマンドで孤立 process・ノードが検出される&#10;location: https://github.com/takasek/pfdsl/issues/37">
<polygon fill="#f8f9fa" stroke="black" stroke-width="2" points="667.55,-982.8 501.95,-982.8 501.95,-924.4 667.55,-924.4 667.55,-982.8"/>
<text xml:space="preserve" text-anchor="middle" x="584.75" y="-966.2" font-family="Times,serif" font-size="14.00">i37_orphan_lint</text>
<text xml:space="preserve" text-anchor="middle" x="584.75" y="-949.4" font-family="Times,serif" font-size="14.00">孤児process検出lint </text>
<text xml:space="preserve" text-anchor="middle" x="584.75" y="-932.6" font-family="Times,serif" font-size="14.00">#37)</text>
</a>
</g>
<text xml:space="preserve" text-anchor="middle" x="489.5" y="-911.8" font-family="Times,serif" font-size="14.00">todo</text>
</g>
<!-- i5_hierarchy_spec&#45;&gt;integrate_multifile -->
<g id="edge25" class="edge">
<title>i5_hierarchy_spec&#45;&gt;integrate_multifile</title>
<path fill="none" stroke="black" d="M1572.99,-198C1587.26,-201.7 1602.04,-205.66 1615.84,-209.6 1628.48,-213.21 1641.8,-217.22 1654.79,-221.24"/>
<polygon fill="black" stroke="black" points="1653.57,-224.53 1664.16,-224.17 1655.65,-217.85 1653.57,-224.53"/>
</g>
<!-- i6_presets_spec&#45;&gt;integrate_multifile -->
<g id="edge26" class="edge">
<title>i6_presets_spec&#45;&gt;integrate_multifile</title>
<path fill="none" stroke="black" d="M1573,-131.13C1587.62,-136.22 1602.53,-142.36 1615.84,-149.6 1642.21,-163.95 1668.39,-184.42 1689.54,-202.94"/>
<polygon fill="black" stroke="black" points="1687.06,-205.42 1696.85,-209.46 1691.71,-200.19 1687.06,-205.42"/>
</g>
<!-- i97_external_stakeholders_spec&#45;&gt;integrate_multifile -->
<g id="edge46" class="edge">
<title>i97_external_stakeholders_spec&#45;&gt;integrate_multifile</title>
<path fill="none" stroke="black" d="M1604.41,-294.58C1622.23,-288.21 1640.43,-281.7 1657.38,-275.64"/>
<polygon fill="black" stroke="black" points="1658.09,-279.1 1666.33,-272.44 1655.74,-272.51 1658.09,-279.1"/>
</g>
<!-- implement_criteria_warn&#45;&gt;i103_criteria_warn_nondone -->
<g id="edge43" class="edge">
<title>implement_criteria_warn&#45;&gt;i103_criteria_warn_nondone</title>
<path fill="none" stroke="black" d="M444.62,-621.6C452.43,-621.6 460.3,-621.6 468.13,-621.6"/>
<polygon fill="black" stroke="black" points="468.04,-625.1 478.04,-621.6 468.04,-618.1 468.04,-625.1"/>
</g>
<!-- lint_checker -->
<g id="node28" class="node">
<title>lint_checker</title>
<g id="a_node28"><a xlink:href="https://github.com/takasek/pfdsl/issues/4" xlink:title="lint拡張checker (#4)&#10;&#10;lint 候補の完全リストは issue #4 が一次情報（本文+コメント）。ここに列挙しない — 列挙は同期漏れで腐るため&#10;criteria: issue #4 の対象 lint がすべて実装され、check コマンドで動作確認済み&#10;location: https://github.com/takasek/pfdsl/issues/4">
<polygon fill="#d4edda" stroke="black" points="1063.71,-509.4 898.11,-509.4 898.11,-467.8 1063.71,-467.8 1063.71,-509.4"/>
<text xml:space="preserve" text-anchor="middle" x="980.91" y="-492.8" font-family="Times,serif" font-size="14.00">lint_checker</text>
<text xml:space="preserve" text-anchor="middle" x="980.91" y="-476" font-family="Times,serif" font-size="14.00">lint拡張checker (#4)</text>
</a>
</g>
<text xml:space="preserve" text-anchor="middle" x="884.51" y="-455.2" font-family="Times,serif" font-size="14.00">done</text>
</g>
<!-- implement_lints&#45;&gt;lint_checker -->
<g id="edge21" class="edge">
<title>implement_lints&#45;&gt;lint_checker</title>
<path fill="none" stroke="black" d="M407.14,-538.26C524.96,-528.04 756.66,-507.96 886.34,-496.71"/>
<polygon fill="black" stroke="black" points="886.63,-500.2 896.29,-495.85 886.03,-493.23 886.63,-500.2"/>
</g>
<!-- implement_orphan_lint&#45;&gt;i37_orphan_lint -->
<g id="edge41" class="edge">
<title>implement_orphan_lint&#45;&gt;i37_orphan_lint</title>
<path fill="none" stroke="black" d="M437.37,-953.6C454.77,-953.6 472.74,-953.6 489.87,-953.6"/>
<polygon fill="black" stroke="black" points="489.48,-957.1 499.48,-953.6 489.48,-950.1 489.48,-957.1"/>
</g>
<!-- implement_spec_features -->
<g id="node24" class="node">
<title>implement_spec_features</title>
<ellipse fill="none" stroke="black" cx="1220.97" cy="-425.6" rx="112.47" ry="29.42"/>
<text xml:space="preserve" text-anchor="middle" x="1220.97" y="-429.8" font-family="Times,serif" font-size="14.00">implement_spec_features</text>
<text xml:space="preserve" text-anchor="middle" x="1220.97" y="-413" font-family="Times,serif" font-size="14.00">新仕様実装</text>
</g>
<!-- implement_spec_features&#45;&gt;featured_toolchain -->
<g id="edge24" class="edge">
<title>implement_spec_features&#45;&gt;featured_toolchain</title>
<path fill="none" stroke="black" d="M1333.84,-425.6C1359.27,-425.6 1385.89,-425.6 1410.05,-425.6"/>
<polygon fill="black" stroke="black" points="1409.81,-429.1 1419.81,-425.6 1409.81,-422.1 1409.81,-429.1"/>
</g>
<!-- spec_v008 -->
<g id="node39" class="node">
<title>spec_v008</title>
<g id="a_node39"><a xlink:title="仕様書 v0.0.8（マルチファイル統合）&#10;criteria: check/fmt/graph が全サンプルにエラーなし&#10;location: docs/spec/spec.md">
<polygon fill="#f8f9fa" stroke="black" stroke-width="2" points="2001.81,-285.2 1857.81,-285.2 1857.81,-210 2001.81,-210 2001.81,-285.2"/>
<text xml:space="preserve" text-anchor="middle" x="1929.81" y="-268.6" font-family="Times,serif" font-size="14.00">spec_v008</text>
<text xml:space="preserve" text-anchor="middle" x="1929.81" y="-251.8" font-family="Times,serif" font-size="14.00">仕様書 v0.0</text>
<text xml:space="preserve" text-anchor="middle" x="1929.81" y="-235" font-family="Times,serif" font-size="14.00">8（マルチファイル</text>
<text xml:space="preserve" text-anchor="middle" x="1929.81" y="-218.2" font-family="Times,serif" font-size="14.00">統合）</text>
</a>
</g>
<text xml:space="preserve" text-anchor="middle" x="1845.36" y="-197.4" font-family="Times,serif" font-size="14.00">todo</text>
</g>
<!-- integrate_multifile&#45;&gt;spec_v008 -->
<g id="edge29" class="edge">
<title>integrate_multifile&#45;&gt;spec_v008</title>
<path fill="none" stroke="black" d="M1822.15,-247.6C1829.93,-247.6 1837.82,-247.6 1845.6,-247.6"/>
<polygon fill="black" stroke="black" points="1845.38,-251.1 1855.38,-247.6 1845.38,-244.1 1845.38,-251.1"/>
</g>
<!-- spec_v007 -->
<g id="node38" class="node">
<title>spec_v007</title>
<g id="a_node38"><a xlink:title="仕様書 v0.0.7（統合）&#10;location: docs/spec/spec.md">
<polygon fill="#fff3cd" stroke="black" points="1060.11,-375.8 901.71,-375.8 901.71,-317.4 1060.11,-317.4 1060.11,-375.8"/>
<text xml:space="preserve" text-anchor="middle" x="980.91" y="-359.2" font-family="Times,serif" font-size="14.00">spec_v007</text>
<text xml:space="preserve" text-anchor="middle" x="980.91" y="-342.4" font-family="Times,serif" font-size="14.00">仕様書 v0.0.7（統合</text>
<text xml:space="preserve" text-anchor="middle" x="980.91" y="-325.6" font-family="Times,serif" font-size="14.00">）</text>
</a>
</g>
<text xml:space="preserve" text-anchor="middle" x="891.21" y="-304.8" font-family="Times,serif" font-size="14.00">wip</text>
</g>
<!-- integrate_spec&#45;&gt;spec_v007 -->
<g id="edge17" class="edge">
<title>integrate_spec&#45;&gt;spec_v007</title>
<path fill="none" stroke="black" d="M862.57,-346.6C871.53,-346.6 880.82,-346.6 890.07,-346.6"/>
<polygon fill="black" stroke="black" points="889.8,-350.1 899.8,-346.6 889.8,-343.1 889.8,-350.1"/>
</g>
<!-- layer_audit_assets&#45;&gt;audit_distribution -->
<g id="edge35" class="edge">
<title>layer_audit_assets&#45;&gt;audit_distribution</title>
<path fill="none" stroke="black" d="M417.15,-799.6C442.86,-799.6 471.24,-799.6 497.18,-799.6"/>
<polygon fill="black" stroke="black" points="497,-803.1 507,-799.6 497,-796.1 497,-803.1"/>
</g>
<!-- lint_checker&#45;&gt;implement_spec_features -->
<g id="edge23" class="edge">
<title>lint_checker&#45;&gt;implement_spec_features</title>
<path fill="none" stroke="black" d="M1062.18,-467.36C1083.89,-461.61 1107.53,-455.36 1129.74,-449.48"/>
<polygon fill="black" stroke="black" points="1130.63,-452.86 1139.4,-446.92 1128.84,-446.1 1130.63,-452.86"/>
</g>
<!-- location_spec&#45;&gt;integrate_spec -->
<g id="edge15" class="edge">
<title>location_spec&#45;&gt;integrate_spec</title>
<path fill="none" stroke="black" d="M653.49,-295.49C678.23,-304.57 706.07,-314.8 730.32,-323.71"/>
<polygon fill="black" stroke="black" points="728.81,-326.88 739.4,-327.05 731.22,-320.31 728.81,-326.88"/>
</g>
<!-- multifile_policy&#45;&gt;integrate_multifile -->
<g id="edge27" class="edge">
<title>multifile_policy&#45;&gt;integrate_multifile</title>
<path fill="none" stroke="black" d="M1572.95,-247.6C1594.26,-247.6 1617.76,-247.6 1640.13,-247.6"/>
<polygon fill="black" stroke="black" points="1639.84,-251.1 1649.84,-247.6 1639.84,-244.1 1639.84,-251.1"/>
</g>
<!-- published_cli -->
<g id="node32" class="node">
<title>published_cli</title>
<g id="a_node32"><a xlink:href="https://www.npmjs.com/package/@pfdsl/cli" xlink:title="npm公開済みCLI&#10;&#10;現行公開バージョンは npm 一次情報（ここに書かない — ドリフトするため）。詳細は docs/pfdsl_implementation_flow.pfdsl の cli_published 参照&#10;criteria: npm show @pfdsl/cli version が期待バージョンを返す&#10;location: https://www.npmjs.com/package/@pfdsl/cli">
<polygon fill="#d4edda" stroke="black" stroke-width="2" points="645.95,-897.4 523.55,-897.4 523.55,-855.8 645.95,-855.8 645.95,-897.4"/>
<text xml:space="preserve" text-anchor="middle" x="584.75" y="-880.8" font-family="Times,serif" font-size="14.00">published_cli</text>
<text xml:space="preserve" text-anchor="middle" x="584.75" y="-864" font-family="Times,serif" font-size="14.00">npm公開済みCLI</text>
</a>
</g>
<text xml:space="preserve" text-anchor="middle" x="509.94" y="-843.2" font-family="Times,serif" font-size="14.00">done</text>
</g>
<!-- publish_cli&#45;&gt;published_cli -->
<g id="edge33" class="edge">
<title>publish_cli&#45;&gt;published_cli</title>
<path fill="none" stroke="black" d="M388.48,-876.6C424.54,-876.6 472.22,-876.6 511.44,-876.6"/>
<polygon fill="black" stroke="black" points="511.27,-880.1 521.27,-876.6 511.27,-873.1 511.27,-880.1"/>
</g>
<!-- restructure_skillgen -->
<g id="node33" class="node">
<title>restructure_skillgen</title>
<ellipse fill="none" stroke="black" cx="332.98" cy="-1030.6" rx="89.93" ry="29.42"/>
<text xml:space="preserve" text-anchor="middle" x="332.98" y="-1034.8" font-family="Times,serif" font-size="14.00">restructure_skillgen</text>
<text xml:space="preserve" text-anchor="middle" x="332.98" y="-1018" font-family="Times,serif" font-size="14.00">生成系再構成</text>
</g>
<!-- restructured_gen -->
<g id="node34" class="node">
<title>restructured_gen</title>
<g id="a_node34"><a xlink:href="https://github.com/takasek/pfdsl/issues/10" xlink:title="再構成済みスキル生成系 (#10)&#10;criteria: make gen&#45;skill が差分なしで完了し、skill と gh_skill_dist が一致&#10;location: https://github.com/takasek/pfdsl/issues/10">
<polygon fill="#d4edda" stroke="black" stroke-width="2" points="660.35,-1059.8 509.15,-1059.8 509.15,-1001.4 660.35,-1001.4 660.35,-1059.8"/>
<text xml:space="preserve" text-anchor="middle" x="584.75" y="-1043.2" font-family="Times,serif" font-size="14.00">restructured_gen</text>
<text xml:space="preserve" text-anchor="middle" x="584.75" y="-1026.4" font-family="Times,serif" font-size="14.00">再構成済みスキル生</text>
<text xml:space="preserve" text-anchor="middle" x="584.75" y="-1009.6" font-family="Times,serif" font-size="14.00">成系 (#10)</text>
</a>
</g>
<text xml:space="preserve" text-anchor="middle" x="495.54" y="-988.8" font-family="Times,serif" font-size="14.00">done</text>
</g>
<!-- restructure_skillgen&#45;&gt;restructured_gen -->
<g id="edge31" class="edge">
<title>restructure_skillgen&#45;&gt;restructured_gen</title>
<path fill="none" stroke="black" d="M423.1,-1030.6C447.16,-1030.6 473.17,-1030.6 497.1,-1030.6"/>
<polygon fill="black" stroke="black" points="496.78,-1034.1 506.78,-1030.6 496.78,-1027.1 496.78,-1034.1"/>
</g>
<!-- revises_spec&#45;&gt;integrate_spec -->
<g id="edge14" class="edge">
<title>revises_spec&#45;&gt;integrate_spec</title>
<path fill="none" stroke="black" d="M648.57,-206.22C662.5,-213.97 676.78,-222.9 689.15,-232.6 717.68,-254.98 745.04,-285.65 764.45,-309.55"/>
<polygon fill="black" stroke="black" points="761.56,-311.54 770.54,-317.16 767.02,-307.17 761.56,-311.54"/>
</g>
<!-- skill_gen -->
<g id="node36" class="node">
<title>skill_gen</title>
<g id="a_node36"><a xlink:title="スキル生成系（現行）&#10;&#10;scripts/gen&#45;skill.mjs と docs/samples 構成&#10;criteria: make gen&#45;skill が差分なしで完了し、skill と gh_skill_dist が一致">
<polygon fill="#d4edda" stroke="black" stroke-width="2" points="182.01,-1059.8 30.81,-1059.8 30.81,-1001.4 182.01,-1001.4 182.01,-1059.8"/>
<text xml:space="preserve" text-anchor="middle" x="106.41" y="-1043.2" font-family="Times,serif" font-size="14.00">skill_gen</text>
<text xml:space="preserve" text-anchor="middle" x="106.41" y="-1026.4" font-family="Times,serif" font-size="14.00">スキル生成系（現行</text>
<text xml:space="preserve" text-anchor="middle" x="106.41" y="-1009.6" font-family="Times,serif" font-size="14.00">）</text>
</a>
</g>
<text xml:space="preserve" text-anchor="middle" x="17.21" y="-988.8" font-family="Times,serif" font-size="14.00">done</text>
</g>
<!-- skill_gen&#45;&gt;restructure_skillgen -->
<g id="edge30" class="edge">
<title>skill_gen&#45;&gt;restructure_skillgen</title>
<path fill="none" stroke="black" d="M182.82,-1030.6C198.45,-1030.6 215.15,-1030.6 231.52,-1030.6"/>
<polygon fill="black" stroke="black" points="231.27,-1034.1 241.27,-1030.6 231.27,-1027.1 231.27,-1034.1"/>
</g>
<!-- spec_v006 -->
<g id="node37" class="node">
<title>spec_v006</title>
<g id="a_node37"><a xlink:title="仕様書 v0.0.6&#10;criteria: check/fmt/graph が全サンプルにエラーなし&#10;location: docs/spec/spec.md">
<polygon fill="#d4edda" stroke="black" stroke-width="2" points="164.01,-319.4 48.81,-319.4 48.81,-277.8 164.01,-277.8 164.01,-319.4"/>
<text xml:space="preserve" text-anchor="middle" x="106.41" y="-302.8" font-family="Times,serif" font-size="14.00">spec_v006</text>
<text xml:space="preserve" text-anchor="middle" x="106.41" y="-286" font-family="Times,serif" font-size="14.00">仕様書 v0.0.6</text>
</a>
</g>
<text xml:space="preserve" text-anchor="middle" x="35.21" y="-265.2" font-family="Times,serif" font-size="14.00">done</text>
</g>
<!-- spec_v006&#45;&gt;draft_criteria -->
<g id="edge5" class="edge">
<title>spec_v006&#45;&gt;draft_criteria</title>
<path fill="none" stroke="black" d="M121.07,-320.07C140.27,-348.64 177.82,-398.97 221.61,-428.6 233.62,-436.72 247.5,-443.35 261.28,-448.67"/>
<polygon fill="black" stroke="black" points="259.75,-451.84 270.35,-451.98 262.15,-445.27 259.75,-451.84"/>
</g>
<!-- spec_v006&#45;&gt;draft_location -->
<g id="edge9" class="edge">
<title>spec_v006&#45;&gt;draft_location</title>
<path fill="none" stroke="black" d="M164.95,-289.89C187.82,-286.43 214.7,-282.36 240.13,-278.51"/>
<polygon fill="black" stroke="black" points="240.45,-282 249.81,-277.04 239.4,-275.08 240.45,-282"/>
</g>
<!-- spec_v006&#45;&gt;draft_multifile_specs -->
<g id="edge1" class="edge">
<title>spec_v006&#45;&gt;draft_multifile_specs</title>
<path fill="none" stroke="black" d="M113.47,-276.94C126.03,-236.59 159.11,-150.65 221.61,-113.6 290.94,-72.51 503.16,-94.6 583.75,-94.6 583.75,-94.6 583.75,-94.6 794.63,-94.6 907.45,-94.6 1035.91,-112.51 1121.86,-127.1"/>
<polygon fill="black" stroke="black" points="1121.24,-130.54 1131.68,-128.79 1122.42,-123.64 1121.24,-130.54"/>
</g>
<!-- spec_v006&#45;&gt;draft_revises -->
<g id="edge7" class="edge">
<title>spec_v006&#45;&gt;draft_revises</title>
<path fill="none" stroke="black" d="M133.59,-276.98C156.08,-258.99 189.83,-233.38 221.61,-214.6 234,-207.29 247.61,-200.25 260.91,-193.87"/>
<polygon fill="black" stroke="black" points="262.07,-197.19 269.63,-189.76 259.09,-190.86 262.07,-197.19"/>
</g>
<!-- spec_v006&#45;&gt;implement_lints -->
<g id="edge18" class="edge">
<title>spec_v006&#45;&gt;implement_lints</title>
<path fill="none" stroke="black" d="M113.58,-320.08C126.61,-361.78 160.88,-454.11 221.61,-505.6 231.67,-514.12 243.71,-520.83 256.08,-526.09"/>
<polygon fill="black" stroke="black" points="254.53,-529.24 265.11,-529.63 257.08,-522.72 254.53,-529.24"/>
</g>
<!-- spec_v006&#45;&gt;integrate_spec -->
<g id="edge47" class="edge">
<title>spec_v006&#45;&gt;integrate_spec</title>
<path fill="none" stroke="#888888" stroke-dasharray="5,2" d="M164.81,-307.59C182.95,-310.18 203.08,-312.79 221.61,-314.6 396.75,-331.75 603.07,-340.49 713.45,-344.25"/>
<polygon fill="#888888" stroke="#888888" points="713.18,-347.74 723.3,-344.57 713.42,-340.74 713.18,-347.74"/>
</g>
<!-- write_design_notes -->
<g id="node41" class="node">
<title>write_design_notes</title>
<ellipse fill="none" stroke="black" cx="332.98" cy="-390.6" rx="88.3" ry="29.42"/>
<text xml:space="preserve" text-anchor="middle" x="332.98" y="-394.8" font-family="Times,serif" font-size="14.00">write_design_notes</text>
<text xml:space="preserve" text-anchor="middle" x="332.98" y="-378" font-family="Times,serif" font-size="14.00">設計ノート執筆</text>
</g>
<!-- spec_v006&#45;&gt;write_design_notes -->
<g id="edge11" class="edge">
<title>spec_v006&#45;&gt;write_design_notes</title>
<path fill="none" stroke="black" d="M157.01,-320.31C177.01,-328.96 200.35,-338.9 221.61,-347.6 235.11,-353.12 249.6,-358.89 263.5,-364.33"/>
<polygon fill="black" stroke="black" points="261.98,-367.5 272.57,-367.88 264.53,-360.98 261.98,-367.5"/>
</g>
<!-- spec_v007&#45;&gt;draft_external_stakeholders -->
<g id="edge44" class="edge">
<title>spec_v007&#45;&gt;draft_external_stakeholders</title>
<path fill="none" stroke="black" d="M1060.52,-342.64C1069.77,-342.17 1079.39,-341.69 1089.11,-341.2"/>
<polygon fill="black" stroke="black" points="1089.24,-344.69 1099.05,-340.7 1088.88,-337.7 1089.24,-344.69"/>
</g>
<!-- spec_v007&#45;&gt;implement_spec_features -->
<g id="edge22" class="edge">
<title>spec_v007&#45;&gt;implement_spec_features</title>
<path fill="none" stroke="black" d="M1060.52,-372.69C1085.88,-381.1 1114.02,-390.44 1139.51,-398.9"/>
<polygon fill="black" stroke="black" points="1138.23,-402.16 1148.82,-401.99 1140.43,-395.52 1138.23,-402.16"/>
</g>
<!-- write_article&#45;&gt;i12_article -->
<g id="edge37" class="edge">
<title>write_article&#45;&gt;i12_article</title>
<path fill="none" stroke="black" d="M394.76,-37.6C429.96,-37.6 474.49,-37.6 511.48,-37.6"/>
<polygon fill="black" stroke="black" points="511.18,-41.1 521.18,-37.6 511.18,-34.1 511.18,-41.1"/>
</g>
<!-- write_design_notes&#45;&gt;design_notes -->
<g id="edge12" class="edge">
<title>write_design_notes&#45;&gt;design_notes</title>
<path fill="none" stroke="black" d="M421.69,-390.6C446.2,-390.6 472.81,-390.6 497.26,-390.6"/>
<polygon fill="black" stroke="black" points="497.17,-394.1 507.17,-390.6 497.17,-387.1 497.17,-394.1"/>
</g>
</g>
</svg>
