<?xml version="1.0" encoding="UTF-8" standalone="no"?>
<!DOCTYPE svg PUBLIC "-//W3C//DTD SVG 1.1//EN"
 "http://www.w3.org/Graphics/SVG/1.1/DTD/svg11.dtd">
<!-- Generated by graphviz version 15.0.0 (0)
 -->
<!-- Title: PFDSL Pages: 1 -->
<svg width="1945pt" height="940pt"
 viewBox="0.00 0.00 1945.00 940.00" xmlns="http://www.w3.org/2000/svg" xmlns:xlink="http://www.w3.org/1999/xlink">
<g id="graph0" class="graph" transform="scale(1 1) rotate(0) translate(4 935.82)">
<title>PFDSL</title>
<polygon fill="white" stroke="none" points="-4,4 -4,-935.82 1940.69,-935.82 1940.69,4 -4,4"/>
<text xml:space="preserve" text-anchor="middle" x="968.35" y="-915.22" font-family="Times,serif" font-size="14.00">Issue 依存フロー（2026&#45;06）</text>
<!-- adr_corpus -->
<g id="node1" class="node">
<title>adr_corpus</title>
<g id="a_node1"><a xlink:title="ADR 群 (docs/adr)&#10;&#10;方法論の設計決定記録。一覧と本数は docs/adr/README.md が一次情報（ここに数を書かない — ドリフトするため）&#10;criteria: 対象判断が文書化され docs/adr/README.md の一覧に追記済み&#10;location: docs/adr/">
<polygon fill="#d4edda" stroke="black" stroke-width="2" points="178.41,-58.4 34.41,-58.4 34.41,-16.8 178.41,-16.8 178.41,-58.4"/>
<text xml:space="preserve" text-anchor="middle" x="106.41" y="-41.8" font-family="Times,serif" font-size="14.00">adr_corpus</text>
<text xml:space="preserve" text-anchor="middle" x="106.41" y="-25" font-family="Times,serif" font-size="14.00">ADR 群 (docs/adr)</text>
</a>
</g>
<text xml:space="preserve" text-anchor="middle" x="20.81" y="-4.2" font-family="Times,serif" font-size="14.00">done</text>
</g>
<!-- write_article -->
<g id="node36" class="node">
<title>write_article</title>
<ellipse fill="none" stroke="black" cx="322.02" cy="-37.6" rx="61.33" ry="29.42"/>
<text xml:space="preserve" text-anchor="middle" x="322.02" y="-41.8" font-family="Times,serif" font-size="14.00">write_article</text>
<text xml:space="preserve" text-anchor="middle" x="322.02" y="-25" font-family="Times,serif" font-size="14.00">記事執筆</text>
</g>
<!-- adr_corpus&#45;&gt;write_article -->
<g id="edge36" class="edge">
<title>adr_corpus&#45;&gt;write_article</title>
<path fill="none" stroke="black" d="M179.14,-37.6C201.74,-37.6 226.7,-37.6 249.3,-37.6"/>
<polygon fill="black" stroke="black" points="249.02,-41.1 259.02,-37.6 249.02,-34.1 249.02,-41.1"/>
</g>
<!-- audit_distribution -->
<g id="node2" class="node">
<title>audit_distribution</title>
<g id="a_node2"><a xlink:href="https://github.com/takasek/pfdsl/issues/43" xlink:title="L3資産の階層化配布 (#43)&#10;&#10;audit コア + flow&#45;sync action を skill 同梱・配布可能化。scripts/lib/issues&#45;flow&#45;audit.mjs を #37 と共有するため着手順を調整。実配布フローは #11&#10;criteria: install/ に配布可能ファイルが揃い、CI で identity が強制されている&#10;location: https://github.com/takasek/pfdsl/issues/43">
<polygon fill="#d4edda" stroke="black" stroke-width="2" points="616.83,-829.8 465.63,-829.8 465.63,-771.4 616.83,-771.4 616.83,-829.8"/>
<text xml:space="preserve" text-anchor="middle" x="541.23" y="-813.2" font-family="Times,serif" font-size="14.00">audit_distribution</text>
<text xml:space="preserve" text-anchor="middle" x="541.23" y="-796.4" font-family="Times,serif" font-size="14.00">L3資産の階層化配布</text>
<text xml:space="preserve" text-anchor="middle" x="541.23" y="-779.6" font-family="Times,serif" font-size="14.00"> (#43)</text>
</a>
</g>
<text xml:space="preserve" text-anchor="middle" x="452.03" y="-758.8" font-family="Times,serif" font-size="14.00">done</text>
</g>
<!-- build_obsidian_plugin -->
<g id="node3" class="node">
<title>build_obsidian_plugin</title>
<g id="a_node3"><a xlink:title="Obsidianプラグイン実装">
<ellipse fill="none" stroke="black" cx="322.02" cy="-634.6" rx="100.41" ry="41.3"/>
<text xml:space="preserve" text-anchor="middle" x="322.02" y="-647.2" font-family="Times,serif" font-size="14.00">build_obsidian_plugin</text>
<text xml:space="preserve" text-anchor="middle" x="322.02" y="-630.4" font-family="Times,serif" font-size="14.00">Obsidianプラグイン</text>
<text xml:space="preserve" text-anchor="middle" x="322.02" y="-613.6" font-family="Times,serif" font-size="14.00">実装</text>
</a>
</g>
</g>
<!-- i3_obsidian_plugin -->
<g id="node15" class="node">
<title>i3_obsidian_plugin</title>
<g id="a_node15"><a xlink:href="https://github.com/takasek/pfdsl/issues/3" xlink:title="Obsidian プラグイン (#3)&#10;criteria: Obsidian 上で .pfdsl のプレビュー・編集が動作確認済み&#10;location: https://github.com/takasek/pfdsl/issues/3">
<polygon fill="#f8f9fa" stroke="black" stroke-width="2" points="624.03,-663.8 458.43,-663.8 458.43,-605.4 624.03,-605.4 624.03,-663.8"/>
<text xml:space="preserve" text-anchor="middle" x="541.23" y="-647.2" font-family="Times,serif" font-size="14.00">i3_obsidian_plugin</text>
<text xml:space="preserve" text-anchor="middle" x="541.23" y="-630.4" font-family="Times,serif" font-size="14.00">Obsidian プラグイン </text>
<text xml:space="preserve" text-anchor="middle" x="541.23" y="-613.6" font-family="Times,serif" font-size="14.00">(#3)</text>
</a>
</g>
<text xml:space="preserve" text-anchor="middle" x="445.99" y="-592.8" font-family="Times,serif" font-size="14.00">todo</text>
</g>
<!-- build_obsidian_plugin&#45;&gt;i3_obsidian_plugin -->
<g id="edge39" class="edge">
<title>build_obsidian_plugin&#45;&gt;i3_obsidian_plugin</title>
<path fill="none" stroke="black" d="M422.73,-634.6C430.6,-634.6 438.53,-634.6 446.35,-634.6"/>
<polygon fill="black" stroke="black" points="446.21,-638.1 456.21,-634.6 446.21,-631.1 446.21,-638.1"/>
</g>
<!-- cli_tool -->
<g id="node4" class="node">
<title>cli_tool</title>
<g id="a_node4"><a xlink:title="CLI 実装（現行）&#10;criteria: check/fmt/graph が全サンプルに対してエラーなし、npm 公開済み">
<polygon fill="#d4edda" stroke="black" stroke-width="2" points="174.81,-699.4 38.01,-699.4 38.01,-657.8 174.81,-657.8 174.81,-699.4"/>
<text xml:space="preserve" text-anchor="middle" x="106.41" y="-682.8" font-family="Times,serif" font-size="14.00">cli_tool</text>
<text xml:space="preserve" text-anchor="middle" x="106.41" y="-666" font-family="Times,serif" font-size="14.00">CLI 実装（現行）</text>
</a>
</g>
<text xml:space="preserve" text-anchor="middle" x="24.41" y="-645.2" font-family="Times,serif" font-size="14.00">done</text>
</g>
<!-- cli_tool&#45;&gt;build_obsidian_plugin -->
<g id="edge38" class="edge">
<title>cli_tool&#45;&gt;build_obsidian_plugin</title>
<path fill="none" stroke="black" d="M175.59,-664.56C189.93,-661.6 205.35,-658.43 220.6,-655.29"/>
<polygon fill="black" stroke="black" points="221.08,-658.76 230.17,-653.31 219.67,-651.9 221.08,-658.76"/>
</g>
<!-- implement_lints -->
<g id="node19" class="node">
<title>implement_lints</title>
<ellipse fill="none" stroke="black" cx="322.02" cy="-545.6" rx="75.66" ry="29.42"/>
<text xml:space="preserve" text-anchor="middle" x="322.02" y="-549.8" font-family="Times,serif" font-size="14.00">implement_lints</text>
<text xml:space="preserve" text-anchor="middle" x="322.02" y="-533" font-family="Times,serif" font-size="14.00">lint実装</text>
</g>
<!-- cli_tool&#45;&gt;implement_lints -->
<g id="edge20" class="edge">
<title>cli_tool&#45;&gt;implement_lints</title>
<path fill="none" stroke="black" d="M129.43,-656.86C151.33,-636.14 186.63,-605.16 221.61,-584.6 231.49,-578.8 242.38,-573.53 253.23,-568.87"/>
<polygon fill="black" stroke="black" points="254.28,-572.22 262.18,-565.17 251.61,-565.75 254.28,-572.22"/>
</g>
<!-- layer_audit_assets -->
<g id="node23" class="node">
<title>layer_audit_assets</title>
<ellipse fill="none" stroke="black" cx="322.02" cy="-800.6" rx="83.89" ry="29.42"/>
<text xml:space="preserve" text-anchor="middle" x="322.02" y="-804.8" font-family="Times,serif" font-size="14.00">layer_audit_assets</text>
<text xml:space="preserve" text-anchor="middle" x="322.02" y="-788" font-family="Times,serif" font-size="14.00">L3資産階層化</text>
</g>
<!-- cli_tool&#45;&gt;layer_audit_assets -->
<g id="edge34" class="edge">
<title>cli_tool&#45;&gt;layer_audit_assets</title>
<path fill="none" stroke="black" d="M132.91,-700.06C155.26,-718.14 189.16,-743.82 221.61,-761.6 230.85,-766.66 240.87,-771.39 250.89,-775.69"/>
<polygon fill="black" stroke="black" points="249.31,-778.83 259.89,-779.44 252,-772.36 249.31,-778.83"/>
</g>
<!-- publish_cli -->
<g id="node27" class="node">
<title>publish_cli</title>
<ellipse fill="none" stroke="black" cx="322.02" cy="-723.6" rx="55.31" ry="29.42"/>
<text xml:space="preserve" text-anchor="middle" x="322.02" y="-727.8" font-family="Times,serif" font-size="14.00">publish_cli</text>
<text xml:space="preserve" text-anchor="middle" x="322.02" y="-711" font-family="Times,serif" font-size="14.00">CLI公開</text>
</g>
<!-- cli_tool&#45;&gt;publish_cli -->
<g id="edge32" class="edge">
<title>cli_tool&#45;&gt;publish_cli</title>
<path fill="none" stroke="black" d="M175.59,-692.96C202.4,-698.61 232.97,-705.05 259.14,-710.56"/>
<polygon fill="black" stroke="black" points="258.08,-713.92 268.59,-712.55 259.52,-707.07 258.08,-713.92"/>
</g>
<!-- criteria_spec -->
<g id="node5" class="node">
<title>criteria_spec</title>
<g id="a_node5"><a xlink:href="https://github.com/takasek/pfdsl/issues/7" xlink:title="合否基準仕様案 (#7)&#10;criteria: 仕様案として起草完了&#10;location: https://github.com/takasek/pfdsl/issues/7">
<polygon fill="#d4edda" stroke="black" points="620.43,-314.4 462.03,-314.4 462.03,-272.8 620.43,-272.8 620.43,-314.4"/>
<text xml:space="preserve" text-anchor="middle" x="541.23" y="-297.8" font-family="Times,serif" font-size="14.00">criteria_spec</text>
<text xml:space="preserve" text-anchor="middle" x="541.23" y="-281" font-family="Times,serif" font-size="14.00">合否基準仕様案 (#7)</text>
</a>
</g>
<text xml:space="preserve" text-anchor="middle" x="448.43" y="-260.2" font-family="Times,serif" font-size="14.00">done</text>
</g>
<!-- integrate_spec -->
<g id="node22" class="node">
<title>integrate_spec</title>
<ellipse fill="none" stroke="black" cx="728.51" cy="-331.6" rx="68.48" ry="29.42"/>
<text xml:space="preserve" text-anchor="middle" x="728.51" y="-335.8" font-family="Times,serif" font-size="14.00">integrate_spec</text>
<text xml:space="preserve" text-anchor="middle" x="728.51" y="-319" font-family="Times,serif" font-size="14.00">仕様統合</text>
</g>
<!-- criteria_spec&#45;&gt;integrate_spec -->
<g id="edge13" class="edge">
<title>criteria_spec&#45;&gt;integrate_spec</title>
<path fill="none" stroke="black" d="M620.81,-309.72C632.2,-312.05 643.88,-314.45 655.14,-316.76"/>
<polygon fill="black" stroke="black" points="654.26,-320.15 664.76,-318.73 655.66,-313.29 654.26,-320.15"/>
</g>
<!-- design_notes -->
<g id="node6" class="node">
<title>design_notes</title>
<g id="a_node6"><a xlink:href="https://github.com/takasek/pfdsl/issues/9" xlink:title="設計判断ノート・分岐なし方針 (#9)&#10;criteria: 仕様案として起草完了&#10;location: https://github.com/takasek/pfdsl/issues/9">
<polygon fill="#d4edda" stroke="black" points="616.83,-394.8 465.63,-394.8 465.63,-336.4 616.83,-336.4 616.83,-394.8"/>
<text xml:space="preserve" text-anchor="middle" x="541.23" y="-378.2" font-family="Times,serif" font-size="14.00">design_notes</text>
<text xml:space="preserve" text-anchor="middle" x="541.23" y="-361.4" font-family="Times,serif" font-size="14.00">設計判断ノート・分</text>
<text xml:space="preserve" text-anchor="middle" x="541.23" y="-344.6" font-family="Times,serif" font-size="14.00">岐なし方針 (#9)</text>
</a>
</g>
<text xml:space="preserve" text-anchor="middle" x="452.03" y="-323.8" font-family="Times,serif" font-size="14.00">done</text>
</g>
<!-- design_notes&#45;&gt;integrate_spec -->
<g id="edge16" class="edge">
<title>design_notes&#45;&gt;integrate_spec</title>
<path fill="none" stroke="black" d="M617.33,-351.82C629.34,-349.62 641.76,-347.34 653.74,-345.14"/>
<polygon fill="black" stroke="black" points="654.37,-348.58 663.57,-343.33 653.1,-341.7 654.37,-348.58"/>
</g>
<!-- draft_criteria -->
<g id="node7" class="node">
<title>draft_criteria</title>
<ellipse fill="none" stroke="black" cx="322.02" cy="-290.6" rx="70.71" ry="29.42"/>
<text xml:space="preserve" text-anchor="middle" x="322.02" y="-294.8" font-family="Times,serif" font-size="14.00">draft_criteria</text>
<text xml:space="preserve" text-anchor="middle" x="322.02" y="-278" font-family="Times,serif" font-size="14.00">合否基準仕様起草</text>
</g>
<!-- draft_criteria&#45;&gt;criteria_spec -->
<g id="edge6" class="edge">
<title>draft_criteria&#45;&gt;criteria_spec</title>
<path fill="none" stroke="black" d="M392.94,-291.57C411.21,-291.82 431.15,-292.09 450.3,-292.36"/>
<polygon fill="black" stroke="black" points="450.21,-295.86 460.26,-292.5 450.31,-288.86 450.21,-295.86"/>
</g>
<!-- draft_external_stakeholders -->
<g id="node8" class="node">
<title>draft_external_stakeholders</title>
<g id="a_node8"><a xlink:title="externalStakeholders仕様起草&#10;&#10;artifact / process の externalStakeholders フィールドを spec に定義する。型・終端監査との連携（#37）・サンプル反映を含む">
<ellipse fill="none" stroke="black" cx="1155.86" cy="-310.6" rx="121.26" ry="41.3"/>
<text xml:space="preserve" text-anchor="middle" x="1155.86" y="-323.2" font-family="Times,serif" font-size="14.00">draft_external_stakeholders</text>
<text xml:space="preserve" text-anchor="middle" x="1155.86" y="-306.4" font-family="Times,serif" font-size="14.00">externalStakeholders</text>
<text xml:space="preserve" text-anchor="middle" x="1155.86" y="-289.6" font-family="Times,serif" font-size="14.00">仕様起草</text>
</a>
</g>
</g>
<!-- i97_external_stakeholders_spec -->
<g id="node18" class="node">
<title>i97_external_stakeholders_spec</title>
<g id="a_node18"><a xlink:href="https://github.com/takasek/pfdsl/issues/97" xlink:title="externalStakeholders フィールド仕様案 (#97)&#10;&#10;artifact / process に外部消費者を列挙するフィールド。owner と対称。終端監査（#37）で消費者として扱う。ecosystem 廃止（ADR&#45;0017）の代替手段&#10;criteria: 仕様案として起草完了&#10;location: https://github.com/takasek/pfdsl/issues/97">
<polygon fill="#f8f9fa" stroke="black" points="1550.72,-346.2 1313.12,-346.2 1313.12,-271 1550.72,-271 1550.72,-346.2"/>
<text xml:space="preserve" text-anchor="middle" x="1431.92" y="-329.6" font-family="Times,serif" font-size="14.00">i97_external_stakeholders_spec</text>
<text xml:space="preserve" text-anchor="middle" x="1431.92" y="-312.8" font-family="Times,serif" font-size="14.00">externalStakeholders</text>
<text xml:space="preserve" text-anchor="middle" x="1431.92" y="-296" font-family="Times,serif" font-size="14.00">フィールド仕様案 </text>
<text xml:space="preserve" text-anchor="middle" x="1431.92" y="-279.2" font-family="Times,serif" font-size="14.00">#97)</text>
</a>
</g>
<text xml:space="preserve" text-anchor="middle" x="1300.68" y="-258.4" font-family="Times,serif" font-size="14.00">todo</text>
</g>
<!-- draft_external_stakeholders&#45;&gt;i97_external_stakeholders_spec -->
<g id="edge41" class="edge">
<title>draft_external_stakeholders&#45;&gt;i97_external_stakeholders_spec</title>
<path fill="none" stroke="black" d="M1277.47,-309.72C1285.47,-309.66 1293.55,-309.6 1301.59,-309.54"/>
<polygon fill="black" stroke="black" points="1301.44,-313.05 1311.42,-309.47 1301.39,-306.05 1301.44,-313.05"/>
</g>
<!-- draft_location -->
<g id="node9" class="node">
<title>draft_location</title>
<g id="a_node9"><a xlink:title="location/command 起草">
<ellipse fill="none" stroke="black" cx="322.02" cy="-201.6" rx="84.99" ry="41.3"/>
<text xml:space="preserve" text-anchor="middle" x="322.02" y="-214.2" font-family="Times,serif" font-size="14.00">draft_location</text>
<text xml:space="preserve" text-anchor="middle" x="322.02" y="-197.4" font-family="Times,serif" font-size="14.00">location/command</text>
<text xml:space="preserve" text-anchor="middle" x="322.02" y="-180.6" font-family="Times,serif" font-size="14.00">起草</text>
</a>
</g>
</g>
<!-- location_spec -->
<g id="node25" class="node">
<title>location_spec</title>
<g id="a_node25"><a xlink:href="https://github.com/takasek/pfdsl/issues/13" xlink:title="location/command 仕様案 (#13)&#10;&#10;ノードと実ファイル・実行手順を結ぶメタデータ。パス解決規則のみ multifile 方針と接点&#10;criteria: 仕様案として起草完了&#10;location: https://github.com/takasek/pfdsl/issues/13">
<polygon fill="#d4edda" stroke="black" points="609.63,-244.8 472.83,-244.8 472.83,-186.4 609.63,-186.4 609.63,-244.8"/>
<text xml:space="preserve" text-anchor="middle" x="541.23" y="-228.2" font-family="Times,serif" font-size="14.00">location_spec</text>
<text xml:space="preserve" text-anchor="middle" x="541.23" y="-211.4" font-family="Times,serif" font-size="14.00">location/command</text>
<text xml:space="preserve" text-anchor="middle" x="541.23" y="-194.6" font-family="Times,serif" font-size="14.00">仕様案 (#13)</text>
</a>
</g>
<text xml:space="preserve" text-anchor="middle" x="459.23" y="-173.8" font-family="Times,serif" font-size="14.00">done</text>
</g>
<!-- draft_location&#45;&gt;location_spec -->
<g id="edge10" class="edge">
<title>draft_location&#45;&gt;location_spec</title>
<path fill="none" stroke="black" d="M406.69,-206.99C424.53,-208.14 443.32,-209.35 461,-210.49"/>
<polygon fill="black" stroke="black" points="460.71,-213.98 470.91,-211.13 461.16,-207 460.71,-213.98"/>
</g>
<!-- draft_multifile_specs -->
<g id="node10" class="node">
<title>draft_multifile_specs</title>
<g id="a_node10"><a xlink:title="階層・プリセット共同起草&#10;&#10;#5 と #6 は決定が往復で形成される相互依存のため分割せず共同設計する。共有決定は方針記録として外化">
<ellipse fill="none" stroke="black" cx="1155.86" cy="-113.6" rx="95.44" ry="41.3"/>
<text xml:space="preserve" text-anchor="middle" x="1155.86" y="-126.2" font-family="Times,serif" font-size="14.00">draft_multifile_specs</text>
<text xml:space="preserve" text-anchor="middle" x="1155.86" y="-109.4" font-family="Times,serif" font-size="14.00">階層・プリセット共</text>
<text xml:space="preserve" text-anchor="middle" x="1155.86" y="-92.6" font-family="Times,serif" font-size="14.00">同起草</text>
</a>
</g>
</g>
<!-- i5_hierarchy_spec -->
<g id="node16" class="node">
<title>i5_hierarchy_spec</title>
<g id="a_node16"><a xlink:href="https://github.com/takasek/pfdsl/issues/5" xlink:title="階層PFD仕様案 (#5)&#10;criteria: 仕様案として起草完了&#10;location: https://github.com/takasek/pfdsl/issues/5">
<polygon fill="#f8f9fa" stroke="black" points="1507.52,-100.4 1356.32,-100.4 1356.32,-58.8 1507.52,-58.8 1507.52,-100.4"/>
<text xml:space="preserve" text-anchor="middle" x="1431.92" y="-83.8" font-family="Times,serif" font-size="14.00">i5_hierarchy_spec</text>
<text xml:space="preserve" text-anchor="middle" x="1431.92" y="-67" font-family="Times,serif" font-size="14.00">階層PFD仕様案 (#5)</text>
</a>
</g>
<text xml:space="preserve" text-anchor="middle" x="1343.88" y="-46.2" font-family="Times,serif" font-size="14.00">todo</text>
</g>
<!-- draft_multifile_specs&#45;&gt;i5_hierarchy_spec -->
<g id="edge2" class="edge">
<title>draft_multifile_specs&#45;&gt;i5_hierarchy_spec</title>
<path fill="none" stroke="black" d="M1248.12,-102.28C1279.32,-98.41 1314.1,-94.09 1344.88,-90.27"/>
<polygon fill="black" stroke="black" points="1345.03,-93.78 1354.52,-89.08 1344.17,-86.84 1345.03,-93.78"/>
</g>
<!-- i6_presets_spec -->
<g id="node17" class="node">
<title>i6_presets_spec</title>
<g id="a_node17"><a xlink:href="https://github.com/takasek/pfdsl/issues/6" xlink:title="共有プリセット仕様案 (#6)&#10;criteria: 仕様案として起草完了&#10;location: https://github.com/takasek/pfdsl/issues/6">
<polygon fill="#f8f9fa" stroke="black" points="1507.52,-252.8 1356.32,-252.8 1356.32,-194.4 1507.52,-194.4 1507.52,-252.8"/>
<text xml:space="preserve" text-anchor="middle" x="1431.92" y="-236.2" font-family="Times,serif" font-size="14.00">i6_presets_spec</text>
<text xml:space="preserve" text-anchor="middle" x="1431.92" y="-219.4" font-family="Times,serif" font-size="14.00">共有プリセット仕様</text>
<text xml:space="preserve" text-anchor="middle" x="1431.92" y="-202.6" font-family="Times,serif" font-size="14.00">案 (#6)</text>
</a>
</g>
<text xml:space="preserve" text-anchor="middle" x="1343.88" y="-181.8" font-family="Times,serif" font-size="14.00">todo</text>
</g>
<!-- draft_multifile_specs&#45;&gt;i6_presets_spec -->
<g id="edge3" class="edge">
<title>draft_multifile_specs&#45;&gt;i6_presets_spec</title>
<path fill="none" stroke="black" d="M1219.6,-144.6C1247.85,-158.01 1281.81,-173.39 1313.12,-185.6 1323.41,-189.61 1334.31,-193.54 1345.16,-197.27"/>
<polygon fill="black" stroke="black" points="1343.95,-200.55 1354.55,-200.43 1346.19,-193.92 1343.95,-200.55"/>
</g>
<!-- multifile_policy -->
<g id="node26" class="node">
<title>multifile_policy</title>
<g id="a_node26"><a xlink:title="マルチファイル意味論方針&#10;&#10;共同起草で確定した ID スコープ・継承解決順・ファイル間参照の決定記録。ファイル横断機能（#8 実装等）と仕様統合の前提資料&#10;criteria: ID スコープ・継承解決順・ファイル間参照の決定が文書化済み">
<polygon fill="#f8f9fa" stroke="black" points="1507.52,-176.8 1356.32,-176.8 1356.32,-118.4 1507.52,-118.4 1507.52,-176.8"/>
<text xml:space="preserve" text-anchor="middle" x="1431.92" y="-160.2" font-family="Times,serif" font-size="14.00">multifile_policy</text>
<text xml:space="preserve" text-anchor="middle" x="1431.92" y="-143.4" font-family="Times,serif" font-size="14.00">マルチファイル意味</text>
<text xml:space="preserve" text-anchor="middle" x="1431.92" y="-126.6" font-family="Times,serif" font-size="14.00">論方針</text>
</a>
</g>
<text xml:space="preserve" text-anchor="middle" x="1343.88" y="-105.8" font-family="Times,serif" font-size="14.00">todo</text>
</g>
<!-- draft_multifile_specs&#45;&gt;multifile_policy -->
<g id="edge4" class="edge">
<title>draft_multifile_specs&#45;&gt;multifile_policy</title>
<path fill="none" stroke="black" d="M1248.12,-124.92C1279.32,-128.79 1314.1,-133.11 1344.88,-136.93"/>
<polygon fill="black" stroke="black" points="1344.17,-140.36 1354.52,-138.12 1345.03,-133.42 1344.17,-140.36"/>
</g>
<!-- draft_revises -->
<g id="node11" class="node">
<title>draft_revises</title>
<g id="a_node11"><a xlink:title="改版チェーン仕様起草">
<ellipse fill="none" stroke="black" cx="322.02" cy="-456.6" rx="78.14" ry="41.3"/>
<text xml:space="preserve" text-anchor="middle" x="322.02" y="-469.2" font-family="Times,serif" font-size="14.00">draft_revises</text>
<text xml:space="preserve" text-anchor="middle" x="322.02" y="-452.4" font-family="Times,serif" font-size="14.00">改版チェーン仕様起</text>
<text xml:space="preserve" text-anchor="middle" x="322.02" y="-435.6" font-family="Times,serif" font-size="14.00">草</text>
</a>
</g>
</g>
<!-- revises_spec -->
<g id="node31" class="node">
<title>revises_spec</title>
<g id="a_node31"><a xlink:href="https://github.com/takasek/pfdsl/issues/8" xlink:title="改版チェーン仕様案 (#8)&#10;criteria: 仕様案として起草完了&#10;location: https://github.com/takasek/pfdsl/issues/8">
<polygon fill="#d4edda" stroke="black" points="620.43,-476.8 462.03,-476.8 462.03,-418.4 620.43,-418.4 620.43,-476.8"/>
<text xml:space="preserve" text-anchor="middle" x="541.23" y="-460.2" font-family="Times,serif" font-size="14.00">revises_spec</text>
<text xml:space="preserve" text-anchor="middle" x="541.23" y="-443.4" font-family="Times,serif" font-size="14.00">改版チェーン仕様案 </text>
<text xml:space="preserve" text-anchor="middle" x="541.23" y="-426.6" font-family="Times,serif" font-size="14.00">(#8)</text>
</a>
</g>
<text xml:space="preserve" text-anchor="middle" x="448.43" y="-405.8" font-family="Times,serif" font-size="14.00">done</text>
</g>
<!-- draft_revises&#45;&gt;revises_spec -->
<g id="edge8" class="edge">
<title>draft_revises&#45;&gt;revises_spec</title>
<path fill="none" stroke="black" d="M400.21,-453.4C416.46,-452.73 433.74,-452.01 450.4,-451.32"/>
<polygon fill="black" stroke="black" points="450.47,-454.82 460.31,-450.91 450.18,-447.83 450.47,-454.82"/>
</g>
<!-- featured_toolchain -->
<g id="node12" class="node">
<title>featured_toolchain</title>
<g id="a_node12"><a xlink:href="https://github.com/takasek/pfdsl/issues/52" xlink:title="spec v0.0.7 実装済みツールチェーン (#52)&#10;criteria: spec v0.0.7 の全機能が実装され、check/fmt/graph がエラーなしで動作&#10;location: https://github.com/takasek/pfdsl/issues/52">
<polygon fill="#d4edda" stroke="black" points="1507.52,-439.2 1356.32,-439.2 1356.32,-364 1507.52,-364 1507.52,-439.2"/>
<text xml:space="preserve" text-anchor="middle" x="1431.92" y="-422.6" font-family="Times,serif" font-size="14.00">featured_toolchain</text>
<text xml:space="preserve" text-anchor="middle" x="1431.92" y="-405.8" font-family="Times,serif" font-size="14.00">spec v0.0.7</text>
<text xml:space="preserve" text-anchor="middle" x="1431.92" y="-389" font-family="Times,serif" font-size="14.00">実装済みツールチェ</text>
<text xml:space="preserve" text-anchor="middle" x="1431.92" y="-372.2" font-family="Times,serif" font-size="14.00">ーン (#52)</text>
</a>
</g>
<text xml:space="preserve" text-anchor="middle" x="1342.71" y="-351.4" font-family="Times,serif" font-size="14.00">done</text>
</g>
<!-- integrate_multifile -->
<g id="node21" class="node">
<title>integrate_multifile</title>
<g id="a_node21"><a xlink:title="マルチファイル仕様統合">
<ellipse fill="none" stroke="black" cx="1671.71" cy="-223.6" rx="84.98" ry="41.3"/>
<text xml:space="preserve" text-anchor="middle" x="1671.71" y="-236.2" font-family="Times,serif" font-size="14.00">integrate_multifile</text>
<text xml:space="preserve" text-anchor="middle" x="1671.71" y="-219.4" font-family="Times,serif" font-size="14.00">マルチファイル仕様</text>
<text xml:space="preserve" text-anchor="middle" x="1671.71" y="-202.6" font-family="Times,serif" font-size="14.00">統合</text>
</a>
</g>
</g>
<!-- featured_toolchain&#45;&gt;integrate_multifile -->
<g id="edge28" class="edge">
<title>featured_toolchain&#45;&gt;integrate_multifile</title>
<path fill="none" stroke="black" d="M1507.82,-378.36C1522.68,-372.12 1537.7,-364.56 1550.72,-355.6 1583.87,-332.79 1614.28,-299.13 1636.19,-271.51"/>
<polygon fill="black" stroke="black" points="1638.68,-274.01 1642.07,-263.97 1633.16,-269.7 1638.68,-274.01"/>
</g>
<!-- findings_r12 -->
<g id="node13" class="node">
<title>findings_r12</title>
<g id="a_node13"><a xlink:title="実践ラウンド1/2レビュー知見&#10;&#10;docs/examples の執筆・レビューで得た品質知見&#10;criteria: skill_template または adr_corpus への反映が確認済み">
<polygon fill="#d4edda" stroke="black" stroke-width="2" points="185.61,-574.8 27.21,-574.8 27.21,-516.4 185.61,-516.4 185.61,-574.8"/>
<text xml:space="preserve" text-anchor="middle" x="106.41" y="-558.2" font-family="Times,serif" font-size="14.00">findings_r12</text>
<text xml:space="preserve" text-anchor="middle" x="106.41" y="-541.4" font-family="Times,serif" font-size="14.00">実践ラウンド1/2レビ</text>
<text xml:space="preserve" text-anchor="middle" x="106.41" y="-524.6" font-family="Times,serif" font-size="14.00">ュー知見</text>
</a>
</g>
<text xml:space="preserve" text-anchor="middle" x="13.61" y="-503.8" font-family="Times,serif" font-size="14.00">done</text>
</g>
<!-- findings_r12&#45;&gt;implement_lints -->
<g id="edge19" class="edge">
<title>findings_r12&#45;&gt;implement_lints</title>
<path fill="none" stroke="black" d="M186.35,-545.6C202.03,-545.6 218.58,-545.6 234.5,-545.6"/>
<polygon fill="black" stroke="black" points="234.45,-549.1 244.45,-545.6 234.45,-542.1 234.45,-549.1"/>
</g>
<!-- i12_article -->
<g id="node14" class="node">
<title>i12_article</title>
<g id="a_node14"><a xlink:href="https://github.com/takasek/pfdsl/issues/12" xlink:title="公開記事 (#12)&#10;&#10;ADR 群を素材とした外部公開記事。依存なしで着手可能、spec v0.0.7 確定後はより充実&#10;criteria: 外部メディアに公開済みで URL が存在する&#10;location: https://github.com/takasek/pfdsl/issues/12">
<polygon fill="#f8f9fa" stroke="black" stroke-width="2" points="602.43,-58.4 480.03,-58.4 480.03,-16.8 602.43,-16.8 602.43,-58.4"/>
<text xml:space="preserve" text-anchor="middle" x="541.23" y="-41.8" font-family="Times,serif" font-size="14.00">i12_article</text>
<text xml:space="preserve" text-anchor="middle" x="541.23" y="-25" font-family="Times,serif" font-size="14.00">公開記事 (#12)</text>
</a>
</g>
<text xml:space="preserve" text-anchor="middle" x="467.59" y="-4.2" font-family="Times,serif" font-size="14.00">todo</text>
</g>
<!-- i5_hierarchy_spec&#45;&gt;integrate_multifile -->
<g id="edge25" class="edge">
<title>i5_hierarchy_spec&#45;&gt;integrate_multifile</title>
<path fill="none" stroke="black" d="M1508.01,-92.61C1522.7,-96.82 1537.6,-102.36 1550.72,-109.6 1581.41,-126.55 1610.1,-153.24 1631.73,-176.53"/>
<polygon fill="black" stroke="black" points="1629.03,-178.77 1638.35,-183.82 1634.21,-174.06 1629.03,-178.77"/>
</g>
<!-- i6_presets_spec&#45;&gt;integrate_multifile -->
<g id="edge26" class="edge">
<title>i6_presets_spec&#45;&gt;integrate_multifile</title>
<path fill="none" stroke="black" d="M1507.83,-223.6C1529.14,-223.6 1552.65,-223.6 1575.02,-223.6"/>
<polygon fill="black" stroke="black" points="1574.72,-227.1 1584.72,-223.6 1574.72,-220.1 1574.72,-227.1"/>
</g>
<!-- i97_external_stakeholders_spec&#45;&gt;integrate_multifile -->
<g id="edge42" class="edge">
<title>i97_external_stakeholders_spec&#45;&gt;integrate_multifile</title>
<path fill="none" stroke="black" d="M1539.29,-270.58C1557.11,-264.21 1575.31,-257.7 1592.26,-251.64"/>
<polygon fill="black" stroke="black" points="1592.98,-255.1 1601.22,-248.44 1590.62,-248.51 1592.98,-255.1"/>
</g>
<!-- lint_checker -->
<g id="node24" class="node">
<title>lint_checker</title>
<g id="a_node24"><a xlink:href="https://github.com/takasek/pfdsl/issues/4" xlink:title="lint拡張checker (#4)&#10;&#10;lint 候補の完全リストは issue #4 が一次情報（本文+コメント）。ここに列挙しない — 列挙は同期漏れで腐るため&#10;criteria: issue #4 の対象 lint がすべて実装され、check コマンドで動作確認済み&#10;location: https://github.com/takasek/pfdsl/issues/4">
<polygon fill="#d4edda" stroke="black" points="998.6,-471.4 833,-471.4 833,-429.8 998.6,-429.8 998.6,-471.4"/>
<text xml:space="preserve" text-anchor="middle" x="915.8" y="-454.8" font-family="Times,serif" font-size="14.00">lint_checker</text>
<text xml:space="preserve" text-anchor="middle" x="915.8" y="-438" font-family="Times,serif" font-size="14.00">lint拡張checker (#4)</text>
</a>
</g>
<text xml:space="preserve" text-anchor="middle" x="819.39" y="-417.2" font-family="Times,serif" font-size="14.00">done</text>
</g>
<!-- implement_lints&#45;&gt;lint_checker -->
<g id="edge21" class="edge">
<title>implement_lints&#45;&gt;lint_checker</title>
<path fill="none" stroke="black" d="M392.65,-534.42C499.05,-517.34 702.29,-484.71 821.4,-465.59"/>
<polygon fill="black" stroke="black" points="821.84,-469.07 831.16,-464.03 820.73,-462.16 821.84,-469.07"/>
</g>
<!-- implement_spec_features -->
<g id="node20" class="node">
<title>implement_spec_features</title>
<ellipse fill="none" stroke="black" cx="1155.86" cy="-401.6" rx="112.47" ry="29.42"/>
<text xml:space="preserve" text-anchor="middle" x="1155.86" y="-405.8" font-family="Times,serif" font-size="14.00">implement_spec_features</text>
<text xml:space="preserve" text-anchor="middle" x="1155.86" y="-389" font-family="Times,serif" font-size="14.00">新仕様実装</text>
</g>
<!-- implement_spec_features&#45;&gt;featured_toolchain -->
<g id="edge24" class="edge">
<title>implement_spec_features&#45;&gt;featured_toolchain</title>
<path fill="none" stroke="black" d="M1268.73,-401.6C1294.15,-401.6 1320.78,-401.6 1344.93,-401.6"/>
<polygon fill="black" stroke="black" points="1344.69,-405.1 1354.69,-401.6 1344.69,-398.1 1344.69,-405.1"/>
</g>
<!-- spec_v008 -->
<g id="node35" class="node">
<title>spec_v008</title>
<g id="a_node35"><a xlink:title="仕様書 v0.0.8（マルチファイル統合）&#10;criteria: check/fmt/graph が全サンプルにエラーなし&#10;location: docs/spec/spec.md">
<polygon fill="#f8f9fa" stroke="black" stroke-width="2" points="1936.69,-261.2 1792.69,-261.2 1792.69,-186 1936.69,-186 1936.69,-261.2"/>
<text xml:space="preserve" text-anchor="middle" x="1864.69" y="-244.6" font-family="Times,serif" font-size="14.00">spec_v008</text>
<text xml:space="preserve" text-anchor="middle" x="1864.69" y="-227.8" font-family="Times,serif" font-size="14.00">仕様書 v0.0</text>
<text xml:space="preserve" text-anchor="middle" x="1864.69" y="-211" font-family="Times,serif" font-size="14.00">8（マルチファイル</text>
<text xml:space="preserve" text-anchor="middle" x="1864.69" y="-194.2" font-family="Times,serif" font-size="14.00">統合）</text>
</a>
</g>
<text xml:space="preserve" text-anchor="middle" x="1780.25" y="-173.4" font-family="Times,serif" font-size="14.00">todo</text>
</g>
<!-- integrate_multifile&#45;&gt;spec_v008 -->
<g id="edge29" class="edge">
<title>integrate_multifile&#45;&gt;spec_v008</title>
<path fill="none" stroke="black" d="M1757.03,-223.6C1764.82,-223.6 1772.71,-223.6 1780.48,-223.6"/>
<polygon fill="black" stroke="black" points="1780.26,-227.1 1790.26,-223.6 1780.26,-220.1 1780.26,-227.1"/>
</g>
<!-- spec_v007 -->
<g id="node34" class="node">
<title>spec_v007</title>
<g id="a_node34"><a xlink:title="仕様書 v0.0.7（統合）&#10;criteria: check/fmt/graph が全サンプルにエラーなし、v0.0.7 全フィールドが spec 本文に統合済み&#10;location: docs/spec/spec.md">
<polygon fill="#fff3cd" stroke="black" points="995,-360.8 836.6,-360.8 836.6,-302.4 995,-302.4 995,-360.8"/>
<text xml:space="preserve" text-anchor="middle" x="915.8" y="-344.2" font-family="Times,serif" font-size="14.00">spec_v007</text>
<text xml:space="preserve" text-anchor="middle" x="915.8" y="-327.4" font-family="Times,serif" font-size="14.00">仕様書 v0.0.7（統合</text>
<text xml:space="preserve" text-anchor="middle" x="915.8" y="-310.6" font-family="Times,serif" font-size="14.00">）</text>
</a>
</g>
<text xml:space="preserve" text-anchor="middle" x="826.1" y="-289.8" font-family="Times,serif" font-size="14.00">wip</text>
</g>
<!-- integrate_spec&#45;&gt;spec_v007 -->
<g id="edge17" class="edge">
<title>integrate_spec&#45;&gt;spec_v007</title>
<path fill="none" stroke="black" d="M797.45,-331.6C806.41,-331.6 815.7,-331.6 824.96,-331.6"/>
<polygon fill="black" stroke="black" points="824.69,-335.1 834.69,-331.6 824.69,-328.1 824.69,-335.1"/>
</g>
<!-- layer_audit_assets&#45;&gt;audit_distribution -->
<g id="edge35" class="edge">
<title>layer_audit_assets&#45;&gt;audit_distribution</title>
<path fill="none" stroke="black" d="M406.38,-800.6C421.88,-800.6 438.11,-800.6 453.7,-800.6"/>
<polygon fill="black" stroke="black" points="453.41,-804.1 463.41,-800.6 453.41,-797.1 453.41,-804.1"/>
</g>
<!-- lint_checker&#45;&gt;implement_spec_features -->
<g id="edge23" class="edge">
<title>lint_checker&#45;&gt;implement_spec_features</title>
<path fill="none" stroke="black" d="M999.06,-433.67C1017.17,-429.94 1036.55,-425.95 1055.26,-422.1"/>
<polygon fill="black" stroke="black" points="1055.93,-425.54 1065.02,-420.09 1054.52,-418.68 1055.93,-425.54"/>
</g>
<!-- location_spec&#45;&gt;integrate_spec -->
<g id="edge15" class="edge">
<title>location_spec&#45;&gt;integrate_spec</title>
<path fill="none" stroke="black" d="M593.52,-245.16C603.69,-251.17 614.24,-257.52 624.03,-263.6 642.98,-275.38 663.57,-288.78 681.36,-300.56"/>
<polygon fill="black" stroke="black" points="679.4,-303.45 689.67,-306.07 683.28,-297.62 679.4,-303.45"/>
</g>
<!-- multifile_policy&#45;&gt;integrate_multifile -->
<g id="edge27" class="edge">
<title>multifile_policy&#45;&gt;integrate_multifile</title>
<path fill="none" stroke="black" d="M1507.83,-171.54C1533.79,-179.84 1563.02,-189.18 1589.46,-197.63"/>
<polygon fill="black" stroke="black" points="1588.19,-200.9 1598.78,-200.61 1590.32,-194.23 1588.19,-200.9"/>
</g>
<!-- published_cli -->
<g id="node28" class="node">
<title>published_cli</title>
<g id="a_node28"><a xlink:href="https://www.npmjs.com/package/@pfdsl/cli" xlink:title="npm公開済みCLI&#10;&#10;現行公開バージョンは npm 一次情報（ここに書かない — ドリフトするため）。詳細は docs/pfdsl_implementation_flow.pfdsl の cli_published 参照&#10;criteria: npm show @pfdsl/cli version が期待バージョンを返す&#10;location: https://www.npmjs.com/package/@pfdsl/cli">
<polygon fill="#d4edda" stroke="black" stroke-width="2" points="602.43,-744.4 480.03,-744.4 480.03,-702.8 602.43,-702.8 602.43,-744.4"/>
<text xml:space="preserve" text-anchor="middle" x="541.23" y="-727.8" font-family="Times,serif" font-size="14.00">published_cli</text>
<text xml:space="preserve" text-anchor="middle" x="541.23" y="-711" font-family="Times,serif" font-size="14.00">npm公開済みCLI</text>
</a>
</g>
<text xml:space="preserve" text-anchor="middle" x="466.43" y="-690.2" font-family="Times,serif" font-size="14.00">done</text>
</g>
<!-- publish_cli&#45;&gt;published_cli -->
<g id="edge33" class="edge">
<title>publish_cli&#45;&gt;published_cli</title>
<path fill="none" stroke="black" d="M377.55,-723.6C404.85,-723.6 438.25,-723.6 467.68,-723.6"/>
<polygon fill="black" stroke="black" points="467.65,-727.1 477.65,-723.6 467.65,-720.1 467.65,-727.1"/>
</g>
<!-- restructure_skillgen -->
<g id="node29" class="node">
<title>restructure_skillgen</title>
<ellipse fill="none" stroke="black" cx="322.02" cy="-877.6" rx="89.93" ry="29.42"/>
<text xml:space="preserve" text-anchor="middle" x="322.02" y="-881.8" font-family="Times,serif" font-size="14.00">restructure_skillgen</text>
<text xml:space="preserve" text-anchor="middle" x="322.02" y="-865" font-family="Times,serif" font-size="14.00">生成系再構成</text>
</g>
<!-- restructured_gen -->
<g id="node30" class="node">
<title>restructured_gen</title>
<g id="a_node30"><a xlink:href="https://github.com/takasek/pfdsl/issues/10" xlink:title="再構成済みスキル生成系 (#10)&#10;criteria: make gen&#45;skill が差分なしで完了し、skill と gh_skill_dist が一致&#10;location: https://github.com/takasek/pfdsl/issues/10">
<polygon fill="#d4edda" stroke="black" stroke-width="2" points="616.83,-906.8 465.63,-906.8 465.63,-848.4 616.83,-848.4 616.83,-906.8"/>
<text xml:space="preserve" text-anchor="middle" x="541.23" y="-890.2" font-family="Times,serif" font-size="14.00">restructured_gen</text>
<text xml:space="preserve" text-anchor="middle" x="541.23" y="-873.4" font-family="Times,serif" font-size="14.00">再構成済みスキル生</text>
<text xml:space="preserve" text-anchor="middle" x="541.23" y="-856.6" font-family="Times,serif" font-size="14.00">成系 (#10)</text>
</a>
</g>
<text xml:space="preserve" text-anchor="middle" x="452.03" y="-835.8" font-family="Times,serif" font-size="14.00">done</text>
</g>
<!-- restructure_skillgen&#45;&gt;restructured_gen -->
<g id="edge31" class="edge">
<title>restructure_skillgen&#45;&gt;restructured_gen</title>
<path fill="none" stroke="black" d="M412.31,-877.6C425.93,-877.6 439.97,-877.6 453.53,-877.6"/>
<polygon fill="black" stroke="black" points="453.28,-881.1 463.28,-877.6 453.28,-874.1 453.28,-881.1"/>
</g>
<!-- revises_spec&#45;&gt;integrate_spec -->
<g id="edge14" class="edge">
<title>revises_spec&#45;&gt;integrate_spec</title>
<path fill="none" stroke="black" d="M599.04,-418.14C607.5,-413.43 616.06,-408.49 624.03,-403.6 644.2,-391.21 665.8,-376.44 684.02,-363.51"/>
<polygon fill="black" stroke="black" points="685.88,-366.48 691.98,-357.82 681.81,-360.79 685.88,-366.48"/>
</g>
<!-- skill_gen -->
<g id="node32" class="node">
<title>skill_gen</title>
<g id="a_node32"><a xlink:title="スキル生成系（現行）&#10;&#10;scripts/gen&#45;skill.mjs と docs/samples 構成&#10;criteria: make gen&#45;skill が差分なしで完了し、skill と gh_skill_dist が一致">
<polygon fill="#d4edda" stroke="black" stroke-width="2" points="182.01,-906.8 30.81,-906.8 30.81,-848.4 182.01,-848.4 182.01,-906.8"/>
<text xml:space="preserve" text-anchor="middle" x="106.41" y="-890.2" font-family="Times,serif" font-size="14.00">skill_gen</text>
<text xml:space="preserve" text-anchor="middle" x="106.41" y="-873.4" font-family="Times,serif" font-size="14.00">スキル生成系（現行</text>
<text xml:space="preserve" text-anchor="middle" x="106.41" y="-856.6" font-family="Times,serif" font-size="14.00">）</text>
</a>
</g>
<text xml:space="preserve" text-anchor="middle" x="17.21" y="-835.8" font-family="Times,serif" font-size="14.00">done</text>
</g>
<!-- skill_gen&#45;&gt;restructure_skillgen -->
<g id="edge30" class="edge">
<title>skill_gen&#45;&gt;restructure_skillgen</title>
<path fill="none" stroke="black" d="M182.72,-877.6C194.99,-877.6 207.86,-877.6 220.61,-877.6"/>
<polygon fill="black" stroke="black" points="220.25,-881.1 230.25,-877.6 220.25,-874.1 220.25,-881.1"/>
</g>
<!-- spec_v006 -->
<g id="node33" class="node">
<title>spec_v006</title>
<g id="a_node33"><a xlink:title="仕様書 v0.0.6&#10;criteria: check/fmt/graph が全サンプルにエラーなし&#10;location: docs/spec/spec.md">
<polygon fill="#d4edda" stroke="black" stroke-width="2" points="164.01,-349.4 48.81,-349.4 48.81,-307.8 164.01,-307.8 164.01,-349.4"/>
<text xml:space="preserve" text-anchor="middle" x="106.41" y="-332.8" font-family="Times,serif" font-size="14.00">spec_v006</text>
<text xml:space="preserve" text-anchor="middle" x="106.41" y="-316" font-family="Times,serif" font-size="14.00">仕様書 v0.0.6</text>
</a>
</g>
<text xml:space="preserve" text-anchor="middle" x="35.21" y="-295.2" font-family="Times,serif" font-size="14.00">done</text>
</g>
<!-- spec_v006&#45;&gt;draft_criteria -->
<g id="edge5" class="edge">
<title>spec_v006&#45;&gt;draft_criteria</title>
<path fill="none" stroke="black" d="M164.94,-318.37C189.7,-313.96 218.98,-308.75 245.46,-304.04"/>
<polygon fill="black" stroke="black" points="245.89,-307.52 255.13,-302.32 244.67,-300.63 245.89,-307.52"/>
</g>
<!-- spec_v006&#45;&gt;draft_location -->
<g id="edge9" class="edge">
<title>spec_v006&#45;&gt;draft_location</title>
<path fill="none" stroke="black" d="M137.83,-306.99C160.5,-291.23 192.45,-269.71 221.61,-252.6 231.09,-247.04 241.23,-241.45 251.29,-236.1"/>
<polygon fill="black" stroke="black" points="252.72,-239.31 259.95,-231.56 249.47,-233.11 252.72,-239.31"/>
</g>
<!-- spec_v006&#45;&gt;draft_multifile_specs -->
<g id="edge1" class="edge">
<title>spec_v006&#45;&gt;draft_multifile_specs</title>
<path fill="none" stroke="black" d="M112.62,-307.09C124.13,-264.62 156.09,-170.4 221.61,-127.6 340.8,-49.74 397.87,-94.6 540.23,-94.6 540.23,-94.6 540.23,-94.6 729.51,-94.6 838.81,-94.6 963.75,-100.94 1049.8,-106.29"/>
<polygon fill="black" stroke="black" points="1049.44,-109.78 1059.64,-106.91 1049.88,-102.79 1049.44,-109.78"/>
</g>
<!-- spec_v006&#45;&gt;draft_revises -->
<g id="edge7" class="edge">
<title>spec_v006&#45;&gt;draft_revises</title>
<path fill="none" stroke="black" d="M137.31,-350.2C159.99,-366.22 192.17,-388.21 221.61,-405.6 231.84,-411.64 242.87,-417.71 253.72,-423.45"/>
<polygon fill="black" stroke="black" points="251.79,-426.39 262.27,-427.92 255.03,-420.19 251.79,-426.39"/>
</g>
<!-- spec_v006&#45;&gt;implement_lints -->
<g id="edge18" class="edge">
<title>spec_v006&#45;&gt;implement_lints</title>
<path fill="none" stroke="black" d="M116.01,-350.34C131.68,-387.34 168.25,-462.82 221.61,-506.6 229.86,-513.36 239.42,-519.06 249.28,-523.82"/>
<polygon fill="black" stroke="black" points="247.69,-526.94 258.25,-527.83 250.55,-520.55 247.69,-526.94"/>
</g>
<!-- spec_v006&#45;&gt;integrate_spec -->
<g id="edge43" class="edge">
<title>spec_v006&#45;&gt;integrate_spec</title>
<path fill="none" stroke="#888888" stroke-dasharray="5,2" d="M113.8,-306.94C126.72,-267.53 160.12,-185.11 221.61,-151.6 299.99,-108.9 333.36,-145.88 422.43,-151.6 512.59,-157.39 547.19,-130.09 624.03,-177.6 666.92,-204.12 696.05,-255.79 712.22,-291.94"/>
<polygon fill="#888888" stroke="#888888" points="708.85,-292.97 716.02,-300.76 715.27,-290.19 708.85,-292.97"/>
</g>
<!-- write_design_notes -->
<g id="node37" class="node">
<title>write_design_notes</title>
<ellipse fill="none" stroke="black" cx="322.02" cy="-367.6" rx="88.3" ry="29.42"/>
<text xml:space="preserve" text-anchor="middle" x="322.02" y="-371.8" font-family="Times,serif" font-size="14.00">write_design_notes</text>
<text xml:space="preserve" text-anchor="middle" x="322.02" y="-355" font-family="Times,serif" font-size="14.00">設計ノート執筆</text>
</g>
<!-- spec_v006&#45;&gt;write_design_notes -->
<g id="edge11" class="edge">
<title>spec_v006&#45;&gt;write_design_notes</title>
<path fill="none" stroke="black" d="M164.94,-339.1C185.86,-342.92 210.01,-347.33 232.97,-351.52"/>
<polygon fill="black" stroke="black" points="232.17,-354.93 242.63,-353.29 233.42,-348.05 232.17,-354.93"/>
</g>
<!-- spec_v007&#45;&gt;draft_external_stakeholders -->
<g id="edge40" class="edge">
<title>spec_v007&#45;&gt;draft_external_stakeholders</title>
<path fill="none" stroke="black" d="M995.41,-324.67C1005.56,-323.77 1016.16,-322.84 1026.85,-321.89"/>
<polygon fill="black" stroke="black" points="1026.86,-325.41 1036.51,-321.04 1026.24,-318.43 1026.86,-325.41"/>
</g>
<!-- spec_v007&#45;&gt;implement_spec_features -->
<g id="edge22" class="edge">
<title>spec_v007&#45;&gt;implement_spec_features</title>
<path fill="none" stroke="black" d="M995.41,-354.71C1019.01,-361.66 1045.03,-369.31 1069.07,-376.38"/>
<polygon fill="black" stroke="black" points="1067.93,-379.69 1078.52,-379.15 1069.91,-372.97 1067.93,-379.69"/>
</g>
<!-- write_article&#45;&gt;i12_article -->
<g id="edge37" class="edge">
<title>write_article&#45;&gt;i12_article</title>
<path fill="none" stroke="black" d="M383.82,-37.6C409.84,-37.6 440.45,-37.6 467.65,-37.6"/>
<polygon fill="black" stroke="black" points="467.56,-41.1 477.56,-37.6 467.56,-34.1 467.56,-41.1"/>
</g>
<!-- write_design_notes&#45;&gt;design_notes -->
<g id="edge12" class="edge">
<title>write_design_notes&#45;&gt;design_notes</title>
<path fill="none" stroke="black" d="M410.74,-366.79C425.05,-366.66 439.86,-366.52 454.13,-366.39"/>
<polygon fill="black" stroke="black" points="453.96,-369.89 463.92,-366.3 453.89,-362.89 453.96,-369.89"/>
</g>
</g>
</svg>
