<?xml version="1.0" encoding="UTF-8" standalone="no"?>
<!DOCTYPE svg PUBLIC "-//W3C//DTD SVG 1.1//EN"
 "http://www.w3.org/Graphics/SVG/1.1/DTD/svg11.dtd">
<!-- Generated by graphviz version 15.0.0 (0)
 -->
<!-- Title: PFDSL Pages: 1 -->
<svg width="1952pt" height="1017pt"
 viewBox="0.00 0.00 1952.00 1017.00" xmlns="http://www.w3.org/2000/svg" xmlns:xlink="http://www.w3.org/1999/xlink">
<g id="graph0" class="graph" transform="scale(1 1) rotate(0) translate(4 1012.82)">
<title>PFDSL</title>
<polygon fill="white" stroke="none" points="-4,4 -4,-1012.82 1948.36,-1012.82 1948.36,4 -4,4"/>
<text xml:space="preserve" text-anchor="middle" x="972.18" y="-992.22" font-family="Times,serif" font-size="14.00">Issue 依存フロー（2026&#45;06）</text>
<!-- adr_corpus -->
<g id="node1" class="node">
<title>adr_corpus</title>
<g id="a_node1"><a xlink:title="ADR 群 (docs/adr)&#10;&#10;方法論の設計決定記録。一覧と本数は docs/adr/README.md が一次情報（ここに数を書かない — ドリフトするため）">
<polygon fill="#d4edda" stroke="black" stroke-width="2" points="178.41,-58.4 34.41,-58.4 34.41,-16.8 178.41,-16.8 178.41,-58.4"/>
<text xml:space="preserve" text-anchor="middle" x="106.41" y="-41.8" font-family="Times,serif" font-size="14.00">adr_corpus</text>
<text xml:space="preserve" text-anchor="middle" x="106.41" y="-25" font-family="Times,serif" font-size="14.00">ADR 群 (docs/adr)</text>
</a>
</g>
<text xml:space="preserve" text-anchor="middle" x="20.81" y="-4.2" font-family="Times,serif" font-size="14.00">done</text>
</g>
<!-- write_article -->
<g id="node38" class="node">
<title>write_article</title>
<ellipse fill="none" stroke="black" cx="325.86" cy="-37.6" rx="61.33" ry="29.42"/>
<text xml:space="preserve" text-anchor="middle" x="325.86" y="-41.8" font-family="Times,serif" font-size="14.00">write_article</text>
<text xml:space="preserve" text-anchor="middle" x="325.86" y="-25" font-family="Times,serif" font-size="14.00">記事執筆</text>
</g>
<!-- adr_corpus&#45;&gt;write_article -->
<g id="edge36" class="edge">
<title>adr_corpus&#45;&gt;write_article</title>
<path fill="none" stroke="black" d="M179.22,-37.6C202.82,-37.6 229.05,-37.6 252.68,-37.6"/>
<polygon fill="black" stroke="black" points="252.53,-41.1 262.53,-37.6 252.53,-34.1 252.53,-41.1"/>
</g>
<!-- audit_distribution -->
<g id="node2" class="node">
<title>audit_distribution</title>
<g id="a_node2"><a xlink:title="L3資産の階層化配布 (#43)&#10;&#10;audit コア + flow&#45;sync action を skill 同梱・配布可能化。scripts/lib/issues&#45;flow&#45;audit.mjs を #37 と共有するため着手順を調整。実配布フローは #11">
<polygon fill="#d4edda" stroke="black" stroke-width="2" points="624.5,-651.8 473.3,-651.8 473.3,-593.4 624.5,-593.4 624.5,-651.8"/>
<text xml:space="preserve" text-anchor="middle" x="548.9" y="-635.2" font-family="Times,serif" font-size="14.00">audit_distribution</text>
<text xml:space="preserve" text-anchor="middle" x="548.9" y="-618.4" font-family="Times,serif" font-size="14.00">L3資産の階層化配布</text>
<text xml:space="preserve" text-anchor="middle" x="548.9" y="-601.6" font-family="Times,serif" font-size="14.00"> (#43)</text>
</a>
</g>
<text xml:space="preserve" text-anchor="middle" x="459.69" y="-580.8" font-family="Times,serif" font-size="14.00">done</text>
</g>
<!-- build_obsidian_plugin -->
<g id="node3" class="node">
<title>build_obsidian_plugin</title>
<g id="a_node3"><a xlink:title="Obsidianプラグイン実装">
<ellipse fill="none" stroke="black" cx="325.86" cy="-788.6" rx="100.41" ry="41.3"/>
<text xml:space="preserve" text-anchor="middle" x="325.86" y="-801.2" font-family="Times,serif" font-size="14.00">build_obsidian_plugin</text>
<text xml:space="preserve" text-anchor="middle" x="325.86" y="-784.4" font-family="Times,serif" font-size="14.00">Obsidianプラグイン</text>
<text xml:space="preserve" text-anchor="middle" x="325.86" y="-767.6" font-family="Times,serif" font-size="14.00">実装</text>
</a>
</g>
</g>
<!-- i3_obsidian_plugin -->
<g id="node16" class="node">
<title>i3_obsidian_plugin</title>
<g id="a_node16"><a xlink:title="Obsidian プラグイン (#3)">
<polygon fill="#f8f9fa" stroke="black" stroke-width="2" points="631.7,-817.8 466.1,-817.8 466.1,-759.4 631.7,-759.4 631.7,-817.8"/>
<text xml:space="preserve" text-anchor="middle" x="548.9" y="-801.2" font-family="Times,serif" font-size="14.00">i3_obsidian_plugin</text>
<text xml:space="preserve" text-anchor="middle" x="548.9" y="-784.4" font-family="Times,serif" font-size="14.00">Obsidian プラグイン </text>
<text xml:space="preserve" text-anchor="middle" x="548.9" y="-767.6" font-family="Times,serif" font-size="14.00">(#3)</text>
</a>
</g>
<text xml:space="preserve" text-anchor="middle" x="453.65" y="-746.8" font-family="Times,serif" font-size="14.00">todo</text>
</g>
<!-- build_obsidian_plugin&#45;&gt;i3_obsidian_plugin -->
<g id="edge39" class="edge">
<title>build_obsidian_plugin&#45;&gt;i3_obsidian_plugin</title>
<path fill="none" stroke="black" d="M426.71,-788.6C435.8,-788.6 444.98,-788.6 454.02,-788.6"/>
<polygon fill="black" stroke="black" points="453.85,-792.1 463.85,-788.6 453.85,-785.1 453.85,-792.1"/>
</g>
<!-- cli_tool -->
<g id="node4" class="node">
<title>cli_tool</title>
<polygon fill="#d4edda" stroke="black" stroke-width="2" points="174.81,-720.4 38.01,-720.4 38.01,-678.8 174.81,-678.8 174.81,-720.4"/>
<text xml:space="preserve" text-anchor="middle" x="106.41" y="-703.8" font-family="Times,serif" font-size="14.00">cli_tool</text>
<text xml:space="preserve" text-anchor="middle" x="106.41" y="-687" font-family="Times,serif" font-size="14.00">CLI 実装（現行）</text>
<text xml:space="preserve" text-anchor="middle" x="24.41" y="-666.2" font-family="Times,serif" font-size="14.00">done</text>
</g>
<!-- cli_tool&#45;&gt;build_obsidian_plugin -->
<g id="edge38" class="edge">
<title>cli_tool&#45;&gt;build_obsidian_plugin</title>
<path fill="none" stroke="black" d="M160.61,-721.37C185.47,-731.55 215.62,-743.89 243.28,-755.21"/>
<polygon fill="black" stroke="black" points="241.76,-758.37 252.34,-758.92 244.41,-751.89 241.76,-758.37"/>
</g>
<!-- implement_lints -->
<g id="node20" class="node">
<title>implement_lints</title>
<ellipse fill="none" stroke="black" cx="325.86" cy="-545.6" rx="75.66" ry="29.42"/>
<text xml:space="preserve" text-anchor="middle" x="325.86" y="-549.8" font-family="Times,serif" font-size="14.00">implement_lints</text>
<text xml:space="preserve" text-anchor="middle" x="325.86" y="-533" font-family="Times,serif" font-size="14.00">lint実装</text>
</g>
<!-- cli_tool&#45;&gt;implement_lints -->
<g id="edge20" class="edge">
<title>cli_tool&#45;&gt;implement_lints</title>
<path fill="none" stroke="black" d="M123.83,-678.19C144.28,-652.79 181.47,-610.61 221.61,-584.6 231.71,-578.06 243.06,-572.38 254.45,-567.53"/>
<polygon fill="black" stroke="black" points="255.52,-570.88 263.48,-563.88 252.89,-564.39 255.52,-570.88"/>
</g>
<!-- implement_orphan_lint -->
<g id="node21" class="node">
<title>implement_orphan_lint</title>
<ellipse fill="none" stroke="black" cx="325.86" cy="-699.6" rx="104.24" ry="29.42"/>
<text xml:space="preserve" text-anchor="middle" x="325.86" y="-703.8" font-family="Times,serif" font-size="14.00">implement_orphan_lint</text>
<text xml:space="preserve" text-anchor="middle" x="325.86" y="-687" font-family="Times,serif" font-size="14.00">孤児検出lint実装</text>
</g>
<!-- cli_tool&#45;&gt;implement_orphan_lint -->
<g id="edge40" class="edge">
<title>cli_tool&#45;&gt;implement_orphan_lint</title>
<path fill="none" stroke="black" d="M175.62,-699.6C186.66,-699.6 198.35,-699.6 210.14,-699.6"/>
<polygon fill="black" stroke="black" points="209.94,-703.1 219.94,-699.6 209.94,-696.1 209.94,-703.1"/>
</g>
<!-- layer_audit_assets -->
<g id="node25" class="node">
<title>layer_audit_assets</title>
<ellipse fill="none" stroke="black" cx="325.86" cy="-622.6" rx="83.89" ry="29.42"/>
<text xml:space="preserve" text-anchor="middle" x="325.86" y="-626.8" font-family="Times,serif" font-size="14.00">layer_audit_assets</text>
<text xml:space="preserve" text-anchor="middle" x="325.86" y="-610" font-family="Times,serif" font-size="14.00">L3資産階層化</text>
</g>
<!-- cli_tool&#45;&gt;layer_audit_assets -->
<g id="edge34" class="edge">
<title>cli_tool&#45;&gt;layer_audit_assets</title>
<path fill="none" stroke="black" d="M168.85,-677.84C195.68,-668.34 227.28,-657.15 255,-647.34"/>
<polygon fill="black" stroke="black" points="256.13,-650.65 264.39,-644.01 253.8,-644.05 256.13,-650.65"/>
</g>
<!-- publish_cli -->
<g id="node29" class="node">
<title>publish_cli</title>
<ellipse fill="none" stroke="black" cx="325.86" cy="-877.6" rx="55.31" ry="29.42"/>
<text xml:space="preserve" text-anchor="middle" x="325.86" y="-881.8" font-family="Times,serif" font-size="14.00">publish_cli</text>
<text xml:space="preserve" text-anchor="middle" x="325.86" y="-865" font-family="Times,serif" font-size="14.00">CLI公開</text>
</g>
<!-- cli_tool&#45;&gt;publish_cli -->
<g id="edge32" class="edge">
<title>cli_tool&#45;&gt;publish_cli</title>
<path fill="none" stroke="black" d="M120.02,-721.17C138.66,-751.35 176.31,-806.11 221.61,-838.6 234.52,-847.85 249.89,-855.2 264.78,-860.91"/>
<polygon fill="black" stroke="black" points="263.47,-864.16 274.07,-864.27 265.85,-857.58 263.47,-864.16"/>
</g>
<!-- criteria_spec -->
<g id="node5" class="node">
<title>criteria_spec</title>
<polygon fill="#d4edda" stroke="black" points="628.1,-476.4 469.7,-476.4 469.7,-434.8 628.1,-434.8 628.1,-476.4"/>
<text xml:space="preserve" text-anchor="middle" x="548.9" y="-459.8" font-family="Times,serif" font-size="14.00">criteria_spec</text>
<text xml:space="preserve" text-anchor="middle" x="548.9" y="-443" font-family="Times,serif" font-size="14.00">合否基準仕様案 (#7)</text>
<text xml:space="preserve" text-anchor="middle" x="456.09" y="-422.2" font-family="Times,serif" font-size="14.00">done</text>
</g>
<!-- integrate_spec -->
<g id="node24" class="node">
<title>integrate_spec</title>
<ellipse fill="none" stroke="black" cx="736.18" cy="-339.6" rx="68.48" ry="29.42"/>
<text xml:space="preserve" text-anchor="middle" x="736.18" y="-343.8" font-family="Times,serif" font-size="14.00">integrate_spec</text>
<text xml:space="preserve" text-anchor="middle" x="736.18" y="-327" font-family="Times,serif" font-size="14.00">仕様統合</text>
</g>
<!-- criteria_spec&#45;&gt;integrate_spec -->
<g id="edge13" class="edge">
<title>criteria_spec&#45;&gt;integrate_spec</title>
<path fill="none" stroke="black" d="M596.95,-434.37C608.53,-428.67 620.74,-422.23 631.7,-415.6 653.07,-402.67 675.56,-386.49 694.1,-372.4"/>
<polygon fill="black" stroke="black" points="696.13,-375.24 701.93,-366.37 691.87,-369.69 696.13,-375.24"/>
</g>
<!-- design_notes -->
<g id="node6" class="node">
<title>design_notes</title>
<g id="a_node6"><a xlink:title="設計判断ノート・分岐なし方針 (#9)">
<polygon fill="#d4edda" stroke="black" points="624.5,-240.8 473.3,-240.8 473.3,-182.4 624.5,-182.4 624.5,-240.8"/>
<text xml:space="preserve" text-anchor="middle" x="548.9" y="-224.2" font-family="Times,serif" font-size="14.00">design_notes</text>
<text xml:space="preserve" text-anchor="middle" x="548.9" y="-207.4" font-family="Times,serif" font-size="14.00">設計判断ノート・分</text>
<text xml:space="preserve" text-anchor="middle" x="548.9" y="-190.6" font-family="Times,serif" font-size="14.00">岐なし方針 (#9)</text>
</a>
</g>
<text xml:space="preserve" text-anchor="middle" x="459.69" y="-169.8" font-family="Times,serif" font-size="14.00">done</text>
</g>
<!-- design_notes&#45;&gt;integrate_spec -->
<g id="edge16" class="edge">
<title>design_notes&#45;&gt;integrate_spec</title>
<path fill="none" stroke="black" d="M603.81,-241.12C613.25,-246.69 622.87,-252.65 631.7,-258.6 653.33,-273.17 676.27,-290.88 695.04,-306.01"/>
<polygon fill="black" stroke="black" points="692.76,-308.67 702.72,-312.26 697.17,-303.23 692.76,-308.67"/>
</g>
<!-- draft_criteria -->
<g id="node7" class="node">
<title>draft_criteria</title>
<ellipse fill="none" stroke="black" cx="325.86" cy="-468.6" rx="70.71" ry="29.42"/>
<text xml:space="preserve" text-anchor="middle" x="325.86" y="-472.8" font-family="Times,serif" font-size="14.00">draft_criteria</text>
<text xml:space="preserve" text-anchor="middle" x="325.86" y="-456" font-family="Times,serif" font-size="14.00">合否基準仕様起草</text>
</g>
<!-- draft_criteria&#45;&gt;criteria_spec -->
<g id="edge6" class="edge">
<title>draft_criteria&#45;&gt;criteria_spec</title>
<path fill="none" stroke="black" d="M396.19,-464.52C415.85,-463.37 437.53,-462.09 458.21,-460.88"/>
<polygon fill="black" stroke="black" points="458.28,-464.38 468.06,-460.3 457.87,-457.39 458.28,-464.38"/>
</g>
<!-- draft_external_stakeholders -->
<g id="node8" class="node">
<title>draft_external_stakeholders</title>
<g id="a_node8"><a xlink:title="externalStakeholders仕様起草&#10;&#10;artifact / process の externalStakeholders フィールドを spec に定義する。型・終端監査との連携（#37）・サンプル反映を含む">
<ellipse fill="none" stroke="black" cx="1163.53" cy="-315.6" rx="121.26" ry="41.3"/>
<text xml:space="preserve" text-anchor="middle" x="1163.53" y="-328.2" font-family="Times,serif" font-size="14.00">draft_external_stakeholders</text>
<text xml:space="preserve" text-anchor="middle" x="1163.53" y="-311.4" font-family="Times,serif" font-size="14.00">externalStakeholders</text>
<text xml:space="preserve" text-anchor="middle" x="1163.53" y="-294.6" font-family="Times,serif" font-size="14.00">仕様起草</text>
</a>
</g>
</g>
<!-- i97_external_stakeholders_spec -->
<g id="node19" class="node">
<title>i97_external_stakeholders_spec</title>
<g id="a_node19"><a xlink:title="externalStakeholders フィールド仕様案 (#97)&#10;&#10;artifact / process に外部消費者を列挙するフィールド。owner と対称。終端監査（#37）で消費者として扱う。ecosystem 廃止（ADR&#45;0017）の代替手段">
<polygon fill="#f8f9fa" stroke="black" points="1558.39,-351.2 1320.79,-351.2 1320.79,-276 1558.39,-276 1558.39,-351.2"/>
<text xml:space="preserve" text-anchor="middle" x="1439.59" y="-334.6" font-family="Times,serif" font-size="14.00">i97_external_stakeholders_spec</text>
<text xml:space="preserve" text-anchor="middle" x="1439.59" y="-317.8" font-family="Times,serif" font-size="14.00">externalStakeholders</text>
<text xml:space="preserve" text-anchor="middle" x="1439.59" y="-301" font-family="Times,serif" font-size="14.00">フィールド仕様案 </text>
<text xml:space="preserve" text-anchor="middle" x="1439.59" y="-284.2" font-family="Times,serif" font-size="14.00">#97)</text>
</a>
</g>
<text xml:space="preserve" text-anchor="middle" x="1308.34" y="-263.4" font-family="Times,serif" font-size="14.00">todo</text>
</g>
<!-- draft_external_stakeholders&#45;&gt;i97_external_stakeholders_spec -->
<g id="edge43" class="edge">
<title>draft_external_stakeholders&#45;&gt;i97_external_stakeholders_spec</title>
<path fill="none" stroke="black" d="M1285.13,-314.72C1293.14,-314.66 1301.22,-314.6 1309.26,-314.54"/>
<polygon fill="black" stroke="black" points="1309.11,-318.05 1319.08,-314.47 1309.06,-311.05 1309.11,-318.05"/>
</g>
<!-- draft_location -->
<g id="node9" class="node">
<title>draft_location</title>
<g id="a_node9"><a xlink:title="location/command 起草">
<ellipse fill="none" stroke="black" cx="325.86" cy="-379.6" rx="84.99" ry="41.3"/>
<text xml:space="preserve" text-anchor="middle" x="325.86" y="-392.2" font-family="Times,serif" font-size="14.00">draft_location</text>
<text xml:space="preserve" text-anchor="middle" x="325.86" y="-375.4" font-family="Times,serif" font-size="14.00">location/command</text>
<text xml:space="preserve" text-anchor="middle" x="325.86" y="-358.6" font-family="Times,serif" font-size="14.00">起草</text>
</a>
</g>
</g>
<!-- location_spec -->
<g id="node27" class="node">
<title>location_spec</title>
<g id="a_node27"><a xlink:title="location/command 仕様案 (#13)&#10;&#10;ノードと実ファイル・実行手順を結ぶメタデータ。パス解決規則のみ multifile 方針と接点">
<polygon fill="#d4edda" stroke="black" points="617.3,-406.8 480.5,-406.8 480.5,-348.4 617.3,-348.4 617.3,-406.8"/>
<text xml:space="preserve" text-anchor="middle" x="548.9" y="-390.2" font-family="Times,serif" font-size="14.00">location_spec</text>
<text xml:space="preserve" text-anchor="middle" x="548.9" y="-373.4" font-family="Times,serif" font-size="14.00">location/command</text>
<text xml:space="preserve" text-anchor="middle" x="548.9" y="-356.6" font-family="Times,serif" font-size="14.00">仕様案 (#13)</text>
</a>
</g>
<text xml:space="preserve" text-anchor="middle" x="466.89" y="-335.8" font-family="Times,serif" font-size="14.00">done</text>
</g>
<!-- draft_location&#45;&gt;location_spec -->
<g id="edge10" class="edge">
<title>draft_location&#45;&gt;location_spec</title>
<path fill="none" stroke="black" d="M411.05,-378.84C429.95,-378.67 449.93,-378.49 468.62,-378.32"/>
<polygon fill="black" stroke="black" points="468.58,-381.82 478.55,-378.23 468.52,-374.82 468.58,-381.82"/>
</g>
<!-- draft_multifile_specs -->
<g id="node10" class="node">
<title>draft_multifile_specs</title>
<g id="a_node10"><a xlink:title="階層・プリセット共同起草&#10;&#10;#5 と #6 は決定が往復で形成される相互依存のため分割せず共同設計する。共有決定は方針記録として外化">
<ellipse fill="none" stroke="black" cx="1163.53" cy="-118.6" rx="95.44" ry="41.3"/>
<text xml:space="preserve" text-anchor="middle" x="1163.53" y="-131.2" font-family="Times,serif" font-size="14.00">draft_multifile_specs</text>
<text xml:space="preserve" text-anchor="middle" x="1163.53" y="-114.4" font-family="Times,serif" font-size="14.00">階層・プリセット共</text>
<text xml:space="preserve" text-anchor="middle" x="1163.53" y="-97.6" font-family="Times,serif" font-size="14.00">同起草</text>
</a>
</g>
</g>
<!-- i5_hierarchy_spec -->
<g id="node17" class="node">
<title>i5_hierarchy_spec</title>
<polygon fill="#f8f9fa" stroke="black" points="1515.19,-105.4 1363.99,-105.4 1363.99,-63.8 1515.19,-63.8 1515.19,-105.4"/>
<text xml:space="preserve" text-anchor="middle" x="1439.59" y="-88.8" font-family="Times,serif" font-size="14.00">i5_hierarchy_spec</text>
<text xml:space="preserve" text-anchor="middle" x="1439.59" y="-72" font-family="Times,serif" font-size="14.00">階層PFD仕様案 (#5)</text>
<text xml:space="preserve" text-anchor="middle" x="1351.54" y="-51.2" font-family="Times,serif" font-size="14.00">todo</text>
</g>
<!-- draft_multifile_specs&#45;&gt;i5_hierarchy_spec -->
<g id="edge2" class="edge">
<title>draft_multifile_specs&#45;&gt;i5_hierarchy_spec</title>
<path fill="none" stroke="black" d="M1255.78,-107.28C1286.99,-103.41 1321.77,-99.09 1352.55,-95.27"/>
<polygon fill="black" stroke="black" points="1352.69,-98.78 1362.19,-94.08 1351.83,-91.84 1352.69,-98.78"/>
</g>
<!-- i6_presets_spec -->
<g id="node18" class="node">
<title>i6_presets_spec</title>
<g id="a_node18"><a xlink:title="共有プリセット仕様案 (#6)">
<polygon fill="#f8f9fa" stroke="black" points="1515.19,-257.8 1363.99,-257.8 1363.99,-199.4 1515.19,-199.4 1515.19,-257.8"/>
<text xml:space="preserve" text-anchor="middle" x="1439.59" y="-241.2" font-family="Times,serif" font-size="14.00">i6_presets_spec</text>
<text xml:space="preserve" text-anchor="middle" x="1439.59" y="-224.4" font-family="Times,serif" font-size="14.00">共有プリセット仕様</text>
<text xml:space="preserve" text-anchor="middle" x="1439.59" y="-207.6" font-family="Times,serif" font-size="14.00">案 (#6)</text>
</a>
</g>
<text xml:space="preserve" text-anchor="middle" x="1351.54" y="-186.8" font-family="Times,serif" font-size="14.00">todo</text>
</g>
<!-- draft_multifile_specs&#45;&gt;i6_presets_spec -->
<g id="edge3" class="edge">
<title>draft_multifile_specs&#45;&gt;i6_presets_spec</title>
<path fill="none" stroke="black" d="M1227.27,-149.6C1255.51,-163.01 1289.48,-178.39 1320.79,-190.6 1331.07,-194.61 1341.97,-198.54 1352.83,-202.27"/>
<polygon fill="black" stroke="black" points="1351.62,-205.55 1362.21,-205.43 1353.85,-198.92 1351.62,-205.55"/>
</g>
<!-- multifile_policy -->
<g id="node28" class="node">
<title>multifile_policy</title>
<g id="a_node28"><a xlink:title="マルチファイル意味論方針&#10;&#10;共同起草で確定した ID スコープ・継承解決順・ファイル間参照の決定記録。ファイル横断機能（#8 実装等）と仕様統合の前提資料">
<polygon fill="#f8f9fa" stroke="black" points="1515.19,-181.8 1363.99,-181.8 1363.99,-123.4 1515.19,-123.4 1515.19,-181.8"/>
<text xml:space="preserve" text-anchor="middle" x="1439.59" y="-165.2" font-family="Times,serif" font-size="14.00">multifile_policy</text>
<text xml:space="preserve" text-anchor="middle" x="1439.59" y="-148.4" font-family="Times,serif" font-size="14.00">マルチファイル意味</text>
<text xml:space="preserve" text-anchor="middle" x="1439.59" y="-131.6" font-family="Times,serif" font-size="14.00">論方針</text>
</a>
</g>
<text xml:space="preserve" text-anchor="middle" x="1351.54" y="-110.8" font-family="Times,serif" font-size="14.00">todo</text>
</g>
<!-- draft_multifile_specs&#45;&gt;multifile_policy -->
<g id="edge4" class="edge">
<title>draft_multifile_specs&#45;&gt;multifile_policy</title>
<path fill="none" stroke="black" d="M1255.78,-129.92C1286.99,-133.79 1321.77,-138.11 1352.55,-141.93"/>
<polygon fill="black" stroke="black" points="1351.83,-145.36 1362.19,-143.12 1352.69,-138.42 1351.83,-145.36"/>
</g>
<!-- draft_revises -->
<g id="node11" class="node">
<title>draft_revises</title>
<g id="a_node11"><a xlink:title="改版チェーン仕様起草">
<ellipse fill="none" stroke="black" cx="325.86" cy="-278.6" rx="78.14" ry="41.3"/>
<text xml:space="preserve" text-anchor="middle" x="325.86" y="-291.2" font-family="Times,serif" font-size="14.00">draft_revises</text>
<text xml:space="preserve" text-anchor="middle" x="325.86" y="-274.4" font-family="Times,serif" font-size="14.00">改版チェーン仕様起</text>
<text xml:space="preserve" text-anchor="middle" x="325.86" y="-257.6" font-family="Times,serif" font-size="14.00">草</text>
</a>
</g>
</g>
<!-- revises_spec -->
<g id="node33" class="node">
<title>revises_spec</title>
<g id="a_node33"><a xlink:title="改版チェーン仕様案 (#8)">
<polygon fill="#d4edda" stroke="black" points="628.1,-325.8 469.7,-325.8 469.7,-267.4 628.1,-267.4 628.1,-325.8"/>
<text xml:space="preserve" text-anchor="middle" x="548.9" y="-309.2" font-family="Times,serif" font-size="14.00">revises_spec</text>
<text xml:space="preserve" text-anchor="middle" x="548.9" y="-292.4" font-family="Times,serif" font-size="14.00">改版チェーン仕様案 </text>
<text xml:space="preserve" text-anchor="middle" x="548.9" y="-275.6" font-family="Times,serif" font-size="14.00">(#8)</text>
</a>
</g>
<text xml:space="preserve" text-anchor="middle" x="456.09" y="-254.8" font-family="Times,serif" font-size="14.00">done</text>
</g>
<!-- draft_revises&#45;&gt;revises_spec -->
<g id="edge8" class="edge">
<title>draft_revises&#45;&gt;revises_spec</title>
<path fill="none" stroke="black" d="M403.55,-284.85C421.12,-286.28 439.96,-287.81 458.03,-289.28"/>
<polygon fill="black" stroke="black" points="457.71,-292.77 467.96,-290.09 458.28,-285.79 457.71,-292.77"/>
</g>
<!-- featured_toolchain -->
<g id="node12" class="node">
<title>featured_toolchain</title>
<g id="a_node12"><a xlink:title="spec v0.0.7 実装済みツールチェーン (#52)">
<polygon fill="#d4edda" stroke="black" points="1515.19,-444.2 1363.99,-444.2 1363.99,-369 1515.19,-369 1515.19,-444.2"/>
<text xml:space="preserve" text-anchor="middle" x="1439.59" y="-427.6" font-family="Times,serif" font-size="14.00">featured_toolchain</text>
<text xml:space="preserve" text-anchor="middle" x="1439.59" y="-410.8" font-family="Times,serif" font-size="14.00">spec v0.0.7</text>
<text xml:space="preserve" text-anchor="middle" x="1439.59" y="-394" font-family="Times,serif" font-size="14.00">実装済みツールチェ</text>
<text xml:space="preserve" text-anchor="middle" x="1439.59" y="-377.2" font-family="Times,serif" font-size="14.00">ーン (#52)</text>
</a>
</g>
<text xml:space="preserve" text-anchor="middle" x="1350.38" y="-356.4" font-family="Times,serif" font-size="14.00">done</text>
</g>
<!-- integrate_multifile -->
<g id="node23" class="node">
<title>integrate_multifile</title>
<g id="a_node23"><a xlink:title="マルチファイル仕様統合">
<ellipse fill="none" stroke="black" cx="1679.37" cy="-228.6" rx="84.98" ry="41.3"/>
<text xml:space="preserve" text-anchor="middle" x="1679.37" y="-241.2" font-family="Times,serif" font-size="14.00">integrate_multifile</text>
<text xml:space="preserve" text-anchor="middle" x="1679.37" y="-224.4" font-family="Times,serif" font-size="14.00">マルチファイル仕様</text>
<text xml:space="preserve" text-anchor="middle" x="1679.37" y="-207.6" font-family="Times,serif" font-size="14.00">統合</text>
</a>
</g>
</g>
<!-- featured_toolchain&#45;&gt;integrate_multifile -->
<g id="edge28" class="edge">
<title>featured_toolchain&#45;&gt;integrate_multifile</title>
<path fill="none" stroke="black" d="M1515.49,-383.36C1530.35,-377.12 1545.36,-369.56 1558.39,-360.6 1591.54,-337.79 1621.95,-304.13 1643.86,-276.51"/>
<polygon fill="black" stroke="black" points="1646.35,-279.01 1649.74,-268.97 1640.83,-274.7 1646.35,-279.01"/>
</g>
<!-- findings_r12 -->
<g id="node13" class="node">
<title>findings_r12</title>
<g id="a_node13"><a xlink:title="実践ラウンド1/2レビュー知見&#10;&#10;docs/examples の執筆・レビューで得た品質知見">
<polygon fill="#d4edda" stroke="black" stroke-width="2" points="185.61,-574.8 27.21,-574.8 27.21,-516.4 185.61,-516.4 185.61,-574.8"/>
<text xml:space="preserve" text-anchor="middle" x="106.41" y="-558.2" font-family="Times,serif" font-size="14.00">findings_r12</text>
<text xml:space="preserve" text-anchor="middle" x="106.41" y="-541.4" font-family="Times,serif" font-size="14.00">実践ラウンド1/2レビ</text>
<text xml:space="preserve" text-anchor="middle" x="106.41" y="-524.6" font-family="Times,serif" font-size="14.00">ュー知見</text>
</a>
</g>
<text xml:space="preserve" text-anchor="middle" x="13.61" y="-503.8" font-family="Times,serif" font-size="14.00">done</text>
</g>
<!-- findings_r12&#45;&gt;implement_lints -->
<g id="edge19" class="edge">
<title>findings_r12&#45;&gt;implement_lints</title>
<path fill="none" stroke="black" d="M186.53,-545.6C203.46,-545.6 221.44,-545.6 238.62,-545.6"/>
<polygon fill="black" stroke="black" points="238.27,-549.1 248.27,-545.6 238.27,-542.1 238.27,-549.1"/>
</g>
<!-- i12_article -->
<g id="node14" class="node">
<title>i12_article</title>
<g id="a_node14"><a xlink:title="公開記事 (#12)&#10;&#10;ADR 群を素材とした外部公開記事。依存なしで着手可能、spec v0.0.7 確定後はより充実">
<polygon fill="#f8f9fa" stroke="black" stroke-width="2" points="610.1,-58.4 487.7,-58.4 487.7,-16.8 610.1,-16.8 610.1,-58.4"/>
<text xml:space="preserve" text-anchor="middle" x="548.9" y="-41.8" font-family="Times,serif" font-size="14.00">i12_article</text>
<text xml:space="preserve" text-anchor="middle" x="548.9" y="-25" font-family="Times,serif" font-size="14.00">公開記事 (#12)</text>
</a>
</g>
<text xml:space="preserve" text-anchor="middle" x="475.25" y="-4.2" font-family="Times,serif" font-size="14.00">todo</text>
</g>
<!-- i37_orphan_lint -->
<g id="node15" class="node">
<title>i37_orphan_lint</title>
<g id="a_node15"><a xlink:title="孤児process検出lint (#37)&#10;&#10;check/audit が出力なき process・孤立ノードを検出する。終端監査の機械化（学習ループの lint 要件経路、dogfood #16 由来）">
<polygon fill="#f8f9fa" stroke="black" stroke-width="2" points="631.7,-728.8 466.1,-728.8 466.1,-670.4 631.7,-670.4 631.7,-728.8"/>
<text xml:space="preserve" text-anchor="middle" x="548.9" y="-712.2" font-family="Times,serif" font-size="14.00">i37_orphan_lint</text>
<text xml:space="preserve" text-anchor="middle" x="548.9" y="-695.4" font-family="Times,serif" font-size="14.00">孤児process検出lint </text>
<text xml:space="preserve" text-anchor="middle" x="548.9" y="-678.6" font-family="Times,serif" font-size="14.00">#37)</text>
</a>
</g>
<text xml:space="preserve" text-anchor="middle" x="453.65" y="-657.8" font-family="Times,serif" font-size="14.00">todo</text>
</g>
<!-- i5_hierarchy_spec&#45;&gt;integrate_multifile -->
<g id="edge25" class="edge">
<title>i5_hierarchy_spec&#45;&gt;integrate_multifile</title>
<path fill="none" stroke="black" d="M1515.68,-97.61C1530.37,-101.82 1545.27,-107.36 1558.39,-114.6 1589.08,-131.55 1617.77,-158.24 1639.4,-181.53"/>
<polygon fill="black" stroke="black" points="1636.7,-183.77 1646.02,-188.82 1641.88,-179.06 1636.7,-183.77"/>
</g>
<!-- i6_presets_spec&#45;&gt;integrate_multifile -->
<g id="edge26" class="edge">
<title>i6_presets_spec&#45;&gt;integrate_multifile</title>
<path fill="none" stroke="black" d="M1515.5,-228.6C1536.81,-228.6 1560.31,-228.6 1582.68,-228.6"/>
<polygon fill="black" stroke="black" points="1582.39,-232.1 1592.39,-228.6 1582.39,-225.1 1582.39,-232.1"/>
</g>
<!-- i97_external_stakeholders_spec&#45;&gt;integrate_multifile -->
<g id="edge44" class="edge">
<title>i97_external_stakeholders_spec&#45;&gt;integrate_multifile</title>
<path fill="none" stroke="black" d="M1546.96,-275.58C1564.78,-269.21 1582.98,-262.7 1599.93,-256.64"/>
<polygon fill="black" stroke="black" points="1600.64,-260.1 1608.88,-253.44 1598.29,-253.51 1600.64,-260.1"/>
</g>
<!-- lint_checker -->
<g id="node26" class="node">
<title>lint_checker</title>
<g id="a_node26"><a xlink:title="lint拡張checker (#4)&#10;&#10;lint 候補の完全リストは issue #4 が一次情報（本文+コメント）。ここに列挙しない — 列挙は同期漏れで腐るため">
<polygon fill="#d4edda" stroke="black" points="1006.26,-472.4 840.66,-472.4 840.66,-430.8 1006.26,-430.8 1006.26,-472.4"/>
<text xml:space="preserve" text-anchor="middle" x="923.46" y="-455.8" font-family="Times,serif" font-size="14.00">lint_checker</text>
<text xml:space="preserve" text-anchor="middle" x="923.46" y="-439" font-family="Times,serif" font-size="14.00">lint拡張checker (#4)</text>
</a>
</g>
<text xml:space="preserve" text-anchor="middle" x="827.06" y="-418.2" font-family="Times,serif" font-size="14.00">done</text>
</g>
<!-- implement_lints&#45;&gt;lint_checker -->
<g id="edge21" class="edge">
<title>implement_lints&#45;&gt;lint_checker</title>
<path fill="none" stroke="black" d="M396.64,-534.59C503.77,-517.68 708.92,-485.3 828.85,-466.37"/>
<polygon fill="black" stroke="black" points="829.36,-469.84 838.69,-464.82 828.27,-462.92 829.36,-469.84"/>
</g>
<!-- implement_orphan_lint&#45;&gt;i37_orphan_lint -->
<g id="edge41" class="edge">
<title>implement_orphan_lint&#45;&gt;i37_orphan_lint</title>
<path fill="none" stroke="black" d="M430.58,-699.6C438.42,-699.6 446.3,-699.6 454.07,-699.6"/>
<polygon fill="black" stroke="black" points="453.85,-703.1 463.85,-699.6 453.85,-696.1 453.85,-703.1"/>
</g>
<!-- implement_spec_features -->
<g id="node22" class="node">
<title>implement_spec_features</title>
<ellipse fill="none" stroke="black" cx="1163.53" cy="-406.6" rx="112.47" ry="29.42"/>
<text xml:space="preserve" text-anchor="middle" x="1163.53" y="-410.8" font-family="Times,serif" font-size="14.00">implement_spec_features</text>
<text xml:space="preserve" text-anchor="middle" x="1163.53" y="-394" font-family="Times,serif" font-size="14.00">新仕様実装</text>
</g>
<!-- implement_spec_features&#45;&gt;featured_toolchain -->
<g id="edge24" class="edge">
<title>implement_spec_features&#45;&gt;featured_toolchain</title>
<path fill="none" stroke="black" d="M1276.39,-406.6C1301.82,-406.6 1328.44,-406.6 1352.6,-406.6"/>
<polygon fill="black" stroke="black" points="1352.36,-410.1 1362.36,-406.6 1352.36,-403.1 1352.36,-410.1"/>
</g>
<!-- spec_v008 -->
<g id="node37" class="node">
<title>spec_v008</title>
<g id="a_node37"><a xlink:title="仕様書 v0.0.8（マルチファイル統合）">
<polygon fill="#f8f9fa" stroke="black" stroke-width="2" points="1944.36,-266.2 1800.36,-266.2 1800.36,-191 1944.36,-191 1944.36,-266.2"/>
<text xml:space="preserve" text-anchor="middle" x="1872.36" y="-249.6" font-family="Times,serif" font-size="14.00">spec_v008</text>
<text xml:space="preserve" text-anchor="middle" x="1872.36" y="-232.8" font-family="Times,serif" font-size="14.00">仕様書 v0.0</text>
<text xml:space="preserve" text-anchor="middle" x="1872.36" y="-216" font-family="Times,serif" font-size="14.00">8（マルチファイル</text>
<text xml:space="preserve" text-anchor="middle" x="1872.36" y="-199.2" font-family="Times,serif" font-size="14.00">統合）</text>
</a>
</g>
<text xml:space="preserve" text-anchor="middle" x="1787.91" y="-178.4" font-family="Times,serif" font-size="14.00">todo</text>
</g>
<!-- integrate_multifile&#45;&gt;spec_v008 -->
<g id="edge29" class="edge">
<title>integrate_multifile&#45;&gt;spec_v008</title>
<path fill="none" stroke="black" d="M1764.7,-228.6C1772.48,-228.6 1780.37,-228.6 1788.15,-228.6"/>
<polygon fill="black" stroke="black" points="1787.93,-232.1 1797.93,-228.6 1787.93,-225.1 1787.93,-232.1"/>
</g>
<!-- spec_v007 -->
<g id="node36" class="node">
<title>spec_v007</title>
<g id="a_node36"><a xlink:title="仕様書 v0.0.7（統合）">
<polygon fill="#fff3cd" stroke="black" points="1002.66,-368.8 844.26,-368.8 844.26,-310.4 1002.66,-310.4 1002.66,-368.8"/>
<text xml:space="preserve" text-anchor="middle" x="923.46" y="-352.2" font-family="Times,serif" font-size="14.00">spec_v007</text>
<text xml:space="preserve" text-anchor="middle" x="923.46" y="-335.4" font-family="Times,serif" font-size="14.00">仕様書 v0.0.7（統合</text>
<text xml:space="preserve" text-anchor="middle" x="923.46" y="-318.6" font-family="Times,serif" font-size="14.00">）</text>
</a>
</g>
<text xml:space="preserve" text-anchor="middle" x="833.76" y="-297.8" font-family="Times,serif" font-size="14.00">wip</text>
</g>
<!-- integrate_spec&#45;&gt;spec_v007 -->
<g id="edge17" class="edge">
<title>integrate_spec&#45;&gt;spec_v007</title>
<path fill="none" stroke="black" d="M805.12,-339.6C814.08,-339.6 823.37,-339.6 832.62,-339.6"/>
<polygon fill="black" stroke="black" points="832.35,-343.1 842.35,-339.6 832.35,-336.1 832.35,-343.1"/>
</g>
<!-- layer_audit_assets&#45;&gt;audit_distribution -->
<g id="edge35" class="edge">
<title>layer_audit_assets&#45;&gt;audit_distribution</title>
<path fill="none" stroke="black" d="M410.11,-622.6C426.71,-622.6 444.19,-622.6 460.92,-622.6"/>
<polygon fill="black" stroke="black" points="460.85,-626.1 470.85,-622.6 460.85,-619.1 460.85,-626.1"/>
</g>
<!-- lint_checker&#45;&gt;implement_spec_features -->
<g id="edge23" class="edge">
<title>lint_checker&#45;&gt;implement_spec_features</title>
<path fill="none" stroke="black" d="M1006.72,-436.05C1023.89,-432.81 1042.19,-429.35 1059.99,-425.98"/>
<polygon fill="black" stroke="black" points="1060.64,-429.42 1069.81,-424.13 1059.34,-422.54 1060.64,-429.42"/>
</g>
<!-- location_spec&#45;&gt;integrate_spec -->
<g id="edge15" class="edge">
<title>location_spec&#45;&gt;integrate_spec</title>
<path fill="none" stroke="black" d="M617.58,-363.72C632.24,-360.71 647.8,-357.52 662.65,-354.48"/>
<polygon fill="black" stroke="black" points="663.25,-357.93 672.34,-352.49 661.85,-351.07 663.25,-357.93"/>
</g>
<!-- multifile_policy&#45;&gt;integrate_multifile -->
<g id="edge27" class="edge">
<title>multifile_policy&#45;&gt;integrate_multifile</title>
<path fill="none" stroke="black" d="M1515.5,-176.54C1541.46,-184.84 1570.68,-194.18 1597.13,-202.63"/>
<polygon fill="black" stroke="black" points="1595.86,-205.9 1606.45,-205.61 1597.99,-199.23 1595.86,-205.9"/>
</g>
<!-- published_cli -->
<g id="node30" class="node">
<title>published_cli</title>
<g id="a_node30"><a xlink:title="npm公開済みCLI&#10;&#10;npm install &#45;g @pfdsl/cli で利用可。現行公開バージョンは npm 一次情報（ここに書かない — ドリフトするため）。詳細は docs/pfdsl_implementation_flow.pfdsl の cli_published 参照">
<polygon fill="#d4edda" stroke="black" stroke-width="2" points="610.1,-898.4 487.7,-898.4 487.7,-856.8 610.1,-856.8 610.1,-898.4"/>
<text xml:space="preserve" text-anchor="middle" x="548.9" y="-881.8" font-family="Times,serif" font-size="14.00">published_cli</text>
<text xml:space="preserve" text-anchor="middle" x="548.9" y="-865" font-family="Times,serif" font-size="14.00">npm公開済みCLI</text>
</a>
</g>
<text xml:space="preserve" text-anchor="middle" x="474.09" y="-844.2" font-family="Times,serif" font-size="14.00">done</text>
</g>
<!-- publish_cli&#45;&gt;published_cli -->
<g id="edge33" class="edge">
<title>publish_cli&#45;&gt;published_cli</title>
<path fill="none" stroke="black" d="M381.5,-877.6C409.84,-877.6 444.83,-877.6 475.4,-877.6"/>
<polygon fill="black" stroke="black" points="475.37,-881.1 485.37,-877.6 475.37,-874.1 475.37,-881.1"/>
</g>
<!-- restructure_skillgen -->
<g id="node31" class="node">
<title>restructure_skillgen</title>
<ellipse fill="none" stroke="black" cx="325.86" cy="-954.6" rx="89.93" ry="29.42"/>
<text xml:space="preserve" text-anchor="middle" x="325.86" y="-958.8" font-family="Times,serif" font-size="14.00">restructure_skillgen</text>
<text xml:space="preserve" text-anchor="middle" x="325.86" y="-942" font-family="Times,serif" font-size="14.00">生成系再構成</text>
</g>
<!-- restructured_gen -->
<g id="node32" class="node">
<title>restructured_gen</title>
<g id="a_node32"><a xlink:title="再構成済みスキル生成系 (#10)">
<polygon fill="#d4edda" stroke="black" stroke-width="2" points="624.5,-983.8 473.3,-983.8 473.3,-925.4 624.5,-925.4 624.5,-983.8"/>
<text xml:space="preserve" text-anchor="middle" x="548.9" y="-967.2" font-family="Times,serif" font-size="14.00">restructured_gen</text>
<text xml:space="preserve" text-anchor="middle" x="548.9" y="-950.4" font-family="Times,serif" font-size="14.00">再構成済みスキル生</text>
<text xml:space="preserve" text-anchor="middle" x="548.9" y="-933.6" font-family="Times,serif" font-size="14.00">成系 (#10)</text>
</a>
</g>
<text xml:space="preserve" text-anchor="middle" x="459.69" y="-912.8" font-family="Times,serif" font-size="14.00">done</text>
</g>
<!-- restructure_skillgen&#45;&gt;restructured_gen -->
<g id="edge31" class="edge">
<title>restructure_skillgen&#45;&gt;restructured_gen</title>
<path fill="none" stroke="black" d="M416.13,-954.6C431.02,-954.6 446.45,-954.6 461.28,-954.6"/>
<polygon fill="black" stroke="black" points="460.97,-958.1 470.97,-954.6 460.97,-951.1 460.97,-958.1"/>
</g>
<!-- revises_spec&#45;&gt;integrate_spec -->
<g id="edge14" class="edge">
<title>revises_spec&#45;&gt;integrate_spec</title>
<path fill="none" stroke="black" d="M628.47,-314.84C640.36,-317.59 652.56,-320.43 664.27,-323.14"/>
<polygon fill="black" stroke="black" points="663.31,-326.51 673.84,-325.37 664.89,-319.69 663.31,-326.51"/>
</g>
<!-- skill_gen -->
<g id="node34" class="node">
<title>skill_gen</title>
<g id="a_node34"><a xlink:title="スキル生成系（現行）&#10;&#10;scripts/gen&#45;skill.mjs と docs/samples 構成">
<polygon fill="#d4edda" stroke="black" stroke-width="2" points="182.01,-983.8 30.81,-983.8 30.81,-925.4 182.01,-925.4 182.01,-983.8"/>
<text xml:space="preserve" text-anchor="middle" x="106.41" y="-967.2" font-family="Times,serif" font-size="14.00">skill_gen</text>
<text xml:space="preserve" text-anchor="middle" x="106.41" y="-950.4" font-family="Times,serif" font-size="14.00">スキル生成系（現行</text>
<text xml:space="preserve" text-anchor="middle" x="106.41" y="-933.6" font-family="Times,serif" font-size="14.00">）</text>
</a>
</g>
<text xml:space="preserve" text-anchor="middle" x="17.21" y="-912.8" font-family="Times,serif" font-size="14.00">done</text>
</g>
<!-- skill_gen&#45;&gt;restructure_skillgen -->
<g id="edge30" class="edge">
<title>skill_gen&#45;&gt;restructure_skillgen</title>
<path fill="none" stroke="black" d="M182.85,-954.6C196.31,-954.6 210.51,-954.6 224.53,-954.6"/>
<polygon fill="black" stroke="black" points="224.2,-958.1 234.2,-954.6 224.2,-951.1 224.2,-958.1"/>
</g>
<!-- spec_v006 -->
<g id="node35" class="node">
<title>spec_v006</title>
<polygon fill="#d4edda" stroke="black" stroke-width="2" points="164.01,-349.4 48.81,-349.4 48.81,-307.8 164.01,-307.8 164.01,-349.4"/>
<text xml:space="preserve" text-anchor="middle" x="106.41" y="-332.8" font-family="Times,serif" font-size="14.00">spec_v006</text>
<text xml:space="preserve" text-anchor="middle" x="106.41" y="-316" font-family="Times,serif" font-size="14.00">仕様書 v0.0.6</text>
<text xml:space="preserve" text-anchor="middle" x="35.21" y="-295.2" font-family="Times,serif" font-size="14.00">done</text>
</g>
<!-- spec_v006&#45;&gt;draft_criteria -->
<g id="edge5" class="edge">
<title>spec_v006&#45;&gt;draft_criteria</title>
<path fill="none" stroke="black" d="M127.05,-350.08C148.47,-372.47 184.67,-407.32 221.61,-429.6 232.65,-436.26 245.02,-442.11 257.26,-447.12"/>
<polygon fill="black" stroke="black" points="255.95,-450.36 266.53,-450.75 258.5,-443.85 255.95,-450.36"/>
</g>
<!-- spec_v006&#45;&gt;draft_location -->
<g id="edge9" class="edge">
<title>spec_v006&#45;&gt;draft_location</title>
<path fill="none" stroke="black" d="M164.83,-342.07C187.09,-347.29 213.07,-353.38 237.54,-359.12"/>
<polygon fill="black" stroke="black" points="236.66,-362.51 247.19,-361.38 238.25,-355.69 236.66,-362.51"/>
</g>
<!-- spec_v006&#45;&gt;draft_multifile_specs -->
<g id="edge1" class="edge">
<title>spec_v006&#45;&gt;draft_multifile_specs</title>
<path fill="none" stroke="black" d="M112.56,-306.96C123.98,-264.23 155.77,-169.45 221.61,-126.6 343.73,-47.11 402.19,-94.6 547.9,-94.6 547.9,-94.6 547.9,-94.6 737.18,-94.6 846.9,-94.6 972.28,-102.66 1058.33,-109.44"/>
<polygon fill="black" stroke="black" points="1057.92,-112.91 1068.17,-110.22 1058.48,-105.94 1057.92,-112.91"/>
</g>
<!-- spec_v006&#45;&gt;draft_revises -->
<g id="edge7" class="edge">
<title>spec_v006&#45;&gt;draft_revises</title>
<path fill="none" stroke="black" d="M164.83,-315.4C188.72,-309.9 216.9,-303.42 242.9,-297.45"/>
<polygon fill="black" stroke="black" points="243.46,-300.91 252.42,-295.26 241.89,-294.09 243.46,-300.91"/>
</g>
<!-- spec_v006&#45;&gt;implement_lints -->
<g id="edge18" class="edge">
<title>spec_v006&#45;&gt;implement_lints</title>
<path fill="none" stroke="black" d="M115.83,-350.11C131.34,-387.12 167.83,-463.04 221.61,-506.6 230.58,-513.87 241.05,-519.87 251.81,-524.81"/>
<polygon fill="black" stroke="black" points="250.21,-527.93 260.79,-528.63 252.96,-521.49 250.21,-527.93"/>
</g>
<!-- spec_v006&#45;&gt;integrate_spec -->
<g id="edge45" class="edge">
<title>spec_v006&#45;&gt;integrate_spec</title>
<path fill="none" stroke="#888888" stroke-dasharray="5,2" d="M113.8,-306.94C126.72,-267.53 160.12,-185.11 221.61,-151.6 302.98,-107.27 337.58,-146.57 430.1,-151.6 520.1,-156.5 555.38,-125.64 631.7,-173.6 677.73,-202.52 706.65,-260.18 721.87,-299.33"/>
<polygon fill="#888888" stroke="#888888" points="718.58,-300.53 725.36,-308.67 725.14,-298.08 718.58,-300.53"/>
</g>
<!-- write_design_notes -->
<g id="node39" class="node">
<title>write_design_notes</title>
<ellipse fill="none" stroke="black" cx="325.86" cy="-189.6" rx="88.3" ry="29.42"/>
<text xml:space="preserve" text-anchor="middle" x="325.86" y="-193.8" font-family="Times,serif" font-size="14.00">write_design_notes</text>
<text xml:space="preserve" text-anchor="middle" x="325.86" y="-177" font-family="Times,serif" font-size="14.00">設計ノート執筆</text>
</g>
<!-- spec_v006&#45;&gt;write_design_notes -->
<g id="edge11" class="edge">
<title>spec_v006&#45;&gt;write_design_notes</title>
<path fill="none" stroke="black" d="M127.49,-306.93C148.99,-284.77 185,-250.56 221.61,-228.6 230.58,-223.22 240.41,-218.37 250.33,-214.06"/>
<polygon fill="black" stroke="black" points="251.38,-217.41 259.27,-210.34 248.7,-210.95 251.38,-217.41"/>
</g>
<!-- spec_v007&#45;&gt;draft_external_stakeholders -->
<g id="edge42" class="edge">
<title>spec_v007&#45;&gt;draft_external_stakeholders</title>
<path fill="none" stroke="black" d="M1003.07,-331.67C1013.64,-330.61 1024.68,-329.5 1035.82,-328.37"/>
<polygon fill="black" stroke="black" points="1035.87,-331.89 1045.46,-327.4 1035.16,-324.92 1035.87,-331.89"/>
</g>
<!-- spec_v007&#45;&gt;implement_spec_features -->
<g id="edge22" class="edge">
<title>spec_v007&#45;&gt;implement_spec_features</title>
<path fill="none" stroke="black" d="M1003.07,-361.72C1025.99,-368.17 1051.17,-375.26 1074.62,-381.86"/>
<polygon fill="black" stroke="black" points="1073.59,-385.21 1084.16,-384.55 1075.48,-378.47 1073.59,-385.21"/>
</g>
<!-- write_article&#45;&gt;i12_article -->
<g id="edge37" class="edge">
<title>write_article&#45;&gt;i12_article</title>
<path fill="none" stroke="black" d="M387.55,-37.6C414.85,-37.6 447.29,-37.6 475.82,-37.6"/>
<polygon fill="black" stroke="black" points="475.44,-41.1 485.44,-37.6 475.44,-34.1 475.44,-41.1"/>
</g>
<!-- write_design_notes&#45;&gt;design_notes -->
<g id="edge12" class="edge">
<title>write_design_notes&#45;&gt;design_notes</title>
<path fill="none" stroke="black" d="M411.05,-197.98C427.61,-199.63 445,-201.36 461.62,-203.01"/>
<polygon fill="black" stroke="black" points="461.18,-206.49 471.48,-203.99 461.88,-199.52 461.18,-206.49"/>
</g>
</g>
</svg>
