<?xml version="1.0" encoding="UTF-8" standalone="no"?>
<!DOCTYPE svg PUBLIC "-//W3C//DTD SVG 1.1//EN"
 "http://www.w3.org/Graphics/SVG/1.1/DTD/svg11.dtd">
<!-- Generated by graphviz version 15.0.0 (0)
 -->
<!-- Title: PFDSL Pages: 1 -->
<svg width="606pt" height="281pt"
 viewBox="0.00 0.00 606.00 281.00" xmlns="http://www.w3.org/2000/svg" xmlns:xlink="http://www.w3.org/1999/xlink">
<g id="graph0" class="graph" transform="scale(1 1) rotate(0) translate(4 277.5)">
<title>PFDSL</title>
<polygon fill="white" stroke="none" points="-4,4 -4,-277.5 601.55,-277.5 601.55,4 -4,4"/>
<text xml:space="preserve" text-anchor="middle" x="298.78" y="-256.9" font-family="Times,serif" font-size="14.00">Issue 依存フロー（2026&#45;06） — diff</text>
<text xml:space="preserve" text-anchor="middle" x="298.78" y="-240.1" font-family="Times,serif" font-size="14.00">green = added · red = removed · yellow = changed</text>
<!-- cli_tool -->
<g id="node1" class="node">
<title>cli_tool</title>
<polygon fill="#f5f5f5" stroke="#bbbbbb" points="147.6,-62.1 10.8,-62.1 10.8,-20.5 147.6,-20.5 147.6,-62.1"/>
<text xml:space="preserve" text-anchor="middle" x="79.2" y="-45.5" font-family="Times,serif" font-size="14.00" fill="#777777">cli_tool</text>
<text xml:space="preserve" text-anchor="middle" x="79.2" y="-28.7" font-family="Times,serif" font-size="14.00" fill="#777777">CLI 実装（現行）</text>
</g>
<!-- publish_extension -->
<g id="node5" class="node">
<title>publish_extension</title>
<ellipse fill="#c3e6cb" stroke="#28a745" cx="280.78" cy="-41.3" rx="86.38" ry="41.3"/>
<text xml:space="preserve" text-anchor="middle" x="280.78" y="-53.9" font-family="Times,serif" font-size="14.00">publish_extension</text>
<text xml:space="preserve" text-anchor="middle" x="280.78" y="-37.1" font-family="Times,serif" font-size="14.00">extension自動公開実</text>
<text xml:space="preserve" text-anchor="middle" x="280.78" y="-20.3" font-family="Times,serif" font-size="14.00">装</text>
</g>
<!-- cli_tool&#45;&gt;publish_extension -->
<g id="edge1" class="edge">
<title>cli_tool&#45;&gt;publish_extension</title>
<path fill="none" stroke="#28a745" d="M148.05,-41.3C159.26,-41.3 171.08,-41.3 182.85,-41.3"/>
<polygon fill="#28a745" stroke="#28a745" points="182.58,-44.8 192.58,-41.3 182.58,-37.8 182.58,-44.8"/>
</g>
<!-- i119_published_extension -->
<g id="node2" class="node">
<title>i119_published_extension</title>
<polygon fill="#c3e6cb" stroke="#28a745" points="597.55,-70.5 403.15,-70.5 403.15,-12.1 597.55,-12.1 597.55,-70.5"/>
<text xml:space="preserve" text-anchor="middle" x="500.35" y="-53.9" font-family="Times,serif" font-size="14.00">i119_published_extension</text>
<text xml:space="preserve" text-anchor="middle" x="500.35" y="-37.1" font-family="Times,serif" font-size="14.00">Marketplace 公開済み</text>
<text xml:space="preserve" text-anchor="middle" x="500.35" y="-20.3" font-family="Times,serif" font-size="14.00"> extension (#119)</text>
</g>
<!-- i137_status_lint -->
<g id="node3" class="node">
<title>i137_status_lint</title>
<polygon fill="#ffeeba" stroke="#e0a800" points="158.4,-138.5 0,-138.5 0,-80.1 158.4,-80.1 158.4,-138.5"/>
<text xml:space="preserve" text-anchor="middle" x="79.2" y="-121.9" font-family="Times,serif" font-size="14.00">i137_status_lint</text>
<text xml:space="preserve" text-anchor="middle" x="79.2" y="-105.1" font-family="Times,serif" font-size="14.00">status 非単調 lint </text>
<text xml:space="preserve" text-anchor="middle" x="79.2" y="-88.3" font-family="Times,serif" font-size="14.00">#137)</text>
</g>
<!-- i147_subflow_nav -->
<g id="node4" class="node">
<title>i147_subflow_nav</title>
<polygon fill="#ffeeba" stroke="#e0a800" points="147.6,-231.9 10.8,-231.9 10.8,-156.7 147.6,-156.7 147.6,-231.9"/>
<text xml:space="preserve" text-anchor="middle" x="79.2" y="-215.3" font-family="Times,serif" font-size="14.00">i147_subflow_nav</text>
<text xml:space="preserve" text-anchor="middle" x="79.2" y="-198.5" font-family="Times,serif" font-size="14.00">VS Code subflow</text>
<text xml:space="preserve" text-anchor="middle" x="79.2" y="-181.7" font-family="Times,serif" font-size="14.00">ナビゲーション </text>
<text xml:space="preserve" text-anchor="middle" x="79.2" y="-164.9" font-family="Times,serif" font-size="14.00">#147)</text>
</g>
<!-- publish_extension&#45;&gt;i119_published_extension -->
<g id="edge2" class="edge">
<title>publish_extension&#45;&gt;i119_published_extension</title>
<path fill="none" stroke="#28a745" d="M367.46,-41.3C375.38,-41.3 383.47,-41.3 391.56,-41.3"/>
<polygon fill="#28a745" stroke="#28a745" points="391.45,-44.8 401.45,-41.3 391.45,-37.8 391.45,-44.8"/>
</g>
</g>
</svg>
