<?xml version="1.0" encoding="UTF-8" standalone="no"?>
<!DOCTYPE svg PUBLIC "-//W3C//DTD SVG 1.1//EN"
 "http://www.w3.org/Graphics/SVG/1.1/DTD/svg11.dtd">
<!-- Generated by graphviz version 15.0.0 (0)
 -->
<!-- Title: PFDSL Pages: 1 -->
<svg width="664pt" height="621pt"
 viewBox="0.00 0.00 664.00 621.00" xmlns="http://www.w3.org/2000/svg" xmlns:xlink="http://www.w3.org/1999/xlink">
<g id="graph0" class="graph" transform="scale(1 1) rotate(0) translate(4 616.62)">
<title>PFDSL</title>
<polygon fill="white" stroke="none" points="-4,4 -4,-616.62 660.12,-616.62 660.12,4 -4,4"/>
<text xml:space="preserve" text-anchor="middle" x="328.06" y="-596.02" font-family="Times,serif" font-size="14.00">Issue 依存フロー（2026&#45;06） — diff</text>
<text xml:space="preserve" text-anchor="middle" x="328.06" y="-579.22" font-family="Times,serif" font-size="14.00">green = added · red = removed · yellow = changed</text>
<!-- cli_tool -->
<g id="node1" class="node">
<title>cli_tool</title>
<polygon fill="#f5f5f5" stroke="#bbbbbb" points="161.09,-50.22 24.29,-50.22 24.29,-8.62 161.09,-8.62 161.09,-50.22"/>
<text xml:space="preserve" text-anchor="middle" x="92.69" y="-33.62" font-family="Times,serif" font-size="14.00" fill="#777777">cli_tool</text>
<text xml:space="preserve" text-anchor="middle" x="92.69" y="-16.82" font-family="Times,serif" font-size="14.00" fill="#777777">CLI 実装（現行）</text>
</g>
<!-- implement_example_check -->
<g id="node6" class="node">
<title>implement_example_check</title>
<ellipse fill="#c3e6cb" stroke="#28a745" cx="341.55" cy="-29.42" rx="120.16" ry="29.42"/>
<text xml:space="preserve" text-anchor="middle" x="341.55" y="-33.62" font-family="Times,serif" font-size="14.00">implement_example_check</text>
<text xml:space="preserve" text-anchor="middle" x="341.55" y="-16.82" font-family="Times,serif" font-size="14.00">埋込例check実装</text>
</g>
<!-- cli_tool&#45;&gt;implement_example_check -->
<g id="edge1" class="edge">
<title>cli_tool&#45;&gt;implement_example_check</title>
<path fill="none" stroke="#28a745" d="M161.48,-29.42C176.7,-29.42 193.35,-29.42 210.17,-29.42"/>
<polygon fill="#28a745" stroke="#28a745" points="209.72,-32.92 219.72,-29.42 209.72,-25.92 209.72,-32.92"/>
</g>
<!-- featured_toolchain -->
<g id="node2" class="node">
<title>featured_toolchain</title>
<polygon fill="#f5f5f5" stroke="#bbbbbb" points="168.29,-236.02 17.09,-236.02 17.09,-160.82 168.29,-160.82 168.29,-236.02"/>
<text xml:space="preserve" text-anchor="middle" x="92.69" y="-219.42" font-family="Times,serif" font-size="14.00" fill="#777777">featured_toolchain</text>
<text xml:space="preserve" text-anchor="middle" x="92.69" y="-202.62" font-family="Times,serif" font-size="14.00" fill="#777777">spec v0.0.7</text>
<text xml:space="preserve" text-anchor="middle" x="92.69" y="-185.82" font-family="Times,serif" font-size="14.00" fill="#777777">実装済みツールチェ</text>
<text xml:space="preserve" text-anchor="middle" x="92.69" y="-169.02" font-family="Times,serif" font-size="14.00" fill="#777777">ーン (#52)</text>
</g>
<!-- implement_subflow_nav -->
<g id="node9" class="node">
<title>implement_subflow_nav</title>
<ellipse fill="#c3e6cb" stroke="#28a745" cx="341.55" cy="-155.42" rx="109.74" ry="41.3"/>
<text xml:space="preserve" text-anchor="middle" x="341.55" y="-168.02" font-family="Times,serif" font-size="14.00">implement_subflow_nav</text>
<text xml:space="preserve" text-anchor="middle" x="341.55" y="-151.22" font-family="Times,serif" font-size="14.00">subflowナビゲーショ</text>
<text xml:space="preserve" text-anchor="middle" x="341.55" y="-134.42" font-family="Times,serif" font-size="14.00">ン実装</text>
</g>
<!-- featured_toolchain&#45;&gt;implement_subflow_nav -->
<g id="edge2" class="edge">
<title>featured_toolchain&#45;&gt;implement_subflow_nav</title>
<path fill="none" stroke="#28a745" d="M168.77,-185.34C188.12,-181.97 209.37,-178.27 230.12,-174.65"/>
<polygon fill="#28a745" stroke="#28a745" points="230.5,-178.14 239.75,-172.97 229.3,-171.24 230.5,-178.14"/>
</g>
<!-- i137_status_lint -->
<g id="node3" class="node">
<title>i137_status_lint</title>
<polygon fill="#c3e6cb" stroke="#28a745" points="656.12,-309.62 497.72,-309.62 497.72,-251.22 656.12,-251.22 656.12,-309.62"/>
<text xml:space="preserve" text-anchor="middle" x="576.92" y="-293.02" font-family="Times,serif" font-size="14.00">i137_status_lint</text>
<text xml:space="preserve" text-anchor="middle" x="576.92" y="-276.22" font-family="Times,serif" font-size="14.00">status 非単調 lint </text>
<text xml:space="preserve" text-anchor="middle" x="576.92" y="-259.42" font-family="Times,serif" font-size="14.00">#137)</text>
</g>
<!-- i138_example_check -->
<g id="node4" class="node">
<title>i138_example_check</title>
<polygon fill="#c3e6cb" stroke="#28a745" points="652.52,-58.62 501.32,-58.62 501.32,-0.22 652.52,-0.22 652.52,-58.62"/>
<text xml:space="preserve" text-anchor="middle" x="576.92" y="-42.02" font-family="Times,serif" font-size="14.00">i138_example_check</text>
<text xml:space="preserve" text-anchor="middle" x="576.92" y="-25.22" font-family="Times,serif" font-size="14.00">doc 埋込例の check</text>
<text xml:space="preserve" text-anchor="middle" x="576.92" y="-8.42" font-family="Times,serif" font-size="14.00">検証 (#138)</text>
</g>
<!-- i147_subflow_nav -->
<g id="node5" class="node">
<title>i147_subflow_nav</title>
<polygon fill="#c3e6cb" stroke="#28a745" points="645.32,-193.02 508.52,-193.02 508.52,-117.82 645.32,-117.82 645.32,-193.02"/>
<text xml:space="preserve" text-anchor="middle" x="576.92" y="-176.42" font-family="Times,serif" font-size="14.00">i147_subflow_nav</text>
<text xml:space="preserve" text-anchor="middle" x="576.92" y="-159.62" font-family="Times,serif" font-size="14.00">VS Code subflow</text>
<text xml:space="preserve" text-anchor="middle" x="576.92" y="-142.82" font-family="Times,serif" font-size="14.00">ナビゲーション </text>
<text xml:space="preserve" text-anchor="middle" x="576.92" y="-126.02" font-family="Times,serif" font-size="14.00">#147)</text>
</g>
<!-- implement_example_check&#45;&gt;i138_example_check -->
<g id="edge3" class="edge">
<title>implement_example_check&#45;&gt;i138_example_check</title>
<path fill="none" stroke="#28a745" d="M461.97,-29.42C471.27,-29.42 480.56,-29.42 489.58,-29.42"/>
<polygon fill="#28a745" stroke="#28a745" points="489.33,-32.92 499.33,-29.42 489.33,-25.92 489.33,-32.92"/>
</g>
<!-- implement_multifile -->
<g id="node7" class="node">
<title>implement_multifile</title>
<ellipse fill="#ffeeba" stroke="#e0a800" cx="92.69" cy="-360.42" rx="92.69" ry="41.3"/>
<text xml:space="preserve" text-anchor="middle" x="92.69" y="-373.02" font-family="Times,serif" font-size="14.00">implement_multifile</text>
<text xml:space="preserve" text-anchor="middle" x="92.69" y="-356.22" font-family="Times,serif" font-size="14.00">マルチファイル機能</text>
<text xml:space="preserve" text-anchor="middle" x="92.69" y="-339.42" font-family="Times,serif" font-size="14.00">実装</text>
</g>
<!-- implement_status_lint -->
<g id="node8" class="node">
<title>implement_status_lint</title>
<ellipse fill="#c3e6cb" stroke="#28a745" cx="341.55" cy="-280.42" rx="99.3" ry="29.42"/>
<text xml:space="preserve" text-anchor="middle" x="341.55" y="-284.62" font-family="Times,serif" font-size="14.00">implement_status_lint</text>
<text xml:space="preserve" text-anchor="middle" x="341.55" y="-267.82" font-family="Times,serif" font-size="14.00">status非単調lint実装</text>
</g>
<!-- implement_status_lint&#45;&gt;i137_status_lint -->
<g id="edge4" class="edge">
<title>implement_status_lint&#45;&gt;i137_status_lint</title>
<path fill="none" stroke="#28a745" d="M441.18,-280.42C456.15,-280.42 471.53,-280.42 486.29,-280.42"/>
<polygon fill="#28a745" stroke="#28a745" points="485.93,-283.92 495.93,-280.42 485.93,-276.92 485.93,-283.92"/>
</g>
<!-- implement_subflow_nav&#45;&gt;i147_subflow_nav -->
<g id="edge5" class="edge">
<title>implement_subflow_nav&#45;&gt;i147_subflow_nav</title>
<path fill="none" stroke="#28a745" d="M451.72,-155.42C466.88,-155.42 482.22,-155.42 496.69,-155.42"/>
<polygon fill="#28a745" stroke="#28a745" points="496.58,-158.92 506.58,-155.42 496.58,-151.92 496.58,-158.92"/>
</g>
<!-- lint_checker -->
<g id="node10" class="node">
<title>lint_checker</title>
<polygon fill="#f5f5f5" stroke="#bbbbbb" points="175.49,-301.22 9.89,-301.22 9.89,-259.62 175.49,-259.62 175.49,-301.22"/>
<text xml:space="preserve" text-anchor="middle" x="92.69" y="-284.62" font-family="Times,serif" font-size="14.00" fill="#777777">lint_checker</text>
<text xml:space="preserve" text-anchor="middle" x="92.69" y="-267.82" font-family="Times,serif" font-size="14.00" fill="#777777">lint拡張checker (#4)</text>
</g>
<!-- lint_checker&#45;&gt;implement_status_lint -->
<g id="edge6" class="edge">
<title>lint_checker&#45;&gt;implement_status_lint</title>
<path fill="none" stroke="#28a745" d="M175.9,-280.42C193.43,-280.42 212.23,-280.42 230.62,-280.42"/>
<polygon fill="#28a745" stroke="#28a745" points="230.49,-283.92 240.49,-280.42 230.49,-276.92 230.49,-283.92"/>
</g>
<!-- multifile_toolchain -->
<g id="node11" class="node">
<title>multifile_toolchain</title>
<polygon fill="#ffeeba" stroke="#e0a800" points="171.89,-143.02 13.49,-143.02 13.49,-67.82 171.89,-67.82 171.89,-143.02"/>
<text xml:space="preserve" text-anchor="middle" x="92.69" y="-126.42" font-family="Times,serif" font-size="14.00">multifile_toolchain</text>
<text xml:space="preserve" text-anchor="middle" x="92.69" y="-109.62" font-family="Times,serif" font-size="14.00">spec v0.0.8</text>
<text xml:space="preserve" text-anchor="middle" x="92.69" y="-92.82" font-family="Times,serif" font-size="14.00">実装済みツールチェ</text>
<text xml:space="preserve" text-anchor="middle" x="92.69" y="-76.02" font-family="Times,serif" font-size="14.00">ーン (#148)</text>
</g>
<!-- multifile_toolchain&#45;&gt;implement_subflow_nav -->
<g id="edge7" class="edge">
<title>multifile_toolchain&#45;&gt;implement_subflow_nav</title>
<path fill="none" stroke="#28a745" d="M172.14,-121.3C191.44,-125.21 212.44,-129.47 232.85,-133.6"/>
<polygon fill="#28a745" stroke="#28a745" points="232.14,-137.03 242.63,-135.58 233.53,-130.17 232.14,-137.03"/>
</g>
<!-- spec_v007 -->
<g id="node12" class="node">
<title>spec_v007</title>
<polygon fill="#ffeeba" stroke="#e0a800" points="171.89,-477.62 13.49,-477.62 13.49,-419.22 171.89,-419.22 171.89,-477.62"/>
<text xml:space="preserve" text-anchor="middle" x="92.69" y="-461.02" font-family="Times,serif" font-size="14.00">spec_v007</text>
<text xml:space="preserve" text-anchor="middle" x="92.69" y="-444.22" font-family="Times,serif" font-size="14.00">仕様書 v0.0.7（統合</text>
<text xml:space="preserve" text-anchor="middle" x="92.69" y="-427.42" font-family="Times,serif" font-size="14.00">）</text>
</g>
<!-- spec_v008 -->
<g id="node13" class="node">
<title>spec_v008</title>
<polygon fill="#ffeeba" stroke="#e0a800" points="164.69,-571.02 20.69,-571.02 20.69,-495.82 164.69,-495.82 164.69,-571.02"/>
<text xml:space="preserve" text-anchor="middle" x="92.69" y="-554.42" font-family="Times,serif" font-size="14.00">spec_v008</text>
<text xml:space="preserve" text-anchor="middle" x="92.69" y="-537.62" font-family="Times,serif" font-size="14.00">仕様書 v0.0</text>
<text xml:space="preserve" text-anchor="middle" x="92.69" y="-520.82" font-family="Times,serif" font-size="14.00">8（マルチファイル</text>
<text xml:space="preserve" text-anchor="middle" x="92.69" y="-504.02" font-family="Times,serif" font-size="14.00">統合）</text>
</g>
</g>
</svg>
