<?xml version="1.0" encoding="UTF-8" standalone="no"?>
<!DOCTYPE svg PUBLIC "-//W3C//DTD SVG 1.1//EN"
 "http://www.w3.org/Graphics/SVG/1.1/DTD/svg11.dtd">
<!-- Generated by graphviz version 15.0.0 (0)
 -->
<!-- Title: PFDSL Pages: 1 -->
<svg width="313pt" height="397pt"
 viewBox="0.00 0.00 313.00 397.00" xmlns="http://www.w3.org/2000/svg" xmlns:xlink="http://www.w3.org/1999/xlink">
<g id="graph0" class="graph" transform="scale(1 1) rotate(0) translate(4 393)">
<title>PFDSL</title>
<polygon fill="white" stroke="none" points="-4,4 -4,-393 308.8,-393 308.8,4 -4,4"/>
<text xml:space="preserve" text-anchor="middle" x="152.4" y="-372.4" font-family="Times,serif" font-size="14.00">Issue 依存フロー（2026&#45;06） — diff</text>
<text xml:space="preserve" text-anchor="middle" x="152.4" y="-355.6" font-family="Times,serif" font-size="14.00">green = added · red = removed · yellow = changed</text>
<!-- adr_corpus -->
<g id="node1" class="node">
<title>adr_corpus</title>
<polygon fill="#ffeeba" stroke="#e0a800" points="224.4,-41.6 80.4,-41.6 80.4,0 224.4,0 224.4,-41.6"/>
<text xml:space="preserve" text-anchor="middle" x="152.4" y="-25" font-family="Times,serif" font-size="14.00">adr_corpus</text>
<text xml:space="preserve" text-anchor="middle" x="152.4" y="-8.2" font-family="Times,serif" font-size="14.00">ADR 群 (docs/adr)</text>
</g>
<!-- multifile_policy -->
<g id="node2" class="node">
<title>multifile_policy</title>
<polygon fill="#ffeeba" stroke="#e0a800" points="228,-118 76.8,-118 76.8,-59.6 228,-59.6 228,-118"/>
<text xml:space="preserve" text-anchor="middle" x="152.4" y="-101.4" font-family="Times,serif" font-size="14.00">multifile_policy</text>
<text xml:space="preserve" text-anchor="middle" x="152.4" y="-84.6" font-family="Times,serif" font-size="14.00">マルチファイル意味</text>
<text xml:space="preserve" text-anchor="middle" x="152.4" y="-67.8" font-family="Times,serif" font-size="14.00">論方針</text>
</g>
<!-- spec_v006 -->
<g id="node3" class="node">
<title>spec_v006</title>
<polygon fill="#ffeeba" stroke="#e0a800" points="210,-177.6 94.8,-177.6 94.8,-136 210,-136 210,-177.6"/>
<text xml:space="preserve" text-anchor="middle" x="152.4" y="-161" font-family="Times,serif" font-size="14.00">spec_v006</text>
<text xml:space="preserve" text-anchor="middle" x="152.4" y="-144.2" font-family="Times,serif" font-size="14.00">仕様書 v0.0.6</text>
</g>
<!-- spec_v007 -->
<g id="node4" class="node">
<title>spec_v007</title>
<polygon fill="#ffeeba" stroke="#e0a800" points="231.6,-254 73.2,-254 73.2,-195.6 231.6,-195.6 231.6,-254"/>
<text xml:space="preserve" text-anchor="middle" x="152.4" y="-237.4" font-family="Times,serif" font-size="14.00">spec_v007</text>
<text xml:space="preserve" text-anchor="middle" x="152.4" y="-220.6" font-family="Times,serif" font-size="14.00">仕様書 v0.0.7（統合</text>
<text xml:space="preserve" text-anchor="middle" x="152.4" y="-203.8" font-family="Times,serif" font-size="14.00">）</text>
</g>
<!-- spec_v008 -->
<g id="node5" class="node">
<title>spec_v008</title>
<polygon fill="#ffeeba" stroke="#e0a800" points="224.4,-347.4 80.4,-347.4 80.4,-272.2 224.4,-272.2 224.4,-347.4"/>
<text xml:space="preserve" text-anchor="middle" x="152.4" y="-330.8" font-family="Times,serif" font-size="14.00">spec_v008</text>
<text xml:space="preserve" text-anchor="middle" x="152.4" y="-314" font-family="Times,serif" font-size="14.00">仕様書 v0.0</text>
<text xml:space="preserve" text-anchor="middle" x="152.4" y="-297.2" font-family="Times,serif" font-size="14.00">8（マルチファイル</text>
<text xml:space="preserve" text-anchor="middle" x="152.4" y="-280.4" font-family="Times,serif" font-size="14.00">統合）</text>
</g>
</g>
</svg>
