<?xml version="1.0" encoding="UTF-8" standalone="no"?>
<!DOCTYPE svg PUBLIC "-//W3C//DTD SVG 1.1//EN"
 "http://www.w3.org/Graphics/SVG/1.1/DTD/svg11.dtd">
<!-- Generated by graphviz version 15.0.0 (0)
 -->
<!-- Title: PFDSL Pages: 1 -->
<svg width="313pt" height="1219pt"
 viewBox="0.00 0.00 313.00 1219.00" xmlns="http://www.w3.org/2000/svg" xmlns:xlink="http://www.w3.org/1999/xlink">
<g id="graph0" class="graph" transform="scale(1 1) rotate(0) translate(4 1215.2)">
<title>PFDSL</title>
<polygon fill="white" stroke="none" points="-4,4 -4,-1215.2 308.8,-1215.2 308.8,4 -4,4"/>
<text xml:space="preserve" text-anchor="middle" x="152.4" y="-1194.6" font-family="Times,serif" font-size="14.00">pfdsl開発ワークフロー — diff</text>
<text xml:space="preserve" text-anchor="middle" x="152.4" y="-1177.8" font-family="Times,serif" font-size="14.00">green = added · red = removed · yellow = changed</text>
<!-- adrs -->
<g id="node1" class="node">
<title>adrs</title>
<polygon fill="#ffeeba" stroke="#e0a800" points="179.4,-41.6 125.4,-41.6 125.4,0 179.4,0 179.4,-41.6"/>
<text xml:space="preserve" text-anchor="middle" x="152.4" y="-25" font-family="Times,serif" font-size="14.00">adrs</text>
<text xml:space="preserve" text-anchor="middle" x="152.4" y="-8.2" font-family="Times,serif" font-size="14.00">ADR</text>
</g>
<!-- examples -->
<g id="node2" class="node">
<title>examples</title>
<polygon fill="#ffeeba" stroke="#e0a800" points="192,-101.6 112.8,-101.6 112.8,-60 192,-60 192,-101.6"/>
<text xml:space="preserve" text-anchor="middle" x="152.4" y="-85" font-family="Times,serif" font-size="14.00">examples</text>
<text xml:space="preserve" text-anchor="middle" x="152.4" y="-68.2" font-family="Times,serif" font-size="14.00">実践例</text>
</g>
<!-- feature_samples -->
<g id="node3" class="node">
<title>feature_samples</title>
<polygon fill="#ffeeba" stroke="#e0a800" points="217.2,-161.6 87.6,-161.6 87.6,-120 217.2,-120 217.2,-161.6"/>
<text xml:space="preserve" text-anchor="middle" x="152.4" y="-145" font-family="Times,serif" font-size="14.00">feature_samples</text>
<text xml:space="preserve" text-anchor="middle" x="152.4" y="-128.2" font-family="Times,serif" font-size="14.00">機能カタログ</text>
</g>
<!-- gh_skill_dist -->
<g id="node4" class="node">
<title>gh_skill_dist</title>
<polygon fill="#ffeeba" stroke="#e0a800" points="231.6,-221.6 73.2,-221.6 73.2,-180 231.6,-180 231.6,-221.6"/>
<text xml:space="preserve" text-anchor="middle" x="152.4" y="-205" font-family="Times,serif" font-size="14.00">gh_skill_dist</text>
<text xml:space="preserve" text-anchor="middle" x="152.4" y="-188.2" font-family="Times,serif" font-size="14.00">gh skill 配布スキル</text>
</g>
<!-- ops_skill -->
<g id="node5" class="node">
<title>ops_skill</title>
<polygon fill="#ffeeba" stroke="#e0a800" points="210,-281.6 94.8,-281.6 94.8,-240 210,-240 210,-281.6"/>
<text xml:space="preserve" text-anchor="middle" x="152.4" y="-265" font-family="Times,serif" font-size="14.00">ops_skill</text>
<text xml:space="preserve" text-anchor="middle" x="152.4" y="-248.2" font-family="Times,serif" font-size="14.00">PFD運用スキル</text>
</g>
<!-- payoff_log -->
<g id="node6" class="node">
<title>payoff_log</title>
<polygon fill="#ffeeba" stroke="#e0a800" points="206.4,-341.6 98.4,-341.6 98.4,-300 206.4,-300 206.4,-341.6"/>
<text xml:space="preserve" text-anchor="middle" x="152.4" y="-325" font-family="Times,serif" font-size="14.00">payoff_log</text>
<text xml:space="preserve" text-anchor="middle" x="152.4" y="-308.2" font-family="Times,serif" font-size="14.00">効果局面ログ</text>
</g>
<!-- pr_diagrams -->
<g id="node7" class="node">
<title>pr_diagrams</title>
<polygon fill="#ffeeba" stroke="#e0a800" points="228,-401.6 76.8,-401.6 76.8,-360 228,-360 228,-401.6"/>
<text xml:space="preserve" text-anchor="middle" x="152.4" y="-385" font-family="Times,serif" font-size="14.00">pr_diagrams</text>
<text xml:space="preserve" text-anchor="middle" x="152.4" y="-368.2" font-family="Times,serif" font-size="14.00">PR差分ダイアグラム</text>
</g>
<!-- readme -->
<g id="node8" class="node">
<title>readme</title>
<polygon fill="#ffeeba" stroke="#e0a800" points="189.96,-461.6 114.85,-461.6 114.85,-420 189.96,-420 189.96,-461.6"/>
<text xml:space="preserve" text-anchor="middle" x="152.4" y="-445" font-family="Times,serif" font-size="14.00">readme</text>
<text xml:space="preserve" text-anchor="middle" x="152.4" y="-428.2" font-family="Times,serif" font-size="14.00">README</text>
</g>
<!-- retro_skill -->
<g id="node9" class="node">
<title>retro_skill</title>
<polygon fill="#ffeeba" stroke="#e0a800" points="228,-538 76.8,-538 76.8,-479.6 228,-479.6 228,-538"/>
<text xml:space="preserve" text-anchor="middle" x="152.4" y="-521.4" font-family="Times,serif" font-size="14.00">retro_skill</text>
<text xml:space="preserve" text-anchor="middle" x="152.4" y="-504.6" font-family="Times,serif" font-size="14.00">ふりかえり監査スキ</text>
<text xml:space="preserve" text-anchor="middle" x="152.4" y="-487.8" font-family="Times,serif" font-size="14.00">ル</text>
</g>
<!-- review_prompts -->
<g id="node10" class="node">
<title>review_prompts</title>
<polygon fill="#ffeeba" stroke="#e0a800" points="228,-614 76.8,-614 76.8,-555.6 228,-555.6 228,-614"/>
<text xml:space="preserve" text-anchor="middle" x="152.4" y="-597.4" font-family="Times,serif" font-size="14.00">review_prompts</text>
<text xml:space="preserve" text-anchor="middle" x="152.4" y="-580.6" font-family="Times,serif" font-size="14.00">レビュープロンプト</text>
<text xml:space="preserve" text-anchor="middle" x="152.4" y="-563.8" font-family="Times,serif" font-size="14.00">集</text>
</g>
<!-- roadmap_md -->
<g id="node11" class="node">
<title>roadmap_md</title>
<polygon fill="#ffeeba" stroke="#e0a800" points="213.6,-673.6 91.2,-673.6 91.2,-632 213.6,-632 213.6,-673.6"/>
<text xml:space="preserve" text-anchor="middle" x="152.4" y="-657" font-family="Times,serif" font-size="14.00">roadmap_md</text>
<text xml:space="preserve" text-anchor="middle" x="152.4" y="-640.2" font-family="Times,serif" font-size="14.00">計画 companion</text>
</g>
<!-- roadmap_pfdsl -->
<g id="node12" class="node">
<title>roadmap_pfdsl</title>
<polygon fill="#ffeeba" stroke="#e0a800" points="220.8,-733.6 84,-733.6 84,-692 220.8,-692 220.8,-733.6"/>
<text xml:space="preserve" text-anchor="middle" x="152.4" y="-717" font-family="Times,serif" font-size="14.00">roadmap_pfdsl</text>
<text xml:space="preserve" text-anchor="middle" x="152.4" y="-700.2" font-family="Times,serif" font-size="14.00">issue 依存グラフ</text>
</g>
<!-- sample_previews -->
<g id="node13" class="node">
<title>sample_previews</title>
<polygon fill="#ffeeba" stroke="#e0a800" points="217.2,-793.6 87.6,-793.6 87.6,-752 217.2,-752 217.2,-793.6"/>
<text xml:space="preserve" text-anchor="middle" x="152.4" y="-777" font-family="Times,serif" font-size="14.00">sample_previews</text>
<text xml:space="preserve" text-anchor="middle" x="152.4" y="-760.2" font-family="Times,serif" font-size="14.00">サンプル描画物</text>
</g>
<!-- skill -->
<g id="node14" class="node">
<title>skill</title>
<polygon fill="#ffeeba" stroke="#e0a800" points="220.8,-870 84,-870 84,-811.6 220.8,-811.6 220.8,-870"/>
<text xml:space="preserve" text-anchor="middle" x="152.4" y="-853.4" font-family="Times,serif" font-size="14.00">skill</text>
<text xml:space="preserve" text-anchor="middle" x="152.4" y="-836.6" font-family="Times,serif" font-size="14.00">AI agent</text>
<text xml:space="preserve" text-anchor="middle" x="152.4" y="-819.8" font-family="Times,serif" font-size="14.00">スキル（リポ内）</text>
</g>
<!-- skill_template -->
<g id="node15" class="node">
<title>skill_template</title>
<polygon fill="#ffeeba" stroke="#e0a800" points="228,-929.6 76.8,-929.6 76.8,-888 228,-888 228,-929.6"/>
<text xml:space="preserve" text-anchor="middle" x="152.4" y="-913" font-family="Times,serif" font-size="14.00">skill_template</text>
<text xml:space="preserve" text-anchor="middle" x="152.4" y="-896.2" font-family="Times,serif" font-size="14.00">スキルテンプレート</text>
</g>
<!-- spec -->
<g id="node16" class="node">
<title>spec</title>
<polygon fill="#ffeeba" stroke="#e0a800" points="199.2,-989.6 105.6,-989.6 105.6,-948 199.2,-948 199.2,-989.6"/>
<text xml:space="preserve" text-anchor="middle" x="152.4" y="-973" font-family="Times,serif" font-size="14.00">spec</text>
<text xml:space="preserve" text-anchor="middle" x="152.4" y="-956.2" font-family="Times,serif" font-size="14.00">言語仕様書</text>
</g>
<!-- spec_proposals -->
<g id="node17" class="node">
<title>spec_proposals</title>
<polygon fill="#ffeeba" stroke="#e0a800" points="217.2,-1049.6 87.6,-1049.6 87.6,-1008 217.2,-1008 217.2,-1049.6"/>
<text xml:space="preserve" text-anchor="middle" x="152.4" y="-1033" font-family="Times,serif" font-size="14.00">spec_proposals</text>
<text xml:space="preserve" text-anchor="middle" x="152.4" y="-1016.2" font-family="Times,serif" font-size="14.00">spec 提案文書群</text>
</g>
<!-- toolchain -->
<g id="node18" class="node">
<title>toolchain</title>
<polygon fill="#ffeeba" stroke="#e0a800" points="213.6,-1109.6 91.2,-1109.6 91.2,-1068 213.6,-1068 213.6,-1109.6"/>
<text xml:space="preserve" text-anchor="middle" x="152.4" y="-1093" font-family="Times,serif" font-size="14.00">toolchain</text>
<text xml:space="preserve" text-anchor="middle" x="152.4" y="-1076.2" font-family="Times,serif" font-size="14.00">ツールチェーン</text>
</g>
<!-- workflow_md -->
<g id="node19" class="node">
<title>workflow_md</title>
<polygon fill="#ffeeba" stroke="#e0a800" points="220.8,-1169.6 84,-1169.6 84,-1128 220.8,-1128 220.8,-1169.6"/>
<text xml:space="preserve" text-anchor="middle" x="152.4" y="-1153" font-family="Times,serif" font-size="14.00">workflow_md</text>
<text xml:space="preserve" text-anchor="middle" x="152.4" y="-1136.2" font-family="Times,serif" font-size="14.00">生態系 companion</text>
</g>
</g>
</svg>
