<?xml version="1.0" encoding="UTF-8" standalone="no"?>
<!DOCTYPE svg PUBLIC "-//W3C//DTD SVG 1.1//EN"
 "http://www.w3.org/Graphics/SVG/1.1/DTD/svg11.dtd">
<!-- Generated by graphviz version 15.0.0 (0)
 -->
<!-- Title: PFDSL Pages: 1 -->
<svg width="1915pt" height="1248pt"
 viewBox="0.00 0.00 1915.00 1248.00" xmlns="http://www.w3.org/2000/svg" xmlns:xlink="http://www.w3.org/1999/xlink">
<g id="graph0" class="graph" transform="scale(1 1) rotate(0) translate(4 1243.82)">
<title>PFDSL</title>
<polygon fill="white" stroke="none" points="-4,4 -4,-1243.82 1910.68,-1243.82 1910.68,4 -4,4"/>
<text xml:space="preserve" text-anchor="middle" x="953.34" y="-1223.22" font-family="Times,serif" font-size="14.00">Issue 依存フロー（2026&#45;06）</text>
<!-- adr_corpus -->
<g id="node1" class="node">
<title>adr_corpus</title>
<g id="a_node1"><a xlink:title="ADR 群 (docs/adr)&#10;&#10;方法論の設計決定記録。一覧と本数は docs/adr/README.md が一次情報（ここに数を書かない — ドリフトするため）">
<polygon fill="#d4edda" stroke="black" stroke-width="2" points="178.41,-97.4 34.41,-97.4 34.41,-55.8 178.41,-55.8 178.41,-97.4"/>
<text xml:space="preserve" text-anchor="middle" x="106.41" y="-80.8" font-family="Times,serif" font-size="14.00">adr_corpus</text>
<text xml:space="preserve" text-anchor="middle" x="106.41" y="-64" font-family="Times,serif" font-size="14.00">ADR 群 (docs/adr)</text>
</a>
</g>
<text xml:space="preserve" text-anchor="middle" x="20.81" y="-43.2" font-family="Times,serif" font-size="14.00">done</text>
</g>
<!-- migrate_convention -->
<g id="node33" class="node">
<title>migrate_convention</title>
<ellipse fill="none" stroke="black" cx="325.86" cy="-114.6" rx="90.49" ry="29.42"/>
<text xml:space="preserve" text-anchor="middle" x="325.86" y="-118.8" font-family="Times,serif" font-size="14.00">migrate_convention</text>
<text xml:space="preserve" text-anchor="middle" x="325.86" y="-102" font-family="Times,serif" font-size="14.00">規約移行</text>
</g>
<!-- adr_corpus&#45;&gt;migrate_convention -->
<g id="edge36" class="edge">
<title>adr_corpus&#45;&gt;migrate_convention</title>
<path fill="none" stroke="black" d="M179.22,-89.15C196.84,-92.23 215.92,-95.56 234.3,-98.77"/>
<polygon fill="black" stroke="black" points="233.68,-102.22 244.14,-100.49 234.89,-95.32 233.68,-102.22"/>
</g>
<!-- write_article -->
<g id="node44" class="node">
<title>write_article</title>
<ellipse fill="none" stroke="black" cx="325.86" cy="-37.6" rx="61.33" ry="29.42"/>
<text xml:space="preserve" text-anchor="middle" x="325.86" y="-41.8" font-family="Times,serif" font-size="14.00">write_article</text>
<text xml:space="preserve" text-anchor="middle" x="325.86" y="-25" font-family="Times,serif" font-size="14.00">記事執筆</text>
</g>
<!-- adr_corpus&#45;&gt;write_article -->
<g id="edge38" class="edge">
<title>adr_corpus&#45;&gt;write_article</title>
<path fill="none" stroke="black" d="M179.22,-63.72C204.21,-59.24 232.16,-54.23 256.84,-49.8"/>
<polygon fill="black" stroke="black" points="257.21,-53.29 266.43,-48.08 255.97,-46.4 257.21,-53.29"/>
</g>
<!-- audit_distribution -->
<g id="node2" class="node">
<title>audit_distribution</title>
<g id="a_node2"><a xlink:title="L3資産の階層化配布 (#43)&#10;&#10;audit コア + flow&#45;sync action を skill 同梱・配布可能化。scripts/lib/issues&#45;flow&#45;audit.mjs を #37 と共有するため着手順を調整。実配布フローは #11">
<polygon fill="#d4edda" stroke="black" stroke-width="2" points="631.7,-728.8 480.5,-728.8 480.5,-670.4 631.7,-670.4 631.7,-728.8"/>
<text xml:space="preserve" text-anchor="middle" x="556.1" y="-712.2" font-family="Times,serif" font-size="14.00">audit_distribution</text>
<text xml:space="preserve" text-anchor="middle" x="556.1" y="-695.4" font-family="Times,serif" font-size="14.00">L3資産の階層化配布</text>
<text xml:space="preserve" text-anchor="middle" x="556.1" y="-678.6" font-family="Times,serif" font-size="14.00"> (#43)</text>
</a>
</g>
<text xml:space="preserve" text-anchor="middle" x="466.89" y="-657.8" font-family="Times,serif" font-size="14.00">done</text>
</g>
<!-- automate_pr_diff -->
<g id="node3" class="node">
<title>automate_pr_diff</title>
<ellipse fill="none" stroke="black" cx="762.13" cy="-1108.6" rx="80.03" ry="29.42"/>
<text xml:space="preserve" text-anchor="middle" x="762.13" y="-1112.8" font-family="Times,serif" font-size="14.00">automate_pr_diff</text>
<text xml:space="preserve" text-anchor="middle" x="762.13" y="-1096" font-family="Times,serif" font-size="14.00">PR差分画像自動化</text>
</g>
<!-- i19_pr_diff_images -->
<g id="node18" class="node">
<title>i19_pr_diff_images</title>
<g id="a_node18"><a xlink:title="PR差分画像自動添付 (#19)&#10;&#10;merge トリガーで .pfdsl 差分の前後画像を生成し PR description に追記する GitHub Actions">
<polygon fill="#f8f9fa" stroke="black" stroke-width="2" points="1036.57,-1137.8 885.37,-1137.8 885.37,-1079.4 1036.57,-1079.4 1036.57,-1137.8"/>
<text xml:space="preserve" text-anchor="middle" x="960.97" y="-1121.2" font-family="Times,serif" font-size="14.00">i19_pr_diff_images</text>
<text xml:space="preserve" text-anchor="middle" x="960.97" y="-1104.4" font-family="Times,serif" font-size="14.00">PR差分画像自動添付</text>
<text xml:space="preserve" text-anchor="middle" x="960.97" y="-1087.6" font-family="Times,serif" font-size="14.00"> (#19)</text>
</a>
</g>
<text xml:space="preserve" text-anchor="middle" x="872.92" y="-1066.8" font-family="Times,serif" font-size="14.00">todo</text>
</g>
<!-- automate_pr_diff&#45;&gt;i19_pr_diff_images -->
<g id="edge45" class="edge">
<title>automate_pr_diff&#45;&gt;i19_pr_diff_images</title>
<path fill="none" stroke="black" d="M842.63,-1108.6C852.7,-1108.6 863.06,-1108.6 873.24,-1108.6"/>
<polygon fill="black" stroke="black" points="873.13,-1112.1 883.13,-1108.6 873.13,-1105.1 873.13,-1112.1"/>
</g>
<!-- build_obsidian_plugin -->
<g id="node4" class="node">
<title>build_obsidian_plugin</title>
<g id="a_node4"><a xlink:title="Obsidianプラグイン実装">
<ellipse fill="none" stroke="black" cx="325.86" cy="-1019.6" rx="100.41" ry="41.3"/>
<text xml:space="preserve" text-anchor="middle" x="325.86" y="-1032.2" font-family="Times,serif" font-size="14.00">build_obsidian_plugin</text>
<text xml:space="preserve" text-anchor="middle" x="325.86" y="-1015.4" font-family="Times,serif" font-size="14.00">Obsidianプラグイン</text>
<text xml:space="preserve" text-anchor="middle" x="325.86" y="-998.6" font-family="Times,serif" font-size="14.00">実装</text>
</a>
</g>
</g>
<!-- i3_obsidian_plugin -->
<g id="node20" class="node">
<title>i3_obsidian_plugin</title>
<g id="a_node20"><a xlink:title="Obsidian プラグイン (#3)">
<polygon fill="#f8f9fa" stroke="black" stroke-width="2" points="638.9,-1048.8 473.3,-1048.8 473.3,-990.4 638.9,-990.4 638.9,-1048.8"/>
<text xml:space="preserve" text-anchor="middle" x="556.1" y="-1032.2" font-family="Times,serif" font-size="14.00">i3_obsidian_plugin</text>
<text xml:space="preserve" text-anchor="middle" x="556.1" y="-1015.4" font-family="Times,serif" font-size="14.00">Obsidian プラグイン </text>
<text xml:space="preserve" text-anchor="middle" x="556.1" y="-998.6" font-family="Times,serif" font-size="14.00">(#3)</text>
</a>
</g>
<text xml:space="preserve" text-anchor="middle" x="460.85" y="-977.8" font-family="Times,serif" font-size="14.00">todo</text>
</g>
<!-- build_obsidian_plugin&#45;&gt;i3_obsidian_plugin -->
<g id="edge47" class="edge">
<title>build_obsidian_plugin&#45;&gt;i3_obsidian_plugin</title>
<path fill="none" stroke="black" d="M426.63,-1019.6C438.15,-1019.6 449.86,-1019.6 461.3,-1019.6"/>
<polygon fill="black" stroke="black" points="461.1,-1023.1 471.1,-1019.6 461.1,-1016.1 461.1,-1023.1"/>
</g>
<!-- cli_tool -->
<g id="node5" class="node">
<title>cli_tool</title>
<polygon fill="#d4edda" stroke="black" stroke-width="2" points="174.81,-874.4 38.01,-874.4 38.01,-832.8 174.81,-832.8 174.81,-874.4"/>
<text xml:space="preserve" text-anchor="middle" x="106.41" y="-857.8" font-family="Times,serif" font-size="14.00">cli_tool</text>
<text xml:space="preserve" text-anchor="middle" x="106.41" y="-841" font-family="Times,serif" font-size="14.00">CLI 実装（現行）</text>
<text xml:space="preserve" text-anchor="middle" x="24.41" y="-820.2" font-family="Times,serif" font-size="14.00">done</text>
</g>
<!-- cli_tool&#45;&gt;build_obsidian_plugin -->
<g id="edge46" class="edge">
<title>cli_tool&#45;&gt;build_obsidian_plugin</title>
<path fill="none" stroke="black" d="M125.02,-875.24C146.06,-900.09 183.25,-940.99 221.61,-968.6 229.25,-974.1 237.57,-979.3 246.07,-984.13"/>
<polygon fill="black" stroke="black" points="244.31,-987.15 254.76,-988.89 247.67,-981.01 244.31,-987.15"/>
</g>
<!-- fill_group_clusters -->
<g id="node12" class="node">
<title>fill_group_clusters</title>
<ellipse fill="none" stroke="black" cx="325.86" cy="-930.6" rx="86.1" ry="29.42"/>
<text xml:space="preserve" text-anchor="middle" x="325.86" y="-934.8" font-family="Times,serif" font-size="14.00">fill_group_clusters</text>
<text xml:space="preserve" text-anchor="middle" x="325.86" y="-918" font-family="Times,serif" font-size="14.00">クラスタ塗り実装</text>
</g>
<!-- cli_tool&#45;&gt;fill_group_clusters -->
<g id="edge40" class="edge">
<title>cli_tool&#45;&gt;fill_group_clusters</title>
<path fill="none" stroke="black" d="M168.85,-875.36C195.46,-884.78 226.76,-895.86 254.32,-905.62"/>
<polygon fill="black" stroke="black" points="253.05,-908.88 263.64,-908.92 255.39,-902.29 253.05,-908.88"/>
</g>
<!-- implement_graph_nav -->
<g id="node24" class="node">
<title>implement_graph_nav</title>
<ellipse fill="none" stroke="black" cx="325.86" cy="-853.6" rx="100.38" ry="29.42"/>
<text xml:space="preserve" text-anchor="middle" x="325.86" y="-857.8" font-family="Times,serif" font-size="14.00">implement_graph_nav</text>
<text xml:space="preserve" text-anchor="middle" x="325.86" y="-841" font-family="Times,serif" font-size="14.00">閲覧支援実装</text>
</g>
<!-- cli_tool&#45;&gt;implement_graph_nav -->
<g id="edge42" class="edge">
<title>cli_tool&#45;&gt;implement_graph_nav</title>
<path fill="none" stroke="black" d="M175.62,-853.6C187.75,-853.6 200.68,-853.6 213.65,-853.6"/>
<polygon fill="black" stroke="black" points="213.53,-857.1 223.53,-853.6 213.53,-850.1 213.53,-857.1"/>
</g>
<!-- implement_lints -->
<g id="node25" class="node">
<title>implement_lints</title>
<ellipse fill="none" stroke="black" cx="325.86" cy="-622.6" rx="75.66" ry="29.42"/>
<text xml:space="preserve" text-anchor="middle" x="325.86" y="-626.8" font-family="Times,serif" font-size="14.00">implement_lints</text>
<text xml:space="preserve" text-anchor="middle" x="325.86" y="-610" font-family="Times,serif" font-size="14.00">lint実装</text>
</g>
<!-- cli_tool&#45;&gt;implement_lints -->
<g id="edge20" class="edge">
<title>cli_tool&#45;&gt;implement_lints</title>
<path fill="none" stroke="black" d="M114.78,-831.96C129.22,-792.65 164.85,-709.19 221.61,-661.6 230.46,-654.18 240.86,-648.1 251.59,-643.13"/>
<polygon fill="black" stroke="black" points="252.74,-646.45 260.55,-639.29 249.98,-640.01 252.74,-646.45"/>
</g>
<!-- implement_orphan_lint -->
<g id="node26" class="node">
<title>implement_orphan_lint</title>
<ellipse fill="none" stroke="black" cx="325.86" cy="-776.6" rx="104.24" ry="29.42"/>
<text xml:space="preserve" text-anchor="middle" x="325.86" y="-780.8" font-family="Times,serif" font-size="14.00">implement_orphan_lint</text>
<text xml:space="preserve" text-anchor="middle" x="325.86" y="-764" font-family="Times,serif" font-size="14.00">孤児検出lint実装</text>
</g>
<!-- cli_tool&#45;&gt;implement_orphan_lint -->
<g id="edge48" class="edge">
<title>cli_tool&#45;&gt;implement_orphan_lint</title>
<path fill="none" stroke="black" d="M168.85,-831.84C193.8,-823.01 222.87,-812.72 249.11,-803.42"/>
<polygon fill="black" stroke="black" points="250.09,-806.79 258.35,-800.15 247.75,-800.19 250.09,-806.79"/>
</g>
<!-- layer_audit_assets -->
<g id="node30" class="node">
<title>layer_audit_assets</title>
<ellipse fill="none" stroke="black" cx="325.86" cy="-699.6" rx="83.89" ry="29.42"/>
<text xml:space="preserve" text-anchor="middle" x="325.86" y="-703.8" font-family="Times,serif" font-size="14.00">layer_audit_assets</text>
<text xml:space="preserve" text-anchor="middle" x="325.86" y="-687" font-family="Times,serif" font-size="14.00">L3資産階層化</text>
</g>
<!-- cli_tool&#45;&gt;layer_audit_assets -->
<g id="edge34" class="edge">
<title>cli_tool&#45;&gt;layer_audit_assets</title>
<path fill="none" stroke="black" d="M123.83,-832.19C144.28,-806.79 181.47,-764.61 221.61,-738.6 230.62,-732.76 240.64,-727.61 250.78,-723.12"/>
<polygon fill="black" stroke="black" points="252.09,-726.37 259.97,-719.28 249.39,-719.91 252.09,-726.37"/>
</g>
<!-- publish_cli -->
<g id="node35" class="node">
<title>publish_cli</title>
<ellipse fill="none" stroke="black" cx="325.86" cy="-1108.6" rx="55.31" ry="29.42"/>
<text xml:space="preserve" text-anchor="middle" x="325.86" y="-1112.8" font-family="Times,serif" font-size="14.00">publish_cli</text>
<text xml:space="preserve" text-anchor="middle" x="325.86" y="-1096" font-family="Times,serif" font-size="14.00">CLI公開</text>
</g>
<!-- cli_tool&#45;&gt;publish_cli -->
<g id="edge32" class="edge">
<title>cli_tool&#45;&gt;publish_cli</title>
<path fill="none" stroke="black" d="M113.21,-875.23C125.79,-918.2 159.58,-1014.88 221.61,-1069.6 233.52,-1080.1 248.54,-1087.9 263.41,-1093.63"/>
<polygon fill="black" stroke="black" points="262.14,-1096.89 272.74,-1096.94 264.49,-1090.3 262.14,-1096.89"/>
</g>
<!-- criteria_spec -->
<g id="node6" class="node">
<title>criteria_spec</title>
<polygon fill="#d4edda" stroke="black" points="635.3,-296.4 476.9,-296.4 476.9,-254.8 635.3,-254.8 635.3,-296.4"/>
<text xml:space="preserve" text-anchor="middle" x="556.1" y="-279.8" font-family="Times,serif" font-size="14.00">criteria_spec</text>
<text xml:space="preserve" text-anchor="middle" x="556.1" y="-263" font-family="Times,serif" font-size="14.00">合否基準仕様案 (#7)</text>
<text xml:space="preserve" text-anchor="middle" x="463.29" y="-242.2" font-family="Times,serif" font-size="14.00">done</text>
</g>
<!-- integrate_spec -->
<g id="node29" class="node">
<title>integrate_spec</title>
<ellipse fill="none" stroke="black" cx="762.13" cy="-410.6" rx="68.48" ry="29.42"/>
<text xml:space="preserve" text-anchor="middle" x="762.13" y="-414.8" font-family="Times,serif" font-size="14.00">integrate_spec</text>
<text xml:space="preserve" text-anchor="middle" x="762.13" y="-398" font-family="Times,serif" font-size="14.00">仕様統合</text>
</g>
<!-- criteria_spec&#45;&gt;integrate_spec -->
<g id="edge13" class="edge">
<title>criteria_spec&#45;&gt;integrate_spec</title>
<path fill="none" stroke="black" d="M615.37,-296.74C625.89,-301.42 636.54,-306.74 646.1,-312.6 675.13,-330.39 704.29,-355.33 725.98,-375.59"/>
<polygon fill="black" stroke="black" points="723.45,-378.01 733.11,-382.35 728.26,-372.93 723.45,-378.01"/>
</g>
<!-- design_notes -->
<g id="node7" class="node">
<title>design_notes</title>
<g id="a_node7"><a xlink:title="設計判断ノート・分岐なし方針 (#9)">
<polygon fill="#d4edda" stroke="black" points="631.7,-379.8 480.5,-379.8 480.5,-321.4 631.7,-321.4 631.7,-379.8"/>
<text xml:space="preserve" text-anchor="middle" x="556.1" y="-363.2" font-family="Times,serif" font-size="14.00">design_notes</text>
<text xml:space="preserve" text-anchor="middle" x="556.1" y="-346.4" font-family="Times,serif" font-size="14.00">設計判断ノート・分</text>
<text xml:space="preserve" text-anchor="middle" x="556.1" y="-329.6" font-family="Times,serif" font-size="14.00">岐なし方針 (#9)</text>
</a>
</g>
<text xml:space="preserve" text-anchor="middle" x="466.89" y="-308.8" font-family="Times,serif" font-size="14.00">done</text>
</g>
<!-- design_notes&#45;&gt;integrate_spec -->
<g id="edge16" class="edge">
<title>design_notes&#45;&gt;integrate_spec</title>
<path fill="none" stroke="black" d="M631.92,-372.6C652.26,-378.58 674.16,-385.02 694.05,-390.87"/>
<polygon fill="black" stroke="black" points="692.83,-394.16 703.41,-393.63 694.81,-387.45 692.83,-394.16"/>
</g>
<!-- draft_criteria -->
<g id="node8" class="node">
<title>draft_criteria</title>
<ellipse fill="none" stroke="black" cx="325.86" cy="-266.6" rx="70.71" ry="29.42"/>
<text xml:space="preserve" text-anchor="middle" x="325.86" y="-270.8" font-family="Times,serif" font-size="14.00">draft_criteria</text>
<text xml:space="preserve" text-anchor="middle" x="325.86" y="-254" font-family="Times,serif" font-size="14.00">合否基準仕様起草</text>
</g>
<!-- draft_criteria&#45;&gt;criteria_spec -->
<g id="edge6" class="edge">
<title>draft_criteria&#45;&gt;criteria_spec</title>
<path fill="none" stroke="black" d="M396.58,-269.35C418.22,-270.2 442.39,-271.16 465.21,-272.06"/>
<polygon fill="black" stroke="black" points="464.99,-275.55 475.12,-272.45 465.27,-268.56 464.99,-275.55"/>
</g>
<!-- draft_location -->
<g id="node9" class="node">
<title>draft_location</title>
<g id="a_node9"><a xlink:title="location/command 起草">
<ellipse fill="none" stroke="black" cx="325.86" cy="-533.6" rx="84.99" ry="41.3"/>
<text xml:space="preserve" text-anchor="middle" x="325.86" y="-546.2" font-family="Times,serif" font-size="14.00">draft_location</text>
<text xml:space="preserve" text-anchor="middle" x="325.86" y="-529.4" font-family="Times,serif" font-size="14.00">location/command</text>
<text xml:space="preserve" text-anchor="middle" x="325.86" y="-512.6" font-family="Times,serif" font-size="14.00">起草</text>
</a>
</g>
</g>
<!-- location_spec -->
<g id="node32" class="node">
<title>location_spec</title>
<g id="a_node32"><a xlink:title="location/command 仕様案 (#13)&#10;&#10;ノードと実ファイル・実行手順を結ぶメタデータ。パス解決規則のみ multifile 方針と接点">
<polygon fill="#d4edda" stroke="black" points="624.5,-547.8 487.7,-547.8 487.7,-489.4 624.5,-489.4 624.5,-547.8"/>
<text xml:space="preserve" text-anchor="middle" x="556.1" y="-531.2" font-family="Times,serif" font-size="14.00">location_spec</text>
<text xml:space="preserve" text-anchor="middle" x="556.1" y="-514.4" font-family="Times,serif" font-size="14.00">location/command</text>
<text xml:space="preserve" text-anchor="middle" x="556.1" y="-497.6" font-family="Times,serif" font-size="14.00">仕様案 (#13)</text>
</a>
</g>
<text xml:space="preserve" text-anchor="middle" x="474.09" y="-476.8" font-family="Times,serif" font-size="14.00">done</text>
</g>
<!-- draft_location&#45;&gt;location_spec -->
<g id="edge10" class="edge">
<title>draft_location&#45;&gt;location_spec</title>
<path fill="none" stroke="black" d="M410.55,-528.1C432.01,-526.69 455.02,-525.18 476.23,-523.78"/>
<polygon fill="black" stroke="black" points="476.21,-527.29 485.96,-523.14 475.75,-520.31 476.21,-527.29"/>
</g>
<!-- draft_multifile_specs -->
<g id="node10" class="node">
<title>draft_multifile_specs</title>
<g id="a_node10"><a xlink:title="階層・プリセット共同起草&#10;&#10;#5 と #6 は決定が往復で形成される相互依存のため分割せず共同設計する。共有決定は方針記録として外化">
<ellipse fill="none" stroke="black" cx="1192.24" cy="-183.6" rx="95.44" ry="41.3"/>
<text xml:space="preserve" text-anchor="middle" x="1192.24" y="-196.2" font-family="Times,serif" font-size="14.00">draft_multifile_specs</text>
<text xml:space="preserve" text-anchor="middle" x="1192.24" y="-179.4" font-family="Times,serif" font-size="14.00">階層・プリセット共</text>
<text xml:space="preserve" text-anchor="middle" x="1192.24" y="-162.6" font-family="Times,serif" font-size="14.00">同起草</text>
</a>
</g>
</g>
<!-- i5_hierarchy_spec -->
<g id="node22" class="node">
<title>i5_hierarchy_spec</title>
<polygon fill="#f8f9fa" stroke="black" points="1506.31,-238.4 1355.11,-238.4 1355.11,-196.8 1506.31,-196.8 1506.31,-238.4"/>
<text xml:space="preserve" text-anchor="middle" x="1430.71" y="-221.8" font-family="Times,serif" font-size="14.00">i5_hierarchy_spec</text>
<text xml:space="preserve" text-anchor="middle" x="1430.71" y="-205" font-family="Times,serif" font-size="14.00">階層PFD仕様案 (#5)</text>
<text xml:space="preserve" text-anchor="middle" x="1342.66" y="-184.2" font-family="Times,serif" font-size="14.00">todo</text>
</g>
<!-- draft_multifile_specs&#45;&gt;i5_hierarchy_spec -->
<g id="edge2" class="edge">
<title>draft_multifile_specs&#45;&gt;i5_hierarchy_spec</title>
<path fill="none" stroke="black" d="M1283.31,-196.55C1303.06,-199.39 1323.92,-202.39 1343.51,-205.21"/>
<polygon fill="black" stroke="black" points="1342.99,-208.67 1353.38,-206.63 1343.98,-201.74 1342.99,-208.67"/>
</g>
<!-- i6_presets_spec -->
<g id="node23" class="node">
<title>i6_presets_spec</title>
<g id="a_node23"><a xlink:title="共有プリセット仕様案 (#6)">
<polygon fill="#f8f9fa" stroke="black" points="1506.31,-178.8 1355.11,-178.8 1355.11,-120.4 1506.31,-120.4 1506.31,-178.8"/>
<text xml:space="preserve" text-anchor="middle" x="1430.71" y="-162.2" font-family="Times,serif" font-size="14.00">i6_presets_spec</text>
<text xml:space="preserve" text-anchor="middle" x="1430.71" y="-145.4" font-family="Times,serif" font-size="14.00">共有プリセット仕様</text>
<text xml:space="preserve" text-anchor="middle" x="1430.71" y="-128.6" font-family="Times,serif" font-size="14.00">案 (#6)</text>
</a>
</g>
<text xml:space="preserve" text-anchor="middle" x="1342.66" y="-107.8" font-family="Times,serif" font-size="14.00">todo</text>
</g>
<!-- draft_multifile_specs&#45;&gt;i6_presets_spec -->
<g id="edge3" class="edge">
<title>draft_multifile_specs&#45;&gt;i6_presets_spec</title>
<path fill="none" stroke="black" d="M1283.31,-170.65C1303.06,-167.81 1323.92,-164.81 1343.51,-161.99"/>
<polygon fill="black" stroke="black" points="1343.98,-165.46 1353.38,-160.57 1342.99,-158.53 1343.98,-165.46"/>
</g>
<!-- multifile_policy -->
<g id="node34" class="node">
<title>multifile_policy</title>
<g id="a_node34"><a xlink:title="マルチファイル意味論方針&#10;&#10;共同起草で確定した ID スコープ・継承解決順・ファイル間参照の決定記録。ファイル横断機能（#8 実装等）と仕様統合の前提資料">
<polygon fill="#f8f9fa" stroke="black" points="1506.31,-314.8 1355.11,-314.8 1355.11,-256.4 1506.31,-256.4 1506.31,-314.8"/>
<text xml:space="preserve" text-anchor="middle" x="1430.71" y="-298.2" font-family="Times,serif" font-size="14.00">multifile_policy</text>
<text xml:space="preserve" text-anchor="middle" x="1430.71" y="-281.4" font-family="Times,serif" font-size="14.00">マルチファイル意味</text>
<text xml:space="preserve" text-anchor="middle" x="1430.71" y="-264.6" font-family="Times,serif" font-size="14.00">論方針</text>
</a>
</g>
<text xml:space="preserve" text-anchor="middle" x="1342.66" y="-243.8" font-family="Times,serif" font-size="14.00">todo</text>
</g>
<!-- draft_multifile_specs&#45;&gt;multifile_policy -->
<g id="edge4" class="edge">
<title>draft_multifile_specs&#45;&gt;multifile_policy</title>
<path fill="none" stroke="black" d="M1260.37,-212.84C1285.56,-223.78 1314.43,-236.29 1340.71,-247.6 1343.67,-248.88 1346.69,-250.18 1349.75,-251.49"/>
<polygon fill="black" stroke="black" points="1348.25,-254.65 1358.82,-255.38 1351.01,-248.22 1348.25,-254.65"/>
</g>
<!-- draft_revises -->
<g id="node11" class="node">
<title>draft_revises</title>
<g id="a_node11"><a xlink:title="改版チェーン仕様起草">
<ellipse fill="none" stroke="black" cx="325.86" cy="-432.6" rx="78.14" ry="41.3"/>
<text xml:space="preserve" text-anchor="middle" x="325.86" y="-445.2" font-family="Times,serif" font-size="14.00">draft_revises</text>
<text xml:space="preserve" text-anchor="middle" x="325.86" y="-428.4" font-family="Times,serif" font-size="14.00">改版チェーン仕様起</text>
<text xml:space="preserve" text-anchor="middle" x="325.86" y="-411.6" font-family="Times,serif" font-size="14.00">草</text>
</a>
</g>
</g>
<!-- revises_spec -->
<g id="node39" class="node">
<title>revises_spec</title>
<g id="a_node39"><a xlink:title="改版チェーン仕様案 (#8)">
<polygon fill="#d4edda" stroke="black" points="635.3,-459.8 476.9,-459.8 476.9,-401.4 635.3,-401.4 635.3,-459.8"/>
<text xml:space="preserve" text-anchor="middle" x="556.1" y="-443.2" font-family="Times,serif" font-size="14.00">revises_spec</text>
<text xml:space="preserve" text-anchor="middle" x="556.1" y="-426.4" font-family="Times,serif" font-size="14.00">改版チェーン仕様案 </text>
<text xml:space="preserve" text-anchor="middle" x="556.1" y="-409.6" font-family="Times,serif" font-size="14.00">(#8)</text>
</a>
</g>
<text xml:space="preserve" text-anchor="middle" x="463.29" y="-388.8" font-family="Times,serif" font-size="14.00">done</text>
</g>
<!-- draft_revises&#45;&gt;revises_spec -->
<g id="edge8" class="edge">
<title>draft_revises&#45;&gt;revises_spec</title>
<path fill="none" stroke="black" d="M404.45,-431.92C423.98,-431.75 445.12,-431.56 465.2,-431.39"/>
<polygon fill="black" stroke="black" points="465.08,-434.89 475.04,-431.3 465.01,-427.89 465.08,-434.89"/>
</g>
<!-- i15_group_fill -->
<g id="node16" class="node">
<title>i15_group_fill</title>
<g id="a_node16"><a xlink:title="group クラスタ塗りつぶし描画 (#15)">
<polygon fill="#f8f9fa" stroke="black" stroke-width="2" points="631.7,-959.8 480.5,-959.8 480.5,-901.4 631.7,-901.4 631.7,-959.8"/>
<text xml:space="preserve" text-anchor="middle" x="556.1" y="-943.2" font-family="Times,serif" font-size="14.00">i15_group_fill</text>
<text xml:space="preserve" text-anchor="middle" x="556.1" y="-926.4" font-family="Times,serif" font-size="14.00">group クラスタ塗り</text>
<text xml:space="preserve" text-anchor="middle" x="556.1" y="-909.6" font-family="Times,serif" font-size="14.00">つぶし描画 (#15)</text>
</a>
</g>
<text xml:space="preserve" text-anchor="middle" x="468.05" y="-888.8" font-family="Times,serif" font-size="14.00">todo</text>
</g>
<!-- fill_group_clusters&#45;&gt;i15_group_fill -->
<g id="edge41" class="edge">
<title>fill_group_clusters&#45;&gt;i15_group_fill</title>
<path fill="none" stroke="black" d="M412.17,-930.6C430.52,-930.6 449.93,-930.6 468.34,-930.6"/>
<polygon fill="black" stroke="black" points="468.13,-934.1 478.13,-930.6 468.13,-927.1 468.13,-934.1"/>
</g>
<!-- findings_r12 -->
<g id="node13" class="node">
<title>findings_r12</title>
<g id="a_node13"><a xlink:title="実践ラウンド1/2レビュー知見&#10;&#10;docs/examples の執筆・レビューで得た品質知見">
<polygon fill="#d4edda" stroke="black" stroke-width="2" points="185.61,-651.8 27.21,-651.8 27.21,-593.4 185.61,-593.4 185.61,-651.8"/>
<text xml:space="preserve" text-anchor="middle" x="106.41" y="-635.2" font-family="Times,serif" font-size="14.00">findings_r12</text>
<text xml:space="preserve" text-anchor="middle" x="106.41" y="-618.4" font-family="Times,serif" font-size="14.00">実践ラウンド1/2レビ</text>
<text xml:space="preserve" text-anchor="middle" x="106.41" y="-601.6" font-family="Times,serif" font-size="14.00">ュー知見</text>
</a>
</g>
<text xml:space="preserve" text-anchor="middle" x="13.61" y="-580.8" font-family="Times,serif" font-size="14.00">done</text>
</g>
<!-- findings_r12&#45;&gt;implement_lints -->
<g id="edge19" class="edge">
<title>findings_r12&#45;&gt;implement_lints</title>
<path fill="none" stroke="black" d="M186.53,-622.6C203.46,-622.6 221.44,-622.6 238.62,-622.6"/>
<polygon fill="black" stroke="black" points="238.27,-626.1 248.27,-622.6 238.27,-619.1 238.27,-626.1"/>
</g>
<!-- i12_article -->
<g id="node14" class="node">
<title>i12_article</title>
<g id="a_node14"><a xlink:title="公開記事 (#12)&#10;&#10;ADR 群を素材とした外部公開記事。依存なしで着手可能、spec v0.0.7 確定後はより充実">
<polygon fill="#f8f9fa" stroke="black" stroke-width="2" points="617.3,-58.4 494.9,-58.4 494.9,-16.8 617.3,-16.8 617.3,-58.4"/>
<text xml:space="preserve" text-anchor="middle" x="556.1" y="-41.8" font-family="Times,serif" font-size="14.00">i12_article</text>
<text xml:space="preserve" text-anchor="middle" x="556.1" y="-25" font-family="Times,serif" font-size="14.00">公開記事 (#12)</text>
</a>
</g>
<text xml:space="preserve" text-anchor="middle" x="482.45" y="-4.2" font-family="Times,serif" font-size="14.00">todo</text>
</g>
<!-- i14_dir_convention -->
<g id="node15" class="node">
<title>i14_dir_convention</title>
<g id="a_node15"><a xlink:title=".pfdsl/ 規約移行 (#14)&#10;&#10;計画・生態系 PFD を既約ディレクトリへ移行し pfd&#45;ops をプロジェクト非依存化。ADR&#45;0007">
<polygon fill="#d4edda" stroke="#b60205" stroke-width="2" points="646.1,-135.4 466.1,-135.4 466.1,-93.8 646.1,-93.8 646.1,-135.4"/>
<text xml:space="preserve" text-anchor="middle" x="556.1" y="-118.8" font-family="Times,serif" font-size="14.00">i14_dir_convention</text>
<text xml:space="preserve" text-anchor="middle" x="556.1" y="-102" font-family="Times,serif" font-size="14.00">.pfdsl/ 規約移行 (#14)</text>
</a>
</g>
<text xml:space="preserve" text-anchor="middle" x="593.61" y="-81.2" font-family="Times,serif" font-size="14.00">done, priority:high</text>
</g>
<!-- i17_graph_nav -->
<g id="node17" class="node">
<title>i17_graph_nav</title>
<g id="a_node17"><a xlink:title="大規模図の閲覧支援 (#17)">
<polygon fill="#f8f9fa" stroke="black" stroke-width="2" points="635.3,-882.8 476.9,-882.8 476.9,-824.4 635.3,-824.4 635.3,-882.8"/>
<text xml:space="preserve" text-anchor="middle" x="556.1" y="-866.2" font-family="Times,serif" font-size="14.00">i17_graph_nav</text>
<text xml:space="preserve" text-anchor="middle" x="556.1" y="-849.4" font-family="Times,serif" font-size="14.00">大規模図の閲覧支援 </text>
<text xml:space="preserve" text-anchor="middle" x="556.1" y="-832.6" font-family="Times,serif" font-size="14.00">(#17)</text>
</a>
</g>
<text xml:space="preserve" text-anchor="middle" x="464.45" y="-811.8" font-family="Times,serif" font-size="14.00">todo</text>
</g>
<!-- i37_orphan_lint -->
<g id="node19" class="node">
<title>i37_orphan_lint</title>
<g id="a_node19"><a xlink:title="孤児process検出lint (#37)&#10;&#10;check/audit が出力なき process・孤立ノードを検出する。終端監査の機械化（学習ループの lint 要件経路、dogfood #16 由来）">
<polygon fill="#f8f9fa" stroke="black" stroke-width="2" points="638.9,-805.8 473.3,-805.8 473.3,-747.4 638.9,-747.4 638.9,-805.8"/>
<text xml:space="preserve" text-anchor="middle" x="556.1" y="-789.2" font-family="Times,serif" font-size="14.00">i37_orphan_lint</text>
<text xml:space="preserve" text-anchor="middle" x="556.1" y="-772.4" font-family="Times,serif" font-size="14.00">孤児process検出lint </text>
<text xml:space="preserve" text-anchor="middle" x="556.1" y="-755.6" font-family="Times,serif" font-size="14.00">#37)</text>
</a>
</g>
<text xml:space="preserve" text-anchor="middle" x="460.85" y="-734.8" font-family="Times,serif" font-size="14.00">todo</text>
</g>
<!-- i52_featured_toolchain -->
<g id="node21" class="node">
<title>i52_featured_toolchain</title>
<g id="a_node21"><a xlink:title="spec v0.0.7 実装済みツールチェーン (#52)">
<polygon fill="#f8f9fa" stroke="black" points="1520.71,-435.2 1340.71,-435.2 1340.71,-360 1520.71,-360 1520.71,-435.2"/>
<text xml:space="preserve" text-anchor="middle" x="1430.71" y="-418.6" font-family="Times,serif" font-size="14.00">i52_featured_toolchain</text>
<text xml:space="preserve" text-anchor="middle" x="1430.71" y="-401.8" font-family="Times,serif" font-size="14.00">spec v0.0.7</text>
<text xml:space="preserve" text-anchor="middle" x="1430.71" y="-385" font-family="Times,serif" font-size="14.00">実装済みツールチェ</text>
<text xml:space="preserve" text-anchor="middle" x="1430.71" y="-368.2" font-family="Times,serif" font-size="14.00">ーン (#52)</text>
</a>
</g>
<text xml:space="preserve" text-anchor="middle" x="1328.26" y="-347.4" font-family="Times,serif" font-size="14.00">todo</text>
</g>
<!-- integrate_multifile -->
<g id="node28" class="node">
<title>integrate_multifile</title>
<g id="a_node28"><a xlink:title="マルチファイル仕様統合">
<ellipse fill="none" stroke="black" cx="1641.69" cy="-251.6" rx="84.98" ry="41.3"/>
<text xml:space="preserve" text-anchor="middle" x="1641.69" y="-264.2" font-family="Times,serif" font-size="14.00">integrate_multifile</text>
<text xml:space="preserve" text-anchor="middle" x="1641.69" y="-247.4" font-family="Times,serif" font-size="14.00">マルチファイル仕様</text>
<text xml:space="preserve" text-anchor="middle" x="1641.69" y="-230.6" font-family="Times,serif" font-size="14.00">統合</text>
</a>
</g>
</g>
<!-- i52_featured_toolchain&#45;&gt;integrate_multifile -->
<g id="edge28" class="edge">
<title>i52_featured_toolchain&#45;&gt;integrate_multifile</title>
<path fill="none" stroke="black" d="M1486.07,-359.62C1515.88,-338.79 1552.83,-312.98 1583.13,-291.81"/>
<polygon fill="black" stroke="black" points="1584.87,-294.87 1591.06,-286.27 1580.86,-289.13 1584.87,-294.87"/>
</g>
<!-- i5_hierarchy_spec&#45;&gt;integrate_multifile -->
<g id="edge25" class="edge">
<title>i5_hierarchy_spec&#45;&gt;integrate_multifile</title>
<path fill="none" stroke="black" d="M1506.57,-229.78C1520.56,-232.06 1535.34,-234.46 1549.76,-236.81"/>
<polygon fill="black" stroke="black" points="1548.78,-240.19 1559.21,-238.34 1549.9,-233.28 1548.78,-240.19"/>
</g>
<!-- i6_presets_spec&#45;&gt;integrate_multifile -->
<g id="edge26" class="edge">
<title>i6_presets_spec&#45;&gt;integrate_multifile</title>
<path fill="none" stroke="black" d="M1502.4,-179.12C1508.62,-181.92 1514.8,-184.77 1520.71,-187.6 1538.42,-196.08 1557.28,-205.81 1574.69,-215.08"/>
<polygon fill="black" stroke="black" points="1572.94,-218.11 1583.41,-219.75 1576.25,-211.94 1572.94,-218.11"/>
</g>
<!-- implement_graph_nav&#45;&gt;i17_graph_nav -->
<g id="edge43" class="edge">
<title>implement_graph_nav&#45;&gt;i17_graph_nav</title>
<path fill="none" stroke="black" d="M426.63,-853.6C439.31,-853.6 452.22,-853.6 464.74,-853.6"/>
<polygon fill="black" stroke="black" points="464.59,-857.1 474.59,-853.6 464.59,-850.1 464.59,-857.1"/>
</g>
<!-- lint_checker -->
<g id="node31" class="node">
<title>lint_checker</title>
<g id="a_node31"><a xlink:title="lint拡張checker (#4)&#10;&#10;lint 候補の完全リストは issue #4 が一次情報（本文+コメント）。ここに列挙しない — 列挙は同期漏れで腐るため">
<polygon fill="#d4edda" stroke="black" points="1043.77,-576.4 878.17,-576.4 878.17,-534.8 1043.77,-534.8 1043.77,-576.4"/>
<text xml:space="preserve" text-anchor="middle" x="960.97" y="-559.8" font-family="Times,serif" font-size="14.00">lint_checker</text>
<text xml:space="preserve" text-anchor="middle" x="960.97" y="-543" font-family="Times,serif" font-size="14.00">lint拡張checker (#4)</text>
</a>
</g>
<text xml:space="preserve" text-anchor="middle" x="864.56" y="-522.2" font-family="Times,serif" font-size="14.00">done</text>
</g>
<!-- implement_lints&#45;&gt;lint_checker -->
<g id="edge21" class="edge">
<title>implement_lints&#45;&gt;lint_checker</title>
<path fill="none" stroke="black" d="M399.17,-614.95C514.36,-602.76 739.46,-578.94 866.64,-565.48"/>
<polygon fill="black" stroke="black" points="866.8,-568.98 876.38,-564.45 866.07,-562.02 866.8,-568.98"/>
</g>
<!-- implement_orphan_lint&#45;&gt;i37_orphan_lint -->
<g id="edge49" class="edge">
<title>implement_orphan_lint&#45;&gt;i37_orphan_lint</title>
<path fill="none" stroke="black" d="M430.29,-776.6C440.58,-776.6 450.98,-776.6 461.16,-776.6"/>
<polygon fill="black" stroke="black" points="461.02,-780.1 471.02,-776.6 461.02,-773.1 461.02,-780.1"/>
</g>
<!-- implement_spec_features -->
<g id="node27" class="node">
<title>implement_spec_features</title>
<ellipse fill="none" stroke="black" cx="1192.24" cy="-410.6" rx="112.47" ry="29.42"/>
<text xml:space="preserve" text-anchor="middle" x="1192.24" y="-414.8" font-family="Times,serif" font-size="14.00">implement_spec_features</text>
<text xml:space="preserve" text-anchor="middle" x="1192.24" y="-398" font-family="Times,serif" font-size="14.00">新仕様実装</text>
</g>
<!-- implement_spec_features&#45;&gt;i52_featured_toolchain -->
<g id="edge24" class="edge">
<title>implement_spec_features&#45;&gt;i52_featured_toolchain</title>
<path fill="none" stroke="black" d="M1302.82,-404.58C1311.56,-404.1 1320.36,-403.61 1329.03,-403.13"/>
<polygon fill="black" stroke="black" points="1329.03,-406.64 1338.82,-402.6 1328.65,-399.65 1329.03,-406.64"/>
</g>
<!-- spec_v008 -->
<g id="node43" class="node">
<title>spec_v008</title>
<g id="a_node43"><a xlink:title="仕様書 v0.0.8（マルチファイル統合）">
<polygon fill="#f8f9fa" stroke="black" stroke-width="2" points="1906.68,-289.2 1762.68,-289.2 1762.68,-214 1906.68,-214 1906.68,-289.2"/>
<text xml:space="preserve" text-anchor="middle" x="1834.68" y="-272.6" font-family="Times,serif" font-size="14.00">spec_v008</text>
<text xml:space="preserve" text-anchor="middle" x="1834.68" y="-255.8" font-family="Times,serif" font-size="14.00">仕様書 v0.0</text>
<text xml:space="preserve" text-anchor="middle" x="1834.68" y="-239" font-family="Times,serif" font-size="14.00">8（マルチファイル</text>
<text xml:space="preserve" text-anchor="middle" x="1834.68" y="-222.2" font-family="Times,serif" font-size="14.00">統合）</text>
</a>
</g>
<text xml:space="preserve" text-anchor="middle" x="1750.23" y="-201.4" font-family="Times,serif" font-size="14.00">todo</text>
</g>
<!-- integrate_multifile&#45;&gt;spec_v008 -->
<g id="edge29" class="edge">
<title>integrate_multifile&#45;&gt;spec_v008</title>
<path fill="none" stroke="black" d="M1727.02,-251.6C1734.8,-251.6 1742.69,-251.6 1750.47,-251.6"/>
<polygon fill="black" stroke="black" points="1750.25,-255.1 1760.25,-251.6 1750.25,-248.1 1750.25,-255.1"/>
</g>
<!-- spec_v007 -->
<g id="node42" class="node">
<title>spec_v007</title>
<g id="a_node42"><a xlink:title="仕様書 v0.0.7（統合）">
<polygon fill="#fff3cd" stroke="black" points="1040.17,-439.8 881.77,-439.8 881.77,-381.4 1040.17,-381.4 1040.17,-439.8"/>
<text xml:space="preserve" text-anchor="middle" x="960.97" y="-423.2" font-family="Times,serif" font-size="14.00">spec_v007</text>
<text xml:space="preserve" text-anchor="middle" x="960.97" y="-406.4" font-family="Times,serif" font-size="14.00">仕様書 v0.0.7（統合</text>
<text xml:space="preserve" text-anchor="middle" x="960.97" y="-389.6" font-family="Times,serif" font-size="14.00">）</text>
</a>
</g>
<text xml:space="preserve" text-anchor="middle" x="871.27" y="-368.8" font-family="Times,serif" font-size="14.00">wip</text>
</g>
<!-- integrate_spec&#45;&gt;spec_v007 -->
<g id="edge17" class="edge">
<title>integrate_spec&#45;&gt;spec_v007</title>
<path fill="none" stroke="black" d="M830.87,-410.6C843.52,-410.6 856.91,-410.6 870.1,-410.6"/>
<polygon fill="black" stroke="black" points="870.1,-414.1 880.1,-410.6 870.1,-407.1 870.1,-414.1"/>
</g>
<!-- layer_audit_assets&#45;&gt;audit_distribution -->
<g id="edge35" class="edge">
<title>layer_audit_assets&#45;&gt;audit_distribution</title>
<path fill="none" stroke="black" d="M410.23,-699.6C429.09,-699.6 449.16,-699.6 468.16,-699.6"/>
<polygon fill="black" stroke="black" points="468.01,-703.1 478.01,-699.6 468.01,-696.1 468.01,-703.1"/>
</g>
<!-- lint_checker&#45;&gt;implement_spec_features -->
<g id="edge23" class="edge">
<title>lint_checker&#45;&gt;implement_spec_features</title>
<path fill="none" stroke="black" d="M995.31,-534.52C1032.83,-510.78 1094.3,-471.91 1138.39,-444.03"/>
<polygon fill="black" stroke="black" points="1140.21,-447.01 1146.79,-438.71 1136.47,-441.1 1140.21,-447.01"/>
</g>
<!-- location_spec&#45;&gt;integrate_spec -->
<g id="edge15" class="edge">
<title>location_spec&#45;&gt;integrate_spec</title>
<path fill="none" stroke="black" d="M613.12,-488.95C642.67,-473.3 678.73,-454.22 707.86,-438.8"/>
<polygon fill="black" stroke="black" points="709.31,-441.99 716.51,-434.22 706.04,-435.8 709.31,-441.99"/>
</g>
<!-- migrate_convention&#45;&gt;i14_dir_convention -->
<g id="edge37" class="edge">
<title>migrate_convention&#45;&gt;i14_dir_convention</title>
<path fill="none" stroke="black" d="M416.74,-114.6C428.96,-114.6 441.58,-114.6 453.98,-114.6"/>
<polygon fill="black" stroke="black" points="453.79,-118.1 463.79,-114.6 453.79,-111.1 453.79,-118.1"/>
</g>
<!-- multifile_policy&#45;&gt;integrate_multifile -->
<g id="edge27" class="edge">
<title>multifile_policy&#45;&gt;integrate_multifile</title>
<path fill="none" stroke="black" d="M1506.57,-273.42C1520.56,-271.14 1535.34,-268.74 1549.76,-266.39"/>
<polygon fill="black" stroke="black" points="1549.9,-269.92 1559.21,-264.86 1548.78,-263.01 1549.9,-269.92"/>
</g>
<!-- published_cli -->
<g id="node36" class="node">
<title>published_cli</title>
<g id="a_node36"><a xlink:title="npm公開済みCLI&#10;&#10;@pfdsl/cli 0.0.3 公開済み（roadmap の cli_published に対応）。npm install &#45;g @pfdsl/cli で利用可">
<polygon fill="#d4edda" stroke="black" points="617.3,-1129.4 494.9,-1129.4 494.9,-1087.8 617.3,-1087.8 617.3,-1129.4"/>
<text xml:space="preserve" text-anchor="middle" x="556.1" y="-1112.8" font-family="Times,serif" font-size="14.00">published_cli</text>
<text xml:space="preserve" text-anchor="middle" x="556.1" y="-1096" font-family="Times,serif" font-size="14.00">npm公開済みCLI</text>
</a>
</g>
<text xml:space="preserve" text-anchor="middle" x="481.29" y="-1075.2" font-family="Times,serif" font-size="14.00">done</text>
</g>
<!-- publish_cli&#45;&gt;published_cli -->
<g id="edge33" class="edge">
<title>publish_cli&#45;&gt;published_cli</title>
<path fill="none" stroke="black" d="M381.53,-1108.6C411.96,-1108.6 450.23,-1108.6 483.08,-1108.6"/>
<polygon fill="black" stroke="black" points="482.94,-1112.1 492.94,-1108.6 482.94,-1105.1 482.94,-1112.1"/>
</g>
<!-- published_cli&#45;&gt;automate_pr_diff -->
<g id="edge44" class="edge">
<title>published_cli&#45;&gt;automate_pr_diff</title>
<path fill="none" stroke="black" d="M617.76,-1108.6C634.32,-1108.6 652.62,-1108.6 670.46,-1108.6"/>
<polygon fill="black" stroke="black" points="670.27,-1112.1 680.27,-1108.6 670.27,-1105.1 670.27,-1112.1"/>
</g>
<!-- restructure_skillgen -->
<g id="node37" class="node">
<title>restructure_skillgen</title>
<ellipse fill="none" stroke="black" cx="325.86" cy="-1185.6" rx="89.93" ry="29.42"/>
<text xml:space="preserve" text-anchor="middle" x="325.86" y="-1189.8" font-family="Times,serif" font-size="14.00">restructure_skillgen</text>
<text xml:space="preserve" text-anchor="middle" x="325.86" y="-1173" font-family="Times,serif" font-size="14.00">生成系再構成</text>
</g>
<!-- restructured_gen -->
<g id="node38" class="node">
<title>restructured_gen</title>
<g id="a_node38"><a xlink:title="再構成済みスキル生成系 (#10)">
<polygon fill="#d4edda" stroke="black" stroke-width="2" points="631.7,-1214.8 480.5,-1214.8 480.5,-1156.4 631.7,-1156.4 631.7,-1214.8"/>
<text xml:space="preserve" text-anchor="middle" x="556.1" y="-1198.2" font-family="Times,serif" font-size="14.00">restructured_gen</text>
<text xml:space="preserve" text-anchor="middle" x="556.1" y="-1181.4" font-family="Times,serif" font-size="14.00">再構成済みスキル生</text>
<text xml:space="preserve" text-anchor="middle" x="556.1" y="-1164.6" font-family="Times,serif" font-size="14.00">成系 (#10)</text>
</a>
</g>
<text xml:space="preserve" text-anchor="middle" x="466.89" y="-1143.8" font-family="Times,serif" font-size="14.00">done</text>
</g>
<!-- restructure_skillgen&#45;&gt;restructured_gen -->
<g id="edge31" class="edge">
<title>restructure_skillgen&#45;&gt;restructured_gen</title>
<path fill="none" stroke="black" d="M416.08,-1185.6C433.31,-1185.6 451.34,-1185.6 468.48,-1185.6"/>
<polygon fill="black" stroke="black" points="468.09,-1189.1 478.09,-1185.6 468.09,-1182.1 468.09,-1189.1"/>
</g>
<!-- revises_spec&#45;&gt;integrate_spec -->
<g id="edge14" class="edge">
<title>revises_spec&#45;&gt;integrate_spec</title>
<path fill="none" stroke="black" d="M635.69,-422.9C651.41,-421.36 667.91,-419.74 683.59,-418.2"/>
<polygon fill="black" stroke="black" points="683.73,-421.7 693.34,-417.25 683.05,-414.74 683.73,-421.7"/>
</g>
<!-- skill_gen -->
<g id="node40" class="node">
<title>skill_gen</title>
<g id="a_node40"><a xlink:title="スキル生成系（現行）&#10;&#10;scripts/gen&#45;skill.mjs と docs/samples 構成">
<polygon fill="#d4edda" stroke="black" stroke-width="2" points="182.01,-1214.8 30.81,-1214.8 30.81,-1156.4 182.01,-1156.4 182.01,-1214.8"/>
<text xml:space="preserve" text-anchor="middle" x="106.41" y="-1198.2" font-family="Times,serif" font-size="14.00">skill_gen</text>
<text xml:space="preserve" text-anchor="middle" x="106.41" y="-1181.4" font-family="Times,serif" font-size="14.00">スキル生成系（現行</text>
<text xml:space="preserve" text-anchor="middle" x="106.41" y="-1164.6" font-family="Times,serif" font-size="14.00">）</text>
</a>
</g>
<text xml:space="preserve" text-anchor="middle" x="17.21" y="-1143.8" font-family="Times,serif" font-size="14.00">done</text>
</g>
<!-- skill_gen&#45;&gt;restructure_skillgen -->
<g id="edge30" class="edge">
<title>skill_gen&#45;&gt;restructure_skillgen</title>
<path fill="none" stroke="black" d="M182.85,-1185.6C196.31,-1185.6 210.51,-1185.6 224.53,-1185.6"/>
<polygon fill="black" stroke="black" points="224.2,-1189.1 234.2,-1185.6 224.2,-1182.1 224.2,-1189.1"/>
</g>
<!-- spec_v006 -->
<g id="node41" class="node">
<title>spec_v006</title>
<polygon fill="#d4edda" stroke="black" stroke-width="2" points="164.01,-408.4 48.81,-408.4 48.81,-366.8 164.01,-366.8 164.01,-408.4"/>
<text xml:space="preserve" text-anchor="middle" x="106.41" y="-391.8" font-family="Times,serif" font-size="14.00">spec_v006</text>
<text xml:space="preserve" text-anchor="middle" x="106.41" y="-375" font-family="Times,serif" font-size="14.00">仕様書 v0.0.6</text>
<text xml:space="preserve" text-anchor="middle" x="35.21" y="-354.2" font-family="Times,serif" font-size="14.00">done</text>
</g>
<!-- spec_v006&#45;&gt;draft_criteria -->
<g id="edge5" class="edge">
<title>spec_v006&#45;&gt;draft_criteria</title>
<path fill="none" stroke="black" d="M133.34,-365.96C155.68,-348.07 189.34,-322.89 221.61,-305.6 233.29,-299.34 246.19,-293.62 258.8,-288.6"/>
<polygon fill="black" stroke="black" points="259.81,-291.96 267.88,-285.1 257.29,-285.43 259.81,-291.96"/>
</g>
<!-- spec_v006&#45;&gt;draft_location -->
<g id="edge9" class="edge">
<title>spec_v006&#45;&gt;draft_location</title>
<path fill="none" stroke="black" d="M130.21,-409.33C152.4,-429.8 187.66,-460.53 221.61,-482.6 231.27,-488.87 241.8,-494.91 252.34,-500.49"/>
<polygon fill="black" stroke="black" points="250.57,-503.52 261.06,-505 253.78,-497.3 250.57,-503.52"/>
</g>
<!-- spec_v006&#45;&gt;draft_multifile_specs -->
<g id="edge1" class="edge">
<title>spec_v006&#45;&gt;draft_multifile_specs</title>
<path fill="none" stroke="black" d="M113.91,-365.81C127.01,-326.07 160.69,-242.44 221.61,-204.6 348.14,-126.02 406.16,-171.6 555.1,-171.6 555.1,-171.6 555.1,-171.6 763.13,-171.6 873.07,-171.6 998.83,-175.6 1085.46,-178.99"/>
<polygon fill="black" stroke="black" points="1085.24,-182.48 1095.37,-179.38 1085.52,-175.48 1085.24,-182.48"/>
</g>
<!-- spec_v006&#45;&gt;draft_revises -->
<g id="edge7" class="edge">
<title>spec_v006&#45;&gt;draft_revises</title>
<path fill="none" stroke="black" d="M164.83,-399.48C188.28,-404.34 215.87,-410.05 241.48,-415.34"/>
<polygon fill="black" stroke="black" points="240.71,-418.76 251.21,-417.36 242.13,-411.9 240.71,-418.76"/>
</g>
<!-- spec_v006&#45;&gt;implement_lints -->
<g id="edge18" class="edge">
<title>spec_v006&#45;&gt;implement_lints</title>
<path fill="none" stroke="black" d="M114.54,-409.38C128.7,-449.38 164.04,-534.89 221.61,-583.6 230.43,-591.06 240.81,-597.16 251.53,-602.14"/>
<polygon fill="black" stroke="black" points="249.92,-605.26 260.49,-605.98 252.68,-598.82 249.92,-605.26"/>
</g>
<!-- spec_v006&#45;&gt;integrate_spec -->
<g id="edge50" class="edge">
<title>spec_v006&#45;&gt;integrate_spec</title>
<path fill="none" stroke="#888888" stroke-dasharray="5,2" d="M115.27,-366.08C129.82,-329.84 164.76,-257.76 221.61,-228.6 304.06,-186.31 337.51,-224.96 430.1,-228.6 526.32,-232.38 562.54,-197.73 646.1,-245.6 694.84,-273.53 727.75,-331.51 745.48,-370.75"/>
<polygon fill="#888888" stroke="#888888" points="742.26,-372.13 749.47,-379.89 748.68,-369.33 742.26,-372.13"/>
</g>
<!-- write_design_notes -->
<g id="node45" class="node">
<title>write_design_notes</title>
<ellipse fill="none" stroke="black" cx="325.86" cy="-343.6" rx="88.3" ry="29.42"/>
<text xml:space="preserve" text-anchor="middle" x="325.86" y="-347.8" font-family="Times,serif" font-size="14.00">write_design_notes</text>
<text xml:space="preserve" text-anchor="middle" x="325.86" y="-331" font-family="Times,serif" font-size="14.00">設計ノート執筆</text>
</g>
<!-- spec_v006&#45;&gt;write_design_notes -->
<g id="edge11" class="edge">
<title>spec_v006&#45;&gt;write_design_notes</title>
<path fill="none" stroke="black" d="M164.83,-375.98C187.31,-371.43 213.58,-366.12 238.26,-361.12"/>
<polygon fill="black" stroke="black" points="238.88,-364.57 247.99,-359.15 237.49,-357.71 238.88,-364.57"/>
</g>
<!-- spec_v007&#45;&gt;implement_spec_features -->
<g id="edge22" class="edge">
<title>spec_v007&#45;&gt;implement_spec_features</title>
<path fill="none" stroke="black" d="M1040.55,-410.6C1049.49,-410.6 1058.75,-410.6 1068.09,-410.6"/>
<polygon fill="black" stroke="black" points="1067.99,-414.1 1077.99,-410.6 1067.99,-407.1 1067.99,-414.1"/>
</g>
<!-- write_article&#45;&gt;i12_article -->
<g id="edge39" class="edge">
<title>write_article&#45;&gt;i12_article</title>
<path fill="none" stroke="black" d="M387.42,-37.6C416.7,-37.6 452.06,-37.6 482.74,-37.6"/>
<polygon fill="black" stroke="black" points="482.74,-41.1 492.74,-37.6 482.74,-34.1 482.74,-41.1"/>
</g>
<!-- write_design_notes&#45;&gt;design_notes -->
<g id="edge12" class="edge">
<title>write_design_notes&#45;&gt;design_notes</title>
<path fill="none" stroke="black" d="M414.12,-346.28C432.07,-346.83 450.95,-347.41 468.86,-347.96"/>
<polygon fill="black" stroke="black" points="468.55,-351.45 478.65,-348.26 468.76,-344.45 468.55,-351.45"/>
</g>
</g>
</svg>
