<?xml version="1.0" encoding="UTF-8" standalone="no"?>
<!DOCTYPE svg PUBLIC "-//W3C//DTD SVG 1.1//EN"
 "http://www.w3.org/Graphics/SVG/1.1/DTD/svg11.dtd">
<!-- Generated by graphviz version 15.0.0 (0)
 -->
<!-- Title: PFDSL Pages: 1 -->
<svg width="1848pt" height="1170pt"
 viewBox="0.00 0.00 1848.00 1170.00" xmlns="http://www.w3.org/2000/svg" xmlns:xlink="http://www.w3.org/1999/xlink">
<g id="graph0" class="graph" transform="scale(1 1) rotate(0) translate(4 1165.82)">
<title>PFDSL</title>
<polygon fill="white" stroke="none" points="-4,4 -4,-1165.82 1844.37,-1165.82 1844.37,4 -4,4"/>
<text xml:space="preserve" text-anchor="middle" x="920.19" y="-1145.22" font-family="Times,serif" font-size="14.00">Issue 依存フロー（2026&#45;06）</text>
<!-- adr_corpus -->
<g id="node1" class="node">
<title>adr_corpus</title>
<g id="a_node1"><a xlink:title="ADR 群 (docs/adr)&#10;&#10;方法論の設計決定記録。一覧と本数は docs/adr/README.md が一次情報（ここに数を書かない — ドリフトするため）">
<polygon fill="#d4edda" stroke="black" stroke-width="2" points="178.41,-58.4 34.41,-58.4 34.41,-16.8 178.41,-16.8 178.41,-58.4"/>
<text xml:space="preserve" text-anchor="middle" x="106.41" y="-41.8" font-family="Times,serif" font-size="14.00">adr_corpus</text>
<text xml:space="preserve" text-anchor="middle" x="106.41" y="-25" font-family="Times,serif" font-size="14.00">ADR 群 (docs/adr)</text>
</a>
</g>
<text xml:space="preserve" text-anchor="middle" x="20.81" y="-4.2" font-family="Times,serif" font-size="14.00">done</text>
</g>
<!-- write_article -->
<g id="node40" class="node">
<title>write_article</title>
<ellipse fill="none" stroke="black" cx="325.86" cy="-37.6" rx="61.33" ry="29.42"/>
<text xml:space="preserve" text-anchor="middle" x="325.86" y="-41.8" font-family="Times,serif" font-size="14.00">write_article</text>
<text xml:space="preserve" text-anchor="middle" x="325.86" y="-25" font-family="Times,serif" font-size="14.00">記事執筆</text>
</g>
<!-- adr_corpus&#45;&gt;write_article -->
<g id="edge36" class="edge">
<title>adr_corpus&#45;&gt;write_article</title>
<path fill="none" stroke="black" d="M179.22,-37.6C202.82,-37.6 229.05,-37.6 252.68,-37.6"/>
<polygon fill="black" stroke="black" points="252.53,-41.1 262.53,-37.6 252.53,-34.1 252.53,-41.1"/>
</g>
<!-- audit_distribution -->
<g id="node2" class="node">
<title>audit_distribution</title>
<g id="a_node2"><a xlink:title="L3資産の階層化配布 (#43)&#10;&#10;audit コア + flow&#45;sync action を skill 同梱・配布可能化。scripts/lib/issues&#45;flow&#45;audit.mjs を #37 と共有するため着手順を調整。実配布フローは #11">
<polygon fill="#d4edda" stroke="black" stroke-width="2" points="624.5,-828.8 473.3,-828.8 473.3,-770.4 624.5,-770.4 624.5,-828.8"/>
<text xml:space="preserve" text-anchor="middle" x="548.9" y="-812.2" font-family="Times,serif" font-size="14.00">audit_distribution</text>
<text xml:space="preserve" text-anchor="middle" x="548.9" y="-795.4" font-family="Times,serif" font-size="14.00">L3資産の階層化配布</text>
<text xml:space="preserve" text-anchor="middle" x="548.9" y="-778.6" font-family="Times,serif" font-size="14.00"> (#43)</text>
</a>
</g>
<text xml:space="preserve" text-anchor="middle" x="459.69" y="-757.8" font-family="Times,serif" font-size="14.00">done</text>
</g>
<!-- build_obsidian_plugin -->
<g id="node3" class="node">
<title>build_obsidian_plugin</title>
<g id="a_node3"><a xlink:title="Obsidianプラグイン実装">
<ellipse fill="none" stroke="black" cx="325.86" cy="-710.6" rx="100.41" ry="41.3"/>
<text xml:space="preserve" text-anchor="middle" x="325.86" y="-723.2" font-family="Times,serif" font-size="14.00">build_obsidian_plugin</text>
<text xml:space="preserve" text-anchor="middle" x="325.86" y="-706.4" font-family="Times,serif" font-size="14.00">Obsidianプラグイン</text>
<text xml:space="preserve" text-anchor="middle" x="325.86" y="-689.6" font-family="Times,serif" font-size="14.00">実装</text>
</a>
</g>
</g>
<!-- i3_obsidian_plugin -->
<g id="node18" class="node">
<title>i3_obsidian_plugin</title>
<g id="a_node18"><a xlink:title="Obsidian プラグイン (#3)">
<polygon fill="#f8f9fa" stroke="black" stroke-width="2" points="631.7,-739.8 466.1,-739.8 466.1,-681.4 631.7,-681.4 631.7,-739.8"/>
<text xml:space="preserve" text-anchor="middle" x="548.9" y="-723.2" font-family="Times,serif" font-size="14.00">i3_obsidian_plugin</text>
<text xml:space="preserve" text-anchor="middle" x="548.9" y="-706.4" font-family="Times,serif" font-size="14.00">Obsidian プラグイン </text>
<text xml:space="preserve" text-anchor="middle" x="548.9" y="-689.6" font-family="Times,serif" font-size="14.00">(#3)</text>
</a>
</g>
<text xml:space="preserve" text-anchor="middle" x="453.65" y="-668.8" font-family="Times,serif" font-size="14.00">todo</text>
</g>
<!-- build_obsidian_plugin&#45;&gt;i3_obsidian_plugin -->
<g id="edge43" class="edge">
<title>build_obsidian_plugin&#45;&gt;i3_obsidian_plugin</title>
<path fill="none" stroke="black" d="M426.71,-710.6C435.8,-710.6 444.98,-710.6 454.02,-710.6"/>
<polygon fill="black" stroke="black" points="453.85,-714.1 463.85,-710.6 453.85,-707.1 453.85,-714.1"/>
</g>
<!-- cli_tool -->
<g id="node4" class="node">
<title>cli_tool</title>
<polygon fill="#d4edda" stroke="black" stroke-width="2" points="174.81,-820.4 38.01,-820.4 38.01,-778.8 174.81,-778.8 174.81,-820.4"/>
<text xml:space="preserve" text-anchor="middle" x="106.41" y="-803.8" font-family="Times,serif" font-size="14.00">cli_tool</text>
<text xml:space="preserve" text-anchor="middle" x="106.41" y="-787" font-family="Times,serif" font-size="14.00">CLI 実装（現行）</text>
<text xml:space="preserve" text-anchor="middle" x="24.41" y="-766.2" font-family="Times,serif" font-size="14.00">done</text>
</g>
<!-- cli_tool&#45;&gt;build_obsidian_plugin -->
<g id="edge42" class="edge">
<title>cli_tool&#45;&gt;build_obsidian_plugin</title>
<path fill="none" stroke="black" d="M160.61,-777.83C185.47,-767.65 215.62,-755.31 243.28,-743.99"/>
<polygon fill="black" stroke="black" points="244.41,-747.31 252.34,-740.28 241.76,-740.83 244.41,-747.31"/>
</g>
<!-- fill_group_clusters -->
<g id="node12" class="node">
<title>fill_group_clusters</title>
<ellipse fill="none" stroke="black" cx="325.86" cy="-621.6" rx="86.1" ry="29.42"/>
<text xml:space="preserve" text-anchor="middle" x="325.86" y="-625.8" font-family="Times,serif" font-size="14.00">fill_group_clusters</text>
<text xml:space="preserve" text-anchor="middle" x="325.86" y="-609" font-family="Times,serif" font-size="14.00">クラスタ塗り実装</text>
</g>
<!-- cli_tool&#45;&gt;fill_group_clusters -->
<g id="edge38" class="edge">
<title>cli_tool&#45;&gt;fill_group_clusters</title>
<path fill="none" stroke="black" d="M120.02,-778.03C138.66,-747.85 176.31,-693.09 221.61,-660.6 229.9,-654.66 239.21,-649.5 248.75,-645.05"/>
<polygon fill="black" stroke="black" points="250.01,-648.32 257.78,-641.12 247.21,-641.91 250.01,-648.32"/>
</g>
<!-- implement_graph_nav -->
<g id="node21" class="node">
<title>implement_graph_nav</title>
<ellipse fill="none" stroke="black" cx="325.86" cy="-1030.6" rx="100.38" ry="29.42"/>
<text xml:space="preserve" text-anchor="middle" x="325.86" y="-1034.8" font-family="Times,serif" font-size="14.00">implement_graph_nav</text>
<text xml:space="preserve" text-anchor="middle" x="325.86" y="-1018" font-family="Times,serif" font-size="14.00">閲覧支援実装</text>
</g>
<!-- cli_tool&#45;&gt;implement_graph_nav -->
<g id="edge40" class="edge">
<title>cli_tool&#45;&gt;implement_graph_nav</title>
<path fill="none" stroke="black" d="M114.78,-821.24C129.22,-860.55 164.85,-944.01 221.61,-991.6 227.77,-996.76 234.68,-1001.28 241.93,-1005.23"/>
<polygon fill="black" stroke="black" points="240.13,-1008.24 250.64,-1009.58 243.26,-1001.98 240.13,-1008.24"/>
</g>
<!-- implement_lints -->
<g id="node22" class="node">
<title>implement_lints</title>
<ellipse fill="none" stroke="black" cx="325.86" cy="-544.6" rx="75.66" ry="29.42"/>
<text xml:space="preserve" text-anchor="middle" x="325.86" y="-548.8" font-family="Times,serif" font-size="14.00">implement_lints</text>
<text xml:space="preserve" text-anchor="middle" x="325.86" y="-532" font-family="Times,serif" font-size="14.00">lint実装</text>
</g>
<!-- cli_tool&#45;&gt;implement_lints -->
<g id="edge20" class="edge">
<title>cli_tool&#45;&gt;implement_lints</title>
<path fill="none" stroke="black" d="M113.21,-777.97C125.79,-735 159.58,-638.32 221.61,-583.6 230.22,-576.01 240.44,-569.84 251.06,-564.84"/>
<polygon fill="black" stroke="black" points="252.15,-568.18 259.93,-560.99 249.36,-561.76 252.15,-568.18"/>
</g>
<!-- implement_orphan_lint -->
<g id="node23" class="node">
<title>implement_orphan_lint</title>
<ellipse fill="none" stroke="black" cx="325.86" cy="-953.6" rx="104.24" ry="29.42"/>
<text xml:space="preserve" text-anchor="middle" x="325.86" y="-957.8" font-family="Times,serif" font-size="14.00">implement_orphan_lint</text>
<text xml:space="preserve" text-anchor="middle" x="325.86" y="-941" font-family="Times,serif" font-size="14.00">孤児検出lint実装</text>
</g>
<!-- cli_tool&#45;&gt;implement_orphan_lint -->
<g id="edge44" class="edge">
<title>cli_tool&#45;&gt;implement_orphan_lint</title>
<path fill="none" stroke="black" d="M123.83,-821.01C144.28,-846.41 181.47,-888.59 221.61,-914.6 228.66,-919.16 236.31,-923.31 244.17,-927.04"/>
<polygon fill="black" stroke="black" points="242.63,-930.19 253.19,-931.1 245.5,-923.81 242.63,-930.19"/>
</g>
<!-- layer_audit_assets -->
<g id="node27" class="node">
<title>layer_audit_assets</title>
<ellipse fill="none" stroke="black" cx="325.86" cy="-799.6" rx="83.89" ry="29.42"/>
<text xml:space="preserve" text-anchor="middle" x="325.86" y="-803.8" font-family="Times,serif" font-size="14.00">layer_audit_assets</text>
<text xml:space="preserve" text-anchor="middle" x="325.86" y="-787" font-family="Times,serif" font-size="14.00">L3資産階層化</text>
</g>
<!-- cli_tool&#45;&gt;layer_audit_assets -->
<g id="edge34" class="edge">
<title>cli_tool&#45;&gt;layer_audit_assets</title>
<path fill="none" stroke="black" d="M175.62,-799.6C192.95,-799.6 211.88,-799.6 230.26,-799.6"/>
<polygon fill="black" stroke="black" points="230.1,-803.1 240.1,-799.6 230.1,-796.1 230.1,-803.1"/>
</g>
<!-- publish_cli -->
<g id="node31" class="node">
<title>publish_cli</title>
<ellipse fill="none" stroke="black" cx="325.86" cy="-876.6" rx="55.31" ry="29.42"/>
<text xml:space="preserve" text-anchor="middle" x="325.86" y="-880.8" font-family="Times,serif" font-size="14.00">publish_cli</text>
<text xml:space="preserve" text-anchor="middle" x="325.86" y="-864" font-family="Times,serif" font-size="14.00">CLI公開</text>
</g>
<!-- cli_tool&#45;&gt;publish_cli -->
<g id="edge32" class="edge">
<title>cli_tool&#45;&gt;publish_cli</title>
<path fill="none" stroke="black" d="M168.85,-821.36C200.2,-832.46 238.05,-845.86 268.62,-856.69"/>
<polygon fill="black" stroke="black" points="267.09,-859.86 277.68,-859.89 269.42,-853.26 267.09,-859.86"/>
</g>
<!-- criteria_spec -->
<g id="node5" class="node">
<title>criteria_spec</title>
<polygon fill="#d4edda" stroke="black" points="628.1,-449.4 469.7,-449.4 469.7,-407.8 628.1,-407.8 628.1,-449.4"/>
<text xml:space="preserve" text-anchor="middle" x="548.9" y="-432.8" font-family="Times,serif" font-size="14.00">criteria_spec</text>
<text xml:space="preserve" text-anchor="middle" x="548.9" y="-416" font-family="Times,serif" font-size="14.00">合否基準仕様案 (#7)</text>
<text xml:space="preserve" text-anchor="middle" x="456.09" y="-395.2" font-family="Times,serif" font-size="14.00">done</text>
</g>
<!-- integrate_spec -->
<g id="node26" class="node">
<title>integrate_spec</title>
<ellipse fill="none" stroke="black" cx="736.18" cy="-316.6" rx="68.48" ry="29.42"/>
<text xml:space="preserve" text-anchor="middle" x="736.18" y="-320.8" font-family="Times,serif" font-size="14.00">integrate_spec</text>
<text xml:space="preserve" text-anchor="middle" x="736.18" y="-304" font-family="Times,serif" font-size="14.00">仕様統合</text>
</g>
<!-- criteria_spec&#45;&gt;integrate_spec -->
<g id="edge13" class="edge">
<title>criteria_spec&#45;&gt;integrate_spec</title>
<path fill="none" stroke="black" d="M597.75,-407.45C609.08,-402 620.97,-395.88 631.7,-389.6 652.38,-377.49 674.21,-362.46 692.46,-349.19"/>
<polygon fill="black" stroke="black" points="694.45,-352.07 700.43,-343.33 690.3,-346.43 694.45,-352.07"/>
</g>
<!-- design_notes -->
<g id="node6" class="node">
<title>design_notes</title>
<g id="a_node6"><a xlink:title="設計判断ノート・分岐なし方針 (#9)">
<polygon fill="#d4edda" stroke="black" points="624.5,-345.8 473.3,-345.8 473.3,-287.4 624.5,-287.4 624.5,-345.8"/>
<text xml:space="preserve" text-anchor="middle" x="548.9" y="-329.2" font-family="Times,serif" font-size="14.00">design_notes</text>
<text xml:space="preserve" text-anchor="middle" x="548.9" y="-312.4" font-family="Times,serif" font-size="14.00">設計判断ノート・分</text>
<text xml:space="preserve" text-anchor="middle" x="548.9" y="-295.6" font-family="Times,serif" font-size="14.00">岐なし方針 (#9)</text>
</a>
</g>
<text xml:space="preserve" text-anchor="middle" x="459.69" y="-274.8" font-family="Times,serif" font-size="14.00">done</text>
</g>
<!-- design_notes&#45;&gt;integrate_spec -->
<g id="edge16" class="edge">
<title>design_notes&#45;&gt;integrate_spec</title>
<path fill="none" stroke="black" d="M624.99,-316.6C635.2,-316.6 645.69,-316.6 655.97,-316.6"/>
<polygon fill="black" stroke="black" points="655.93,-320.1 665.93,-316.6 655.93,-313.1 655.93,-320.1"/>
</g>
<!-- draft_criteria -->
<g id="node7" class="node">
<title>draft_criteria</title>
<ellipse fill="none" stroke="black" cx="325.86" cy="-430.6" rx="70.71" ry="29.42"/>
<text xml:space="preserve" text-anchor="middle" x="325.86" y="-434.8" font-family="Times,serif" font-size="14.00">draft_criteria</text>
<text xml:space="preserve" text-anchor="middle" x="325.86" y="-418" font-family="Times,serif" font-size="14.00">合否基準仕様起草</text>
</g>
<!-- draft_criteria&#45;&gt;criteria_spec -->
<g id="edge6" class="edge">
<title>draft_criteria&#45;&gt;criteria_spec</title>
<path fill="none" stroke="black" d="M396.8,-429.97C416.32,-429.79 437.82,-429.6 458.31,-429.41"/>
<polygon fill="black" stroke="black" points="458.1,-432.91 468.06,-429.32 458.03,-425.91 458.1,-432.91"/>
</g>
<!-- draft_location -->
<g id="node8" class="node">
<title>draft_location</title>
<g id="a_node8"><a xlink:title="location/command 起草">
<ellipse fill="none" stroke="black" cx="325.86" cy="-227.6" rx="84.99" ry="41.3"/>
<text xml:space="preserve" text-anchor="middle" x="325.86" y="-240.2" font-family="Times,serif" font-size="14.00">draft_location</text>
<text xml:space="preserve" text-anchor="middle" x="325.86" y="-223.4" font-family="Times,serif" font-size="14.00">location/command</text>
<text xml:space="preserve" text-anchor="middle" x="325.86" y="-206.6" font-family="Times,serif" font-size="14.00">起草</text>
</a>
</g>
</g>
<!-- location_spec -->
<g id="node29" class="node">
<title>location_spec</title>
<g id="a_node29"><a xlink:title="location/command 仕様案 (#13)&#10;&#10;ノードと実ファイル・実行手順を結ぶメタデータ。パス解決規則のみ multifile 方針と接点">
<polygon fill="#d4edda" stroke="black" points="617.3,-263.8 480.5,-263.8 480.5,-205.4 617.3,-205.4 617.3,-263.8"/>
<text xml:space="preserve" text-anchor="middle" x="548.9" y="-247.2" font-family="Times,serif" font-size="14.00">location_spec</text>
<text xml:space="preserve" text-anchor="middle" x="548.9" y="-230.4" font-family="Times,serif" font-size="14.00">location/command</text>
<text xml:space="preserve" text-anchor="middle" x="548.9" y="-213.6" font-family="Times,serif" font-size="14.00">仕様案 (#13)</text>
</a>
</g>
<text xml:space="preserve" text-anchor="middle" x="466.89" y="-192.8" font-family="Times,serif" font-size="14.00">done</text>
</g>
<!-- draft_location&#45;&gt;location_spec -->
<g id="edge10" class="edge">
<title>draft_location&#45;&gt;location_spec</title>
<path fill="none" stroke="black" d="M411.05,-230.27C429.95,-230.86 449.93,-231.5 468.62,-232.09"/>
<polygon fill="black" stroke="black" points="468.44,-235.59 478.55,-232.4 468.66,-228.59 468.44,-235.59"/>
</g>
<!-- draft_multifile_specs -->
<g id="node9" class="node">
<title>draft_multifile_specs</title>
<g id="a_node9"><a xlink:title="階層・プリセット共同起草&#10;&#10;#5 と #6 は決定が往復で形成される相互依存のため分割せず共同設計する。共有決定は方針記録として外化">
<ellipse fill="none" stroke="black" cx="1154.73" cy="-487.6" rx="95.44" ry="41.3"/>
<text xml:space="preserve" text-anchor="middle" x="1154.73" y="-500.2" font-family="Times,serif" font-size="14.00">draft_multifile_specs</text>
<text xml:space="preserve" text-anchor="middle" x="1154.73" y="-483.4" font-family="Times,serif" font-size="14.00">階層・プリセット共</text>
<text xml:space="preserve" text-anchor="middle" x="1154.73" y="-466.6" font-family="Times,serif" font-size="14.00">同起草</text>
</a>
</g>
</g>
<!-- i5_hierarchy_spec -->
<g id="node19" class="node">
<title>i5_hierarchy_spec</title>
<polygon fill="#f8f9fa" stroke="black" points="1454.4,-576.4 1303.2,-576.4 1303.2,-534.8 1454.4,-534.8 1454.4,-576.4"/>
<text xml:space="preserve" text-anchor="middle" x="1378.8" y="-559.8" font-family="Times,serif" font-size="14.00">i5_hierarchy_spec</text>
<text xml:space="preserve" text-anchor="middle" x="1378.8" y="-543" font-family="Times,serif" font-size="14.00">階層PFD仕様案 (#5)</text>
<text xml:space="preserve" text-anchor="middle" x="1290.76" y="-522.2" font-family="Times,serif" font-size="14.00">todo</text>
</g>
<!-- draft_multifile_specs&#45;&gt;i5_hierarchy_spec -->
<g id="edge2" class="edge">
<title>draft_multifile_specs&#45;&gt;i5_hierarchy_spec</title>
<path fill="none" stroke="black" d="M1233.4,-511.38C1254.17,-517.74 1276.66,-524.63 1297.56,-531.03"/>
<polygon fill="black" stroke="black" points="1296.3,-534.3 1306.89,-533.88 1298.35,-527.61 1296.3,-534.3"/>
</g>
<!-- i6_presets_spec -->
<g id="node20" class="node">
<title>i6_presets_spec</title>
<g id="a_node20"><a xlink:title="共有プリセット仕様案 (#6)">
<polygon fill="#f8f9fa" stroke="black" points="1454.4,-516.8 1303.2,-516.8 1303.2,-458.4 1454.4,-458.4 1454.4,-516.8"/>
<text xml:space="preserve" text-anchor="middle" x="1378.8" y="-500.2" font-family="Times,serif" font-size="14.00">i6_presets_spec</text>
<text xml:space="preserve" text-anchor="middle" x="1378.8" y="-483.4" font-family="Times,serif" font-size="14.00">共有プリセット仕様</text>
<text xml:space="preserve" text-anchor="middle" x="1378.8" y="-466.6" font-family="Times,serif" font-size="14.00">案 (#6)</text>
</a>
</g>
<text xml:space="preserve" text-anchor="middle" x="1290.76" y="-445.8" font-family="Times,serif" font-size="14.00">todo</text>
</g>
<!-- draft_multifile_specs&#45;&gt;i6_presets_spec -->
<g id="edge3" class="edge">
<title>draft_multifile_specs&#45;&gt;i6_presets_spec</title>
<path fill="none" stroke="black" d="M1250.55,-487.6C1264.18,-487.6 1278.15,-487.6 1291.6,-487.6"/>
<polygon fill="black" stroke="black" points="1291.25,-491.1 1301.25,-487.6 1291.25,-484.1 1291.25,-491.1"/>
</g>
<!-- multifile_policy -->
<g id="node30" class="node">
<title>multifile_policy</title>
<g id="a_node30"><a xlink:title="マルチファイル意味論方針&#10;&#10;共同起草で確定した ID スコープ・継承解決順・ファイル間参照の決定記録。ファイル横断機能（#8 実装等）と仕様統合の前提資料">
<polygon fill="#f8f9fa" stroke="black" points="1454.4,-440.8 1303.2,-440.8 1303.2,-382.4 1454.4,-382.4 1454.4,-440.8"/>
<text xml:space="preserve" text-anchor="middle" x="1378.8" y="-424.2" font-family="Times,serif" font-size="14.00">multifile_policy</text>
<text xml:space="preserve" text-anchor="middle" x="1378.8" y="-407.4" font-family="Times,serif" font-size="14.00">マルチファイル意味</text>
<text xml:space="preserve" text-anchor="middle" x="1378.8" y="-390.6" font-family="Times,serif" font-size="14.00">論方針</text>
</a>
</g>
<text xml:space="preserve" text-anchor="middle" x="1290.76" y="-369.8" font-family="Times,serif" font-size="14.00">todo</text>
</g>
<!-- draft_multifile_specs&#45;&gt;multifile_policy -->
<g id="edge4" class="edge">
<title>draft_multifile_specs&#45;&gt;multifile_policy</title>
<path fill="none" stroke="black" d="M1230.3,-462.08C1250.16,-455.28 1271.78,-447.88 1292.19,-440.9"/>
<polygon fill="black" stroke="black" points="1293.3,-444.22 1301.62,-437.67 1291.03,-437.6 1293.3,-444.22"/>
</g>
<!-- draft_revises -->
<g id="node10" class="node">
<title>draft_revises</title>
<g id="a_node10"><a xlink:title="改版チェーン仕様起草">
<ellipse fill="none" stroke="black" cx="325.86" cy="-126.6" rx="78.14" ry="41.3"/>
<text xml:space="preserve" text-anchor="middle" x="325.86" y="-139.2" font-family="Times,serif" font-size="14.00">draft_revises</text>
<text xml:space="preserve" text-anchor="middle" x="325.86" y="-122.4" font-family="Times,serif" font-size="14.00">改版チェーン仕様起</text>
<text xml:space="preserve" text-anchor="middle" x="325.86" y="-105.6" font-family="Times,serif" font-size="14.00">草</text>
</a>
</g>
</g>
<!-- revises_spec -->
<g id="node35" class="node">
<title>revises_spec</title>
<g id="a_node35"><a xlink:title="改版チェーン仕様案 (#8)">
<polygon fill="#d4edda" stroke="black" points="628.1,-168.8 469.7,-168.8 469.7,-110.4 628.1,-110.4 628.1,-168.8"/>
<text xml:space="preserve" text-anchor="middle" x="548.9" y="-152.2" font-family="Times,serif" font-size="14.00">revises_spec</text>
<text xml:space="preserve" text-anchor="middle" x="548.9" y="-135.4" font-family="Times,serif" font-size="14.00">改版チェーン仕様案 </text>
<text xml:space="preserve" text-anchor="middle" x="548.9" y="-118.6" font-family="Times,serif" font-size="14.00">(#8)</text>
</a>
</g>
<text xml:space="preserve" text-anchor="middle" x="456.09" y="-97.8" font-family="Times,serif" font-size="14.00">done</text>
</g>
<!-- draft_revises&#45;&gt;revises_spec -->
<g id="edge8" class="edge">
<title>draft_revises&#45;&gt;revises_spec</title>
<path fill="none" stroke="black" d="M403.86,-131.13C421.31,-132.16 440,-133.25 457.95,-134.31"/>
<polygon fill="black" stroke="black" points="457.6,-137.8 467.79,-134.89 458.01,-130.81 457.6,-137.8"/>
</g>
<!-- featured_toolchain -->
<g id="node11" class="node">
<title>featured_toolchain</title>
<g id="a_node11"><a xlink:title="spec v0.0.7 実装済みツールチェーン (#52)">
<polygon fill="#d4edda" stroke="black" points="1454.4,-364.2 1303.2,-364.2 1303.2,-289 1454.4,-289 1454.4,-364.2"/>
<text xml:space="preserve" text-anchor="middle" x="1378.8" y="-347.6" font-family="Times,serif" font-size="14.00">featured_toolchain</text>
<text xml:space="preserve" text-anchor="middle" x="1378.8" y="-330.8" font-family="Times,serif" font-size="14.00">spec v0.0.7</text>
<text xml:space="preserve" text-anchor="middle" x="1378.8" y="-314" font-family="Times,serif" font-size="14.00">実装済みツールチェ</text>
<text xml:space="preserve" text-anchor="middle" x="1378.8" y="-297.2" font-family="Times,serif" font-size="14.00">ーン (#52)</text>
</a>
</g>
<text xml:space="preserve" text-anchor="middle" x="1289.59" y="-276.4" font-family="Times,serif" font-size="14.00">done</text>
</g>
<!-- integrate_multifile -->
<g id="node25" class="node">
<title>integrate_multifile</title>
<g id="a_node25"><a xlink:title="マルチファイル仕様統合">
<ellipse fill="none" stroke="black" cx="1575.39" cy="-449.6" rx="84.98" ry="41.3"/>
<text xml:space="preserve" text-anchor="middle" x="1575.39" y="-462.2" font-family="Times,serif" font-size="14.00">integrate_multifile</text>
<text xml:space="preserve" text-anchor="middle" x="1575.39" y="-445.4" font-family="Times,serif" font-size="14.00">マルチファイル仕様</text>
<text xml:space="preserve" text-anchor="middle" x="1575.39" y="-428.6" font-family="Times,serif" font-size="14.00">統合</text>
</a>
</g>
</g>
<!-- featured_toolchain&#45;&gt;integrate_multifile -->
<g id="edge28" class="edge">
<title>featured_toolchain&#45;&gt;integrate_multifile</title>
<path fill="none" stroke="black" d="M1440.07,-364.55C1444.92,-367.61 1449.74,-370.66 1454.4,-373.6 1473.49,-385.66 1494.26,-398.81 1513.08,-410.73"/>
<polygon fill="black" stroke="black" points="1511.13,-413.63 1521.45,-416.03 1514.88,-407.72 1511.13,-413.63"/>
</g>
<!-- i15_group_fill -->
<g id="node15" class="node">
<title>i15_group_fill</title>
<g id="a_node15"><a xlink:title="group クラスタ塗りつぶし描画 (#15)">
<polygon fill="#f8f9fa" stroke="black" stroke-width="2" points="624.5,-650.8 473.3,-650.8 473.3,-592.4 624.5,-592.4 624.5,-650.8"/>
<text xml:space="preserve" text-anchor="middle" x="548.9" y="-634.2" font-family="Times,serif" font-size="14.00">i15_group_fill</text>
<text xml:space="preserve" text-anchor="middle" x="548.9" y="-617.4" font-family="Times,serif" font-size="14.00">group クラスタ塗り</text>
<text xml:space="preserve" text-anchor="middle" x="548.9" y="-600.6" font-family="Times,serif" font-size="14.00">つぶし描画 (#15)</text>
</a>
</g>
<text xml:space="preserve" text-anchor="middle" x="460.85" y="-579.8" font-family="Times,serif" font-size="14.00">todo</text>
</g>
<!-- fill_group_clusters&#45;&gt;i15_group_fill -->
<g id="edge39" class="edge">
<title>fill_group_clusters&#45;&gt;i15_group_fill</title>
<path fill="none" stroke="black" d="M412.32,-621.6C428.25,-621.6 444.92,-621.6 460.9,-621.6"/>
<polygon fill="black" stroke="black" points="460.88,-625.1 470.88,-621.6 460.88,-618.1 460.88,-625.1"/>
</g>
<!-- findings_r12 -->
<g id="node13" class="node">
<title>findings_r12</title>
<g id="a_node13"><a xlink:title="実践ラウンド1/2レビュー知見&#10;&#10;docs/examples の執筆・レビューで得た品質知見">
<polygon fill="#d4edda" stroke="black" stroke-width="2" points="185.61,-573.8 27.21,-573.8 27.21,-515.4 185.61,-515.4 185.61,-573.8"/>
<text xml:space="preserve" text-anchor="middle" x="106.41" y="-557.2" font-family="Times,serif" font-size="14.00">findings_r12</text>
<text xml:space="preserve" text-anchor="middle" x="106.41" y="-540.4" font-family="Times,serif" font-size="14.00">実践ラウンド1/2レビ</text>
<text xml:space="preserve" text-anchor="middle" x="106.41" y="-523.6" font-family="Times,serif" font-size="14.00">ュー知見</text>
</a>
</g>
<text xml:space="preserve" text-anchor="middle" x="13.61" y="-502.8" font-family="Times,serif" font-size="14.00">done</text>
</g>
<!-- findings_r12&#45;&gt;implement_lints -->
<g id="edge19" class="edge">
<title>findings_r12&#45;&gt;implement_lints</title>
<path fill="none" stroke="black" d="M186.53,-544.6C203.46,-544.6 221.44,-544.6 238.62,-544.6"/>
<polygon fill="black" stroke="black" points="238.27,-548.1 248.27,-544.6 238.27,-541.1 238.27,-548.1"/>
</g>
<!-- i12_article -->
<g id="node14" class="node">
<title>i12_article</title>
<g id="a_node14"><a xlink:title="公開記事 (#12)&#10;&#10;ADR 群を素材とした外部公開記事。依存なしで着手可能、spec v0.0.7 確定後はより充実">
<polygon fill="#f8f9fa" stroke="black" stroke-width="2" points="610.1,-58.4 487.7,-58.4 487.7,-16.8 610.1,-16.8 610.1,-58.4"/>
<text xml:space="preserve" text-anchor="middle" x="548.9" y="-41.8" font-family="Times,serif" font-size="14.00">i12_article</text>
<text xml:space="preserve" text-anchor="middle" x="548.9" y="-25" font-family="Times,serif" font-size="14.00">公開記事 (#12)</text>
</a>
</g>
<text xml:space="preserve" text-anchor="middle" x="475.25" y="-4.2" font-family="Times,serif" font-size="14.00">todo</text>
</g>
<!-- i17_graph_nav -->
<g id="node16" class="node">
<title>i17_graph_nav</title>
<g id="a_node16"><a xlink:title="大規模図の閲覧支援 (#17)">
<polygon fill="#f8f9fa" stroke="black" stroke-width="2" points="628.1,-1059.8 469.7,-1059.8 469.7,-1001.4 628.1,-1001.4 628.1,-1059.8"/>
<text xml:space="preserve" text-anchor="middle" x="548.9" y="-1043.2" font-family="Times,serif" font-size="14.00">i17_graph_nav</text>
<text xml:space="preserve" text-anchor="middle" x="548.9" y="-1026.4" font-family="Times,serif" font-size="14.00">大規模図の閲覧支援 </text>
<text xml:space="preserve" text-anchor="middle" x="548.9" y="-1009.6" font-family="Times,serif" font-size="14.00">(#17)</text>
</a>
</g>
<text xml:space="preserve" text-anchor="middle" x="457.25" y="-988.8" font-family="Times,serif" font-size="14.00">todo</text>
</g>
<!-- i37_orphan_lint -->
<g id="node17" class="node">
<title>i37_orphan_lint</title>
<g id="a_node17"><a xlink:title="孤児process検出lint (#37)&#10;&#10;check/audit が出力なき process・孤立ノードを検出する。終端監査の機械化（学習ループの lint 要件経路、dogfood #16 由来）">
<polygon fill="#f8f9fa" stroke="black" stroke-width="2" points="631.7,-982.8 466.1,-982.8 466.1,-924.4 631.7,-924.4 631.7,-982.8"/>
<text xml:space="preserve" text-anchor="middle" x="548.9" y="-966.2" font-family="Times,serif" font-size="14.00">i37_orphan_lint</text>
<text xml:space="preserve" text-anchor="middle" x="548.9" y="-949.4" font-family="Times,serif" font-size="14.00">孤児process検出lint </text>
<text xml:space="preserve" text-anchor="middle" x="548.9" y="-932.6" font-family="Times,serif" font-size="14.00">#37)</text>
</a>
</g>
<text xml:space="preserve" text-anchor="middle" x="453.65" y="-911.8" font-family="Times,serif" font-size="14.00">todo</text>
</g>
<!-- i5_hierarchy_spec&#45;&gt;integrate_multifile -->
<g id="edge25" class="edge">
<title>i5_hierarchy_spec&#45;&gt;integrate_multifile</title>
<path fill="none" stroke="black" d="M1435.71,-534.42C1442.09,-531.62 1448.44,-528.66 1454.4,-525.6 1475.05,-515.02 1496.73,-501.95 1515.9,-489.65"/>
<polygon fill="black" stroke="black" points="1517.63,-492.7 1524.11,-484.32 1513.81,-486.83 1517.63,-492.7"/>
</g>
<!-- i6_presets_spec&#45;&gt;integrate_multifile -->
<g id="edge26" class="edge">
<title>i6_presets_spec&#45;&gt;integrate_multifile</title>
<path fill="none" stroke="black" d="M1454.76,-472.96C1464.56,-471.05 1474.68,-469.07 1484.69,-467.12"/>
<polygon fill="black" stroke="black" points="1485.3,-470.56 1494.44,-465.21 1483.96,-463.69 1485.3,-470.56"/>
</g>
<!-- implement_graph_nav&#45;&gt;i17_graph_nav -->
<g id="edge41" class="edge">
<title>implement_graph_nav&#45;&gt;i17_graph_nav</title>
<path fill="none" stroke="black" d="M426.71,-1030.6C436.93,-1030.6 447.28,-1030.6 457.39,-1030.6"/>
<polygon fill="black" stroke="black" points="457.19,-1034.1 467.19,-1030.6 457.19,-1027.1 457.19,-1034.1"/>
</g>
<!-- lint_checker -->
<g id="node28" class="node">
<title>lint_checker</title>
<g id="a_node28"><a xlink:title="lint拡張checker (#4)&#10;&#10;lint 候補の完全リストは issue #4 が一次情報（本文+コメント）。ここに列挙しない — 列挙は同期漏れで腐るため">
<polygon fill="#d4edda" stroke="black" points="1006.26,-435.4 840.66,-435.4 840.66,-393.8 1006.26,-393.8 1006.26,-435.4"/>
<text xml:space="preserve" text-anchor="middle" x="923.46" y="-418.8" font-family="Times,serif" font-size="14.00">lint_checker</text>
<text xml:space="preserve" text-anchor="middle" x="923.46" y="-402" font-family="Times,serif" font-size="14.00">lint拡張checker (#4)</text>
</a>
</g>
<text xml:space="preserve" text-anchor="middle" x="827.06" y="-381.2" font-family="Times,serif" font-size="14.00">done</text>
</g>
<!-- implement_lints&#45;&gt;lint_checker -->
<g id="edge21" class="edge">
<title>implement_lints&#45;&gt;lint_checker</title>
<path fill="none" stroke="black" d="M392.59,-530.25C498.64,-507.11 707.87,-461.44 829.27,-434.94"/>
<polygon fill="black" stroke="black" points="829.88,-438.39 838.9,-432.84 828.38,-431.55 829.88,-438.39"/>
</g>
<!-- implement_orphan_lint&#45;&gt;i37_orphan_lint -->
<g id="edge45" class="edge">
<title>implement_orphan_lint&#45;&gt;i37_orphan_lint</title>
<path fill="none" stroke="black" d="M430.58,-953.6C438.42,-953.6 446.3,-953.6 454.07,-953.6"/>
<polygon fill="black" stroke="black" points="453.85,-957.1 463.85,-953.6 453.85,-950.1 453.85,-957.1"/>
</g>
<!-- implement_spec_features -->
<g id="node24" class="node">
<title>implement_spec_features</title>
<ellipse fill="none" stroke="black" cx="1154.73" cy="-326.6" rx="112.47" ry="29.42"/>
<text xml:space="preserve" text-anchor="middle" x="1154.73" y="-330.8" font-family="Times,serif" font-size="14.00">implement_spec_features</text>
<text xml:space="preserve" text-anchor="middle" x="1154.73" y="-314" font-family="Times,serif" font-size="14.00">新仕様実装</text>
</g>
<!-- implement_spec_features&#45;&gt;featured_toolchain -->
<g id="edge24" class="edge">
<title>implement_spec_features&#45;&gt;featured_toolchain</title>
<path fill="none" stroke="black" d="M1267.42,-326.6C1275.47,-326.6 1283.52,-326.6 1291.4,-326.6"/>
<polygon fill="black" stroke="black" points="1291.28,-330.1 1301.28,-326.6 1291.28,-323.1 1291.28,-330.1"/>
</g>
<!-- spec_v008 -->
<g id="node39" class="node">
<title>spec_v008</title>
<g id="a_node39"><a xlink:title="仕様書 v0.0.8（マルチファイル統合）">
<polygon fill="#f8f9fa" stroke="black" stroke-width="2" points="1840.37,-487.2 1696.37,-487.2 1696.37,-412 1840.37,-412 1840.37,-487.2"/>
<text xml:space="preserve" text-anchor="middle" x="1768.37" y="-470.6" font-family="Times,serif" font-size="14.00">spec_v008</text>
<text xml:space="preserve" text-anchor="middle" x="1768.37" y="-453.8" font-family="Times,serif" font-size="14.00">仕様書 v0.0</text>
<text xml:space="preserve" text-anchor="middle" x="1768.37" y="-437" font-family="Times,serif" font-size="14.00">8（マルチファイル</text>
<text xml:space="preserve" text-anchor="middle" x="1768.37" y="-420.2" font-family="Times,serif" font-size="14.00">統合）</text>
</a>
</g>
<text xml:space="preserve" text-anchor="middle" x="1683.93" y="-399.4" font-family="Times,serif" font-size="14.00">todo</text>
</g>
<!-- integrate_multifile&#45;&gt;spec_v008 -->
<g id="edge29" class="edge">
<title>integrate_multifile&#45;&gt;spec_v008</title>
<path fill="none" stroke="black" d="M1660.71,-449.6C1668.5,-449.6 1676.39,-449.6 1684.17,-449.6"/>
<polygon fill="black" stroke="black" points="1683.94,-453.1 1693.94,-449.6 1683.94,-446.1 1683.94,-453.1"/>
</g>
<!-- spec_v007 -->
<g id="node38" class="node">
<title>spec_v007</title>
<g id="a_node38"><a xlink:title="仕様書 v0.0.7（統合）">
<polygon fill="#fff3cd" stroke="black" points="1002.66,-350.8 844.26,-350.8 844.26,-292.4 1002.66,-292.4 1002.66,-350.8"/>
<text xml:space="preserve" text-anchor="middle" x="923.46" y="-334.2" font-family="Times,serif" font-size="14.00">spec_v007</text>
<text xml:space="preserve" text-anchor="middle" x="923.46" y="-317.4" font-family="Times,serif" font-size="14.00">仕様書 v0.0.7（統合</text>
<text xml:space="preserve" text-anchor="middle" x="923.46" y="-300.6" font-family="Times,serif" font-size="14.00">）</text>
</a>
</g>
<text xml:space="preserve" text-anchor="middle" x="833.76" y="-279.8" font-family="Times,serif" font-size="14.00">wip</text>
</g>
<!-- integrate_spec&#45;&gt;spec_v007 -->
<g id="edge17" class="edge">
<title>integrate_spec&#45;&gt;spec_v007</title>
<path fill="none" stroke="black" d="M804.86,-318.43C813.9,-318.67 823.28,-318.92 832.62,-319.18"/>
<polygon fill="black" stroke="black" points="832.37,-322.67 842.47,-319.44 832.56,-315.67 832.37,-322.67"/>
</g>
<!-- layer_audit_assets&#45;&gt;audit_distribution -->
<g id="edge35" class="edge">
<title>layer_audit_assets&#45;&gt;audit_distribution</title>
<path fill="none" stroke="black" d="M410.11,-799.6C426.71,-799.6 444.19,-799.6 460.92,-799.6"/>
<polygon fill="black" stroke="black" points="460.85,-803.1 470.85,-799.6 460.85,-796.1 460.85,-803.1"/>
</g>
<!-- lint_checker&#45;&gt;implement_spec_features -->
<g id="edge23" class="edge">
<title>lint_checker&#45;&gt;implement_spec_features</title>
<path fill="none" stroke="black" d="M979.67,-393.41C1009.68,-381.89 1047.2,-367.49 1079.71,-355.01"/>
<polygon fill="black" stroke="black" points="1080.58,-358.43 1088.67,-351.57 1078.08,-351.89 1080.58,-358.43"/>
</g>
<!-- location_spec&#45;&gt;integrate_spec -->
<g id="edge15" class="edge">
<title>location_spec&#45;&gt;integrate_spec</title>
<path fill="none" stroke="black" d="M616.79,-264.2C636.56,-272.95 658.02,-282.45 677.18,-290.93"/>
<polygon fill="black" stroke="black" points="675.61,-294.06 686.17,-294.91 678.44,-287.66 675.61,-294.06"/>
</g>
<!-- multifile_policy&#45;&gt;integrate_multifile -->
<g id="edge27" class="edge">
<title>multifile_policy&#45;&gt;integrate_multifile</title>
<path fill="none" stroke="black" d="M1454.76,-426.24C1464.56,-428.15 1474.68,-430.13 1484.69,-432.08"/>
<polygon fill="black" stroke="black" points="1483.96,-435.51 1494.44,-433.99 1485.3,-428.64 1483.96,-435.51"/>
</g>
<!-- published_cli -->
<g id="node32" class="node">
<title>published_cli</title>
<g id="a_node32"><a xlink:title="npm公開済みCLI&#10;&#10;@pfdsl/cli 0.0.3 公開済み（roadmap の cli_published に対応）。npm install &#45;g @pfdsl/cli で利用可">
<polygon fill="#d4edda" stroke="black" stroke-width="2" points="610.1,-897.4 487.7,-897.4 487.7,-855.8 610.1,-855.8 610.1,-897.4"/>
<text xml:space="preserve" text-anchor="middle" x="548.9" y="-880.8" font-family="Times,serif" font-size="14.00">published_cli</text>
<text xml:space="preserve" text-anchor="middle" x="548.9" y="-864" font-family="Times,serif" font-size="14.00">npm公開済みCLI</text>
</a>
</g>
<text xml:space="preserve" text-anchor="middle" x="474.09" y="-843.2" font-family="Times,serif" font-size="14.00">done</text>
</g>
<!-- publish_cli&#45;&gt;published_cli -->
<g id="edge33" class="edge">
<title>publish_cli&#45;&gt;published_cli</title>
<path fill="none" stroke="black" d="M381.5,-876.6C409.84,-876.6 444.83,-876.6 475.4,-876.6"/>
<polygon fill="black" stroke="black" points="475.37,-880.1 485.37,-876.6 475.37,-873.1 475.37,-880.1"/>
</g>
<!-- restructure_skillgen -->
<g id="node33" class="node">
<title>restructure_skillgen</title>
<ellipse fill="none" stroke="black" cx="325.86" cy="-1107.6" rx="89.93" ry="29.42"/>
<text xml:space="preserve" text-anchor="middle" x="325.86" y="-1111.8" font-family="Times,serif" font-size="14.00">restructure_skillgen</text>
<text xml:space="preserve" text-anchor="middle" x="325.86" y="-1095" font-family="Times,serif" font-size="14.00">生成系再構成</text>
</g>
<!-- restructured_gen -->
<g id="node34" class="node">
<title>restructured_gen</title>
<g id="a_node34"><a xlink:title="再構成済みスキル生成系 (#10)">
<polygon fill="#d4edda" stroke="black" stroke-width="2" points="624.5,-1136.8 473.3,-1136.8 473.3,-1078.4 624.5,-1078.4 624.5,-1136.8"/>
<text xml:space="preserve" text-anchor="middle" x="548.9" y="-1120.2" font-family="Times,serif" font-size="14.00">restructured_gen</text>
<text xml:space="preserve" text-anchor="middle" x="548.9" y="-1103.4" font-family="Times,serif" font-size="14.00">再構成済みスキル生</text>
<text xml:space="preserve" text-anchor="middle" x="548.9" y="-1086.6" font-family="Times,serif" font-size="14.00">成系 (#10)</text>
</a>
</g>
<text xml:space="preserve" text-anchor="middle" x="459.69" y="-1065.8" font-family="Times,serif" font-size="14.00">done</text>
</g>
<!-- restructure_skillgen&#45;&gt;restructured_gen -->
<g id="edge31" class="edge">
<title>restructure_skillgen&#45;&gt;restructured_gen</title>
<path fill="none" stroke="black" d="M416.13,-1107.6C431.02,-1107.6 446.45,-1107.6 461.28,-1107.6"/>
<polygon fill="black" stroke="black" points="460.97,-1111.1 470.97,-1107.6 460.97,-1104.1 460.97,-1111.1"/>
</g>
<!-- revises_spec&#45;&gt;integrate_spec -->
<g id="edge14" class="edge">
<title>revises_spec&#45;&gt;integrate_spec</title>
<path fill="none" stroke="black" d="M596.44,-169.03C608.38,-177.38 620.9,-186.86 631.7,-196.6 659.9,-222.04 687.78,-254.93 707.48,-279.85"/>
<polygon fill="black" stroke="black" points="704.5,-281.73 713.42,-287.45 710.02,-277.41 704.5,-281.73"/>
</g>
<!-- skill_gen -->
<g id="node36" class="node">
<title>skill_gen</title>
<g id="a_node36"><a xlink:title="スキル生成系（現行）&#10;&#10;scripts/gen&#45;skill.mjs と docs/samples 構成">
<polygon fill="#d4edda" stroke="black" stroke-width="2" points="182.01,-1136.8 30.81,-1136.8 30.81,-1078.4 182.01,-1078.4 182.01,-1136.8"/>
<text xml:space="preserve" text-anchor="middle" x="106.41" y="-1120.2" font-family="Times,serif" font-size="14.00">skill_gen</text>
<text xml:space="preserve" text-anchor="middle" x="106.41" y="-1103.4" font-family="Times,serif" font-size="14.00">スキル生成系（現行</text>
<text xml:space="preserve" text-anchor="middle" x="106.41" y="-1086.6" font-family="Times,serif" font-size="14.00">）</text>
</a>
</g>
<text xml:space="preserve" text-anchor="middle" x="17.21" y="-1065.8" font-family="Times,serif" font-size="14.00">done</text>
</g>
<!-- skill_gen&#45;&gt;restructure_skillgen -->
<g id="edge30" class="edge">
<title>skill_gen&#45;&gt;restructure_skillgen</title>
<path fill="none" stroke="black" d="M182.85,-1107.6C196.31,-1107.6 210.51,-1107.6 224.53,-1107.6"/>
<polygon fill="black" stroke="black" points="224.2,-1111.1 234.2,-1107.6 224.2,-1104.1 224.2,-1111.1"/>
</g>
<!-- spec_v006 -->
<g id="node37" class="node">
<title>spec_v006</title>
<polygon fill="#d4edda" stroke="black" stroke-width="2" points="164.01,-365.4 48.81,-365.4 48.81,-323.8 164.01,-323.8 164.01,-365.4"/>
<text xml:space="preserve" text-anchor="middle" x="106.41" y="-348.8" font-family="Times,serif" font-size="14.00">spec_v006</text>
<text xml:space="preserve" text-anchor="middle" x="106.41" y="-332" font-family="Times,serif" font-size="14.00">仕様書 v0.0.6</text>
<text xml:space="preserve" text-anchor="middle" x="35.21" y="-311.2" font-family="Times,serif" font-size="14.00">done</text>
</g>
<!-- spec_v006&#45;&gt;draft_criteria -->
<g id="edge5" class="edge">
<title>spec_v006&#45;&gt;draft_criteria</title>
<path fill="none" stroke="black" d="M162.28,-366.3C193.03,-378.46 231.46,-393.66 263.24,-406.23"/>
<polygon fill="black" stroke="black" points="261.74,-409.4 272.33,-409.83 264.32,-402.89 261.74,-409.4"/>
</g>
<!-- spec_v006&#45;&gt;draft_location -->
<g id="edge9" class="edge">
<title>spec_v006&#45;&gt;draft_location</title>
<path fill="none" stroke="black" d="M143.59,-322.88C165.88,-309.71 195.17,-292.76 221.61,-278.6 232.14,-272.97 243.37,-267.19 254.41,-261.63"/>
<polygon fill="black" stroke="black" points="255.73,-264.89 263.11,-257.29 252.6,-258.62 255.73,-264.89"/>
</g>
<!-- spec_v006&#45;&gt;draft_multifile_specs -->
<g id="edge1" class="edge">
<title>spec_v006&#45;&gt;draft_multifile_specs</title>
<path fill="none" stroke="black" d="M119.65,-365.91C137.71,-395.06 174.53,-446.3 221.61,-468.6 352.89,-530.78 402.64,-487.6 547.9,-487.6 547.9,-487.6 547.9,-487.6 737.18,-487.6 842.79,-487.6 963.47,-487.6 1047.65,-487.6"/>
<polygon fill="black" stroke="black" points="1047.51,-491.1 1057.51,-487.6 1047.51,-484.1 1047.51,-491.1"/>
</g>
<!-- spec_v006&#45;&gt;draft_revises -->
<g id="edge7" class="edge">
<title>spec_v006&#45;&gt;draft_revises</title>
<path fill="none" stroke="black" d="M117.57,-323.02C134.76,-288.44 172.54,-220.2 221.61,-177.6 230.8,-169.62 241.46,-162.56 252.36,-156.42"/>
<polygon fill="black" stroke="black" points="253.91,-159.56 261.08,-151.76 250.61,-153.39 253.91,-159.56"/>
</g>
<!-- spec_v006&#45;&gt;implement_lints -->
<g id="edge18" class="edge">
<title>spec_v006&#45;&gt;implement_lints</title>
<path fill="none" stroke="black" d="M118.17,-366.29C135.65,-399.58 173.2,-463.38 221.61,-501.6 231.63,-509.51 243.31,-516.19 255.14,-521.76"/>
<polygon fill="black" stroke="black" points="253.6,-524.9 264.16,-525.75 256.43,-518.5 253.6,-524.9"/>
</g>
<!-- spec_v006&#45;&gt;integrate_spec -->
<g id="edge46" class="edge">
<title>spec_v006&#45;&gt;integrate_spec</title>
<path fill="none" stroke="#888888" stroke-dasharray="5,2" d="M165.01,-352.93C262.14,-365.38 464.31,-384.36 631.7,-354.6 646.94,-351.89 662.87,-347.1 677.55,-341.82"/>
<polygon fill="#888888" stroke="#888888" points="678.43,-345.22 686.57,-338.43 675.97,-338.67 678.43,-345.22"/>
</g>
<!-- write_design_notes -->
<g id="node41" class="node">
<title>write_design_notes</title>
<ellipse fill="none" stroke="black" cx="325.86" cy="-316.6" rx="88.3" ry="29.42"/>
<text xml:space="preserve" text-anchor="middle" x="325.86" y="-320.8" font-family="Times,serif" font-size="14.00">write_design_notes</text>
<text xml:space="preserve" text-anchor="middle" x="325.86" y="-304" font-family="Times,serif" font-size="14.00">設計ノート執筆</text>
</g>
<!-- spec_v006&#45;&gt;write_design_notes -->
<g id="edge11" class="edge">
<title>spec_v006&#45;&gt;write_design_notes</title>
<path fill="none" stroke="black" d="M164.83,-337.21C185.28,-334.57 208.87,-331.54 231.55,-328.61"/>
<polygon fill="black" stroke="black" points="231.98,-332.09 241.45,-327.34 231.09,-325.15 231.98,-332.09"/>
</g>
<!-- spec_v007&#45;&gt;implement_spec_features -->
<g id="edge22" class="edge">
<title>spec_v007&#45;&gt;implement_spec_features</title>
<path fill="none" stroke="black" d="M1003.04,-323.31C1012.17,-323.51 1021.64,-323.72 1031.19,-323.93"/>
<polygon fill="black" stroke="black" points="1030.82,-327.42 1040.9,-324.14 1030.98,-320.42 1030.82,-327.42"/>
</g>
<!-- write_article&#45;&gt;i12_article -->
<g id="edge37" class="edge">
<title>write_article&#45;&gt;i12_article</title>
<path fill="none" stroke="black" d="M387.55,-37.6C414.85,-37.6 447.29,-37.6 475.82,-37.6"/>
<polygon fill="black" stroke="black" points="475.44,-41.1 485.44,-37.6 475.44,-34.1 475.44,-41.1"/>
</g>
<!-- write_design_notes&#45;&gt;design_notes -->
<g id="edge12" class="edge">
<title>write_design_notes&#45;&gt;design_notes</title>
<path fill="none" stroke="black" d="M414.54,-316.6C430.05,-316.6 446.2,-316.6 461.68,-316.6"/>
<polygon fill="black" stroke="black" points="461.3,-320.1 471.3,-316.6 461.3,-313.1 461.3,-320.1"/>
</g>
</g>
</svg>
