<?xml version="1.0" encoding="UTF-8" standalone="no"?>
<!DOCTYPE svg PUBLIC "-//W3C//DTD SVG 1.1//EN"
 "http://www.w3.org/Graphics/SVG/1.1/DTD/svg11.dtd">
<!-- Generated by graphviz version 15.0.0 (0)
 -->
<!-- Title: PFDSL Pages: 1 -->
<svg width="666pt" height="444pt"
 viewBox="0.00 0.00 666.00 444.00" xmlns="http://www.w3.org/2000/svg" xmlns:xlink="http://www.w3.org/1999/xlink">
<g id="graph0" class="graph" transform="scale(1 1) rotate(0) translate(4 440.22)">
<title>PFDSL</title>
<polygon fill="white" stroke="none" points="-4,4 -4,-440.22 661.93,-440.22 661.93,4 -4,4"/>
<text xml:space="preserve" text-anchor="middle" x="328.96" y="-419.62" font-family="Times,serif" font-size="14.00">Issue 依存フロー（2026&#45;06） — diff</text>
<text xml:space="preserve" text-anchor="middle" x="328.96" y="-402.82" font-family="Times,serif" font-size="14.00">green = added · red = removed · yellow = changed</text>
<!-- cli_tool -->
<g id="node1" class="node">
<title>cli_tool</title>
<polygon fill="#f5f5f5" stroke="#bbbbbb" points="165.6,-50.22 28.8,-50.22 28.8,-8.62 165.6,-8.62 165.6,-50.22"/>
<text xml:space="preserve" text-anchor="middle" x="97.2" y="-33.62" font-family="Times,serif" font-size="14.00" fill="#777777">cli_tool</text>
<text xml:space="preserve" text-anchor="middle" x="97.2" y="-16.82" font-family="Times,serif" font-size="14.00" fill="#777777">CLI 実装（現行）</text>
</g>
<!-- implement_example_check -->
<g id="node7" class="node">
<title>implement_example_check</title>
<ellipse fill="#f5c6cb" stroke="#dc3545" cx="350.56" cy="-29.42" rx="120.16" ry="29.42"/>
<text xml:space="preserve" text-anchor="middle" x="350.56" y="-33.62" font-family="Times,serif" font-size="14.00">implement_example_check</text>
<text xml:space="preserve" text-anchor="middle" x="350.56" y="-16.82" font-family="Times,serif" font-size="14.00">埋込例check実装</text>
</g>
<!-- cli_tool&#45;&gt;implement_example_check -->
<g id="edge1" class="edge">
<title>cli_tool&#45;&gt;implement_example_check</title>
<path fill="none" stroke="#dc3545" stroke-dasharray="5,2" d="M165.89,-29.42C182.39,-29.42 200.59,-29.42 218.94,-29.42"/>
<polygon fill="#dc3545" stroke="#dc3545" points="218.85,-32.92 228.85,-29.42 218.85,-25.92 218.85,-32.92"/>
</g>
<!-- featured_toolchain -->
<g id="node2" class="node">
<title>featured_toolchain</title>
<polygon fill="#f5f5f5" stroke="#bbbbbb" points="172.8,-242.02 21.6,-242.02 21.6,-166.82 172.8,-166.82 172.8,-242.02"/>
<text xml:space="preserve" text-anchor="middle" x="97.2" y="-225.42" font-family="Times,serif" font-size="14.00" fill="#777777">featured_toolchain</text>
<text xml:space="preserve" text-anchor="middle" x="97.2" y="-208.62" font-family="Times,serif" font-size="14.00" fill="#777777">spec v0.0.7</text>
<text xml:space="preserve" text-anchor="middle" x="97.2" y="-191.82" font-family="Times,serif" font-size="14.00" fill="#777777">実装済みツールチェ</text>
<text xml:space="preserve" text-anchor="middle" x="97.2" y="-175.02" font-family="Times,serif" font-size="14.00" fill="#777777">ーン (#52)</text>
</g>
<!-- implement_subflow_nav -->
<g id="node8" class="node">
<title>implement_subflow_nav</title>
<ellipse fill="#f5c6cb" stroke="#dc3545" cx="350.56" cy="-161.42" rx="109.74" ry="41.3"/>
<text xml:space="preserve" text-anchor="middle" x="350.56" y="-174.02" font-family="Times,serif" font-size="14.00">implement_subflow_nav</text>
<text xml:space="preserve" text-anchor="middle" x="350.56" y="-157.22" font-family="Times,serif" font-size="14.00">subflowナビゲーショ</text>
<text xml:space="preserve" text-anchor="middle" x="350.56" y="-140.42" font-family="Times,serif" font-size="14.00">ン実装</text>
</g>
<!-- featured_toolchain&#45;&gt;implement_subflow_nav -->
<g id="edge2" class="edge">
<title>featured_toolchain&#45;&gt;implement_subflow_nav</title>
<path fill="none" stroke="#dc3545" stroke-dasharray="5,2" d="M173.28,-191.57C193.94,-188.04 216.8,-184.13 239.02,-180.33"/>
<polygon fill="#dc3545" stroke="#dc3545" points="239.46,-183.8 248.72,-178.67 238.28,-176.9 239.46,-183.8"/>
</g>
<!-- i119_published_extension -->
<g id="node3" class="node">
<title>i119_published_extension</title>
<polygon fill="#ffeeba" stroke="#e0a800" points="194.4,-318.62 0,-318.62 0,-260.22 194.4,-260.22 194.4,-318.62"/>
<text xml:space="preserve" text-anchor="middle" x="97.2" y="-302.02" font-family="Times,serif" font-size="14.00">i119_published_extension</text>
<text xml:space="preserve" text-anchor="middle" x="97.2" y="-285.22" font-family="Times,serif" font-size="14.00">Marketplace 公開済み</text>
<text xml:space="preserve" text-anchor="middle" x="97.2" y="-268.42" font-family="Times,serif" font-size="14.00"> extension (#119)</text>
</g>
<!-- i138_example_check -->
<g id="node4" class="node">
<title>i138_example_check</title>
<polygon fill="#f5c6cb" stroke="#dc3545" points="657.93,-58.62 506.73,-58.62 506.73,-0.22 657.93,-0.22 657.93,-58.62"/>
<text xml:space="preserve" text-anchor="middle" x="582.33" y="-42.02" font-family="Times,serif" font-size="14.00">i138_example_check</text>
<text xml:space="preserve" text-anchor="middle" x="582.33" y="-25.22" font-family="Times,serif" font-size="14.00">doc 埋込例の check</text>
<text xml:space="preserve" text-anchor="middle" x="582.33" y="-8.42" font-family="Times,serif" font-size="14.00">検証 (#138)</text>
</g>
<!-- i147_subflow_nav -->
<g id="node5" class="node">
<title>i147_subflow_nav</title>
<polygon fill="#f5c6cb" stroke="#dc3545" points="650.73,-199.02 513.93,-199.02 513.93,-123.82 650.73,-123.82 650.73,-199.02"/>
<text xml:space="preserve" text-anchor="middle" x="582.33" y="-182.42" font-family="Times,serif" font-size="14.00">i147_subflow_nav</text>
<text xml:space="preserve" text-anchor="middle" x="582.33" y="-165.62" font-family="Times,serif" font-size="14.00">VS Code subflow</text>
<text xml:space="preserve" text-anchor="middle" x="582.33" y="-148.82" font-family="Times,serif" font-size="14.00">ナビゲーション </text>
<text xml:space="preserve" text-anchor="middle" x="582.33" y="-132.02" font-family="Times,serif" font-size="14.00">#147)</text>
</g>
<!-- i76_external_diagrams -->
<g id="node6" class="node">
<title>i76_external_diagrams</title>
<polygon fill="#ffeeba" stroke="#e0a800" points="183.6,-394.62 10.8,-394.62 10.8,-336.22 183.6,-336.22 183.6,-394.62"/>
<text xml:space="preserve" text-anchor="middle" x="97.2" y="-378.02" font-family="Times,serif" font-size="14.00">i76_external_diagrams</text>
<text xml:space="preserve" text-anchor="middle" x="97.2" y="-361.22" font-family="Times,serif" font-size="14.00">PR差分画像外部リポ</text>
<text xml:space="preserve" text-anchor="middle" x="97.2" y="-344.42" font-family="Times,serif" font-size="14.00">運用 (#76)</text>
</g>
<!-- implement_example_check&#45;&gt;i138_example_check -->
<g id="edge3" class="edge">
<title>implement_example_check&#45;&gt;i138_example_check</title>
<path fill="none" stroke="#dc3545" stroke-dasharray="5,2" d="M471.16,-29.42C479.22,-29.42 487.24,-29.42 495.08,-29.42"/>
<polygon fill="#dc3545" stroke="#dc3545" points="494.9,-32.92 504.9,-29.42 494.9,-25.92 494.9,-32.92"/>
</g>
<!-- implement_subflow_nav&#45;&gt;i147_subflow_nav -->
<g id="edge4" class="edge">
<title>implement_subflow_nav&#45;&gt;i147_subflow_nav</title>
<path fill="none" stroke="#dc3545" stroke-dasharray="5,2" d="M460.73,-161.42C474.84,-161.42 489.07,-161.42 502.55,-161.42"/>
<polygon fill="#dc3545" stroke="#dc3545" points="502.18,-164.92 512.18,-161.42 502.18,-157.92 502.18,-164.92"/>
</g>
<!-- multifile_toolchain -->
<g id="node9" class="node">
<title>multifile_toolchain</title>
<polygon fill="#f5f5f5" stroke="#bbbbbb" points="176.4,-149.02 18,-149.02 18,-73.82 176.4,-73.82 176.4,-149.02"/>
<text xml:space="preserve" text-anchor="middle" x="97.2" y="-132.42" font-family="Times,serif" font-size="14.00" fill="#777777">multifile_toolchain</text>
<text xml:space="preserve" text-anchor="middle" x="97.2" y="-115.62" font-family="Times,serif" font-size="14.00" fill="#777777">spec v0.0.8</text>
<text xml:space="preserve" text-anchor="middle" x="97.2" y="-98.82" font-family="Times,serif" font-size="14.00" fill="#777777">実装済みツールチェ</text>
<text xml:space="preserve" text-anchor="middle" x="97.2" y="-82.02" font-family="Times,serif" font-size="14.00" fill="#777777">ーン (#148)</text>
</g>
<!-- multifile_toolchain&#45;&gt;implement_subflow_nav -->
<g id="edge5" class="edge">
<title>multifile_toolchain&#45;&gt;implement_subflow_nav</title>
<path fill="none" stroke="#dc3545" stroke-dasharray="5,2" d="M176.7,-127.03C197.4,-131.15 220.1,-135.66 242.05,-140.03"/>
<polygon fill="#dc3545" stroke="#dc3545" points="241.12,-143.41 251.61,-141.93 242.48,-136.55 241.12,-143.41"/>
</g>
</g>
</svg>
