<?xml version="1.0" encoding="UTF-8" standalone="no"?>
<!DOCTYPE svg PUBLIC "-//W3C//DTD SVG 1.1//EN"
 "http://www.w3.org/Graphics/SVG/1.1/DTD/svg11.dtd">
<!-- Generated by graphviz version 15.0.0 (0)
 -->
<!-- Title: PFDSL Pages: 1 -->
<svg width="1954pt" height="1041pt"
 viewBox="0.00 0.00 1954.00 1041.00" xmlns="http://www.w3.org/2000/svg" xmlns:xlink="http://www.w3.org/1999/xlink">
<g id="graph0" class="graph" transform="scale(1 1) rotate(0) translate(4 1036.82)">
<title>PFDSL</title>
<polygon fill="white" stroke="none" points="-4,4 -4,-1036.82 1950.41,-1036.82 1950.41,4 -4,4"/>
<text xml:space="preserve" text-anchor="middle" x="973.21" y="-1016.22" font-family="Times,serif" font-size="14.00">Issue 依存フロー（2026&#45;06）</text>
<!-- adr_corpus -->
<g id="node1" class="node">
<title>adr_corpus</title>
<g id="a_node1"><a xlink:title="ADR 群 (docs/adr)&#10;&#10;方法論の設計決定記録。一覧と本数は docs/adr/README.md が一次情報（ここに数を書かない — ドリフトするため）&#10;criteria: 対象判断が文書化され docs/adr/README.md の一覧に追記済み&#10;location: docs/adr/">
<polygon fill="#d4edda" stroke="black" stroke-width="2" points="178.41,-58.4 34.41,-58.4 34.41,-16.8 178.41,-16.8 178.41,-58.4"/>
<text xml:space="preserve" text-anchor="middle" x="106.41" y="-41.8" font-family="Times,serif" font-size="14.00">adr_corpus</text>
<text xml:space="preserve" text-anchor="middle" x="106.41" y="-25" font-family="Times,serif" font-size="14.00">ADR 群 (docs/adr)</text>
</a>
</g>
<text xml:space="preserve" text-anchor="middle" x="20.81" y="-4.2" font-family="Times,serif" font-size="14.00">done</text>
</g>
<!-- write_article -->
<g id="node36" class="node">
<title>write_article</title>
<ellipse fill="none" stroke="black" cx="342.88" cy="-37.6" rx="61.33" ry="29.42"/>
<text xml:space="preserve" text-anchor="middle" x="342.88" y="-41.8" font-family="Times,serif" font-size="14.00">write_article</text>
<text xml:space="preserve" text-anchor="middle" x="342.88" y="-25" font-family="Times,serif" font-size="14.00">記事執筆</text>
</g>
<!-- adr_corpus&#45;&gt;write_article -->
<g id="edge37" class="edge">
<title>adr_corpus&#45;&gt;write_article</title>
<path fill="none" stroke="black" d="M179.35,-37.6C208.11,-37.6 241.17,-37.6 269.93,-37.6"/>
<polygon fill="black" stroke="black" points="269.62,-41.1 279.62,-37.6 269.62,-34.1 269.62,-41.1"/>
</g>
<!-- audit_distribution -->
<g id="node2" class="node">
<title>audit_distribution</title>
<g id="a_node2"><a xlink:href="https://github.com/takasek/pfdsl/issues/43" xlink:title="L3資産の階層化配布 (#43)&#10;&#10;audit コア + flow&#45;sync action を skill 同梱・配布可能化。scripts/lib/issues&#45;flow&#45;audit.mjs を #37 と共有するため着手順を調整。実配布フローは #11&#10;criteria: install/ に配布可能ファイルが揃い、CI で identity が強制されている&#10;location: https://github.com/takasek/pfdsl/issues/43">
<polygon fill="#d4edda" stroke="black" stroke-width="2" points="694.54,-752.8 543.34,-752.8 543.34,-694.4 694.54,-694.4 694.54,-752.8"/>
<text xml:space="preserve" text-anchor="middle" x="618.94" y="-736.2" font-family="Times,serif" font-size="14.00">audit_distribution</text>
<text xml:space="preserve" text-anchor="middle" x="618.94" y="-719.4" font-family="Times,serif" font-size="14.00">L3資産の階層化配布</text>
<text xml:space="preserve" text-anchor="middle" x="618.94" y="-702.6" font-family="Times,serif" font-size="14.00"> (#43)</text>
</a>
</g>
<text xml:space="preserve" text-anchor="middle" x="529.73" y="-681.8" font-family="Times,serif" font-size="14.00">done</text>
</g>
<!-- build_obsidian_plugin -->
<g id="node3" class="node">
<title>build_obsidian_plugin</title>
<g id="a_node3"><a xlink:title="Obsidianプラグイン実装">
<ellipse fill="none" stroke="black" cx="342.88" cy="-889.6" rx="100.41" ry="41.3"/>
<text xml:space="preserve" text-anchor="middle" x="342.88" y="-902.2" font-family="Times,serif" font-size="14.00">build_obsidian_plugin</text>
<text xml:space="preserve" text-anchor="middle" x="342.88" y="-885.4" font-family="Times,serif" font-size="14.00">Obsidianプラグイン</text>
<text xml:space="preserve" text-anchor="middle" x="342.88" y="-868.6" font-family="Times,serif" font-size="14.00">実装</text>
</a>
</g>
</g>
<!-- i3_obsidian_plugin -->
<g id="node15" class="node">
<title>i3_obsidian_plugin</title>
<g id="a_node15"><a xlink:href="https://github.com/takasek/pfdsl/issues/3" xlink:title="Obsidian プラグイン (#3)&#10;criteria: Obsidian 上で .pfdsl のプレビュー・編集が動作確認済み&#10;location: https://github.com/takasek/pfdsl/issues/3">
<polygon fill="#f8f9fa" stroke="black" stroke-width="2" points="701.74,-918.8 536.14,-918.8 536.14,-860.4 701.74,-860.4 701.74,-918.8"/>
<text xml:space="preserve" text-anchor="middle" x="618.94" y="-902.2" font-family="Times,serif" font-size="14.00">i3_obsidian_plugin</text>
<text xml:space="preserve" text-anchor="middle" x="618.94" y="-885.4" font-family="Times,serif" font-size="14.00">Obsidian プラグイン </text>
<text xml:space="preserve" text-anchor="middle" x="618.94" y="-868.6" font-family="Times,serif" font-size="14.00">(#3)</text>
</a>
</g>
<text xml:space="preserve" text-anchor="middle" x="523.69" y="-847.8" font-family="Times,serif" font-size="14.00">todo</text>
</g>
<!-- build_obsidian_plugin&#45;&gt;i3_obsidian_plugin -->
<g id="edge40" class="edge">
<title>build_obsidian_plugin&#45;&gt;i3_obsidian_plugin</title>
<path fill="none" stroke="black" d="M443.59,-889.6C469.86,-889.6 498.1,-889.6 524.05,-889.6"/>
<polygon fill="black" stroke="black" points="523.89,-893.1 533.89,-889.6 523.89,-886.1 523.89,-893.1"/>
</g>
<!-- cli_tool -->
<g id="node4" class="node">
<title>cli_tool</title>
<g id="a_node4"><a xlink:title="CLI 実装（現行）&#10;criteria: check/fmt/graph が全サンプルに対してエラーなし、npm 公開済み">
<polygon fill="#d4edda" stroke="black" stroke-width="2" points="174.81,-782.4 38.01,-782.4 38.01,-740.8 174.81,-740.8 174.81,-782.4"/>
<text xml:space="preserve" text-anchor="middle" x="106.41" y="-765.8" font-family="Times,serif" font-size="14.00">cli_tool</text>
<text xml:space="preserve" text-anchor="middle" x="106.41" y="-749" font-family="Times,serif" font-size="14.00">CLI 実装（現行）</text>
</a>
</g>
<text xml:space="preserve" text-anchor="middle" x="24.41" y="-728.2" font-family="Times,serif" font-size="14.00">done</text>
</g>
<!-- cli_tool&#45;&gt;build_obsidian_plugin -->
<g id="edge39" class="edge">
<title>cli_tool&#45;&gt;build_obsidian_plugin</title>
<path fill="none" stroke="black" d="M136.02,-783.15C158.55,-799.56 191.14,-822.06 221.61,-838.6 233.29,-844.94 245.93,-851.05 258.47,-856.7"/>
<polygon fill="black" stroke="black" points="257.01,-859.88 267.57,-860.72 259.84,-853.48 257.01,-859.88"/>
</g>
<!-- implement_lints -->
<g id="node19" class="node">
<title>implement_lints</title>
<ellipse fill="none" stroke="black" cx="342.88" cy="-646.6" rx="75.66" ry="29.42"/>
<text xml:space="preserve" text-anchor="middle" x="342.88" y="-650.8" font-family="Times,serif" font-size="14.00">implement_lints</text>
<text xml:space="preserve" text-anchor="middle" x="342.88" y="-634" font-family="Times,serif" font-size="14.00">lint実装</text>
</g>
<!-- cli_tool&#45;&gt;implement_lints -->
<g id="edge21" class="edge">
<title>cli_tool&#45;&gt;implement_lints</title>
<path fill="none" stroke="black" d="M135.21,-739.95C157.57,-723.33 190.31,-700.74 221.61,-685.6 236.47,-678.42 252.96,-672.09 268.86,-666.74"/>
<polygon fill="black" stroke="black" points="269.88,-670.09 278.3,-663.66 267.71,-663.43 269.88,-670.09"/>
</g>
<!-- layer_audit_assets -->
<g id="node23" class="node">
<title>layer_audit_assets</title>
<ellipse fill="none" stroke="black" cx="342.88" cy="-723.6" rx="83.89" ry="29.42"/>
<text xml:space="preserve" text-anchor="middle" x="342.88" y="-727.8" font-family="Times,serif" font-size="14.00">layer_audit_assets</text>
<text xml:space="preserve" text-anchor="middle" x="342.88" y="-711" font-family="Times,serif" font-size="14.00">L3資産階層化</text>
</g>
<!-- cli_tool&#45;&gt;layer_audit_assets -->
<g id="edge35" class="edge">
<title>cli_tool&#45;&gt;layer_audit_assets</title>
<path fill="none" stroke="black" d="M175.54,-750.56C200.39,-746.53 228.82,-741.92 255.07,-737.67"/>
<polygon fill="black" stroke="black" points="255.37,-741.17 264.68,-736.11 254.25,-734.26 255.37,-741.17"/>
</g>
<!-- publish_cli -->
<g id="node27" class="node">
<title>publish_cli</title>
<ellipse fill="none" stroke="black" cx="342.88" cy="-800.6" rx="55.31" ry="29.42"/>
<text xml:space="preserve" text-anchor="middle" x="342.88" y="-804.8" font-family="Times,serif" font-size="14.00">publish_cli</text>
<text xml:space="preserve" text-anchor="middle" x="342.88" y="-788" font-family="Times,serif" font-size="14.00">CLI公開</text>
</g>
<!-- cli_tool&#45;&gt;publish_cli -->
<g id="edge33" class="edge">
<title>cli_tool&#45;&gt;publish_cli</title>
<path fill="none" stroke="black" d="M175.54,-772.93C208.08,-778.34 246.77,-784.78 278.65,-790.08"/>
<polygon fill="black" stroke="black" points="277.69,-793.47 288.12,-791.66 278.83,-786.57 277.69,-793.47"/>
</g>
<!-- criteria_spec -->
<g id="node5" class="node">
<title>criteria_spec</title>
<g id="a_node5"><a xlink:href="https://github.com/takasek/pfdsl/issues/7" xlink:title="合否基準仕様案 (#7)&#10;criteria: 仕様案として起草完了&#10;location: https://github.com/takasek/pfdsl/issues/7">
<polygon fill="#d4edda" stroke="black" points="698.14,-216.4 539.74,-216.4 539.74,-174.8 698.14,-174.8 698.14,-216.4"/>
<text xml:space="preserve" text-anchor="middle" x="618.94" y="-199.8" font-family="Times,serif" font-size="14.00">criteria_spec</text>
<text xml:space="preserve" text-anchor="middle" x="618.94" y="-183" font-family="Times,serif" font-size="14.00">合否基準仕様案 (#7)</text>
</a>
</g>
<text xml:space="preserve" text-anchor="middle" x="526.13" y="-162.2" font-family="Times,serif" font-size="14.00">done</text>
</g>
<!-- integrate_spec -->
<g id="node22" class="node">
<title>integrate_spec</title>
<ellipse fill="none" stroke="black" cx="842.22" cy="-382.6" rx="68.48" ry="29.42"/>
<text xml:space="preserve" text-anchor="middle" x="842.22" y="-386.8" font-family="Times,serif" font-size="14.00">integrate_spec</text>
<text xml:space="preserve" text-anchor="middle" x="842.22" y="-370" font-family="Times,serif" font-size="14.00">仕様統合</text>
</g>
<!-- criteria_spec&#45;&gt;integrate_spec -->
<g id="edge13" class="edge">
<title>criteria_spec&#45;&gt;integrate_spec</title>
<path fill="none" stroke="black" d="M698.52,-213.77C712.37,-219.1 726.08,-225.91 737.74,-234.6 776.13,-263.2 805.54,-310.34 823.03,-343.72"/>
<polygon fill="black" stroke="black" points="819.72,-344.94 827.38,-352.26 825.95,-341.76 819.72,-344.94"/>
</g>
<!-- design_notes -->
<g id="node6" class="node">
<title>design_notes</title>
<g id="a_node6"><a xlink:href="https://github.com/takasek/pfdsl/issues/9" xlink:title="設計判断ノート・分岐なし方針 (#9)&#10;criteria: 仕様案として起草完了&#10;location: https://github.com/takasek/pfdsl/issues/9">
<polygon fill="#d4edda" stroke="black" points="694.54,-148.8 543.34,-148.8 543.34,-90.4 694.54,-90.4 694.54,-148.8"/>
<text xml:space="preserve" text-anchor="middle" x="618.94" y="-132.2" font-family="Times,serif" font-size="14.00">design_notes</text>
<text xml:space="preserve" text-anchor="middle" x="618.94" y="-115.4" font-family="Times,serif" font-size="14.00">設計判断ノート・分</text>
<text xml:space="preserve" text-anchor="middle" x="618.94" y="-98.6" font-family="Times,serif" font-size="14.00">岐なし方針 (#9)</text>
</a>
</g>
<text xml:space="preserve" text-anchor="middle" x="529.73" y="-77.8" font-family="Times,serif" font-size="14.00">done</text>
</g>
<!-- design_notes&#45;&gt;integrate_spec -->
<g id="edge16" class="edge">
<title>design_notes&#45;&gt;integrate_spec</title>
<path fill="none" stroke="black" d="M694.94,-139.12C710.37,-145.68 725.6,-154.31 737.74,-165.6 789.81,-214.01 818.4,-294.08 831.7,-342.24"/>
<polygon fill="black" stroke="black" points="828.27,-342.94 834.22,-351.71 835.04,-341.14 828.27,-342.94"/>
</g>
<!-- draft_criteria -->
<g id="node7" class="node">
<title>draft_criteria</title>
<ellipse fill="none" stroke="black" cx="342.88" cy="-191.6" rx="70.71" ry="29.42"/>
<text xml:space="preserve" text-anchor="middle" x="342.88" y="-195.8" font-family="Times,serif" font-size="14.00">draft_criteria</text>
<text xml:space="preserve" text-anchor="middle" x="342.88" y="-179" font-family="Times,serif" font-size="14.00">合否基準仕様起草</text>
</g>
<!-- draft_criteria&#45;&gt;criteria_spec -->
<g id="edge6" class="edge">
<title>draft_criteria&#45;&gt;criteria_spec</title>
<path fill="none" stroke="black" d="M413.74,-192.62C448.52,-193.13 490.97,-193.75 528.14,-194.29"/>
<polygon fill="black" stroke="black" points="527.93,-197.79 537.98,-194.43 528.03,-190.79 527.93,-197.79"/>
</g>
<!-- draft_external_stakeholders -->
<g id="node8" class="node">
<title>draft_external_stakeholders</title>
<g id="a_node8"><a xlink:title="externalStakeholders仕様起草&#10;&#10;artifact / process の externalStakeholders フィールドを spec に定義する。型・終端監査との連携（#37）・サンプル反映を含む">
<ellipse fill="none" stroke="black" cx="342.88" cy="-557.6" rx="121.26" ry="41.3"/>
<text xml:space="preserve" text-anchor="middle" x="342.88" y="-570.2" font-family="Times,serif" font-size="14.00">draft_external_stakeholders</text>
<text xml:space="preserve" text-anchor="middle" x="342.88" y="-553.4" font-family="Times,serif" font-size="14.00">externalStakeholders</text>
<text xml:space="preserve" text-anchor="middle" x="342.88" y="-536.6" font-family="Times,serif" font-size="14.00">仕様起草</text>
</a>
</g>
</g>
<!-- i97_external_stakeholders_spec -->
<g id="node18" class="node">
<title>i97_external_stakeholders_spec</title>
<g id="a_node18"><a xlink:href="https://github.com/takasek/pfdsl/issues/97" xlink:title="externalStakeholders フィールド仕様案 (#97)&#10;&#10;artifact / process に外部消費者を列挙するフィールド。owner と対称。終端監査（#37）で消費者として扱う。ecosystem 廃止（ADR&#45;0017）の代替手段。v0.0.7 スコープ&#10;criteria: 仕様案として起草完了&#10;location: https://github.com/takasek/pfdsl/issues/97">
<polygon fill="#fff3cd" stroke="black" points="737.74,-586.2 500.14,-586.2 500.14,-511 737.74,-511 737.74,-586.2"/>
<text xml:space="preserve" text-anchor="middle" x="618.94" y="-569.6" font-family="Times,serif" font-size="14.00">i97_external_stakeholders_spec</text>
<text xml:space="preserve" text-anchor="middle" x="618.94" y="-552.8" font-family="Times,serif" font-size="14.00">externalStakeholders</text>
<text xml:space="preserve" text-anchor="middle" x="618.94" y="-536" font-family="Times,serif" font-size="14.00">フィールド仕様案 </text>
<text xml:space="preserve" text-anchor="middle" x="618.94" y="-519.2" font-family="Times,serif" font-size="14.00">#97)</text>
</a>
</g>
<text xml:space="preserve" text-anchor="middle" x="489.64" y="-498.4" font-family="Times,serif" font-size="14.00">wip</text>
</g>
<!-- draft_external_stakeholders&#45;&gt;i97_external_stakeholders_spec -->
<g id="edge42" class="edge">
<title>draft_external_stakeholders&#45;&gt;i97_external_stakeholders_spec</title>
<path fill="none" stroke="black" d="M464.08,-553.65C472.2,-553.39 480.39,-553.12 488.55,-552.85"/>
<polygon fill="black" stroke="black" points="488.65,-556.35 498.53,-552.52 488.42,-549.35 488.65,-556.35"/>
</g>
<!-- draft_location -->
<g id="node9" class="node">
<title>draft_location</title>
<g id="a_node9"><a xlink:title="location/command 起草">
<ellipse fill="none" stroke="black" cx="342.88" cy="-456.6" rx="84.99" ry="41.3"/>
<text xml:space="preserve" text-anchor="middle" x="342.88" y="-469.2" font-family="Times,serif" font-size="14.00">draft_location</text>
<text xml:space="preserve" text-anchor="middle" x="342.88" y="-452.4" font-family="Times,serif" font-size="14.00">location/command</text>
<text xml:space="preserve" text-anchor="middle" x="342.88" y="-435.6" font-family="Times,serif" font-size="14.00">起草</text>
</a>
</g>
</g>
<!-- location_spec -->
<g id="node25" class="node">
<title>location_spec</title>
<g id="a_node25"><a xlink:href="https://github.com/takasek/pfdsl/issues/13" xlink:title="location/command 仕様案 (#13)&#10;&#10;ノードと実ファイル・実行手順を結ぶメタデータ。パス解決規則のみ multifile 方針と接点&#10;criteria: 仕様案として起草完了&#10;location: https://github.com/takasek/pfdsl/issues/13">
<polygon fill="#d4edda" stroke="black" points="687.34,-478.8 550.54,-478.8 550.54,-420.4 687.34,-420.4 687.34,-478.8"/>
<text xml:space="preserve" text-anchor="middle" x="618.94" y="-462.2" font-family="Times,serif" font-size="14.00">location_spec</text>
<text xml:space="preserve" text-anchor="middle" x="618.94" y="-445.4" font-family="Times,serif" font-size="14.00">location/command</text>
<text xml:space="preserve" text-anchor="middle" x="618.94" y="-428.6" font-family="Times,serif" font-size="14.00">仕様案 (#13)</text>
</a>
</g>
<text xml:space="preserve" text-anchor="middle" x="536.93" y="-407.8" font-family="Times,serif" font-size="14.00">done</text>
</g>
<!-- draft_location&#45;&gt;location_spec -->
<g id="edge10" class="edge">
<title>draft_location&#45;&gt;location_spec</title>
<path fill="none" stroke="black" d="M427.97,-454.45C463.32,-453.55 504.23,-452.5 539.01,-451.62"/>
<polygon fill="black" stroke="black" points="538.65,-455.13 548.56,-451.37 538.47,-448.13 538.65,-455.13"/>
</g>
<!-- draft_multifile_specs -->
<g id="node10" class="node">
<title>draft_multifile_specs</title>
<g id="a_node10"><a xlink:title="階層・プリセット共同起草&#10;&#10;#5 と #6 は決定が往復で形成される相互依存のため分割せず共同設計する。共有決定は方針記録として外化">
<ellipse fill="none" stroke="black" cx="1260.77" cy="-286.6" rx="95.44" ry="41.3"/>
<text xml:space="preserve" text-anchor="middle" x="1260.77" y="-299.2" font-family="Times,serif" font-size="14.00">draft_multifile_specs</text>
<text xml:space="preserve" text-anchor="middle" x="1260.77" y="-282.4" font-family="Times,serif" font-size="14.00">階層・プリセット共</text>
<text xml:space="preserve" text-anchor="middle" x="1260.77" y="-265.6" font-family="Times,serif" font-size="14.00">同起草</text>
</a>
</g>
</g>
<!-- i5_hierarchy_spec -->
<g id="node16" class="node">
<title>i5_hierarchy_spec</title>
<g id="a_node16"><a xlink:href="https://github.com/takasek/pfdsl/issues/5" xlink:title="階層PFD仕様案 (#5)&#10;criteria: 仕様案として起草完了&#10;location: https://github.com/takasek/pfdsl/issues/5">
<polygon fill="#f8f9fa" stroke="black" points="1560.44,-307.4 1409.24,-307.4 1409.24,-265.8 1560.44,-265.8 1560.44,-307.4"/>
<text xml:space="preserve" text-anchor="middle" x="1484.84" y="-290.8" font-family="Times,serif" font-size="14.00">i5_hierarchy_spec</text>
<text xml:space="preserve" text-anchor="middle" x="1484.84" y="-274" font-family="Times,serif" font-size="14.00">階層PFD仕様案 (#5)</text>
</a>
</g>
<text xml:space="preserve" text-anchor="middle" x="1396.8" y="-253.2" font-family="Times,serif" font-size="14.00">todo</text>
</g>
<!-- draft_multifile_specs&#45;&gt;i5_hierarchy_spec -->
<g id="edge2" class="edge">
<title>draft_multifile_specs&#45;&gt;i5_hierarchy_spec</title>
<path fill="none" stroke="black" d="M1356.59,-286.6C1370.22,-286.6 1384.19,-286.6 1397.64,-286.6"/>
<polygon fill="black" stroke="black" points="1397.29,-290.1 1407.29,-286.6 1397.29,-283.1 1397.29,-290.1"/>
</g>
<!-- i6_presets_spec -->
<g id="node17" class="node">
<title>i6_presets_spec</title>
<g id="a_node17"><a xlink:href="https://github.com/takasek/pfdsl/issues/6" xlink:title="共有プリセット仕様案 (#6)&#10;criteria: 仕様案として起草完了&#10;location: https://github.com/takasek/pfdsl/issues/6">
<polygon fill="#f8f9fa" stroke="black" points="1560.44,-247.8 1409.24,-247.8 1409.24,-189.4 1560.44,-189.4 1560.44,-247.8"/>
<text xml:space="preserve" text-anchor="middle" x="1484.84" y="-231.2" font-family="Times,serif" font-size="14.00">i6_presets_spec</text>
<text xml:space="preserve" text-anchor="middle" x="1484.84" y="-214.4" font-family="Times,serif" font-size="14.00">共有プリセット仕様</text>
<text xml:space="preserve" text-anchor="middle" x="1484.84" y="-197.6" font-family="Times,serif" font-size="14.00">案 (#6)</text>
</a>
</g>
<text xml:space="preserve" text-anchor="middle" x="1396.8" y="-176.8" font-family="Times,serif" font-size="14.00">todo</text>
</g>
<!-- draft_multifile_specs&#45;&gt;i6_presets_spec -->
<g id="edge3" class="edge">
<title>draft_multifile_specs&#45;&gt;i6_presets_spec</title>
<path fill="none" stroke="black" d="M1339.44,-262.82C1358.35,-257.03 1378.68,-250.8 1397.94,-244.9"/>
<polygon fill="black" stroke="black" points="1398.85,-248.29 1407.39,-242.01 1396.8,-241.59 1398.85,-248.29"/>
</g>
<!-- multifile_policy -->
<g id="node26" class="node">
<title>multifile_policy</title>
<g id="a_node26"><a xlink:title="マルチファイル意味論方針&#10;&#10;共同起草で確定した ID スコープ・継承解決順・ファイル間参照の決定記録。ファイル横断機能（#8 実装等）と仕様統合の前提資料&#10;criteria: ID スコープ・継承解決順・ファイル間参照の決定が文書化済み">
<polygon fill="#f8f9fa" stroke="black" points="1560.44,-383.8 1409.24,-383.8 1409.24,-325.4 1560.44,-325.4 1560.44,-383.8"/>
<text xml:space="preserve" text-anchor="middle" x="1484.84" y="-367.2" font-family="Times,serif" font-size="14.00">multifile_policy</text>
<text xml:space="preserve" text-anchor="middle" x="1484.84" y="-350.4" font-family="Times,serif" font-size="14.00">マルチファイル意味</text>
<text xml:space="preserve" text-anchor="middle" x="1484.84" y="-333.6" font-family="Times,serif" font-size="14.00">論方針</text>
</a>
</g>
<text xml:space="preserve" text-anchor="middle" x="1396.8" y="-312.8" font-family="Times,serif" font-size="14.00">todo</text>
</g>
<!-- draft_multifile_specs&#45;&gt;multifile_policy -->
<g id="edge4" class="edge">
<title>draft_multifile_specs&#45;&gt;multifile_policy</title>
<path fill="none" stroke="black" d="M1339.44,-310.38C1358.35,-316.17 1378.68,-322.4 1397.94,-328.3"/>
<polygon fill="black" stroke="black" points="1396.8,-331.61 1407.39,-331.19 1398.85,-324.91 1396.8,-331.61"/>
</g>
<!-- draft_revises -->
<g id="node11" class="node">
<title>draft_revises</title>
<g id="a_node11"><a xlink:title="改版チェーン仕様起草">
<ellipse fill="none" stroke="black" cx="342.88" cy="-355.6" rx="78.14" ry="41.3"/>
<text xml:space="preserve" text-anchor="middle" x="342.88" y="-368.2" font-family="Times,serif" font-size="14.00">draft_revises</text>
<text xml:space="preserve" text-anchor="middle" x="342.88" y="-351.4" font-family="Times,serif" font-size="14.00">改版チェーン仕様起</text>
<text xml:space="preserve" text-anchor="middle" x="342.88" y="-334.6" font-family="Times,serif" font-size="14.00">草</text>
</a>
</g>
</g>
<!-- revises_spec -->
<g id="node31" class="node">
<title>revises_spec</title>
<g id="a_node31"><a xlink:href="https://github.com/takasek/pfdsl/issues/8" xlink:title="改版チェーン仕様案 (#8)&#10;criteria: 仕様案として起草完了&#10;location: https://github.com/takasek/pfdsl/issues/8">
<polygon fill="#d4edda" stroke="black" points="698.14,-390.8 539.74,-390.8 539.74,-332.4 698.14,-332.4 698.14,-390.8"/>
<text xml:space="preserve" text-anchor="middle" x="618.94" y="-374.2" font-family="Times,serif" font-size="14.00">revises_spec</text>
<text xml:space="preserve" text-anchor="middle" x="618.94" y="-357.4" font-family="Times,serif" font-size="14.00">改版チェーン仕様案 </text>
<text xml:space="preserve" text-anchor="middle" x="618.94" y="-340.6" font-family="Times,serif" font-size="14.00">(#8)</text>
</a>
</g>
<text xml:space="preserve" text-anchor="middle" x="526.13" y="-319.8" font-family="Times,serif" font-size="14.00">done</text>
</g>
<!-- draft_revises&#45;&gt;revises_spec -->
<g id="edge8" class="edge">
<title>draft_revises&#45;&gt;revises_spec</title>
<path fill="none" stroke="black" d="M421.31,-357.3C454.45,-358.02 493.36,-358.87 527.78,-359.63"/>
<polygon fill="black" stroke="black" points="527.68,-363.12 537.75,-359.84 527.83,-356.13 527.68,-363.12"/>
</g>
<!-- featured_toolchain -->
<g id="node12" class="node">
<title>featured_toolchain</title>
<g id="a_node12"><a xlink:href="https://github.com/takasek/pfdsl/issues/52" xlink:title="spec v0.0.7 実装済みツールチェーン (#52)&#10;criteria: spec v0.0.7 の全機能が実装され、check/fmt/graph がエラーなしで動作&#10;location: https://github.com/takasek/pfdsl/issues/52">
<polygon fill="#d4edda" stroke="black" points="1560.44,-477.2 1409.24,-477.2 1409.24,-402 1560.44,-402 1560.44,-477.2"/>
<text xml:space="preserve" text-anchor="middle" x="1484.84" y="-460.6" font-family="Times,serif" font-size="14.00">featured_toolchain</text>
<text xml:space="preserve" text-anchor="middle" x="1484.84" y="-443.8" font-family="Times,serif" font-size="14.00">spec v0.0.7</text>
<text xml:space="preserve" text-anchor="middle" x="1484.84" y="-427" font-family="Times,serif" font-size="14.00">実装済みツールチェ</text>
<text xml:space="preserve" text-anchor="middle" x="1484.84" y="-410.2" font-family="Times,serif" font-size="14.00">ーン (#52)</text>
</a>
</g>
<text xml:space="preserve" text-anchor="middle" x="1395.63" y="-389.4" font-family="Times,serif" font-size="14.00">done</text>
</g>
<!-- integrate_multifile -->
<g id="node21" class="node">
<title>integrate_multifile</title>
<g id="a_node21"><a xlink:title="マルチファイル仕様統合">
<ellipse fill="none" stroke="black" cx="1681.43" cy="-320.6" rx="84.98" ry="41.3"/>
<text xml:space="preserve" text-anchor="middle" x="1681.43" y="-333.2" font-family="Times,serif" font-size="14.00">integrate_multifile</text>
<text xml:space="preserve" text-anchor="middle" x="1681.43" y="-316.4" font-family="Times,serif" font-size="14.00">マルチファイル仕様</text>
<text xml:space="preserve" text-anchor="middle" x="1681.43" y="-299.6" font-family="Times,serif" font-size="14.00">統合</text>
</a>
</g>
</g>
<!-- featured_toolchain&#45;&gt;integrate_multifile -->
<g id="edge29" class="edge">
<title>featured_toolchain&#45;&gt;integrate_multifile</title>
<path fill="none" stroke="black" d="M1547.94,-401.62C1570.32,-387.93 1595.58,-372.49 1617.99,-358.79"/>
<polygon fill="black" stroke="black" points="1619.73,-361.82 1626.44,-353.62 1616.08,-355.85 1619.73,-361.82"/>
</g>
<!-- findings_r12 -->
<g id="node13" class="node">
<title>findings_r12</title>
<g id="a_node13"><a xlink:title="実践ラウンド1/2レビュー知見&#10;&#10;docs/examples の執筆・レビューで得た品質知見&#10;criteria: skill_template または adr_corpus への反映が確認済み">
<polygon fill="#d4edda" stroke="black" stroke-width="2" points="185.61,-675.8 27.21,-675.8 27.21,-617.4 185.61,-617.4 185.61,-675.8"/>
<text xml:space="preserve" text-anchor="middle" x="106.41" y="-659.2" font-family="Times,serif" font-size="14.00">findings_r12</text>
<text xml:space="preserve" text-anchor="middle" x="106.41" y="-642.4" font-family="Times,serif" font-size="14.00">実践ラウンド1/2レビ</text>
<text xml:space="preserve" text-anchor="middle" x="106.41" y="-625.6" font-family="Times,serif" font-size="14.00">ュー知見</text>
</a>
</g>
<text xml:space="preserve" text-anchor="middle" x="13.61" y="-604.8" font-family="Times,serif" font-size="14.00">done</text>
</g>
<!-- findings_r12&#45;&gt;implement_lints -->
<g id="edge20" class="edge">
<title>findings_r12&#45;&gt;implement_lints</title>
<path fill="none" stroke="black" d="M186.47,-646.6C208.64,-646.6 232.87,-646.6 255.45,-646.6"/>
<polygon fill="black" stroke="black" points="255.22,-650.1 265.22,-646.6 255.22,-643.1 255.22,-650.1"/>
</g>
<!-- i12_article -->
<g id="node14" class="node">
<title>i12_article</title>
<g id="a_node14"><a xlink:href="https://github.com/takasek/pfdsl/issues/12" xlink:title="公開記事 (#12)&#10;&#10;ADR 群を素材とした外部公開記事。依存なしで着手可能、spec v0.0.7 確定後はより充実&#10;criteria: 外部メディアに公開済みで URL が存在する&#10;location: https://github.com/takasek/pfdsl/issues/12">
<polygon fill="#f8f9fa" stroke="black" stroke-width="2" points="680.14,-58.4 557.74,-58.4 557.74,-16.8 680.14,-16.8 680.14,-58.4"/>
<text xml:space="preserve" text-anchor="middle" x="618.94" y="-41.8" font-family="Times,serif" font-size="14.00">i12_article</text>
<text xml:space="preserve" text-anchor="middle" x="618.94" y="-25" font-family="Times,serif" font-size="14.00">公開記事 (#12)</text>
</a>
</g>
<text xml:space="preserve" text-anchor="middle" x="545.29" y="-4.2" font-family="Times,serif" font-size="14.00">todo</text>
</g>
<!-- i5_hierarchy_spec&#45;&gt;integrate_multifile -->
<g id="edge26" class="edge">
<title>i5_hierarchy_spec&#45;&gt;integrate_multifile</title>
<path fill="none" stroke="black" d="M1560.79,-299.7C1570.26,-301.35 1580.02,-303.06 1589.7,-304.75"/>
<polygon fill="black" stroke="black" points="1589.05,-308.19 1599.5,-306.46 1590.25,-301.29 1589.05,-308.19"/>
</g>
<!-- i6_presets_spec&#45;&gt;integrate_multifile -->
<g id="edge27" class="edge">
<title>i6_presets_spec&#45;&gt;integrate_multifile</title>
<path fill="none" stroke="black" d="M1544.13,-248.16C1549.65,-251 1555.16,-253.85 1560.44,-256.6 1577.68,-265.59 1596.24,-275.41 1613.49,-284.61"/>
<polygon fill="black" stroke="black" points="1611.67,-287.61 1622.14,-289.23 1614.97,-281.43 1611.67,-287.61"/>
</g>
<!-- i97_external_stakeholders_spec&#45;&gt;integrate_spec -->
<g id="edge17" class="edge">
<title>i97_external_stakeholders_spec&#45;&gt;integrate_spec</title>
<path fill="none" stroke="black" d="M701.8,-510.5C714.23,-503.51 726.61,-495.8 737.74,-487.6 764.72,-467.71 791.17,-440.69 810.58,-419.05"/>
<polygon fill="black" stroke="black" points="813.19,-421.38 817.18,-411.57 807.94,-416.75 813.19,-421.38"/>
</g>
<!-- lint_checker -->
<g id="node24" class="node">
<title>lint_checker</title>
<g id="a_node24"><a xlink:href="https://github.com/takasek/pfdsl/issues/4" xlink:title="lint拡張checker (#4)&#10;&#10;lint 候補の完全リストは issue #4 が一次情報（本文+コメント）。ここに列挙しない — 列挙は同期漏れで腐るため&#10;criteria: issue #4 の対象 lint がすべて実装され、check コマンドで動作確認済み&#10;location: https://github.com/takasek/pfdsl/issues/4">
<polygon fill="#d4edda" stroke="black" points="1112.3,-573.4 946.7,-573.4 946.7,-531.8 1112.3,-531.8 1112.3,-573.4"/>
<text xml:space="preserve" text-anchor="middle" x="1029.5" y="-556.8" font-family="Times,serif" font-size="14.00">lint_checker</text>
<text xml:space="preserve" text-anchor="middle" x="1029.5" y="-540" font-family="Times,serif" font-size="14.00">lint拡張checker (#4)</text>
</a>
</g>
<text xml:space="preserve" text-anchor="middle" x="933.1" y="-519.2" font-family="Times,serif" font-size="14.00">done</text>
</g>
<!-- implement_lints&#45;&gt;lint_checker -->
<g id="edge22" class="edge">
<title>implement_lints&#45;&gt;lint_checker</title>
<path fill="none" stroke="black" d="M415.44,-637.73C494.4,-627.85 625.22,-611.2 737.74,-595.6 803.84,-586.43 878.29,-575.41 935.3,-566.82"/>
<polygon fill="black" stroke="black" points="935.6,-570.31 944.97,-565.36 934.56,-563.39 935.6,-570.31"/>
</g>
<!-- implement_spec_features -->
<g id="node20" class="node">
<title>implement_spec_features</title>
<ellipse fill="none" stroke="black" cx="1260.77" cy="-439.6" rx="112.47" ry="29.42"/>
<text xml:space="preserve" text-anchor="middle" x="1260.77" y="-443.8" font-family="Times,serif" font-size="14.00">implement_spec_features</text>
<text xml:space="preserve" text-anchor="middle" x="1260.77" y="-427" font-family="Times,serif" font-size="14.00">新仕様実装</text>
</g>
<!-- implement_spec_features&#45;&gt;featured_toolchain -->
<g id="edge25" class="edge">
<title>implement_spec_features&#45;&gt;featured_toolchain</title>
<path fill="none" stroke="black" d="M1373.46,-439.6C1381.51,-439.6 1389.56,-439.6 1397.44,-439.6"/>
<polygon fill="black" stroke="black" points="1397.32,-443.1 1407.32,-439.6 1397.32,-436.1 1397.32,-443.1"/>
</g>
<!-- spec_v008 -->
<g id="node35" class="node">
<title>spec_v008</title>
<g id="a_node35"><a xlink:title="仕様書 v0.0.8（マルチファイル統合）&#10;criteria: check/fmt/graph が全サンプルにエラーなし&#10;location: docs/spec/spec.md">
<polygon fill="#f8f9fa" stroke="black" stroke-width="2" points="1946.41,-358.2 1802.41,-358.2 1802.41,-283 1946.41,-283 1946.41,-358.2"/>
<text xml:space="preserve" text-anchor="middle" x="1874.41" y="-341.6" font-family="Times,serif" font-size="14.00">spec_v008</text>
<text xml:space="preserve" text-anchor="middle" x="1874.41" y="-324.8" font-family="Times,serif" font-size="14.00">仕様書 v0.0</text>
<text xml:space="preserve" text-anchor="middle" x="1874.41" y="-308" font-family="Times,serif" font-size="14.00">8（マルチファイル</text>
<text xml:space="preserve" text-anchor="middle" x="1874.41" y="-291.2" font-family="Times,serif" font-size="14.00">統合）</text>
</a>
</g>
<text xml:space="preserve" text-anchor="middle" x="1789.97" y="-270.4" font-family="Times,serif" font-size="14.00">todo</text>
</g>
<!-- integrate_multifile&#45;&gt;spec_v008 -->
<g id="edge30" class="edge">
<title>integrate_multifile&#45;&gt;spec_v008</title>
<path fill="none" stroke="black" d="M1766.75,-320.6C1774.54,-320.6 1782.43,-320.6 1790.2,-320.6"/>
<polygon fill="black" stroke="black" points="1789.98,-324.1 1799.98,-320.6 1789.98,-317.1 1789.98,-324.1"/>
</g>
<!-- spec_v007 -->
<g id="node34" class="node">
<title>spec_v007</title>
<g id="a_node34"><a xlink:title="仕様書 v0.0.7（統合）&#10;criteria: check/fmt/graph が全サンプルにエラーなし、v0.0.7 全フィールドが spec 本文に統合済み&#10;location: docs/spec/spec.md">
<polygon fill="#fff3cd" stroke="black" points="1108.7,-453.8 950.3,-453.8 950.3,-395.4 1108.7,-395.4 1108.7,-453.8"/>
<text xml:space="preserve" text-anchor="middle" x="1029.5" y="-437.2" font-family="Times,serif" font-size="14.00">spec_v007</text>
<text xml:space="preserve" text-anchor="middle" x="1029.5" y="-420.4" font-family="Times,serif" font-size="14.00">仕様書 v0.0.7（統合</text>
<text xml:space="preserve" text-anchor="middle" x="1029.5" y="-403.6" font-family="Times,serif" font-size="14.00">）</text>
</a>
</g>
<text xml:space="preserve" text-anchor="middle" x="939.8" y="-382.8" font-family="Times,serif" font-size="14.00">wip</text>
</g>
<!-- integrate_spec&#45;&gt;spec_v007 -->
<g id="edge18" class="edge">
<title>integrate_spec&#45;&gt;spec_v007</title>
<path fill="none" stroke="black" d="M903.38,-396.24C914.78,-398.82 926.94,-401.58 939.03,-404.32"/>
<polygon fill="black" stroke="black" points="938.08,-407.69 948.61,-406.49 939.63,-400.87 938.08,-407.69"/>
</g>
<!-- layer_audit_assets&#45;&gt;audit_distribution -->
<g id="edge36" class="edge">
<title>layer_audit_assets&#45;&gt;audit_distribution</title>
<path fill="none" stroke="black" d="M427.22,-723.6C460.19,-723.6 498.08,-723.6 531.35,-723.6"/>
<polygon fill="black" stroke="black" points="530.94,-727.1 540.94,-723.6 530.94,-720.1 530.94,-727.1"/>
</g>
<!-- lint_checker&#45;&gt;implement_spec_features -->
<g id="edge24" class="edge">
<title>lint_checker&#45;&gt;implement_spec_features</title>
<path fill="none" stroke="black" d="M1073.63,-531.35C1108.28,-514.27 1157.44,-490.04 1196.54,-470.76"/>
<polygon fill="black" stroke="black" points="1197.99,-473.95 1205.41,-466.39 1194.89,-467.68 1197.99,-473.95"/>
</g>
<!-- location_spec&#45;&gt;integrate_spec -->
<g id="edge15" class="edge">
<title>location_spec&#45;&gt;integrate_spec</title>
<path fill="none" stroke="black" d="M687.83,-429.04C715.42,-420.69 747.21,-411.07 774.66,-402.75"/>
<polygon fill="black" stroke="black" points="775.34,-406.21 783.89,-399.96 773.31,-399.51 775.34,-406.21"/>
</g>
<!-- multifile_policy&#45;&gt;integrate_multifile -->
<g id="edge28" class="edge">
<title>multifile_policy&#45;&gt;integrate_multifile</title>
<path fill="none" stroke="black" d="M1560.79,-341.5C1570.26,-339.85 1580.02,-338.14 1589.7,-336.45"/>
<polygon fill="black" stroke="black" points="1590.25,-339.91 1599.5,-334.74 1589.05,-333.01 1590.25,-339.91"/>
</g>
<!-- published_cli -->
<g id="node28" class="node">
<title>published_cli</title>
<g id="a_node28"><a xlink:href="https://www.npmjs.com/package/@pfdsl/cli" xlink:title="npm公開済みCLI&#10;&#10;現行公開バージョンは npm 一次情報（ここに書かない — ドリフトするため）。詳細は docs/pfdsl_implementation_flow.pfdsl の cli_published 参照&#10;criteria: npm show @pfdsl/cli version が期待バージョンを返す&#10;location: https://www.npmjs.com/package/@pfdsl/cli">
<polygon fill="#d4edda" stroke="black" stroke-width="2" points="680.14,-821.4 557.74,-821.4 557.74,-779.8 680.14,-779.8 680.14,-821.4"/>
<text xml:space="preserve" text-anchor="middle" x="618.94" y="-804.8" font-family="Times,serif" font-size="14.00">published_cli</text>
<text xml:space="preserve" text-anchor="middle" x="618.94" y="-788" font-family="Times,serif" font-size="14.00">npm公開済みCLI</text>
</a>
</g>
<text xml:space="preserve" text-anchor="middle" x="544.13" y="-767.2" font-family="Times,serif" font-size="14.00">done</text>
</g>
<!-- publish_cli&#45;&gt;published_cli -->
<g id="edge34" class="edge">
<title>publish_cli&#45;&gt;published_cli</title>
<path fill="none" stroke="black" d="M398.68,-800.6C440.87,-800.6 499.57,-800.6 545.61,-800.6"/>
<polygon fill="black" stroke="black" points="545.52,-804.1 555.52,-800.6 545.52,-797.1 545.52,-804.1"/>
</g>
<!-- restructure_skillgen -->
<g id="node29" class="node">
<title>restructure_skillgen</title>
<ellipse fill="none" stroke="black" cx="342.88" cy="-978.6" rx="89.93" ry="29.42"/>
<text xml:space="preserve" text-anchor="middle" x="342.88" y="-982.8" font-family="Times,serif" font-size="14.00">restructure_skillgen</text>
<text xml:space="preserve" text-anchor="middle" x="342.88" y="-966" font-family="Times,serif" font-size="14.00">生成系再構成</text>
</g>
<!-- restructured_gen -->
<g id="node30" class="node">
<title>restructured_gen</title>
<g id="a_node30"><a xlink:href="https://github.com/takasek/pfdsl/issues/10" xlink:title="再構成済みスキル生成系 (#10)&#10;criteria: make gen&#45;skill が差分なしで完了し、skill と gh_skill_dist が一致&#10;location: https://github.com/takasek/pfdsl/issues/10">
<polygon fill="#d4edda" stroke="black" stroke-width="2" points="694.54,-1007.8 543.34,-1007.8 543.34,-949.4 694.54,-949.4 694.54,-1007.8"/>
<text xml:space="preserve" text-anchor="middle" x="618.94" y="-991.2" font-family="Times,serif" font-size="14.00">restructured_gen</text>
<text xml:space="preserve" text-anchor="middle" x="618.94" y="-974.4" font-family="Times,serif" font-size="14.00">再構成済みスキル生</text>
<text xml:space="preserve" text-anchor="middle" x="618.94" y="-957.6" font-family="Times,serif" font-size="14.00">成系 (#10)</text>
</a>
</g>
<text xml:space="preserve" text-anchor="middle" x="529.73" y="-936.8" font-family="Times,serif" font-size="14.00">done</text>
</g>
<!-- restructure_skillgen&#45;&gt;restructured_gen -->
<g id="edge32" class="edge">
<title>restructure_skillgen&#45;&gt;restructured_gen</title>
<path fill="none" stroke="black" d="M433.23,-978.6C464.68,-978.6 499.94,-978.6 531.17,-978.6"/>
<polygon fill="black" stroke="black" points="530.96,-982.1 540.96,-978.6 530.96,-975.1 530.96,-982.1"/>
</g>
<!-- revises_spec&#45;&gt;integrate_spec -->
<g id="edge14" class="edge">
<title>revises_spec&#45;&gt;integrate_spec</title>
<path fill="none" stroke="black" d="M698.58,-369.06C719.74,-371.07 742.62,-373.24 763.72,-375.25"/>
<polygon fill="black" stroke="black" points="763.11,-378.7 773.4,-376.16 763.77,-371.73 763.11,-378.7"/>
</g>
<!-- skill_gen -->
<g id="node32" class="node">
<title>skill_gen</title>
<g id="a_node32"><a xlink:title="スキル生成系（現行）&#10;&#10;scripts/gen&#45;skill.mjs と docs/samples 構成&#10;criteria: make gen&#45;skill が差分なしで完了し、skill と gh_skill_dist が一致">
<polygon fill="#d4edda" stroke="black" stroke-width="2" points="182.01,-1007.8 30.81,-1007.8 30.81,-949.4 182.01,-949.4 182.01,-1007.8"/>
<text xml:space="preserve" text-anchor="middle" x="106.41" y="-991.2" font-family="Times,serif" font-size="14.00">skill_gen</text>
<text xml:space="preserve" text-anchor="middle" x="106.41" y="-974.4" font-family="Times,serif" font-size="14.00">スキル生成系（現行</text>
<text xml:space="preserve" text-anchor="middle" x="106.41" y="-957.6" font-family="Times,serif" font-size="14.00">）</text>
</a>
</g>
<text xml:space="preserve" text-anchor="middle" x="17.21" y="-936.8" font-family="Times,serif" font-size="14.00">done</text>
</g>
<!-- skill_gen&#45;&gt;restructure_skillgen -->
<g id="edge31" class="edge">
<title>skill_gen&#45;&gt;restructure_skillgen</title>
<path fill="none" stroke="black" d="M182.89,-978.6C201.47,-978.6 221.65,-978.6 241.21,-978.6"/>
<polygon fill="black" stroke="black" points="241.12,-982.1 251.12,-978.6 241.12,-975.1 241.12,-982.1"/>
</g>
<!-- spec_v006 -->
<g id="node33" class="node">
<title>spec_v006</title>
<g id="a_node33"><a xlink:title="仕様書 v0.0.6&#10;criteria: check/fmt/graph が全サンプルにエラーなし&#10;location: docs/spec/spec.md">
<polygon fill="#d4edda" stroke="black" stroke-width="2" points="164.01,-376.4 48.81,-376.4 48.81,-334.8 164.01,-334.8 164.01,-376.4"/>
<text xml:space="preserve" text-anchor="middle" x="106.41" y="-359.8" font-family="Times,serif" font-size="14.00">spec_v006</text>
<text xml:space="preserve" text-anchor="middle" x="106.41" y="-343" font-family="Times,serif" font-size="14.00">仕様書 v0.0.6</text>
</a>
</g>
<text xml:space="preserve" text-anchor="middle" x="35.21" y="-322.2" font-family="Times,serif" font-size="14.00">done</text>
</g>
<!-- spec_v006&#45;&gt;draft_criteria -->
<g id="edge5" class="edge">
<title>spec_v006&#45;&gt;draft_criteria</title>
<path fill="none" stroke="black" d="M122.8,-333.85C142.77,-307.06 180.02,-261.78 221.61,-234.6 236.68,-224.76 254.28,-216.83 271.29,-210.6"/>
<polygon fill="black" stroke="black" points="272.06,-214.04 280.35,-207.43 269.76,-207.43 272.06,-214.04"/>
</g>
<!-- spec_v006&#45;&gt;draft_external_stakeholders -->
<g id="edge41" class="edge">
<title>spec_v006&#45;&gt;draft_external_stakeholders</title>
<path fill="none" stroke="black" d="M118.85,-377.2C136.83,-409.35 174.57,-469.92 221.61,-506.6 229.35,-512.63 237.9,-518.07 246.77,-522.96"/>
<polygon fill="black" stroke="black" points="245.07,-526.02 255.55,-527.55 248.31,-519.82 245.07,-526.02"/>
</g>
<!-- spec_v006&#45;&gt;draft_location -->
<g id="edge9" class="edge">
<title>spec_v006&#45;&gt;draft_location</title>
<path fill="none" stroke="black" d="M156.83,-377.38C176.91,-386.2 200.35,-396.43 221.61,-405.6 236.42,-411.98 252.28,-418.75 267.46,-425.2"/>
<polygon fill="black" stroke="black" points="265.88,-428.33 276.45,-429.02 268.61,-421.89 265.88,-428.33"/>
</g>
<!-- spec_v006&#45;&gt;draft_multifile_specs -->
<g id="edge1" class="edge">
<title>spec_v006&#45;&gt;draft_multifile_specs</title>
<path fill="none" stroke="black" d="M147.13,-333.93C168.54,-323.36 195.8,-311.65 221.61,-305.6 393.3,-265.35 441.59,-286.6 617.94,-286.6 617.94,-286.6 617.94,-286.6 843.22,-286.6 948.83,-286.6 1069.5,-286.6 1153.69,-286.6"/>
<polygon fill="black" stroke="black" points="1153.55,-290.1 1163.55,-286.6 1153.55,-283.1 1153.55,-290.1"/>
</g>
<!-- spec_v006&#45;&gt;draft_revises -->
<g id="edge7" class="edge">
<title>spec_v006&#45;&gt;draft_revises</title>
<path fill="none" stroke="black" d="M164.77,-355.6C191.34,-355.6 223.51,-355.6 253.11,-355.6"/>
<polygon fill="black" stroke="black" points="252.8,-359.1 262.8,-355.6 252.8,-352.1 252.8,-359.1"/>
</g>
<!-- spec_v006&#45;&gt;implement_lints -->
<g id="edge19" class="edge">
<title>spec_v006&#45;&gt;implement_lints</title>
<path fill="none" stroke="black" d="M111.14,-377.31C120.58,-425.78 149.99,-543.58 221.61,-607.6 233.2,-617.96 247.58,-625.57 262.32,-631.16"/>
<polygon fill="black" stroke="black" points="261.06,-634.43 271.65,-634.39 263.35,-627.81 261.06,-634.43"/>
</g>
<!-- spec_v006&#45;&gt;integrate_spec -->
<g id="edge43" class="edge">
<title>spec_v006&#45;&gt;integrate_spec</title>
<path fill="none" stroke="#888888" stroke-dasharray="5,2" d="M146.24,-333.81C167.73,-323 195.35,-311.1 221.61,-305.6 446.27,-258.57 517.92,-257.54 737.74,-323.6 758.29,-329.78 779.19,-340.64 796.77,-351.38"/>
<polygon fill="#888888" stroke="#888888" points="794.57,-354.13 804.89,-356.49 798.3,-348.2 794.57,-354.13"/>
</g>
<!-- write_design_notes -->
<g id="node37" class="node">
<title>write_design_notes</title>
<ellipse fill="none" stroke="black" cx="342.88" cy="-114.6" rx="88.3" ry="29.42"/>
<text xml:space="preserve" text-anchor="middle" x="342.88" y="-118.8" font-family="Times,serif" font-size="14.00">write_design_notes</text>
<text xml:space="preserve" text-anchor="middle" x="342.88" y="-102" font-family="Times,serif" font-size="14.00">設計ノート執筆</text>
</g>
<!-- spec_v006&#45;&gt;write_design_notes -->
<g id="edge11" class="edge">
<title>spec_v006&#45;&gt;write_design_notes</title>
<path fill="none" stroke="black" d="M113.82,-333.86C127.07,-292.62 161.4,-202.79 221.61,-153.6 231.71,-145.36 243.59,-138.84 255.88,-133.69"/>
<polygon fill="black" stroke="black" points="256.8,-137.09 264.87,-130.22 254.28,-130.56 256.8,-137.09"/>
</g>
<!-- spec_v007&#45;&gt;implement_spec_features -->
<g id="edge23" class="edge">
<title>spec_v007&#45;&gt;implement_spec_features</title>
<path fill="none" stroke="black" d="M1109.08,-429.74C1119.08,-430.4 1129.48,-431.08 1139.94,-431.76"/>
<polygon fill="black" stroke="black" points="1139.58,-435.24 1149.79,-432.4 1140.04,-428.26 1139.58,-435.24"/>
</g>
<!-- write_article&#45;&gt;i12_article -->
<g id="edge38" class="edge">
<title>write_article&#45;&gt;i12_article</title>
<path fill="none" stroke="black" d="M404.7,-37.6C446.25,-37.6 501.5,-37.6 545.35,-37.6"/>
<polygon fill="black" stroke="black" points="545.3,-41.1 555.3,-37.6 545.3,-34.1 545.3,-41.1"/>
</g>
<!-- write_design_notes&#45;&gt;design_notes -->
<g id="edge12" class="edge">
<title>write_design_notes&#45;&gt;design_notes</title>
<path fill="none" stroke="black" d="M431.34,-116.2C463.57,-116.78 500.03,-117.45 532.12,-118.03"/>
<polygon fill="black" stroke="black" points="531.69,-121.53 541.75,-118.21 531.82,-114.53 531.69,-121.53"/>
</g>
</g>
</svg>
