<?xml version="1.0" encoding="UTF-8" standalone="no"?>
<!DOCTYPE svg PUBLIC "-//W3C//DTD SVG 1.1//EN"
 "http://www.w3.org/Graphics/SVG/1.1/DTD/svg11.dtd">
<!-- Generated by graphviz version 15.0.0 (0)
 -->
<!-- Title: PFDSL Pages: 1 -->
<svg width="622pt" height="318pt"
 viewBox="0.00 0.00 622.00 318.00" xmlns="http://www.w3.org/2000/svg" xmlns:xlink="http://www.w3.org/1999/xlink">
<g id="graph0" class="graph" transform="scale(1 1) rotate(0) translate(4 314.5)">
<title>PFDSL</title>
<polygon fill="white" stroke="none" points="-4,4 -4,-314.5 617.68,-314.5 617.68,4 -4,4"/>
<text xml:space="preserve" text-anchor="middle" x="306.84" y="-293.9" font-family="Times,serif" font-size="14.00">Issue 依存フロー（2026&#45;06） — diff</text>
<text xml:space="preserve" text-anchor="middle" x="306.84" y="-277.1" font-family="Times,serif" font-size="14.00">green = added · red = removed · yellow = changed</text>
<!-- featured_toolchain -->
<g id="node1" class="node">
<title>featured_toolchain</title>
<polygon fill="#f5f5f5" stroke="#bbbbbb" points="168.29,-168.2 17.09,-168.2 17.09,-93 168.29,-93 168.29,-168.2"/>
<text xml:space="preserve" text-anchor="middle" x="92.69" y="-151.6" font-family="Times,serif" font-size="14.00" fill="#777777">featured_toolchain</text>
<text xml:space="preserve" text-anchor="middle" x="92.69" y="-134.8" font-family="Times,serif" font-size="14.00" fill="#777777">spec v0.0.7</text>
<text xml:space="preserve" text-anchor="middle" x="92.69" y="-118" font-family="Times,serif" font-size="14.00" fill="#777777">実装済みツールチェ</text>
<text xml:space="preserve" text-anchor="middle" x="92.69" y="-101.2" font-family="Times,serif" font-size="14.00" fill="#777777">ーン (#52)</text>
</g>
<!-- implement_subflow_nav -->
<g id="node4" class="node">
<title>implement_subflow_nav</title>
<ellipse fill="#c3e6cb" stroke="#28a745" cx="331.13" cy="-83.6" rx="109.74" ry="41.3"/>
<text xml:space="preserve" text-anchor="middle" x="331.13" y="-96.2" font-family="Times,serif" font-size="14.00">implement_subflow_nav</text>
<text xml:space="preserve" text-anchor="middle" x="331.13" y="-79.4" font-family="Times,serif" font-size="14.00">subflowナビゲーショ</text>
<text xml:space="preserve" text-anchor="middle" x="331.13" y="-62.6" font-family="Times,serif" font-size="14.00">ン実装</text>
</g>
<!-- featured_toolchain&#45;&gt;implement_subflow_nav -->
<g id="edge1" class="edge">
<title>featured_toolchain&#45;&gt;implement_subflow_nav</title>
<path fill="none" stroke="#28a745" d="M168.5,-115.73C185.53,-112.34 203.96,-108.68 222.07,-105.08"/>
<polygon fill="#28a745" stroke="#28a745" points="222.67,-108.53 231.8,-103.15 221.31,-101.66 222.67,-108.53"/>
</g>
<!-- i147_subflow_nav -->
<g id="node2" class="node">
<title>i147_subflow_nav</title>
<polygon fill="#c3e6cb" stroke="#28a745" points="613.68,-121.2 476.88,-121.2 476.88,-46 613.68,-46 613.68,-121.2"/>
<text xml:space="preserve" text-anchor="middle" x="545.28" y="-104.6" font-family="Times,serif" font-size="14.00">i147_subflow_nav</text>
<text xml:space="preserve" text-anchor="middle" x="545.28" y="-87.8" font-family="Times,serif" font-size="14.00">VS Code subflow</text>
<text xml:space="preserve" text-anchor="middle" x="545.28" y="-71" font-family="Times,serif" font-size="14.00">ナビゲーション </text>
<text xml:space="preserve" text-anchor="middle" x="545.28" y="-54.2" font-family="Times,serif" font-size="14.00">#147)</text>
</g>
<!-- implement_multifile -->
<g id="node3" class="node">
<title>implement_multifile</title>
<ellipse fill="#ffeeba" stroke="#e0a800" cx="92.69" cy="-227.6" rx="92.69" ry="41.3"/>
<text xml:space="preserve" text-anchor="middle" x="92.69" y="-240.2" font-family="Times,serif" font-size="14.00">implement_multifile</text>
<text xml:space="preserve" text-anchor="middle" x="92.69" y="-223.4" font-family="Times,serif" font-size="14.00">マルチファイル機能</text>
<text xml:space="preserve" text-anchor="middle" x="92.69" y="-206.6" font-family="Times,serif" font-size="14.00">実装</text>
</g>
<!-- implement_subflow_nav&#45;&gt;i147_subflow_nav -->
<g id="edge2" class="edge">
<title>implement_subflow_nav&#45;&gt;i147_subflow_nav</title>
<path fill="none" stroke="#28a745" d="M441.31,-83.6C449.36,-83.6 457.38,-83.6 465.2,-83.6"/>
<polygon fill="#28a745" stroke="#28a745" points="464.97,-87.1 474.97,-83.6 464.97,-80.1 464.97,-87.1"/>
</g>
<!-- multifile_toolchain -->
<g id="node5" class="node">
<title>multifile_toolchain</title>
<polygon fill="#ffeeba" stroke="#e0a800" points="171.89,-75.2 13.49,-75.2 13.49,0 171.89,0 171.89,-75.2"/>
<text xml:space="preserve" text-anchor="middle" x="92.69" y="-58.6" font-family="Times,serif" font-size="14.00">multifile_toolchain</text>
<text xml:space="preserve" text-anchor="middle" x="92.69" y="-41.8" font-family="Times,serif" font-size="14.00">spec v0.0.8</text>
<text xml:space="preserve" text-anchor="middle" x="92.69" y="-25" font-family="Times,serif" font-size="14.00">実装済みツールチェ</text>
<text xml:space="preserve" text-anchor="middle" x="92.69" y="-8.2" font-family="Times,serif" font-size="14.00">ーン (#148)</text>
</g>
<!-- multifile_toolchain&#45;&gt;implement_subflow_nav -->
<g id="edge3" class="edge">
<title>multifile_toolchain&#45;&gt;implement_subflow_nav</title>
<path fill="none" stroke="#28a745" d="M172.1,-52.85C188.09,-55.96 205.17,-59.29 221.99,-62.56"/>
<polygon fill="#28a745" stroke="#28a745" points="221.02,-65.94 231.5,-64.41 222.35,-59.07 221.02,-65.94"/>
</g>
</g>
</svg>
