<?xml version="1.0" encoding="UTF-8" standalone="no"?>
<!DOCTYPE svg PUBLIC "-//W3C//DTD SVG 1.1//EN"
 "http://www.w3.org/Graphics/SVG/1.1/DTD/svg11.dtd">
<!-- Generated by graphviz version 15.0.0 (0)
 -->
<!-- Title: PFDSL Pages: 1 -->
<svg width="1877pt" height="1117pt"
 viewBox="0.00 0.00 1877.00 1117.00" xmlns="http://www.w3.org/2000/svg" xmlns:xlink="http://www.w3.org/1999/xlink">
<g id="graph0" class="graph" transform="scale(1 1) rotate(0) translate(4 1112.82)">
<title>PFDSL</title>
<polygon fill="white" stroke="none" points="-4,4 -4,-1112.82 1873.17,-1112.82 1873.17,4 -4,4"/>
<text xml:space="preserve" text-anchor="middle" x="934.59" y="-1092.22" font-family="Times,serif" font-size="14.00">Issue 依存フロー（2026&#45;06）</text>
<!-- adr_corpus -->
<g id="node1" class="node">
<title>adr_corpus</title>
<g id="a_node1"><a xlink:title="ADR 群 (docs/adr)&#10;&#10;方法論の設計決定記録。一覧と本数は docs/adr/README.md が一次情報（ここに数を書かない — ドリフトするため）">
<polygon fill="#d4edda" stroke="black" stroke-width="2" points="178.41,-58.4 34.41,-58.4 34.41,-16.8 178.41,-16.8 178.41,-58.4"/>
<text xml:space="preserve" text-anchor="middle" x="106.41" y="-41.8" font-family="Times,serif" font-size="14.00">adr_corpus</text>
<text xml:space="preserve" text-anchor="middle" x="106.41" y="-25" font-family="Times,serif" font-size="14.00">ADR 群 (docs/adr)</text>
</a>
</g>
<text xml:space="preserve" text-anchor="middle" x="20.81" y="-4.2" font-family="Times,serif" font-size="14.00">done</text>
</g>
<!-- write_article -->
<g id="node38" class="node">
<title>write_article</title>
<ellipse fill="none" stroke="black" cx="325.86" cy="-37.6" rx="61.33" ry="29.42"/>
<text xml:space="preserve" text-anchor="middle" x="325.86" y="-41.8" font-family="Times,serif" font-size="14.00">write_article</text>
<text xml:space="preserve" text-anchor="middle" x="325.86" y="-25" font-family="Times,serif" font-size="14.00">記事執筆</text>
</g>
<!-- adr_corpus&#45;&gt;write_article -->
<g id="edge36" class="edge">
<title>adr_corpus&#45;&gt;write_article</title>
<path fill="none" stroke="black" d="M179.22,-37.6C202.82,-37.6 229.05,-37.6 252.68,-37.6"/>
<polygon fill="black" stroke="black" points="252.53,-41.1 262.53,-37.6 252.53,-34.1 252.53,-41.1"/>
</g>
<!-- audit_distribution -->
<g id="node2" class="node">
<title>audit_distribution</title>
<g id="a_node2"><a xlink:title="L3資産の階層化配布 (#43)&#10;&#10;audit コア + flow&#45;sync action を skill 同梱・配布可能化。scripts/lib/issues&#45;flow&#45;audit.mjs を #37 と共有するため着手順を調整。実配布フローは #11">
<polygon fill="#d4edda" stroke="black" stroke-width="2" points="638.9,-852.8 487.7,-852.8 487.7,-794.4 638.9,-794.4 638.9,-852.8"/>
<text xml:space="preserve" text-anchor="middle" x="563.3" y="-836.2" font-family="Times,serif" font-size="14.00">audit_distribution</text>
<text xml:space="preserve" text-anchor="middle" x="563.3" y="-819.4" font-family="Times,serif" font-size="14.00">L3資産の階層化配布</text>
<text xml:space="preserve" text-anchor="middle" x="563.3" y="-802.6" font-family="Times,serif" font-size="14.00"> (#43)</text>
</a>
</g>
<text xml:space="preserve" text-anchor="middle" x="474.09" y="-781.8" font-family="Times,serif" font-size="14.00">done</text>
</g>
<!-- build_obsidian_plugin -->
<g id="node3" class="node">
<title>build_obsidian_plugin</title>
<g id="a_node3"><a xlink:title="Obsidianプラグイン実装">
<ellipse fill="none" stroke="black" cx="325.86" cy="-734.6" rx="100.41" ry="41.3"/>
<text xml:space="preserve" text-anchor="middle" x="325.86" y="-747.2" font-family="Times,serif" font-size="14.00">build_obsidian_plugin</text>
<text xml:space="preserve" text-anchor="middle" x="325.86" y="-730.4" font-family="Times,serif" font-size="14.00">Obsidianプラグイン</text>
<text xml:space="preserve" text-anchor="middle" x="325.86" y="-713.6" font-family="Times,serif" font-size="14.00">実装</text>
</a>
</g>
</g>
<!-- i3_obsidian_plugin -->
<g id="node16" class="node">
<title>i3_obsidian_plugin</title>
<g id="a_node16"><a xlink:title="Obsidian プラグイン (#3)">
<polygon fill="#f8f9fa" stroke="black" stroke-width="2" points="646.1,-763.8 480.5,-763.8 480.5,-705.4 646.1,-705.4 646.1,-763.8"/>
<text xml:space="preserve" text-anchor="middle" x="563.3" y="-747.2" font-family="Times,serif" font-size="14.00">i3_obsidian_plugin</text>
<text xml:space="preserve" text-anchor="middle" x="563.3" y="-730.4" font-family="Times,serif" font-size="14.00">Obsidian プラグイン </text>
<text xml:space="preserve" text-anchor="middle" x="563.3" y="-713.6" font-family="Times,serif" font-size="14.00">(#3)</text>
</a>
</g>
<text xml:space="preserve" text-anchor="middle" x="468.05" y="-692.8" font-family="Times,serif" font-size="14.00">todo</text>
</g>
<!-- build_obsidian_plugin&#45;&gt;i3_obsidian_plugin -->
<g id="edge39" class="edge">
<title>build_obsidian_plugin&#45;&gt;i3_obsidian_plugin</title>
<path fill="none" stroke="black" d="M426.7,-734.6C440.51,-734.6 454.65,-734.6 468.35,-734.6"/>
<polygon fill="black" stroke="black" points="468.21,-738.1 478.21,-734.6 468.21,-731.1 468.21,-738.1"/>
</g>
<!-- cli_tool -->
<g id="node4" class="node">
<title>cli_tool</title>
<polygon fill="#d4edda" stroke="black" stroke-width="2" points="174.81,-799.4 38.01,-799.4 38.01,-757.8 174.81,-757.8 174.81,-799.4"/>
<text xml:space="preserve" text-anchor="middle" x="106.41" y="-782.8" font-family="Times,serif" font-size="14.00">cli_tool</text>
<text xml:space="preserve" text-anchor="middle" x="106.41" y="-766" font-family="Times,serif" font-size="14.00">CLI 実装（現行）</text>
<text xml:space="preserve" text-anchor="middle" x="24.41" y="-745.2" font-family="Times,serif" font-size="14.00">done</text>
</g>
<!-- cli_tool&#45;&gt;build_obsidian_plugin -->
<g id="edge38" class="edge">
<title>cli_tool&#45;&gt;build_obsidian_plugin</title>
<path fill="none" stroke="black" d="M175.62,-764.8C191.15,-761.66 207.96,-758.25 224.52,-754.9"/>
<polygon fill="black" stroke="black" points="224.75,-758.43 233.86,-753.01 223.37,-751.57 224.75,-758.43"/>
</g>
<!-- fix_parser_typecheck -->
<g id="node13" class="node">
<title>fix_parser_typecheck</title>
<g id="a_node13"><a xlink:title="parser.test.ts null guard修正">
<ellipse fill="none" stroke="black" cx="325.86" cy="-633.6" rx="96.52" ry="41.3"/>
<text xml:space="preserve" text-anchor="middle" x="325.86" y="-646.2" font-family="Times,serif" font-size="14.00">fix_parser_typecheck</text>
<text xml:space="preserve" text-anchor="middle" x="325.86" y="-629.4" font-family="Times,serif" font-size="14.00">parser.test.ts null</text>
<text xml:space="preserve" text-anchor="middle" x="325.86" y="-612.6" font-family="Times,serif" font-size="14.00">guard修正</text>
</a>
</g>
</g>
<!-- cli_tool&#45;&gt;fix_parser_typecheck -->
<g id="edge42" class="edge">
<title>cli_tool&#45;&gt;fix_parser_typecheck</title>
<path fill="none" stroke="black" d="M130.25,-757.12C152.47,-736.88 187.75,-706.48 221.61,-684.6 230.12,-679.1 239.31,-673.78 248.57,-668.78"/>
<polygon fill="black" stroke="black" points="250.06,-671.96 257.28,-664.2 246.8,-665.76 250.06,-671.96"/>
</g>
<!-- implement_lints -->
<g id="node20" class="node">
<title>implement_lints</title>
<ellipse fill="none" stroke="black" cx="325.86" cy="-544.6" rx="75.66" ry="29.42"/>
<text xml:space="preserve" text-anchor="middle" x="325.86" y="-548.8" font-family="Times,serif" font-size="14.00">implement_lints</text>
<text xml:space="preserve" text-anchor="middle" x="325.86" y="-532" font-family="Times,serif" font-size="14.00">lint実装</text>
</g>
<!-- cli_tool&#45;&gt;implement_lints -->
<g id="edge20" class="edge">
<title>cli_tool&#45;&gt;implement_lints</title>
<path fill="none" stroke="black" d="M114.58,-756.93C128.78,-717.14 164.2,-632.06 221.61,-583.6 230.43,-576.15 240.82,-570.05 251.55,-565.08"/>
<polygon fill="black" stroke="black" points="252.69,-568.39 260.51,-561.24 249.94,-561.96 252.69,-568.39"/>
</g>
<!-- implement_orphan_lint -->
<g id="node21" class="node">
<title>implement_orphan_lint</title>
<ellipse fill="none" stroke="black" cx="325.86" cy="-977.6" rx="104.24" ry="29.42"/>
<text xml:space="preserve" text-anchor="middle" x="325.86" y="-981.8" font-family="Times,serif" font-size="14.00">implement_orphan_lint</text>
<text xml:space="preserve" text-anchor="middle" x="325.86" y="-965" font-family="Times,serif" font-size="14.00">孤児検出lint実装</text>
</g>
<!-- cli_tool&#45;&gt;implement_orphan_lint -->
<g id="edge40" class="edge">
<title>cli_tool&#45;&gt;implement_orphan_lint</title>
<path fill="none" stroke="black" d="M117.62,-800.36C134.63,-834.4 171.85,-900.3 221.61,-938.6 227.93,-943.46 234.92,-947.77 242.19,-951.58"/>
<polygon fill="black" stroke="black" points="240.37,-954.59 250.9,-955.81 243.43,-948.29 240.37,-954.59"/>
</g>
<!-- layer_audit_assets -->
<g id="node25" class="node">
<title>layer_audit_assets</title>
<ellipse fill="none" stroke="black" cx="325.86" cy="-823.6" rx="83.89" ry="29.42"/>
<text xml:space="preserve" text-anchor="middle" x="325.86" y="-827.8" font-family="Times,serif" font-size="14.00">layer_audit_assets</text>
<text xml:space="preserve" text-anchor="middle" x="325.86" y="-811" font-family="Times,serif" font-size="14.00">L3資産階層化</text>
</g>
<!-- cli_tool&#45;&gt;layer_audit_assets -->
<g id="edge34" class="edge">
<title>cli_tool&#45;&gt;layer_audit_assets</title>
<path fill="none" stroke="black" d="M175.62,-792.71C196.51,-797.04 219.74,-801.85 241.52,-806.35"/>
<polygon fill="black" stroke="black" points="240.78,-809.77 251.28,-808.37 242.19,-802.92 240.78,-809.77"/>
</g>
<!-- publish_cli -->
<g id="node29" class="node">
<title>publish_cli</title>
<ellipse fill="none" stroke="black" cx="325.86" cy="-900.6" rx="55.31" ry="29.42"/>
<text xml:space="preserve" text-anchor="middle" x="325.86" y="-904.8" font-family="Times,serif" font-size="14.00">publish_cli</text>
<text xml:space="preserve" text-anchor="middle" x="325.86" y="-888" font-family="Times,serif" font-size="14.00">CLI公開</text>
</g>
<!-- cli_tool&#45;&gt;publish_cli -->
<g id="edge32" class="edge">
<title>cli_tool&#45;&gt;publish_cli</title>
<path fill="none" stroke="black" d="M132.85,-800.16C155.16,-818.31 189.04,-844.02 221.61,-861.6 235.79,-869.25 251.8,-876.08 266.9,-881.81"/>
<polygon fill="black" stroke="black" points="265.68,-885.09 276.27,-885.26 268.09,-878.52 265.68,-885.09"/>
</g>
<!-- criteria_spec -->
<g id="node5" class="node">
<title>criteria_spec</title>
<polygon fill="#d4edda" stroke="black" points="642.5,-483.4 484.1,-483.4 484.1,-441.8 642.5,-441.8 642.5,-483.4"/>
<text xml:space="preserve" text-anchor="middle" x="563.3" y="-466.8" font-family="Times,serif" font-size="14.00">criteria_spec</text>
<text xml:space="preserve" text-anchor="middle" x="563.3" y="-450" font-family="Times,serif" font-size="14.00">合否基準仕様案 (#7)</text>
<text xml:space="preserve" text-anchor="middle" x="470.49" y="-429.2" font-family="Times,serif" font-size="14.00">done</text>
</g>
<!-- integrate_spec -->
<g id="node24" class="node">
<title>integrate_spec</title>
<ellipse fill="none" stroke="black" cx="764.98" cy="-357.6" rx="68.48" ry="29.42"/>
<text xml:space="preserve" text-anchor="middle" x="764.98" y="-361.8" font-family="Times,serif" font-size="14.00">integrate_spec</text>
<text xml:space="preserve" text-anchor="middle" x="764.98" y="-345" font-family="Times,serif" font-size="14.00">仕様統合</text>
</g>
<!-- criteria_spec&#45;&gt;integrate_spec -->
<g id="edge13" class="edge">
<title>criteria_spec&#45;&gt;integrate_spec</title>
<path fill="none" stroke="black" d="M631.74,-441.3C641.57,-437.48 651.42,-433.22 660.5,-428.6 681.83,-417.75 703.91,-403.14 722.17,-389.99"/>
<polygon fill="black" stroke="black" points="724.12,-392.9 730.12,-384.17 719.98,-387.25 724.12,-392.9"/>
</g>
<!-- design_notes -->
<g id="node6" class="node">
<title>design_notes</title>
<g id="a_node6"><a xlink:title="設計判断ノート・分岐なし方針 (#9)">
<polygon fill="#d4edda" stroke="black" points="638.9,-419.8 487.7,-419.8 487.7,-361.4 638.9,-361.4 638.9,-419.8"/>
<text xml:space="preserve" text-anchor="middle" x="563.3" y="-403.2" font-family="Times,serif" font-size="14.00">design_notes</text>
<text xml:space="preserve" text-anchor="middle" x="563.3" y="-386.4" font-family="Times,serif" font-size="14.00">設計判断ノート・分</text>
<text xml:space="preserve" text-anchor="middle" x="563.3" y="-369.6" font-family="Times,serif" font-size="14.00">岐なし方針 (#9)</text>
</a>
</g>
<text xml:space="preserve" text-anchor="middle" x="474.09" y="-348.8" font-family="Times,serif" font-size="14.00">done</text>
</g>
<!-- design_notes&#45;&gt;integrate_spec -->
<g id="edge16" class="edge">
<title>design_notes&#45;&gt;integrate_spec</title>
<path fill="none" stroke="black" d="M639.22,-378.22C655.59,-375.51 672.9,-372.65 689.26,-369.95"/>
<polygon fill="black" stroke="black" points="689.62,-373.44 698.91,-368.35 688.48,-366.53 689.62,-373.44"/>
</g>
<!-- draft_criteria -->
<g id="node7" class="node">
<title>draft_criteria</title>
<ellipse fill="none" stroke="black" cx="325.86" cy="-467.6" rx="70.71" ry="29.42"/>
<text xml:space="preserve" text-anchor="middle" x="325.86" y="-471.8" font-family="Times,serif" font-size="14.00">draft_criteria</text>
<text xml:space="preserve" text-anchor="middle" x="325.86" y="-455" font-family="Times,serif" font-size="14.00">合否基準仕様起草</text>
</g>
<!-- draft_criteria&#45;&gt;criteria_spec -->
<g id="edge6" class="edge">
<title>draft_criteria&#45;&gt;criteria_spec</title>
<path fill="none" stroke="black" d="M396.86,-466.11C420.6,-465.61 447.47,-465.04 472.53,-464.51"/>
<polygon fill="black" stroke="black" points="472.47,-468.01 482.39,-464.3 472.32,-461.01 472.47,-468.01"/>
</g>
<!-- draft_location -->
<g id="node8" class="node">
<title>draft_location</title>
<g id="a_node8"><a xlink:title="location/command 起草">
<ellipse fill="none" stroke="black" cx="325.86" cy="-264.6" rx="84.99" ry="41.3"/>
<text xml:space="preserve" text-anchor="middle" x="325.86" y="-277.2" font-family="Times,serif" font-size="14.00">draft_location</text>
<text xml:space="preserve" text-anchor="middle" x="325.86" y="-260.4" font-family="Times,serif" font-size="14.00">location/command</text>
<text xml:space="preserve" text-anchor="middle" x="325.86" y="-243.6" font-family="Times,serif" font-size="14.00">起草</text>
</a>
</g>
</g>
<!-- location_spec -->
<g id="node27" class="node">
<title>location_spec</title>
<g id="a_node27"><a xlink:title="location/command 仕様案 (#13)&#10;&#10;ノードと実ファイル・実行手順を結ぶメタデータ。パス解決規則のみ multifile 方針と接点">
<polygon fill="#d4edda" stroke="black" points="631.7,-299.8 494.9,-299.8 494.9,-241.4 631.7,-241.4 631.7,-299.8"/>
<text xml:space="preserve" text-anchor="middle" x="563.3" y="-283.2" font-family="Times,serif" font-size="14.00">location_spec</text>
<text xml:space="preserve" text-anchor="middle" x="563.3" y="-266.4" font-family="Times,serif" font-size="14.00">location/command</text>
<text xml:space="preserve" text-anchor="middle" x="563.3" y="-249.6" font-family="Times,serif" font-size="14.00">仕様案 (#13)</text>
</a>
</g>
<text xml:space="preserve" text-anchor="middle" x="481.29" y="-228.8" font-family="Times,serif" font-size="14.00">done</text>
</g>
<!-- draft_location&#45;&gt;location_spec -->
<g id="edge10" class="edge">
<title>draft_location&#45;&gt;location_spec</title>
<path fill="none" stroke="black" d="M411.19,-266.75C434.78,-267.35 460.31,-268 483.56,-268.59"/>
<polygon fill="black" stroke="black" points="483.17,-272.08 493.26,-268.84 483.35,-265.09 483.17,-272.08"/>
</g>
<!-- draft_multifile_specs -->
<g id="node9" class="node">
<title>draft_multifile_specs</title>
<g id="a_node9"><a xlink:title="階層・プリセット共同起草&#10;&#10;#5 と #6 は決定が往復で形成される相互依存のため分割せず共同設計する。共有決定は方針記録として外化">
<ellipse fill="none" stroke="black" cx="1183.53" cy="-138.6" rx="95.44" ry="41.3"/>
<text xml:space="preserve" text-anchor="middle" x="1183.53" y="-151.2" font-family="Times,serif" font-size="14.00">draft_multifile_specs</text>
<text xml:space="preserve" text-anchor="middle" x="1183.53" y="-134.4" font-family="Times,serif" font-size="14.00">階層・プリセット共</text>
<text xml:space="preserve" text-anchor="middle" x="1183.53" y="-117.6" font-family="Times,serif" font-size="14.00">同起草</text>
</a>
</g>
</g>
<!-- i5_hierarchy_spec -->
<g id="node17" class="node">
<title>i5_hierarchy_spec</title>
<polygon fill="#f8f9fa" stroke="black" points="1483.2,-193.4 1332,-193.4 1332,-151.8 1483.2,-151.8 1483.2,-193.4"/>
<text xml:space="preserve" text-anchor="middle" x="1407.6" y="-176.8" font-family="Times,serif" font-size="14.00">i5_hierarchy_spec</text>
<text xml:space="preserve" text-anchor="middle" x="1407.6" y="-160" font-family="Times,serif" font-size="14.00">階層PFD仕様案 (#5)</text>
<text xml:space="preserve" text-anchor="middle" x="1319.56" y="-139.2" font-family="Times,serif" font-size="14.00">todo</text>
</g>
<!-- draft_multifile_specs&#45;&gt;i5_hierarchy_spec -->
<g id="edge2" class="edge">
<title>draft_multifile_specs&#45;&gt;i5_hierarchy_spec</title>
<path fill="none" stroke="black" d="M1273.9,-152.28C1289.32,-154.64 1305.32,-157.09 1320.64,-159.44"/>
<polygon fill="black" stroke="black" points="1319.76,-162.84 1330.17,-160.9 1320.82,-155.93 1319.76,-162.84"/>
</g>
<!-- i6_presets_spec -->
<g id="node18" class="node">
<title>i6_presets_spec</title>
<g id="a_node18"><a xlink:title="共有プリセット仕様案 (#6)">
<polygon fill="#f8f9fa" stroke="black" points="1483.2,-133.8 1332,-133.8 1332,-75.4 1483.2,-75.4 1483.2,-133.8"/>
<text xml:space="preserve" text-anchor="middle" x="1407.6" y="-117.2" font-family="Times,serif" font-size="14.00">i6_presets_spec</text>
<text xml:space="preserve" text-anchor="middle" x="1407.6" y="-100.4" font-family="Times,serif" font-size="14.00">共有プリセット仕様</text>
<text xml:space="preserve" text-anchor="middle" x="1407.6" y="-83.6" font-family="Times,serif" font-size="14.00">案 (#6)</text>
</a>
</g>
<text xml:space="preserve" text-anchor="middle" x="1319.56" y="-62.8" font-family="Times,serif" font-size="14.00">todo</text>
</g>
<!-- draft_multifile_specs&#45;&gt;i6_presets_spec -->
<g id="edge3" class="edge">
<title>draft_multifile_specs&#45;&gt;i6_presets_spec</title>
<path fill="none" stroke="black" d="M1273.9,-124.92C1289.32,-122.56 1305.32,-120.11 1320.64,-117.76"/>
<polygon fill="black" stroke="black" points="1320.82,-121.27 1330.17,-116.3 1319.76,-114.36 1320.82,-121.27"/>
</g>
<!-- multifile_policy -->
<g id="node28" class="node">
<title>multifile_policy</title>
<g id="a_node28"><a xlink:title="マルチファイル意味論方針&#10;&#10;共同起草で確定した ID スコープ・継承解決順・ファイル間参照の決定記録。ファイル横断機能（#8 実装等）と仕様統合の前提資料">
<polygon fill="#f8f9fa" stroke="black" points="1483.2,-269.8 1332,-269.8 1332,-211.4 1483.2,-211.4 1483.2,-269.8"/>
<text xml:space="preserve" text-anchor="middle" x="1407.6" y="-253.2" font-family="Times,serif" font-size="14.00">multifile_policy</text>
<text xml:space="preserve" text-anchor="middle" x="1407.6" y="-236.4" font-family="Times,serif" font-size="14.00">マルチファイル意味</text>
<text xml:space="preserve" text-anchor="middle" x="1407.6" y="-219.6" font-family="Times,serif" font-size="14.00">論方針</text>
</a>
</g>
<text xml:space="preserve" text-anchor="middle" x="1319.56" y="-198.8" font-family="Times,serif" font-size="14.00">todo</text>
</g>
<!-- draft_multifile_specs&#45;&gt;multifile_policy -->
<g id="edge4" class="edge">
<title>draft_multifile_specs&#45;&gt;multifile_policy</title>
<path fill="none" stroke="black" d="M1249.96,-168.65C1275.6,-180.43 1305.16,-194.01 1331.65,-206.18"/>
<polygon fill="black" stroke="black" points="1330.1,-209.31 1340.65,-210.31 1333.02,-202.95 1330.1,-209.31"/>
</g>
<!-- draft_revises -->
<g id="node10" class="node">
<title>draft_revises</title>
<g id="a_node10"><a xlink:title="改版チェーン仕様起草">
<ellipse fill="none" stroke="black" cx="325.86" cy="-163.6" rx="78.14" ry="41.3"/>
<text xml:space="preserve" text-anchor="middle" x="325.86" y="-176.2" font-family="Times,serif" font-size="14.00">draft_revises</text>
<text xml:space="preserve" text-anchor="middle" x="325.86" y="-159.4" font-family="Times,serif" font-size="14.00">改版チェーン仕様起</text>
<text xml:space="preserve" text-anchor="middle" x="325.86" y="-142.6" font-family="Times,serif" font-size="14.00">草</text>
</a>
</g>
</g>
<!-- revises_spec -->
<g id="node33" class="node">
<title>revises_spec</title>
<g id="a_node33"><a xlink:title="改版チェーン仕様案 (#8)">
<polygon fill="#d4edda" stroke="black" points="642.5,-205.8 484.1,-205.8 484.1,-147.4 642.5,-147.4 642.5,-205.8"/>
<text xml:space="preserve" text-anchor="middle" x="563.3" y="-189.2" font-family="Times,serif" font-size="14.00">revises_spec</text>
<text xml:space="preserve" text-anchor="middle" x="563.3" y="-172.4" font-family="Times,serif" font-size="14.00">改版チェーン仕様案 </text>
<text xml:space="preserve" text-anchor="middle" x="563.3" y="-155.6" font-family="Times,serif" font-size="14.00">(#8)</text>
</a>
</g>
<text xml:space="preserve" text-anchor="middle" x="470.49" y="-134.8" font-family="Times,serif" font-size="14.00">done</text>
</g>
<!-- draft_revises&#45;&gt;revises_spec -->
<g id="edge8" class="edge">
<title>draft_revises&#45;&gt;revises_spec</title>
<path fill="none" stroke="black" d="M403.95,-167.86C425.86,-169.07 449.92,-170.39 472.51,-171.64"/>
<polygon fill="black" stroke="black" points="472.13,-175.13 482.31,-172.18 472.52,-168.14 472.13,-175.13"/>
</g>
<!-- featured_toolchain -->
<g id="node11" class="node">
<title>featured_toolchain</title>
<g id="a_node11"><a xlink:title="spec v0.0.7 実装済みツールチェーン (#52)">
<polygon fill="#d4edda" stroke="black" points="1483.2,-384.2 1332,-384.2 1332,-309 1483.2,-309 1483.2,-384.2"/>
<text xml:space="preserve" text-anchor="middle" x="1407.6" y="-367.6" font-family="Times,serif" font-size="14.00">featured_toolchain</text>
<text xml:space="preserve" text-anchor="middle" x="1407.6" y="-350.8" font-family="Times,serif" font-size="14.00">spec v0.0.7</text>
<text xml:space="preserve" text-anchor="middle" x="1407.6" y="-334" font-family="Times,serif" font-size="14.00">実装済みツールチェ</text>
<text xml:space="preserve" text-anchor="middle" x="1407.6" y="-317.2" font-family="Times,serif" font-size="14.00">ーン (#52)</text>
</a>
</g>
<text xml:space="preserve" text-anchor="middle" x="1318.39" y="-296.4" font-family="Times,serif" font-size="14.00">done</text>
</g>
<!-- integrate_multifile -->
<g id="node23" class="node">
<title>integrate_multifile</title>
<g id="a_node23"><a xlink:title="マルチファイル仕様統合">
<ellipse fill="none" stroke="black" cx="1604.19" cy="-206.6" rx="84.98" ry="41.3"/>
<text xml:space="preserve" text-anchor="middle" x="1604.19" y="-219.2" font-family="Times,serif" font-size="14.00">integrate_multifile</text>
<text xml:space="preserve" text-anchor="middle" x="1604.19" y="-202.4" font-family="Times,serif" font-size="14.00">マルチファイル仕様</text>
<text xml:space="preserve" text-anchor="middle" x="1604.19" y="-185.6" font-family="Times,serif" font-size="14.00">統合</text>
</a>
</g>
</g>
<!-- featured_toolchain&#45;&gt;integrate_multifile -->
<g id="edge28" class="edge">
<title>featured_toolchain&#45;&gt;integrate_multifile</title>
<path fill="none" stroke="black" d="M1461.52,-308.53C1487.79,-289.62 1519.56,-266.77 1546.35,-247.49"/>
<polygon fill="black" stroke="black" points="1548.3,-250.4 1554.38,-241.72 1544.21,-244.72 1548.3,-250.4"/>
</g>
<!-- findings_r12 -->
<g id="node12" class="node">
<title>findings_r12</title>
<g id="a_node12"><a xlink:title="実践ラウンド1/2レビュー知見&#10;&#10;docs/examples の執筆・レビューで得た品質知見">
<polygon fill="#d4edda" stroke="black" stroke-width="2" points="185.61,-573.8 27.21,-573.8 27.21,-515.4 185.61,-515.4 185.61,-573.8"/>
<text xml:space="preserve" text-anchor="middle" x="106.41" y="-557.2" font-family="Times,serif" font-size="14.00">findings_r12</text>
<text xml:space="preserve" text-anchor="middle" x="106.41" y="-540.4" font-family="Times,serif" font-size="14.00">実践ラウンド1/2レビ</text>
<text xml:space="preserve" text-anchor="middle" x="106.41" y="-523.6" font-family="Times,serif" font-size="14.00">ュー知見</text>
</a>
</g>
<text xml:space="preserve" text-anchor="middle" x="13.61" y="-502.8" font-family="Times,serif" font-size="14.00">done</text>
</g>
<!-- findings_r12&#45;&gt;implement_lints -->
<g id="edge19" class="edge">
<title>findings_r12&#45;&gt;implement_lints</title>
<path fill="none" stroke="black" d="M186.53,-544.6C203.46,-544.6 221.44,-544.6 238.62,-544.6"/>
<polygon fill="black" stroke="black" points="238.27,-548.1 248.27,-544.6 238.27,-541.1 238.27,-548.1"/>
</g>
<!-- i84_parser_typecheck_fix -->
<g id="node19" class="node">
<title>i84_parser_typecheck_fix</title>
<g id="a_node19"><a xlink:title="parser.test.ts tsc型エラー修正 (#84)&#10;&#10;tsc &#45;&#45;noEmit が TS2531 で失敗（output: ArtifactExpr | null への null guard 漏れ）。PR #83 検証中に発見">
<polygon fill="#fff3cd" stroke="black" stroke-width="2" points="660.5,-671.2 466.1,-671.2 466.1,-596 660.5,-596 660.5,-671.2"/>
<text xml:space="preserve" text-anchor="middle" x="563.3" y="-654.6" font-family="Times,serif" font-size="14.00">i84_parser_typecheck_fix</text>
<text xml:space="preserve" text-anchor="middle" x="563.3" y="-637.8" font-family="Times,serif" font-size="14.00">parser.test.ts</text>
<text xml:space="preserve" text-anchor="middle" x="563.3" y="-621" font-family="Times,serif" font-size="14.00">tsc型エラー修正 (#84</text>
<text xml:space="preserve" text-anchor="middle" x="563.3" y="-604.2" font-family="Times,serif" font-size="14.00">)</text>
</a>
</g>
<text xml:space="preserve" text-anchor="middle" x="455.6" y="-583.4" font-family="Times,serif" font-size="14.00">wip</text>
</g>
<!-- fix_parser_typecheck&#45;&gt;i84_parser_typecheck_fix -->
<g id="edge43" class="edge">
<title>fix_parser_typecheck&#45;&gt;i84_parser_typecheck_fix</title>
<path fill="none" stroke="black" d="M422.62,-633.6C433,-633.6 443.61,-633.6 454.12,-633.6"/>
<polygon fill="black" stroke="black" points="453.96,-637.1 463.96,-633.6 453.96,-630.1 453.96,-637.1"/>
</g>
<!-- i12_article -->
<g id="node14" class="node">
<title>i12_article</title>
<g id="a_node14"><a xlink:title="公開記事 (#12)&#10;&#10;ADR 群を素材とした外部公開記事。依存なしで着手可能、spec v0.0.7 確定後はより充実">
<polygon fill="#f8f9fa" stroke="black" stroke-width="2" points="624.5,-58.4 502.1,-58.4 502.1,-16.8 624.5,-16.8 624.5,-58.4"/>
<text xml:space="preserve" text-anchor="middle" x="563.3" y="-41.8" font-family="Times,serif" font-size="14.00">i12_article</text>
<text xml:space="preserve" text-anchor="middle" x="563.3" y="-25" font-family="Times,serif" font-size="14.00">公開記事 (#12)</text>
</a>
</g>
<text xml:space="preserve" text-anchor="middle" x="489.65" y="-4.2" font-family="Times,serif" font-size="14.00">todo</text>
</g>
<!-- i37_orphan_lint -->
<g id="node15" class="node">
<title>i37_orphan_lint</title>
<g id="a_node15"><a xlink:title="孤児process検出lint (#37)&#10;&#10;check/audit が出力なき process・孤立ノードを検出する。終端監査の機械化（学習ループの lint 要件経路、dogfood #16 由来）">
<polygon fill="#f8f9fa" stroke="black" stroke-width="2" points="646.1,-1006.8 480.5,-1006.8 480.5,-948.4 646.1,-948.4 646.1,-1006.8"/>
<text xml:space="preserve" text-anchor="middle" x="563.3" y="-990.2" font-family="Times,serif" font-size="14.00">i37_orphan_lint</text>
<text xml:space="preserve" text-anchor="middle" x="563.3" y="-973.4" font-family="Times,serif" font-size="14.00">孤児process検出lint </text>
<text xml:space="preserve" text-anchor="middle" x="563.3" y="-956.6" font-family="Times,serif" font-size="14.00">#37)</text>
</a>
</g>
<text xml:space="preserve" text-anchor="middle" x="468.05" y="-935.8" font-family="Times,serif" font-size="14.00">todo</text>
</g>
<!-- i5_hierarchy_spec&#45;&gt;integrate_multifile -->
<g id="edge25" class="edge">
<title>i5_hierarchy_spec&#45;&gt;integrate_multifile</title>
<path fill="none" stroke="black" d="M1483.56,-185.7C1493.02,-187.35 1502.78,-189.06 1512.46,-190.75"/>
<polygon fill="black" stroke="black" points="1511.81,-194.19 1522.26,-192.46 1513.02,-187.29 1511.81,-194.19"/>
</g>
<!-- i6_presets_spec&#45;&gt;integrate_multifile -->
<g id="edge26" class="edge">
<title>i6_presets_spec&#45;&gt;integrate_multifile</title>
<path fill="none" stroke="black" d="M1466.89,-134.16C1472.41,-137 1477.92,-139.85 1483.2,-142.6 1500.44,-151.59 1519,-161.41 1536.25,-170.61"/>
<polygon fill="black" stroke="black" points="1534.43,-173.61 1544.9,-175.23 1537.73,-167.43 1534.43,-173.61"/>
</g>
<!-- lint_checker -->
<g id="node26" class="node">
<title>lint_checker</title>
<g id="a_node26"><a xlink:title="lint拡張checker (#4)&#10;&#10;lint 候補の完全リストは issue #4 が一次情報（本文+コメント）。ここに列挙しない — 列挙は同期漏れで腐るため">
<polygon fill="#d4edda" stroke="black" points="1035.06,-481.4 869.46,-481.4 869.46,-439.8 1035.06,-439.8 1035.06,-481.4"/>
<text xml:space="preserve" text-anchor="middle" x="952.26" y="-464.8" font-family="Times,serif" font-size="14.00">lint_checker</text>
<text xml:space="preserve" text-anchor="middle" x="952.26" y="-448" font-family="Times,serif" font-size="14.00">lint拡張checker (#4)</text>
</a>
</g>
<text xml:space="preserve" text-anchor="middle" x="855.86" y="-427.2" font-family="Times,serif" font-size="14.00">done</text>
</g>
<!-- implement_lints&#45;&gt;lint_checker -->
<g id="edge21" class="edge">
<title>implement_lints&#45;&gt;lint_checker</title>
<path fill="none" stroke="black" d="M397.88,-535.05C511.05,-519.82 732.34,-490.05 858.09,-473.13"/>
<polygon fill="black" stroke="black" points="858.26,-476.64 867.71,-471.84 857.33,-469.71 858.26,-476.64"/>
</g>
<!-- implement_orphan_lint&#45;&gt;i37_orphan_lint -->
<g id="edge41" class="edge">
<title>implement_orphan_lint&#45;&gt;i37_orphan_lint</title>
<path fill="none" stroke="black" d="M430.47,-977.6C443.03,-977.6 455.81,-977.6 468.22,-977.6"/>
<polygon fill="black" stroke="black" points="467.99,-981.1 477.99,-977.6 467.99,-974.1 467.99,-981.1"/>
</g>
<!-- implement_spec_features -->
<g id="node22" class="node">
<title>implement_spec_features</title>
<ellipse fill="none" stroke="black" cx="1183.53" cy="-357.6" rx="112.47" ry="29.42"/>
<text xml:space="preserve" text-anchor="middle" x="1183.53" y="-361.8" font-family="Times,serif" font-size="14.00">implement_spec_features</text>
<text xml:space="preserve" text-anchor="middle" x="1183.53" y="-345" font-family="Times,serif" font-size="14.00">新仕様実装</text>
</g>
<!-- implement_spec_features&#45;&gt;featured_toolchain -->
<g id="edge24" class="edge">
<title>implement_spec_features&#45;&gt;featured_toolchain</title>
<path fill="none" stroke="black" d="M1294.59,-352.15C1303.21,-351.72 1311.84,-351.29 1320.28,-350.88"/>
<polygon fill="black" stroke="black" points="1320.3,-354.38 1330.12,-350.39 1319.96,-347.39 1320.3,-354.38"/>
</g>
<!-- spec_v008 -->
<g id="node37" class="node">
<title>spec_v008</title>
<g id="a_node37"><a xlink:title="仕様書 v0.0.8（マルチファイル統合）">
<polygon fill="#f8f9fa" stroke="black" stroke-width="2" points="1869.17,-244.2 1725.17,-244.2 1725.17,-169 1869.17,-169 1869.17,-244.2"/>
<text xml:space="preserve" text-anchor="middle" x="1797.17" y="-227.6" font-family="Times,serif" font-size="14.00">spec_v008</text>
<text xml:space="preserve" text-anchor="middle" x="1797.17" y="-210.8" font-family="Times,serif" font-size="14.00">仕様書 v0.0</text>
<text xml:space="preserve" text-anchor="middle" x="1797.17" y="-194" font-family="Times,serif" font-size="14.00">8（マルチファイル</text>
<text xml:space="preserve" text-anchor="middle" x="1797.17" y="-177.2" font-family="Times,serif" font-size="14.00">統合）</text>
</a>
</g>
<text xml:space="preserve" text-anchor="middle" x="1712.73" y="-156.4" font-family="Times,serif" font-size="14.00">todo</text>
</g>
<!-- integrate_multifile&#45;&gt;spec_v008 -->
<g id="edge29" class="edge">
<title>integrate_multifile&#45;&gt;spec_v008</title>
<path fill="none" stroke="black" d="M1689.51,-206.6C1697.3,-206.6 1705.19,-206.6 1712.97,-206.6"/>
<polygon fill="black" stroke="black" points="1712.74,-210.1 1722.74,-206.6 1712.74,-203.1 1712.74,-210.1"/>
</g>
<!-- spec_v007 -->
<g id="node36" class="node">
<title>spec_v007</title>
<g id="a_node36"><a xlink:title="仕様書 v0.0.7（統合）">
<polygon fill="#fff3cd" stroke="black" points="1031.46,-386.8 873.06,-386.8 873.06,-328.4 1031.46,-328.4 1031.46,-386.8"/>
<text xml:space="preserve" text-anchor="middle" x="952.26" y="-370.2" font-family="Times,serif" font-size="14.00">spec_v007</text>
<text xml:space="preserve" text-anchor="middle" x="952.26" y="-353.4" font-family="Times,serif" font-size="14.00">仕様書 v0.0.7（統合</text>
<text xml:space="preserve" text-anchor="middle" x="952.26" y="-336.6" font-family="Times,serif" font-size="14.00">）</text>
</a>
</g>
<text xml:space="preserve" text-anchor="middle" x="862.56" y="-315.8" font-family="Times,serif" font-size="14.00">wip</text>
</g>
<!-- integrate_spec&#45;&gt;spec_v007 -->
<g id="edge17" class="edge">
<title>integrate_spec&#45;&gt;spec_v007</title>
<path fill="none" stroke="black" d="M833.92,-357.6C842.88,-357.6 852.17,-357.6 861.42,-357.6"/>
<polygon fill="black" stroke="black" points="861.15,-361.1 871.15,-357.6 861.15,-354.1 861.15,-361.1"/>
</g>
<!-- layer_audit_assets&#45;&gt;audit_distribution -->
<g id="edge35" class="edge">
<title>layer_audit_assets&#45;&gt;audit_distribution</title>
<path fill="none" stroke="black" d="M410.2,-823.6C431.39,-823.6 454.21,-823.6 475.57,-823.6"/>
<polygon fill="black" stroke="black" points="475.41,-827.1 485.41,-823.6 475.41,-820.1 475.41,-827.1"/>
</g>
<!-- lint_checker&#45;&gt;implement_spec_features -->
<g id="edge23" class="edge">
<title>lint_checker&#45;&gt;implement_spec_features</title>
<path fill="none" stroke="black" d="M1000.49,-439.38C1033.68,-424.47 1078.56,-404.31 1115.46,-387.73"/>
<polygon fill="black" stroke="black" points="1116.57,-391.07 1124.25,-383.78 1113.7,-384.69 1116.57,-391.07"/>
</g>
<!-- location_spec&#45;&gt;integrate_spec -->
<g id="edge15" class="edge">
<title>location_spec&#45;&gt;integrate_spec</title>
<path fill="none" stroke="black" d="M632.18,-300.18C656.01,-310.56 682.55,-322.12 705.53,-332.13"/>
<polygon fill="black" stroke="black" points="703.86,-335.23 714.43,-336.01 706.66,-328.81 703.86,-335.23"/>
</g>
<!-- multifile_policy&#45;&gt;integrate_multifile -->
<g id="edge27" class="edge">
<title>multifile_policy&#45;&gt;integrate_multifile</title>
<path fill="none" stroke="black" d="M1483.56,-227.5C1493.02,-225.85 1502.78,-224.14 1512.46,-222.45"/>
<polygon fill="black" stroke="black" points="1513.02,-225.91 1522.26,-220.74 1511.81,-219.01 1513.02,-225.91"/>
</g>
<!-- published_cli -->
<g id="node30" class="node">
<title>published_cli</title>
<g id="a_node30"><a xlink:title="npm公開済みCLI&#10;&#10;@pfdsl/cli 0.0.3 公開済み（roadmap の cli_published に対応）。npm install &#45;g @pfdsl/cli で利用可">
<polygon fill="#d4edda" stroke="black" stroke-width="2" points="624.5,-921.4 502.1,-921.4 502.1,-879.8 624.5,-879.8 624.5,-921.4"/>
<text xml:space="preserve" text-anchor="middle" x="563.3" y="-904.8" font-family="Times,serif" font-size="14.00">published_cli</text>
<text xml:space="preserve" text-anchor="middle" x="563.3" y="-888" font-family="Times,serif" font-size="14.00">npm公開済みCLI</text>
</a>
</g>
<text xml:space="preserve" text-anchor="middle" x="488.49" y="-867.2" font-family="Times,serif" font-size="14.00">done</text>
</g>
<!-- publish_cli&#45;&gt;published_cli -->
<g id="edge33" class="edge">
<title>publish_cli&#45;&gt;published_cli</title>
<path fill="none" stroke="black" d="M381.46,-900.6C413.82,-900.6 455.22,-900.6 490.23,-900.6"/>
<polygon fill="black" stroke="black" points="489.85,-904.1 499.85,-900.6 489.85,-897.1 489.85,-904.1"/>
</g>
<!-- restructure_skillgen -->
<g id="node31" class="node">
<title>restructure_skillgen</title>
<ellipse fill="none" stroke="black" cx="325.86" cy="-1054.6" rx="89.93" ry="29.42"/>
<text xml:space="preserve" text-anchor="middle" x="325.86" y="-1058.8" font-family="Times,serif" font-size="14.00">restructure_skillgen</text>
<text xml:space="preserve" text-anchor="middle" x="325.86" y="-1042" font-family="Times,serif" font-size="14.00">生成系再構成</text>
</g>
<!-- restructured_gen -->
<g id="node32" class="node">
<title>restructured_gen</title>
<g id="a_node32"><a xlink:title="再構成済みスキル生成系 (#10)">
<polygon fill="#d4edda" stroke="black" stroke-width="2" points="638.9,-1083.8 487.7,-1083.8 487.7,-1025.4 638.9,-1025.4 638.9,-1083.8"/>
<text xml:space="preserve" text-anchor="middle" x="563.3" y="-1067.2" font-family="Times,serif" font-size="14.00">restructured_gen</text>
<text xml:space="preserve" text-anchor="middle" x="563.3" y="-1050.4" font-family="Times,serif" font-size="14.00">再構成済みスキル生</text>
<text xml:space="preserve" text-anchor="middle" x="563.3" y="-1033.6" font-family="Times,serif" font-size="14.00">成系 (#10)</text>
</a>
</g>
<text xml:space="preserve" text-anchor="middle" x="474.09" y="-1012.8" font-family="Times,serif" font-size="14.00">done</text>
</g>
<!-- restructure_skillgen&#45;&gt;restructured_gen -->
<g id="edge31" class="edge">
<title>restructure_skillgen&#45;&gt;restructured_gen</title>
<path fill="none" stroke="black" d="M416.2,-1054.6C435.67,-1054.6 456.23,-1054.6 475.59,-1054.6"/>
<polygon fill="black" stroke="black" points="475.32,-1058.1 485.32,-1054.6 475.32,-1051.1 475.32,-1058.1"/>
</g>
<!-- revises_spec&#45;&gt;integrate_spec -->
<g id="edge14" class="edge">
<title>revises_spec&#45;&gt;integrate_spec</title>
<path fill="none" stroke="black" d="M622.73,-206.18C635.75,-213.96 649.07,-222.91 660.5,-232.6 690.64,-258.16 718.82,-293.24 738.14,-319.73"/>
<polygon fill="black" stroke="black" points="735.28,-321.76 743.96,-327.84 740.97,-317.67 735.28,-321.76"/>
</g>
<!-- skill_gen -->
<g id="node34" class="node">
<title>skill_gen</title>
<g id="a_node34"><a xlink:title="スキル生成系（現行）&#10;&#10;scripts/gen&#45;skill.mjs と docs/samples 構成">
<polygon fill="#d4edda" stroke="black" stroke-width="2" points="182.01,-1083.8 30.81,-1083.8 30.81,-1025.4 182.01,-1025.4 182.01,-1083.8"/>
<text xml:space="preserve" text-anchor="middle" x="106.41" y="-1067.2" font-family="Times,serif" font-size="14.00">skill_gen</text>
<text xml:space="preserve" text-anchor="middle" x="106.41" y="-1050.4" font-family="Times,serif" font-size="14.00">スキル生成系（現行</text>
<text xml:space="preserve" text-anchor="middle" x="106.41" y="-1033.6" font-family="Times,serif" font-size="14.00">）</text>
</a>
</g>
<text xml:space="preserve" text-anchor="middle" x="17.21" y="-1012.8" font-family="Times,serif" font-size="14.00">done</text>
</g>
<!-- skill_gen&#45;&gt;restructure_skillgen -->
<g id="edge30" class="edge">
<title>skill_gen&#45;&gt;restructure_skillgen</title>
<path fill="none" stroke="black" d="M182.85,-1054.6C196.31,-1054.6 210.51,-1054.6 224.53,-1054.6"/>
<polygon fill="black" stroke="black" points="224.2,-1058.1 234.2,-1054.6 224.2,-1051.1 224.2,-1058.1"/>
</g>
<!-- spec_v006 -->
<g id="node35" class="node">
<title>spec_v006</title>
<polygon fill="#d4edda" stroke="black" stroke-width="2" points="164.01,-319.4 48.81,-319.4 48.81,-277.8 164.01,-277.8 164.01,-319.4"/>
<text xml:space="preserve" text-anchor="middle" x="106.41" y="-302.8" font-family="Times,serif" font-size="14.00">spec_v006</text>
<text xml:space="preserve" text-anchor="middle" x="106.41" y="-286" font-family="Times,serif" font-size="14.00">仕様書 v0.0.6</text>
<text xml:space="preserve" text-anchor="middle" x="35.21" y="-265.2" font-family="Times,serif" font-size="14.00">done</text>
</g>
<!-- spec_v006&#45;&gt;draft_criteria -->
<g id="edge5" class="edge">
<title>spec_v006&#45;&gt;draft_criteria</title>
<path fill="none" stroke="black" d="M121.17,-319.93C140.47,-348.34 178.14,-398.5 221.61,-428.6 232.03,-435.81 243.96,-441.9 255.91,-446.97"/>
<polygon fill="black" stroke="black" points="254.4,-450.13 264.99,-450.59 257,-443.63 254.4,-450.13"/>
</g>
<!-- spec_v006&#45;&gt;draft_location -->
<g id="edge9" class="edge">
<title>spec_v006&#45;&gt;draft_location</title>
<path fill="none" stroke="black" d="M164.83,-289.62C185.81,-286.34 210.09,-282.55 233.3,-278.92"/>
<polygon fill="black" stroke="black" points="233.76,-282.39 243.1,-277.38 232.68,-275.47 233.76,-282.39"/>
</g>
<!-- spec_v006&#45;&gt;draft_multifile_specs -->
<g id="edge1" class="edge">
<title>spec_v006&#45;&gt;draft_multifile_specs</title>
<path fill="none" stroke="black" d="M113.48,-276.96C126.06,-236.64 159.17,-150.75 221.61,-113.6 286.78,-74.83 486.47,-94.6 562.3,-94.6 562.3,-94.6 562.3,-94.6 765.98,-94.6 874.79,-94.6 998.7,-109.63 1082.89,-122.12"/>
<polygon fill="black" stroke="black" points="1082.34,-125.58 1092.75,-123.6 1083.38,-118.66 1082.34,-125.58"/>
</g>
<!-- spec_v006&#45;&gt;draft_revises -->
<g id="edge7" class="edge">
<title>spec_v006&#45;&gt;draft_revises</title>
<path fill="none" stroke="black" d="M134.17,-276.83C156.74,-258.99 190.28,-233.66 221.61,-214.6 232.45,-208.01 244.25,-201.56 255.87,-195.57"/>
<polygon fill="black" stroke="black" points="257.32,-198.76 264.67,-191.13 254.16,-192.52 257.32,-198.76"/>
</g>
<!-- spec_v006&#45;&gt;implement_lints -->
<g id="edge18" class="edge">
<title>spec_v006&#45;&gt;implement_lints</title>
<path fill="none" stroke="black" d="M113.78,-320.29C127.06,-361.94 161.59,-453.6 221.61,-505.6 230.28,-513.11 240.54,-519.24 251.18,-524.23"/>
<polygon fill="black" stroke="black" points="249.49,-527.31 260.06,-528.06 252.27,-520.88 249.49,-527.31"/>
</g>
<!-- spec_v006&#45;&gt;integrate_spec -->
<g id="edge44" class="edge">
<title>spec_v006&#45;&gt;integrate_spec</title>
<path fill="none" stroke="#888888" stroke-dasharray="5,2" d="M164.84,-307.33C182.97,-309.91 203.11,-312.57 221.61,-314.6 386.27,-332.64 579.84,-346.15 685.45,-352.86"/>
<polygon fill="#888888" stroke="#888888" points="684.93,-356.33 695.13,-353.47 685.37,-349.35 684.93,-356.33"/>
</g>
<!-- write_design_notes -->
<g id="node39" class="node">
<title>write_design_notes</title>
<ellipse fill="none" stroke="black" cx="325.86" cy="-390.6" rx="88.3" ry="29.42"/>
<text xml:space="preserve" text-anchor="middle" x="325.86" y="-394.8" font-family="Times,serif" font-size="14.00">write_design_notes</text>
<text xml:space="preserve" text-anchor="middle" x="325.86" y="-378" font-family="Times,serif" font-size="14.00">設計ノート執筆</text>
</g>
<!-- spec_v006&#45;&gt;write_design_notes -->
<g id="edge11" class="edge">
<title>spec_v006&#45;&gt;write_design_notes</title>
<path fill="none" stroke="black" d="M157.68,-320.3C177.57,-328.86 200.65,-338.74 221.61,-347.6 233.7,-352.71 246.6,-358.12 259.04,-363.31"/>
<polygon fill="black" stroke="black" points="257.38,-366.41 267.96,-367.03 260.07,-359.95 257.38,-366.41"/>
</g>
<!-- spec_v007&#45;&gt;implement_spec_features -->
<g id="edge22" class="edge">
<title>spec_v007&#45;&gt;implement_spec_features</title>
<path fill="none" stroke="black" d="M1031.84,-357.6C1040.78,-357.6 1050.05,-357.6 1059.39,-357.6"/>
<polygon fill="black" stroke="black" points="1059.29,-361.1 1069.29,-357.6 1059.29,-354.1 1059.29,-361.1"/>
</g>
<!-- write_article&#45;&gt;i12_article -->
<g id="edge37" class="edge">
<title>write_article&#45;&gt;i12_article</title>
<path fill="none" stroke="black" d="M387.49,-37.6C418.81,-37.6 457.25,-37.6 490.1,-37.6"/>
<polygon fill="black" stroke="black" points="489.95,-41.1 499.95,-37.6 489.95,-34.1 489.95,-41.1"/>
</g>
<!-- write_design_notes&#45;&gt;design_notes -->
<g id="edge12" class="edge">
<title>write_design_notes&#45;&gt;design_notes</title>
<path fill="none" stroke="black" d="M414.53,-390.6C434.62,-390.6 455.97,-390.6 476,-390.6"/>
<polygon fill="black" stroke="black" points="475.79,-394.1 485.79,-390.6 475.79,-387.1 475.79,-394.1"/>
</g>
</g>
</svg>
