<?xml version="1.0" encoding="UTF-8" standalone="no"?>
<!DOCTYPE svg PUBLIC "-//W3C//DTD SVG 1.1//EN"
 "http://www.w3.org/Graphics/SVG/1.1/DTD/svg11.dtd">
<!-- Generated by graphviz version 15.0.0 (0)
 -->
<!-- Title: PFDSL Pages: 1 -->
<svg width="639pt" height="293pt"
 viewBox="0.00 0.00 639.00 293.00" xmlns="http://www.w3.org/2000/svg" xmlns:xlink="http://www.w3.org/1999/xlink">
<g id="graph0" class="graph" transform="scale(1 1) rotate(0) translate(4 289.5)">
<title>PFDSL</title>
<polygon fill="white" stroke="none" points="-4,4 -4,-289.5 634.6,-289.5 634.6,4 -4,4"/>
<text xml:space="preserve" text-anchor="middle" x="315.3" y="-268.9" font-family="Times,serif" font-size="14.00">Issue 依存フロー（2026&#45;06） — diff</text>
<text xml:space="preserve" text-anchor="middle" x="315.3" y="-252.1" font-family="Times,serif" font-size="14.00">green = added · red = removed · yellow = changed</text>
<!-- cli_tool -->
<g id="node1" class="node">
<title>cli_tool</title>
<polygon fill="#f5f5f5" stroke="#bbbbbb" points="151.2,-62.1 14.4,-62.1 14.4,-20.5 151.2,-20.5 151.2,-62.1"/>
<text xml:space="preserve" text-anchor="middle" x="82.8" y="-45.5" font-family="Times,serif" font-size="14.00" fill="#777777">cli_tool</text>
<text xml:space="preserve" text-anchor="middle" x="82.8" y="-28.7" font-family="Times,serif" font-size="14.00" fill="#777777">CLI 実装（現行）</text>
</g>
<!-- publish_extension -->
<g id="node7" class="node">
<title>publish_extension</title>
<ellipse fill="#c3e6cb" stroke="#28a745" cx="300.9" cy="-41.3" rx="86.38" ry="41.3"/>
<text xml:space="preserve" text-anchor="middle" x="300.9" y="-53.9" font-family="Times,serif" font-size="14.00">publish_extension</text>
<text xml:space="preserve" text-anchor="middle" x="300.9" y="-37.1" font-family="Times,serif" font-size="14.00">extension自動公開実</text>
<text xml:space="preserve" text-anchor="middle" x="300.9" y="-20.3" font-family="Times,serif" font-size="14.00">装</text>
</g>
<!-- cli_tool&#45;&gt;publish_extension -->
<g id="edge1" class="edge">
<title>cli_tool&#45;&gt;publish_extension</title>
<path fill="none" stroke="#28a745" d="M151.58,-41.3C167.83,-41.3 185.49,-41.3 202.78,-41.3"/>
<polygon fill="#28a745" stroke="#28a745" points="202.55,-44.8 212.55,-41.3 202.55,-37.8 202.55,-44.8"/>
</g>
<!-- i119_published_extension -->
<g id="node2" class="node">
<title>i119_published_extension</title>
<polygon fill="#c3e6cb" stroke="#28a745" points="630.6,-70.5 436.2,-70.5 436.2,-12.1 630.6,-12.1 630.6,-70.5"/>
<text xml:space="preserve" text-anchor="middle" x="533.4" y="-53.9" font-family="Times,serif" font-size="14.00">i119_published_extension</text>
<text xml:space="preserve" text-anchor="middle" x="533.4" y="-37.1" font-family="Times,serif" font-size="14.00">Marketplace 公開済み</text>
<text xml:space="preserve" text-anchor="middle" x="533.4" y="-20.3" font-family="Times,serif" font-size="14.00"> extension (#119)</text>
</g>
<!-- i137_status_lint -->
<g id="node3" class="node">
<title>i137_status_lint</title>
<polygon fill="#f5c6cb" stroke="#dc3545" points="612.6,-159.5 454.2,-159.5 454.2,-101.1 612.6,-101.1 612.6,-159.5"/>
<text xml:space="preserve" text-anchor="middle" x="533.4" y="-142.9" font-family="Times,serif" font-size="14.00">i137_status_lint</text>
<text xml:space="preserve" text-anchor="middle" x="533.4" y="-126.1" font-family="Times,serif" font-size="14.00">status 非単調 lint </text>
<text xml:space="preserve" text-anchor="middle" x="533.4" y="-109.3" font-family="Times,serif" font-size="14.00">#137)</text>
</g>
<!-- i147_subflow_nav -->
<g id="node4" class="node">
<title>i147_subflow_nav</title>
<polygon fill="#ffeeba" stroke="#e0a800" points="151.2,-243.9 14.4,-243.9 14.4,-168.7 151.2,-168.7 151.2,-243.9"/>
<text xml:space="preserve" text-anchor="middle" x="82.8" y="-227.3" font-family="Times,serif" font-size="14.00">i147_subflow_nav</text>
<text xml:space="preserve" text-anchor="middle" x="82.8" y="-210.5" font-family="Times,serif" font-size="14.00">VS Code subflow</text>
<text xml:space="preserve" text-anchor="middle" x="82.8" y="-193.7" font-family="Times,serif" font-size="14.00">ナビゲーション </text>
<text xml:space="preserve" text-anchor="middle" x="82.8" y="-176.9" font-family="Times,serif" font-size="14.00">#147)</text>
</g>
<!-- implement_status_lint -->
<g id="node5" class="node">
<title>implement_status_lint</title>
<ellipse fill="#f5c6cb" stroke="#dc3545" cx="300.9" cy="-130.3" rx="99.3" ry="29.42"/>
<text xml:space="preserve" text-anchor="middle" x="300.9" y="-134.5" font-family="Times,serif" font-size="14.00">implement_status_lint</text>
<text xml:space="preserve" text-anchor="middle" x="300.9" y="-117.7" font-family="Times,serif" font-size="14.00">status非単調lint実装</text>
</g>
<!-- implement_status_lint&#45;&gt;i137_status_lint -->
<g id="edge2" class="edge">
<title>implement_status_lint&#45;&gt;i137_status_lint</title>
<path fill="none" stroke="#dc3545" stroke-dasharray="5,2" d="M400.66,-130.3C414.6,-130.3 428.86,-130.3 442.62,-130.3"/>
<polygon fill="#dc3545" stroke="#dc3545" points="442.52,-133.8 452.52,-130.3 442.52,-126.8 442.52,-133.8"/>
</g>
<!-- lint_checker -->
<g id="node6" class="node">
<title>lint_checker</title>
<polygon fill="#f5f5f5" stroke="#bbbbbb" points="165.6,-151.1 0,-151.1 0,-109.5 165.6,-109.5 165.6,-151.1"/>
<text xml:space="preserve" text-anchor="middle" x="82.8" y="-134.5" font-family="Times,serif" font-size="14.00" fill="#777777">lint_checker</text>
<text xml:space="preserve" text-anchor="middle" x="82.8" y="-117.7" font-family="Times,serif" font-size="14.00" fill="#777777">lint拡張checker (#4)</text>
</g>
<!-- lint_checker&#45;&gt;implement_status_lint -->
<g id="edge3" class="edge">
<title>lint_checker&#45;&gt;implement_status_lint</title>
<path fill="none" stroke="#dc3545" stroke-dasharray="5,2" d="M165.81,-130.3C173.68,-130.3 181.75,-130.3 189.83,-130.3"/>
<polygon fill="#dc3545" stroke="#dc3545" points="189.74,-133.8 199.74,-130.3 189.74,-126.8 189.74,-133.8"/>
</g>
<!-- publish_extension&#45;&gt;i119_published_extension -->
<g id="edge4" class="edge">
<title>publish_extension&#45;&gt;i119_published_extension</title>
<path fill="none" stroke="#28a745" d="M387.73,-41.3C399.79,-41.3 412.3,-41.3 424.7,-41.3"/>
<polygon fill="#28a745" stroke="#28a745" points="424.52,-44.8 434.52,-41.3 424.52,-37.8 424.52,-44.8"/>
</g>
</g>
</svg>
