<?xml version="1.0" encoding="UTF-8" standalone="no"?>
<!DOCTYPE svg PUBLIC "-//W3C//DTD SVG 1.1//EN"
 "http://www.w3.org/Graphics/SVG/1.1/DTD/svg11.dtd">
<!-- Generated by graphviz version 15.0.0 (0)
 -->
<!-- Title: PFDSL Pages: 1 -->
<svg width="380pt" height="459pt"
 viewBox="0.00 0.00 380.00 459.00" xmlns="http://www.w3.org/2000/svg" xmlns:xlink="http://www.w3.org/1999/xlink">
<g id="graph0" class="graph" transform="scale(1 1) rotate(0) translate(4 454.82)">
<title>PFDSL</title>
<polygon fill="white" stroke="none" points="-4,4 -4,-454.82 376.27,-454.82 376.27,4 -4,4"/>
<text xml:space="preserve" text-anchor="middle" x="186.14" y="-434.22" font-family="Times,serif" font-size="14.00">pfdsl開発ワークフロー — diff</text>
<text xml:space="preserve" text-anchor="middle" x="186.14" y="-417.42" font-family="Times,serif" font-size="14.00">green = added · red = removed · yellow = changed</text>
<!-- develop -->
<g id="node1" class="node">
<title>develop</title>
<ellipse fill="#ffeeba" stroke="#e0a800" cx="78.14" cy="-106.42" rx="78.14" ry="29.42"/>
<text xml:space="preserve" text-anchor="middle" x="78.14" y="-110.62" font-family="Times,serif" font-size="14.00">develop</text>
<text xml:space="preserve" text-anchor="middle" x="78.14" y="-93.82" font-family="Times,serif" font-size="14.00">ツールチェーン開発</text>
</g>
<!-- distill_ops -->
<g id="node2" class="node">
<title>distill_ops</title>
<ellipse fill="#f5f5f5" stroke="#bbbbbb" cx="78.14" cy="-29.42" rx="78.14" ry="29.42"/>
<text xml:space="preserve" text-anchor="middle" x="78.14" y="-33.62" font-family="Times,serif" font-size="14.00" fill="#777777">distill_ops</text>
<text xml:space="preserve" text-anchor="middle" x="78.14" y="-16.82" font-family="Times,serif" font-size="14.00" fill="#777777">運用プロトコル蒸留</text>
</g>
<!-- vscode_ext_debug_skill -->
<g id="node7" class="node">
<title>vscode_ext_debug_skill</title>
<polygon fill="#c3e6cb" stroke="#28a745" points="372.27,-58.62 192.27,-58.62 192.27,-0.22 372.27,-0.22 372.27,-58.62"/>
<text xml:space="preserve" text-anchor="middle" x="282.27" y="-42.02" font-family="Times,serif" font-size="14.00">vscode_ext_debug_skill</text>
<text xml:space="preserve" text-anchor="middle" x="282.27" y="-25.22" font-family="Times,serif" font-size="14.00">VSCode拡張デバッ</text>
<text xml:space="preserve" text-anchor="middle" x="282.27" y="-8.42" font-family="Times,serif" font-size="14.00">グスキル</text>
</g>
<!-- distill_ops&#45;&gt;vscode_ext_debug_skill -->
<g id="edge1" class="edge">
<title>distill_ops&#45;&gt;vscode_ext_debug_skill</title>
<path fill="none" stroke="#28a745" d="M156.71,-29.42C164.58,-29.42 172.65,-29.42 180.72,-29.42"/>
<polygon fill="#28a745" stroke="#28a745" points="180.58,-32.92 190.58,-29.42 180.58,-25.92 180.58,-32.92"/>
</g>
<!-- file_issues -->
<g id="node3" class="node">
<title>file_issues</title>
<ellipse fill="#ffeeba" stroke="#e0a800" cx="78.14" cy="-183.42" rx="53.11" ry="29.42"/>
<text xml:space="preserve" text-anchor="middle" x="78.14" y="-187.62" font-family="Times,serif" font-size="14.00">file_issues</text>
<text xml:space="preserve" text-anchor="middle" x="78.14" y="-170.82" font-family="Times,serif" font-size="14.00">issue 管理</text>
</g>
<!-- gen_skill -->
<g id="node4" class="node">
<title>gen_skill</title>
<ellipse fill="#ffeeba" stroke="#e0a800" cx="78.14" cy="-260.42" rx="48.44" ry="29.42"/>
<text xml:space="preserve" text-anchor="middle" x="78.14" y="-264.62" font-family="Times,serif" font-size="14.00">gen_skill</text>
<text xml:space="preserve" text-anchor="middle" x="78.14" y="-247.82" font-family="Times,serif" font-size="14.00">スキル生成</text>
</g>
<!-- ops_skill -->
<g id="node5" class="node">
<title>ops_skill</title>
<polygon fill="#ffeeba" stroke="#e0a800" points="135.74,-349.22 20.54,-349.22 20.54,-307.62 135.74,-307.62 135.74,-349.22"/>
<text xml:space="preserve" text-anchor="middle" x="78.14" y="-332.62" font-family="Times,serif" font-size="14.00">ops_skill</text>
<text xml:space="preserve" text-anchor="middle" x="78.14" y="-315.82" font-family="Times,serif" font-size="14.00">PFD運用スキル</text>
</g>
<!-- roadmap_pfdsl -->
<g id="node6" class="node">
<title>roadmap_pfdsl</title>
<polygon fill="#ffeeba" stroke="#e0a800" points="146.54,-409.22 9.74,-409.22 9.74,-367.62 146.54,-367.62 146.54,-409.22"/>
<text xml:space="preserve" text-anchor="middle" x="78.14" y="-392.62" font-family="Times,serif" font-size="14.00">roadmap_pfdsl</text>
<text xml:space="preserve" text-anchor="middle" x="78.14" y="-375.82" font-family="Times,serif" font-size="14.00">issue 依存グラフ</text>
</g>
<!-- vscode_ext_debug_skill&#45;&gt;develop -->
<g id="edge2" class="edge">
<title>vscode_ext_debug_skill&#45;&gt;develop</title>
<path fill="none" stroke="#28a745" stroke-dasharray="5,2" d="M203.57,-59.02C184.11,-66.43 163.43,-74.31 144.63,-81.47"/>
<polygon fill="#28a745" stroke="#28a745" points="143.62,-78.11 135.52,-84.94 146.11,-84.65 143.62,-78.11"/>
</g>
</g>
</svg>
