<?xml version="1.0" encoding="UTF-8" standalone="no"?>
<!DOCTYPE svg PUBLIC "-//W3C//DTD SVG 1.1//EN"
 "http://www.w3.org/Graphics/SVG/1.1/DTD/svg11.dtd">
<!-- Generated by graphviz version 15.0.0 (0)
 -->
<!-- Title: PFDSL Pages: 1 -->
<svg width="589pt" height="312pt"
 viewBox="0.00 0.00 589.00 312.00" xmlns="http://www.w3.org/2000/svg" xmlns:xlink="http://www.w3.org/1999/xlink">
<g id="graph0" class="graph" transform="scale(1 1) rotate(0) translate(4 308.22)">
<title>PFDSL</title>
<polygon fill="white" stroke="none" points="-4,4 -4,-308.22 585.36,-308.22 585.36,4 -4,4"/>
<text xml:space="preserve" text-anchor="middle" x="290.68" y="-287.62" font-family="Times,serif" font-size="14.00">Issue 依存フロー（2026&#45;06） — diff</text>
<text xml:space="preserve" text-anchor="middle" x="290.68" y="-270.82" font-family="Times,serif" font-size="14.00">green = added · red = removed · yellow = changed</text>
<!-- clarify_process_tags -->
<g id="node1" class="node">
<title>clarify_process_tags</title>
<ellipse fill="#c3e6cb" stroke="#28a745" cx="279.88" cy="-29.42" rx="92.68" ry="29.42"/>
<text xml:space="preserve" text-anchor="middle" x="279.88" y="-33.62" font-family="Times,serif" font-size="14.00">clarify_process_tags</text>
<text xml:space="preserve" text-anchor="middle" x="279.88" y="-16.82" font-family="Times,serif" font-size="14.00">process tags 明示化</text>
</g>
<!-- i127_process_tags -->
<g id="node2" class="node">
<title>i127_process_tags</title>
<polygon fill="#c3e6cb" stroke="#28a745" points="581.36,-58.62 408.56,-58.62 408.56,-0.22 581.36,-0.22 581.36,-58.62"/>
<text xml:space="preserve" text-anchor="middle" x="494.96" y="-42.02" font-family="Times,serif" font-size="14.00">i127_process_tags</text>
<text xml:space="preserve" text-anchor="middle" x="494.96" y="-25.22" font-family="Times,serif" font-size="14.00">process tags 明示許可</text>
<text xml:space="preserve" text-anchor="middle" x="494.96" y="-8.42" font-family="Times,serif" font-size="14.00"> (#127)</text>
</g>
<!-- clarify_process_tags&#45;&gt;i127_process_tags -->
<g id="edge1" class="edge">
<title>clarify_process_tags&#45;&gt;i127_process_tags</title>
<path fill="none" stroke="#28a745" d="M372.79,-29.42C380.75,-29.42 388.83,-29.42 396.83,-29.42"/>
<polygon fill="#28a745" stroke="#28a745" points="396.56,-32.92 406.56,-29.42 396.56,-25.92 396.56,-32.92"/>
</g>
<!-- i5_hierarchy_spec -->
<g id="node3" class="node">
<title>i5_hierarchy_spec</title>
<polygon fill="#ffeeba" stroke="#e0a800" points="151.2,-110.22 0,-110.22 0,-68.62 151.2,-68.62 151.2,-110.22"/>
<text xml:space="preserve" text-anchor="middle" x="75.6" y="-93.62" font-family="Times,serif" font-size="14.00">i5_hierarchy_spec</text>
<text xml:space="preserve" text-anchor="middle" x="75.6" y="-76.82" font-family="Times,serif" font-size="14.00">階層PFD仕様案 (#5)</text>
</g>
<!-- i6_presets_spec -->
<g id="node4" class="node">
<title>i6_presets_spec</title>
<polygon fill="#ffeeba" stroke="#e0a800" points="151.2,-186.62 0,-186.62 0,-128.22 151.2,-128.22 151.2,-186.62"/>
<text xml:space="preserve" text-anchor="middle" x="75.6" y="-170.02" font-family="Times,serif" font-size="14.00">i6_presets_spec</text>
<text xml:space="preserve" text-anchor="middle" x="75.6" y="-153.22" font-family="Times,serif" font-size="14.00">共有プリセット仕様</text>
<text xml:space="preserve" text-anchor="middle" x="75.6" y="-136.42" font-family="Times,serif" font-size="14.00">案 (#6)</text>
</g>
<!-- multifile_policy -->
<g id="node5" class="node">
<title>multifile_policy</title>
<polygon fill="#ffeeba" stroke="#e0a800" points="151.2,-262.62 0,-262.62 0,-204.22 151.2,-204.22 151.2,-262.62"/>
<text xml:space="preserve" text-anchor="middle" x="75.6" y="-246.02" font-family="Times,serif" font-size="14.00">multifile_policy</text>
<text xml:space="preserve" text-anchor="middle" x="75.6" y="-229.22" font-family="Times,serif" font-size="14.00">マルチファイル意味</text>
<text xml:space="preserve" text-anchor="middle" x="75.6" y="-212.42" font-family="Times,serif" font-size="14.00">論方針</text>
</g>
<!-- spec_v006 -->
<g id="node6" class="node">
<title>spec_v006</title>
<polygon fill="#f5f5f5" stroke="#bbbbbb" points="133.2,-50.22 18,-50.22 18,-8.62 133.2,-8.62 133.2,-50.22"/>
<text xml:space="preserve" text-anchor="middle" x="75.6" y="-33.62" font-family="Times,serif" font-size="14.00" fill="#777777">spec_v006</text>
<text xml:space="preserve" text-anchor="middle" x="75.6" y="-16.82" font-family="Times,serif" font-size="14.00" fill="#777777">仕様書 v0.0.6</text>
</g>
<!-- spec_v006&#45;&gt;clarify_process_tags -->
<g id="edge2" class="edge">
<title>spec_v006&#45;&gt;clarify_process_tags</title>
<path fill="none" stroke="#28a745" d="M133.48,-29.42C146.71,-29.42 161.19,-29.42 175.72,-29.42"/>
<polygon fill="#28a745" stroke="#28a745" points="175.32,-32.92 185.32,-29.42 175.32,-25.92 175.32,-32.92"/>
</g>
</g>
</svg>
