<?xml version="1.0" encoding="UTF-8" standalone="no"?>
<!DOCTYPE svg PUBLIC "-//W3C//DTD SVG 1.1//EN"
 "http://www.w3.org/Graphics/SVG/1.1/DTD/svg11.dtd">
<!-- Generated by graphviz version 15.0.0 (0)
 -->
<!-- Title: PFDSL Pages: 1 -->
<svg width="1848pt" height="1016pt"
 viewBox="0.00 0.00 1848.00 1016.00" xmlns="http://www.w3.org/2000/svg" xmlns:xlink="http://www.w3.org/1999/xlink">
<g id="graph0" class="graph" transform="scale(1 1) rotate(0) translate(4 1011.82)">
<title>PFDSL</title>
<polygon fill="white" stroke="none" points="-4,4 -4,-1011.82 1844.37,-1011.82 1844.37,4 -4,4"/>
<text xml:space="preserve" text-anchor="middle" x="920.19" y="-991.22" font-family="Times,serif" font-size="14.00">Issue 依存フロー（2026&#45;06）</text>
<!-- adr_corpus -->
<g id="node1" class="node">
<title>adr_corpus</title>
<g id="a_node1"><a xlink:title="ADR 群 (docs/adr)&#10;&#10;方法論の設計決定記録。一覧と本数は docs/adr/README.md が一次情報（ここに数を書かない — ドリフトするため）">
<polygon fill="#d4edda" stroke="black" stroke-width="2" points="178.41,-58.4 34.41,-58.4 34.41,-16.8 178.41,-16.8 178.41,-58.4"/>
<text xml:space="preserve" text-anchor="middle" x="106.41" y="-41.8" font-family="Times,serif" font-size="14.00">adr_corpus</text>
<text xml:space="preserve" text-anchor="middle" x="106.41" y="-25" font-family="Times,serif" font-size="14.00">ADR 群 (docs/adr)</text>
</a>
</g>
<text xml:space="preserve" text-anchor="middle" x="20.81" y="-4.2" font-family="Times,serif" font-size="14.00">done</text>
</g>
<!-- write_article -->
<g id="node36" class="node">
<title>write_article</title>
<ellipse fill="none" stroke="black" cx="325.86" cy="-37.6" rx="61.33" ry="29.42"/>
<text xml:space="preserve" text-anchor="middle" x="325.86" y="-41.8" font-family="Times,serif" font-size="14.00">write_article</text>
<text xml:space="preserve" text-anchor="middle" x="325.86" y="-25" font-family="Times,serif" font-size="14.00">記事執筆</text>
</g>
<!-- adr_corpus&#45;&gt;write_article -->
<g id="edge36" class="edge">
<title>adr_corpus&#45;&gt;write_article</title>
<path fill="none" stroke="black" d="M179.22,-37.6C202.82,-37.6 229.05,-37.6 252.68,-37.6"/>
<polygon fill="black" stroke="black" points="252.53,-41.1 262.53,-37.6 252.53,-34.1 252.53,-41.1"/>
</g>
<!-- audit_distribution -->
<g id="node2" class="node">
<title>audit_distribution</title>
<g id="a_node2"><a xlink:title="L3資産の階層化配布 (#43)&#10;&#10;audit コア + flow&#45;sync action を skill 同梱・配布可能化。scripts/lib/issues&#45;flow&#45;audit.mjs を #37 と共有するため着手順を調整。実配布フローは #11">
<polygon fill="#d4edda" stroke="black" stroke-width="2" points="624.5,-751.8 473.3,-751.8 473.3,-693.4 624.5,-693.4 624.5,-751.8"/>
<text xml:space="preserve" text-anchor="middle" x="548.9" y="-735.2" font-family="Times,serif" font-size="14.00">audit_distribution</text>
<text xml:space="preserve" text-anchor="middle" x="548.9" y="-718.4" font-family="Times,serif" font-size="14.00">L3資産の階層化配布</text>
<text xml:space="preserve" text-anchor="middle" x="548.9" y="-701.6" font-family="Times,serif" font-size="14.00"> (#43)</text>
</a>
</g>
<text xml:space="preserve" text-anchor="middle" x="459.69" y="-680.8" font-family="Times,serif" font-size="14.00">done</text>
</g>
<!-- build_obsidian_plugin -->
<g id="node3" class="node">
<title>build_obsidian_plugin</title>
<g id="a_node3"><a xlink:title="Obsidianプラグイン実装">
<ellipse fill="none" stroke="black" cx="325.86" cy="-633.6" rx="100.41" ry="41.3"/>
<text xml:space="preserve" text-anchor="middle" x="325.86" y="-646.2" font-family="Times,serif" font-size="14.00">build_obsidian_plugin</text>
<text xml:space="preserve" text-anchor="middle" x="325.86" y="-629.4" font-family="Times,serif" font-size="14.00">Obsidianプラグイン</text>
<text xml:space="preserve" text-anchor="middle" x="325.86" y="-612.6" font-family="Times,serif" font-size="14.00">実装</text>
</a>
</g>
</g>
<!-- i3_obsidian_plugin -->
<g id="node15" class="node">
<title>i3_obsidian_plugin</title>
<g id="a_node15"><a xlink:title="Obsidian プラグイン (#3)">
<polygon fill="#f8f9fa" stroke="black" stroke-width="2" points="631.7,-662.8 466.1,-662.8 466.1,-604.4 631.7,-604.4 631.7,-662.8"/>
<text xml:space="preserve" text-anchor="middle" x="548.9" y="-646.2" font-family="Times,serif" font-size="14.00">i3_obsidian_plugin</text>
<text xml:space="preserve" text-anchor="middle" x="548.9" y="-629.4" font-family="Times,serif" font-size="14.00">Obsidian プラグイン </text>
<text xml:space="preserve" text-anchor="middle" x="548.9" y="-612.6" font-family="Times,serif" font-size="14.00">(#3)</text>
</a>
</g>
<text xml:space="preserve" text-anchor="middle" x="453.65" y="-591.8" font-family="Times,serif" font-size="14.00">todo</text>
</g>
<!-- build_obsidian_plugin&#45;&gt;i3_obsidian_plugin -->
<g id="edge39" class="edge">
<title>build_obsidian_plugin&#45;&gt;i3_obsidian_plugin</title>
<path fill="none" stroke="black" d="M426.71,-633.6C435.8,-633.6 444.98,-633.6 454.02,-633.6"/>
<polygon fill="black" stroke="black" points="453.85,-637.1 463.85,-633.6 453.85,-630.1 453.85,-637.1"/>
</g>
<!-- cli_tool -->
<g id="node4" class="node">
<title>cli_tool</title>
<polygon fill="#d4edda" stroke="black" stroke-width="2" points="174.81,-743.4 38.01,-743.4 38.01,-701.8 174.81,-701.8 174.81,-743.4"/>
<text xml:space="preserve" text-anchor="middle" x="106.41" y="-726.8" font-family="Times,serif" font-size="14.00">cli_tool</text>
<text xml:space="preserve" text-anchor="middle" x="106.41" y="-710" font-family="Times,serif" font-size="14.00">CLI 実装（現行）</text>
<text xml:space="preserve" text-anchor="middle" x="24.41" y="-689.2" font-family="Times,serif" font-size="14.00">done</text>
</g>
<!-- cli_tool&#45;&gt;build_obsidian_plugin -->
<g id="edge38" class="edge">
<title>cli_tool&#45;&gt;build_obsidian_plugin</title>
<path fill="none" stroke="black" d="M160.61,-700.83C185.47,-690.65 215.62,-678.31 243.28,-666.99"/>
<polygon fill="black" stroke="black" points="244.41,-670.31 252.34,-663.28 241.76,-663.83 244.41,-670.31"/>
</g>
<!-- implement_lints -->
<g id="node18" class="node">
<title>implement_lints</title>
<ellipse fill="none" stroke="black" cx="325.86" cy="-544.6" rx="75.66" ry="29.42"/>
<text xml:space="preserve" text-anchor="middle" x="325.86" y="-548.8" font-family="Times,serif" font-size="14.00">implement_lints</text>
<text xml:space="preserve" text-anchor="middle" x="325.86" y="-532" font-family="Times,serif" font-size="14.00">lint実装</text>
</g>
<!-- cli_tool&#45;&gt;implement_lints -->
<g id="edge20" class="edge">
<title>cli_tool&#45;&gt;implement_lints</title>
<path fill="none" stroke="black" d="M120.02,-701.03C138.66,-670.85 176.31,-616.09 221.61,-583.6 231.17,-576.75 242.08,-570.94 253.15,-566.07"/>
<polygon fill="black" stroke="black" points="254.46,-569.31 262.36,-562.26 251.78,-562.84 254.46,-569.31"/>
</g>
<!-- implement_orphan_lint -->
<g id="node19" class="node">
<title>implement_orphan_lint</title>
<ellipse fill="none" stroke="black" cx="325.86" cy="-876.6" rx="104.24" ry="29.42"/>
<text xml:space="preserve" text-anchor="middle" x="325.86" y="-880.8" font-family="Times,serif" font-size="14.00">implement_orphan_lint</text>
<text xml:space="preserve" text-anchor="middle" x="325.86" y="-864" font-family="Times,serif" font-size="14.00">孤児検出lint実装</text>
</g>
<!-- cli_tool&#45;&gt;implement_orphan_lint -->
<g id="edge40" class="edge">
<title>cli_tool&#45;&gt;implement_orphan_lint</title>
<path fill="none" stroke="black" d="M123.83,-744.01C144.28,-769.41 181.47,-811.59 221.61,-837.6 228.66,-842.16 236.31,-846.31 244.17,-850.04"/>
<polygon fill="black" stroke="black" points="242.63,-853.19 253.19,-854.1 245.5,-846.81 242.63,-853.19"/>
</g>
<!-- layer_audit_assets -->
<g id="node23" class="node">
<title>layer_audit_assets</title>
<ellipse fill="none" stroke="black" cx="325.86" cy="-722.6" rx="83.89" ry="29.42"/>
<text xml:space="preserve" text-anchor="middle" x="325.86" y="-726.8" font-family="Times,serif" font-size="14.00">layer_audit_assets</text>
<text xml:space="preserve" text-anchor="middle" x="325.86" y="-710" font-family="Times,serif" font-size="14.00">L3資産階層化</text>
</g>
<!-- cli_tool&#45;&gt;layer_audit_assets -->
<g id="edge34" class="edge">
<title>cli_tool&#45;&gt;layer_audit_assets</title>
<path fill="none" stroke="black" d="M175.62,-722.6C192.95,-722.6 211.88,-722.6 230.26,-722.6"/>
<polygon fill="black" stroke="black" points="230.1,-726.1 240.1,-722.6 230.1,-719.1 230.1,-726.1"/>
</g>
<!-- publish_cli -->
<g id="node27" class="node">
<title>publish_cli</title>
<ellipse fill="none" stroke="black" cx="325.86" cy="-799.6" rx="55.31" ry="29.42"/>
<text xml:space="preserve" text-anchor="middle" x="325.86" y="-803.8" font-family="Times,serif" font-size="14.00">publish_cli</text>
<text xml:space="preserve" text-anchor="middle" x="325.86" y="-787" font-family="Times,serif" font-size="14.00">CLI公開</text>
</g>
<!-- cli_tool&#45;&gt;publish_cli -->
<g id="edge32" class="edge">
<title>cli_tool&#45;&gt;publish_cli</title>
<path fill="none" stroke="black" d="M168.85,-744.36C200.2,-755.46 238.05,-768.86 268.62,-779.69"/>
<polygon fill="black" stroke="black" points="267.09,-782.86 277.68,-782.89 269.42,-776.26 267.09,-782.86"/>
</g>
<!-- criteria_spec -->
<g id="node5" class="node">
<title>criteria_spec</title>
<polygon fill="#d4edda" stroke="black" points="628.1,-483.4 469.7,-483.4 469.7,-441.8 628.1,-441.8 628.1,-483.4"/>
<text xml:space="preserve" text-anchor="middle" x="548.9" y="-466.8" font-family="Times,serif" font-size="14.00">criteria_spec</text>
<text xml:space="preserve" text-anchor="middle" x="548.9" y="-450" font-family="Times,serif" font-size="14.00">合否基準仕様案 (#7)</text>
<text xml:space="preserve" text-anchor="middle" x="456.09" y="-429.2" font-family="Times,serif" font-size="14.00">done</text>
</g>
<!-- integrate_spec -->
<g id="node22" class="node">
<title>integrate_spec</title>
<ellipse fill="none" stroke="black" cx="736.18" cy="-359.6" rx="68.48" ry="29.42"/>
<text xml:space="preserve" text-anchor="middle" x="736.18" y="-363.8" font-family="Times,serif" font-size="14.00">integrate_spec</text>
<text xml:space="preserve" text-anchor="middle" x="736.18" y="-347" font-family="Times,serif" font-size="14.00">仕様統合</text>
</g>
<!-- criteria_spec&#45;&gt;integrate_spec -->
<g id="edge13" class="edge">
<title>criteria_spec&#45;&gt;integrate_spec</title>
<path fill="none" stroke="black" d="M605.14,-441.36C614.16,-437.41 623.29,-433.1 631.7,-428.6 652.13,-417.68 673.61,-403.79 691.68,-391.34"/>
<polygon fill="black" stroke="black" points="693.35,-394.44 699.55,-385.85 689.34,-388.7 693.35,-394.44"/>
</g>
<!-- design_notes -->
<g id="node6" class="node">
<title>design_notes</title>
<g id="a_node6"><a xlink:title="設計判断ノート・分岐なし方針 (#9)">
<polygon fill="#d4edda" stroke="black" points="624.5,-419.8 473.3,-419.8 473.3,-361.4 624.5,-361.4 624.5,-419.8"/>
<text xml:space="preserve" text-anchor="middle" x="548.9" y="-403.2" font-family="Times,serif" font-size="14.00">design_notes</text>
<text xml:space="preserve" text-anchor="middle" x="548.9" y="-386.4" font-family="Times,serif" font-size="14.00">設計判断ノート・分</text>
<text xml:space="preserve" text-anchor="middle" x="548.9" y="-369.6" font-family="Times,serif" font-size="14.00">岐なし方針 (#9)</text>
</a>
</g>
<text xml:space="preserve" text-anchor="middle" x="459.69" y="-348.8" font-family="Times,serif" font-size="14.00">done</text>
</g>
<!-- design_notes&#45;&gt;integrate_spec -->
<g id="edge16" class="edge">
<title>design_notes&#45;&gt;integrate_spec</title>
<path fill="none" stroke="black" d="M624.99,-378.04C636.78,-376.06 648.95,-374.03 660.72,-372.06"/>
<polygon fill="black" stroke="black" points="661.07,-375.55 670.36,-370.45 659.92,-368.64 661.07,-375.55"/>
</g>
<!-- draft_criteria -->
<g id="node7" class="node">
<title>draft_criteria</title>
<ellipse fill="none" stroke="black" cx="325.86" cy="-467.6" rx="70.71" ry="29.42"/>
<text xml:space="preserve" text-anchor="middle" x="325.86" y="-471.8" font-family="Times,serif" font-size="14.00">draft_criteria</text>
<text xml:space="preserve" text-anchor="middle" x="325.86" y="-455" font-family="Times,serif" font-size="14.00">合否基準仕様起草</text>
</g>
<!-- draft_criteria&#45;&gt;criteria_spec -->
<g id="edge6" class="edge">
<title>draft_criteria&#45;&gt;criteria_spec</title>
<path fill="none" stroke="black" d="M396.8,-466.02C416.32,-465.58 437.82,-465.09 458.31,-464.63"/>
<polygon fill="black" stroke="black" points="458.15,-468.13 468.07,-464.41 457.99,-461.13 458.15,-468.13"/>
</g>
<!-- draft_location -->
<g id="node8" class="node">
<title>draft_location</title>
<g id="a_node8"><a xlink:title="location/command 起草">
<ellipse fill="none" stroke="black" cx="325.86" cy="-264.6" rx="84.99" ry="41.3"/>
<text xml:space="preserve" text-anchor="middle" x="325.86" y="-277.2" font-family="Times,serif" font-size="14.00">draft_location</text>
<text xml:space="preserve" text-anchor="middle" x="325.86" y="-260.4" font-family="Times,serif" font-size="14.00">location/command</text>
<text xml:space="preserve" text-anchor="middle" x="325.86" y="-243.6" font-family="Times,serif" font-size="14.00">起草</text>
</a>
</g>
</g>
<!-- location_spec -->
<g id="node25" class="node">
<title>location_spec</title>
<g id="a_node25"><a xlink:title="location/command 仕様案 (#13)&#10;&#10;ノードと実ファイル・実行手順を結ぶメタデータ。パス解決規則のみ multifile 方針と接点">
<polygon fill="#d4edda" stroke="black" points="617.3,-299.8 480.5,-299.8 480.5,-241.4 617.3,-241.4 617.3,-299.8"/>
<text xml:space="preserve" text-anchor="middle" x="548.9" y="-283.2" font-family="Times,serif" font-size="14.00">location_spec</text>
<text xml:space="preserve" text-anchor="middle" x="548.9" y="-266.4" font-family="Times,serif" font-size="14.00">location/command</text>
<text xml:space="preserve" text-anchor="middle" x="548.9" y="-249.6" font-family="Times,serif" font-size="14.00">仕様案 (#13)</text>
</a>
</g>
<text xml:space="preserve" text-anchor="middle" x="466.89" y="-228.8" font-family="Times,serif" font-size="14.00">done</text>
</g>
<!-- draft_location&#45;&gt;location_spec -->
<g id="edge10" class="edge">
<title>draft_location&#45;&gt;location_spec</title>
<path fill="none" stroke="black" d="M411.05,-266.89C429.95,-267.4 449.93,-267.94 468.62,-268.45"/>
<polygon fill="black" stroke="black" points="468.46,-271.94 478.55,-268.72 468.65,-264.95 468.46,-271.94"/>
</g>
<!-- draft_multifile_specs -->
<g id="node9" class="node">
<title>draft_multifile_specs</title>
<g id="a_node9"><a xlink:title="階層・プリセット共同起草&#10;&#10;#5 と #6 は決定が往復で形成される相互依存のため分割せず共同設計する。共有決定は方針記録として外化">
<ellipse fill="none" stroke="black" cx="1154.73" cy="-135.6" rx="95.44" ry="41.3"/>
<text xml:space="preserve" text-anchor="middle" x="1154.73" y="-148.2" font-family="Times,serif" font-size="14.00">draft_multifile_specs</text>
<text xml:space="preserve" text-anchor="middle" x="1154.73" y="-131.4" font-family="Times,serif" font-size="14.00">階層・プリセット共</text>
<text xml:space="preserve" text-anchor="middle" x="1154.73" y="-114.6" font-family="Times,serif" font-size="14.00">同起草</text>
</a>
</g>
</g>
<!-- i5_hierarchy_spec -->
<g id="node16" class="node">
<title>i5_hierarchy_spec</title>
<polygon fill="#f8f9fa" stroke="black" points="1454.4,-122.4 1303.2,-122.4 1303.2,-80.8 1454.4,-80.8 1454.4,-122.4"/>
<text xml:space="preserve" text-anchor="middle" x="1378.8" y="-105.8" font-family="Times,serif" font-size="14.00">i5_hierarchy_spec</text>
<text xml:space="preserve" text-anchor="middle" x="1378.8" y="-89" font-family="Times,serif" font-size="14.00">階層PFD仕様案 (#5)</text>
<text xml:space="preserve" text-anchor="middle" x="1290.76" y="-68.2" font-family="Times,serif" font-size="14.00">todo</text>
</g>
<!-- draft_multifile_specs&#45;&gt;i5_hierarchy_spec -->
<g id="edge2" class="edge">
<title>draft_multifile_specs&#45;&gt;i5_hierarchy_spec</title>
<path fill="none" stroke="black" d="M1245.1,-121.92C1260.52,-119.56 1276.52,-117.11 1291.84,-114.76"/>
<polygon fill="black" stroke="black" points="1292.02,-118.27 1301.37,-113.3 1290.96,-111.36 1292.02,-118.27"/>
</g>
<!-- i6_presets_spec -->
<g id="node17" class="node">
<title>i6_presets_spec</title>
<g id="a_node17"><a xlink:title="共有プリセット仕様案 (#6)">
<polygon fill="#f8f9fa" stroke="black" points="1454.4,-274.8 1303.2,-274.8 1303.2,-216.4 1454.4,-216.4 1454.4,-274.8"/>
<text xml:space="preserve" text-anchor="middle" x="1378.8" y="-258.2" font-family="Times,serif" font-size="14.00">i6_presets_spec</text>
<text xml:space="preserve" text-anchor="middle" x="1378.8" y="-241.4" font-family="Times,serif" font-size="14.00">共有プリセット仕様</text>
<text xml:space="preserve" text-anchor="middle" x="1378.8" y="-224.6" font-family="Times,serif" font-size="14.00">案 (#6)</text>
</a>
</g>
<text xml:space="preserve" text-anchor="middle" x="1290.76" y="-203.8" font-family="Times,serif" font-size="14.00">todo</text>
</g>
<!-- draft_multifile_specs&#45;&gt;i6_presets_spec -->
<g id="edge3" class="edge">
<title>draft_multifile_specs&#45;&gt;i6_presets_spec</title>
<path fill="none" stroke="black" d="M1218.48,-166.68C1246.36,-180.49 1279.28,-196.8 1307.94,-211"/>
<polygon fill="black" stroke="black" points="1306.02,-213.95 1316.53,-215.25 1309.12,-207.67 1306.02,-213.95"/>
</g>
<!-- multifile_policy -->
<g id="node26" class="node">
<title>multifile_policy</title>
<g id="a_node26"><a xlink:title="マルチファイル意味論方針&#10;&#10;共同起草で確定した ID スコープ・継承解決順・ファイル間参照の決定記録。ファイル横断機能（#8 実装等）と仕様統合の前提資料">
<polygon fill="#f8f9fa" stroke="black" points="1454.4,-198.8 1303.2,-198.8 1303.2,-140.4 1454.4,-140.4 1454.4,-198.8"/>
<text xml:space="preserve" text-anchor="middle" x="1378.8" y="-182.2" font-family="Times,serif" font-size="14.00">multifile_policy</text>
<text xml:space="preserve" text-anchor="middle" x="1378.8" y="-165.4" font-family="Times,serif" font-size="14.00">マルチファイル意味</text>
<text xml:space="preserve" text-anchor="middle" x="1378.8" y="-148.6" font-family="Times,serif" font-size="14.00">論方針</text>
</a>
</g>
<text xml:space="preserve" text-anchor="middle" x="1290.76" y="-127.8" font-family="Times,serif" font-size="14.00">todo</text>
</g>
<!-- draft_multifile_specs&#45;&gt;multifile_policy -->
<g id="edge4" class="edge">
<title>draft_multifile_specs&#45;&gt;multifile_policy</title>
<path fill="none" stroke="black" d="M1245.1,-149.28C1260.52,-151.64 1276.52,-154.09 1291.84,-156.44"/>
<polygon fill="black" stroke="black" points="1290.96,-159.84 1301.37,-157.9 1292.02,-152.93 1290.96,-159.84"/>
</g>
<!-- draft_revises -->
<g id="node10" class="node">
<title>draft_revises</title>
<g id="a_node10"><a xlink:title="改版チェーン仕様起草">
<ellipse fill="none" stroke="black" cx="325.86" cy="-163.6" rx="78.14" ry="41.3"/>
<text xml:space="preserve" text-anchor="middle" x="325.86" y="-176.2" font-family="Times,serif" font-size="14.00">draft_revises</text>
<text xml:space="preserve" text-anchor="middle" x="325.86" y="-159.4" font-family="Times,serif" font-size="14.00">改版チェーン仕様起</text>
<text xml:space="preserve" text-anchor="middle" x="325.86" y="-142.6" font-family="Times,serif" font-size="14.00">草</text>
</a>
</g>
</g>
<!-- revises_spec -->
<g id="node31" class="node">
<title>revises_spec</title>
<g id="a_node31"><a xlink:title="改版チェーン仕様案 (#8)">
<polygon fill="#d4edda" stroke="black" points="628.1,-205.8 469.7,-205.8 469.7,-147.4 628.1,-147.4 628.1,-205.8"/>
<text xml:space="preserve" text-anchor="middle" x="548.9" y="-189.2" font-family="Times,serif" font-size="14.00">revises_spec</text>
<text xml:space="preserve" text-anchor="middle" x="548.9" y="-172.4" font-family="Times,serif" font-size="14.00">改版チェーン仕様案 </text>
<text xml:space="preserve" text-anchor="middle" x="548.9" y="-155.6" font-family="Times,serif" font-size="14.00">(#8)</text>
</a>
</g>
<text xml:space="preserve" text-anchor="middle" x="456.09" y="-134.8" font-family="Times,serif" font-size="14.00">done</text>
</g>
<!-- draft_revises&#45;&gt;revises_spec -->
<g id="edge8" class="edge">
<title>draft_revises&#45;&gt;revises_spec</title>
<path fill="none" stroke="black" d="M403.86,-168.13C421.31,-169.16 440,-170.25 457.95,-171.31"/>
<polygon fill="black" stroke="black" points="457.6,-174.8 467.79,-171.89 458.01,-167.81 457.6,-174.8"/>
</g>
<!-- featured_toolchain -->
<g id="node11" class="node">
<title>featured_toolchain</title>
<g id="a_node11"><a xlink:title="spec v0.0.7 実装済みツールチェーン (#52)">
<polygon fill="#d4edda" stroke="black" points="1454.4,-387.2 1303.2,-387.2 1303.2,-312 1454.4,-312 1454.4,-387.2"/>
<text xml:space="preserve" text-anchor="middle" x="1378.8" y="-370.6" font-family="Times,serif" font-size="14.00">featured_toolchain</text>
<text xml:space="preserve" text-anchor="middle" x="1378.8" y="-353.8" font-family="Times,serif" font-size="14.00">spec v0.0.7</text>
<text xml:space="preserve" text-anchor="middle" x="1378.8" y="-337" font-family="Times,serif" font-size="14.00">実装済みツールチェ</text>
<text xml:space="preserve" text-anchor="middle" x="1378.8" y="-320.2" font-family="Times,serif" font-size="14.00">ーン (#52)</text>
</a>
</g>
<text xml:space="preserve" text-anchor="middle" x="1289.59" y="-299.4" font-family="Times,serif" font-size="14.00">done</text>
</g>
<!-- integrate_multifile -->
<g id="node21" class="node">
<title>integrate_multifile</title>
<g id="a_node21"><a xlink:title="マルチファイル仕様統合">
<ellipse fill="none" stroke="black" cx="1575.39" cy="-207.6" rx="84.98" ry="41.3"/>
<text xml:space="preserve" text-anchor="middle" x="1575.39" y="-220.2" font-family="Times,serif" font-size="14.00">integrate_multifile</text>
<text xml:space="preserve" text-anchor="middle" x="1575.39" y="-203.4" font-family="Times,serif" font-size="14.00">マルチファイル仕様</text>
<text xml:space="preserve" text-anchor="middle" x="1575.39" y="-186.6" font-family="Times,serif" font-size="14.00">統合</text>
</a>
</g>
</g>
<!-- featured_toolchain&#45;&gt;integrate_multifile -->
<g id="edge28" class="edge">
<title>featured_toolchain&#45;&gt;integrate_multifile</title>
<path fill="none" stroke="black" d="M1431.95,-311.55C1458.65,-292.06 1491.18,-268.32 1518.41,-248.45"/>
<polygon fill="black" stroke="black" points="1520.19,-251.49 1526.2,-242.76 1516.06,-245.83 1520.19,-251.49"/>
</g>
<!-- findings_r12 -->
<g id="node12" class="node">
<title>findings_r12</title>
<g id="a_node12"><a xlink:title="実践ラウンド1/2レビュー知見&#10;&#10;docs/examples の執筆・レビューで得た品質知見">
<polygon fill="#d4edda" stroke="black" stroke-width="2" points="185.61,-573.8 27.21,-573.8 27.21,-515.4 185.61,-515.4 185.61,-573.8"/>
<text xml:space="preserve" text-anchor="middle" x="106.41" y="-557.2" font-family="Times,serif" font-size="14.00">findings_r12</text>
<text xml:space="preserve" text-anchor="middle" x="106.41" y="-540.4" font-family="Times,serif" font-size="14.00">実践ラウンド1/2レビ</text>
<text xml:space="preserve" text-anchor="middle" x="106.41" y="-523.6" font-family="Times,serif" font-size="14.00">ュー知見</text>
</a>
</g>
<text xml:space="preserve" text-anchor="middle" x="13.61" y="-502.8" font-family="Times,serif" font-size="14.00">done</text>
</g>
<!-- findings_r12&#45;&gt;implement_lints -->
<g id="edge19" class="edge">
<title>findings_r12&#45;&gt;implement_lints</title>
<path fill="none" stroke="black" d="M186.53,-544.6C203.46,-544.6 221.44,-544.6 238.62,-544.6"/>
<polygon fill="black" stroke="black" points="238.27,-548.1 248.27,-544.6 238.27,-541.1 238.27,-548.1"/>
</g>
<!-- i12_article -->
<g id="node13" class="node">
<title>i12_article</title>
<g id="a_node13"><a xlink:title="公開記事 (#12)&#10;&#10;ADR 群を素材とした外部公開記事。依存なしで着手可能、spec v0.0.7 確定後はより充実">
<polygon fill="#f8f9fa" stroke="black" stroke-width="2" points="610.1,-58.4 487.7,-58.4 487.7,-16.8 610.1,-16.8 610.1,-58.4"/>
<text xml:space="preserve" text-anchor="middle" x="548.9" y="-41.8" font-family="Times,serif" font-size="14.00">i12_article</text>
<text xml:space="preserve" text-anchor="middle" x="548.9" y="-25" font-family="Times,serif" font-size="14.00">公開記事 (#12)</text>
</a>
</g>
<text xml:space="preserve" text-anchor="middle" x="475.25" y="-4.2" font-family="Times,serif" font-size="14.00">todo</text>
</g>
<!-- i37_orphan_lint -->
<g id="node14" class="node">
<title>i37_orphan_lint</title>
<g id="a_node14"><a xlink:title="孤児process検出lint (#37)&#10;&#10;check/audit が出力なき process・孤立ノードを検出する。終端監査の機械化（学習ループの lint 要件経路、dogfood #16 由来）">
<polygon fill="#f8f9fa" stroke="black" stroke-width="2" points="631.7,-905.8 466.1,-905.8 466.1,-847.4 631.7,-847.4 631.7,-905.8"/>
<text xml:space="preserve" text-anchor="middle" x="548.9" y="-889.2" font-family="Times,serif" font-size="14.00">i37_orphan_lint</text>
<text xml:space="preserve" text-anchor="middle" x="548.9" y="-872.4" font-family="Times,serif" font-size="14.00">孤児process検出lint </text>
<text xml:space="preserve" text-anchor="middle" x="548.9" y="-855.6" font-family="Times,serif" font-size="14.00">#37)</text>
</a>
</g>
<text xml:space="preserve" text-anchor="middle" x="453.65" y="-834.8" font-family="Times,serif" font-size="14.00">todo</text>
</g>
<!-- i5_hierarchy_spec&#45;&gt;integrate_multifile -->
<g id="edge25" class="edge">
<title>i5_hierarchy_spec&#45;&gt;integrate_multifile</title>
<path fill="none" stroke="black" d="M1435.71,-122.78C1442.09,-125.58 1448.44,-128.54 1454.4,-131.6 1475.05,-142.18 1496.73,-155.25 1515.9,-167.55"/>
<polygon fill="black" stroke="black" points="1513.81,-170.37 1524.11,-172.88 1517.63,-164.5 1513.81,-170.37"/>
</g>
<!-- i6_presets_spec&#45;&gt;integrate_multifile -->
<g id="edge26" class="edge">
<title>i6_presets_spec&#45;&gt;integrate_multifile</title>
<path fill="none" stroke="black" d="M1454.76,-230.96C1464.56,-229.05 1474.68,-227.07 1484.69,-225.12"/>
<polygon fill="black" stroke="black" points="1485.3,-228.56 1494.44,-223.21 1483.96,-221.69 1485.3,-228.56"/>
</g>
<!-- lint_checker -->
<g id="node24" class="node">
<title>lint_checker</title>
<g id="a_node24"><a xlink:title="lint拡張checker (#4)&#10;&#10;lint 候補の完全リストは issue #4 が一次情報（本文+コメント）。ここに列挙しない — 列挙は同期漏れで腐るため">
<polygon fill="#d4edda" stroke="black" points="1006.26,-483.4 840.66,-483.4 840.66,-441.8 1006.26,-441.8 1006.26,-483.4"/>
<text xml:space="preserve" text-anchor="middle" x="923.46" y="-466.8" font-family="Times,serif" font-size="14.00">lint_checker</text>
<text xml:space="preserve" text-anchor="middle" x="923.46" y="-450" font-family="Times,serif" font-size="14.00">lint拡張checker (#4)</text>
</a>
</g>
<text xml:space="preserve" text-anchor="middle" x="827.06" y="-429.2" font-family="Times,serif" font-size="14.00">done</text>
</g>
<!-- implement_lints&#45;&gt;lint_checker -->
<g id="edge21" class="edge">
<title>implement_lints&#45;&gt;lint_checker</title>
<path fill="none" stroke="black" d="M397.81,-534.83C505.39,-520.02 709.84,-491.87 829.27,-475.43"/>
<polygon fill="black" stroke="black" points="829.63,-478.91 839.06,-474.08 828.68,-471.98 829.63,-478.91"/>
</g>
<!-- implement_orphan_lint&#45;&gt;i37_orphan_lint -->
<g id="edge41" class="edge">
<title>implement_orphan_lint&#45;&gt;i37_orphan_lint</title>
<path fill="none" stroke="black" d="M430.58,-876.6C438.42,-876.6 446.3,-876.6 454.07,-876.6"/>
<polygon fill="black" stroke="black" points="453.85,-880.1 463.85,-876.6 453.85,-873.1 453.85,-880.1"/>
</g>
<!-- implement_spec_features -->
<g id="node20" class="node">
<title>implement_spec_features</title>
<ellipse fill="none" stroke="black" cx="1154.73" cy="-359.6" rx="112.47" ry="29.42"/>
<text xml:space="preserve" text-anchor="middle" x="1154.73" y="-363.8" font-family="Times,serif" font-size="14.00">implement_spec_features</text>
<text xml:space="preserve" text-anchor="middle" x="1154.73" y="-347" font-family="Times,serif" font-size="14.00">新仕様実装</text>
</g>
<!-- implement_spec_features&#45;&gt;featured_toolchain -->
<g id="edge24" class="edge">
<title>implement_spec_features&#45;&gt;featured_toolchain</title>
<path fill="none" stroke="black" d="M1266.12,-354.63C1274.65,-354.25 1283.18,-353.86 1291.52,-353.49"/>
<polygon fill="black" stroke="black" points="1291.41,-356.99 1301.25,-353.05 1291.1,-350 1291.41,-356.99"/>
</g>
<!-- spec_v008 -->
<g id="node35" class="node">
<title>spec_v008</title>
<g id="a_node35"><a xlink:title="仕様書 v0.0.8（マルチファイル統合）">
<polygon fill="#f8f9fa" stroke="black" stroke-width="2" points="1840.37,-245.2 1696.37,-245.2 1696.37,-170 1840.37,-170 1840.37,-245.2"/>
<text xml:space="preserve" text-anchor="middle" x="1768.37" y="-228.6" font-family="Times,serif" font-size="14.00">spec_v008</text>
<text xml:space="preserve" text-anchor="middle" x="1768.37" y="-211.8" font-family="Times,serif" font-size="14.00">仕様書 v0.0</text>
<text xml:space="preserve" text-anchor="middle" x="1768.37" y="-195" font-family="Times,serif" font-size="14.00">8（マルチファイル</text>
<text xml:space="preserve" text-anchor="middle" x="1768.37" y="-178.2" font-family="Times,serif" font-size="14.00">統合）</text>
</a>
</g>
<text xml:space="preserve" text-anchor="middle" x="1683.93" y="-157.4" font-family="Times,serif" font-size="14.00">todo</text>
</g>
<!-- integrate_multifile&#45;&gt;spec_v008 -->
<g id="edge29" class="edge">
<title>integrate_multifile&#45;&gt;spec_v008</title>
<path fill="none" stroke="black" d="M1660.71,-207.6C1668.5,-207.6 1676.39,-207.6 1684.17,-207.6"/>
<polygon fill="black" stroke="black" points="1683.94,-211.1 1693.94,-207.6 1683.94,-204.1 1683.94,-211.1"/>
</g>
<!-- spec_v007 -->
<g id="node34" class="node">
<title>spec_v007</title>
<g id="a_node34"><a xlink:title="仕様書 v0.0.7（統合）">
<polygon fill="#fff3cd" stroke="black" points="1002.66,-388.8 844.26,-388.8 844.26,-330.4 1002.66,-330.4 1002.66,-388.8"/>
<text xml:space="preserve" text-anchor="middle" x="923.46" y="-372.2" font-family="Times,serif" font-size="14.00">spec_v007</text>
<text xml:space="preserve" text-anchor="middle" x="923.46" y="-355.4" font-family="Times,serif" font-size="14.00">仕様書 v0.0.7（統合</text>
<text xml:space="preserve" text-anchor="middle" x="923.46" y="-338.6" font-family="Times,serif" font-size="14.00">）</text>
</a>
</g>
<text xml:space="preserve" text-anchor="middle" x="833.76" y="-317.8" font-family="Times,serif" font-size="14.00">wip</text>
</g>
<!-- integrate_spec&#45;&gt;spec_v007 -->
<g id="edge17" class="edge">
<title>integrate_spec&#45;&gt;spec_v007</title>
<path fill="none" stroke="black" d="M805.12,-359.6C814.08,-359.6 823.37,-359.6 832.62,-359.6"/>
<polygon fill="black" stroke="black" points="832.35,-363.1 842.35,-359.6 832.35,-356.1 832.35,-363.1"/>
</g>
<!-- layer_audit_assets&#45;&gt;audit_distribution -->
<g id="edge35" class="edge">
<title>layer_audit_assets&#45;&gt;audit_distribution</title>
<path fill="none" stroke="black" d="M410.11,-722.6C426.71,-722.6 444.19,-722.6 460.92,-722.6"/>
<polygon fill="black" stroke="black" points="460.85,-726.1 470.85,-722.6 460.85,-719.1 460.85,-726.1"/>
</g>
<!-- lint_checker&#45;&gt;implement_spec_features -->
<g id="edge23" class="edge">
<title>lint_checker&#45;&gt;implement_spec_features</title>
<path fill="none" stroke="black" d="M971.69,-441.38C1004.88,-426.47 1049.76,-406.31 1086.66,-389.73"/>
<polygon fill="black" stroke="black" points="1087.77,-393.07 1095.45,-385.78 1084.9,-386.69 1087.77,-393.07"/>
</g>
<!-- location_spec&#45;&gt;integrate_spec -->
<g id="edge15" class="edge">
<title>location_spec&#45;&gt;integrate_spec</title>
<path fill="none" stroke="black" d="M611.59,-300.24C633.49,-310.75 657.99,-322.52 679.36,-332.79"/>
<polygon fill="black" stroke="black" points="677.68,-335.86 688.21,-337.04 680.71,-329.55 677.68,-335.86"/>
</g>
<!-- multifile_policy&#45;&gt;integrate_multifile -->
<g id="edge27" class="edge">
<title>multifile_policy&#45;&gt;integrate_multifile</title>
<path fill="none" stroke="black" d="M1454.76,-184.24C1464.56,-186.15 1474.68,-188.13 1484.69,-190.08"/>
<polygon fill="black" stroke="black" points="1483.96,-193.51 1494.44,-191.99 1485.3,-186.64 1483.96,-193.51"/>
</g>
<!-- published_cli -->
<g id="node28" class="node">
<title>published_cli</title>
<g id="a_node28"><a xlink:title="npm公開済みCLI&#10;&#10;@pfdsl/cli 0.0.3 公開済み（roadmap の cli_published に対応）。npm install &#45;g @pfdsl/cli で利用可">
<polygon fill="#d4edda" stroke="black" stroke-width="2" points="610.1,-820.4 487.7,-820.4 487.7,-778.8 610.1,-778.8 610.1,-820.4"/>
<text xml:space="preserve" text-anchor="middle" x="548.9" y="-803.8" font-family="Times,serif" font-size="14.00">published_cli</text>
<text xml:space="preserve" text-anchor="middle" x="548.9" y="-787" font-family="Times,serif" font-size="14.00">npm公開済みCLI</text>
</a>
</g>
<text xml:space="preserve" text-anchor="middle" x="474.09" y="-766.2" font-family="Times,serif" font-size="14.00">done</text>
</g>
<!-- publish_cli&#45;&gt;published_cli -->
<g id="edge33" class="edge">
<title>publish_cli&#45;&gt;published_cli</title>
<path fill="none" stroke="black" d="M381.5,-799.6C409.84,-799.6 444.83,-799.6 475.4,-799.6"/>
<polygon fill="black" stroke="black" points="475.37,-803.1 485.37,-799.6 475.37,-796.1 475.37,-803.1"/>
</g>
<!-- restructure_skillgen -->
<g id="node29" class="node">
<title>restructure_skillgen</title>
<ellipse fill="none" stroke="black" cx="325.86" cy="-953.6" rx="89.93" ry="29.42"/>
<text xml:space="preserve" text-anchor="middle" x="325.86" y="-957.8" font-family="Times,serif" font-size="14.00">restructure_skillgen</text>
<text xml:space="preserve" text-anchor="middle" x="325.86" y="-941" font-family="Times,serif" font-size="14.00">生成系再構成</text>
</g>
<!-- restructured_gen -->
<g id="node30" class="node">
<title>restructured_gen</title>
<g id="a_node30"><a xlink:title="再構成済みスキル生成系 (#10)">
<polygon fill="#d4edda" stroke="black" stroke-width="2" points="624.5,-982.8 473.3,-982.8 473.3,-924.4 624.5,-924.4 624.5,-982.8"/>
<text xml:space="preserve" text-anchor="middle" x="548.9" y="-966.2" font-family="Times,serif" font-size="14.00">restructured_gen</text>
<text xml:space="preserve" text-anchor="middle" x="548.9" y="-949.4" font-family="Times,serif" font-size="14.00">再構成済みスキル生</text>
<text xml:space="preserve" text-anchor="middle" x="548.9" y="-932.6" font-family="Times,serif" font-size="14.00">成系 (#10)</text>
</a>
</g>
<text xml:space="preserve" text-anchor="middle" x="459.69" y="-911.8" font-family="Times,serif" font-size="14.00">done</text>
</g>
<!-- restructure_skillgen&#45;&gt;restructured_gen -->
<g id="edge31" class="edge">
<title>restructure_skillgen&#45;&gt;restructured_gen</title>
<path fill="none" stroke="black" d="M416.13,-953.6C431.02,-953.6 446.45,-953.6 461.28,-953.6"/>
<polygon fill="black" stroke="black" points="460.97,-957.1 470.97,-953.6 460.97,-950.1 460.97,-957.1"/>
</g>
<!-- revises_spec&#45;&gt;integrate_spec -->
<g id="edge14" class="edge">
<title>revises_spec&#45;&gt;integrate_spec</title>
<path fill="none" stroke="black" d="M597.93,-206.1C609.48,-214.09 621.44,-223.16 631.7,-232.6 661.19,-259.73 689.56,-295.46 709.12,-322.11"/>
<polygon fill="black" stroke="black" points="706.06,-323.86 714.76,-329.91 711.73,-319.76 706.06,-323.86"/>
</g>
<!-- skill_gen -->
<g id="node32" class="node">
<title>skill_gen</title>
<g id="a_node32"><a xlink:title="スキル生成系（現行）&#10;&#10;scripts/gen&#45;skill.mjs と docs/samples 構成">
<polygon fill="#d4edda" stroke="black" stroke-width="2" points="182.01,-982.8 30.81,-982.8 30.81,-924.4 182.01,-924.4 182.01,-982.8"/>
<text xml:space="preserve" text-anchor="middle" x="106.41" y="-966.2" font-family="Times,serif" font-size="14.00">skill_gen</text>
<text xml:space="preserve" text-anchor="middle" x="106.41" y="-949.4" font-family="Times,serif" font-size="14.00">スキル生成系（現行</text>
<text xml:space="preserve" text-anchor="middle" x="106.41" y="-932.6" font-family="Times,serif" font-size="14.00">）</text>
</a>
</g>
<text xml:space="preserve" text-anchor="middle" x="17.21" y="-911.8" font-family="Times,serif" font-size="14.00">done</text>
</g>
<!-- skill_gen&#45;&gt;restructure_skillgen -->
<g id="edge30" class="edge">
<title>skill_gen&#45;&gt;restructure_skillgen</title>
<path fill="none" stroke="black" d="M182.85,-953.6C196.31,-953.6 210.51,-953.6 224.53,-953.6"/>
<polygon fill="black" stroke="black" points="224.2,-957.1 234.2,-953.6 224.2,-950.1 224.2,-957.1"/>
</g>
<!-- spec_v006 -->
<g id="node33" class="node">
<title>spec_v006</title>
<polygon fill="#d4edda" stroke="black" stroke-width="2" points="164.01,-319.4 48.81,-319.4 48.81,-277.8 164.01,-277.8 164.01,-319.4"/>
<text xml:space="preserve" text-anchor="middle" x="106.41" y="-302.8" font-family="Times,serif" font-size="14.00">spec_v006</text>
<text xml:space="preserve" text-anchor="middle" x="106.41" y="-286" font-family="Times,serif" font-size="14.00">仕様書 v0.0.6</text>
<text xml:space="preserve" text-anchor="middle" x="35.21" y="-265.2" font-family="Times,serif" font-size="14.00">done</text>
</g>
<!-- spec_v006&#45;&gt;draft_criteria -->
<g id="edge5" class="edge">
<title>spec_v006&#45;&gt;draft_criteria</title>
<path fill="none" stroke="black" d="M121.17,-319.93C140.47,-348.34 178.14,-398.5 221.61,-428.6 232.03,-435.81 243.96,-441.9 255.91,-446.97"/>
<polygon fill="black" stroke="black" points="254.4,-450.13 264.99,-450.59 257,-443.63 254.4,-450.13"/>
</g>
<!-- spec_v006&#45;&gt;draft_location -->
<g id="edge9" class="edge">
<title>spec_v006&#45;&gt;draft_location</title>
<path fill="none" stroke="black" d="M164.83,-289.62C185.81,-286.34 210.09,-282.55 233.3,-278.92"/>
<polygon fill="black" stroke="black" points="233.76,-282.39 243.1,-277.38 232.68,-275.47 233.76,-282.39"/>
</g>
<!-- spec_v006&#45;&gt;draft_multifile_specs -->
<g id="edge1" class="edge">
<title>spec_v006&#45;&gt;draft_multifile_specs</title>
<path fill="none" stroke="black" d="M113.49,-276.97C126.09,-236.67 159.22,-150.83 221.61,-113.6 283.99,-76.39 475.27,-94.6 547.9,-94.6 547.9,-94.6 547.9,-94.6 737.18,-94.6 845.56,-94.6 969.04,-108.52 1053.24,-120.13"/>
<polygon fill="black" stroke="black" points="1052.71,-123.59 1063.1,-121.51 1053.68,-116.66 1052.71,-123.59"/>
</g>
<!-- spec_v006&#45;&gt;draft_revises -->
<g id="edge7" class="edge">
<title>spec_v006&#45;&gt;draft_revises</title>
<path fill="none" stroke="black" d="M134.17,-276.83C156.74,-258.99 190.28,-233.66 221.61,-214.6 232.45,-208.01 244.25,-201.56 255.87,-195.57"/>
<polygon fill="black" stroke="black" points="257.32,-198.76 264.67,-191.13 254.16,-192.52 257.32,-198.76"/>
</g>
<!-- spec_v006&#45;&gt;implement_lints -->
<g id="edge18" class="edge">
<title>spec_v006&#45;&gt;implement_lints</title>
<path fill="none" stroke="black" d="M113.78,-320.29C127.06,-361.94 161.59,-453.6 221.61,-505.6 230.28,-513.11 240.54,-519.24 251.18,-524.23"/>
<polygon fill="black" stroke="black" points="249.49,-527.31 260.06,-528.06 252.27,-520.88 249.49,-527.31"/>
</g>
<!-- spec_v006&#45;&gt;integrate_spec -->
<g id="edge42" class="edge">
<title>spec_v006&#45;&gt;integrate_spec</title>
<path fill="none" stroke="#888888" stroke-dasharray="5,2" d="M164.85,-307.24C182.98,-309.81 203.11,-312.5 221.61,-314.6 375.53,-332.11 556.08,-346.52 656.89,-354.01"/>
<polygon fill="#888888" stroke="#888888" points="656.44,-357.48 666.67,-354.73 656.96,-350.5 656.44,-357.48"/>
</g>
<!-- write_design_notes -->
<g id="node37" class="node">
<title>write_design_notes</title>
<ellipse fill="none" stroke="black" cx="325.86" cy="-390.6" rx="88.3" ry="29.42"/>
<text xml:space="preserve" text-anchor="middle" x="325.86" y="-394.8" font-family="Times,serif" font-size="14.00">write_design_notes</text>
<text xml:space="preserve" text-anchor="middle" x="325.86" y="-378" font-family="Times,serif" font-size="14.00">設計ノート執筆</text>
</g>
<!-- spec_v006&#45;&gt;write_design_notes -->
<g id="edge11" class="edge">
<title>spec_v006&#45;&gt;write_design_notes</title>
<path fill="none" stroke="black" d="M157.68,-320.3C177.57,-328.86 200.65,-338.74 221.61,-347.6 233.7,-352.71 246.6,-358.12 259.04,-363.31"/>
<polygon fill="black" stroke="black" points="257.38,-366.41 267.96,-367.03 260.07,-359.95 257.38,-366.41"/>
</g>
<!-- spec_v007&#45;&gt;implement_spec_features -->
<g id="edge22" class="edge">
<title>spec_v007&#45;&gt;implement_spec_features</title>
<path fill="none" stroke="black" d="M1003.04,-359.6C1011.98,-359.6 1021.25,-359.6 1030.59,-359.6"/>
<polygon fill="black" stroke="black" points="1030.49,-363.1 1040.49,-359.6 1030.49,-356.1 1030.49,-363.1"/>
</g>
<!-- write_article&#45;&gt;i12_article -->
<g id="edge37" class="edge">
<title>write_article&#45;&gt;i12_article</title>
<path fill="none" stroke="black" d="M387.55,-37.6C414.85,-37.6 447.29,-37.6 475.82,-37.6"/>
<polygon fill="black" stroke="black" points="475.44,-41.1 485.44,-37.6 475.44,-34.1 475.44,-41.1"/>
</g>
<!-- write_design_notes&#45;&gt;design_notes -->
<g id="edge12" class="edge">
<title>write_design_notes&#45;&gt;design_notes</title>
<path fill="none" stroke="black" d="M414.54,-390.6C430.05,-390.6 446.2,-390.6 461.68,-390.6"/>
<polygon fill="black" stroke="black" points="461.3,-394.1 471.3,-390.6 461.3,-387.1 461.3,-394.1"/>
</g>
</g>
</svg>
