<?xml version="1.0" encoding="UTF-8" standalone="no"?>
<!DOCTYPE svg PUBLIC "-//W3C//DTD SVG 1.1//EN"
 "http://www.w3.org/Graphics/SVG/1.1/DTD/svg11.dtd">
<!-- Generated by graphviz version 14.1.4 (0)
 -->
<!-- Title: PFDSL Pages: 1 -->
<svg width="775pt" height="125pt"
 viewBox="0.00 0.00 775.00 125.00" xmlns="http://www.w3.org/2000/svg" xmlns:xlink="http://www.w3.org/1999/xlink">
<g id="graph0" class="graph" transform="scale(1 1) rotate(0) translate(4 121)">
<title>PFDSL</title>
<polygon fill="white" stroke="none" points="-4,4 -4,-121 771.25,-121 771.25,4 -4,4"/>
<!-- code -->
<g id="node1" class="node">
<title>code</title>
<polygon fill="none" stroke="black" points="526.11,-90 472.11,-90 472.11,-54 526.11,-54 526.11,-90"/>
<text xml:space="preserve" text-anchor="middle" x="499.11" y="-67.8" font-family="Times,serif" font-size="14.00">code</text>
</g>
<!-- review -->
<g id="node7" class="node">
<title>review</title>
<ellipse fill="none" stroke="black" cx="599.42" cy="-72" rx="37.31" ry="18"/>
<text xml:space="preserve" text-anchor="middle" x="599.42" y="-67.8" font-family="Times,serif" font-size="14.00">review</text>
</g>
<!-- code&#45;&gt;review -->
<g id="edge7" class="edge">
<title>code&#45;&gt;review</title>
<path fill="none" stroke="black" d="M526.46,-72C533.8,-72 542.02,-72 550.2,-72"/>
<polygon fill="black" stroke="black" points="550.14,-75.5 560.14,-72 550.14,-68.5 550.14,-75.5"/>
</g>
<!-- codebase -->
<g id="node2" class="node">
<title>codebase</title>
<polygon fill="none" stroke="black" stroke-width="2" points="295.44,-117 228.13,-117 228.13,-81 295.44,-81 295.44,-117"/>
<text xml:space="preserve" text-anchor="middle" x="261.79" y="-94.8" font-family="Times,serif" font-size="14.00">codebase</text>
</g>
<!-- implement -->
<g id="node5" class="node">
<title>implement</title>
<ellipse fill="none" stroke="black" cx="383.77" cy="-72" rx="52.34" ry="18"/>
<text xml:space="preserve" text-anchor="middle" x="383.77" y="-67.8" font-family="Times,serif" font-size="14.00">implement</text>
</g>
<!-- codebase&#45;&gt;implement -->
<g id="edge5" class="edge">
<title>codebase&#45;&gt;implement</title>
<path fill="none" stroke="black" d="M296.21,-91.48C306.09,-89.26 317.18,-86.76 328.03,-84.32"/>
<polygon fill="black" stroke="black" points="328.74,-87.75 337.72,-82.14 327.2,-80.92 328.74,-87.75"/>
</g>
<!-- constraint -->
<g id="node3" class="node">
<title>constraint</title>
<polygon fill="none" stroke="black" stroke-width="2" points="77.42,-90 6.21,-90 6.21,-54 77.42,-54 77.42,-90"/>
<text xml:space="preserve" text-anchor="middle" x="41.82" y="-67.8" font-family="Times,serif" font-size="14.00">constraint</text>
</g>
<!-- design -->
<g id="node4" class="node">
<title>design</title>
<ellipse fill="none" stroke="black" cx="155.88" cy="-45" rx="36.25" ry="18"/>
<text xml:space="preserve" text-anchor="middle" x="155.88" y="-40.8" font-family="Times,serif" font-size="14.00">design</text>
</g>
<!-- constraint&#45;&gt;design -->
<g id="edge2" class="edge">
<title>constraint&#45;&gt;design</title>
<path fill="none" stroke="black" d="M78.28,-63.46C88.84,-60.91 100.54,-58.09 111.55,-55.44"/>
<polygon fill="black" stroke="black" points="112.32,-58.85 121.22,-53.11 110.68,-52.05 112.32,-58.85"/>
</g>
<!-- spec -->
<g id="node9" class="node">
<title>spec</title>
<polygon fill="none" stroke="black" points="288.79,-63 234.79,-63 234.79,-27 288.79,-27 288.79,-63"/>
<text xml:space="preserve" text-anchor="middle" x="261.79" y="-40.8" font-family="Times,serif" font-size="14.00">spec</text>
</g>
<!-- design&#45;&gt;spec -->
<g id="edge3" class="edge">
<title>design&#45;&gt;spec</title>
<path fill="none" stroke="black" d="M192.35,-45C202.24,-45 213.01,-45 223.03,-45"/>
<polygon fill="black" stroke="black" points="222.82,-48.5 232.82,-45 222.82,-41.5 222.82,-48.5"/>
</g>
<!-- implement&#45;&gt;code -->
<g id="edge6" class="edge">
<title>implement&#45;&gt;code</title>
<path fill="none" stroke="black" d="M436.47,-72C444.61,-72 452.89,-72 460.63,-72"/>
<polygon fill="black" stroke="black" points="460.36,-75.5 470.36,-72 460.36,-68.5 460.36,-75.5"/>
</g>
<!-- requirement -->
<g id="node6" class="node">
<title>requirement</title>
<polygon fill="none" stroke="black" stroke-width="2" points="83.63,-36 0,-36 0,0 83.63,0 83.63,-36"/>
<text xml:space="preserve" text-anchor="middle" x="41.82" y="-13.8" font-family="Times,serif" font-size="14.00">requirement</text>
</g>
<!-- requirement&#45;&gt;design -->
<g id="edge1" class="edge">
<title>requirement&#45;&gt;design</title>
<path fill="none" stroke="black" d="M84.55,-28.05C93.39,-30.18 102.73,-32.44 111.63,-34.58"/>
<polygon fill="black" stroke="black" points="110.56,-37.92 121.11,-36.86 112.2,-31.12 110.56,-37.92"/>
</g>
<!-- review_report -->
<g id="node8" class="node">
<title>review_report</title>
<polygon fill="none" stroke="black" stroke-width="2" points="767.25,-90 672.73,-90 672.73,-54 767.25,-54 767.25,-90"/>
<text xml:space="preserve" text-anchor="middle" x="719.99" y="-67.8" font-family="Times,serif" font-size="14.00">review_report</text>
</g>
<!-- review&#45;&gt;review_report -->
<g id="edge8" class="edge">
<title>review&#45;&gt;review_report</title>
<path fill="none" stroke="black" d="M636.96,-72C644.46,-72 652.52,-72 660.56,-72"/>
<polygon fill="black" stroke="black" points="660.34,-75.5 670.34,-72 660.34,-68.5 660.34,-75.5"/>
</g>
<!-- spec&#45;&gt;implement -->
<g id="edge4" class="edge">
<title>spec&#45;&gt;implement</title>
<path fill="none" stroke="black" d="M289.12,-50.93C300.54,-53.5 314.38,-56.61 327.87,-59.64"/>
<polygon fill="black" stroke="black" points="327.05,-63.05 337.58,-61.83 328.59,-56.22 327.05,-63.05"/>
</g>
</g>
</svg>
