<?xml version="1.0" encoding="UTF-8" standalone="no"?>
<!DOCTYPE svg PUBLIC "-//W3C//DTD SVG 1.1//EN"
 "http://www.w3.org/Graphics/SVG/1.1/DTD/svg11.dtd">
<!-- Generated by graphviz version 14.1.4 (0)
 -->
<!-- Title: PFDSL Pages: 1 -->
<svg width="802pt" height="142pt"
 viewBox="0.00 0.00 802.00 142.00" xmlns="http://www.w3.org/2000/svg" xmlns:xlink="http://www.w3.org/1999/xlink">
<g id="graph0" class="graph" transform="scale(1 1) rotate(0) translate(4 137.8)">
<title>PFDSL</title>
<polygon fill="white" stroke="none" points="-4,4 -4,-137.8 798.46,-137.8 798.46,4 -4,4"/>
<!-- code -->
<g id="node1" class="node">
<title>code</title>
<polygon fill="none" stroke="black" points="553.33,-106.8 499.33,-106.8 499.33,-70.8 553.33,-70.8 553.33,-106.8"/>
<text xml:space="preserve" text-anchor="middle" x="526.33" y="-84.6" font-family="Times,serif" font-size="14.00">code</text>
<text xml:space="preserve" text-anchor="middle" x="486.88" y="-58.2" font-family="Times,serif" font-size="14.00">todo</text>
</g>
<!-- review -->
<g id="node7" class="node">
<title>review</title>
<ellipse fill="none" stroke="black" cx="626.64" cy="-88.8" rx="37.31" ry="18"/>
<text xml:space="preserve" text-anchor="middle" x="626.64" y="-84.6" font-family="Times,serif" font-size="14.00">review</text>
</g>
<!-- code&#45;&gt;review -->
<g id="edge7" class="edge">
<title>code&#45;&gt;review</title>
<path fill="none" stroke="black" d="M553.67,-88.8C561.02,-88.8 569.24,-88.8 577.42,-88.8"/>
<polygon fill="black" stroke="black" points="577.36,-92.3 587.36,-88.8 577.36,-85.3 577.36,-92.3"/>
</g>
<!-- codebase -->
<g id="node2" class="node">
<title>codebase</title>
<polygon fill="none" stroke="black" stroke-width="2" points="322.65,-133.8 255.35,-133.8 255.35,-97.8 322.65,-97.8 322.65,-133.8"/>
<text xml:space="preserve" text-anchor="middle" x="289" y="-111.6" font-family="Times,serif" font-size="14.00">codebase</text>
<text xml:space="preserve" text-anchor="middle" x="241.74" y="-85.2" font-family="Times,serif" font-size="14.00">done</text>
</g>
<!-- implement -->
<g id="node5" class="node">
<title>implement</title>
<ellipse fill="none" stroke="black" cx="410.99" cy="-88.8" rx="52.34" ry="18"/>
<text xml:space="preserve" text-anchor="middle" x="410.99" y="-84.6" font-family="Times,serif" font-size="14.00">implement</text>
</g>
<!-- codebase&#45;&gt;implement -->
<g id="edge5" class="edge">
<title>codebase&#45;&gt;implement</title>
<path fill="none" stroke="black" d="M323.42,-108.28C333.3,-106.06 344.39,-103.56 355.25,-101.12"/>
<polygon fill="black" stroke="black" points="355.95,-104.55 364.94,-98.94 354.41,-97.72 355.95,-104.55"/>
</g>
<!-- constraint -->
<g id="node3" class="node">
<title>constraint</title>
<polygon fill="none" stroke="black" stroke-width="2" points="104.63,-106.8 33.43,-106.8 33.43,-70.8 104.63,-70.8 104.63,-106.8"/>
<text xml:space="preserve" text-anchor="middle" x="69.03" y="-84.6" font-family="Times,serif" font-size="14.00">constraint</text>
<text xml:space="preserve" text-anchor="middle" x="19.82" y="-58.2" font-family="Times,serif" font-size="14.00">done</text>
</g>
<!-- design -->
<g id="node4" class="node">
<title>design</title>
<ellipse fill="none" stroke="black" cx="183.1" cy="-61.8" rx="36.25" ry="18"/>
<text xml:space="preserve" text-anchor="middle" x="183.1" y="-57.6" font-family="Times,serif" font-size="14.00">design</text>
</g>
<!-- constraint&#45;&gt;design -->
<g id="edge2" class="edge">
<title>constraint&#45;&gt;design</title>
<path fill="none" stroke="black" d="M105.49,-80.26C116.06,-77.71 127.75,-74.89 138.76,-72.24"/>
<polygon fill="black" stroke="black" points="139.54,-75.65 148.44,-69.91 137.9,-68.85 139.54,-75.65"/>
</g>
<!-- spec -->
<g id="node9" class="node">
<title>spec</title>
<polygon fill="none" stroke="black" points="316,-79.8 262,-79.8 262,-43.8 316,-43.8 316,-79.8"/>
<text xml:space="preserve" text-anchor="middle" x="289" y="-57.6" font-family="Times,serif" font-size="14.00">spec</text>
<text xml:space="preserve" text-anchor="middle" x="249.55" y="-31.2" font-family="Times,serif" font-size="14.00">todo</text>
</g>
<!-- design&#45;&gt;spec -->
<g id="edge3" class="edge">
<title>design&#45;&gt;spec</title>
<path fill="none" stroke="black" d="M219.56,-61.8C229.45,-61.8 240.23,-61.8 250.24,-61.8"/>
<polygon fill="black" stroke="black" points="250.03,-65.3 260.03,-61.8 250.03,-58.3 250.03,-65.3"/>
</g>
<!-- implement&#45;&gt;code -->
<g id="edge6" class="edge">
<title>implement&#45;&gt;code</title>
<path fill="none" stroke="black" d="M463.68,-88.8C471.82,-88.8 480.1,-88.8 487.84,-88.8"/>
<polygon fill="black" stroke="black" points="487.57,-92.3 497.57,-88.8 487.57,-85.3 487.57,-92.3"/>
</g>
<!-- requirement -->
<g id="node6" class="node">
<title>requirement</title>
<polygon fill="none" stroke="black" stroke-width="2" points="110.85,-52.8 27.21,-52.8 27.21,-16.8 110.85,-16.8 110.85,-52.8"/>
<text xml:space="preserve" text-anchor="middle" x="69.03" y="-30.6" font-family="Times,serif" font-size="14.00">requirement</text>
<text xml:space="preserve" text-anchor="middle" x="13.61" y="-4.2" font-family="Times,serif" font-size="14.00">done</text>
</g>
<!-- requirement&#45;&gt;design -->
<g id="edge1" class="edge">
<title>requirement&#45;&gt;design</title>
<path fill="none" stroke="black" d="M111.76,-44.85C120.6,-46.98 129.95,-49.24 138.84,-51.38"/>
<polygon fill="black" stroke="black" points="137.78,-54.72 148.32,-53.66 139.42,-47.92 137.78,-54.72"/>
</g>
<!-- review_report -->
<g id="node8" class="node">
<title>review_report</title>
<polygon fill="none" stroke="black" stroke-width="2" points="794.46,-106.8 699.95,-106.8 699.95,-70.8 794.46,-70.8 794.46,-106.8"/>
<text xml:space="preserve" text-anchor="middle" x="747.21" y="-84.6" font-family="Times,serif" font-size="14.00">review_report</text>
</g>
<!-- review&#45;&gt;review_report -->
<g id="edge8" class="edge">
<title>review&#45;&gt;review_report</title>
<path fill="none" stroke="black" d="M664.18,-88.8C671.67,-88.8 679.73,-88.8 687.78,-88.8"/>
<polygon fill="black" stroke="black" points="687.56,-92.3 697.56,-88.8 687.56,-85.3 687.56,-92.3"/>
</g>
<!-- spec&#45;&gt;implement -->
<g id="edge4" class="edge">
<title>spec&#45;&gt;implement</title>
<path fill="none" stroke="black" d="M316.33,-67.73C327.76,-70.3 341.59,-73.41 355.08,-76.44"/>
<polygon fill="black" stroke="black" points="354.27,-79.85 364.79,-78.63 355.8,-73.02 354.27,-79.85"/>
</g>
</g>
</svg>
