<?xml version="1.0" encoding="UTF-8" standalone="no"?>
<!DOCTYPE svg PUBLIC "-//W3C//DTD SVG 1.1//EN"
 "http://www.w3.org/Graphics/SVG/1.1/DTD/svg11.dtd">
<!-- Generated by graphviz version 14.1.4 (0)
 -->
<!-- Title: PFDSL Pages: 1 -->
<svg width="862pt" height="140pt"
 viewBox="0.00 0.00 862.00 140.00" xmlns="http://www.w3.org/2000/svg" xmlns:xlink="http://www.w3.org/1999/xlink">
<g id="graph0" class="graph" transform="scale(1 1) rotate(0) translate(4 135.6)">
<title>PFDSL</title>
<polygon fill="white" stroke="none" points="-4,4 -4,-135.6 858.05,-135.6 858.05,4 -4,4"/>
<!-- code -->
<g id="node1" class="node">
<title>code</title>
<polygon fill="none" stroke="black" points="584.82,-101.6 520.02,-101.6 520.02,-60 584.82,-60 584.82,-101.6"/>
<text xml:space="preserve" text-anchor="middle" x="552.42" y="-85" font-family="Times,serif" font-size="14.00">code</text>
<text xml:space="preserve" text-anchor="middle" x="552.42" y="-68.2" font-family="Times,serif" font-size="14.00">コード</text>
</g>
<!-- review -->
<g id="node7" class="node">
<title>review</title>
<ellipse fill="none" stroke="black" cx="661.84" cy="-80.8" rx="41.01" ry="29.42"/>
<text xml:space="preserve" text-anchor="middle" x="661.84" y="-85" font-family="Times,serif" font-size="14.00">review</text>
<text xml:space="preserve" text-anchor="middle" x="661.84" y="-68.2" font-family="Times,serif" font-size="14.00">レビュー</text>
</g>
<!-- code&#45;&gt;review -->
<g id="edge7" class="edge">
<title>code&#45;&gt;review</title>
<path fill="none" stroke="black" d="M585.07,-80.8C592.64,-80.8 600.92,-80.8 609.14,-80.8"/>
<polygon fill="black" stroke="black" points="609.12,-84.3 619.12,-80.8 609.12,-77.3 609.12,-84.3"/>
</g>
<!-- codebase -->
<g id="node2" class="node">
<title>codebase</title>
<polygon fill="none" stroke="black" stroke-width="2" points="340.72,-131.6 247.12,-131.6 247.12,-90 340.72,-90 340.72,-131.6"/>
<text xml:space="preserve" text-anchor="middle" x="293.92" y="-115" font-family="Times,serif" font-size="14.00">codebase</text>
<text xml:space="preserve" text-anchor="middle" x="293.92" y="-98.2" font-family="Times,serif" font-size="14.00">既存コード</text>
</g>
<!-- implement -->
<g id="node5" class="node">
<title>implement</title>
<ellipse fill="none" stroke="black" cx="430.37" cy="-80.8" rx="53.65" ry="29.42"/>
<text xml:space="preserve" text-anchor="middle" x="430.37" y="-85" font-family="Times,serif" font-size="14.00">implement</text>
<text xml:space="preserve" text-anchor="middle" x="430.37" y="-68.2" font-family="Times,serif" font-size="14.00">実装</text>
</g>
<!-- codebase&#45;&gt;implement -->
<g id="edge5" class="edge">
<title>codebase&#45;&gt;implement</title>
<path fill="none" stroke="black" d="M341.57,-100.39C350.41,-98.42 359.78,-96.33 368.98,-94.28"/>
<polygon fill="black" stroke="black" points="369.59,-97.73 378.58,-92.13 368.06,-90.89 369.59,-97.73"/>
</g>
<!-- constraint -->
<g id="node3" class="node">
<title>constraint</title>
<polygon fill="none" stroke="black" stroke-width="2" points="97.2,-101.6 3.6,-101.6 3.6,-60 97.2,-60 97.2,-101.6"/>
<text xml:space="preserve" text-anchor="middle" x="50.4" y="-85" font-family="Times,serif" font-size="14.00">constraint</text>
<text xml:space="preserve" text-anchor="middle" x="50.4" y="-68.2" font-family="Times,serif" font-size="14.00">制約</text>
</g>
<!-- design -->
<g id="node4" class="node">
<title>design</title>
<ellipse fill="none" stroke="black" cx="173.96" cy="-50.8" rx="37.16" ry="29.42"/>
<text xml:space="preserve" text-anchor="middle" x="173.96" y="-55" font-family="Times,serif" font-size="14.00">design</text>
<text xml:space="preserve" text-anchor="middle" x="173.96" y="-38.2" font-family="Times,serif" font-size="14.00">設計</text>
</g>
<!-- constraint&#45;&gt;design -->
<g id="edge2" class="edge">
<title>constraint&#45;&gt;design</title>
<path fill="none" stroke="black" d="M98.05,-69.29C107.48,-66.96 117.38,-64.52 126.79,-62.19"/>
<polygon fill="black" stroke="black" points="127.61,-65.6 136.48,-59.8 125.94,-58.8 127.61,-65.6"/>
</g>
<!-- spec -->
<g id="node9" class="node">
<title>spec</title>
<polygon fill="none" stroke="black" points="326.32,-71.6 261.52,-71.6 261.52,-30 326.32,-30 326.32,-71.6"/>
<text xml:space="preserve" text-anchor="middle" x="293.92" y="-55" font-family="Times,serif" font-size="14.00">spec</text>
<text xml:space="preserve" text-anchor="middle" x="293.92" y="-38.2" font-family="Times,serif" font-size="14.00">仕様書</text>
</g>
<!-- design&#45;&gt;spec -->
<g id="edge3" class="edge">
<title>design&#45;&gt;spec</title>
<path fill="none" stroke="black" d="M211.31,-50.8C223.55,-50.8 237.31,-50.8 250,-50.8"/>
<polygon fill="black" stroke="black" points="249.76,-54.3 259.76,-50.8 249.76,-47.3 249.76,-54.3"/>
</g>
<!-- implement&#45;&gt;code -->
<g id="edge6" class="edge">
<title>implement&#45;&gt;code</title>
<path fill="none" stroke="black" d="M484.38,-80.8C492.39,-80.8 500.56,-80.8 508.33,-80.8"/>
<polygon fill="black" stroke="black" points="508.21,-84.3 518.21,-80.8 508.21,-77.3 508.21,-84.3"/>
</g>
<!-- requirement -->
<g id="node6" class="node">
<title>requirement</title>
<polygon fill="none" stroke="black" stroke-width="2" points="100.8,-41.6 0,-41.6 0,0 100.8,0 100.8,-41.6"/>
<text xml:space="preserve" text-anchor="middle" x="50.4" y="-25" font-family="Times,serif" font-size="14.00">requirement</text>
<text xml:space="preserve" text-anchor="middle" x="50.4" y="-8.2" font-family="Times,serif" font-size="14.00">要件</text>
</g>
<!-- requirement&#45;&gt;design -->
<g id="edge1" class="edge">
<title>requirement&#45;&gt;design</title>
<path fill="none" stroke="black" d="M101.54,-33.18C110,-35.26 118.73,-37.42 127.07,-39.48"/>
<polygon fill="black" stroke="black" points="126.11,-42.84 136.66,-41.84 127.79,-36.05 126.11,-42.84"/>
</g>
<!-- review_report -->
<g id="node8" class="node">
<title>review_report</title>
<polygon fill="none" stroke="black" stroke-width="2" points="854.05,-101.6 738.85,-101.6 738.85,-60 854.05,-60 854.05,-101.6"/>
<text xml:space="preserve" text-anchor="middle" x="796.45" y="-85" font-family="Times,serif" font-size="14.00">review_report</text>
<text xml:space="preserve" text-anchor="middle" x="796.45" y="-68.2" font-family="Times,serif" font-size="14.00">レビュー結果</text>
</g>
<!-- review&#45;&gt;review_report -->
<g id="edge8" class="edge">
<title>review&#45;&gt;review_report</title>
<path fill="none" stroke="black" d="M703.35,-80.8C710.8,-80.8 718.77,-80.8 726.79,-80.8"/>
<polygon fill="black" stroke="black" points="726.59,-84.3 736.59,-80.8 726.59,-77.3 726.59,-84.3"/>
</g>
<!-- spec&#45;&gt;implement -->
<g id="edge4" class="edge">
<title>spec&#45;&gt;implement</title>
<path fill="none" stroke="black" d="M326.78,-57.91C339.47,-60.74 354.5,-64.09 369.1,-67.35"/>
<polygon fill="black" stroke="black" points="368.12,-70.72 378.65,-69.48 369.65,-63.89 368.12,-70.72"/>
</g>
</g>
</svg>
