<?xml version="1.0" encoding="UTF-8" standalone="no"?>
<!DOCTYPE svg PUBLIC "-//W3C//DTD SVG 1.1//EN"
 "http://www.w3.org/Graphics/SVG/1.1/DTD/svg11.dtd">
<!-- Generated by graphviz version 14.1.4 (0)
 -->
<!-- Title: PFDSL Pages: 1 -->
<svg width="889pt" height="156pt"
 viewBox="0.00 0.00 889.00 156.00" xmlns="http://www.w3.org/2000/svg" xmlns:xlink="http://www.w3.org/1999/xlink">
<g id="graph0" class="graph" transform="scale(1 1) rotate(0) translate(4 152.4)">
<title>PFDSL</title>
<polygon fill="white" stroke="none" points="-4,4 -4,-152.4 885.26,-152.4 885.26,4 -4,4"/>
<!-- code -->
<g id="node1" class="node">
<title>code</title>
<polygon fill="none" stroke="black" points="612.04,-118.4 547.24,-118.4 547.24,-76.8 612.04,-76.8 612.04,-118.4"/>
<text xml:space="preserve" text-anchor="middle" x="579.64" y="-101.8" font-family="Times,serif" font-size="14.00">code</text>
<text xml:space="preserve" text-anchor="middle" x="579.64" y="-85" font-family="Times,serif" font-size="14.00">コード</text>
<text xml:space="preserve" text-anchor="middle" x="534.79" y="-64.2" font-family="Times,serif" font-size="14.00">todo</text>
</g>
<!-- review -->
<g id="node7" class="node">
<title>review</title>
<ellipse fill="none" stroke="black" cx="689.05" cy="-97.6" rx="41.01" ry="29.42"/>
<text xml:space="preserve" text-anchor="middle" x="689.05" y="-101.8" font-family="Times,serif" font-size="14.00">review</text>
<text xml:space="preserve" text-anchor="middle" x="689.05" y="-85" font-family="Times,serif" font-size="14.00">レビュー</text>
</g>
<!-- code&#45;&gt;review -->
<g id="edge7" class="edge">
<title>code&#45;&gt;review</title>
<path fill="none" stroke="black" d="M612.28,-97.6C619.86,-97.6 628.13,-97.6 636.35,-97.6"/>
<polygon fill="black" stroke="black" points="636.33,-101.1 646.33,-97.6 636.33,-94.1 636.33,-101.1"/>
</g>
<!-- codebase -->
<g id="node2" class="node">
<title>codebase</title>
<polygon fill="none" stroke="black" stroke-width="2" points="367.93,-148.4 274.33,-148.4 274.33,-106.8 367.93,-106.8 367.93,-148.4"/>
<text xml:space="preserve" text-anchor="middle" x="321.13" y="-131.8" font-family="Times,serif" font-size="14.00">codebase</text>
<text xml:space="preserve" text-anchor="middle" x="321.13" y="-115" font-family="Times,serif" font-size="14.00">既存コード</text>
<text xml:space="preserve" text-anchor="middle" x="260.73" y="-94.2" font-family="Times,serif" font-size="14.00">done</text>
</g>
<!-- implement -->
<g id="node5" class="node">
<title>implement</title>
<ellipse fill="none" stroke="black" cx="457.59" cy="-97.6" rx="53.65" ry="29.42"/>
<text xml:space="preserve" text-anchor="middle" x="457.59" y="-101.8" font-family="Times,serif" font-size="14.00">implement</text>
<text xml:space="preserve" text-anchor="middle" x="457.59" y="-85" font-family="Times,serif" font-size="14.00">実装</text>
</g>
<!-- codebase&#45;&gt;implement -->
<g id="edge5" class="edge">
<title>codebase&#45;&gt;implement</title>
<path fill="none" stroke="black" d="M368.78,-117.19C377.62,-115.22 386.99,-113.13 396.19,-111.08"/>
<polygon fill="black" stroke="black" points="396.8,-114.53 405.8,-108.93 395.28,-107.69 396.8,-114.53"/>
</g>
<!-- constraint -->
<g id="node3" class="node">
<title>constraint</title>
<polygon fill="none" stroke="black" stroke-width="2" points="124.41,-118.4 30.81,-118.4 30.81,-76.8 124.41,-76.8 124.41,-118.4"/>
<text xml:space="preserve" text-anchor="middle" x="77.61" y="-101.8" font-family="Times,serif" font-size="14.00">constraint</text>
<text xml:space="preserve" text-anchor="middle" x="77.61" y="-85" font-family="Times,serif" font-size="14.00">制約</text>
<text xml:space="preserve" text-anchor="middle" x="17.21" y="-64.2" font-family="Times,serif" font-size="14.00">done</text>
</g>
<!-- design -->
<g id="node4" class="node">
<title>design</title>
<ellipse fill="none" stroke="black" cx="201.17" cy="-67.6" rx="37.16" ry="29.42"/>
<text xml:space="preserve" text-anchor="middle" x="201.17" y="-71.8" font-family="Times,serif" font-size="14.00">design</text>
<text xml:space="preserve" text-anchor="middle" x="201.17" y="-55" font-family="Times,serif" font-size="14.00">設計</text>
</g>
<!-- constraint&#45;&gt;design -->
<g id="edge2" class="edge">
<title>constraint&#45;&gt;design</title>
<path fill="none" stroke="black" d="M125.26,-86.09C134.69,-83.76 144.59,-81.32 154,-78.99"/>
<polygon fill="black" stroke="black" points="154.83,-82.4 163.7,-76.6 153.15,-75.6 154.83,-82.4"/>
</g>
<!-- spec -->
<g id="node9" class="node">
<title>spec</title>
<polygon fill="none" stroke="black" points="353.53,-88.4 288.73,-88.4 288.73,-46.8 353.53,-46.8 353.53,-88.4"/>
<text xml:space="preserve" text-anchor="middle" x="321.13" y="-71.8" font-family="Times,serif" font-size="14.00">spec</text>
<text xml:space="preserve" text-anchor="middle" x="321.13" y="-55" font-family="Times,serif" font-size="14.00">仕様書</text>
<text xml:space="preserve" text-anchor="middle" x="276.29" y="-34.2" font-family="Times,serif" font-size="14.00">todo</text>
</g>
<!-- design&#45;&gt;spec -->
<g id="edge3" class="edge">
<title>design&#45;&gt;spec</title>
<path fill="none" stroke="black" d="M238.53,-67.6C250.76,-67.6 264.52,-67.6 277.21,-67.6"/>
<polygon fill="black" stroke="black" points="276.97,-71.1 286.97,-67.6 276.97,-64.1 276.97,-71.1"/>
</g>
<!-- implement&#45;&gt;code -->
<g id="edge6" class="edge">
<title>implement&#45;&gt;code</title>
<path fill="none" stroke="black" d="M511.59,-97.6C519.6,-97.6 527.78,-97.6 535.54,-97.6"/>
<polygon fill="black" stroke="black" points="535.43,-101.1 545.43,-97.6 535.43,-94.1 535.43,-101.1"/>
</g>
<!-- requirement -->
<g id="node6" class="node">
<title>requirement</title>
<polygon fill="none" stroke="black" stroke-width="2" points="128.01,-58.4 27.21,-58.4 27.21,-16.8 128.01,-16.8 128.01,-58.4"/>
<text xml:space="preserve" text-anchor="middle" x="77.61" y="-41.8" font-family="Times,serif" font-size="14.00">requirement</text>
<text xml:space="preserve" text-anchor="middle" x="77.61" y="-25" font-family="Times,serif" font-size="14.00">要件</text>
<text xml:space="preserve" text-anchor="middle" x="13.61" y="-4.2" font-family="Times,serif" font-size="14.00">done</text>
</g>
<!-- requirement&#45;&gt;design -->
<g id="edge1" class="edge">
<title>requirement&#45;&gt;design</title>
<path fill="none" stroke="black" d="M128.76,-49.98C137.21,-52.06 145.95,-54.22 154.29,-56.28"/>
<polygon fill="black" stroke="black" points="153.33,-59.64 163.88,-58.64 155,-52.85 153.33,-59.64"/>
</g>
<!-- review_report -->
<g id="node8" class="node">
<title>review_report</title>
<polygon fill="none" stroke="black" stroke-width="2" points="881.26,-118.4 766.06,-118.4 766.06,-76.8 881.26,-76.8 881.26,-118.4"/>
<text xml:space="preserve" text-anchor="middle" x="823.66" y="-101.8" font-family="Times,serif" font-size="14.00">review_report</text>
<text xml:space="preserve" text-anchor="middle" x="823.66" y="-85" font-family="Times,serif" font-size="14.00">レビュー結果</text>
</g>
<!-- review&#45;&gt;review_report -->
<g id="edge8" class="edge">
<title>review&#45;&gt;review_report</title>
<path fill="none" stroke="black" d="M730.56,-97.6C738.01,-97.6 745.98,-97.6 754,-97.6"/>
<polygon fill="black" stroke="black" points="753.8,-101.1 763.8,-97.6 753.8,-94.1 753.8,-101.1"/>
</g>
<!-- spec&#45;&gt;implement -->
<g id="edge4" class="edge">
<title>spec&#45;&gt;implement</title>
<path fill="none" stroke="black" d="M354,-74.71C366.68,-77.54 381.72,-80.89 396.31,-84.15"/>
<polygon fill="black" stroke="black" points="395.34,-87.52 405.86,-86.28 396.86,-80.69 395.34,-87.52"/>
</g>
</g>
</svg>
