<?xml version="1.0" encoding="UTF-8" standalone="no"?>
<!DOCTYPE svg PUBLIC "-//W3C//DTD SVG 1.1//EN"
 "http://www.w3.org/Graphics/SVG/1.1/DTD/svg11.dtd">
<!-- Generated by graphviz version 14.1.4 (0)
 -->
<!-- Title: PFDSL Pages: 1 -->
<svg width="758pt" height="98pt"
 viewBox="0.00 0.00 758.00 98.00" xmlns="http://www.w3.org/2000/svg" xmlns:xlink="http://www.w3.org/1999/xlink">
<g id="graph0" class="graph" transform="scale(1 1) rotate(0) translate(4 94)">
<title>PFDSL</title>
<polygon fill="white" stroke="none" points="-4,4 -4,-94 754.49,-94 754.49,4 -4,4"/>
<!-- bug_report -->
<g id="node1" class="node">
<title>bug_report</title>
<polygon fill="none" stroke="black" stroke-width="2" points="488.1,-90 410.68,-90 410.68,-54 488.1,-54 488.1,-90"/>
<text xml:space="preserve" text-anchor="middle" x="449.39" y="-67.8" font-family="Times,serif" font-size="14.00">bug_report</text>
</g>
<!-- implement -->
<g id="node3" class="node">
<title>implement</title>
<ellipse fill="none" stroke="black" cx="142.34" cy="-22" rx="52.34" ry="18"/>
<text xml:space="preserve" text-anchor="middle" x="142.34" y="-17.8" font-family="Times,serif" font-size="14.00">implement</text>
</g>
<!-- bug_report&#45;&gt;implement -->
<g id="edge8" class="edge">
<title>bug_report&#45;&gt;implement</title>
<path fill="none" stroke="#888888" stroke-dasharray="5,2" d="M409.9,-70.2C366.11,-67.63 292.67,-61.73 230.68,-49 217.32,-46.26 203.08,-42.31 190.07,-38.28"/>
<polygon fill="#888888" stroke="#888888" points="191.5,-35.07 180.91,-35.36 189.38,-41.74 191.5,-35.07"/>
</g>
<!-- code -->
<g id="node2" class="node">
<title>code</title>
<polygon fill="none" stroke="black" points="284.68,-40 230.68,-40 230.68,-4 284.68,-4 284.68,-40"/>
<text xml:space="preserve" text-anchor="middle" x="257.68" y="-17.8" font-family="Times,serif" font-size="14.00">code</text>
</g>
<!-- test -->
<g id="node7" class="node">
<title>test</title>
<ellipse fill="none" stroke="black" cx="347.68" cy="-22" rx="27" ry="18"/>
<text xml:space="preserve" text-anchor="middle" x="347.68" y="-17.8" font-family="Times,serif" font-size="14.00">test</text>
</g>
<!-- code&#45;&gt;test -->
<g id="edge3" class="edge">
<title>code&#45;&gt;test</title>
<path fill="none" stroke="black" d="M285.08,-22C292.56,-22 300.86,-22 308.87,-22"/>
<polygon fill="black" stroke="black" points="308.78,-25.5 318.78,-22 308.78,-18.5 308.78,-25.5"/>
</g>
<!-- implement&#45;&gt;code -->
<g id="edge2" class="edge">
<title>implement&#45;&gt;code</title>
<path fill="none" stroke="black" d="M195.03,-22C203.17,-22 211.45,-22 219.19,-22"/>
<polygon fill="black" stroke="black" points="218.92,-25.5 228.92,-22 218.92,-18.5 218.92,-25.5"/>
</g>
<!-- release -->
<g id="node4" class="node">
<title>release</title>
<ellipse fill="none" stroke="black" cx="561.94" cy="-18" rx="37.84" ry="18"/>
<text xml:space="preserve" text-anchor="middle" x="561.94" y="-13.8" font-family="Times,serif" font-size="14.00">release</text>
</g>
<!-- released_package -->
<g id="node5" class="node">
<title>released_package</title>
<polygon fill="none" stroke="black" stroke-width="2" points="750.49,-36 635.78,-36 635.78,0 750.49,0 750.49,-36"/>
<text xml:space="preserve" text-anchor="middle" x="693.14" y="-13.8" font-family="Times,serif" font-size="14.00">released_package</text>
</g>
<!-- release&#45;&gt;released_package -->
<g id="edge7" class="edge">
<title>release&#45;&gt;released_package</title>
<path fill="none" stroke="black" d="M599.96,-18C607.36,-18 615.36,-18 623.44,-18"/>
<polygon fill="black" stroke="black" points="623.35,-21.5 633.35,-18 623.35,-14.5 623.35,-21.5"/>
</g>
<!-- spec -->
<g id="node6" class="node">
<title>spec</title>
<polygon fill="none" stroke="black" stroke-width="2" points="54,-40 0,-40 0,-4 54,-4 54,-40"/>
<text xml:space="preserve" text-anchor="middle" x="27" y="-17.8" font-family="Times,serif" font-size="14.00">spec</text>
</g>
<!-- spec&#45;&gt;implement -->
<g id="edge1" class="edge">
<title>spec&#45;&gt;implement</title>
<path fill="none" stroke="black" d="M54.86,-22C62.06,-22 70.16,-22 78.44,-22"/>
<polygon fill="black" stroke="black" points="78.25,-25.5 88.25,-22 78.25,-18.5 78.25,-25.5"/>
</g>
<!-- test&#45;&gt;bug_report -->
<g id="edge5" class="edge">
<title>test&#45;&gt;bug_report</title>
<path fill="none" stroke="black" d="M369.82,-32.6C378.83,-37.12 389.74,-42.59 400.53,-48"/>
<polygon fill="black" stroke="black" points="398.9,-51.1 409.41,-52.45 402.04,-44.84 398.9,-51.1"/>
</g>
<!-- test_report -->
<g id="node8" class="node">
<title>test_report</title>
<polygon fill="none" stroke="black" points="487.32,-36 411.46,-36 411.46,0 487.32,0 487.32,-36"/>
<text xml:space="preserve" text-anchor="middle" x="449.39" y="-13.8" font-family="Times,serif" font-size="14.00">test_report</text>
</g>
<!-- test&#45;&gt;test_report -->
<g id="edge4" class="edge">
<title>test&#45;&gt;test_report</title>
<path fill="none" stroke="black" d="M374.87,-20.95C382.58,-20.64 391.26,-20.29 399.89,-19.95"/>
<polygon fill="black" stroke="black" points="399.75,-23.45 409.61,-19.56 399.47,-16.46 399.75,-23.45"/>
</g>
<!-- test_report&#45;&gt;release -->
<g id="edge6" class="edge">
<title>test_report&#45;&gt;release</title>
<path fill="none" stroke="black" d="M487.82,-18C495.74,-18 504.2,-18 512.46,-18"/>
<polygon fill="black" stroke="black" points="512.41,-21.5 522.41,-18 512.41,-14.5 512.41,-21.5"/>
</g>
</g>
</svg>
