<?xml version="1.0" encoding="UTF-8" standalone="no"?>
<!DOCTYPE svg PUBLIC "-//W3C//DTD SVG 1.1//EN"
 "http://www.w3.org/Graphics/SVG/1.1/DTD/svg11.dtd">
<!-- Generated by graphviz version 14.1.4 (0)
 -->
<!-- Title: PFDSL Pages: 1 -->
<svg width="501pt" height="98pt"
 viewBox="0.00 0.00 501.00 98.00" xmlns="http://www.w3.org/2000/svg" xmlns:xlink="http://www.w3.org/1999/xlink">
<g id="graph0" class="graph" transform="scale(1 1) rotate(0) translate(4 94)">
<title>PFDSL</title>
<polygon fill="white" stroke="none" points="-4,4 -4,-94 496.61,-94 496.61,4 -4,4"/>
<!-- compatibility_report -->
<g id="node1" class="node">
<title>compatibility_report</title>
<polygon fill="none" stroke="black" stroke-width="2" points="492.61,-90 361.52,-90 361.52,-54 492.61,-54 492.61,-90"/>
<text xml:space="preserve" text-anchor="middle" x="427.06" y="-67.8" font-family="Times,serif" font-size="14.00">compatibility_report</text>
</g>
<!-- engineering_judgment -->
<g id="node2" class="node">
<title>engineering_judgment</title>
<polygon fill="none" stroke="black" stroke-width="2" points="141.97,-63 0,-63 0,-27 141.97,-27 141.97,-63"/>
<text xml:space="preserve" text-anchor="middle" x="70.98" y="-40.8" font-family="Times,serif" font-size="14.00">engineering_judgment</text>
</g>
<!-- plan_and_check -->
<g id="node4" class="node">
<title>plan_and_check</title>
<ellipse fill="none" stroke="black" cx="251.74" cy="-45" rx="73.78" ry="18"/>
<text xml:space="preserve" text-anchor="middle" x="251.74" y="-40.8" font-family="Times,serif" font-size="14.00">plan_and_check</text>
</g>
<!-- engineering_judgment&#45;&gt;plan_and_check -->
<g id="edge1" class="edge">
<title>engineering_judgment&#45;&gt;plan_and_check</title>
<path fill="none" stroke="black" d="M142.89,-45C150.55,-45 158.41,-45 166.21,-45"/>
<polygon fill="black" stroke="black" points="166.06,-48.5 176.06,-45 166.06,-41.5 166.06,-48.5"/>
</g>
<!-- migration_plan -->
<g id="node3" class="node">
<title>migration_plan</title>
<polygon fill="none" stroke="black" stroke-width="2" points="477.83,-36 376.29,-36 376.29,0 477.83,0 477.83,-36"/>
<text xml:space="preserve" text-anchor="middle" x="427.06" y="-13.8" font-family="Times,serif" font-size="14.00">migration_plan</text>
</g>
<!-- plan_and_check&#45;&gt;compatibility_report -->
<g id="edge3" class="edge">
<title>plan_and_check&#45;&gt;compatibility_report</title>
<path fill="none" stroke="black" d="M314.83,-54.67C326.09,-56.43 337.96,-58.27 349.57,-60.08"/>
<polygon fill="black" stroke="black" points="348.69,-63.49 359.11,-61.57 349.77,-56.57 348.69,-63.49"/>
</g>
<!-- plan_and_check&#45;&gt;migration_plan -->
<g id="edge2" class="edge">
<title>plan_and_check&#45;&gt;migration_plan</title>
<path fill="none" stroke="black" d="M314.83,-35.33C331.01,-32.81 348.43,-30.09 364.58,-27.58"/>
<polygon fill="black" stroke="black" points="364.68,-31.1 374.03,-26.11 363.61,-24.19 364.68,-31.1"/>
</g>
</g>
</svg>
