<?xml version="1.0" encoding="UTF-8" standalone="no"?>
<!DOCTYPE svg PUBLIC "-//W3C//DTD SVG 1.1//EN"
 "http://www.w3.org/Graphics/SVG/1.1/DTD/svg11.dtd">
<!-- Generated by graphviz version 14.1.4 (0)
 -->
<!-- Title: PFDSL Pages: 1 -->
<svg width="736pt" height="67pt"
 viewBox="0.00 0.00 736.00 67.00" xmlns="http://www.w3.org/2000/svg" xmlns:xlink="http://www.w3.org/1999/xlink">
<g id="graph0" class="graph" transform="scale(1 1) rotate(0) translate(4 62.83)">
<title>PFDSL</title>
<polygon fill="white" stroke="none" points="-4,4 -4,-62.83 732.06,-62.83 732.06,4 -4,4"/>
<!-- draft -->
<g id="node1" class="node">
<title>draft</title>
<polygon fill="none" stroke="black" stroke-width="2" points="54,-47.42 0,-47.42 0,-11.42 54,-11.42 54,-47.42"/>
<text xml:space="preserve" text-anchor="middle" x="27" y="-25.22" font-family="Times,serif" font-size="14.00">draft</text>
</g>
<!-- write -->
<g id="node7" class="node">
<title>write</title>
<ellipse fill="none" stroke="black" cx="120.88" cy="-29.42" rx="30.88" ry="18"/>
<text xml:space="preserve" text-anchor="middle" x="120.88" y="-25.22" font-family="Times,serif" font-size="14.00">write</text>
</g>
<!-- draft&#45;&gt;write -->
<g id="edge1" class="edge">
<title>draft&#45;&gt;write</title>
<path fill="none" stroke="black" d="M54.58,-29.42C62.07,-29.42 70.4,-29.42 78.54,-29.42"/>
<polygon fill="black" stroke="black" points="78.3,-32.92 88.3,-29.42 78.3,-25.92 78.3,-32.92"/>
</g>
<!-- manuscript -->
<g id="node2" class="node">
<title>manuscript</title>
<polygon fill="none" stroke="black" points="265.96,-47.42 187.76,-47.42 187.76,-11.42 265.96,-11.42 265.96,-47.42"/>
<text xml:space="preserve" text-anchor="middle" x="226.86" y="-25.22" font-family="Times,serif" font-size="14.00">manuscript</text>
</g>
<!-- review -->
<g id="node6" class="node">
<title>review</title>
<ellipse fill="none" stroke="black" cx="339.27" cy="-29.42" rx="37.31" ry="18"/>
<text xml:space="preserve" text-anchor="middle" x="339.27" y="-25.22" font-family="Times,serif" font-size="14.00">review</text>
</g>
<!-- manuscript&#45;&gt;review -->
<g id="edge3" class="edge">
<title>manuscript&#45;&gt;review</title>
<path fill="none" stroke="black" d="M266.17,-29.42C273.87,-29.42 282.05,-29.42 290.04,-29.42"/>
<polygon fill="black" stroke="black" points="290.01,-32.92 300.01,-29.42 290.01,-25.92 290.01,-32.92"/>
</g>
<!-- publish -->
<g id="node3" class="node">
<title>publish</title>
<ellipse fill="none" stroke="black" cx="543.05" cy="-29.42" rx="40.47" ry="29.42"/>
<text xml:space="preserve" text-anchor="middle" x="543.05" y="-33.62" font-family="Times,serif" font-size="14.00">publish</text>
<text xml:space="preserve" text-anchor="middle" x="543.05" y="-16.82" font-family="Times,serif" font-size="14.00">公開</text>
</g>
<!-- published_result -->
<g id="node4" class="node">
<title>published_result</title>
<polygon fill="none" stroke="black" stroke-width="2" points="728.06,-47.42 619.52,-47.42 619.52,-11.42 728.06,-11.42 728.06,-47.42"/>
<text xml:space="preserve" text-anchor="middle" x="673.79" y="-25.22" font-family="Times,serif" font-size="14.00">published_result</text>
</g>
<!-- publish&#45;&gt;published_result -->
<g id="edge6" class="edge">
<title>publish&#45;&gt;published_result</title>
<path fill="none" stroke="black" d="M583.73,-29.42C591.26,-29.42 599.32,-29.42 607.41,-29.42"/>
<polygon fill="black" stroke="black" points="607.29,-32.92 617.29,-29.42 607.29,-25.92 607.29,-32.92"/>
</g>
<!-- report -->
<g id="node5" class="node">
<title>report</title>
<polygon fill="none" stroke="black" points="466.58,-47.42 412.58,-47.42 412.58,-11.42 466.58,-11.42 466.58,-47.42"/>
<text xml:space="preserve" text-anchor="middle" x="439.58" y="-25.22" font-family="Times,serif" font-size="14.00">report</text>
</g>
<!-- report&#45;&gt;publish -->
<g id="edge5" class="edge">
<title>report&#45;&gt;publish</title>
<path fill="none" stroke="black" d="M466.98,-29.42C474.41,-29.42 482.75,-29.42 491.09,-29.42"/>
<polygon fill="black" stroke="black" points="490.89,-32.92 500.89,-29.42 490.89,-25.92 490.89,-32.92"/>
</g>
<!-- review&#45;&gt;report -->
<g id="edge4" class="edge">
<title>review&#45;&gt;report</title>
<path fill="none" stroke="black" d="M376.88,-29.42C384.8,-29.42 393.19,-29.42 401.15,-29.42"/>
<polygon fill="black" stroke="black" points="400.87,-32.92 410.87,-29.42 400.87,-25.92 400.87,-32.92"/>
</g>
<!-- write&#45;&gt;manuscript -->
<g id="edge2" class="edge">
<title>write&#45;&gt;manuscript</title>
<path fill="none" stroke="black" d="M152.23,-29.42C159.73,-29.42 167.96,-29.42 176.11,-29.42"/>
<polygon fill="black" stroke="black" points="175.99,-32.92 185.99,-29.42 175.99,-25.92 175.99,-32.92"/>
</g>
</g>
</svg>
