<?xml version="1.0" encoding="UTF-8" standalone="no"?>
<!DOCTYPE svg PUBLIC "-//W3C//DTD SVG 1.1//EN"
 "http://www.w3.org/Graphics/SVG/1.1/DTD/svg11.dtd">
<!-- Generated by graphviz version 14.1.4 (0)
 -->
<!-- Title: PFDSL Pages: 1 -->
<svg width="491pt" height="64pt"
 viewBox="0.00 0.00 491.00 64.00" xmlns="http://www.w3.org/2000/svg" xmlns:xlink="http://www.w3.org/1999/xlink">
<g id="graph0" class="graph" transform="scale(1 1) rotate(0) translate(4 59.85)">
<title>PFDSL</title>
<polygon fill="white" stroke="none" points="-4,4 -4,-59.85 487.4,-59.85 487.4,4 -4,4"/>
<!-- data -->
<g id="node1" class="node">
<title>data</title>
<polygon fill="none" stroke="black" stroke-width="2" points="54,-36 0,-36 0,0 54,0 54,-36"/>
<text xml:space="preserve" text-anchor="middle" x="27" y="-13.8" font-family="Times,serif" font-size="14.00">data</text>
</g>
<!-- train -->
<g id="node5" class="node">
<title>train</title>
<ellipse fill="none" stroke="black" cx="118.73" cy="-18" rx="28.73" ry="18"/>
<text xml:space="preserve" text-anchor="middle" x="118.73" y="-13.8" font-family="Times,serif" font-size="14.00">train</text>
</g>
<!-- data&#45;&gt;train -->
<g id="edge1" class="edge">
<title>data&#45;&gt;train</title>
<path fill="none" stroke="black" d="M54.92,-18C62.28,-18 70.4,-18 78.29,-18"/>
<polygon fill="black" stroke="black" points="78.07,-21.5 88.07,-18 78.07,-14.5 78.07,-21.5"/>
</g>
<!-- eval_metrics -->
<g id="node2" class="node">
<title>eval_metrics</title>
<polygon fill="none" stroke="black" stroke-width="2" points="483.4,-36 395.87,-36 395.87,0 483.4,0 483.4,-36"/>
<text xml:space="preserve" text-anchor="middle" x="439.64" y="-13.8" font-family="Times,serif" font-size="14.00">eval_metrics</text>
</g>
<!-- eval_metrics&#45;&gt;train -->
<g id="edge5" class="edge">
<title>eval_metrics&#45;&gt;train</title>
<path fill="none" stroke="#888888" stroke-dasharray="5,2" d="M395.15,-35.76C383.85,-39.58 371.57,-43.05 359.87,-45 282.54,-57.89 260.3,-60.6 183.47,-45 172.66,-42.8 161.4,-38.71 151.42,-34.37"/>
<polygon fill="#888888" stroke="#888888" points="153.08,-31.28 142.53,-30.26 150.14,-37.63 153.08,-31.28"/>
</g>
<!-- evaluate -->
<g id="node3" class="node">
<title>evaluate</title>
<ellipse fill="none" stroke="black" cx="316.67" cy="-18" rx="43.2" ry="18"/>
<text xml:space="preserve" text-anchor="middle" x="316.67" y="-13.8" font-family="Times,serif" font-size="14.00">evaluate</text>
</g>
<!-- evaluate&#45;&gt;eval_metrics -->
<g id="edge4" class="edge">
<title>evaluate&#45;&gt;eval_metrics</title>
<path fill="none" stroke="black" d="M360.32,-18C367.91,-18 375.9,-18 383.77,-18"/>
<polygon fill="black" stroke="black" points="383.63,-21.5 393.63,-18 383.63,-14.5 383.63,-21.5"/>
</g>
<!-- model -->
<g id="node4" class="node">
<title>model</title>
<polygon fill="none" stroke="black" points="237.47,-36 183.47,-36 183.47,0 237.47,0 237.47,-36"/>
<text xml:space="preserve" text-anchor="middle" x="210.47" y="-13.8" font-family="Times,serif" font-size="14.00">model</text>
</g>
<!-- model&#45;&gt;evaluate -->
<g id="edge3" class="edge">
<title>model&#45;&gt;evaluate</title>
<path fill="none" stroke="black" d="M237.76,-18C245.14,-18 253.44,-18 261.8,-18"/>
<polygon fill="black" stroke="black" points="261.65,-21.5 271.65,-18 261.65,-14.5 261.65,-21.5"/>
</g>
<!-- train&#45;&gt;model -->
<g id="edge2" class="edge">
<title>train&#45;&gt;model</title>
<path fill="none" stroke="black" d="M147.63,-18C155.24,-18 163.61,-18 171.66,-18"/>
<polygon fill="black" stroke="black" points="171.6,-21.5 181.6,-18 171.6,-14.5 171.6,-21.5"/>
</g>
</g>
</svg>
