<?xml version="1.0" encoding="UTF-8" standalone="no"?>
<!DOCTYPE svg PUBLIC "-//W3C//DTD SVG 1.1//EN"
 "http://www.w3.org/Graphics/SVG/1.1/DTD/svg11.dtd">
<!-- Generated by graphviz version 14.1.4 (0)
 -->
<!-- Title: PFDSL Pages: 1 -->
<svg width="272pt" height="44pt"
 viewBox="0.00 0.00 272.00 44.00" xmlns="http://www.w3.org/2000/svg" xmlns:xlink="http://www.w3.org/1999/xlink">
<g id="graph0" class="graph" transform="scale(1 1) rotate(0) translate(4 40)">
<title>PFDSL</title>
<polygon fill="white" stroke="none" points="-4,4 -4,-40 267.94,-40 267.94,4 -4,4"/>
<!-- revise -->
<g id="node1" class="node">
<title>revise</title>
<ellipse fill="none" stroke="black" cx="131.97" cy="-18" rx="34.09" ry="18"/>
<text xml:space="preserve" text-anchor="middle" x="131.97" y="-13.8" font-family="Times,serif" font-size="14.00">revise</text>
</g>
<!-- spec_v2 -->
<g id="node3" class="node">
<title>spec_v2</title>
<polygon fill="none" stroke="black" stroke-width="2" points="263.94,-36 202.06,-36 202.06,0 263.94,0 263.94,-36"/>
<text xml:space="preserve" text-anchor="middle" x="233" y="-13.8" font-family="Times,serif" font-size="14.00">spec_v2</text>
</g>
<!-- revise&#45;&gt;spec_v2 -->
<g id="edge2" class="edge">
<title>revise&#45;&gt;spec_v2</title>
<path fill="none" stroke="black" d="M166.5,-18C173.95,-18 181.94,-18 189.7,-18"/>
<polygon fill="black" stroke="black" points="189.66,-21.5 199.66,-18 189.66,-14.5 189.66,-21.5"/>
</g>
<!-- spec_v1 -->
<g id="node2" class="node">
<title>spec_v1</title>
<polygon fill="none" stroke="black" stroke-width="2" points="61.88,-36 0,-36 0,0 61.88,0 61.88,-36"/>
<text xml:space="preserve" text-anchor="middle" x="30.94" y="-13.8" font-family="Times,serif" font-size="14.00">spec_v1</text>
</g>
<!-- spec_v1&#45;&gt;revise -->
<g id="edge1" class="edge">
<title>spec_v1&#45;&gt;revise</title>
<path fill="none" stroke="black" d="M62.73,-18C70.13,-18 78.19,-18 86.08,-18"/>
<polygon fill="black" stroke="black" points="85.93,-21.5 95.93,-18 85.93,-14.5 85.93,-21.5"/>
</g>
</g>
</svg>
