<?xml version="1.0" encoding="UTF-8" standalone="no"?>
<!DOCTYPE svg PUBLIC "-//W3C//DTD SVG 1.1//EN"
 "http://www.w3.org/Graphics/SVG/1.1/DTD/svg11.dtd">
<!-- Generated by graphviz version 14.1.4 (0)
 -->
<!-- Title: PFDSL Pages: 1 -->
<svg width="489pt" height="65pt"
 viewBox="0.00 0.00 489.00 65.00" xmlns="http://www.w3.org/2000/svg" xmlns:xlink="http://www.w3.org/1999/xlink">
<g id="graph0" class="graph" transform="scale(1 1) rotate(0) translate(4 60.96)">
<title>PFDSL</title>
<polygon fill="white" stroke="none" points="-4,4 -4,-60.96 484.68,-60.96 484.68,4 -4,4"/>
<!-- comment -->
<g id="node1" class="node">
<title>comment</title>
<polygon fill="none" stroke="black" stroke-width="2" points="480.68,-36 412.58,-36 412.58,0 480.68,0 480.68,-36"/>
<text xml:space="preserve" text-anchor="middle" x="446.63" y="-13.8" font-family="Times,serif" font-size="14.00">comment</text>
</g>
<!-- write -->
<g id="node5" class="node">
<title>write</title>
<ellipse fill="none" stroke="black" cx="120.88" cy="-18" rx="30.88" ry="18"/>
<text xml:space="preserve" text-anchor="middle" x="120.88" y="-13.8" font-family="Times,serif" font-size="14.00">write</text>
</g>
<!-- comment&#45;&gt;write -->
<g id="edge5" class="edge">
<title>comment&#45;&gt;write</title>
<path fill="none" stroke="#888888" stroke-dasharray="5,2" d="M411.61,-34.2C400.68,-38.61 388.35,-42.78 376.58,-45 294.11,-60.55 270.1,-61.22 187.76,-45 176.8,-42.84 165.38,-38.85 155.18,-34.58"/>
<polygon fill="#888888" stroke="#888888" points="156.61,-31.38 146.05,-30.53 153.77,-37.78 156.61,-31.38"/>
</g>
<!-- draft -->
<g id="node2" class="node">
<title>draft</title>
<polygon fill="none" stroke="black" stroke-width="2" points="54,-36 0,-36 0,0 54,0 54,-36"/>
<text xml:space="preserve" text-anchor="middle" x="27" y="-13.8" font-family="Times,serif" font-size="14.00">draft</text>
</g>
<!-- draft&#45;&gt;write -->
<g id="edge1" class="edge">
<title>draft&#45;&gt;write</title>
<path fill="none" stroke="black" d="M54.58,-18C62.07,-18 70.4,-18 78.54,-18"/>
<polygon fill="black" stroke="black" points="78.3,-21.5 88.3,-18 78.3,-14.5 78.3,-21.5"/>
</g>
<!-- manuscript -->
<g id="node3" class="node">
<title>manuscript</title>
<polygon fill="none" stroke="black" points="265.96,-36 187.76,-36 187.76,0 265.96,0 265.96,-36"/>
<text xml:space="preserve" text-anchor="middle" x="226.86" y="-13.8" font-family="Times,serif" font-size="14.00">manuscript</text>
</g>
<!-- review -->
<g id="node4" class="node">
<title>review</title>
<ellipse fill="none" stroke="black" cx="339.27" cy="-18" rx="37.31" ry="18"/>
<text xml:space="preserve" text-anchor="middle" x="339.27" y="-13.8" font-family="Times,serif" font-size="14.00">review</text>
</g>
<!-- manuscript&#45;&gt;review -->
<g id="edge3" class="edge">
<title>manuscript&#45;&gt;review</title>
<path fill="none" stroke="black" d="M266.17,-18C273.87,-18 282.05,-18 290.04,-18"/>
<polygon fill="black" stroke="black" points="290.01,-21.5 300.01,-18 290.01,-14.5 290.01,-21.5"/>
</g>
<!-- review&#45;&gt;comment -->
<g id="edge4" class="edge">
<title>review&#45;&gt;comment</title>
<path fill="none" stroke="black" d="M376.83,-18C384.41,-18 392.5,-18 400.35,-18"/>
<polygon fill="black" stroke="black" points="400.11,-21.5 410.11,-18 400.11,-14.5 400.11,-21.5"/>
</g>
<!-- write&#45;&gt;manuscript -->
<g id="edge2" class="edge">
<title>write&#45;&gt;manuscript</title>
<path fill="none" stroke="black" d="M152.23,-18C159.73,-18 167.96,-18 176.11,-18"/>
<polygon fill="black" stroke="black" points="175.99,-21.5 185.99,-18 175.99,-14.5 175.99,-21.5"/>
</g>
</g>
</svg>
