<?xml version="1.0" encoding="UTF-8" standalone="no"?>
<!DOCTYPE svg PUBLIC "-//W3C//DTD SVG 1.1//EN"
 "http://www.w3.org/Graphics/SVG/1.1/DTD/svg11.dtd">
<!-- Generated by graphviz version 14.1.4 (0)
 -->
<!-- Title: PFDSL Pages: 1 -->
<svg width="881pt" height="98pt"
 viewBox="0.00 0.00 881.00 98.00" xmlns="http://www.w3.org/2000/svg" xmlns:xlink="http://www.w3.org/1999/xlink">
<g id="graph0" class="graph" transform="scale(1 1) rotate(0) translate(4 94)">
<title>PFDSL</title>
<polygon fill="white" stroke="none" points="-4,4 -4,-94 877.06,-94 877.06,4 -4,4"/>
<!-- domestic_survey -->
<g id="node1" class="node">
<title>domestic_survey</title>
<polygon fill="none" stroke="black" stroke-width="2" points="110.87,-90 0,-90 0,-54 110.87,-54 110.87,-90"/>
<text xml:space="preserve" text-anchor="middle" x="55.43" y="-67.8" font-family="Times,serif" font-size="14.00">domestic_survey</text>
</g>
<!-- draft_domestic -->
<g id="node2" class="node">
<title>draft_domestic</title>
<ellipse fill="none" stroke="black" cx="215.83" cy="-72" rx="68.96" ry="18"/>
<text xml:space="preserve" text-anchor="middle" x="215.83" y="-67.8" font-family="Times,serif" font-size="14.00">draft_domestic</text>
</g>
<!-- domestic_survey&#45;&gt;draft_domestic -->
<g id="edge1" class="edge">
<title>domestic_survey&#45;&gt;draft_domestic</title>
<path fill="none" stroke="black" d="M111.83,-72C119.39,-72 127.26,-72 135.13,-72"/>
<polygon fill="black" stroke="black" points="135.13,-75.5 145.13,-72 135.13,-68.5 135.13,-75.5"/>
</g>
<!-- requirements_spec_domestic -->
<g id="node7" class="node">
<title>requirements_spec_domestic</title>
<polygon fill="none" stroke="black" points="499.29,-90 320.79,-90 320.79,-54 499.29,-54 499.29,-90"/>
<text xml:space="preserve" text-anchor="middle" x="410.04" y="-67.8" font-family="Times,serif" font-size="14.00">requirements_spec_domestic</text>
</g>
<!-- draft_domestic&#45;&gt;requirements_spec_domestic -->
<g id="edge2" class="edge">
<title>draft_domestic&#45;&gt;requirements_spec_domestic</title>
<path fill="none" stroke="black" d="M285.14,-72C292.91,-72 300.95,-72 309.03,-72"/>
<polygon fill="black" stroke="black" points="308.93,-75.5 318.93,-72 308.93,-68.5 308.93,-75.5"/>
</g>
<!-- draft_overseas -->
<g id="node3" class="node">
<title>draft_overseas</title>
<ellipse fill="none" stroke="black" cx="215.83" cy="-18" rx="67.34" ry="18"/>
<text xml:space="preserve" text-anchor="middle" x="215.83" y="-13.8" font-family="Times,serif" font-size="14.00">draft_overseas</text>
</g>
<!-- requirements_spec_overseas -->
<g id="node8" class="node">
<title>requirements_spec_overseas</title>
<polygon fill="none" stroke="black" points="498.12,-36 321.96,-36 321.96,0 498.12,0 498.12,-36"/>
<text xml:space="preserve" text-anchor="middle" x="410.04" y="-13.8" font-family="Times,serif" font-size="14.00">requirements_spec_overseas</text>
</g>
<!-- draft_overseas&#45;&gt;requirements_spec_overseas -->
<g id="edge4" class="edge">
<title>draft_overseas&#45;&gt;requirements_spec_overseas</title>
<path fill="none" stroke="black" d="M283.52,-18C292.13,-18 301.09,-18 310.09,-18"/>
<polygon fill="black" stroke="black" points="309.97,-21.5 319.97,-18 309.97,-14.5 309.97,-21.5"/>
</g>
<!-- merge_requirements -->
<g id="node4" class="node">
<title>merge_requirements</title>
<ellipse fill="none" stroke="black" cx="625.7" cy="-45" rx="90.4" ry="18"/>
<text xml:space="preserve" text-anchor="middle" x="625.7" y="-40.8" font-family="Times,serif" font-size="14.00">merge_requirements</text>
</g>
<!-- requirements_spec -->
<g id="node6" class="node">
<title>requirements_spec</title>
<polygon fill="none" stroke="black" stroke-width="2" points="873.06,-63 752.1,-63 752.1,-27 873.06,-27 873.06,-63"/>
<text xml:space="preserve" text-anchor="middle" x="812.58" y="-40.8" font-family="Times,serif" font-size="14.00">requirements_spec</text>
</g>
<!-- merge_requirements&#45;&gt;requirements_spec -->
<g id="edge7" class="edge">
<title>merge_requirements&#45;&gt;requirements_spec</title>
<path fill="none" stroke="black" d="M716.43,-45C724.25,-45 732.1,-45 739.74,-45"/>
<polygon fill="black" stroke="black" points="739.66,-48.5 749.66,-45 739.66,-41.5 739.66,-48.5"/>
</g>
<!-- overseas_survey -->
<g id="node5" class="node">
<title>overseas_survey</title>
<polygon fill="none" stroke="black" stroke-width="2" points="109.7,-36 1.17,-36 1.17,0 109.7,0 109.7,-36"/>
<text xml:space="preserve" text-anchor="middle" x="55.43" y="-13.8" font-family="Times,serif" font-size="14.00">overseas_survey</text>
</g>
<!-- overseas_survey&#45;&gt;draft_overseas -->
<g id="edge3" class="edge">
<title>overseas_survey&#45;&gt;draft_overseas</title>
<path fill="none" stroke="black" d="M110.5,-18C119.01,-18 127.95,-18 136.86,-18"/>
<polygon fill="black" stroke="black" points="136.6,-21.5 146.6,-18 136.6,-14.5 136.6,-21.5"/>
</g>
<!-- requirements_spec_domestic&#45;&gt;merge_requirements -->
<g id="edge5" class="edge">
<title>requirements_spec_domestic&#45;&gt;merge_requirements</title>
<path fill="none" stroke="black" d="M499.48,-60.82C511.88,-59.26 524.61,-57.65 536.99,-56.08"/>
<polygon fill="black" stroke="black" points="537.26,-59.58 546.74,-54.85 536.38,-52.63 537.26,-59.58"/>
</g>
<!-- requirements_spec_overseas&#45;&gt;merge_requirements -->
<g id="edge6" class="edge">
<title>requirements_spec_overseas&#45;&gt;merge_requirements</title>
<path fill="none" stroke="black" d="M498.56,-29.06C511.3,-30.67 524.43,-32.33 537.18,-33.94"/>
<polygon fill="black" stroke="black" points="536.4,-37.37 546.76,-35.15 537.28,-30.42 536.4,-37.37"/>
</g>
</g>
</svg>
