<?xml version="1.0" encoding="UTF-8" standalone="no"?>
<!DOCTYPE svg PUBLIC "-//W3C//DTD SVG 1.1//EN"
 "http://www.w3.org/Graphics/SVG/1.1/DTD/svg11.dtd">
<!-- Generated by graphviz version 14.1.4 (0)
 -->
<!-- Title: PFDSL Pages: 1 -->
<svg width="375pt" height="66pt"
 viewBox="0.00 0.00 375.00 66.00" xmlns="http://www.w3.org/2000/svg" xmlns:xlink="http://www.w3.org/1999/xlink">
<g id="graph0" class="graph" transform="scale(1 1) rotate(0) translate(4 62.4)">
<title>PFDSL</title>
<polygon fill="white" stroke="none" points="-4,4 -4,-62.4 371.39,-62.4 371.39,4 -4,4"/>
<!-- design -->
<g id="node1" class="node">
<title>design</title>
<ellipse fill="none" stroke="black" cx="193.22" cy="-37.6" rx="36.25" ry="18"/>
<text xml:space="preserve" text-anchor="middle" x="193.22" y="-33.4" font-family="Times,serif" font-size="14.00">design</text>
</g>
<!-- spec -->
<g id="node3" class="node">
<title>spec</title>
<g id="a_node3"><a xlink:title="Spec document&#10;criteria: All open questions in requirement are resolved and reviewed by two engineers.">
<polygon fill="none" stroke="black" stroke-width="2" points="367.39,-58.4 265.47,-58.4 265.47,-16.8 367.39,-16.8 367.39,-58.4"/>
<text xml:space="preserve" text-anchor="middle" x="316.43" y="-41.8" font-family="Times,serif" font-size="14.00">spec</text>
<text xml:space="preserve" text-anchor="middle" x="316.43" y="-25" font-family="Times,serif" font-size="14.00">Spec document</text>
</a>
</g>
<text xml:space="preserve" text-anchor="middle" x="251.86" y="-4.2" font-family="Times,serif" font-size="14.00">done</text>
</g>
<!-- design&#45;&gt;spec -->
<g id="edge2" class="edge">
<title>design&#45;&gt;spec</title>
<path fill="none" stroke="black" d="M229.93,-37.6C237.34,-37.6 245.34,-37.6 253.38,-37.6"/>
<polygon fill="black" stroke="black" points="253.19,-41.1 263.19,-37.6 253.19,-34.1 253.19,-41.1"/>
</g>
<!-- requirement -->
<g id="node2" class="node">
<title>requirement</title>
<polygon fill="none" stroke="black" stroke-width="2" points="120.97,-58.4 27.21,-58.4 27.21,-16.8 120.97,-16.8 120.97,-58.4"/>
<text xml:space="preserve" text-anchor="middle" x="74.09" y="-41.8" font-family="Times,serif" font-size="14.00">requirement</text>
<text xml:space="preserve" text-anchor="middle" x="74.09" y="-25" font-family="Times,serif" font-size="14.00">Requirements</text>
<text xml:space="preserve" text-anchor="middle" x="13.61" y="-4.2" font-family="Times,serif" font-size="14.00">done</text>
</g>
<!-- requirement&#45;&gt;design -->
<g id="edge1" class="edge">
<title>requirement&#45;&gt;design</title>
<path fill="none" stroke="black" d="M121.72,-37.6C129.43,-37.6 137.43,-37.6 145.15,-37.6"/>
<polygon fill="black" stroke="black" points="145.07,-41.1 155.07,-37.6 145.07,-34.1 145.07,-41.1"/>
</g>
</g>
</svg>
