<?xml version="1.0" encoding="UTF-8" standalone="no"?>
<!DOCTYPE svg PUBLIC "-//W3C//DTD SVG 1.1//EN"
 "http://www.w3.org/Graphics/SVG/1.1/DTD/svg11.dtd">
<!-- Generated by graphviz version 14.1.4 (0)
 -->
<!-- Title: PFDSL Pages: 1 -->
<svg width="345pt" height="66pt"
 viewBox="0.00 0.00 345.00 66.00" xmlns="http://www.w3.org/2000/svg" xmlns:xlink="http://www.w3.org/1999/xlink">
<g id="graph0" class="graph" transform="scale(1 1) rotate(0) translate(4 62.4)">
<title>PFDSL</title>
<polygon fill="white" stroke="none" points="-4,4 -4,-62.4 341.31,-62.4 341.31,4 -4,4"/>
<!-- design -->
<g id="node1" class="node">
<title>design</title>
<ellipse fill="none" stroke="black" cx="200.26" cy="-37.6" rx="36.25" ry="18"/>
<text xml:space="preserve" text-anchor="middle" x="200.26" y="-33.4" font-family="Times,serif" font-size="14.00">design</text>
</g>
<!-- spec -->
<g id="node3" class="node">
<title>spec</title>
<g id="a_node3"><a xlink:title="仕様書&#10;criteria: 要件の未解決事項がすべて解消され、2名のエンジニアがレビュー済みであること。">
<polygon fill="none" stroke="black" stroke-width="2" points="337.31,-58.4 272.51,-58.4 272.51,-16.8 337.31,-16.8 337.31,-58.4"/>
<text xml:space="preserve" text-anchor="middle" x="304.91" y="-41.8" font-family="Times,serif" font-size="14.00">spec</text>
<text xml:space="preserve" text-anchor="middle" x="304.91" y="-25" font-family="Times,serif" font-size="14.00">仕様書</text>
</a>
</g>
<text xml:space="preserve" text-anchor="middle" x="258.91" y="-4.2" font-family="Times,serif" font-size="14.00">done</text>
</g>
<!-- design&#45;&gt;spec -->
<g id="edge2" class="edge">
<title>design&#45;&gt;spec</title>
<path fill="none" stroke="black" d="M236.88,-37.6C244.5,-37.6 252.64,-37.6 260.52,-37.6"/>
<polygon fill="black" stroke="black" points="260.28,-41.1 270.28,-37.6 260.28,-34.1 260.28,-41.1"/>
</g>
<!-- requirement -->
<g id="node2" class="node">
<title>requirement</title>
<polygon fill="none" stroke="black" stroke-width="2" points="128.01,-58.4 27.21,-58.4 27.21,-16.8 128.01,-16.8 128.01,-58.4"/>
<text xml:space="preserve" text-anchor="middle" x="77.61" y="-41.8" font-family="Times,serif" font-size="14.00">requirement</text>
<text xml:space="preserve" text-anchor="middle" x="77.61" y="-25" font-family="Times,serif" font-size="14.00">要件</text>
<text xml:space="preserve" text-anchor="middle" x="13.61" y="-4.2" font-family="Times,serif" font-size="14.00">done</text>
</g>
<!-- requirement&#45;&gt;design -->
<g id="edge1" class="edge">
<title>requirement&#45;&gt;design</title>
<path fill="none" stroke="black" d="M128.73,-37.6C136.56,-37.6 144.62,-37.6 152.37,-37.6"/>
<polygon fill="black" stroke="black" points="152.3,-41.1 162.3,-37.6 152.3,-34.1 152.3,-41.1"/>
</g>
</g>
</svg>
