<?xml version="1.0" encoding="UTF-8" standalone="no"?>
<!DOCTYPE svg PUBLIC "-//W3C//DTD SVG 1.1//EN"
 "http://www.w3.org/Graphics/SVG/1.1/DTD/svg11.dtd">
<!-- Generated by graphviz version 14.1.4 (0)
 -->
<!-- Title: PFDSL Pages: 1 -->
<svg width="596pt" height="123pt"
 viewBox="0.00 0.00 596.00 123.00" xmlns="http://www.w3.org/2000/svg" xmlns:xlink="http://www.w3.org/1999/xlink">
<g id="graph0" class="graph" transform="scale(1 1) rotate(0) translate(4 119)">
<title>PFDSL</title>
<polygon fill="white" stroke="none" points="-4,4 -4,-119 592.02,-119 592.02,4 -4,4"/>
<g id="clust1" class="cluster">
<title>cluster_delivery</title>
<polygon fill="#eafaf1" stroke="#a4afa9" points="355.92,-8 355.92,-107 580.02,-107 580.02,-8 355.92,-8"/>
<text xml:space="preserve" text-anchor="middle" x="467.97" y="-90.4" font-family="Times,serif" font-size="14.00">実装と公開</text>
</g>
<g id="clust2" class="cluster">
<title>cluster_planning</title>
<polygon fill="#e8f4fd" stroke="#a2abb1" points="8,-8 8,-107 335.92,-107 335.92,-8 8,-8"/>
<text xml:space="preserve" text-anchor="middle" x="171.96" y="-90.4" font-family="Times,serif" font-size="14.00">企画</text>
</g>
<!-- code -->
<g id="node1" class="node">
<title>code</title>
<polygon fill="none" stroke="black" stroke-width="2" points="572.02,-65.8 507.22,-65.8 507.22,-24.2 572.02,-24.2 572.02,-65.8"/>
<text xml:space="preserve" text-anchor="middle" x="539.62" y="-49.2" font-family="Times,serif" font-size="14.00">code</text>
<text xml:space="preserve" text-anchor="middle" x="539.62" y="-32.4" font-family="Times,serif" font-size="14.00">コード</text>
</g>
<!-- implement -->
<g id="node2" class="node">
<title>implement</title>
<ellipse fill="none" stroke="black" cx="417.57" cy="-45" rx="53.65" ry="29.42"/>
<text xml:space="preserve" text-anchor="middle" x="417.57" y="-49.2" font-family="Times,serif" font-size="14.00">implement</text>
<text xml:space="preserve" text-anchor="middle" x="417.57" y="-32.4" font-family="Times,serif" font-size="14.00">実装</text>
</g>
<!-- implement&#45;&gt;code -->
<g id="edge4" class="edge">
<title>implement&#45;&gt;code</title>
<path fill="none" stroke="black" d="M471.58,-45C479.33,-45 487.24,-45 494.78,-45"/>
<polygon fill="black" stroke="black" points="494.73,-48.5 504.73,-45 494.73,-41.5 494.73,-48.5"/>
</g>
<!-- design -->
<g id="node3" class="node">
<title>design</title>
<ellipse fill="none" stroke="black" cx="189.96" cy="-45" rx="37.16" ry="29.42"/>
<text xml:space="preserve" text-anchor="middle" x="189.96" y="-49.2" font-family="Times,serif" font-size="14.00">design</text>
<text xml:space="preserve" text-anchor="middle" x="189.96" y="-32.4" font-family="Times,serif" font-size="14.00">設計</text>
</g>
<!-- spec -->
<g id="node5" class="node">
<title>spec</title>
<polygon fill="none" stroke="black" points="327.92,-65.8 263.12,-65.8 263.12,-24.2 327.92,-24.2 327.92,-65.8"/>
<text xml:space="preserve" text-anchor="middle" x="295.52" y="-49.2" font-family="Times,serif" font-size="14.00">spec</text>
<text xml:space="preserve" text-anchor="middle" x="295.52" y="-32.4" font-family="Times,serif" font-size="14.00">仕様書</text>
</g>
<!-- design&#45;&gt;spec -->
<g id="edge2" class="edge">
<title>design&#45;&gt;spec</title>
<path fill="none" stroke="black" d="M227.47,-45C235.22,-45 243.47,-45 251.43,-45"/>
<polygon fill="black" stroke="black" points="251.29,-48.5 261.29,-45 251.29,-41.5 251.29,-48.5"/>
</g>
<!-- requirement -->
<g id="node4" class="node">
<title>requirement</title>
<polygon fill="none" stroke="black" stroke-width="2" points="116.8,-65.8 16,-65.8 16,-24.2 116.8,-24.2 116.8,-65.8"/>
<text xml:space="preserve" text-anchor="middle" x="66.4" y="-49.2" font-family="Times,serif" font-size="14.00">requirement</text>
<text xml:space="preserve" text-anchor="middle" x="66.4" y="-32.4" font-family="Times,serif" font-size="14.00">要件</text>
</g>
<!-- requirement&#45;&gt;design -->
<g id="edge1" class="edge">
<title>requirement&#45;&gt;design</title>
<path fill="none" stroke="black" d="M117.54,-45C125.36,-45 133.42,-45 141.18,-45"/>
<polygon fill="black" stroke="black" points="141.15,-48.5 151.15,-45 141.15,-41.5 141.15,-48.5"/>
</g>
<!-- spec&#45;&gt;implement -->
<g id="edge3" class="edge">
<title>spec&#45;&gt;implement</title>
<path fill="none" stroke="black" d="M328.38,-45C335.83,-45 344.03,-45 352.33,-45"/>
<polygon fill="black" stroke="black" points="352.15,-48.5 362.15,-45 352.15,-41.5 352.15,-48.5"/>
</g>
</g>
</svg>
