<?xml version="1.0" encoding="UTF-8" standalone="no"?>
<!DOCTYPE svg PUBLIC "-//W3C//DTD SVG 1.1//EN"
 "http://www.w3.org/Graphics/SVG/1.1/DTD/svg11.dtd">
<!-- Generated by graphviz version 14.1.4 (0)
 -->
<!-- Title: PFDSL Pages: 1 -->
<svg width="384pt" height="67pt"
 viewBox="0.00 0.00 384.00 67.00" xmlns="http://www.w3.org/2000/svg" xmlns:xlink="http://www.w3.org/1999/xlink">
<g id="graph0" class="graph" transform="scale(1 1) rotate(0) translate(4 62.83)">
<title>PFDSL</title>
<polygon fill="white" stroke="none" points="-4,4 -4,-62.83 379.91,-62.83 379.91,4 -4,4"/>
<!-- code -->
<g id="node1" class="node">
<title>code</title>
<polygon fill="none" stroke="black" stroke-width="2" points="375.91,-47.42 321.91,-47.42 321.91,-11.42 375.91,-11.42 375.91,-47.42"/>
<text xml:space="preserve" text-anchor="middle" x="348.91" y="-25.22" font-family="Times,serif" font-size="14.00">code</text>
</g>
<!-- implement -->
<g id="node2" class="node">
<title>implement</title>
<g id="a_node2"><a xlink:title="Implementation&#10;command: pnpm build">
<ellipse fill="none" stroke="black" cx="211.91" cy="-29.42" rx="73.99" ry="29.42"/>
<text xml:space="preserve" text-anchor="middle" x="211.91" y="-33.62" font-family="Times,serif" font-size="14.00">implement</text>
<text xml:space="preserve" text-anchor="middle" x="211.91" y="-16.82" font-family="Times,serif" font-size="14.00">Implementation</text>
</a>
</g>
</g>
<!-- implement&#45;&gt;code -->
<g id="edge2" class="edge">
<title>implement&#45;&gt;code</title>
<path fill="none" stroke="black" d="M286.34,-29.42C294.36,-29.42 302.26,-29.42 309.6,-29.42"/>
<polygon fill="black" stroke="black" points="309.45,-32.92 319.45,-29.42 309.45,-25.92 309.45,-32.92"/>
</g>
<!-- spec -->
<g id="node3" class="node">
<title>spec</title>
<g id="a_node3"><a xlink:title="Spec document&#10;location: docs/spec/spec.md">
<polygon fill="none" stroke="black" stroke-width="2" points="101.92,-50.22 0,-50.22 0,-8.62 101.92,-8.62 101.92,-50.22"/>
<text xml:space="preserve" text-anchor="middle" x="50.96" y="-33.62" font-family="Times,serif" font-size="14.00">spec</text>
<text xml:space="preserve" text-anchor="middle" x="50.96" y="-16.82" font-family="Times,serif" font-size="14.00">Spec document</text>
</a>
</g>
</g>
<!-- spec&#45;&gt;implement -->
<g id="edge1" class="edge">
<title>spec&#45;&gt;implement</title>
<path fill="none" stroke="black" d="M102.69,-29.42C110.23,-29.42 118.16,-29.42 126.16,-29.42"/>
<polygon fill="black" stroke="black" points="125.98,-32.92 135.98,-29.42 125.98,-25.92 125.98,-32.92"/>
</g>
</g>
</svg>
