<?xml version="1.0" encoding="UTF-8" standalone="no"?>
<!DOCTYPE svg PUBLIC "-//W3C//DTD SVG 1.1//EN"
 "http://www.w3.org/Graphics/SVG/1.1/DTD/svg11.dtd">
<!-- Generated by graphviz version 14.1.4 (0)
 -->
<!-- Title: PFDSL Pages: 1 -->
<svg width="306pt" height="67pt"
 viewBox="0.00 0.00 306.00 67.00" xmlns="http://www.w3.org/2000/svg" xmlns:xlink="http://www.w3.org/1999/xlink">
<g id="graph0" class="graph" transform="scale(1 1) rotate(0) translate(4 62.83)">
<title>PFDSL</title>
<polygon fill="white" stroke="none" points="-4,4 -4,-62.83 302.1,-62.83 302.1,4 -4,4"/>
<!-- code -->
<g id="node1" class="node">
<title>code</title>
<polygon fill="none" stroke="black" stroke-width="2" points="298.1,-47.42 244.1,-47.42 244.1,-11.42 298.1,-11.42 298.1,-47.42"/>
<text xml:space="preserve" text-anchor="middle" x="271.1" y="-25.22" font-family="Times,serif" font-size="14.00">code</text>
</g>
<!-- implement -->
<g id="node2" class="node">
<title>implement</title>
<g id="a_node2"><a xlink:title="実装&#10;command: pnpm build">
<ellipse fill="none" stroke="black" cx="154.45" cy="-29.42" rx="53.65" ry="29.42"/>
<text xml:space="preserve" text-anchor="middle" x="154.45" y="-33.62" font-family="Times,serif" font-size="14.00">implement</text>
<text xml:space="preserve" text-anchor="middle" x="154.45" y="-16.82" font-family="Times,serif" font-size="14.00">実装</text>
</a>
</g>
</g>
<!-- implement&#45;&gt;code -->
<g id="edge2" class="edge">
<title>implement&#45;&gt;code</title>
<path fill="none" stroke="black" d="M208.42,-29.42C216.35,-29.42 224.39,-29.42 231.94,-29.42"/>
<polygon fill="black" stroke="black" points="231.78,-32.92 241.78,-29.42 231.78,-25.92 231.78,-32.92"/>
</g>
<!-- spec -->
<g id="node3" class="node">
<title>spec</title>
<g id="a_node3"><a xlink:title="仕様書&#10;location: docs/spec/spec.md">
<polygon fill="none" stroke="black" stroke-width="2" points="64.8,-50.22 0,-50.22 0,-8.62 64.8,-8.62 64.8,-50.22"/>
<text xml:space="preserve" text-anchor="middle" x="32.4" y="-33.62" font-family="Times,serif" font-size="14.00">spec</text>
<text xml:space="preserve" text-anchor="middle" x="32.4" y="-16.82" font-family="Times,serif" font-size="14.00">仕様書</text>
</a>
</g>
</g>
<!-- spec&#45;&gt;implement -->
<g id="edge1" class="edge">
<title>spec&#45;&gt;implement</title>
<path fill="none" stroke="black" d="M65.57,-29.42C72.84,-29.42 80.81,-29.42 88.89,-29.42"/>
<polygon fill="black" stroke="black" points="88.82,-32.92 98.82,-29.42 88.82,-25.92 88.82,-32.92"/>
</g>
</g>
</svg>
