<?xml version="1.0" encoding="UTF-8" standalone="no"?>
<!DOCTYPE svg PUBLIC "-//W3C//DTD SVG 1.1//EN"
 "http://www.w3.org/Graphics/SVG/1.1/DTD/svg11.dtd">
<!-- Generated by graphviz version 14.1.4 (0)
 -->
<!-- Title: PFDSL Pages: 1 -->
<svg width="820pt" height="116pt"
 viewBox="0.00 0.00 820.00 116.00" xmlns="http://www.w3.org/2000/svg" xmlns:xlink="http://www.w3.org/1999/xlink">
<g id="graph0" class="graph" transform="scale(1 1) rotate(0) translate(4 111.88)">
<title>PFDSL</title>
<polygon fill="white" stroke="none" points="-4,4 -4,-111.88 816.15,-111.88 816.15,4 -4,4"/>
<!-- chosen_task -->
<g id="node1" class="node">
<title>chosen_task</title>
<polygon fill="none" stroke="black" points="346.9,-63 262.47,-63 262.47,-27 346.9,-27 346.9,-63"/>
<text xml:space="preserve" text-anchor="middle" x="304.68" y="-40.8" font-family="Times,serif" font-size="14.00">chosen_task</text>
</g>
<!-- execute -->
<g id="node3" class="node">
<title>execute</title>
<ellipse fill="none" stroke="black" cx="423.42" cy="-45" rx="40.52" ry="18"/>
<text xml:space="preserve" text-anchor="middle" x="423.42" y="-40.8" font-family="Times,serif" font-size="14.00">execute</text>
</g>
<!-- chosen_task&#45;&gt;execute -->
<g id="edge3" class="edge">
<title>chosen_task&#45;&gt;execute</title>
<path fill="none" stroke="black" d="M347.17,-45C355.01,-45 363.29,-45 371.38,-45"/>
<polygon fill="black" stroke="black" points="371.12,-48.5 381.12,-45 371.12,-41.5 371.12,-48.5"/>
</g>
<!-- deliverable -->
<g id="node2" class="node">
<title>deliverable</title>
<polygon fill="none" stroke="black" stroke-width="2" points="578.13,-90 499.94,-90 499.94,-54 578.13,-54 578.13,-90"/>
<text xml:space="preserve" text-anchor="middle" x="539.03" y="-67.8" font-family="Times,serif" font-size="14.00">deliverable</text>
</g>
<!-- execute&#45;&gt;deliverable -->
<g id="edge4" class="edge">
<title>execute&#45;&gt;deliverable</title>
<path fill="none" stroke="black" d="M459.74,-53.39C468.73,-55.53 478.56,-57.87 488.13,-60.14"/>
<polygon fill="black" stroke="black" points="487.16,-63.51 497.7,-62.41 488.78,-56.7 487.16,-63.51"/>
</g>
<!-- learnings -->
<g id="node4" class="node">
<title>learnings</title>
<polygon fill="none" stroke="black" points="572.69,-36 505.37,-36 505.37,0 572.69,0 572.69,-36"/>
<text xml:space="preserve" text-anchor="middle" x="539.03" y="-13.8" font-family="Times,serif" font-size="14.00">learnings</text>
</g>
<!-- execute&#45;&gt;learnings -->
<g id="edge5" class="edge">
<title>execute&#45;&gt;learnings</title>
<path fill="none" stroke="black" d="M459.74,-36.61C470.59,-34.03 482.66,-31.16 494.01,-28.46"/>
<polygon fill="black" stroke="black" points="494.66,-31.9 503.58,-26.19 493.04,-25.09 494.66,-31.9"/>
</g>
<!-- reflect -->
<g id="node6" class="node">
<title>reflect</title>
<ellipse fill="none" stroke="black" cx="649.82" cy="-18" rx="35.69" ry="18"/>
<text xml:space="preserve" text-anchor="middle" x="649.82" y="-13.8" font-family="Times,serif" font-size="14.00">reflect</text>
</g>
<!-- learnings&#45;&gt;reflect -->
<g id="edge6" class="edge">
<title>learnings&#45;&gt;reflect</title>
<path fill="none" stroke="black" d="M572.97,-18C582.23,-18 592.47,-18 602.36,-18"/>
<polygon fill="black" stroke="black" points="602.21,-21.5 612.21,-18 602.21,-14.5 602.21,-21.5"/>
</g>
<!-- open_issues -->
<g id="node5" class="node">
<title>open_issues</title>
<polygon fill="none" stroke="black" stroke-width="2" points="83.66,-63 0,-63 0,-27 83.66,-27 83.66,-63"/>
<text xml:space="preserve" text-anchor="middle" x="41.83" y="-40.8" font-family="Times,serif" font-size="14.00">open_issues</text>
</g>
<!-- select_task -->
<g id="node8" class="node">
<title>select_task</title>
<ellipse fill="none" stroke="black" cx="173.07" cy="-45" rx="53.4" ry="18"/>
<text xml:space="preserve" text-anchor="middle" x="173.07" y="-40.8" font-family="Times,serif" font-size="14.00">select_task</text>
</g>
<!-- open_issues&#45;&gt;select_task -->
<g id="edge1" class="edge">
<title>open_issues&#45;&gt;select_task</title>
<path fill="none" stroke="black" d="M84.43,-45C91.96,-45 99.96,-45 107.95,-45"/>
<polygon fill="black" stroke="black" points="107.68,-48.5 117.68,-45 107.68,-41.5 107.68,-48.5"/>
</g>
<!-- revised_rules -->
<g id="node7" class="node">
<title>revised_rules</title>
<polygon fill="none" stroke="black" stroke-width="2" points="812.15,-36 721.51,-36 721.51,0 812.15,0 812.15,-36"/>
<text xml:space="preserve" text-anchor="middle" x="766.83" y="-13.8" font-family="Times,serif" font-size="14.00">revised_rules</text>
</g>
<!-- reflect&#45;&gt;revised_rules -->
<g id="edge7" class="edge">
<title>reflect&#45;&gt;revised_rules</title>
<path fill="none" stroke="black" d="M685.95,-18C693.41,-18 701.45,-18 709.47,-18"/>
<polygon fill="black" stroke="black" points="709.21,-21.5 719.21,-18 709.21,-14.5 709.21,-21.5"/>
</g>
<!-- revised_rules&#45;&gt;select_task -->
<g id="edge8" class="edge">
<title>revised_rules&#45;&gt;select_task</title>
<path fill="none" stroke="#888888" stroke-dasharray="5,2" d="M733.28,-36.94C696.88,-56.93 635.48,-87.15 578.13,-99 450.46,-125.37 297.33,-85.84 221.47,-61.59"/>
<polygon fill="#888888" stroke="#888888" points="222.88,-58.37 212.29,-58.6 220.72,-65.02 222.88,-58.37"/>
</g>
<!-- select_task&#45;&gt;chosen_task -->
<g id="edge2" class="edge">
<title>select_task&#45;&gt;chosen_task</title>
<path fill="none" stroke="black" d="M226.79,-45C234.7,-45 242.86,-45 250.77,-45"/>
<polygon fill="black" stroke="black" points="250.62,-48.5 260.62,-45 250.62,-41.5 250.62,-48.5"/>
</g>
</g>
</svg>
