<?xml version="1.0" encoding="UTF-8" standalone="no"?>
<!DOCTYPE svg PUBLIC "-//W3C//DTD SVG 1.1//EN"
 "http://www.w3.org/Graphics/SVG/1.1/DTD/svg11.dtd">
<!-- Generated by graphviz version 15.0.0 (0)
 -->
<!-- Title: PFDSL Pages: 1 -->
<svg width="697pt" height="92pt"
 viewBox="0.00 0.00 697.00 92.00" xmlns="http://www.w3.org/2000/svg" xmlns:xlink="http://www.w3.org/1999/xlink">
<g id="graph0" class="graph" transform="scale(1 1) rotate(0) translate(4 87.63)">
<title>PFDSL</title>
<polygon fill="white" stroke="none" points="-4,4 -4,-87.63 693.2,-87.63 693.2,4 -4,4"/>
<text xml:space="preserve" text-anchor="middle" x="344.6" y="-67.03" font-family="Times,serif" font-size="14.00">(プロジェクト名) データパイプライン</text>
<!-- processed_output -->
<g id="node1" class="node">
<title>processed_output</title>
<polygon fill="none" stroke="black" stroke-width="2" points="689.2,-50.22 480.4,-50.22 480.4,-8.62 689.2,-8.62 689.2,-50.22"/>
<text xml:space="preserve" text-anchor="middle" x="584.8" y="-33.62" font-family="Times,serif" font-size="14.00">processed_output</text>
<text xml:space="preserve" text-anchor="middle" x="584.8" y="-16.82" font-family="Times,serif" font-size="14.00">(変換後の出力に置き換える)</text>
</g>
<!-- raw_input -->
<g id="node2" class="node">
<title>raw_input</title>
<polygon fill="none" stroke="black" stroke-width="2" points="194.4,-50.22 0,-50.22 0,-8.62 194.4,-8.62 194.4,-50.22"/>
<text xml:space="preserve" text-anchor="middle" x="97.2" y="-33.62" font-family="Times,serif" font-size="14.00">raw_input</text>
<text xml:space="preserve" text-anchor="middle" x="97.2" y="-16.82" font-family="Times,serif" font-size="14.00">(入力データに置き換える)</text>
</g>
<!-- transform -->
<g id="node3" class="node">
<title>transform</title>
<ellipse fill="none" stroke="black" cx="337.4" cy="-29.42" rx="107" ry="29.42"/>
<text xml:space="preserve" text-anchor="middle" x="337.4" y="-33.62" font-family="Times,serif" font-size="14.00">transform</text>
<text xml:space="preserve" text-anchor="middle" x="337.4" y="-16.82" font-family="Times,serif" font-size="14.00">(変換プロセスに置き換える)</text>
</g>
<!-- raw_input&#45;&gt;transform -->
<g id="edge1" class="edge">
<title>raw_input&#45;&gt;transform</title>
<path fill="none" stroke="black" d="M195.09,-29.42C202.97,-29.42 210.98,-29.42 218.98,-29.42"/>
<polygon fill="black" stroke="black" points="218.76,-32.92 228.76,-29.42 218.76,-25.92 218.76,-32.92"/>
</g>
<!-- transform&#45;&gt;processed_output -->
<g id="edge2" class="edge">
<title>transform&#45;&gt;processed_output</title>
<path fill="none" stroke="black" d="M444.61,-29.42C452.45,-29.42 460.37,-29.42 468.25,-29.42"/>
<polygon fill="black" stroke="black" points="468.25,-32.92 478.25,-29.42 468.25,-25.92 468.25,-32.92"/>
</g>
</g>
</svg>
