<?xml version="1.0" encoding="UTF-8" standalone="no"?>
<!DOCTYPE svg PUBLIC "-//W3C//DTD SVG 1.1//EN"
 "http://www.w3.org/Graphics/SVG/1.1/DTD/svg11.dtd">
<!-- Generated by graphviz version 14.1.4 (0)
 -->
<!-- Title: PFDSL Pages: 1 -->
<svg width="1483pt" height="98pt"
 viewBox="0.00 0.00 1483.00 98.00" xmlns="http://www.w3.org/2000/svg" xmlns:xlink="http://www.w3.org/1999/xlink">
<g id="graph0" class="graph" transform="scale(1 1) rotate(0) translate(4 94)">
<title>PFDSL</title>
<polygon fill="white" stroke="none" points="-4,4 -4,-94 1479.13,-94 1479.13,4 -4,4"/>
<!-- build_landing_page -->
<g id="node1" class="node">
<title>build_landing_page</title>
<ellipse fill="none" stroke="black" cx="570.27" cy="-72" rx="87.74" ry="18"/>
<text xml:space="preserve" text-anchor="middle" x="570.27" y="-67.8" font-family="Times,serif" font-size="14.00">build_landing_page</text>
</g>
<!-- landing_page -->
<g id="node6" class="node">
<title>landing_page</title>
<polygon fill="none" stroke="black" points="907.83,-90 816.41,-90 816.41,-54 907.83,-54 907.83,-90"/>
<text xml:space="preserve" text-anchor="middle" x="862.12" y="-67.8" font-family="Times,serif" font-size="14.00">landing_page</text>
</g>
<!-- build_landing_page&#45;&gt;landing_page -->
<g id="edge11" class="edge">
<title>build_landing_page&#45;&gt;landing_page</title>
<path fill="none" stroke="black" d="M658.24,-72C705.79,-72 763.31,-72 804.95,-72"/>
<polygon fill="black" stroke="black" points="804.73,-75.5 814.73,-72 804.73,-68.5 804.73,-75.5"/>
</g>
<!-- define_requirements -->
<g id="node2" class="node">
<title>define_requirements</title>
<ellipse fill="none" stroke="black" cx="231.05" cy="-45" rx="90.4" ry="18"/>
<text xml:space="preserve" text-anchor="middle" x="231.05" y="-40.8" font-family="Times,serif" font-size="14.00">define_requirements</text>
</g>
<!-- requirements -->
<g id="node9" class="node">
<title>requirements</title>
<polygon fill="none" stroke="black" points="446.53,-63 357.45,-63 357.45,-27 446.53,-27 446.53,-63"/>
<text xml:space="preserve" text-anchor="middle" x="401.99" y="-40.8" font-family="Times,serif" font-size="14.00">requirements</text>
</g>
<!-- define_requirements&#45;&gt;requirements -->
<g id="edge2" class="edge">
<title>define_requirements&#45;&gt;requirements</title>
<path fill="none" stroke="black" d="M321.47,-45C329.67,-45 337.8,-45 345.57,-45"/>
<polygon fill="black" stroke="black" points="345.51,-48.5 355.51,-45 345.51,-41.5 345.51,-48.5"/>
</g>
<!-- design_doc -->
<g id="node3" class="node">
<title>design_doc</title>
<polygon fill="none" stroke="black" points="773.78,-36 694.01,-36 694.01,0 773.78,0 773.78,-36"/>
<text xml:space="preserve" text-anchor="middle" x="733.9" y="-13.8" font-family="Times,serif" font-size="14.00">design_doc</text>
</g>
<!-- implement -->
<g id="node4" class="node">
<title>implement</title>
<ellipse fill="none" stroke="black" cx="862.12" cy="-18" rx="52.34" ry="18"/>
<text xml:space="preserve" text-anchor="middle" x="862.12" y="-13.8" font-family="Times,serif" font-size="14.00">implement</text>
</g>
<!-- design_doc&#45;&gt;implement -->
<g id="edge6" class="edge">
<title>design_doc&#45;&gt;implement</title>
<path fill="none" stroke="black" d="M774.14,-18C781.72,-18 789.83,-18 797.94,-18"/>
<polygon fill="black" stroke="black" points="797.85,-21.5 807.85,-18 797.85,-14.5 797.85,-21.5"/>
</g>
<!-- implementation -->
<g id="node5" class="node">
<title>implementation</title>
<polygon fill="none" stroke="black" points="1054.32,-40 950.46,-40 950.46,-4 1054.32,-4 1054.32,-40"/>
<text xml:space="preserve" text-anchor="middle" x="1002.39" y="-17.8" font-family="Times,serif" font-size="14.00">implementation</text>
</g>
<!-- implement&#45;&gt;implementation -->
<g id="edge7" class="edge">
<title>implement&#45;&gt;implementation</title>
<path fill="none" stroke="black" d="M914.61,-19.49C922.54,-19.72 930.8,-19.96 938.94,-20.19"/>
<polygon fill="black" stroke="black" points="938.71,-23.69 948.81,-20.48 938.91,-16.69 938.71,-23.69"/>
</g>
<!-- run_tests -->
<g id="node10" class="node">
<title>run_tests</title>
<ellipse fill="none" stroke="black" cx="1136.23" cy="-24" rx="45.91" ry="18"/>
<text xml:space="preserve" text-anchor="middle" x="1136.23" y="-19.8" font-family="Times,serif" font-size="14.00">run_tests</text>
</g>
<!-- implementation&#45;&gt;run_tests -->
<g id="edge8" class="edge">
<title>implementation&#45;&gt;run_tests</title>
<path fill="none" stroke="black" d="M1054.74,-22.78C1062.61,-22.9 1070.77,-23.02 1078.75,-23.14"/>
<polygon fill="black" stroke="black" points="1078.67,-26.64 1088.72,-23.29 1078.78,-19.64 1078.67,-26.64"/>
</g>
<!-- ship -->
<g id="node11" class="node">
<title>ship</title>
<ellipse fill="none" stroke="black" cx="1357.14" cy="-48" rx="27.13" ry="18"/>
<text xml:space="preserve" text-anchor="middle" x="1357.14" y="-43.8" font-family="Times,serif" font-size="14.00">ship</text>
</g>
<!-- landing_page&#45;&gt;ship -->
<g id="edge14" class="edge">
<title>landing_page&#45;&gt;ship</title>
<path fill="none" stroke="black" d="M908.11,-70.18C986.5,-66.94 1153.25,-59.8 1294.01,-52 1301.91,-51.56 1310.38,-51.05 1318.44,-50.54"/>
<polygon fill="black" stroke="black" points="1318.58,-54.03 1328.33,-49.9 1318.13,-47.05 1318.58,-54.03"/>
</g>
<!-- product_idea -->
<g id="node7" class="node">
<title>product_idea</title>
<polygon fill="none" stroke="black" stroke-width="2" points="96.86,-90 7.78,-90 7.78,-54 96.86,-54 96.86,-90"/>
<text xml:space="preserve" text-anchor="middle" x="52.32" y="-67.8" font-family="Times,serif" font-size="14.00">product_idea</text>
</g>
<!-- product_idea&#45;&gt;define_requirements -->
<g id="edge1" class="edge">
<title>product_idea&#45;&gt;define_requirements</title>
<path fill="none" stroke="black" d="M97.46,-65.26C112.56,-62.95 129.97,-60.29 147.11,-57.67"/>
<polygon fill="black" stroke="black" points="147.46,-61.16 156.82,-56.19 146.4,-54.24 147.46,-61.16"/>
</g>
<!-- release -->
<g id="node8" class="node">
<title>release</title>
<polygon fill="none" stroke="black" stroke-width="2" points="1475.13,-66 1420.28,-66 1420.28,-30 1475.13,-30 1475.13,-66"/>
<text xml:space="preserve" text-anchor="middle" x="1447.7" y="-43.8" font-family="Times,serif" font-size="14.00">release</text>
</g>
<!-- requirements&#45;&gt;build_landing_page -->
<g id="edge10" class="edge">
<title>requirements&#45;&gt;build_landing_page</title>
<path fill="none" stroke="black" d="M446.68,-52.09C459.72,-54.21 474.44,-56.6 489.04,-58.97"/>
<polygon fill="black" stroke="black" points="488.22,-62.38 498.65,-60.53 489.34,-55.48 488.22,-62.38"/>
</g>
<!-- write_design -->
<g id="node14" class="node">
<title>write_design</title>
<ellipse fill="none" stroke="black" cx="570.27" cy="-18" rx="60.92" ry="18"/>
<text xml:space="preserve" text-anchor="middle" x="570.27" y="-13.8" font-family="Times,serif" font-size="14.00">write_design</text>
</g>
<!-- requirements&#45;&gt;write_design -->
<g id="edge4" class="edge">
<title>requirements&#45;&gt;write_design</title>
<path fill="none" stroke="black" d="M446.68,-37.91C464.46,-35.02 485.37,-31.62 504.83,-28.46"/>
<polygon fill="black" stroke="black" points="505.29,-31.94 514.6,-26.88 504.17,-25.03 505.29,-31.94"/>
</g>
<!-- test_report -->
<g id="node12" class="node">
<title>test_report</title>
<polygon fill="none" stroke="black" points="1294.01,-43 1218.14,-43 1218.14,-7 1294.01,-7 1294.01,-43"/>
<text xml:space="preserve" text-anchor="middle" x="1256.07" y="-20.8" font-family="Times,serif" font-size="14.00">test_report</text>
</g>
<!-- run_tests&#45;&gt;test_report -->
<g id="edge9" class="edge">
<title>run_tests&#45;&gt;test_report</title>
<path fill="none" stroke="black" d="M1182.45,-24.38C1190.3,-24.45 1198.5,-24.52 1206.43,-24.59"/>
<polygon fill="black" stroke="black" points="1206.26,-28.09 1216.29,-24.67 1206.32,-21.09 1206.26,-28.09"/>
</g>
<!-- ship&#45;&gt;release -->
<g id="edge13" class="edge">
<title>ship&#45;&gt;release</title>
<path fill="none" stroke="black" d="M1384.71,-48C1392.11,-48 1400.29,-48 1408.22,-48"/>
<polygon fill="black" stroke="black" points="1408.02,-51.5 1418.02,-48 1408.02,-44.5 1408.02,-51.5"/>
</g>
<!-- test_report&#45;&gt;ship -->
<g id="edge12" class="edge">
<title>test_report&#45;&gt;ship</title>
<path fill="none" stroke="black" d="M1294.24,-33.63C1302.7,-35.59 1311.67,-37.67 1320.08,-39.63"/>
<polygon fill="black" stroke="black" points="1319.09,-42.99 1329.62,-41.84 1320.67,-36.17 1319.09,-42.99"/>
</g>
<!-- user_interviews -->
<g id="node13" class="node">
<title>user_interviews</title>
<polygon fill="none" stroke="black" stroke-width="2" points="104.64,-36 0,-36 0,0 104.64,0 104.64,-36"/>
<text xml:space="preserve" text-anchor="middle" x="52.32" y="-13.8" font-family="Times,serif" font-size="14.00">user_interviews</text>
</g>
<!-- user_interviews&#45;&gt;define_requirements -->
<g id="edge3" class="edge">
<title>user_interviews&#45;&gt;define_requirements</title>
<path fill="none" stroke="black" d="M105.39,-25.95C118.4,-27.94 132.69,-30.13 146.8,-32.28"/>
<polygon fill="black" stroke="black" points="146.14,-35.72 156.56,-33.77 147.2,-28.8 146.14,-35.72"/>
</g>
<!-- write_design&#45;&gt;design_doc -->
<g id="edge5" class="edge">
<title>write_design&#45;&gt;design_doc</title>
<path fill="none" stroke="black" d="M631.46,-18C648.21,-18 666.23,-18 682.37,-18"/>
<polygon fill="black" stroke="black" points="682.23,-21.5 692.23,-18 682.23,-14.5 682.23,-21.5"/>
</g>
</g>
</svg>
