<?xml version="1.0" encoding="UTF-8" standalone="no"?>
<!DOCTYPE svg PUBLIC "-//W3C//DTD SVG 1.1//EN"
 "http://www.w3.org/Graphics/SVG/1.1/DTD/svg11.dtd">
<!-- Generated by graphviz version 14.1.4 (0)
 -->
<!-- Title: PFDSL Pages: 1 -->
<svg width="1510pt" height="115pt"
 viewBox="0.00 0.00 1510.00 115.00" xmlns="http://www.w3.org/2000/svg" xmlns:xlink="http://www.w3.org/1999/xlink">
<g id="graph0" class="graph" transform="scale(1 1) rotate(0) translate(4 110.8)">
<title>PFDSL</title>
<polygon fill="white" stroke="none" points="-4,4 -4,-110.8 1506.34,-110.8 1506.34,4 -4,4"/>
<!-- build_landing_page -->
<g id="node1" class="node">
<title>build_landing_page</title>
<ellipse fill="none" stroke="black" cx="597.49" cy="-88.8" rx="87.74" ry="18"/>
<text xml:space="preserve" text-anchor="middle" x="597.49" y="-84.6" font-family="Times,serif" font-size="14.00">build_landing_page</text>
</g>
<!-- landing_page -->
<g id="node6" class="node">
<title>landing_page</title>
<polygon fill="#f8f9fa" stroke="black" points="935.04,-106.8 843.62,-106.8 843.62,-70.8 935.04,-70.8 935.04,-106.8"/>
<text xml:space="preserve" text-anchor="middle" x="889.33" y="-84.6" font-family="Times,serif" font-size="14.00">landing_page</text>
<text xml:space="preserve" text-anchor="middle" x="831.18" y="-58.2" font-family="Times,serif" font-size="14.00">todo</text>
</g>
<!-- build_landing_page&#45;&gt;landing_page -->
<g id="edge11" class="edge">
<title>build_landing_page&#45;&gt;landing_page</title>
<path fill="none" stroke="black" d="M685.45,-88.8C733.01,-88.8 790.53,-88.8 832.16,-88.8"/>
<polygon fill="black" stroke="black" points="831.95,-92.3 841.95,-88.8 831.95,-85.3 831.95,-92.3"/>
</g>
<!-- define_requirements -->
<g id="node2" class="node">
<title>define_requirements</title>
<ellipse fill="none" stroke="black" cx="258.26" cy="-61.8" rx="90.4" ry="18"/>
<text xml:space="preserve" text-anchor="middle" x="258.26" y="-57.6" font-family="Times,serif" font-size="14.00">define_requirements</text>
</g>
<!-- requirements -->
<g id="node9" class="node">
<title>requirements</title>
<polygon fill="#d4edda" stroke="black" points="473.75,-79.8 384.66,-79.8 384.66,-43.8 473.75,-43.8 473.75,-79.8"/>
<text xml:space="preserve" text-anchor="middle" x="429.21" y="-57.6" font-family="Times,serif" font-size="14.00">requirements</text>
<text xml:space="preserve" text-anchor="middle" x="371.06" y="-31.2" font-family="Times,serif" font-size="14.00">done</text>
</g>
<!-- define_requirements&#45;&gt;requirements -->
<g id="edge2" class="edge">
<title>define_requirements&#45;&gt;requirements</title>
<path fill="none" stroke="black" d="M348.68,-61.8C356.88,-61.8 365.02,-61.8 372.78,-61.8"/>
<polygon fill="black" stroke="black" points="372.72,-65.3 382.72,-61.8 372.72,-58.3 372.72,-65.3"/>
</g>
<!-- design_doc -->
<g id="node3" class="node">
<title>design_doc</title>
<polygon fill="#fff3cd" stroke="black" points="800.99,-52.8 721.23,-52.8 721.23,-16.8 800.99,-16.8 800.99,-52.8"/>
<text xml:space="preserve" text-anchor="middle" x="761.11" y="-30.6" font-family="Times,serif" font-size="14.00">design_doc</text>
<text xml:space="preserve" text-anchor="middle" x="710.73" y="-4.2" font-family="Times,serif" font-size="14.00">wip</text>
</g>
<!-- implement -->
<g id="node4" class="node">
<title>implement</title>
<ellipse fill="none" stroke="black" cx="889.33" cy="-34.8" rx="52.34" ry="18"/>
<text xml:space="preserve" text-anchor="middle" x="889.33" y="-30.6" font-family="Times,serif" font-size="14.00">implement</text>
</g>
<!-- design_doc&#45;&gt;implement -->
<g id="edge6" class="edge">
<title>design_doc&#45;&gt;implement</title>
<path fill="none" stroke="black" d="M801.36,-34.8C808.93,-34.8 817.04,-34.8 825.16,-34.8"/>
<polygon fill="black" stroke="black" points="825.06,-38.3 835.06,-34.8 825.06,-31.3 825.06,-38.3"/>
</g>
<!-- implementation -->
<g id="node5" class="node">
<title>implementation</title>
<polygon fill="#f8f9fa" stroke="black" points="1081.54,-56.8 977.67,-56.8 977.67,-20.8 1081.54,-20.8 1081.54,-56.8"/>
<text xml:space="preserve" text-anchor="middle" x="1029.6" y="-34.6" font-family="Times,serif" font-size="14.00">implementation</text>
<text xml:space="preserve" text-anchor="middle" x="965.22" y="-8.2" font-family="Times,serif" font-size="14.00">todo</text>
</g>
<!-- implement&#45;&gt;implementation -->
<g id="edge7" class="edge">
<title>implement&#45;&gt;implementation</title>
<path fill="none" stroke="black" d="M941.82,-36.29C949.75,-36.52 958.02,-36.76 966.16,-36.99"/>
<polygon fill="black" stroke="black" points="965.92,-40.49 976.02,-37.28 966.13,-33.49 965.92,-40.49"/>
</g>
<!-- run_tests -->
<g id="node10" class="node">
<title>run_tests</title>
<ellipse fill="none" stroke="black" cx="1163.44" cy="-40.8" rx="45.91" ry="18"/>
<text xml:space="preserve" text-anchor="middle" x="1163.44" y="-36.6" font-family="Times,serif" font-size="14.00">run_tests</text>
</g>
<!-- implementation&#45;&gt;run_tests -->
<g id="edge8" class="edge">
<title>implementation&#45;&gt;run_tests</title>
<path fill="none" stroke="black" d="M1081.95,-39.58C1089.82,-39.7 1097.99,-39.82 1105.96,-39.94"/>
<polygon fill="black" stroke="black" points="1105.88,-43.44 1115.94,-40.09 1105.99,-36.44 1105.88,-43.44"/>
</g>
<!-- ship -->
<g id="node11" class="node">
<title>ship</title>
<ellipse fill="none" stroke="black" cx="1384.35" cy="-64.8" rx="27.13" ry="18"/>
<text xml:space="preserve" text-anchor="middle" x="1384.35" y="-60.6" font-family="Times,serif" font-size="14.00">ship</text>
</g>
<!-- landing_page&#45;&gt;ship -->
<g id="edge14" class="edge">
<title>landing_page&#45;&gt;ship</title>
<path fill="none" stroke="black" d="M935.32,-86.98C1013.72,-83.74 1180.46,-76.6 1321.22,-68.8 1329.12,-68.36 1337.59,-67.85 1345.65,-67.34"/>
<polygon fill="black" stroke="black" points="1345.79,-70.83 1355.55,-66.7 1345.34,-63.85 1345.79,-70.83"/>
</g>
<!-- product_idea -->
<g id="node7" class="node">
<title>product_idea</title>
<polygon fill="#d4edda" stroke="black" stroke-width="2" points="124.08,-106.8 34.99,-106.8 34.99,-70.8 124.08,-70.8 124.08,-106.8"/>
<text xml:space="preserve" text-anchor="middle" x="79.53" y="-84.6" font-family="Times,serif" font-size="14.00">product_idea</text>
<text xml:space="preserve" text-anchor="middle" x="21.39" y="-58.2" font-family="Times,serif" font-size="14.00">done</text>
</g>
<!-- product_idea&#45;&gt;define_requirements -->
<g id="edge1" class="edge">
<title>product_idea&#45;&gt;define_requirements</title>
<path fill="none" stroke="black" d="M124.67,-82.06C139.77,-79.75 157.19,-77.09 174.33,-74.47"/>
<polygon fill="black" stroke="black" points="174.67,-77.96 184.03,-72.99 173.62,-71.04 174.67,-77.96"/>
</g>
<!-- release -->
<g id="node8" class="node">
<title>release</title>
<polygon fill="#f8f9fa" stroke="black" stroke-width="2" points="1502.34,-82.8 1447.49,-82.8 1447.49,-46.8 1502.34,-46.8 1502.34,-82.8"/>
<text xml:space="preserve" text-anchor="middle" x="1474.92" y="-60.6" font-family="Times,serif" font-size="14.00">release</text>
<text xml:space="preserve" text-anchor="middle" x="1435.04" y="-34.2" font-family="Times,serif" font-size="14.00">todo</text>
</g>
<!-- requirements&#45;&gt;build_landing_page -->
<g id="edge10" class="edge">
<title>requirements&#45;&gt;build_landing_page</title>
<path fill="none" stroke="black" d="M473.89,-68.89C486.93,-71.01 501.65,-73.4 516.25,-75.77"/>
<polygon fill="black" stroke="black" points="515.44,-79.18 525.87,-77.33 516.56,-72.28 515.44,-79.18"/>
</g>
<!-- write_design -->
<g id="node14" class="node">
<title>write_design</title>
<ellipse fill="none" stroke="black" cx="597.49" cy="-34.8" rx="60.92" ry="18"/>
<text xml:space="preserve" text-anchor="middle" x="597.49" y="-30.6" font-family="Times,serif" font-size="14.00">write_design</text>
</g>
<!-- requirements&#45;&gt;write_design -->
<g id="edge4" class="edge">
<title>requirements&#45;&gt;write_design</title>
<path fill="none" stroke="black" d="M473.89,-54.71C491.67,-51.82 512.58,-48.42 532.05,-45.26"/>
<polygon fill="black" stroke="black" points="532.5,-48.74 541.81,-43.68 531.38,-41.83 532.5,-48.74"/>
</g>
<!-- test_report -->
<g id="node12" class="node">
<title>test_report</title>
<polygon fill="#f8f9fa" stroke="black" points="1321.22,-59.8 1245.35,-59.8 1245.35,-23.8 1321.22,-23.8 1321.22,-59.8"/>
<text xml:space="preserve" text-anchor="middle" x="1283.29" y="-37.6" font-family="Times,serif" font-size="14.00">test_report</text>
<text xml:space="preserve" text-anchor="middle" x="1232.91" y="-11.2" font-family="Times,serif" font-size="14.00">todo</text>
</g>
<!-- run_tests&#45;&gt;test_report -->
<g id="edge9" class="edge">
<title>run_tests&#45;&gt;test_report</title>
<path fill="none" stroke="black" d="M1209.67,-41.18C1217.52,-41.25 1225.71,-41.32 1233.65,-41.39"/>
<polygon fill="black" stroke="black" points="1233.48,-44.89 1243.51,-41.47 1233.54,-37.89 1233.48,-44.89"/>
</g>
<!-- ship&#45;&gt;release -->
<g id="edge13" class="edge">
<title>ship&#45;&gt;release</title>
<path fill="none" stroke="black" d="M1411.93,-64.8C1419.32,-64.8 1427.5,-64.8 1435.43,-64.8"/>
<polygon fill="black" stroke="black" points="1435.24,-68.3 1445.24,-64.8 1435.24,-61.3 1435.24,-68.3"/>
</g>
<!-- test_report&#45;&gt;ship -->
<g id="edge12" class="edge">
<title>test_report&#45;&gt;ship</title>
<path fill="none" stroke="black" d="M1321.46,-50.43C1329.91,-52.39 1338.88,-54.47 1347.29,-56.43"/>
<polygon fill="black" stroke="black" points="1346.3,-59.79 1356.83,-58.64 1347.88,-52.97 1346.3,-59.79"/>
</g>
<!-- user_interviews -->
<g id="node13" class="node">
<title>user_interviews</title>
<polygon fill="#d4edda" stroke="black" stroke-width="2" points="131.86,-52.8 27.21,-52.8 27.21,-16.8 131.86,-16.8 131.86,-52.8"/>
<text xml:space="preserve" text-anchor="middle" x="79.53" y="-30.6" font-family="Times,serif" font-size="14.00">user_interviews</text>
<text xml:space="preserve" text-anchor="middle" x="13.61" y="-4.2" font-family="Times,serif" font-size="14.00">done</text>
</g>
<!-- user_interviews&#45;&gt;define_requirements -->
<g id="edge3" class="edge">
<title>user_interviews&#45;&gt;define_requirements</title>
<path fill="none" stroke="black" d="M132.6,-42.75C145.62,-44.74 159.9,-46.93 174.02,-49.08"/>
<polygon fill="black" stroke="black" points="173.36,-52.52 183.77,-50.57 174.41,-45.6 173.36,-52.52"/>
</g>
<!-- write_design&#45;&gt;design_doc -->
<g id="edge5" class="edge">
<title>write_design&#45;&gt;design_doc</title>
<path fill="none" stroke="black" d="M658.67,-34.8C675.43,-34.8 693.45,-34.8 709.59,-34.8"/>
<polygon fill="black" stroke="black" points="709.45,-38.3 719.45,-34.8 709.45,-31.3 709.45,-38.3"/>
</g>
</g>
</svg>
