<?xml version="1.0" encoding="UTF-8" standalone="no"?>
<!DOCTYPE svg PUBLIC "-//W3C//DTD SVG 1.1//EN"
 "http://www.w3.org/Graphics/SVG/1.1/DTD/svg11.dtd">
<!-- Generated by graphviz version 15.0.0 (0)
 -->
<!-- Title: PFDSL Pages: 1 -->
<svg width="635pt" height="50pt"
 viewBox="0.00 0.00 635.00 50.00" xmlns="http://www.w3.org/2000/svg" xmlns:xlink="http://www.w3.org/1999/xlink">
<g id="graph0" class="graph" transform="scale(1 1) rotate(0) translate(4 45.6)">
<title>PFDSL</title>
<polygon fill="white" stroke="none" points="-4,4 -4,-45.6 631.05,-45.6 631.05,4 -4,4"/>
<!-- analyze -->
<g id="node1" class="node">
<title>analyze</title>
<ellipse fill="none" stroke="black" cx="155.72" cy="-20.8" rx="40.52" ry="18"/>
<text xml:space="preserve" text-anchor="middle" x="155.72" y="-16.6" font-family="Times,serif" font-size="14.00">analyze</text>
</g>
<!-- report -->
<g id="node3" class="node">
<title>report</title>
<polygon fill="none" stroke="black" points="340.24,-41.6 232.24,-41.6 232.24,0 340.24,0 340.24,-41.6"/>
<text xml:space="preserve" text-anchor="middle" x="286.24" y="-25" font-family="Times,serif" font-size="14.00">report</text>
<text xml:space="preserve" text-anchor="middle" x="286.24" y="-8.2" font-family="Times,serif" font-size="14.00">月次レポート</text>
</g>
<!-- analyze&#45;&gt;report -->
<g id="edge2" class="edge">
<title>analyze&#45;&gt;report</title>
<path fill="none" stroke="black" d="M196.68,-20.8C204.29,-20.8 212.44,-20.8 220.6,-20.8"/>
<polygon fill="black" stroke="black" points="220.56,-24.3 230.56,-20.8 220.56,-17.3 220.56,-24.3"/>
</g>
<!-- raw_data -->
<g id="node2" class="node">
<title>raw_data</title>
<polygon fill="none" stroke="black" stroke-width="2" points="79.2,-41.6 0,-41.6 0,0 79.2,0 79.2,-41.6"/>
<text xml:space="preserve" text-anchor="middle" x="39.6" y="-25" font-family="Times,serif" font-size="14.00">raw_data</text>
<text xml:space="preserve" text-anchor="middle" x="39.6" y="-8.2" font-family="Times,serif" font-size="14.00">生データ</text>
</g>
<!-- raw_data&#45;&gt;analyze -->
<g id="edge1" class="edge">
<title>raw_data&#45;&gt;analyze</title>
<path fill="none" stroke="black" d="M80.19,-20.8C87.72,-20.8 95.69,-20.8 103.52,-20.8"/>
<polygon fill="black" stroke="black" points="103.3,-24.3 113.3,-20.8 103.3,-17.3 103.3,-24.3"/>
</g>
<!-- summarize -->
<g id="node4" class="node">
<title>summarize</title>
<ellipse fill="none" stroke="black" cx="429.65" cy="-20.8" rx="53.4" ry="18"/>
<text xml:space="preserve" text-anchor="middle" x="429.65" y="-16.6" font-family="Times,serif" font-size="14.00">summarize</text>
</g>
<!-- report&#45;&gt;summarize -->
<g id="edge3" class="edge">
<title>report&#45;&gt;summarize</title>
<path fill="none" stroke="black" d="M340.7,-20.8C348.57,-20.8 356.74,-20.8 364.79,-20.8"/>
<polygon fill="black" stroke="black" points="364.54,-24.3 374.54,-20.8 364.54,-17.3 364.54,-24.3"/>
</g>
<!-- summary -->
<g id="node5" class="node">
<title>summary</title>
<polygon fill="none" stroke="black" stroke-width="2" points="627.05,-41.6 519.05,-41.6 519.05,0 627.05,0 627.05,-41.6"/>
<text xml:space="preserve" text-anchor="middle" x="573.05" y="-25" font-family="Times,serif" font-size="14.00">summary</text>
<text xml:space="preserve" text-anchor="middle" x="573.05" y="-8.2" font-family="Times,serif" font-size="14.00">経営サマリー</text>
</g>
<!-- summarize&#45;&gt;summary -->
<g id="edge4" class="edge">
<title>summarize&#45;&gt;summary</title>
<path fill="none" stroke="black" d="M483.3,-20.8C491,-20.8 499.01,-20.8 506.93,-20.8"/>
<polygon fill="black" stroke="black" points="506.89,-24.3 516.89,-20.8 506.89,-17.3 506.89,-24.3"/>
</g>
</g>
</svg>
