<?xml version="1.0" encoding="UTF-8" standalone="no"?>
<!DOCTYPE svg PUBLIC "-//W3C//DTD SVG 1.1//EN"
 "http://www.w3.org/Graphics/SVG/1.1/DTD/svg11.dtd">
<!-- Generated by graphviz version 14.1.5 (20260411.2331)
 -->
<!-- Title: PFDSL Pages: 1 -->
<svg width="291pt" height="69pt"
 viewBox="0.00 0.00 291.00 69.00" xmlns="http://www.w3.org/2000/svg" xmlns:xlink="http://www.w3.org/1999/xlink">
<g id="graph0" class="graph" transform="scale(1 1) rotate(0) translate(4 64.5)">
<title>PFDSL</title>
<polygon fill="white" stroke="none" points="-4,4 -4,-64.5 287.2,-64.5 287.2,4 -4,4"/>
<text xml:space="preserve" text-anchor="middle" x="141.6" y="-43.2" font-family="Times,serif" font-size="14.00">Simple chain</text>
<!-- design -->
<g id="node1" class="node">
<title>design</title>
<ellipse fill="none" stroke="black" cx="158.22" cy="-18" rx="34.97" ry="18"/>
<text xml:space="preserve" text-anchor="middle" x="158.22" y="-12.95" font-family="Times,serif" font-size="14.00">design</text>
</g>
<!-- spec -->
<g id="node3" class="node">
<title>spec</title>
<polygon fill="none" stroke="black" stroke-width="2" points="283.2,-36 229.2,-36 229.2,0 283.2,0 283.2,-36"/>
<text xml:space="preserve" text-anchor="middle" x="256.2" y="-12.95" font-family="Times,serif" font-size="14.00">spec</text>
</g>
<!-- design&#45;&gt;spec -->
<g id="edge2" class="edge">
<title>design&#45;&gt;spec</title>
<path fill="none" stroke="black" d="M193.6,-18C201.17,-18 209.24,-18 216.95,-18"/>
<polygon fill="black" stroke="black" points="216.77,-21.5 226.77,-18 216.77,-14.5 216.77,-21.5"/>
</g>
<!-- requirements -->
<g id="node2" class="node">
<title>requirements</title>
<polygon fill="none" stroke="black" stroke-width="2" points="87.25,-36 0,-36 0,0 87.25,0 87.25,-36"/>
<text xml:space="preserve" text-anchor="middle" x="43.62" y="-12.95" font-family="Times,serif" font-size="14.00">requirements</text>
</g>
<!-- requirements&#45;&gt;design -->
<g id="edge1" class="edge">
<title>requirements&#45;&gt;design</title>
<path fill="none" stroke="black" d="M88.16,-18C95.8,-18 103.78,-18 111.48,-18"/>
<polygon fill="black" stroke="black" points="111.37,-21.5 121.37,-18 111.37,-14.5 111.37,-21.5"/>
</g>
</g>
</svg>
