<?xml version="1.0" encoding="UTF-8" standalone="no"?>
<!DOCTYPE svg PUBLIC "-//W3C//DTD SVG 1.1//EN"
 "http://www.w3.org/Graphics/SVG/1.1/DTD/svg11.dtd">
<!-- Generated by graphviz version 14.1.5 (20260411.2331)
 -->
<!-- Title: PFDSL Pages: 1 -->
<svg width="504pt" height="62pt"
 viewBox="0.00 0.00 504.00 62.00" xmlns="http://www.w3.org/2000/svg" xmlns:xlink="http://www.w3.org/1999/xlink">
<g id="graph0" class="graph" transform="scale(1 1) rotate(0) translate(4 57.63)">
<title>PFDSL</title>
<polygon fill="white" stroke="none" points="-4,4 -4,-57.63 499.81,-57.63 499.81,4 -4,4"/>
<!-- bug_report -->
<g id="node1" class="node">
<title>bug_report</title>
<polygon fill="none" stroke="black" points="495.81,-36 420.56,-36 420.56,0 495.81,0 495.81,-36"/>
<text xml:space="preserve" text-anchor="middle" x="458.18" y="-12.95" font-family="Times,serif" font-size="14.00">bug_report</text>
</g>
<!-- implement -->
<g id="node3" class="node">
<title>implement</title>
<ellipse fill="none" stroke="black" cx="141.35" cy="-18" rx="51.35" ry="18"/>
<text xml:space="preserve" text-anchor="middle" x="141.35" y="-12.95" font-family="Times,serif" font-size="14.00">implement</text>
</g>
<!-- bug_report&#45;&gt;implement -->
<g id="edge5" class="edge">
<title>bug_report&#45;&gt;implement</title>
<path fill="none" stroke="#888888" stroke-dasharray="5,2" d="M420.2,-34.63C408.98,-38.88 396.47,-42.86 384.56,-45 316.38,-57.26 297.18,-55.46 228.7,-45 215,-42.91 200.47,-39.05 187.33,-34.89"/>
<polygon fill="#888888" stroke="#888888" points="188.69,-31.65 178.09,-31.83 186.49,-38.3 188.69,-31.65"/>
</g>
<!-- code -->
<g id="node2" class="node">
<title>code</title>
<polygon fill="none" stroke="black" points="282.7,-36 228.7,-36 228.7,0 282.7,0 282.7,-36"/>
<text xml:space="preserve" text-anchor="middle" x="255.7" y="-12.95" font-family="Times,serif" font-size="14.00">code</text>
</g>
<!-- verify -->
<g id="node5" class="node">
<title>verify</title>
<ellipse fill="none" stroke="black" cx="351.63" cy="-18" rx="32.93" ry="18"/>
<text xml:space="preserve" text-anchor="middle" x="351.63" y="-12.95" font-family="Times,serif" font-size="14.00">verify</text>
</g>
<!-- code&#45;&gt;verify -->
<g id="edge3" class="edge">
<title>code&#45;&gt;verify</title>
<path fill="none" stroke="black" d="M283.12,-18C290.57,-18 298.88,-18 307.05,-18"/>
<polygon fill="black" stroke="black" points="306.89,-21.5 316.89,-18 306.89,-14.5 306.89,-21.5"/>
</g>
<!-- implement&#45;&gt;code -->
<g id="edge2" class="edge">
<title>implement&#45;&gt;code</title>
<path fill="none" stroke="black" d="M192.94,-18C201.06,-18 209.34,-18 217.09,-18"/>
<polygon fill="black" stroke="black" points="216.84,-21.5 226.84,-18 216.84,-14.5 216.84,-21.5"/>
</g>
<!-- spec -->
<g id="node4" class="node">
<title>spec</title>
<polygon fill="none" stroke="black" points="54,-36 0,-36 0,0 54,0 54,-36"/>
<text xml:space="preserve" text-anchor="middle" x="27" y="-12.95" font-family="Times,serif" font-size="14.00">spec</text>
</g>
<!-- spec&#45;&gt;implement -->
<g id="edge1" class="edge">
<title>spec&#45;&gt;implement</title>
<path fill="none" stroke="black" d="M54.34,-18C61.74,-18 70.11,-18 78.65,-18"/>
<polygon fill="black" stroke="black" points="78.39,-21.5 88.39,-18 78.39,-14.5 78.39,-21.5"/>
</g>
<!-- verify&#45;&gt;bug_report -->
<g id="edge4" class="edge">
<title>verify&#45;&gt;bug_report</title>
<path fill="none" stroke="black" d="M384.85,-18C392.44,-18 400.69,-18 408.81,-18"/>
<polygon fill="black" stroke="black" points="408.61,-21.5 418.61,-18 408.61,-14.5 408.61,-21.5"/>
</g>
</g>
</svg>
