<?xml version="1.0" encoding="UTF-8" standalone="no"?>
<!DOCTYPE svg PUBLIC "-//W3C//DTD SVG 1.1//EN"
 "http://www.w3.org/Graphics/SVG/1.1/DTD/svg11.dtd">
<!-- Generated by graphviz version 14.1.4 (0)
 -->
<!-- Title: PFDSL Pages: 1 -->
<svg width="510pt" height="62pt"
 viewBox="0.00 0.00 510.00 62.00" xmlns="http://www.w3.org/2000/svg" xmlns:xlink="http://www.w3.org/1999/xlink">
<g id="graph0" class="graph" transform="scale(1 1) rotate(0) translate(4 57.65)">
<title>PFDSL</title>
<polygon fill="white" stroke="none" points="-4,4 -4,-57.65 506.29,-57.65 506.29,4 -4,4"/>
<!-- bug_report -->
<g id="node1" class="node">
<title>bug_report</title>
<polygon fill="none" stroke="black" stroke-width="2" points="502.29,-36 424.86,-36 424.86,0 502.29,0 502.29,-36"/>
<text xml:space="preserve" text-anchor="middle" x="463.58" y="-13.8" font-family="Times,serif" font-size="14.00">bug_report</text>
</g>
<!-- implement -->
<g id="node3" class="node">
<title>implement</title>
<ellipse fill="none" stroke="black" cx="142.34" cy="-18" rx="52.34" ry="18"/>
<text xml:space="preserve" text-anchor="middle" x="142.34" y="-13.8" font-family="Times,serif" font-size="14.00">implement</text>
</g>
<!-- bug_report&#45;&gt;implement -->
<g id="edge5" class="edge">
<title>bug_report&#45;&gt;implement</title>
<path fill="none" stroke="#888888" stroke-dasharray="5,2" d="M423.88,-35.06C412.79,-39.15 400.54,-42.93 388.86,-45 319.64,-57.28 300.19,-55.5 230.68,-45 216.94,-42.93 202.4,-39.12 189.19,-35"/>
<polygon fill="#888888" stroke="#888888" points="190.5,-31.74 179.91,-31.97 188.33,-38.4 190.5,-31.74"/>
</g>
<!-- code -->
<g id="node2" class="node">
<title>code</title>
<polygon fill="none" stroke="black" points="284.68,-36 230.68,-36 230.68,0 284.68,0 284.68,-36"/>
<text xml:space="preserve" text-anchor="middle" x="257.68" y="-13.8" font-family="Times,serif" font-size="14.00">code</text>
</g>
<!-- verify -->
<g id="node5" class="node">
<title>verify</title>
<ellipse fill="none" stroke="black" cx="354.77" cy="-18" rx="34.09" ry="18"/>
<text xml:space="preserve" text-anchor="middle" x="354.77" y="-13.8" font-family="Times,serif" font-size="14.00">verify</text>
</g>
<!-- code&#45;&gt;verify -->
<g id="edge3" class="edge">
<title>code&#45;&gt;verify</title>
<path fill="none" stroke="black" d="M285.16,-18C292.56,-18 300.81,-18 308.95,-18"/>
<polygon fill="black" stroke="black" points="308.77,-21.5 318.77,-18 308.77,-14.5 308.77,-21.5"/>
</g>
<!-- implement&#45;&gt;code -->
<g id="edge2" class="edge">
<title>implement&#45;&gt;code</title>
<path fill="none" stroke="black" d="M195.03,-18C203.17,-18 211.45,-18 219.19,-18"/>
<polygon fill="black" stroke="black" points="218.92,-21.5 228.92,-18 218.92,-14.5 218.92,-21.5"/>
</g>
<!-- spec -->
<g id="node4" class="node">
<title>spec</title>
<polygon fill="none" stroke="black" stroke-width="2" points="54,-36 0,-36 0,0 54,0 54,-36"/>
<text xml:space="preserve" text-anchor="middle" x="27" y="-13.8" font-family="Times,serif" font-size="14.00">spec</text>
</g>
<!-- spec&#45;&gt;implement -->
<g id="edge1" class="edge">
<title>spec&#45;&gt;implement</title>
<path fill="none" stroke="black" d="M54.86,-18C62.06,-18 70.16,-18 78.44,-18"/>
<polygon fill="black" stroke="black" points="78.25,-21.5 88.25,-18 78.25,-14.5 78.25,-21.5"/>
</g>
<!-- verify&#45;&gt;bug_report -->
<g id="edge4" class="edge">
<title>verify&#45;&gt;bug_report</title>
<path fill="none" stroke="black" d="M389.27,-18C396.67,-18 404.66,-18 412.56,-18"/>
<polygon fill="black" stroke="black" points="412.46,-21.5 422.46,-18 412.46,-14.5 412.46,-21.5"/>
</g>
</g>
</svg>
