<?xml version="1.0" encoding="UTF-8" standalone="no"?>
<!DOCTYPE svg PUBLIC "-//W3C//DTD SVG 1.1//EN"
 "http://www.w3.org/Graphics/SVG/1.1/DTD/svg11.dtd">
<!-- Generated by graphviz version 14.0.1 (20251006.0113)
 -->
<!-- Title: PFDSL Pages: 1 -->
<svg width="291pt" height="98pt"
 viewBox="0.00 0.00 291.00 98.00" xmlns="http://www.w3.org/2000/svg" xmlns:xlink="http://www.w3.org/1999/xlink">
<g id="graph0" class="graph" transform="scale(1 1) rotate(0) translate(4 94)">
<title>PFDSL</title>
<polygon fill="white" stroke="none" points="-4,4 -4,-94 286.91,-94 286.91,4 -4,4"/>
<!-- database -->
<g id="node1" class="node">
<title>database</title>
<polygon fill="none" stroke="black" stroke-width="2" points="282.91,-63 220.41,-63 220.41,-27 282.91,-27 282.91,-63"/>
<text xml:space="preserve" text-anchor="middle" x="251.66" y="-39.95" font-family="Times,serif" font-size="14.00">database</text>
</g>
<!-- migrate -->
<g id="node2" class="node">
<title>migrate</title>
<ellipse fill="none" stroke="black" cx="144.83" cy="-45" rx="39.58" ry="18"/>
<text xml:space="preserve" text-anchor="middle" x="144.83" y="-39.95" font-family="Times,serif" font-size="14.00">migrate</text>
</g>
<!-- migrate&#45;&gt;database -->
<g id="edge3" class="edge">
<title>migrate&#45;&gt;database</title>
<path fill="none" stroke="black" d="M184.86,-45C192.44,-45 200.42,-45 208.1,-45"/>
<polygon fill="black" stroke="black" points="207.93,-48.5 217.93,-45 207.93,-41.5 207.93,-48.5"/>
</g>
<!-- schema -->
<g id="node3" class="node">
<title>schema</title>
<polygon fill="none" stroke="black" stroke-width="2" points="63.25,-90 6,-90 6,-54 63.25,-54 63.25,-90"/>
<text xml:space="preserve" text-anchor="middle" x="34.62" y="-66.95" font-family="Times,serif" font-size="14.00">schema</text>
</g>
<!-- schema&#45;&gt;migrate -->
<g id="edge1" class="edge">
<title>schema&#45;&gt;migrate</title>
<path fill="none" stroke="black" d="M64.05,-64.91C74.59,-62.28 86.81,-59.23 98.48,-56.32"/>
<polygon fill="black" stroke="black" points="99.1,-59.77 107.95,-53.95 97.4,-52.98 99.1,-59.77"/>
</g>
<!-- seed_data -->
<g id="node4" class="node">
<title>seed_data</title>
<polygon fill="none" stroke="black" stroke-width="2" points="69.25,-36 0,-36 0,0 69.25,0 69.25,-36"/>
<text xml:space="preserve" text-anchor="middle" x="34.62" y="-12.95" font-family="Times,serif" font-size="14.00">seed_data</text>
</g>
<!-- seed_data&#45;&gt;migrate -->
<g id="edge2" class="edge">
<title>seed_data&#45;&gt;migrate</title>
<path fill="none" stroke="black" d="M70.16,-26.62C79.23,-28.88 89.14,-31.35 98.68,-33.73"/>
<polygon fill="black" stroke="black" points="97.6,-37.07 108.15,-36.1 99.3,-30.28 97.6,-37.07"/>
</g>
</g>
</svg>
