<?xml version="1.0" encoding="UTF-8" standalone="no"?>
<!DOCTYPE svg PUBLIC "-//W3C//DTD SVG 1.1//EN"
 "http://www.w3.org/Graphics/SVG/1.1/DTD/svg11.dtd">
<!-- Generated by graphviz version 14.1.5 (20260411.2331)
 -->
<!-- Title: PFDSL Pages: 1 -->
<svg width="291pt" height="98pt"
 viewBox="0.00 0.00 291.00 98.00" xmlns="http://www.w3.org/2000/svg" xmlns:xlink="http://www.w3.org/1999/xlink">
<g id="graph0" class="graph" transform="scale(1 1) rotate(0) translate(4 94)">
<title>PFDSL</title>
<polygon fill="white" stroke="none" points="-4,4 -4,-94 286.91,-94 286.91,4 -4,4"/>
<!-- database -->
<g id="node1" class="node">
<title>database</title>
<polygon fill="none" stroke="black" points="282.91,-63 220.41,-63 220.41,-27 282.91,-27 282.91,-63"/>
<text xml:space="preserve" text-anchor="middle" x="251.66" y="-39.95" font-family="Times,serif" font-size="14.00">database</text>
</g>
<!-- migrate -->
<g id="node2" class="node">
<title>migrate</title>
<ellipse fill="none" stroke="black" cx="144.83" cy="-45" rx="39.58" ry="18"/>
<text xml:space="preserve" text-anchor="middle" x="144.83" y="-39.95" font-family="Times,serif" font-size="14.00">migrate</text>
</g>
<!-- migrate&#45;&gt;database -->
<g id="edge3" class="edge">
<title>migrate&#45;&gt;database</title>
<path fill="none" stroke="black" d="M184.86,-45C192.69,-45 200.94,-45 208.85,-45"/>
<polygon fill="black" stroke="black" points="208.6,-48.5 218.6,-45 208.6,-41.5 208.6,-48.5"/>
</g>
<!-- schema -->
<g id="node3" class="node">
<title>schema</title>
<polygon fill="none" stroke="black" points="63.25,-90 6,-90 6,-54 63.25,-54 63.25,-90"/>
<text xml:space="preserve" text-anchor="middle" x="34.62" y="-66.95" font-family="Times,serif" font-size="14.00">schema</text>
</g>
<!-- schema&#45;&gt;migrate -->
<g id="edge1" class="edge">
<title>schema&#45;&gt;migrate</title>
<path fill="none" stroke="black" d="M63.49,-65.05C74.12,-62.39 86.53,-59.3 98.38,-56.34"/>
<polygon fill="black" stroke="black" points="99.16,-59.75 108.01,-53.94 97.46,-52.96 99.16,-59.75"/>
</g>
<!-- seed_data -->
<g id="node4" class="node">
<title>seed_data</title>
<polygon fill="none" stroke="black" points="69.25,-36 0,-36 0,0 69.25,0 69.25,-36"/>
<text xml:space="preserve" text-anchor="middle" x="34.62" y="-12.95" font-family="Times,serif" font-size="14.00">seed_data</text>
</g>
<!-- seed_data&#45;&gt;migrate -->
<g id="edge2" class="edge">
<title>seed_data&#45;&gt;migrate</title>
<path fill="none" stroke="black" d="M69.56,-26.47C78.74,-28.76 88.82,-31.27 98.51,-33.69"/>
<polygon fill="black" stroke="black" points="97.62,-37.08 108.17,-36.1 99.31,-30.28 97.62,-37.08"/>
</g>
</g>
</svg>
