<?xml version="1.0" encoding="UTF-8" standalone="no"?>
<!DOCTYPE svg PUBLIC "-//W3C//DTD SVG 1.1//EN"
 "http://www.w3.org/Graphics/SVG/1.1/DTD/svg11.dtd">
<!-- Generated by graphviz version 14.1.5 (20260411.2331)
 -->
<!-- Title: PFDSL Pages: 1 -->
<svg width="248pt" height="98pt"
 viewBox="0.00 0.00 248.00 98.00" xmlns="http://www.w3.org/2000/svg" xmlns:xlink="http://www.w3.org/1999/xlink">
<g id="graph0" class="graph" transform="scale(1 1) rotate(0) translate(4 94)">
<title>PFDSL</title>
<polygon fill="white" stroke="none" points="-4,4 -4,-94 243.71,-94 243.71,4 -4,4"/>
<!-- binary -->
<g id="node1" class="node">
<title>binary</title>
<polygon fill="none" stroke="black" points="239.71,-90 185.71,-90 185.71,-54 239.71,-54 239.71,-90"/>
<text xml:space="preserve" text-anchor="middle" x="212.71" y="-66.95" font-family="Times,serif" font-size="14.00">binary</text>
</g>
<!-- build -->
<g id="node2" class="node">
<title>build</title>
<ellipse fill="none" stroke="black" cx="119.86" cy="-45" rx="29.86" ry="18"/>
<text xml:space="preserve" text-anchor="middle" x="119.86" y="-39.95" font-family="Times,serif" font-size="14.00">build</text>
</g>
<!-- build&#45;&gt;binary -->
<g id="edge2" class="edge">
<title>build&#45;&gt;binary</title>
<path fill="none" stroke="black" d="M147.13,-52.81C155.7,-55.36 165.39,-58.23 174.6,-60.97"/>
<polygon fill="black" stroke="black" points="173.46,-64.28 184.04,-63.78 175.45,-57.57 173.46,-64.28"/>
</g>
<!-- docs -->
<g id="node3" class="node">
<title>docs</title>
<polygon fill="none" stroke="black" points="239.71,-36 185.71,-36 185.71,0 239.71,0 239.71,-36"/>
<text xml:space="preserve" text-anchor="middle" x="212.71" y="-12.95" font-family="Times,serif" font-size="14.00">docs</text>
</g>
<!-- build&#45;&gt;docs -->
<g id="edge3" class="edge">
<title>build&#45;&gt;docs</title>
<path fill="none" stroke="black" d="M147.13,-37.19C155.7,-34.64 165.39,-31.77 174.6,-29.03"/>
<polygon fill="black" stroke="black" points="175.45,-32.43 184.04,-26.22 173.46,-25.72 175.45,-32.43"/>
</g>
<!-- source -->
<g id="node4" class="node">
<title>source</title>
<polygon fill="none" stroke="black" points="54,-63 0,-63 0,-27 54,-27 54,-63"/>
<text xml:space="preserve" text-anchor="middle" x="27" y="-39.95" font-family="Times,serif" font-size="14.00">source</text>
</g>
<!-- source&#45;&gt;build -->
<g id="edge1" class="edge">
<title>source&#45;&gt;build</title>
<path fill="none" stroke="black" d="M54.28,-45C61.83,-45 70.25,-45 78.44,-45"/>
<polygon fill="black" stroke="black" points="78.26,-48.5 88.25,-45 78.25,-41.5 78.26,-48.5"/>
</g>
</g>
</svg>
