<?xml version="1.0" encoding="UTF-8" standalone="no"?>
<!DOCTYPE svg PUBLIC "-//W3C//DTD SVG 1.1//EN"
 "http://www.w3.org/Graphics/SVG/1.1/DTD/svg11.dtd">
<!-- Generated by graphviz version 14.1.5 (20260411.2331)
 -->
<!-- Title: PFDSL Pages: 1 -->
<svg width="456pt" height="64pt"
 viewBox="0.00 0.00 456.00 64.00" xmlns="http://www.w3.org/2000/svg" xmlns:xlink="http://www.w3.org/1999/xlink">
<g id="graph0" class="graph" transform="scale(1 1) rotate(0) translate(4 59.86)">
<title>PFDSL</title>
<polygon fill="white" stroke="none" points="-4,4 -4,-59.86 451.78,-59.86 451.78,4 -4,4"/>
<!-- D1 -->
<g id="node1" class="node">
<title>D1</title>
<polygon fill="none" stroke="black" points="122.4,-47.68 0,-47.68 0,-8.18 122.4,-8.18 122.4,-47.68"/>
<text xml:space="preserve" text-anchor="middle" x="61.2" y="-30.38" font-family="Times,serif" font-size="14.00">D1</text>
<text xml:space="preserve" text-anchor="middle" x="61.2" y="-13.88" font-family="Times,serif" font-size="14.00">紙のアンケート</text>
</g>
<!-- P1 -->
<g id="node3" class="node">
<title>P1</title>
<ellipse fill="none" stroke="black" cx="209.49" cy="-27.93" rx="51.09" ry="27.93"/>
<text xml:space="preserve" text-anchor="middle" x="209.49" y="-30.38" font-family="Times,serif" font-size="14.00">P1</text>
<text xml:space="preserve" text-anchor="middle" x="209.49" y="-13.88" font-family="Times,serif" font-size="14.00">スキャン</text>
</g>
<!-- D1&#45;&gt;P1 -->
<g id="edge1" class="edge">
<title>D1&#45;&gt;P1</title>
<path fill="none" stroke="black" d="M122.55,-27.93C130.48,-27.93 138.62,-27.93 146.57,-27.93"/>
<polygon fill="black" stroke="black" points="146.54,-31.43 156.54,-27.93 146.54,-24.43 146.54,-31.43"/>
</g>
<!-- D2 -->
<g id="node2" class="node">
<title>D2</title>
<polygon fill="none" stroke="black" points="447.78,-47.68 296.58,-47.68 296.58,-8.18 447.78,-8.18 447.78,-47.68"/>
<text xml:space="preserve" text-anchor="middle" x="372.18" y="-30.38" font-family="Times,serif" font-size="14.00">D2</text>
<text xml:space="preserve" text-anchor="middle" x="372.18" y="-13.88" font-family="Times,serif" font-size="14.00">デジタルアンケート</text>
</g>
<!-- P1&#45;&gt;D2 -->
<g id="edge2" class="edge">
<title>P1&#45;&gt;D2</title>
<path fill="none" stroke="black" d="M260.89,-27.93C268.61,-27.93 276.76,-27.93 284.99,-27.93"/>
<polygon fill="black" stroke="black" points="284.72,-31.43 294.72,-27.93 284.72,-24.43 284.72,-31.43"/>
</g>
</g>
</svg>
