<?xml version="1.0" encoding="UTF-8" standalone="no"?>
<!DOCTYPE svg PUBLIC "-//W3C//DTD SVG 1.1//EN"
 "http://www.w3.org/Graphics/SVG/1.1/DTD/svg11.dtd">
<!-- Generated by graphviz version 14.1.5 (20260411.2331)
 -->
<!-- Title: PFDSL Pages: 1 -->
<svg width="583pt" height="115pt"
 viewBox="0.00 0.00 583.00 115.00" xmlns="http://www.w3.org/2000/svg" xmlns:xlink="http://www.w3.org/1999/xlink">
<g id="graph0" class="graph" transform="scale(1 1) rotate(0) translate(4 110.5)">
<title>PFDSL</title>
<polygon fill="white" stroke="none" points="-4,4 -4,-110.5 578.99,-110.5 578.99,4 -4,4"/>
<!-- analyze -->
<g id="node1" class="node">
<title>analyze</title>
<ellipse fill="none" stroke="black" cx="445.92" cy="-61.5" rx="39.07" ry="18"/>
<text xml:space="preserve" text-anchor="middle" x="445.92" y="-56.45" font-family="Times,serif" font-size="14.00">analyze</text>
</g>
<!-- report -->
<g id="node5" class="node">
<title>report</title>
<polygon fill="#f8f9fa" stroke="#0066cc" stroke-width="2" points="574.99,-79.5 520.99,-79.5 520.99,-43.5 574.99,-43.5 574.99,-79.5"/>
<text xml:space="preserve" text-anchor="middle" x="547.99" y="-56.45" font-family="Times,serif" font-size="14.00">report</text>
<text xml:space="preserve" text-anchor="middle" x="483.49" y="-30.2" font-family="Times,serif" font-size="14.00">todo, external</text>
</g>
<!-- analyze&#45;&gt;report -->
<g id="edge4" class="edge">
<title>analyze&#45;&gt;report</title>
<path fill="none" stroke="black" d="M485.32,-61.5C493.01,-61.5 501.08,-61.5 508.76,-61.5"/>
<polygon fill="black" stroke="black" points="508.5,-65 518.5,-61.5 508.5,-58 508.5,-65"/>
</g>
<!-- ingest -->
<g id="node2" class="node">
<title>ingest</title>
<ellipse fill="none" stroke="black" cx="232.68" cy="-88.5" rx="32.93" ry="18"/>
<text xml:space="preserve" text-anchor="middle" x="232.68" y="-83.45" font-family="Times,serif" font-size="14.00">ingest</text>
</g>
<!-- processed -->
<g id="node3" class="node">
<title>processed</title>
<polygon fill="#d4edda" stroke="#0066cc" stroke-width="2" points="370.85,-106.5 301.6,-106.5 301.6,-70.5 370.85,-70.5 370.85,-106.5"/>
<text xml:space="preserve" text-anchor="middle" x="336.23" y="-83.45" font-family="Times,serif" font-size="14.00">processed</text>
<text xml:space="preserve" text-anchor="middle" x="262.98" y="-57.2" font-family="Times,serif" font-size="14.00">done, external</text>
</g>
<!-- ingest&#45;&gt;processed -->
<g id="edge2" class="edge">
<title>ingest&#45;&gt;processed</title>
<path fill="none" stroke="black" d="M266.09,-88.5C273.5,-88.5 281.51,-88.5 289.36,-88.5"/>
<polygon fill="black" stroke="black" points="289.16,-92 299.16,-88.5 289.16,-85 289.16,-92"/>
</g>
<!-- processed&#45;&gt;analyze -->
<g id="edge5" class="edge">
<title>processed&#45;&gt;analyze</title>
<path fill="none" stroke="black" d="M371.6,-79.88C380.62,-77.62 390.49,-75.15 399.98,-72.77"/>
<polygon fill="black" stroke="black" points="400.56,-76.23 409.41,-70.4 398.86,-69.44 400.56,-76.23"/>
</g>
<!-- raw_data -->
<g id="node4" class="node">
<title>raw_data</title>
<polygon fill="none" stroke="#0066cc" stroke-width="2" stroke-dasharray="5,2" points="163.75,-106.5 98.25,-106.5 98.25,-70.5 163.75,-70.5 163.75,-106.5"/>
<text xml:space="preserve" text-anchor="middle" x="131" y="-83.45" font-family="Times,serif" font-size="14.00">raw_data</text>
<text xml:space="preserve" text-anchor="middle" x="49.12" y="-57.2" font-family="Times,serif" font-size="14.00">external, sensitive</text>
</g>
<!-- raw_data&#45;&gt;ingest -->
<g id="edge1" class="edge">
<title>raw_data&#45;&gt;ingest</title>
<path fill="none" stroke="black" d="M164.64,-88.5C172.11,-88.5 180.18,-88.5 188.04,-88.5"/>
<polygon fill="black" stroke="black" points="187.79,-92 197.79,-88.5 187.79,-85 187.79,-92"/>
</g>
<!-- spec -->
<g id="node6" class="node">
<title>spec</title>
<polygon fill="#fff3cd" stroke="black" points="363.23,-52.5 309.23,-52.5 309.23,-16.5 363.23,-16.5 363.23,-52.5"/>
<text xml:space="preserve" text-anchor="middle" x="336.23" y="-29.45" font-family="Times,serif" font-size="14.00">spec</text>
<text xml:space="preserve" text-anchor="middle" x="299.1" y="-3.2" font-family="Times,serif" font-size="14.00">wip</text>
</g>
<!-- spec&#45;&gt;analyze -->
<g id="edge3" class="edge">
<title>spec&#45;&gt;analyze</title>
<path fill="none" stroke="black" d="M363.57,-41.1C374.54,-43.85 387.58,-47.12 399.98,-50.23"/>
<polygon fill="black" stroke="black" points="399.09,-53.62 409.64,-52.65 400.79,-46.83 399.09,-53.62"/>
</g>
</g>
</svg>
