<?xml version="1.0" encoding="UTF-8" standalone="no"?>
<!DOCTYPE svg PUBLIC "-//W3C//DTD SVG 1.1//EN"
 "http://www.w3.org/Graphics/SVG/1.1/DTD/svg11.dtd">
<!-- Generated by graphviz version 14.1.5 (20260411.2331)
 -->
<!-- Title: PFDSL Pages: 1 -->
<svg width="520pt" height="44pt"
 viewBox="0.00 0.00 520.00 44.00" xmlns="http://www.w3.org/2000/svg" xmlns:xlink="http://www.w3.org/1999/xlink">
<g id="graph0" class="graph" transform="scale(1 1) rotate(0) translate(4 40)">
<title>PFDSL</title>
<polygon fill="white" stroke="none" points="-4,4 -4,-40 515.9,-40 515.9,4 -4,4"/>
<!-- code -->
<g id="node1" class="node">
<title>code</title>
<polygon fill="#f8f9fa" stroke="black" points="511.9,-36 457.9,-36 457.9,0 511.9,0 511.9,-36"/>
<text xml:space="preserve" text-anchor="middle" x="484.9" y="-12.95" font-family="Times,serif" font-size="14.00">code</text>
</g>
<!-- design -->
<g id="node2" class="node">
<title>design</title>
<ellipse fill="none" stroke="black" cx="158.22" cy="-18" rx="34.97" ry="18"/>
<text xml:space="preserve" text-anchor="middle" x="158.22" y="-12.95" font-family="Times,serif" font-size="14.00">design</text>
</g>
<!-- spec -->
<g id="node5" class="node">
<title>spec</title>
<polygon fill="#fff3cd" stroke="black" points="283.2,-36 229.2,-36 229.2,0 283.2,0 283.2,-36"/>
<text xml:space="preserve" text-anchor="middle" x="256.2" y="-12.95" font-family="Times,serif" font-size="14.00">spec</text>
</g>
<!-- design&#45;&gt;spec -->
<g id="edge2" class="edge">
<title>design&#45;&gt;spec</title>
<path fill="none" stroke="black" d="M193.6,-18C201.32,-18 209.54,-18 217.39,-18"/>
<polygon fill="black" stroke="black" points="217.38,-21.5 227.38,-18 217.38,-14.5 217.38,-21.5"/>
</g>
<!-- implement -->
<g id="node3" class="node">
<title>implement</title>
<ellipse fill="none" stroke="black" cx="370.55" cy="-18" rx="51.35" ry="18"/>
<text xml:space="preserve" text-anchor="middle" x="370.55" y="-12.95" font-family="Times,serif" font-size="14.00">implement</text>
</g>
<!-- implement&#45;&gt;code -->
<g id="edge4" class="edge">
<title>implement&#45;&gt;code</title>
<path fill="none" stroke="black" d="M422.14,-18C430.26,-18 438.54,-18 446.29,-18"/>
<polygon fill="black" stroke="black" points="446.04,-21.5 456.04,-18 446.04,-14.5 446.04,-21.5"/>
</g>
<!-- requirements -->
<g id="node4" class="node">
<title>requirements</title>
<polygon fill="#d4edda" stroke="black" points="87.25,-36 0,-36 0,0 87.25,0 87.25,-36"/>
<text xml:space="preserve" text-anchor="middle" x="43.62" y="-12.95" font-family="Times,serif" font-size="14.00">requirements</text>
</g>
<!-- requirements&#45;&gt;design -->
<g id="edge1" class="edge">
<title>requirements&#45;&gt;design</title>
<path fill="none" stroke="black" d="M87.51,-18C95.37,-18 103.58,-18 111.51,-18"/>
<polygon fill="black" stroke="black" points="111.33,-21.5 121.33,-18 111.33,-14.5 111.33,-21.5"/>
</g>
<!-- spec&#45;&gt;implement -->
<g id="edge3" class="edge">
<title>spec&#45;&gt;implement</title>
<path fill="none" stroke="black" d="M283.54,-18C290.93,-18 299.3,-18 307.84,-18"/>
<polygon fill="black" stroke="black" points="307.59,-21.5 317.59,-18 307.59,-14.5 307.59,-21.5"/>
</g>
</g>
</svg>
