<?xml version="1.0" encoding="UTF-8" standalone="no"?>
<!DOCTYPE svg PUBLIC "-//W3C//DTD SVG 1.1//EN"
 "http://www.w3.org/Graphics/SVG/1.1/DTD/svg11.dtd">
<!-- Generated by graphviz version 2.43.0 (0)
 -->
<!-- Title: PFDSL Pages: 1 -->
<svg width="690pt" height="113pt"
 viewBox="0.00 0.00 689.58 113.00" xmlns="http://www.w3.org/2000/svg" xmlns:xlink="http://www.w3.org/1999/xlink">
<g id="graph0" class="graph" transform="scale(1 1) rotate(0) translate(4 109)">
<title>PFDSL</title>
<polygon fill="white" stroke="transparent" points="-4,4 -4,-109 685.58,-109 685.58,4 -4,4"/>
<!-- analyze -->
<g id="node1" class="node">
<title>analyze</title>
<ellipse fill="none" stroke="black" cx="537.44" cy="-60" rx="46.29" ry="18"/>
<text text-anchor="middle" x="537.44" y="-56.3" font-family="Times,serif" font-size="14.00">analyze</text>
</g>
<!-- report -->
<g id="node5" class="node">
<title>report</title>
<polygon fill="#f8f9fa" stroke="#0066cc" stroke-width="2" points="681.58,-78 619.58,-78 619.58,-42 681.58,-42 681.58,-78"/>
<text text-anchor="middle" x="650.58" y="-56.3" font-family="Times,serif" font-size="14.00">report</text>
<text text-anchor="middle" x="569.58" y="-30.8" font-family="Times,serif" font-size="14.00">todo, external</text>
</g>
<!-- analyze&#45;&gt;report -->
<g id="edge4" class="edge">
<title>analyze&#45;&gt;report</title>
<path fill="none" stroke="black" d="M583.65,-60C592.1,-60 600.88,-60 609.18,-60"/>
<polygon fill="black" stroke="black" points="609.36,-63.5 619.36,-60 609.36,-56.5 609.36,-63.5"/>
</g>
<!-- ingest -->
<g id="node2" class="node">
<title>ingest</title>
<ellipse fill="none" stroke="black" cx="290.65" cy="-87" rx="39.79" ry="18"/>
<text text-anchor="middle" x="290.65" y="-83.3" font-family="Times,serif" font-size="14.00">ingest</text>
</g>
<!-- processed -->
<g id="node3" class="node">
<title>processed</title>
<polygon fill="#d4edda" stroke="#0066cc" stroke-width="2" points="455.29,-105 366.29,-105 366.29,-69 455.29,-69 455.29,-105"/>
<text text-anchor="middle" x="410.79" y="-83.3" font-family="Times,serif" font-size="14.00">processed</text>
<text text-anchor="middle" x="314.79" y="-57.8" font-family="Times,serif" font-size="14.00">done, external</text>
</g>
<!-- ingest&#45;&gt;processed -->
<g id="edge2" class="edge">
<title>ingest&#45;&gt;processed</title>
<path fill="none" stroke="black" d="M330.33,-87C338.56,-87 347.38,-87 356.05,-87"/>
<polygon fill="black" stroke="black" points="356.11,-90.5 366.11,-87 356.11,-83.5 356.11,-90.5"/>
</g>
<!-- processed&#45;&gt;analyze -->
<g id="edge5" class="edge">
<title>processed&#45;&gt;analyze</title>
<path fill="none" stroke="black" d="M455.39,-77.56C465.6,-75.34 476.56,-72.97 487.01,-70.71"/>
<polygon fill="black" stroke="black" points="487.8,-74.12 496.83,-68.58 486.31,-67.28 487.8,-74.12"/>
</g>
<!-- raw_data -->
<g id="node4" class="node">
<title>raw_data</title>
<polygon fill="none" stroke="#0066cc" stroke-width="2" stroke-dasharray="5,2" points="215,-105 133,-105 133,-69 215,-69 215,-105"/>
<text text-anchor="middle" x="174" y="-83.3" font-family="Times,serif" font-size="14.00">raw_data</text>
<text text-anchor="middle" x="66.5" y="-57.8" font-family="Times,serif" font-size="14.00">external, sensitive</text>
</g>
<!-- raw_data&#45;&gt;ingest -->
<g id="edge1" class="edge">
<title>raw_data&#45;&gt;ingest</title>
<path fill="none" stroke="black" d="M215.1,-87C223.36,-87 232.15,-87 240.69,-87"/>
<polygon fill="black" stroke="black" points="240.92,-90.5 250.92,-87 240.92,-83.5 240.92,-90.5"/>
</g>
<!-- spec -->
<g id="node6" class="node">
<title>spec</title>
<polygon fill="#fff3cd" stroke="black" stroke-width="2" points="437.79,-51 383.79,-51 383.79,-15 437.79,-15 437.79,-51"/>
<text text-anchor="middle" x="410.79" y="-29.3" font-family="Times,serif" font-size="14.00">spec</text>
<text text-anchor="middle" x="370.79" y="-3.8" font-family="Times,serif" font-size="14.00">wip</text>
</g>
<!-- spec&#45;&gt;analyze -->
<g id="edge3" class="edge">
<title>spec&#45;&gt;analyze</title>
<path fill="none" stroke="black" d="M437.92,-38.66C451.99,-41.71 469.83,-45.57 486.45,-49.17"/>
<polygon fill="black" stroke="black" points="486.08,-52.67 496.59,-51.37 487.56,-45.83 486.08,-52.67"/>
</g>
</g>
</svg>
