<?xml version="1.0" encoding="UTF-8" standalone="no"?>
<!DOCTYPE svg PUBLIC "-//W3C//DTD SVG 1.1//EN"
 "http://www.w3.org/Graphics/SVG/1.1/DTD/svg11.dtd">
<!-- Generated by graphviz version 14.1.5 (20260411.2331)
 -->
<!-- Title: PFDSL Pages: 1 -->
<svg width="308pt" height="44pt"
 viewBox="0.00 0.00 308.00 44.00" xmlns="http://www.w3.org/2000/svg" xmlns:xlink="http://www.w3.org/1999/xlink">
<g id="graph0" class="graph" transform="scale(1 1) rotate(0) translate(4 40)">
<title>PFDSL</title>
<polygon fill="white" stroke="none" points="-4,4 -4,-40 303.64,-40 303.64,4 -4,4"/>
<!-- analyze -->
<g id="node1" class="node">
<title>analyze</title>
<ellipse fill="none" stroke="black" cx="170.57" cy="-18" rx="39.07" ry="18"/>
<text xml:space="preserve" text-anchor="middle" x="170.57" y="-12.95" font-family="Times,serif" font-size="14.00">analyze</text>
</g>
<!-- report -->
<g id="node3" class="node">
<title>report</title>
<polygon fill="none" stroke="#0066cc" stroke-width="2" points="299.64,-36 245.64,-36 245.64,0 299.64,0 299.64,-36"/>
<text xml:space="preserve" text-anchor="middle" x="272.64" y="-12.95" font-family="Times,serif" font-size="14.00">report</text>
</g>
<!-- analyze&#45;&gt;report -->
<g id="edge2" class="edge">
<title>analyze&#45;&gt;report</title>
<path fill="none" stroke="black" d="M209.97,-18C217.66,-18 225.73,-18 233.41,-18"/>
<polygon fill="black" stroke="black" points="233.15,-21.5 243.15,-18 233.15,-14.5 233.15,-21.5"/>
</g>
<!-- customer_data -->
<g id="node2" class="node">
<title>customer_data</title>
<polygon fill="none" stroke="#0066cc" stroke-width="2" points="95.5,-36 0,-36 0,0 95.5,0 95.5,-36"/>
<text xml:space="preserve" text-anchor="middle" x="47.75" y="-12.95" font-family="Times,serif" font-size="14.00">customer_data</text>
</g>
<!-- customer_data&#45;&gt;analyze -->
<g id="edge1" class="edge">
<title>customer_data&#45;&gt;analyze</title>
<path fill="none" stroke="black" d="M96.15,-18C103.97,-18 112.09,-18 119.96,-18"/>
<polygon fill="black" stroke="black" points="119.73,-21.5 129.73,-18 119.73,-14.5 119.73,-21.5"/>
</g>
</g>
</svg>
