<?xml version="1.0" encoding="UTF-8" standalone="no"?>
<!DOCTYPE svg PUBLIC "-//W3C//DTD SVG 1.1//EN"
 "http://www.w3.org/Graphics/SVG/1.1/DTD/svg11.dtd">
<!-- Generated by graphviz version 14.0.1 (20251006.0113)
 -->
<!-- Title: PFDSL Pages: 1 -->
<svg width="576pt" height="227pt"
 viewBox="0.00 0.00 576.00 227.00" xmlns="http://www.w3.org/2000/svg" xmlns:xlink="http://www.w3.org/1999/xlink">
<g id="graph0" class="graph" transform="scale(1 1) rotate(0) translate(4 223)">
<title>PFDSL</title>
<polygon fill="white" stroke="none" points="-4,4 -4,-223 572.2,-223 572.2,4 -4,4"/>
<g id="clust1" class="cluster">
<title>cluster_backend</title>
<polygon fill="lightyellow" stroke="lightyellow" points="10.12,-8 10.12,-126 560.2,-126 560.2,-8 10.12,-8"/>
<text xml:space="preserve" text-anchor="middle" x="285.16" y="-108.7" font-family="Times,serif" font-size="14.00">Backend</text>
</g>
<g id="clust2" class="cluster">
<title>cluster_db</title>
<polygon fill="#ffd9b3" stroke="#b3987d" points="18.12,-16 18.12,-93 327.5,-93 327.5,-16 18.12,-16"/>
<text xml:space="preserve" text-anchor="middle" x="172.81" y="-75.7" font-family="Times,serif" font-size="14.00">DB Layer</text>
</g>
<g id="clust3" class="cluster">
<title>cluster_frontend</title>
<polygon fill="lightblue" stroke="lightblue" points="8,-134 8,-211 333.5,-211 333.5,-134 8,-134"/>
<text xml:space="preserve" text-anchor="middle" x="170.75" y="-193.7" font-family="Times,serif" font-size="14.00">Frontend</text>
</g>
<!-- migrate -->
<g id="node1" class="node">
<title>migrate</title>
<ellipse fill="none" stroke="black" cx="171.13" cy="-42" rx="39.58" ry="18"/>
<text xml:space="preserve" text-anchor="middle" x="171.13" y="-36.95" font-family="Times,serif" font-size="14.00">migrate</text>
</g>
<!-- migrated -->
<g id="node2" class="node">
<title>migrated</title>
<polygon fill="none" stroke="black" points="319.5,-60 254.75,-60 254.75,-24 319.5,-24 319.5,-60"/>
<text xml:space="preserve" text-anchor="middle" x="287.13" y="-36.95" font-family="Times,serif" font-size="14.00">migrated</text>
</g>
<!-- migrate&#45;&gt;migrated -->
<g id="edge2" class="edge">
<title>migrate&#45;&gt;migrated</title>
<path fill="none" stroke="black" d="M211.04,-42C221.35,-42 232.54,-42 243.06,-42"/>
<polygon fill="black" stroke="black" points="243.05,-45.5 253.05,-42 243.05,-38.5 243.05,-45.5"/>
</g>
<!-- build_api -->
<g id="node4" class="node">
<title>build_api</title>
<ellipse fill="none" stroke="black" cx="407.23" cy="-42" rx="45.72" ry="18"/>
<text xml:space="preserve" text-anchor="middle" x="407.23" y="-36.95" font-family="Times,serif" font-size="14.00">build_api</text>
</g>
<!-- migrated&#45;&gt;build_api -->
<g id="edge3" class="edge">
<title>migrated&#45;&gt;build_api</title>
<path fill="none" stroke="black" d="M319.78,-42C329.01,-42 339.39,-42 349.67,-42"/>
<polygon fill="black" stroke="black" points="349.66,-45.5 359.66,-42 349.66,-38.5 349.66,-45.5"/>
</g>
<!-- schema -->
<g id="node3" class="node">
<title>schema</title>
<polygon fill="none" stroke="black" stroke-width="2" points="83.38,-60 26.13,-60 26.13,-24 83.38,-24 83.38,-60"/>
<text xml:space="preserve" text-anchor="middle" x="54.75" y="-36.95" font-family="Times,serif" font-size="14.00">schema</text>
</g>
<!-- schema&#45;&gt;migrate -->
<g id="edge1" class="edge">
<title>schema&#45;&gt;migrate</title>
<path fill="none" stroke="black" d="M84.32,-42C95.05,-42 107.59,-42 119.72,-42"/>
<polygon fill="black" stroke="black" points="119.64,-45.5 129.63,-42 119.63,-38.5 119.64,-45.5"/>
</g>
<!-- endpoint -->
<g id="node5" class="node">
<title>endpoint</title>
<polygon fill="none" stroke="black" stroke-width="2" points="552.2,-60 488.95,-60 488.95,-24 552.2,-24 552.2,-60"/>
<text xml:space="preserve" text-anchor="middle" x="520.57" y="-36.95" font-family="Times,serif" font-size="14.00">endpoint</text>
</g>
<!-- build_api&#45;&gt;endpoint -->
<g id="edge4" class="edge">
<title>build_api&#45;&gt;endpoint</title>
<path fill="none" stroke="black" d="M453.19,-42C460.97,-42 469.03,-42 476.75,-42"/>
<polygon fill="black" stroke="black" points="476.6,-45.5 486.6,-42 476.6,-38.5 476.6,-45.5"/>
</g>
<!-- build_ui -->
<g id="node6" class="node">
<title>build_ui</title>
<ellipse fill="none" stroke="black" cx="171.13" cy="-160" rx="41.63" ry="18"/>
<text xml:space="preserve" text-anchor="middle" x="171.13" y="-154.95" font-family="Times,serif" font-size="14.00">build_ui</text>
</g>
<!-- component -->
<g id="node7" class="node">
<title>component</title>
<polygon fill="none" stroke="black" stroke-width="2" points="325.5,-178 248.75,-178 248.75,-142 325.5,-142 325.5,-178"/>
<text xml:space="preserve" text-anchor="middle" x="287.13" y="-154.95" font-family="Times,serif" font-size="14.00">component</text>
</g>
<!-- build_ui&#45;&gt;component -->
<g id="edge6" class="edge">
<title>build_ui&#45;&gt;component</title>
<path fill="none" stroke="black" d="M212.96,-160C220.6,-160 228.67,-160 236.54,-160"/>
<polygon fill="black" stroke="black" points="236.35,-163.5 246.35,-160 236.35,-156.5 236.35,-163.5"/>
</g>
<!-- ui_mockup -->
<g id="node8" class="node">
<title>ui_mockup</title>
<polygon fill="none" stroke="black" stroke-width="2" points="93.5,-178 16,-178 16,-142 93.5,-142 93.5,-178"/>
<text xml:space="preserve" text-anchor="middle" x="54.75" y="-154.95" font-family="Times,serif" font-size="14.00">ui_mockup</text>
</g>
<!-- ui_mockup&#45;&gt;build_ui -->
<g id="edge5" class="edge">
<title>ui_mockup&#45;&gt;build_ui</title>
<path fill="none" stroke="black" d="M94.47,-160C101.96,-160 109.92,-160 117.77,-160"/>
<polygon fill="black" stroke="black" points="117.58,-163.5 127.58,-160 117.58,-156.5 117.58,-163.5"/>
</g>
</g>
</svg>
