<?xml version="1.0" encoding="UTF-8" standalone="no"?>
<!DOCTYPE svg PUBLIC "-//W3C//DTD SVG 1.1//EN"
 "http://www.w3.org/Graphics/SVG/1.1/DTD/svg11.dtd">
<!-- Generated by graphviz version 14.1.5 (20260411.2331)
 -->
<!-- Title: PFDSL Pages: 1 -->
<svg width="358pt" height="186pt"
 viewBox="0.00 0.00 358.00 186.00" xmlns="http://www.w3.org/2000/svg" xmlns:xlink="http://www.w3.org/1999/xlink">
<g id="graph0" class="graph" transform="scale(1 1) rotate(0) translate(4 182)">
<title>PFDSL</title>
<polygon fill="white" stroke="none" points="-4,4 -4,-182 353.69,-182 353.69,4 -4,4"/>
<g id="clust1" class="cluster">
<title>cluster_backend</title>
<polygon fill="none" stroke="lightyellow" points="15.12,-8 15.12,-85 334.94,-85 334.94,-8 15.12,-8"/>
<text xml:space="preserve" text-anchor="middle" x="175.03" y="-67.7" font-family="Times,serif" font-size="14.00">Backend</text>
</g>
<g id="clust2" class="cluster">
<title>cluster_frontend</title>
<polygon fill="none" stroke="lightblue" points="8,-93 8,-170 341.69,-170 341.69,-93 8,-93"/>
<text xml:space="preserve" text-anchor="middle" x="174.85" y="-152.7" font-family="Times,serif" font-size="14.00">Frontend</text>
</g>
<!-- api_spec -->
<g id="node1" class="node">
<title>api_spec</title>
<polygon fill="none" stroke="black" points="86.38,-52 23.12,-52 23.12,-16 86.38,-16 86.38,-52"/>
<text xml:space="preserve" text-anchor="middle" x="54.75" y="-28.95" font-family="Times,serif" font-size="14.00">api_spec</text>
</g>
<!-- build_api -->
<g id="node2" class="node">
<title>build_api</title>
<ellipse fill="none" stroke="black" cx="175.22" cy="-34" rx="45.72" ry="18"/>
<text xml:space="preserve" text-anchor="middle" x="175.22" y="-28.95" font-family="Times,serif" font-size="14.00">build_api</text>
</g>
<!-- api_spec&#45;&gt;build_api -->
<g id="edge1" class="edge">
<title>api_spec&#45;&gt;build_api</title>
<path fill="none" stroke="black" d="M86.57,-34C96.24,-34 107.23,-34 118.08,-34"/>
<polygon fill="black" stroke="black" points="117.76,-37.5 127.76,-34 117.76,-30.5 117.76,-37.5"/>
</g>
<!-- endpoint -->
<g id="node3" class="node">
<title>endpoint</title>
<polygon fill="none" stroke="black" points="326.94,-52 263.69,-52 263.69,-16 326.94,-16 326.94,-52"/>
<text xml:space="preserve" text-anchor="middle" x="295.32" y="-28.95" font-family="Times,serif" font-size="14.00">endpoint</text>
</g>
<!-- build_api&#45;&gt;endpoint -->
<g id="edge2" class="edge">
<title>build_api&#45;&gt;endpoint</title>
<path fill="none" stroke="black" d="M221.21,-34C231.33,-34 242.03,-34 252.04,-34"/>
<polygon fill="black" stroke="black" points="251.87,-37.5 261.87,-34 251.87,-30.5 251.87,-37.5"/>
</g>
<!-- build_ui -->
<g id="node4" class="node">
<title>build_ui</title>
<ellipse fill="none" stroke="black" cx="175.22" cy="-119" rx="41.63" ry="18"/>
<text xml:space="preserve" text-anchor="middle" x="175.22" y="-113.95" font-family="Times,serif" font-size="14.00">build_ui</text>
</g>
<!-- component -->
<g id="node5" class="node">
<title>component</title>
<polygon fill="none" stroke="black" points="333.69,-137 256.94,-137 256.94,-101 333.69,-101 333.69,-137"/>
<text xml:space="preserve" text-anchor="middle" x="295.32" y="-113.95" font-family="Times,serif" font-size="14.00">component</text>
</g>
<!-- build_ui&#45;&gt;component -->
<g id="edge4" class="edge">
<title>build_ui&#45;&gt;component</title>
<path fill="none" stroke="black" d="M217.19,-119C226.19,-119 235.8,-119 245.08,-119"/>
<polygon fill="black" stroke="black" points="245.07,-122.5 255.07,-119 245.07,-115.5 245.07,-122.5"/>
</g>
<!-- ui_mockup -->
<g id="node6" class="node">
<title>ui_mockup</title>
<polygon fill="none" stroke="black" points="93.5,-137 16,-137 16,-101 93.5,-101 93.5,-137"/>
<text xml:space="preserve" text-anchor="middle" x="54.75" y="-113.95" font-family="Times,serif" font-size="14.00">ui_mockup</text>
</g>
<!-- ui_mockup&#45;&gt;build_ui -->
<g id="edge3" class="edge">
<title>ui_mockup&#45;&gt;build_ui</title>
<path fill="none" stroke="black" d="M93.89,-119C102.83,-119 112.51,-119 121.96,-119"/>
<polygon fill="black" stroke="black" points="121.78,-122.5 131.78,-119 121.78,-115.5 121.78,-122.5"/>
</g>
</g>
</svg>
