<?xml version="1.0" encoding="UTF-8" standalone="no"?>
<!DOCTYPE svg PUBLIC "-//W3C//DTD SVG 1.1//EN"
 "http://www.w3.org/Graphics/SVG/1.1/DTD/svg11.dtd">
<!-- Generated by graphviz version 14.1.5 (20260411.2331)
 -->
<!-- Title: PFDSL Pages: 1 -->
<svg width="345pt" height="259pt"
 viewBox="0.00 0.00 345.00 259.00" xmlns="http://www.w3.org/2000/svg" xmlns:xlink="http://www.w3.org/1999/xlink">
<g id="graph0" class="graph" transform="scale(1 1) rotate(0) translate(4 254.99)">
<title>PFDSL</title>
<polygon fill="white" stroke="none" points="-4,4 -4,-254.99 341.05,-254.99 341.05,4 -4,4"/>
<text xml:space="preserve" text-anchor="middle" x="168.53" y="-233.69" font-family="Times,serif" font-size="14.00">Parts</text>
<!-- D0 -->
<g id="node1" class="node">
<title>D0</title>
<polygon fill="none" stroke="black" stroke-width="2" points="73.62,-49.49 19.62,-49.49 19.62,-8.49 73.62,-8.49 73.62,-49.49"/>
<text xml:space="preserve" text-anchor="middle" x="46.62" y="-32.19" font-family="Times,serif" font-size="14.00">D0</text>
<text xml:space="preserve" text-anchor="middle" x="46.62" y="-15.69" font-family="Times,serif" font-size="14.00">Source</text>
</g>
<!-- P1 -->
<g id="node6" class="node">
<title>P1</title>
<ellipse fill="none" stroke="black" cx="161.78" cy="-28.99" rx="32.53" ry="28.99"/>
<text xml:space="preserve" text-anchor="middle" x="161.78" y="-32.19" font-family="Times,serif" font-size="14.00">P1</text>
<text xml:space="preserve" text-anchor="middle" x="161.78" y="-15.69" font-family="Times,serif" font-size="14.00">Build</text>
</g>
<!-- D0&#45;&gt;P1 -->
<g id="edge1" class="edge">
<title>D0&#45;&gt;P1</title>
<path fill="none" stroke="black" d="M74.44,-28.99C87.33,-28.99 103.11,-28.99 117.63,-28.99"/>
<polygon fill="black" stroke="black" points="117.41,-32.49 127.41,-28.99 117.41,-25.49 117.41,-32.49"/>
</g>
<!-- D1 -->
<g id="node2" class="node">
<title>D1</title>
<polygon fill="none" stroke="black" stroke-width="2" points="337.05,-49.49 230.3,-49.49 230.3,-8.49 337.05,-8.49 337.05,-49.49"/>
<text xml:space="preserve" text-anchor="middle" x="283.68" y="-32.19" font-family="Times,serif" font-size="14.00">D1</text>
<text xml:space="preserve" text-anchor="middle" x="283.68" y="-15.69" font-family="Times,serif" font-size="14.00">Release Package</text>
</g>
<!-- D2 -->
<g id="node3" class="node">
<title>D2</title>
<polygon fill="none" stroke="black" stroke-width="2" points="73.62,-108.49 19.62,-108.49 19.62,-67.49 73.62,-67.49 73.62,-108.49"/>
<text xml:space="preserve" text-anchor="middle" x="46.62" y="-91.19" font-family="Times,serif" font-size="14.00">D2</text>
<text xml:space="preserve" text-anchor="middle" x="46.62" y="-74.69" font-family="Times,serif" font-size="14.00">Binary</text>
</g>
<!-- D3 -->
<g id="node4" class="node">
<title>D3</title>
<polygon fill="none" stroke="black" stroke-width="2" points="73.62,-167.49 19.62,-167.49 19.62,-126.49 73.62,-126.49 73.62,-167.49"/>
<text xml:space="preserve" text-anchor="middle" x="46.62" y="-150.19" font-family="Times,serif" font-size="14.00">D3</text>
<text xml:space="preserve" text-anchor="middle" x="46.62" y="-133.69" font-family="Times,serif" font-size="14.00">Config</text>
</g>
<!-- D4 -->
<g id="node5" class="node">
<title>D4</title>
<polygon fill="none" stroke="black" stroke-width="2" points="93.25,-226.49 0,-226.49 0,-185.49 93.25,-185.49 93.25,-226.49"/>
<text xml:space="preserve" text-anchor="middle" x="46.62" y="-209.19" font-family="Times,serif" font-size="14.00">D4</text>
<text xml:space="preserve" text-anchor="middle" x="46.62" y="-192.69" font-family="Times,serif" font-size="14.00">Release Notes</text>
</g>
<!-- P1&#45;&gt;D1 -->
<g id="edge2" class="edge">
<title>P1&#45;&gt;D1</title>
<path fill="none" stroke="black" d="M194.59,-28.99C201.86,-28.99 209.83,-28.99 217.92,-28.99"/>
<polygon fill="black" stroke="black" points="217.86,-32.49 227.86,-28.99 217.86,-25.49 217.86,-32.49"/>
</g>
</g>
</svg>
