<?xml version="1.0" encoding="UTF-8" standalone="no"?>
<!DOCTYPE svg PUBLIC "-//W3C//DTD SVG 1.1//EN"
 "http://www.w3.org/Graphics/SVG/1.1/DTD/svg11.dtd">
<!-- Generated by graphviz version 14.0.1 (20251006.0113)
 -->
<!-- Title: PFDSL Pages: 1 -->
<svg width="111pt" height="332pt"
 viewBox="0.00 0.00 111.00 332.00" xmlns="http://www.w3.org/2000/svg" xmlns:xlink="http://www.w3.org/1999/xlink">
<g id="graph0" class="graph" transform="scale(1 1) rotate(0) translate(4 328)">
<title>PFDSL</title>
<polygon fill="white" stroke="none" points="-4,4 -4,-328 106.7,-328 106.7,4 -4,4"/>
<!-- code -->
<g id="node1" class="node">
<title>code</title>
<polygon fill="none" stroke="black" stroke-width="2" points="78.35,-36 24.35,-36 24.35,0 78.35,0 78.35,-36"/>
<text xml:space="preserve" text-anchor="middle" x="51.35" y="-12.95" font-family="Times,serif" font-size="14.00">code</text>
</g>
<!-- design -->
<g id="node2" class="node">
<title>design</title>
<ellipse fill="none" stroke="black" cx="51.35" cy="-234" rx="34.97" ry="18"/>
<text xml:space="preserve" text-anchor="middle" x="51.35" y="-228.95" font-family="Times,serif" font-size="14.00">design</text>
</g>
<!-- spec -->
<g id="node5" class="node">
<title>spec</title>
<polygon fill="none" stroke="black" points="78.35,-180 24.35,-180 24.35,-144 78.35,-144 78.35,-180"/>
<text xml:space="preserve" text-anchor="middle" x="51.35" y="-156.95" font-family="Times,serif" font-size="14.00">spec</text>
</g>
<!-- design&#45;&gt;spec -->
<g id="edge2" class="edge">
<title>design&#45;&gt;spec</title>
<path fill="none" stroke="black" d="M51.35,-215.7C51.35,-208.41 51.35,-199.73 51.35,-191.54"/>
<polygon fill="black" stroke="black" points="54.85,-191.62 51.35,-181.62 47.85,-191.62 54.85,-191.62"/>
</g>
<!-- implement -->
<g id="node3" class="node">
<title>implement</title>
<ellipse fill="none" stroke="black" cx="51.35" cy="-90" rx="51.35" ry="18"/>
<text xml:space="preserve" text-anchor="middle" x="51.35" y="-84.95" font-family="Times,serif" font-size="14.00">implement</text>
</g>
<!-- implement&#45;&gt;code -->
<g id="edge4" class="edge">
<title>implement&#45;&gt;code</title>
<path fill="none" stroke="black" d="M51.35,-71.7C51.35,-64.52 51.35,-55.99 51.35,-47.9"/>
<polygon fill="black" stroke="black" points="54.85,-48.1 51.35,-38.1 47.85,-48.1 54.85,-48.1"/>
</g>
<!-- requirements -->
<g id="node4" class="node">
<title>requirements</title>
<polygon fill="none" stroke="black" stroke-width="2" points="94.98,-324 7.73,-324 7.73,-288 94.98,-288 94.98,-324"/>
<text xml:space="preserve" text-anchor="middle" x="51.35" y="-300.95" font-family="Times,serif" font-size="14.00">requirements</text>
</g>
<!-- requirements&#45;&gt;design -->
<g id="edge1" class="edge">
<title>requirements&#45;&gt;design</title>
<path fill="none" stroke="black" d="M51.35,-287.34C51.35,-280.24 51.35,-271.86 51.35,-263.92"/>
<polygon fill="black" stroke="black" points="54.85,-263.93 51.35,-253.93 47.85,-263.93 54.85,-263.93"/>
</g>
<!-- spec&#45;&gt;implement -->
<g id="edge3" class="edge">
<title>spec&#45;&gt;implement</title>
<path fill="none" stroke="black" d="M51.35,-143.7C51.35,-136.41 51.35,-127.73 51.35,-119.54"/>
<polygon fill="black" stroke="black" points="54.85,-119.62 51.35,-109.62 47.85,-119.62 54.85,-119.62"/>
</g>
</g>
</svg>
