<?xml version="1.0" encoding="UTF-8" standalone="no"?>
<!DOCTYPE svg PUBLIC "-//W3C//DTD SVG 1.1//EN"
 "http://www.w3.org/Graphics/SVG/1.1/DTD/svg11.dtd">
<!-- Generated by graphviz version 14.1.5 (20260411.2331)
 -->
<!-- Title: PFDSL Pages: 1 -->
<svg width="114pt" height="357pt"
 viewBox="0.00 0.00 114.00 357.00" xmlns="http://www.w3.org/2000/svg" xmlns:xlink="http://www.w3.org/1999/xlink">
<g id="graph0" class="graph" transform="scale(1 1) rotate(0) translate(4 352.5)">
<title>PFDSL</title>
<polygon fill="white" stroke="none" points="-4,4 -4,-352.5 110,-352.5 110,4 -4,4"/>
<text xml:space="preserve" text-anchor="middle" x="53" y="-331.2" font-family="Times,serif" font-size="14.00">Layout direction</text>
<!-- code -->
<g id="node1" class="node">
<title>code</title>
<polygon fill="none" stroke="black" stroke-width="2" points="80,-36 26,-36 26,0 80,0 80,-36"/>
<text xml:space="preserve" text-anchor="middle" x="53" y="-12.95" font-family="Times,serif" font-size="14.00">code</text>
</g>
<!-- design -->
<g id="node2" class="node">
<title>design</title>
<ellipse fill="none" stroke="black" cx="53" cy="-234" rx="34.97" ry="18"/>
<text xml:space="preserve" text-anchor="middle" x="53" y="-228.95" font-family="Times,serif" font-size="14.00">design</text>
</g>
<!-- spec -->
<g id="node5" class="node">
<title>spec</title>
<polygon fill="none" stroke="black" points="80,-180 26,-180 26,-144 80,-144 80,-180"/>
<text xml:space="preserve" text-anchor="middle" x="53" y="-156.95" font-family="Times,serif" font-size="14.00">spec</text>
</g>
<!-- design&#45;&gt;spec -->
<g id="edge2" class="edge">
<title>design&#45;&gt;spec</title>
<path fill="none" stroke="black" d="M53,-215.7C53,-208.41 53,-199.73 53,-191.54"/>
<polygon fill="black" stroke="black" points="56.5,-191.62 53,-181.62 49.5,-191.62 56.5,-191.62"/>
</g>
<!-- implement -->
<g id="node3" class="node">
<title>implement</title>
<ellipse fill="none" stroke="black" cx="53" cy="-90" rx="51.35" ry="18"/>
<text xml:space="preserve" text-anchor="middle" x="53" y="-84.95" font-family="Times,serif" font-size="14.00">implement</text>
</g>
<!-- implement&#45;&gt;code -->
<g id="edge4" class="edge">
<title>implement&#45;&gt;code</title>
<path fill="none" stroke="black" d="M53,-71.7C53,-64.52 53,-55.99 53,-47.9"/>
<polygon fill="black" stroke="black" points="56.5,-48.1 53,-38.1 49.5,-48.1 56.5,-48.1"/>
</g>
<!-- requirements -->
<g id="node4" class="node">
<title>requirements</title>
<polygon fill="none" stroke="black" stroke-width="2" points="96.62,-324 9.38,-324 9.38,-288 96.62,-288 96.62,-324"/>
<text xml:space="preserve" text-anchor="middle" x="53" y="-300.95" font-family="Times,serif" font-size="14.00">requirements</text>
</g>
<!-- requirements&#45;&gt;design -->
<g id="edge1" class="edge">
<title>requirements&#45;&gt;design</title>
<path fill="none" stroke="black" d="M53,-287.34C53,-280.24 53,-271.86 53,-263.92"/>
<polygon fill="black" stroke="black" points="56.5,-263.93 53,-253.93 49.5,-263.93 56.5,-263.93"/>
</g>
<!-- spec&#45;&gt;implement -->
<g id="edge3" class="edge">
<title>spec&#45;&gt;implement</title>
<path fill="none" stroke="black" d="M53,-143.7C53,-136.41 53,-127.73 53,-119.54"/>
<polygon fill="black" stroke="black" points="56.5,-119.62 53,-109.62 49.5,-119.62 56.5,-119.62"/>
</g>
</g>
</svg>
