<?xml version="1.0" encoding="UTF-8" standalone="no"?>
<!DOCTYPE svg PUBLIC "-//W3C//DTD SVG 1.1//EN"
 "http://www.w3.org/Graphics/SVG/1.1/DTD/svg11.dtd">
<!-- Generated by graphviz version 14.0.1 (20251006.0113)
 -->
<!-- Title: PFDSL Pages: 1 -->
<svg width="630pt" height="48pt"
 viewBox="0.00 0.00 630.00 48.00" xmlns="http://www.w3.org/2000/svg" xmlns:xlink="http://www.w3.org/1999/xlink">
<g id="graph0" class="graph" transform="scale(1 1) rotate(0) translate(4 43.5)">
<title>PFDSL</title>
<polygon fill="white" stroke="none" points="-4,4 -4,-43.5 626.09,-43.5 626.09,4 -4,4"/>
<!-- analyze -->
<g id="node1" class="node">
<title>analyze</title>
<ellipse fill="none" stroke="black" cx="154.27" cy="-19.75" rx="39.07" ry="18"/>
<text xml:space="preserve" text-anchor="middle" x="154.27" y="-14.7" font-family="Times,serif" font-size="14.00">analyze</text>
</g>
<!-- report -->
<g id="node3" class="node">
<title>report</title>
<g id="a_node3"><a xlink:title="月次レポート&#10;externalStakeholders: 規制当局, 監査法人">
<polygon fill="none" stroke="black" points="337.34,-39.5 229.34,-39.5 229.34,0 337.34,0 337.34,-39.5"/>
<text xml:space="preserve" text-anchor="middle" x="283.34" y="-22.2" font-family="Times,serif" font-size="14.00">report</text>
<text xml:space="preserve" text-anchor="middle" x="283.34" y="-5.7" font-family="Times,serif" font-size="14.00">月次レポート</text>
</a>
</g>
</g>
<!-- analyze&#45;&gt;report -->
<g id="edge2" class="edge">
<title>analyze&#45;&gt;report</title>
<path fill="none" stroke="black" d="M193.74,-19.75C201.28,-19.75 209.39,-19.75 217.53,-19.75"/>
<polygon fill="black" stroke="black" points="217.48,-23.25 227.48,-19.75 217.48,-16.25 217.48,-23.25"/>
</g>
<!-- raw_data -->
<g id="node2" class="node">
<title>raw_data</title>
<polygon fill="none" stroke="black" stroke-width="2" points="79.2,-39.5 0,-39.5 0,0 79.2,0 79.2,-39.5"/>
<text xml:space="preserve" text-anchor="middle" x="39.6" y="-22.2" font-family="Times,serif" font-size="14.00">raw_data</text>
<text xml:space="preserve" text-anchor="middle" x="39.6" y="-5.7" font-family="Times,serif" font-size="14.00">生データ</text>
</g>
<!-- raw_data&#45;&gt;analyze -->
<g id="edge1" class="edge">
<title>raw_data&#45;&gt;analyze</title>
<path fill="none" stroke="black" d="M80.01,-19.75C87.59,-19.75 95.64,-19.75 103.5,-19.75"/>
<polygon fill="black" stroke="black" points="103.32,-23.25 113.32,-19.75 103.32,-16.25 103.32,-23.25"/>
</g>
<!-- summarize -->
<g id="node4" class="node">
<title>summarize</title>
<ellipse fill="none" stroke="black" cx="425.71" cy="-19.75" rx="52.38" ry="18"/>
<text xml:space="preserve" text-anchor="middle" x="425.71" y="-14.7" font-family="Times,serif" font-size="14.00">summarize</text>
</g>
<!-- report&#45;&gt;summarize -->
<g id="edge3" class="edge">
<title>report&#45;&gt;summarize</title>
<path fill="none" stroke="black" d="M337.81,-19.75C345.71,-19.75 353.9,-19.75 361.97,-19.75"/>
<polygon fill="black" stroke="black" points="361.73,-23.25 371.73,-19.75 361.73,-16.25 361.73,-23.25"/>
</g>
<!-- summary -->
<g id="node5" class="node">
<title>summary</title>
<g id="a_node5"><a xlink:title="経営サマリー&#10;externalStakeholders: 経営層">
<polygon fill="none" stroke="black" stroke-width="2" points="622.09,-39.5 514.09,-39.5 514.09,0 622.09,0 622.09,-39.5"/>
<text xml:space="preserve" text-anchor="middle" x="568.09" y="-22.2" font-family="Times,serif" font-size="14.00">summary</text>
<text xml:space="preserve" text-anchor="middle" x="568.09" y="-5.7" font-family="Times,serif" font-size="14.00">経営サマリー</text>
</a>
</g>
</g>
<!-- summarize&#45;&gt;summary -->
<g id="edge4" class="edge">
<title>summarize&#45;&gt;summary</title>
<path fill="none" stroke="black" d="M478.58,-19.75C486.24,-19.75 494.22,-19.75 502.1,-19.75"/>
<polygon fill="black" stroke="black" points="502.04,-23.25 512.04,-19.75 502.03,-16.25 502.04,-23.25"/>
</g>
</g>
</svg>
