<?xml version="1.0" encoding="UTF-8" standalone="no"?>
<!DOCTYPE svg PUBLIC "-//W3C//DTD SVG 1.1//EN"
 "http://www.w3.org/Graphics/SVG/1.1/DTD/svg11.dtd">
<!-- Generated by graphviz version 2.43.0 (0)
 -->
<!-- Title: PFDSL Pages: 1 -->
<svg width="744pt" height="46pt"
 viewBox="0.00 0.00 743.78 46.00" xmlns="http://www.w3.org/2000/svg" xmlns:xlink="http://www.w3.org/1999/xlink">
<g id="graph0" class="graph" transform="scale(1 1) rotate(0) translate(4 42)">
<title>PFDSL</title>
<polygon fill="white" stroke="transparent" points="-4,4 -4,-42 739.78,-42 739.78,4 -4,4"/>
<!-- analyze -->
<g id="node1" class="node">
<title>analyze</title>
<ellipse fill="none" stroke="black" cx="168.15" cy="-19" rx="46.29" ry="18"/>
<text text-anchor="middle" x="168.15" y="-15.3" font-family="Times,serif" font-size="14.00">analyze</text>
</g>
<!-- report -->
<g id="node3" class="node">
<title>report</title>
<g id="a_node3"><a xlink:title="Monthly Report&#10;externalStakeholders: Regulatory Authority, Audit Firm">
<polygon fill="none" stroke="black" points="379.29,-38 250.29,-38 250.29,0 379.29,0 379.29,-38"/>
<text text-anchor="middle" x="314.79" y="-22.8" font-family="Times,serif" font-size="14.00">report</text>
<text text-anchor="middle" x="314.79" y="-7.8" font-family="Times,serif" font-size="14.00">Monthly Report</text>
</a>
</g>
</g>
<!-- analyze&#45;&gt;report -->
<g id="edge2" class="edge">
<title>analyze&#45;&gt;report</title>
<path fill="none" stroke="black" d="M214.52,-19C222.61,-19 231.24,-19 239.89,-19"/>
<polygon fill="black" stroke="black" points="240.04,-22.5 250.04,-19 240.04,-15.5 240.04,-22.5"/>
</g>
<!-- raw_data -->
<g id="node2" class="node">
<title>raw_data</title>
<polygon fill="none" stroke="black" stroke-width="2" points="86,-38 0,-38 0,0 86,0 86,-38"/>
<text text-anchor="middle" x="43" y="-22.8" font-family="Times,serif" font-size="14.00">raw_data</text>
<text text-anchor="middle" x="43" y="-7.8" font-family="Times,serif" font-size="14.00">Raw Data</text>
</g>
<!-- raw_data&#45;&gt;analyze -->
<g id="edge1" class="edge">
<title>raw_data&#45;&gt;analyze</title>
<path fill="none" stroke="black" d="M86.04,-19C94.35,-19 103.19,-19 111.87,-19"/>
<polygon fill="black" stroke="black" points="111.93,-22.5 121.93,-19 111.93,-15.5 111.93,-22.5"/>
</g>
<!-- summarize -->
<g id="node4" class="node">
<title>summarize</title>
<ellipse fill="none" stroke="black" cx="477.04" cy="-19" rx="61.99" ry="18"/>
<text text-anchor="middle" x="477.04" y="-15.3" font-family="Times,serif" font-size="14.00">summarize</text>
</g>
<!-- report&#45;&gt;summarize -->
<g id="edge3" class="edge">
<title>report&#45;&gt;summarize</title>
<path fill="none" stroke="black" d="M379.59,-19C387.9,-19 396.46,-19 404.89,-19"/>
<polygon fill="black" stroke="black" points="405.07,-22.5 415.07,-19 405.07,-15.5 405.07,-22.5"/>
</g>
<!-- summary -->
<g id="node5" class="node">
<title>summary</title>
<g id="a_node5"><a xlink:title="Executive Summary&#10;externalStakeholders: Management">
<polygon fill="none" stroke="black" stroke-width="2" points="735.78,-38 574.78,-38 574.78,0 735.78,0 735.78,-38"/>
<text text-anchor="middle" x="655.28" y="-22.8" font-family="Times,serif" font-size="14.00">summary</text>
<text text-anchor="middle" x="655.28" y="-7.8" font-family="Times,serif" font-size="14.00">Executive Summary</text>
</a>
</g>
</g>
<!-- summarize&#45;&gt;summary -->
<g id="edge4" class="edge">
<title>summarize&#45;&gt;summary</title>
<path fill="none" stroke="black" d="M539.18,-19C547.4,-19 555.97,-19 564.55,-19"/>
<polygon fill="black" stroke="black" points="564.62,-22.5 574.62,-19 564.62,-15.5 564.62,-22.5"/>
</g>
</g>
</svg>
