<?xml version="1.0" encoding="UTF-8" standalone="no"?>
<!DOCTYPE svg PUBLIC "-//W3C//DTD SVG 1.1//EN"
 "http://www.w3.org/Graphics/SVG/1.1/DTD/svg11.dtd">
<!-- Generated by graphviz version 14.0.1 (20251006.0113)
 -->
<!-- Title: PFDSL Pages: 1 -->
<svg width="796pt" height="49pt"
 viewBox="0.00 0.00 796.00 49.00" xmlns="http://www.w3.org/2000/svg" xmlns:xlink="http://www.w3.org/1999/xlink">
<g id="graph0" class="graph" transform="scale(1 1) rotate(0) translate(4 45)">
<title>PFDSL</title>
<polygon fill="white" stroke="none" points="-4,4 -4,-45 791.62,-45 791.62,4 -4,4"/>
<!-- pack -->
<g id="node1" class="node">
<title>pack</title>
<ellipse fill="none" stroke="black" cx="420.55" cy="-20.5" rx="28.32" ry="18"/>
<text xml:space="preserve" text-anchor="middle" x="420.55" y="-15.45" font-family="Times,serif" font-size="14.00">pack</text>
</g>
<!-- packed_box -->
<g id="node2" class="node">
<title>packed_box</title>
<polygon fill="none" stroke="black" points="566.12,-41 484.87,-41 484.87,0 566.12,0 566.12,-41"/>
<text xml:space="preserve" text-anchor="middle" x="525.49" y="-23.7" font-family="Times,serif" font-size="14.00">packed_box</text>
<text xml:space="preserve" text-anchor="middle" x="525.49" y="-7.2" font-family="Times,serif" font-size="14.00">Packed Box</text>
</g>
<!-- pack&#45;&gt;packed_box -->
<g id="edge4" class="edge">
<title>pack&#45;&gt;packed_box</title>
<path fill="none" stroke="black" d="M449.13,-20.5C456.59,-20.5 464.9,-20.5 473.2,-20.5"/>
<polygon fill="black" stroke="black" points="472.93,-24 482.93,-20.5 472.93,-17 472.93,-24"/>
</g>
<!-- ship -->
<g id="node6" class="node">
<title>ship</title>
<ellipse fill="none" stroke="black" cx="629.12" cy="-20.5" rx="27" ry="18"/>
<text xml:space="preserve" text-anchor="middle" x="629.12" y="-15.45" font-family="Times,serif" font-size="14.00">ship</text>
</g>
<!-- packed_box&#45;&gt;ship -->
<g id="edge5" class="edge">
<title>packed_box&#45;&gt;ship</title>
<path fill="none" stroke="black" d="M566.36,-20.5C574.27,-20.5 582.54,-20.5 590.37,-20.5"/>
<polygon fill="black" stroke="black" points="590.29,-24 600.29,-20.5 590.29,-17 590.29,-24"/>
</g>
<!-- pick_items -->
<g id="node3" class="node">
<title>pick_items</title>
<ellipse fill="none" stroke="black" cx="179.61" cy="-20.5" rx="51.86" ry="18"/>
<text xml:space="preserve" text-anchor="middle" x="179.61" y="-15.45" font-family="Times,serif" font-size="14.00">pick_items</text>
</g>
<!-- picked_items -->
<g id="node4" class="node">
<title>picked_items</title>
<polygon fill="none" stroke="black" points="356.23,-41 267.48,-41 267.48,0 356.23,0 356.23,-41"/>
<text xml:space="preserve" text-anchor="middle" x="311.85" y="-23.7" font-family="Times,serif" font-size="14.00">picked_items</text>
<text xml:space="preserve" text-anchor="middle" x="311.85" y="-7.2" font-family="Times,serif" font-size="14.00">Picked Items</text>
</g>
<!-- pick_items&#45;&gt;picked_items -->
<g id="edge2" class="edge">
<title>pick_items&#45;&gt;picked_items</title>
<path fill="none" stroke="black" d="M231.71,-20.5C239.57,-20.5 247.7,-20.5 255.64,-20.5"/>
<polygon fill="black" stroke="black" points="255.55,-24 265.55,-20.5 255.55,-17 255.55,-24"/>
</g>
<!-- picked_items&#45;&gt;pack -->
<g id="edge3" class="edge">
<title>picked_items&#45;&gt;pack</title>
<path fill="none" stroke="black" d="M356.56,-20.5C364.51,-20.5 372.75,-20.5 380.55,-20.5"/>
<polygon fill="black" stroke="black" points="380.44,-24 390.44,-20.5 380.44,-17 380.44,-24"/>
</g>
<!-- requirement -->
<g id="node5" class="node">
<title>requirement</title>
<g id="a_node5"><a xlink:title="Requirements&#10;&#10;Boundary artifact — matches parent normal input.">
<polygon fill="none" stroke="black" stroke-width="2" points="91.75,-41 0,-41 0,0 91.75,0 91.75,-41"/>
<text xml:space="preserve" text-anchor="middle" x="45.88" y="-23.7" font-family="Times,serif" font-size="14.00">requirement</text>
<text xml:space="preserve" text-anchor="middle" x="45.88" y="-7.2" font-family="Times,serif" font-size="14.00">Requirements</text>
</a>
</g>
</g>
<!-- requirement&#45;&gt;pick_items -->
<g id="edge1" class="edge">
<title>requirement&#45;&gt;pick_items</title>
<path fill="none" stroke="black" d="M92.58,-20.5C100.17,-20.5 108.15,-20.5 116.08,-20.5"/>
<polygon fill="black" stroke="black" points="116.07,-24 126.07,-20.5 116.07,-17 116.07,-24"/>
</g>
<!-- shipped_order -->
<g id="node7" class="node">
<title>shipped_order</title>
<g id="a_node7"><a xlink:title="Shipped Order&#10;&#10;Boundary artifact — matches parent output.">
<polygon fill="none" stroke="black" stroke-width="2" points="787.62,-41 692.12,-41 692.12,0 787.62,0 787.62,-41"/>
<text xml:space="preserve" text-anchor="middle" x="739.87" y="-23.7" font-family="Times,serif" font-size="14.00">shipped_order</text>
<text xml:space="preserve" text-anchor="middle" x="739.87" y="-7.2" font-family="Times,serif" font-size="14.00">Shipped Order</text>
</a>
</g>
</g>
<!-- ship&#45;&gt;shipped_order -->
<g id="edge6" class="edge">
<title>ship&#45;&gt;shipped_order</title>
<path fill="none" stroke="black" d="M656.44,-20.5C663.7,-20.5 671.88,-20.5 680.2,-20.5"/>
<polygon fill="black" stroke="black" points="680.03,-24 690.03,-20.5 680.03,-17 680.03,-24"/>
</g>
</g>
</svg>
