<?xml version="1.0" encoding="UTF-8" standalone="no"?>
<!DOCTYPE svg PUBLIC "-//W3C//DTD SVG 1.1//EN"
 "http://www.w3.org/Graphics/SVG/1.1/DTD/svg11.dtd">
<!-- Generated by graphviz version 14.0.1 (20251006.0113)
 -->
<!-- Title: PFDSL Pages: 1 -->
<svg width="427pt" height="66pt"
 viewBox="0.00 0.00 427.00 66.00" xmlns="http://www.w3.org/2000/svg" xmlns:xlink="http://www.w3.org/1999/xlink">
<g id="graph0" class="graph" transform="scale(1 1) rotate(0) translate(4 61.98)">
<title>PFDSL</title>
<polygon fill="white" stroke="none" points="-4,4 -4,-61.98 422.7,-61.98 422.7,4 -4,4"/>
<!-- fulfill_order -->
<g id="node1" class="node">
<title>fulfill_order</title>
<g id="a_node1"><a xlink:title="Order Fulfillment&#10;subflow: ./12&#45;subflow&#45;detail.pfdsl">
<ellipse fill="none" stroke="black" cx="207.48" cy="-28.99" rx="79.73" ry="28.99"/>
<text xml:space="preserve" text-anchor="middle" x="207.48" y="-32.19" font-family="Times,serif" font-size="14.00">fulfill_order</text>
<text xml:space="preserve" text-anchor="middle" x="207.48" y="-15.69" font-family="Times,serif" font-size="14.00">Order Fulfillment</text>
</a>
</g>
</g>
<!-- shipped_order -->
<g id="node3" class="node">
<title>shipped_order</title>
<polygon fill="none" stroke="black" stroke-width="2" points="418.7,-49.49 323.2,-49.49 323.2,-8.49 418.7,-8.49 418.7,-49.49"/>
<text xml:space="preserve" text-anchor="middle" x="370.95" y="-32.19" font-family="Times,serif" font-size="14.00">shipped_order</text>
<text xml:space="preserve" text-anchor="middle" x="370.95" y="-15.69" font-family="Times,serif" font-size="14.00">Shipped Order</text>
</g>
<!-- fulfill_order&#45;&gt;shipped_order -->
<g id="edge2" class="edge">
<title>fulfill_order&#45;&gt;shipped_order</title>
<path fill="none" stroke="black" d="M287.32,-28.99C295.3,-28.99 303.3,-28.99 311.01,-28.99"/>
<polygon fill="black" stroke="black" points="310.94,-32.49 320.94,-28.99 310.94,-25.49 310.94,-32.49"/>
</g>
<!-- requirement -->
<g id="node2" class="node">
<title>requirement</title>
<polygon fill="none" stroke="black" stroke-width="2" points="91.75,-49.49 0,-49.49 0,-8.49 91.75,-8.49 91.75,-49.49"/>
<text xml:space="preserve" text-anchor="middle" x="45.88" y="-32.19" font-family="Times,serif" font-size="14.00">requirement</text>
<text xml:space="preserve" text-anchor="middle" x="45.88" y="-15.69" font-family="Times,serif" font-size="14.00">Requirements</text>
</g>
<!-- requirement&#45;&gt;fulfill_order -->
<g id="edge1" class="edge">
<title>requirement&#45;&gt;fulfill_order</title>
<path fill="none" stroke="black" d="M92.61,-28.99C100,-28.99 107.87,-28.99 115.88,-28.99"/>
<polygon fill="black" stroke="black" points="115.76,-32.49 125.76,-28.99 115.76,-25.49 115.76,-32.49"/>
</g>
</g>
</svg>
