<?xml version="1.0" encoding="UTF-8" standalone="no"?>
<!DOCTYPE svg PUBLIC "-//W3C//DTD SVG 1.1//EN"
 "http://www.w3.org/Graphics/SVG/1.1/DTD/svg11.dtd">
<!-- Generated by graphviz version 14.0.1 (20251006.0113)
 -->
<!-- Title: PFDSL Pages: 1 -->
<svg width="511pt" height="61pt"
 viewBox="0.00 0.00 511.00 61.00" xmlns="http://www.w3.org/2000/svg" xmlns:xlink="http://www.w3.org/1999/xlink">
<g id="graph0" class="graph" transform="scale(1 1) rotate(0) translate(4 56.5)">
<title>PFDSL</title>
<polygon fill="white" stroke="none" points="-4,4 -4,-56.5 506.93,-56.5 506.93,4 -4,4"/>
<!-- backlog -->
<g id="node1" class="node">
<title>backlog</title>
<polygon fill="none" stroke="black" stroke-width="2" points="85,-52.5 26.25,-52.5 26.25,-16.5 85,-16.5 85,-52.5"/>
<text xml:space="preserve" text-anchor="middle" x="55.62" y="-29.45" font-family="Times,serif" font-size="14.00">backlog</text>
<text xml:space="preserve" text-anchor="middle" x="13.12" y="-3.2" font-family="Times,serif" font-size="14.00">done</text>
</g>
<!-- develop -->
<g id="node2" class="node">
<title>develop</title>
<ellipse fill="none" stroke="black" cx="161.09" cy="-34.5" rx="40.09" ry="18"/>
<text xml:space="preserve" text-anchor="middle" x="161.09" y="-29.45" font-family="Times,serif" font-size="14.00">develop</text>
</g>
<!-- backlog&#45;&gt;develop -->
<g id="edge1" class="edge">
<title>backlog&#45;&gt;develop</title>
<path fill="none" stroke="black" d="M86,-34.5C93.22,-34.5 101.17,-34.5 109.09,-34.5"/>
<polygon fill="black" stroke="black" points="109.08,-38 119.08,-34.5 109.08,-31 109.08,-38"/>
</g>
<!-- prototype -->
<g id="node3" class="node">
<title>prototype</title>
<polygon fill="none" stroke="black" points="304.93,-52.5 237.18,-52.5 237.18,-16.5 304.93,-16.5 304.93,-52.5"/>
<text xml:space="preserve" text-anchor="middle" x="271.06" y="-29.45" font-family="Times,serif" font-size="14.00">prototype</text>
<text xml:space="preserve" text-anchor="middle" x="227.06" y="-3.2" font-family="Times,serif" font-size="14.00">wip</text>
</g>
<!-- develop&#45;&gt;prototype -->
<g id="edge2" class="edge">
<title>develop&#45;&gt;prototype</title>
<path fill="none" stroke="black" d="M201.68,-34.5C209.44,-34.5 217.64,-34.5 225.55,-34.5"/>
<polygon fill="black" stroke="black" points="225.34,-38 235.34,-34.5 225.34,-31 225.34,-38"/>
</g>
<!-- review -->
<g id="node5" class="node">
<title>review</title>
<ellipse fill="none" stroke="black" cx="376.93" cy="-34.5" rx="36" ry="18"/>
<text xml:space="preserve" text-anchor="middle" x="376.93" y="-29.45" font-family="Times,serif" font-size="14.00">review</text>
</g>
<!-- prototype&#45;&gt;review -->
<g id="edge3" class="edge">
<title>prototype&#45;&gt;review</title>
<path fill="none" stroke="black" d="M305.21,-34.5C312.88,-34.5 321.18,-34.5 329.3,-34.5"/>
<polygon fill="black" stroke="black" points="329.07,-38 339.07,-34.5 329.07,-31 329.07,-38"/>
</g>
<!-- release -->
<g id="node4" class="node">
<title>release</title>
<polygon fill="none" stroke="black" stroke-width="2" points="502.93,-52.5 448.93,-52.5 448.93,-16.5 502.93,-16.5 502.93,-52.5"/>
<text xml:space="preserve" text-anchor="middle" x="475.93" y="-29.45" font-family="Times,serif" font-size="14.00">release</text>
<text xml:space="preserve" text-anchor="middle" x="436.93" y="-3.2" font-family="Times,serif" font-size="14.00">todo</text>
</g>
<!-- review&#45;&gt;release -->
<g id="edge4" class="edge">
<title>review&#45;&gt;release</title>
<path fill="none" stroke="black" d="M413.22,-34.5C420.85,-34.5 428.95,-34.5 436.68,-34.5"/>
<polygon fill="black" stroke="black" points="436.51,-38 446.51,-34.5 436.51,-31 436.51,-38"/>
</g>
</g>
</svg>
