<?xml version="1.0" encoding="UTF-8" standalone="no"?>
<!DOCTYPE svg PUBLIC "-//W3C//DTD SVG 1.1//EN"
 "http://www.w3.org/Graphics/SVG/1.1/DTD/svg11.dtd">
<!-- Generated by graphviz version 14.1.4 (0)
 -->
<!-- Title: PFDSL Pages: 1 -->
<svg width="522pt" height="61pt"
 viewBox="0.00 0.00 522.00 61.00" xmlns="http://www.w3.org/2000/svg" xmlns:xlink="http://www.w3.org/1999/xlink">
<g id="graph0" class="graph" transform="scale(1 1) rotate(0) translate(4 56.8)">
<title>PFDSL</title>
<polygon fill="white" stroke="none" points="-4,4 -4,-56.8 517.87,-56.8 517.87,4 -4,4"/>
<!-- backlog -->
<g id="node1" class="node">
<title>backlog</title>
<polygon fill="none" stroke="black" stroke-width="2" points="87.53,-52.8 27.21,-52.8 27.21,-16.8 87.53,-16.8 87.53,-52.8"/>
<text xml:space="preserve" text-anchor="middle" x="57.37" y="-30.6" font-family="Times,serif" font-size="14.00">backlog</text>
<text xml:space="preserve" text-anchor="middle" x="13.61" y="-4.2" font-family="Times,serif" font-size="14.00">done</text>
</g>
<!-- develop -->
<g id="node2" class="node">
<title>develop</title>
<ellipse fill="none" stroke="black" cx="165.14" cy="-34.8" rx="41.61" ry="18"/>
<text xml:space="preserve" text-anchor="middle" x="165.14" y="-30.6" font-family="Times,serif" font-size="14.00">develop</text>
</g>
<!-- backlog&#45;&gt;develop -->
<g id="edge1" class="edge">
<title>backlog&#45;&gt;develop</title>
<path fill="none" stroke="black" d="M88.4,-34.8C95.79,-34.8 103.91,-34.8 112.01,-34.8"/>
<polygon fill="black" stroke="black" points="111.86,-38.3 121.86,-34.8 111.86,-31.3 111.86,-38.3"/>
</g>
<!-- prototype -->
<g id="node3" class="node">
<title>prototype</title>
<polygon fill="none" stroke="black" points="312.4,-52.8 242.74,-52.8 242.74,-16.8 312.4,-16.8 312.4,-52.8"/>
<text xml:space="preserve" text-anchor="middle" x="277.57" y="-30.6" font-family="Times,serif" font-size="14.00">prototype</text>
<text xml:space="preserve" text-anchor="middle" x="232.24" y="-4.2" font-family="Times,serif" font-size="14.00">wip</text>
</g>
<!-- develop&#45;&gt;prototype -->
<g id="edge2" class="edge">
<title>develop&#45;&gt;prototype</title>
<path fill="none" stroke="black" d="M206.94,-34.8C214.79,-34.8 223.05,-34.8 231.03,-34.8"/>
<polygon fill="black" stroke="black" points="230.93,-38.3 240.93,-34.8 230.93,-31.3 230.93,-38.3"/>
</g>
<!-- review -->
<g id="node5" class="node">
<title>review</title>
<ellipse fill="none" stroke="black" cx="385.71" cy="-34.8" rx="37.31" ry="18"/>
<text xml:space="preserve" text-anchor="middle" x="385.71" y="-30.6" font-family="Times,serif" font-size="14.00">review</text>
</g>
<!-- prototype&#45;&gt;review -->
<g id="edge3" class="edge">
<title>prototype&#45;&gt;review</title>
<path fill="none" stroke="black" d="M312.74,-34.8C320.4,-34.8 328.66,-34.8 336.77,-34.8"/>
<polygon fill="black" stroke="black" points="336.53,-38.3 346.53,-34.8 336.53,-31.3 336.53,-38.3"/>
</g>
<!-- release -->
<g id="node4" class="node">
<title>release</title>
<polygon fill="none" stroke="black" stroke-width="2" points="513.87,-52.8 459.02,-52.8 459.02,-16.8 513.87,-16.8 513.87,-52.8"/>
<text xml:space="preserve" text-anchor="middle" x="486.45" y="-30.6" font-family="Times,serif" font-size="14.00">release</text>
<text xml:space="preserve" text-anchor="middle" x="446.57" y="-4.2" font-family="Times,serif" font-size="14.00">todo</text>
</g>
<!-- review&#45;&gt;release -->
<g id="edge4" class="edge">
<title>review&#45;&gt;release</title>
<path fill="none" stroke="black" d="M423.47,-34.8C431.12,-34.8 439.2,-34.8 446.91,-34.8"/>
<polygon fill="black" stroke="black" points="446.7,-38.3 456.7,-34.8 446.7,-31.3 446.7,-38.3"/>
</g>
</g>
</svg>
