<?xml version="1.0" encoding="UTF-8" standalone="no"?>
<!DOCTYPE svg PUBLIC "-//W3C//DTD SVG 1.1//EN"
 "http://www.w3.org/Graphics/SVG/1.1/DTD/svg11.dtd">
<!-- Generated by graphviz version 14.0.1 (20251006.0113)
 -->
<!-- Title: PFDSL Pages: 1 -->
<svg width="348pt" height="66pt"
 viewBox="0.00 0.00 348.00 66.00" xmlns="http://www.w3.org/2000/svg" xmlns:xlink="http://www.w3.org/1999/xlink">
<g id="graph0" class="graph" transform="scale(1 1) rotate(0) translate(4 61.98)">
<title>PFDSL</title>
<polygon fill="white" stroke="none" points="-4,4 -4,-61.98 344.1,-61.98 344.1,4 -4,4"/>
<!-- fulfill -->
<g id="node1" class="node">
<title>fulfill</title>
<g id="a_node1"><a xlink:title="Fulfillment&#10;subflow: ./14&#45;boundary&#45;detail.pfdsl">
<ellipse fill="none" stroke="black" cx="195.3" cy="-28.99" rx="54.8" ry="28.99"/>
<text xml:space="preserve" text-anchor="middle" x="195.3" y="-32.19" font-family="Times,serif" font-size="14.00">fulfill</text>
<text xml:space="preserve" text-anchor="middle" x="195.3" y="-15.69" font-family="Times,serif" font-size="14.00">Fulfillment</text>
</a>
</g>
</g>
<!-- parcel -->
<g id="node3" class="node">
<title>parcel</title>
<polygon fill="none" stroke="black" stroke-width="2" points="340.1,-49.49 286.1,-49.49 286.1,-8.49 340.1,-8.49 340.1,-49.49"/>
<text xml:space="preserve" text-anchor="middle" x="313.1" y="-32.19" font-family="Times,serif" font-size="14.00">parcel</text>
<text xml:space="preserve" text-anchor="middle" x="313.1" y="-15.69" font-family="Times,serif" font-size="14.00">Parcel</text>
</g>
<!-- fulfill&#45;&gt;parcel -->
<g id="edge2" class="edge">
<title>fulfill&#45;&gt;parcel</title>
<path fill="none" stroke="black" d="M250.47,-28.99C258.43,-28.99 266.48,-28.99 274.02,-28.99"/>
<polygon fill="black" stroke="black" points="273.85,-32.49 283.85,-28.99 273.85,-25.49 273.85,-32.49"/>
</g>
<!-- order -->
<g id="node2" class="node">
<title>order</title>
<polygon fill="none" stroke="black" stroke-width="2" points="104.5,-49.49 0,-49.49 0,-8.49 104.5,-8.49 104.5,-49.49"/>
<text xml:space="preserve" text-anchor="middle" x="52.25" y="-32.19" font-family="Times,serif" font-size="14.00">order</text>
<text xml:space="preserve" text-anchor="middle" x="52.25" y="-15.69" font-family="Times,serif" font-size="14.00">Customer Order</text>
</g>
<!-- order&#45;&gt;fulfill -->
<g id="edge1" class="edge">
<title>order&#45;&gt;fulfill</title>
<path fill="none" stroke="black" d="M105.37,-28.99C112.96,-28.99 120.86,-28.99 128.68,-28.99"/>
<polygon fill="black" stroke="black" points="128.52,-32.49 138.52,-28.99 128.52,-25.49 128.52,-32.49"/>
</g>
</g>
</svg>
