<?xml version="1.0" encoding="UTF-8" standalone="no"?>
<!DOCTYPE svg PUBLIC "-//W3C//DTD SVG 1.1//EN"
 "http://www.w3.org/Graphics/SVG/1.1/DTD/svg11.dtd">
<!-- Generated by graphviz version 14.1.4 (0)
 -->
<!-- Title: PFDSL Pages: 1 -->
<svg width="360pt" height="75pt"
 viewBox="0.00 0.00 360.00 75.00" xmlns="http://www.w3.org/2000/svg" xmlns:xlink="http://www.w3.org/1999/xlink">
<g id="graph0" class="graph" transform="scale(1 1) rotate(0) translate(4 70.83)">
<title>PFDSL</title>
<polygon fill="white" stroke="none" points="-4,4 -4,-70.83 356.31,-70.83 356.31,4 -4,4"/>
<!-- fulfill -->
<g id="node1" class="node">
<title>fulfill</title>
<g id="a_node1"><a xlink:title="Fulfillment&#10;subflow: ./14&#45;boundary&#45;detail.pfdsl">
<ellipse fill="none" stroke="black" cx="202.45" cy="-33.42" rx="55.86" ry="29.42"/>
<ellipse fill="none" stroke="black" cx="202.45" cy="-33.42" rx="59.86" ry="33.42"/>
<text xml:space="preserve" text-anchor="middle" x="202.45" y="-37.62" font-family="Times,serif" font-size="14.00">fulfill</text>
<text xml:space="preserve" text-anchor="middle" x="202.45" y="-20.82" font-family="Times,serif" font-size="14.00">Fulfillment</text>
</a>
</g>
</g>
<!-- parcel -->
<g id="node3" class="node">
<title>parcel</title>
<polygon fill="none" stroke="black" stroke-width="2" points="352.31,-54.22 298.31,-54.22 298.31,-12.62 352.31,-12.62 352.31,-54.22"/>
<text xml:space="preserve" text-anchor="middle" x="325.31" y="-37.62" font-family="Times,serif" font-size="14.00">parcel</text>
<text xml:space="preserve" text-anchor="middle" x="325.31" y="-20.82" font-family="Times,serif" font-size="14.00">Parcel</text>
</g>
<!-- fulfill&#45;&gt;parcel -->
<g id="edge2" class="edge">
<title>fulfill&#45;&gt;parcel</title>
<path fill="none" stroke="black" d="M262.47,-33.42C270.49,-33.42 278.54,-33.42 286.07,-33.42"/>
<polygon fill="black" stroke="black" points="285.85,-36.92 295.85,-33.42 285.85,-29.92 285.85,-36.92"/>
</g>
<!-- order -->
<g id="node2" class="node">
<title>order</title>
<polygon fill="none" stroke="black" stroke-width="2" points="106.59,-54.22 0,-54.22 0,-12.62 106.59,-12.62 106.59,-54.22"/>
<text xml:space="preserve" text-anchor="middle" x="53.29" y="-37.62" font-family="Times,serif" font-size="14.00">order</text>
<text xml:space="preserve" text-anchor="middle" x="53.29" y="-20.82" font-family="Times,serif" font-size="14.00">Customer Order</text>
</g>
<!-- order&#45;&gt;fulfill -->
<g id="edge1" class="edge">
<title>order&#45;&gt;fulfill</title>
<path fill="none" stroke="black" d="M107.42,-33.42C115,-33.42 122.89,-33.42 130.74,-33.42"/>
<polygon fill="black" stroke="black" points="130.65,-36.92 140.65,-33.42 130.65,-29.92 130.65,-36.92"/>
</g>
</g>
</svg>
