<?xml version="1.0" encoding="UTF-8" standalone="no"?>
<!DOCTYPE svg PUBLIC "-//W3C//DTD SVG 1.1//EN"
 "http://www.w3.org/Graphics/SVG/1.1/DTD/svg11.dtd">
<!-- Generated by graphviz version 14.0.1 (20251006.0113)
 -->
<!-- Title: PFDSL Pages: 1 -->
<svg width="558pt" height="49pt"
 viewBox="0.00 0.00 558.00 49.00" xmlns="http://www.w3.org/2000/svg" xmlns:xlink="http://www.w3.org/1999/xlink">
<g id="graph0" class="graph" transform="scale(1 1) rotate(0) translate(4 45)">
<title>PFDSL</title>
<polygon fill="white" stroke="none" points="-4,4 -4,-45 554.14,-45 554.14,4 -4,4"/>
<!-- incoming_order -->
<g id="node1" class="node">
<title>incoming_order</title>
<g id="a_node1"><a xlink:title="Incoming Order&#10;&#10;Boundary artifact — mapped from parent &#39;order&#39; via boundary:.">
<polygon fill="none" stroke="black" stroke-width="2" points="103.75,-41 0,-41 0,0 103.75,0 103.75,-41"/>
<text xml:space="preserve" text-anchor="middle" x="51.88" y="-23.7" font-family="Times,serif" font-size="14.00">incoming_order</text>
<text xml:space="preserve" text-anchor="middle" x="51.88" y="-7.2" font-family="Times,serif" font-size="14.00">Incoming Order</text>
</a>
</g>
</g>
<!-- pick -->
<g id="node4" class="node">
<title>pick</title>
<ellipse fill="none" stroke="black" cx="166.75" cy="-20.5" rx="27" ry="18"/>
<text xml:space="preserve" text-anchor="middle" x="166.75" y="-15.45" font-family="Times,serif" font-size="14.00">pick</text>
</g>
<!-- incoming_order&#45;&gt;pick -->
<g id="edge1" class="edge">
<title>incoming_order&#45;&gt;pick</title>
<path fill="none" stroke="black" d="M104.69,-20.5C112.6,-20.5 120.63,-20.5 128.16,-20.5"/>
<polygon fill="black" stroke="black" points="127.97,-24 137.97,-20.5 127.97,-17 127.97,-24"/>
</g>
<!-- outgoing_parcel -->
<g id="node2" class="node">
<title>outgoing_parcel</title>
<g id="a_node2"><a xlink:title="Outgoing Parcel&#10;&#10;Boundary artifact — mapped from parent &#39;parcel&#39; via boundary:.">
<polygon fill="none" stroke="black" stroke-width="2" points="550.14,-41 445.64,-41 445.64,0 550.14,0 550.14,-41"/>
<text xml:space="preserve" text-anchor="middle" x="497.89" y="-23.7" font-family="Times,serif" font-size="14.00">outgoing_parcel</text>
<text xml:space="preserve" text-anchor="middle" x="497.89" y="-7.2" font-family="Times,serif" font-size="14.00">Outgoing Parcel</text>
</a>
</g>
</g>
<!-- pack -->
<g id="node3" class="node">
<title>pack</title>
<ellipse fill="none" stroke="black" cx="381.32" cy="-20.5" rx="28.32" ry="18"/>
<text xml:space="preserve" text-anchor="middle" x="381.32" y="-15.45" font-family="Times,serif" font-size="14.00">pack</text>
</g>
<!-- pack&#45;&gt;outgoing_parcel -->
<g id="edge4" class="edge">
<title>pack&#45;&gt;outgoing_parcel</title>
<path fill="none" stroke="black" d="M410.05,-20.5C417.25,-20.5 425.3,-20.5 433.52,-20.5"/>
<polygon fill="black" stroke="black" points="433.25,-24 443.25,-20.5 433.25,-17 433.25,-24"/>
</g>
<!-- picked -->
<g id="node5" class="node">
<title>picked</title>
<polygon fill="none" stroke="black" points="317,-41 229.75,-41 229.75,0 317,0 317,-41"/>
<text xml:space="preserve" text-anchor="middle" x="273.38" y="-23.7" font-family="Times,serif" font-size="14.00">picked</text>
<text xml:space="preserve" text-anchor="middle" x="273.38" y="-7.2" font-family="Times,serif" font-size="14.00">Picked Items</text>
</g>
<!-- pick&#45;&gt;picked -->
<g id="edge2" class="edge">
<title>pick&#45;&gt;picked</title>
<path fill="none" stroke="black" d="M194.15,-20.5C201.48,-20.5 209.71,-20.5 218.01,-20.5"/>
<polygon fill="black" stroke="black" points="217.78,-24 227.78,-20.5 217.78,-17 217.78,-24"/>
</g>
<!-- picked&#45;&gt;pack -->
<g id="edge3" class="edge">
<title>picked&#45;&gt;pack</title>
<path fill="none" stroke="black" d="M317.47,-20.5C325.38,-20.5 333.6,-20.5 341.38,-20.5"/>
<polygon fill="black" stroke="black" points="341.25,-24 351.25,-20.5 341.25,-17 341.25,-24"/>
</g>
</g>
</svg>
