<?xml version="1.0" encoding="UTF-8" standalone="no"?>
<!DOCTYPE svg PUBLIC "-//W3C//DTD SVG 1.1//EN"
 "http://www.w3.org/Graphics/SVG/1.1/DTD/svg11.dtd">
<!-- Generated by graphviz version 2.43.0 (0)
 -->
<!-- Title: PFDSL Pages: 1 -->
<svg width="610pt" height="62pt"
 viewBox="0.00 0.00 610.03 61.74" xmlns="http://www.w3.org/2000/svg" xmlns:xlink="http://www.w3.org/1999/xlink">
<g id="graph0" class="graph" transform="scale(1 1) rotate(0) translate(4 57.74)">
<title>PFDSL</title>
<polygon fill="white" stroke="transparent" points="-4,4 -4,-57.74 606.03,-57.74 606.03,4 -4,4"/>
<!-- code -->
<g id="node1" class="node">
<title>code</title>
<polygon fill="none" stroke="black" stroke-width="2" points="602.03,-45.87 537.03,-45.87 537.03,-7.87 602.03,-7.87 602.03,-45.87"/>
<text text-anchor="middle" x="569.53" y="-30.67" font-family="Times,serif" font-size="14.00">code</text>
<text text-anchor="middle" x="569.53" y="-15.67" font-family="Times,serif" font-size="14.00">コード</text>
</g>
<!-- design -->
<g id="node2" class="node">
<title>design</title>
<ellipse fill="none" stroke="black" cx="187.25" cy="-26.87" rx="45.01" ry="26.74"/>
<text text-anchor="middle" x="187.25" y="-30.67" font-family="Times,serif" font-size="14.00">design</text>
<text text-anchor="middle" x="187.25" y="-15.67" font-family="Times,serif" font-size="14.00">設計</text>
</g>
<!-- spec -->
<g id="node5" class="node">
<title>spec</title>
<polygon fill="none" stroke="black" points="333.51,-45.87 268.51,-45.87 268.51,-7.87 333.51,-7.87 333.51,-45.87"/>
<text text-anchor="middle" x="301.01" y="-30.67" font-family="Times,serif" font-size="14.00">spec</text>
<text text-anchor="middle" x="301.01" y="-15.67" font-family="Times,serif" font-size="14.00">仕様書</text>
</g>
<!-- design&#45;&gt;spec -->
<g id="edge2" class="edge">
<title>design&#45;&gt;spec</title>
<path fill="none" stroke="black" d="M232.74,-26.87C241.13,-26.87 249.88,-26.87 258.18,-26.87"/>
<polygon fill="black" stroke="black" points="258.4,-30.37 268.4,-26.87 258.4,-23.37 258.4,-30.37"/>
</g>
<!-- implement -->
<g id="node3" class="node">
<title>implement</title>
<ellipse fill="none" stroke="black" cx="435.27" cy="-26.87" rx="65.52" ry="26.74"/>
<text text-anchor="middle" x="435.27" y="-30.67" font-family="Times,serif" font-size="14.00">implement</text>
<text text-anchor="middle" x="435.27" y="-15.67" font-family="Times,serif" font-size="14.00">実装</text>
</g>
<!-- implement&#45;&gt;code -->
<g id="edge4" class="edge">
<title>implement&#45;&gt;code</title>
<path fill="none" stroke="black" d="M501.24,-26.87C509.87,-26.87 518.53,-26.87 526.62,-26.87"/>
<polygon fill="black" stroke="black" points="526.89,-30.37 536.89,-26.87 526.89,-23.37 526.89,-30.37"/>
</g>
<!-- requirement -->
<g id="node4" class="node">
<title>requirement</title>
<polygon fill="none" stroke="black" stroke-width="2" points="106,-45.87 0,-45.87 0,-7.87 106,-7.87 106,-45.87"/>
<text text-anchor="middle" x="53" y="-30.67" font-family="Times,serif" font-size="14.00">requirement</text>
<text text-anchor="middle" x="53" y="-15.67" font-family="Times,serif" font-size="14.00">要求</text>
</g>
<!-- requirement&#45;&gt;design -->
<g id="edge1" class="edge">
<title>requirement&#45;&gt;design</title>
<path fill="none" stroke="black" d="M106.27,-26.87C114.59,-26.87 123.21,-26.87 131.58,-26.87"/>
<polygon fill="black" stroke="black" points="131.62,-30.37 141.62,-26.87 131.62,-23.37 131.62,-30.37"/>
</g>
<!-- spec&#45;&gt;implement -->
<g id="edge3" class="edge">
<title>spec&#45;&gt;implement</title>
<path fill="none" stroke="black" d="M333.69,-26.87C341.52,-26.87 350.24,-26.87 359.19,-26.87"/>
<polygon fill="black" stroke="black" points="359.35,-30.37 369.35,-26.87 359.35,-23.37 359.35,-30.37"/>
</g>
</g>
</svg>
