<?xml version="1.0" encoding="UTF-8" standalone="no"?>
<!DOCTYPE svg PUBLIC "-//W3C//DTD SVG 1.1//EN"
 "http://www.w3.org/Graphics/SVG/1.1/DTD/svg11.dtd">
<!-- Generated by graphviz version 2.43.0 (0)
 -->
<!-- Title: PFDSL Pages: 1 -->
<svg width="570pt" height="44pt"
 viewBox="0.00 0.00 570.08 44.00" xmlns="http://www.w3.org/2000/svg" xmlns:xlink="http://www.w3.org/1999/xlink">
<g id="graph0" class="graph" transform="scale(1 1) rotate(0) translate(4 40)">
<title>PFDSL</title>
<polygon fill="white" stroke="transparent" points="-4,4 -4,-40 566.08,-40 566.08,4 -4,4"/>
<!-- code -->
<g id="node1" class="node">
<title>code</title>
<polygon fill="none" stroke="black" stroke-width="2" points="562.08,-36 508.08,-36 508.08,0 562.08,0 562.08,-36"/>
<text text-anchor="middle" x="535.08" y="-14.3" font-family="Times,serif" font-size="14.00">code</text>
</g>
<!-- design -->
<g id="node2" class="node">
<title>design</title>
<ellipse fill="none" stroke="black" cx="183.6" cy="-18" rx="41.69" ry="18"/>
<text text-anchor="middle" x="183.6" y="-14.3" font-family="Times,serif" font-size="14.00">design</text>
</g>
<!-- spec -->
<g id="node5" class="node">
<title>spec</title>
<polygon fill="none" stroke="black" points="315.19,-36 261.19,-36 261.19,0 315.19,0 315.19,-36"/>
<text text-anchor="middle" x="288.19" y="-14.3" font-family="Times,serif" font-size="14.00">spec</text>
</g>
<!-- design&#45;&gt;spec -->
<g id="edge2" class="edge">
<title>design&#45;&gt;spec</title>
<path fill="none" stroke="black" d="M225.44,-18C233.85,-18 242.65,-18 250.88,-18"/>
<polygon fill="black" stroke="black" points="250.94,-21.5 260.94,-18 250.94,-14.5 250.94,-21.5"/>
</g>
<!-- implement -->
<g id="node3" class="node">
<title>implement</title>
<ellipse fill="none" stroke="black" cx="411.64" cy="-18" rx="60.39" ry="18"/>
<text text-anchor="middle" x="411.64" y="-14.3" font-family="Times,serif" font-size="14.00">implement</text>
</g>
<!-- implement&#45;&gt;code -->
<g id="edge4" class="edge">
<title>implement&#45;&gt;code</title>
<path fill="none" stroke="black" d="M472.29,-18C480.97,-18 489.67,-18 497.7,-18"/>
<polygon fill="black" stroke="black" points="497.8,-21.5 507.8,-18 497.8,-14.5 497.8,-21.5"/>
</g>
<!-- requirement -->
<g id="node4" class="node">
<title>requirement</title>
<polygon fill="none" stroke="black" stroke-width="2" points="106,-36 0,-36 0,0 106,0 106,-36"/>
<text text-anchor="middle" x="53" y="-14.3" font-family="Times,serif" font-size="14.00">requirement</text>
</g>
<!-- requirement&#45;&gt;design -->
<g id="edge1" class="edge">
<title>requirement&#45;&gt;design</title>
<path fill="none" stroke="black" d="M106.31,-18C114.71,-18 123.4,-18 131.77,-18"/>
<polygon fill="black" stroke="black" points="131.78,-21.5 141.78,-18 131.78,-14.5 131.78,-21.5"/>
</g>
<!-- spec&#45;&gt;implement -->
<g id="edge3" class="edge">
<title>spec&#45;&gt;implement</title>
<path fill="none" stroke="black" d="M315.25,-18C323.03,-18 331.95,-18 341.14,-18"/>
<polygon fill="black" stroke="black" points="341.19,-21.5 351.19,-18 341.19,-14.5 341.19,-21.5"/>
</g>
</g>
</svg>
