<?xml version="1.0" encoding="UTF-8" standalone="no"?>
<!DOCTYPE svg PUBLIC "-//W3C//DTD SVG 1.1//EN"
 "http://www.w3.org/Graphics/SVG/1.1/DTD/svg11.dtd">
<!-- Generated by graphviz version 2.43.0 (0)
 -->
<!-- Title: PFDSL Pages: 1 -->
<svg width="563pt" height="85pt"
 viewBox="0.00 0.00 563.39 84.74" xmlns="http://www.w3.org/2000/svg" xmlns:xlink="http://www.w3.org/1999/xlink">
<g id="graph0" class="graph" transform="scale(1 1) rotate(0) translate(4 80.74)">
<title>PFDSL</title>
<polygon fill="white" stroke="transparent" points="-4,4 -4,-80.74 559.39,-80.74 559.39,4 -4,4"/>
<text text-anchor="middle" x="277.7" y="-61.54" font-family="Times,serif" font-size="14.00">スケジュール見積もり</text>
<!-- code -->
<g id="node1" class="node">
<title>code</title>
<g id="a_node1"><a xlink:title="実装コード&#10;criteria: 全テスト通過">
<polygon fill="none" stroke="black" stroke-width="2" points="555.39,-45.87 461.39,-45.87 461.39,-7.87 555.39,-7.87 555.39,-45.87"/>
<text text-anchor="middle" x="508.39" y="-30.67" font-family="Times,serif" font-size="14.00">code</text>
<text text-anchor="middle" x="508.39" y="-15.67" font-family="Times,serif" font-size="14.00">実装コード</text>
</a>
</g>
</g>
<!-- design -->
<g id="node2" class="node">
<title>design</title>
<ellipse fill="none" stroke="black" cx="175.25" cy="-26.87" rx="45.01" ry="26.74"/>
<text text-anchor="middle" x="175.25" y="-30.67" font-family="Times,serif" font-size="14.00">design</text>
<text text-anchor="middle" x="175.25" y="-15.67" font-family="Times,serif" font-size="14.00">設計</text>
</g>
<!-- spec -->
<g id="node5" class="node">
<title>spec</title>
<g id="a_node5"><a xlink:title="設計書&#10;criteria: 設計レビュー完了">
<polygon fill="none" stroke="black" points="321.51,-45.87 256.51,-45.87 256.51,-7.87 321.51,-7.87 321.51,-45.87"/>
<text text-anchor="middle" x="289.01" y="-30.67" font-family="Times,serif" font-size="14.00">spec</text>
<text text-anchor="middle" x="289.01" y="-15.67" font-family="Times,serif" font-size="14.00">設計書</text>
</a>
</g>
</g>
<!-- design&#45;&gt;spec -->
<g id="edge2" class="edge">
<title>design&#45;&gt;spec</title>
<path fill="none" stroke="black" d="M220.74,-26.87C229.13,-26.87 237.88,-26.87 246.18,-26.87"/>
<polygon fill="black" stroke="black" points="246.4,-30.37 256.4,-26.87 246.4,-23.37 246.4,-30.37"/>
</g>
<!-- impl -->
<g id="node3" class="node">
<title>impl</title>
<ellipse fill="none" stroke="black" cx="391.45" cy="-26.87" rx="33.88" ry="26.74"/>
<text text-anchor="middle" x="391.45" y="-30.67" font-family="Times,serif" font-size="14.00">impl</text>
<text text-anchor="middle" x="391.45" y="-15.67" font-family="Times,serif" font-size="14.00">実装</text>
</g>
<!-- impl&#45;&gt;code -->
<g id="edge4" class="edge">
<title>impl&#45;&gt;code</title>
<path fill="none" stroke="black" d="M425.7,-26.87C433.61,-26.87 442.27,-26.87 450.9,-26.87"/>
<polygon fill="black" stroke="black" points="450.97,-30.37 460.97,-26.87 450.97,-23.37 450.97,-30.37"/>
</g>
<!-- req -->
<g id="node4" class="node">
<title>req</title>
<g id="a_node4"><a xlink:title="要求仕様書&#10;criteria: ステークホルダー承認済み">
<polygon fill="none" stroke="black" stroke-width="2" points="94,-45.87 0,-45.87 0,-7.87 94,-7.87 94,-45.87"/>
<text text-anchor="middle" x="47" y="-30.67" font-family="Times,serif" font-size="14.00">req</text>
<text text-anchor="middle" x="47" y="-15.67" font-family="Times,serif" font-size="14.00">要求仕様書</text>
</a>
</g>
</g>
<!-- req&#45;&gt;design -->
<g id="edge1" class="edge">
<title>req&#45;&gt;design</title>
<path fill="none" stroke="black" d="M94.3,-26.87C102.5,-26.87 111.12,-26.87 119.53,-26.87"/>
<polygon fill="black" stroke="black" points="119.65,-30.37 129.65,-26.87 119.65,-23.37 119.65,-30.37"/>
</g>
<!-- spec&#45;&gt;impl -->
<g id="edge3" class="edge">
<title>spec&#45;&gt;impl</title>
<path fill="none" stroke="black" d="M321.51,-26.87C329.61,-26.87 338.47,-26.87 347.05,-26.87"/>
<polygon fill="black" stroke="black" points="347.32,-30.37 357.32,-26.87 347.32,-23.37 347.32,-30.37"/>
</g>
</g>
</svg>
