<?xml version="1.0" encoding="UTF-8" standalone="no"?>
<!DOCTYPE svg PUBLIC "-//W3C//DTD SVG 1.1//EN"
 "http://www.w3.org/Graphics/SVG/1.1/DTD/svg11.dtd">
<!-- Generated by graphviz version 14.1.5 (20260411.2331)
 -->
<!-- Title: PFDSL Pages: 1 -->
<svg width="318pt" height="66pt"
 viewBox="0.00 0.00 318.00 66.00" xmlns="http://www.w3.org/2000/svg" xmlns:xlink="http://www.w3.org/1999/xlink">
<g id="graph0" class="graph" transform="scale(1 1) rotate(0) translate(4 61.98)">
<title>PFDSL</title>
<polygon fill="white" stroke="none" points="-4,4 -4,-61.98 314.05,-61.98 314.05,4 -4,4"/>
<!-- build -->
<g id="node1" class="node">
<title>build</title>
<g id="a_node1"><a xlink:title="Build&#10;command: npm run build">
<ellipse fill="none" stroke="black" cx="154.28" cy="-28.99" rx="32.53" ry="28.99"/>
<text xml:space="preserve" text-anchor="middle" x="154.28" y="-32.19" font-family="Times,serif" font-size="14.00">build</text>
<text xml:space="preserve" text-anchor="middle" x="154.28" y="-15.69" font-family="Times,serif" font-size="14.00">Build</text>
</a>
</g>
</g>
<!-- output -->
<g id="node2" class="node">
<title>output</title>
<g id="a_node2"><a xlink:title="Build Output&#10;location: dist/index.js">
<polygon fill="none" stroke="black" stroke-width="2" points="310.05,-49.49 222.8,-49.49 222.8,-8.49 310.05,-8.49 310.05,-49.49"/>
<text xml:space="preserve" text-anchor="middle" x="266.43" y="-32.19" font-family="Times,serif" font-size="14.00">output</text>
<text xml:space="preserve" text-anchor="middle" x="266.43" y="-15.69" font-family="Times,serif" font-size="14.00">Build Output</text>
</a>
</g>
</g>
<!-- build&#45;&gt;output -->
<g id="edge2" class="edge">
<title>build&#45;&gt;output</title>
<path fill="none" stroke="black" d="M187.14,-28.99C194.57,-28.99 202.68,-28.99 210.79,-28.99"/>
<polygon fill="black" stroke="black" points="210.65,-32.49 220.65,-28.99 210.65,-25.49 210.65,-32.49"/>
</g>
<!-- source -->
<g id="node3" class="node">
<title>source</title>
<polygon fill="none" stroke="black" stroke-width="2" points="85.75,-49.49 0,-49.49 0,-8.49 85.75,-8.49 85.75,-49.49"/>
<text xml:space="preserve" text-anchor="middle" x="42.88" y="-32.19" font-family="Times,serif" font-size="14.00">source</text>
<text xml:space="preserve" text-anchor="middle" x="42.88" y="-15.69" font-family="Times,serif" font-size="14.00">Source Code</text>
</g>
<!-- source&#45;&gt;build -->
<g id="edge1" class="edge">
<title>source&#45;&gt;build</title>
<path fill="none" stroke="black" d="M86.49,-28.99C94.22,-28.99 102.28,-28.99 110.03,-28.99"/>
<polygon fill="black" stroke="black" points="109.94,-32.49 119.94,-28.99 109.94,-25.49 109.94,-32.49"/>
</g>
</g>
</svg>
