<?xml version="1.0" encoding="UTF-8" standalone="no"?>
<!DOCTYPE svg PUBLIC "-//W3C//DTD SVG 1.1//EN"
 "http://www.w3.org/Graphics/SVG/1.1/DTD/svg11.dtd">
<!-- Generated by graphviz version 14.0.1 (20251006.0113)
 -->
<!-- Title: PFDSL Pages: 1 -->
<svg width="366pt" height="74pt"
 viewBox="0.00 0.00 366.00 74.00" xmlns="http://www.w3.org/2000/svg" xmlns:xlink="http://www.w3.org/1999/xlink">
<g id="graph0" class="graph" transform="scale(1 1) rotate(0) translate(4 69.99)">
<title>PFDSL</title>
<polygon fill="white" stroke="none" points="-4,4 -4,-69.99 362.05,-69.99 362.05,4 -4,4"/>
<!-- build -->
<g id="node1" class="node">
<title>build</title>
<ellipse fill="none" stroke="black" cx="186.53" cy="-37" rx="32.53" ry="28.99"/>
<text xml:space="preserve" text-anchor="middle" x="186.53" y="-40.2" font-family="Times,serif" font-size="14.00">build</text>
<text xml:space="preserve" text-anchor="middle" x="186.53" y="-23.7" font-family="Times,serif" font-size="14.00">Build</text>
</g>
<!-- implementation -->
<g id="node2" class="node">
<title>implementation</title>
<polygon fill="none" stroke="black" stroke-width="2" points="358.05,-57.5 255.05,-57.5 255.05,-16.5 358.05,-16.5 358.05,-57.5"/>
<text xml:space="preserve" text-anchor="middle" x="306.55" y="-40.2" font-family="Times,serif" font-size="14.00">implementation</text>
<text xml:space="preserve" text-anchor="middle" x="306.55" y="-23.7" font-family="Times,serif" font-size="14.00">Implementation</text>
<text xml:space="preserve" text-anchor="middle" x="244.93" y="-3.2" font-family="Times,serif" font-size="14.00">wip</text>
</g>
<!-- build&#45;&gt;implementation -->
<g id="edge2" class="edge">
<title>build&#45;&gt;implementation</title>
<path fill="none" stroke="black" d="M219.47,-37C226.8,-37 234.84,-37 242.98,-37"/>
<polygon fill="black" stroke="black" points="242.96,-40.5 252.96,-37 242.96,-33.5 242.96,-40.5"/>
</g>
<!-- requirements -->
<g id="node3" class="node">
<title>requirements</title>
<polygon fill="none" stroke="black" stroke-width="2" points="118,-57.5 26.25,-57.5 26.25,-16.5 118,-16.5 118,-57.5"/>
<text xml:space="preserve" text-anchor="middle" x="72.12" y="-40.2" font-family="Times,serif" font-size="14.00">requirements</text>
<text xml:space="preserve" text-anchor="middle" x="72.12" y="-23.7" font-family="Times,serif" font-size="14.00">Requirements</text>
<text xml:space="preserve" text-anchor="middle" x="13.12" y="-3.2" font-family="Times,serif" font-size="14.00">done</text>
</g>
<!-- requirements&#45;&gt;build -->
<g id="edge1" class="edge">
<title>requirements&#45;&gt;build</title>
<path fill="none" stroke="black" d="M118.84,-37C126.59,-37 134.62,-37 142.3,-37"/>
<polygon fill="black" stroke="black" points="142.1,-40.5 152.1,-37 142.1,-33.5 142.1,-40.5"/>
</g>
</g>
</svg>
