<?xml version="1.0" encoding="UTF-8" standalone="no"?>
<!DOCTYPE svg PUBLIC "-//W3C//DTD SVG 1.1//EN"
 "http://www.w3.org/Graphics/SVG/1.1/DTD/svg11.dtd">
<!-- Generated by graphviz version 15.0.0 (0)
 -->
<!-- Title: PFDSL Pages: 1 -->
<svg width="612pt" height="132pt"
 viewBox="0.00 0.00 612.00 132.00" xmlns="http://www.w3.org/2000/svg" xmlns:xlink="http://www.w3.org/1999/xlink">
<g id="graph0" class="graph" transform="scale(1 1) rotate(0) translate(4 128.19)">
<title>PFDSL</title>
<polygon fill="white" stroke="none" points="-4,4 -4,-128.19 608.34,-128.19 608.34,4 -4,4"/>
<text xml:space="preserve" text-anchor="middle" x="302.17" y="-107.59" font-family="Times,serif" font-size="14.00">Issue 依存フロー（2026&#45;06） — diff</text>
<text xml:space="preserve" text-anchor="middle" x="302.17" y="-90.79" font-family="Times,serif" font-size="14.00">green = added · red = removed · yellow = changed</text>
<!-- cli_tool -->
<g id="node1" class="node">
<title>cli_tool</title>
<polygon fill="#f5f5f5" stroke="#bbbbbb" points="136.8,-62.1 0,-62.1 0,-20.5 136.8,-20.5 136.8,-62.1"/>
<text xml:space="preserve" text-anchor="middle" x="68.4" y="-45.5" font-family="Times,serif" font-size="14.00" fill="#777777">cli_tool</text>
<text xml:space="preserve" text-anchor="middle" x="68.4" y="-28.7" font-family="Times,serif" font-size="14.00" fill="#777777">CLI 実装（現行）</text>
</g>
<!-- move_diagrams_external -->
<g id="node3" class="node">
<title>move_diagrams_external</title>
<ellipse fill="#c3e6cb" stroke="#28a745" cx="284.17" cy="-41.3" rx="111.37" ry="41.3"/>
<text xml:space="preserve" text-anchor="middle" x="284.17" y="-53.9" font-family="Times,serif" font-size="14.00">move_diagrams_external</text>
<text xml:space="preserve" text-anchor="middle" x="284.17" y="-37.1" font-family="Times,serif" font-size="14.00">PR差分画像を外部リ</text>
<text xml:space="preserve" text-anchor="middle" x="284.17" y="-20.3" font-family="Times,serif" font-size="14.00">ポへ移動</text>
</g>
<!-- cli_tool&#45;&gt;move_diagrams_external -->
<g id="edge1" class="edge">
<title>cli_tool&#45;&gt;move_diagrams_external</title>
<path fill="none" stroke="#28a745" d="M137.04,-41.3C144.86,-41.3 153.01,-41.3 161.27,-41.3"/>
<polygon fill="#28a745" stroke="#28a745" points="161.09,-44.8 171.09,-41.3 161.09,-37.8 161.09,-44.8"/>
</g>
<!-- i76_external_diagrams -->
<g id="node2" class="node">
<title>i76_external_diagrams</title>
<polygon fill="#c3e6cb" stroke="#28a745" points="604.34,-70.5 431.54,-70.5 431.54,-12.1 604.34,-12.1 604.34,-70.5"/>
<text xml:space="preserve" text-anchor="middle" x="517.94" y="-53.9" font-family="Times,serif" font-size="14.00">i76_external_diagrams</text>
<text xml:space="preserve" text-anchor="middle" x="517.94" y="-37.1" font-family="Times,serif" font-size="14.00">PR差分画像外部リポ</text>
<text xml:space="preserve" text-anchor="middle" x="517.94" y="-20.3" font-family="Times,serif" font-size="14.00">運用 (#76)</text>
</g>
<!-- move_diagrams_external&#45;&gt;i76_external_diagrams -->
<g id="edge2" class="edge">
<title>move_diagrams_external&#45;&gt;i76_external_diagrams</title>
<path fill="none" stroke="#28a745" d="M395.97,-41.3C403.94,-41.3 411.95,-41.3 419.84,-41.3"/>
<polygon fill="#28a745" stroke="#28a745" points="419.78,-44.8 429.78,-41.3 419.78,-37.8 419.78,-44.8"/>
</g>
</g>
</svg>
