<?xml version="1.0" encoding="UTF-8" standalone="no"?>
<!DOCTYPE svg PUBLIC "-//W3C//DTD SVG 1.1//EN"
 "http://www.w3.org/Graphics/SVG/1.1/DTD/svg11.dtd">
<!-- Generated by graphviz version 15.0.0 (0)
 -->
<!-- Title: PFDSL Pages: 1 -->
<svg width="592pt" height="382pt"
 viewBox="0.00 0.00 592.00 382.00" xmlns="http://www.w3.org/2000/svg" xmlns:xlink="http://www.w3.org/1999/xlink">
<g id="graph0" class="graph" transform="scale(1 1) rotate(0) translate(4 378)">
<title>PFDSL</title>
<polygon fill="white" stroke="none" points="-4,4 -4,-378 588.04,-378 588.04,4 -4,4"/>
<text xml:space="preserve" text-anchor="middle" x="292.02" y="-357.4" font-family="Times,serif" font-size="14.00">Issue 依存フロー（2026&#45;06） — diff</text>
<text xml:space="preserve" text-anchor="middle" x="292.02" y="-340.6" font-family="Times,serif" font-size="14.00">green = added · red = removed · yellow = changed</text>
<!-- draft_multifile_specs -->
<g id="node1" class="node">
<title>draft_multifile_specs</title>
<ellipse fill="#f5f5f5" stroke="#bbbbbb" cx="95.44" cy="-139.2" rx="95.44" ry="41.3"/>
<text xml:space="preserve" text-anchor="middle" x="95.44" y="-151.8" font-family="Times,serif" font-size="14.00" fill="#777777">draft_multifile_specs</text>
<text xml:space="preserve" text-anchor="middle" x="95.44" y="-135" font-family="Times,serif" font-size="14.00" fill="#777777">階層・プリセット共</text>
<text xml:space="preserve" text-anchor="middle" x="95.44" y="-118.2" font-family="Times,serif" font-size="14.00" fill="#777777">同起草</text>
</g>
<!-- hierarchy_spec -->
<g id="node2" class="node">
<title>hierarchy_spec</title>
<polygon fill="#c3e6cb" stroke="#28a745" points="378.07,-254 226.87,-254 226.87,-212.4 378.07,-212.4 378.07,-254"/>
<text xml:space="preserve" text-anchor="middle" x="302.47" y="-237.4" font-family="Times,serif" font-size="14.00">hierarchy_spec</text>
<text xml:space="preserve" text-anchor="middle" x="302.47" y="-220.6" font-family="Times,serif" font-size="14.00">階層PFD仕様案 (#5)</text>
</g>
<!-- draft_multifile_specs&#45;&gt;hierarchy_spec -->
<g id="edge1" class="edge">
<title>draft_multifile_specs&#45;&gt;hierarchy_spec</title>
<path fill="none" stroke="#28a745" d="M158.36,-170.74C179.89,-181.4 204.29,-193.14 226.87,-203.2 230.19,-204.68 233.6,-206.16 237.05,-207.64"/>
<polygon fill="#28a745" stroke="#28a745" points="235.52,-210.79 246.09,-211.45 238.23,-204.34 235.52,-210.79"/>
</g>
<!-- i5_hierarchy_spec -->
<g id="node4" class="node">
<title>i5_hierarchy_spec</title>
<polygon fill="#f5c6cb" stroke="#dc3545" points="378.07,-194 226.87,-194 226.87,-152.4 378.07,-152.4 378.07,-194"/>
<text xml:space="preserve" text-anchor="middle" x="302.47" y="-177.4" font-family="Times,serif" font-size="14.00">i5_hierarchy_spec</text>
<text xml:space="preserve" text-anchor="middle" x="302.47" y="-160.6" font-family="Times,serif" font-size="14.00">階層PFD仕様案 (#5)</text>
</g>
<!-- draft_multifile_specs&#45;&gt;i5_hierarchy_spec -->
<g id="edge2" class="edge">
<title>draft_multifile_specs&#45;&gt;i5_hierarchy_spec</title>
<path fill="none" stroke="#dc3545" stroke-dasharray="5,2" d="M185.17,-153.92C195.16,-155.57 205.33,-157.26 215.28,-158.91"/>
<polygon fill="#dc3545" stroke="#dc3545" points="214.48,-162.32 224.91,-160.5 215.62,-155.42 214.48,-162.32"/>
</g>
<!-- i6_presets_spec -->
<g id="node5" class="node">
<title>i6_presets_spec</title>
<polygon fill="#f5c6cb" stroke="#dc3545" points="378.07,-134.4 226.87,-134.4 226.87,-76 378.07,-76 378.07,-134.4"/>
<text xml:space="preserve" text-anchor="middle" x="302.47" y="-117.8" font-family="Times,serif" font-size="14.00">i6_presets_spec</text>
<text xml:space="preserve" text-anchor="middle" x="302.47" y="-101" font-family="Times,serif" font-size="14.00">共有プリセット仕様</text>
<text xml:space="preserve" text-anchor="middle" x="302.47" y="-84.2" font-family="Times,serif" font-size="14.00">案 (#6)</text>
</g>
<!-- draft_multifile_specs&#45;&gt;i6_presets_spec -->
<g id="edge3" class="edge">
<title>draft_multifile_specs&#45;&gt;i6_presets_spec</title>
<path fill="none" stroke="#dc3545" stroke-dasharray="5,2" d="M185.17,-124.48C195.16,-122.83 205.33,-121.14 215.28,-119.49"/>
<polygon fill="#dc3545" stroke="#dc3545" points="215.62,-122.98 224.91,-117.9 214.48,-116.08 215.62,-122.98"/>
</g>
<!-- presets_spec -->
<g id="node8" class="node">
<title>presets_spec</title>
<polygon fill="#c3e6cb" stroke="#28a745" points="378.07,-58.4 226.87,-58.4 226.87,0 378.07,0 378.07,-58.4"/>
<text xml:space="preserve" text-anchor="middle" x="302.47" y="-41.8" font-family="Times,serif" font-size="14.00">presets_spec</text>
<text xml:space="preserve" text-anchor="middle" x="302.47" y="-25" font-family="Times,serif" font-size="14.00">共有プリセット仕様</text>
<text xml:space="preserve" text-anchor="middle" x="302.47" y="-8.2" font-family="Times,serif" font-size="14.00">案 (#6)</text>
</g>
<!-- draft_multifile_specs&#45;&gt;presets_spec -->
<g id="edge4" class="edge">
<title>draft_multifile_specs&#45;&gt;presets_spec</title>
<path fill="none" stroke="#28a745" d="M154.65,-106.53C177.12,-94.05 203.11,-79.81 226.87,-67.2 228.8,-66.18 230.75,-65.15 232.73,-64.11"/>
<polygon fill="#28a745" stroke="#28a745" points="234.15,-67.32 241.39,-59.59 230.91,-61.11 234.15,-67.32"/>
</g>
<!-- integrate_multifile -->
<g id="node6" class="node">
<title>integrate_multifile</title>
<ellipse fill="#f5f5f5" stroke="#bbbbbb" cx="499.06" cy="-139.2" rx="84.98" ry="41.3"/>
<text xml:space="preserve" text-anchor="middle" x="499.06" y="-151.8" font-family="Times,serif" font-size="14.00" fill="#777777">integrate_multifile</text>
<text xml:space="preserve" text-anchor="middle" x="499.06" y="-135" font-family="Times,serif" font-size="14.00" fill="#777777">マルチファイル仕様</text>
<text xml:space="preserve" text-anchor="middle" x="499.06" y="-118.2" font-family="Times,serif" font-size="14.00" fill="#777777">統合</text>
</g>
<!-- hierarchy_spec&#45;&gt;integrate_multifile -->
<g id="edge5" class="edge">
<title>hierarchy_spec&#45;&gt;integrate_multifile</title>
<path fill="none" stroke="#28a745" d="M358.36,-211.91C365.04,-209.09 371.74,-206.15 378.07,-203.2 395.96,-194.86 414.96,-185.15 432.44,-175.84"/>
<polygon fill="#28a745" stroke="#28a745" points="434.04,-178.95 441.2,-171.14 430.73,-172.78 434.04,-178.95"/>
</g>
<!-- i127_process_tags -->
<g id="node3" class="node">
<title>i127_process_tags</title>
<polygon fill="#ffeeba" stroke="#e0a800" points="181.84,-256.4 9.04,-256.4 9.04,-198 181.84,-198 181.84,-256.4"/>
<text xml:space="preserve" text-anchor="middle" x="95.44" y="-239.8" font-family="Times,serif" font-size="14.00">i127_process_tags</text>
<text xml:space="preserve" text-anchor="middle" x="95.44" y="-223" font-family="Times,serif" font-size="14.00">process tags 明示許可</text>
<text xml:space="preserve" text-anchor="middle" x="95.44" y="-206.2" font-family="Times,serif" font-size="14.00"> (#127)</text>
</g>
<!-- i5_hierarchy_spec&#45;&gt;integrate_multifile -->
<g id="edge6" class="edge">
<title>i5_hierarchy_spec&#45;&gt;integrate_multifile</title>
<path fill="none" stroke="#dc3545" stroke-dasharray="5,2" d="M378.42,-160.1C387.89,-158.45 397.65,-156.74 407.33,-155.05"/>
<polygon fill="#dc3545" stroke="#dc3545" points="407.88,-158.51 417.13,-153.34 406.68,-151.61 407.88,-158.51"/>
</g>
<!-- i6_presets_spec&#45;&gt;integrate_multifile -->
<g id="edge7" class="edge">
<title>i6_presets_spec&#45;&gt;integrate_multifile</title>
<path fill="none" stroke="#dc3545" stroke-dasharray="5,2" d="M378.42,-118.3C387.89,-119.95 397.65,-121.66 407.33,-123.35"/>
<polygon fill="#dc3545" stroke="#dc3545" points="406.68,-126.79 417.13,-125.06 407.88,-119.89 406.68,-126.79"/>
</g>
<!-- multifile_policy -->
<g id="node7" class="node">
<title>multifile_policy</title>
<polygon fill="#ffeeba" stroke="#e0a800" points="171.04,-332.4 19.84,-332.4 19.84,-274 171.04,-274 171.04,-332.4"/>
<text xml:space="preserve" text-anchor="middle" x="95.44" y="-315.8" font-family="Times,serif" font-size="14.00">multifile_policy</text>
<text xml:space="preserve" text-anchor="middle" x="95.44" y="-299" font-family="Times,serif" font-size="14.00">マルチファイル意味</text>
<text xml:space="preserve" text-anchor="middle" x="95.44" y="-282.2" font-family="Times,serif" font-size="14.00">論方針</text>
</g>
<!-- presets_spec&#45;&gt;integrate_multifile -->
<g id="edge8" class="edge">
<title>presets_spec&#45;&gt;integrate_multifile</title>
<path fill="none" stroke="#28a745" d="M362.31,-58.69C367.67,-61.52 372.98,-64.38 378.07,-67.2 397.08,-77.73 417.44,-89.68 435.9,-100.79"/>
<polygon fill="#28a745" stroke="#28a745" points="433.99,-103.72 444.36,-105.9 437.61,-97.73 433.99,-103.72"/>
</g>
</g>
</svg>
