<?xml version="1.0" encoding="UTF-8" standalone="no"?>
<!DOCTYPE svg PUBLIC "-//W3C//DTD SVG 1.1//EN"
 "http://www.w3.org/Graphics/SVG/1.1/DTD/svg11.dtd">
<!-- Generated by graphviz version 15.0.0 (0)
 -->
<!-- Title: PFDSL Pages: 1 -->
<svg width="631pt" height="176pt"
 viewBox="0.00 0.00 631.00 176.00" xmlns="http://www.w3.org/2000/svg" xmlns:xlink="http://www.w3.org/1999/xlink">
<g id="graph0" class="graph" transform="scale(1 1) rotate(0) translate(4 172.22)">
<title>PFDSL</title>
<polygon fill="white" stroke="none" points="-4,4 -4,-172.22 627.4,-172.22 627.4,4 -4,4"/>
<text xml:space="preserve" text-anchor="middle" x="311.7" y="-151.62" font-family="Times,serif" font-size="14.00">Issue 依存フロー（2026&#45;06） — diff</text>
<text xml:space="preserve" text-anchor="middle" x="311.7" y="-134.82" font-family="Times,serif" font-size="14.00">green = added · red = removed · yellow = changed</text>
<!-- i119_published_extension -->
<g id="node1" class="node">
<title>i119_published_extension</title>
<polygon fill="#ffeeba" stroke="#e0a800" points="194.4,-58.4 0,-58.4 0,0 194.4,0 194.4,-58.4"/>
<text xml:space="preserve" text-anchor="middle" x="97.2" y="-41.8" font-family="Times,serif" font-size="14.00">i119_published_extension</text>
<text xml:space="preserve" text-anchor="middle" x="97.2" y="-25" font-family="Times,serif" font-size="14.00">Marketplace 公開済み</text>
<text xml:space="preserve" text-anchor="middle" x="97.2" y="-8.2" font-family="Times,serif" font-size="14.00"> extension (#119)</text>
</g>
<!-- i137_status_lint -->
<g id="node2" class="node">
<title>i137_status_lint</title>
<polygon fill="#f5c6cb" stroke="#dc3545" points="623.4,-126.4 465,-126.4 465,-68 623.4,-68 623.4,-126.4"/>
<text xml:space="preserve" text-anchor="middle" x="544.2" y="-109.8" font-family="Times,serif" font-size="14.00">i137_status_lint</text>
<text xml:space="preserve" text-anchor="middle" x="544.2" y="-93" font-family="Times,serif" font-size="14.00">status 非単調 lint </text>
<text xml:space="preserve" text-anchor="middle" x="544.2" y="-76.2" font-family="Times,serif" font-size="14.00">#137)</text>
</g>
<!-- implement_status_lint -->
<g id="node3" class="node">
<title>implement_status_lint</title>
<ellipse fill="#f5c6cb" stroke="#dc3545" cx="329.7" cy="-97.2" rx="99.3" ry="29.42"/>
<text xml:space="preserve" text-anchor="middle" x="329.7" y="-101.4" font-family="Times,serif" font-size="14.00">implement_status_lint</text>
<text xml:space="preserve" text-anchor="middle" x="329.7" y="-84.6" font-family="Times,serif" font-size="14.00">status非単調lint実装</text>
</g>
<!-- implement_status_lint&#45;&gt;i137_status_lint -->
<g id="edge1" class="edge">
<title>implement_status_lint&#45;&gt;i137_status_lint</title>
<path fill="none" stroke="#dc3545" stroke-dasharray="5,2" d="M429.49,-97.2C437.43,-97.2 445.42,-97.2 453.29,-97.2"/>
<polygon fill="#dc3545" stroke="#dc3545" points="453.2,-100.7 463.2,-97.2 453.2,-93.7 453.2,-100.7"/>
</g>
<!-- lint_checker -->
<g id="node4" class="node">
<title>lint_checker</title>
<polygon fill="#f5f5f5" stroke="#bbbbbb" points="180,-118 14.4,-118 14.4,-76.4 180,-76.4 180,-118"/>
<text xml:space="preserve" text-anchor="middle" x="97.2" y="-101.4" font-family="Times,serif" font-size="14.00" fill="#777777">lint_checker</text>
<text xml:space="preserve" text-anchor="middle" x="97.2" y="-84.6" font-family="Times,serif" font-size="14.00" fill="#777777">lint拡張checker (#4)</text>
</g>
<!-- lint_checker&#45;&gt;implement_status_lint -->
<g id="edge2" class="edge">
<title>lint_checker&#45;&gt;implement_status_lint</title>
<path fill="none" stroke="#dc3545" stroke-dasharray="5,2" d="M180.44,-97.2C192.84,-97.2 205.8,-97.2 218.67,-97.2"/>
<polygon fill="#dc3545" stroke="#dc3545" points="218.42,-100.7 228.42,-97.2 218.42,-93.7 218.42,-100.7"/>
</g>
</g>
</svg>
