<?xml version="1.0" encoding="UTF-8" standalone="no"?>
<!DOCTYPE svg PUBLIC "-//W3C//DTD SVG 1.1//EN"
 "http://www.w3.org/Graphics/SVG/1.1/DTD/svg11.dtd">
<!-- Generated by graphviz version 15.0.0 (0)
 -->
<!-- Title: PFDSL Pages: 1 -->
<svg width="1926pt" height="1117pt"
 viewBox="0.00 0.00 1926.00 1117.00" xmlns="http://www.w3.org/2000/svg" xmlns:xlink="http://www.w3.org/1999/xlink">
<g id="graph0" class="graph" transform="scale(1 1) rotate(0) translate(4 1112.82)">
<title>PFDSL</title>
<polygon fill="white" stroke="none" points="-4,4 -4,-1112.82 1921.61,-1112.82 1921.61,4 -4,4"/>
<text xml:space="preserve" text-anchor="middle" x="958.81" y="-1092.22" font-family="Times,serif" font-size="14.00">Issue 依存フロー（2026&#45;06）</text>
<!-- adr_corpus -->
<g id="node1" class="node">
<title>adr_corpus</title>
<g id="a_node1"><a xlink:title="ADR 群 (docs/adr)&#10;&#10;方法論の設計決定記録。一覧と本数は docs/adr/README.md が一次情報（ここに数を書かない — ドリフトするため）&#10;criteria: 対象判断が文書化され docs/adr/README.md の一覧に追記済み&#10;location: docs/adr/">
<polygon fill="#d4edda" stroke="black" stroke-width="2" points="178.41,-58.4 34.41,-58.4 34.41,-16.8 178.41,-16.8 178.41,-58.4"/>
<text xml:space="preserve" text-anchor="middle" x="106.41" y="-41.8" font-family="Times,serif" font-size="14.00">adr_corpus</text>
<text xml:space="preserve" text-anchor="middle" x="106.41" y="-25" font-family="Times,serif" font-size="14.00">ADR 群 (docs/adr)</text>
</a>
</g>
<text xml:space="preserve" text-anchor="middle" x="20.81" y="-4.2" font-family="Times,serif" font-size="14.00">done</text>
</g>
<!-- write_article -->
<g id="node38" class="node">
<title>write_article</title>
<ellipse fill="none" stroke="black" cx="342.88" cy="-37.6" rx="61.33" ry="29.42"/>
<text xml:space="preserve" text-anchor="middle" x="342.88" y="-41.8" font-family="Times,serif" font-size="14.00">write_article</text>
<text xml:space="preserve" text-anchor="middle" x="342.88" y="-25" font-family="Times,serif" font-size="14.00">記事執筆</text>
</g>
<!-- adr_corpus&#45;&gt;write_article -->
<g id="edge37" class="edge">
<title>adr_corpus&#45;&gt;write_article</title>
<path fill="none" stroke="black" d="M179.35,-37.6C208.11,-37.6 241.17,-37.6 269.93,-37.6"/>
<polygon fill="black" stroke="black" points="269.62,-41.1 279.62,-37.6 269.62,-34.1 269.62,-41.1"/>
</g>
<!-- audit_distribution -->
<g id="node2" class="node">
<title>audit_distribution</title>
<g id="a_node2"><a xlink:href="https://github.com/takasek/pfdsl/issues/43" xlink:title="L3資産の階層化配布 (#43)&#10;&#10;audit コア + flow&#45;sync action を skill 同梱・配布可能化。scripts/lib/issues&#45;flow&#45;audit.mjs を #37 と共有するため着手順を調整。実配布フローは #11&#10;criteria: install/ に配布可能ファイルが揃い、CI で identity が強制されている&#10;location: https://github.com/takasek/pfdsl/issues/43">
<polygon fill="#d4edda" stroke="black" stroke-width="2" points="680.14,-1006.8 528.94,-1006.8 528.94,-948.4 680.14,-948.4 680.14,-1006.8"/>
<text xml:space="preserve" text-anchor="middle" x="604.54" y="-990.2" font-family="Times,serif" font-size="14.00">audit_distribution</text>
<text xml:space="preserve" text-anchor="middle" x="604.54" y="-973.4" font-family="Times,serif" font-size="14.00">L3資産の階層化配布</text>
<text xml:space="preserve" text-anchor="middle" x="604.54" y="-956.6" font-family="Times,serif" font-size="14.00"> (#43)</text>
</a>
</g>
<text xml:space="preserve" text-anchor="middle" x="515.33" y="-935.8" font-family="Times,serif" font-size="14.00">done</text>
</g>
<!-- build_obsidian_plugin -->
<g id="node3" class="node">
<title>build_obsidian_plugin</title>
<g id="a_node3"><a xlink:title="Obsidianプラグイン実装">
<ellipse fill="none" stroke="black" cx="342.88" cy="-888.6" rx="100.41" ry="41.3"/>
<text xml:space="preserve" text-anchor="middle" x="342.88" y="-901.2" font-family="Times,serif" font-size="14.00">build_obsidian_plugin</text>
<text xml:space="preserve" text-anchor="middle" x="342.88" y="-884.4" font-family="Times,serif" font-size="14.00">Obsidianプラグイン</text>
<text xml:space="preserve" text-anchor="middle" x="342.88" y="-867.6" font-family="Times,serif" font-size="14.00">実装</text>
</a>
</g>
</g>
<!-- i3_obsidian_plugin -->
<g id="node16" class="node">
<title>i3_obsidian_plugin</title>
<g id="a_node16"><a xlink:href="https://github.com/takasek/pfdsl/issues/3" xlink:title="Obsidian プラグイン (#3)&#10;criteria: Obsidian 上で .pfdsl のプレビュー・編集が動作確認済み&#10;location: https://github.com/takasek/pfdsl/issues/3">
<polygon fill="#f8f9fa" stroke="black" stroke-width="2" points="687.34,-917.8 521.74,-917.8 521.74,-859.4 687.34,-859.4 687.34,-917.8"/>
<text xml:space="preserve" text-anchor="middle" x="604.54" y="-901.2" font-family="Times,serif" font-size="14.00">i3_obsidian_plugin</text>
<text xml:space="preserve" text-anchor="middle" x="604.54" y="-884.4" font-family="Times,serif" font-size="14.00">Obsidian プラグイン </text>
<text xml:space="preserve" text-anchor="middle" x="604.54" y="-867.6" font-family="Times,serif" font-size="14.00">(#3)</text>
</a>
</g>
<text xml:space="preserve" text-anchor="middle" x="509.29" y="-846.8" font-family="Times,serif" font-size="14.00">todo</text>
</g>
<!-- build_obsidian_plugin&#45;&gt;i3_obsidian_plugin -->
<g id="edge40" class="edge">
<title>build_obsidian_plugin&#45;&gt;i3_obsidian_plugin</title>
<path fill="none" stroke="black" d="M443.53,-888.6C465.23,-888.6 488.12,-888.6 509.59,-888.6"/>
<polygon fill="black" stroke="black" points="509.5,-892.1 519.5,-888.6 509.5,-885.1 509.5,-892.1"/>
</g>
<!-- cli_tool -->
<g id="node4" class="node">
<title>cli_tool</title>
<g id="a_node4"><a xlink:title="CLI 実装（現行）&#10;criteria: check/fmt/graph が全サンプルに対してエラーなし、npm 公開済み">
<polygon fill="#d4edda" stroke="black" stroke-width="2" points="174.81,-820.4 38.01,-820.4 38.01,-778.8 174.81,-778.8 174.81,-820.4"/>
<text xml:space="preserve" text-anchor="middle" x="106.41" y="-803.8" font-family="Times,serif" font-size="14.00">cli_tool</text>
<text xml:space="preserve" text-anchor="middle" x="106.41" y="-787" font-family="Times,serif" font-size="14.00">CLI 実装（現行）</text>
</a>
</g>
<text xml:space="preserve" text-anchor="middle" x="24.41" y="-766.2" font-family="Times,serif" font-size="14.00">done</text>
</g>
<!-- cli_tool&#45;&gt;build_obsidian_plugin -->
<g id="edge39" class="edge">
<title>cli_tool&#45;&gt;build_obsidian_plugin</title>
<path fill="none" stroke="black" d="M164.77,-821.37C192.66,-831.96 226.74,-844.89 257.52,-856.58"/>
<polygon fill="black" stroke="black" points="256.25,-859.84 266.84,-860.12 258.73,-853.3 256.25,-859.84"/>
</g>
<!-- implement_lints -->
<g id="node20" class="node">
<title>implement_lints</title>
<ellipse fill="none" stroke="black" cx="342.88" cy="-645.6" rx="75.66" ry="29.42"/>
<text xml:space="preserve" text-anchor="middle" x="342.88" y="-649.8" font-family="Times,serif" font-size="14.00">implement_lints</text>
<text xml:space="preserve" text-anchor="middle" x="342.88" y="-633" font-family="Times,serif" font-size="14.00">lint実装</text>
</g>
<!-- cli_tool&#45;&gt;implement_lints -->
<g id="edge21" class="edge">
<title>cli_tool&#45;&gt;implement_lints</title>
<path fill="none" stroke="black" d="M123.62,-777.87C143.88,-752.14 180.87,-709.65 221.61,-684.6 235.29,-676.19 250.96,-669.41 266.38,-664"/>
<polygon fill="black" stroke="black" points="267.16,-667.43 275.55,-660.96 264.95,-660.79 267.16,-667.43"/>
</g>
<!-- implement_pr_diff_image -->
<g id="node21" class="node">
<title>implement_pr_diff_image</title>
<ellipse fill="none" stroke="black" cx="342.88" cy="-799.6" rx="115.23" ry="29.42"/>
<text xml:space="preserve" text-anchor="middle" x="342.88" y="-803.8" font-family="Times,serif" font-size="14.00">implement_pr_diff_image</text>
<text xml:space="preserve" text-anchor="middle" x="342.88" y="-787" font-family="Times,serif" font-size="14.00">PR diff画像実装</text>
</g>
<!-- cli_tool&#45;&gt;implement_pr_diff_image -->
<g id="edge41" class="edge">
<title>cli_tool&#45;&gt;implement_pr_diff_image</title>
<path fill="none" stroke="black" d="M175.54,-799.6C188.35,-799.6 202.1,-799.6 216.02,-799.6"/>
<polygon fill="black" stroke="black" points="215.69,-803.1 225.69,-799.6 215.69,-796.1 215.69,-803.1"/>
</g>
<!-- layer_audit_assets -->
<g id="node25" class="node">
<title>layer_audit_assets</title>
<ellipse fill="none" stroke="black" cx="342.88" cy="-977.6" rx="83.89" ry="29.42"/>
<text xml:space="preserve" text-anchor="middle" x="342.88" y="-981.8" font-family="Times,serif" font-size="14.00">layer_audit_assets</text>
<text xml:space="preserve" text-anchor="middle" x="342.88" y="-965" font-family="Times,serif" font-size="14.00">L3資産階層化</text>
</g>
<!-- cli_tool&#45;&gt;layer_audit_assets -->
<g id="edge35" class="edge">
<title>cli_tool&#45;&gt;layer_audit_assets</title>
<path fill="none" stroke="black" d="M119.66,-821.21C137.99,-851.7 175.42,-907.11 221.61,-938.6 233.28,-946.55 246.67,-952.97 260.19,-958.12"/>
<polygon fill="black" stroke="black" points="259,-961.41 269.6,-961.48 261.36,-954.82 259,-961.41"/>
</g>
<!-- publish_cli -->
<g id="node29" class="node">
<title>publish_cli</title>
<ellipse fill="none" stroke="black" cx="342.88" cy="-722.6" rx="55.31" ry="29.42"/>
<text xml:space="preserve" text-anchor="middle" x="342.88" y="-726.8" font-family="Times,serif" font-size="14.00">publish_cli</text>
<text xml:space="preserve" text-anchor="middle" x="342.88" y="-710" font-family="Times,serif" font-size="14.00">CLI公開</text>
</g>
<!-- cli_tool&#45;&gt;publish_cli -->
<g id="edge33" class="edge">
<title>cli_tool&#45;&gt;publish_cli</title>
<path fill="none" stroke="black" d="M172.61,-777.81C188.62,-772.48 205.73,-766.82 221.61,-761.6 242.02,-754.9 264.41,-747.62 284.27,-741.18"/>
<polygon fill="black" stroke="black" points="285.14,-744.58 293.58,-738.17 282.98,-737.92 285.14,-744.58"/>
</g>
<!-- criteria_spec -->
<g id="node5" class="node">
<title>criteria_spec</title>
<g id="a_node5"><a xlink:href="https://github.com/takasek/pfdsl/issues/7" xlink:title="合否基準仕様案 (#7)&#10;criteria: 仕様案として起草完了&#10;location: https://github.com/takasek/pfdsl/issues/7">
<polygon fill="#d4edda" stroke="black" points="683.74,-578.4 525.34,-578.4 525.34,-536.8 683.74,-536.8 683.74,-578.4"/>
<text xml:space="preserve" text-anchor="middle" x="604.54" y="-561.8" font-family="Times,serif" font-size="14.00">criteria_spec</text>
<text xml:space="preserve" text-anchor="middle" x="604.54" y="-545" font-family="Times,serif" font-size="14.00">合否基準仕様案 (#7)</text>
</a>
</g>
<text xml:space="preserve" text-anchor="middle" x="511.73" y="-524.2" font-family="Times,serif" font-size="14.00">done</text>
</g>
<!-- integrate_spec -->
<g id="node24" class="node">
<title>integrate_spec</title>
<ellipse fill="none" stroke="black" cx="813.42" cy="-378.6" rx="68.48" ry="29.42"/>
<text xml:space="preserve" text-anchor="middle" x="813.42" y="-382.8" font-family="Times,serif" font-size="14.00">integrate_spec</text>
<text xml:space="preserve" text-anchor="middle" x="813.42" y="-366" font-family="Times,serif" font-size="14.00">仕様統合</text>
</g>
<!-- criteria_spec&#45;&gt;integrate_spec -->
<g id="edge13" class="edge">
<title>criteria_spec&#45;&gt;integrate_spec</title>
<path fill="none" stroke="black" d="M678.14,-536.35C689.02,-531.47 699.68,-525.6 708.94,-518.6 744.83,-491.46 773.98,-448.53 792.08,-417.36"/>
<polygon fill="black" stroke="black" points="794.93,-419.43 796.82,-409.01 788.84,-415.98 794.93,-419.43"/>
</g>
<!-- design_notes -->
<g id="node6" class="node">
<title>design_notes</title>
<g id="a_node6"><a xlink:href="https://github.com/takasek/pfdsl/issues/9" xlink:title="設計判断ノート・分岐なし方針 (#9)&#10;criteria: 仕様案として起草完了&#10;location: https://github.com/takasek/pfdsl/issues/9">
<polygon fill="#d4edda" stroke="black" points="680.14,-185.8 528.94,-185.8 528.94,-127.4 680.14,-127.4 680.14,-185.8"/>
<text xml:space="preserve" text-anchor="middle" x="604.54" y="-169.2" font-family="Times,serif" font-size="14.00">design_notes</text>
<text xml:space="preserve" text-anchor="middle" x="604.54" y="-152.4" font-family="Times,serif" font-size="14.00">設計判断ノート・分</text>
<text xml:space="preserve" text-anchor="middle" x="604.54" y="-135.6" font-family="Times,serif" font-size="14.00">岐なし方針 (#9)</text>
</a>
</g>
<text xml:space="preserve" text-anchor="middle" x="515.33" y="-114.8" font-family="Times,serif" font-size="14.00">done</text>
</g>
<!-- design_notes&#45;&gt;integrate_spec -->
<g id="edge16" class="edge">
<title>design_notes&#45;&gt;integrate_spec</title>
<path fill="none" stroke="black" d="M672.41,-186.19C685.37,-193.69 698.23,-202.53 708.94,-212.6 747.55,-248.92 777.55,-302.66 795.08,-339.08"/>
<polygon fill="black" stroke="black" points="791.83,-340.4 799.26,-347.96 798.17,-337.42 791.83,-340.4"/>
</g>
<!-- draft_criteria -->
<g id="node7" class="node">
<title>draft_criteria</title>
<ellipse fill="none" stroke="black" cx="342.88" cy="-568.6" rx="70.71" ry="29.42"/>
<text xml:space="preserve" text-anchor="middle" x="342.88" y="-572.8" font-family="Times,serif" font-size="14.00">draft_criteria</text>
<text xml:space="preserve" text-anchor="middle" x="342.88" y="-556" font-family="Times,serif" font-size="14.00">合否基準仕様起草</text>
</g>
<!-- draft_criteria&#45;&gt;criteria_spec -->
<g id="edge6" class="edge">
<title>draft_criteria&#45;&gt;criteria_spec</title>
<path fill="none" stroke="black" d="M413.46,-565.65C444.23,-564.35 480.81,-562.8 513.62,-561.41"/>
<polygon fill="black" stroke="black" points="513.69,-564.91 523.54,-560.99 513.4,-557.92 513.69,-564.91"/>
</g>
<!-- draft_external_stakeholders -->
<g id="node8" class="node">
<title>draft_external_stakeholders</title>
<g id="a_node8"><a xlink:title="externalStakeholders仕様起草&#10;&#10;artifact / process の externalStakeholders フィールドを spec に定義する。型・終端監査との連携（#37）・サンプル反映を含む">
<ellipse fill="none" stroke="black" cx="342.88" cy="-479.6" rx="121.26" ry="41.3"/>
<text xml:space="preserve" text-anchor="middle" x="342.88" y="-492.2" font-family="Times,serif" font-size="14.00">draft_external_stakeholders</text>
<text xml:space="preserve" text-anchor="middle" x="342.88" y="-475.4" font-family="Times,serif" font-size="14.00">externalStakeholders</text>
<text xml:space="preserve" text-anchor="middle" x="342.88" y="-458.6" font-family="Times,serif" font-size="14.00">仕様起草</text>
</a>
</g>
</g>
<!-- external_stakeholders_spec -->
<g id="node12" class="node">
<title>external_stakeholders_spec</title>
<g id="a_node12"><a xlink:href="https://github.com/takasek/pfdsl/issues/97" xlink:title="externalStakeholders フィールド仕様案 (#97)&#10;&#10;artifact / process に外部消費者を列挙するフィールド。owner と対称。終端監査（#37）で消費者として扱う。ecosystem 廃止（ADR&#45;0017）の代替手段。v0.0.7 スコープ&#10;criteria: 仕様案として起草完了&#10;location: https://github.com/takasek/pfdsl/issues/97">
<polygon fill="#d4edda" stroke="black" points="708.94,-509.2 500.14,-509.2 500.14,-434 708.94,-434 708.94,-509.2"/>
<text xml:space="preserve" text-anchor="middle" x="604.54" y="-492.6" font-family="Times,serif" font-size="14.00">external_stakeholders_spec</text>
<text xml:space="preserve" text-anchor="middle" x="604.54" y="-475.8" font-family="Times,serif" font-size="14.00">externalStakeholders</text>
<text xml:space="preserve" text-anchor="middle" x="604.54" y="-459" font-family="Times,serif" font-size="14.00">フィールド仕様案 </text>
<text xml:space="preserve" text-anchor="middle" x="604.54" y="-442.2" font-family="Times,serif" font-size="14.00">#97)</text>
</a>
</g>
<text xml:space="preserve" text-anchor="middle" x="486.53" y="-421.4" font-family="Times,serif" font-size="14.00">done</text>
</g>
<!-- draft_external_stakeholders&#45;&gt;external_stakeholders_spec -->
<g id="edge44" class="edge">
<title>draft_external_stakeholders&#45;&gt;external_stakeholders_spec</title>
<path fill="none" stroke="black" d="M463.83,-475.9C472.14,-475.65 480.51,-475.39 488.79,-475.14"/>
<polygon fill="black" stroke="black" points="488.62,-478.64 498.51,-474.84 488.41,-471.65 488.62,-478.64"/>
</g>
<!-- draft_location -->
<g id="node9" class="node">
<title>draft_location</title>
<g id="a_node9"><a xlink:title="location/command 起草">
<ellipse fill="none" stroke="black" cx="342.88" cy="-378.6" rx="84.99" ry="41.3"/>
<text xml:space="preserve" text-anchor="middle" x="342.88" y="-391.2" font-family="Times,serif" font-size="14.00">draft_location</text>
<text xml:space="preserve" text-anchor="middle" x="342.88" y="-374.4" font-family="Times,serif" font-size="14.00">location/command</text>
<text xml:space="preserve" text-anchor="middle" x="342.88" y="-357.6" font-family="Times,serif" font-size="14.00">起草</text>
</a>
</g>
</g>
<!-- location_spec -->
<g id="node27" class="node">
<title>location_spec</title>
<g id="a_node27"><a xlink:href="https://github.com/takasek/pfdsl/issues/13" xlink:title="location/command 仕様案 (#13)&#10;&#10;ノードと実ファイル・実行手順を結ぶメタデータ。パス解決規則のみ multifile 方針と接点&#10;criteria: 仕様案として起草完了&#10;location: https://github.com/takasek/pfdsl/issues/13">
<polygon fill="#d4edda" stroke="black" points="672.94,-407.8 536.14,-407.8 536.14,-349.4 672.94,-349.4 672.94,-407.8"/>
<text xml:space="preserve" text-anchor="middle" x="604.54" y="-391.2" font-family="Times,serif" font-size="14.00">location_spec</text>
<text xml:space="preserve" text-anchor="middle" x="604.54" y="-374.4" font-family="Times,serif" font-size="14.00">location/command</text>
<text xml:space="preserve" text-anchor="middle" x="604.54" y="-357.6" font-family="Times,serif" font-size="14.00">仕様案 (#13)</text>
</a>
</g>
<text xml:space="preserve" text-anchor="middle" x="522.53" y="-336.8" font-family="Times,serif" font-size="14.00">done</text>
</g>
<!-- draft_location&#45;&gt;location_spec -->
<g id="edge10" class="edge">
<title>draft_location&#45;&gt;location_spec</title>
<path fill="none" stroke="black" d="M428.18,-378.6C459.04,-378.6 493.82,-378.6 524.23,-378.6"/>
<polygon fill="black" stroke="black" points="524.14,-382.1 534.14,-378.6 524.14,-375.1 524.14,-382.1"/>
</g>
<!-- draft_multifile_specs -->
<g id="node10" class="node">
<title>draft_multifile_specs</title>
<g id="a_node10"><a xlink:title="階層・プリセット共同起草&#10;&#10;#5 と #6 は決定が往復で形成される相互依存のため分割せず共同設計する。共有決定は方針記録として外化">
<ellipse fill="none" stroke="black" cx="1231.97" cy="-120.6" rx="95.44" ry="41.3"/>
<text xml:space="preserve" text-anchor="middle" x="1231.97" y="-133.2" font-family="Times,serif" font-size="14.00">draft_multifile_specs</text>
<text xml:space="preserve" text-anchor="middle" x="1231.97" y="-116.4" font-family="Times,serif" font-size="14.00">階層・プリセット共</text>
<text xml:space="preserve" text-anchor="middle" x="1231.97" y="-99.6" font-family="Times,serif" font-size="14.00">同起草</text>
</a>
</g>
</g>
<!-- i5_hierarchy_spec -->
<g id="node17" class="node">
<title>i5_hierarchy_spec</title>
<g id="a_node17"><a xlink:href="https://github.com/takasek/pfdsl/issues/5" xlink:title="階層PFD仕様案 (#5)&#10;criteria: 仕様案として起草完了&#10;location: https://github.com/takasek/pfdsl/issues/5">
<polygon fill="#f8f9fa" stroke="black" points="1531.64,-247.4 1380.44,-247.4 1380.44,-205.8 1531.64,-205.8 1531.64,-247.4"/>
<text xml:space="preserve" text-anchor="middle" x="1456.04" y="-230.8" font-family="Times,serif" font-size="14.00">i5_hierarchy_spec</text>
<text xml:space="preserve" text-anchor="middle" x="1456.04" y="-214" font-family="Times,serif" font-size="14.00">階層PFD仕様案 (#5)</text>
</a>
</g>
<text xml:space="preserve" text-anchor="middle" x="1368" y="-193.2" font-family="Times,serif" font-size="14.00">todo</text>
</g>
<!-- draft_multifile_specs&#45;&gt;i5_hierarchy_spec -->
<g id="edge2" class="edge">
<title>draft_multifile_specs&#45;&gt;i5_hierarchy_spec</title>
<path fill="none" stroke="black" d="M1292.62,-152.95C1319.21,-166.95 1351.11,-183.18 1380.44,-196.6 1383.58,-198.03 1386.8,-199.47 1390.07,-200.9"/>
<polygon fill="black" stroke="black" points="1388.63,-204.09 1399.21,-204.8 1391.39,-197.65 1388.63,-204.09"/>
</g>
<!-- i6_presets_spec -->
<g id="node18" class="node">
<title>i6_presets_spec</title>
<g id="a_node18"><a xlink:href="https://github.com/takasek/pfdsl/issues/6" xlink:title="共有プリセット仕様案 (#6)&#10;criteria: 仕様案として起草完了&#10;location: https://github.com/takasek/pfdsl/issues/6">
<polygon fill="#f8f9fa" stroke="black" points="1531.64,-187.8 1380.44,-187.8 1380.44,-129.4 1531.64,-129.4 1531.64,-187.8"/>
<text xml:space="preserve" text-anchor="middle" x="1456.04" y="-171.2" font-family="Times,serif" font-size="14.00">i6_presets_spec</text>
<text xml:space="preserve" text-anchor="middle" x="1456.04" y="-154.4" font-family="Times,serif" font-size="14.00">共有プリセット仕様</text>
<text xml:space="preserve" text-anchor="middle" x="1456.04" y="-137.6" font-family="Times,serif" font-size="14.00">案 (#6)</text>
</a>
</g>
<text xml:space="preserve" text-anchor="middle" x="1368" y="-116.8" font-family="Times,serif" font-size="14.00">todo</text>
</g>
<!-- draft_multifile_specs&#45;&gt;i6_presets_spec -->
<g id="edge3" class="edge">
<title>draft_multifile_specs&#45;&gt;i6_presets_spec</title>
<path fill="none" stroke="black" d="M1321.38,-135.73C1337.05,-138.41 1353.35,-141.2 1368.95,-143.87"/>
<polygon fill="black" stroke="black" points="1368.23,-147.3 1378.68,-145.53 1369.41,-140.4 1368.23,-147.3"/>
</g>
<!-- multifile_policy -->
<g id="node28" class="node">
<title>multifile_policy</title>
<g id="a_node28"><a xlink:title="マルチファイル意味論方針&#10;&#10;共同起草で確定した ID スコープ・継承解決順・ファイル間参照の決定記録。ファイル横断機能（#8 実装等）と仕様統合の前提資料&#10;criteria: ID スコープ・継承解決順・ファイル間参照の決定が文書化済み">
<polygon fill="#f8f9fa" stroke="black" points="1531.64,-111.8 1380.44,-111.8 1380.44,-53.4 1531.64,-53.4 1531.64,-111.8"/>
<text xml:space="preserve" text-anchor="middle" x="1456.04" y="-95.2" font-family="Times,serif" font-size="14.00">multifile_policy</text>
<text xml:space="preserve" text-anchor="middle" x="1456.04" y="-78.4" font-family="Times,serif" font-size="14.00">マルチファイル意味</text>
<text xml:space="preserve" text-anchor="middle" x="1456.04" y="-61.6" font-family="Times,serif" font-size="14.00">論方針</text>
</a>
</g>
<text xml:space="preserve" text-anchor="middle" x="1368" y="-40.8" font-family="Times,serif" font-size="14.00">todo</text>
</g>
<!-- draft_multifile_specs&#45;&gt;multifile_policy -->
<g id="edge4" class="edge">
<title>draft_multifile_specs&#45;&gt;multifile_policy</title>
<path fill="none" stroke="black" d="M1321.38,-105.47C1337.05,-102.79 1353.35,-100 1368.95,-97.33"/>
<polygon fill="black" stroke="black" points="1369.41,-100.8 1378.68,-95.67 1368.23,-93.9 1369.41,-100.8"/>
</g>
<!-- draft_revises -->
<g id="node11" class="node">
<title>draft_revises</title>
<g id="a_node11"><a xlink:title="改版チェーン仕様起草">
<ellipse fill="none" stroke="black" cx="342.88" cy="-240.6" rx="78.14" ry="41.3"/>
<text xml:space="preserve" text-anchor="middle" x="342.88" y="-253.2" font-family="Times,serif" font-size="14.00">draft_revises</text>
<text xml:space="preserve" text-anchor="middle" x="342.88" y="-236.4" font-family="Times,serif" font-size="14.00">改版チェーン仕様起</text>
<text xml:space="preserve" text-anchor="middle" x="342.88" y="-219.6" font-family="Times,serif" font-size="14.00">草</text>
</a>
</g>
</g>
<!-- revises_spec -->
<g id="node33" class="node">
<title>revises_spec</title>
<g id="a_node33"><a xlink:href="https://github.com/takasek/pfdsl/issues/8" xlink:title="改版チェーン仕様案 (#8)&#10;criteria: 仕様案として起草完了&#10;location: https://github.com/takasek/pfdsl/issues/8">
<polygon fill="#d4edda" stroke="black" points="683.74,-279.8 525.34,-279.8 525.34,-221.4 683.74,-221.4 683.74,-279.8"/>
<text xml:space="preserve" text-anchor="middle" x="604.54" y="-263.2" font-family="Times,serif" font-size="14.00">revises_spec</text>
<text xml:space="preserve" text-anchor="middle" x="604.54" y="-246.4" font-family="Times,serif" font-size="14.00">改版チェーン仕様案 </text>
<text xml:space="preserve" text-anchor="middle" x="604.54" y="-229.6" font-family="Times,serif" font-size="14.00">(#8)</text>
</a>
</g>
<text xml:space="preserve" text-anchor="middle" x="511.73" y="-208.8" font-family="Times,serif" font-size="14.00">done</text>
</g>
<!-- draft_revises&#45;&gt;revises_spec -->
<g id="edge8" class="edge">
<title>draft_revises&#45;&gt;revises_spec</title>
<path fill="none" stroke="black" d="M421.08,-243.57C450.24,-244.7 483.67,-245.98 513.88,-247.15"/>
<polygon fill="black" stroke="black" points="513.64,-250.64 523.77,-247.53 513.91,-243.65 513.64,-250.64"/>
</g>
<!-- external_stakeholders_spec&#45;&gt;integrate_spec -->
<g id="edge17" class="edge">
<title>external_stakeholders_spec&#45;&gt;integrate_spec</title>
<path fill="none" stroke="black" d="M690.28,-433.51C711.94,-423.77 734.73,-413.52 754.69,-404.55"/>
<polygon fill="black" stroke="black" points="756.08,-407.76 763.77,-400.47 753.21,-401.38 756.08,-407.76"/>
</g>
<!-- featured_toolchain -->
<g id="node13" class="node">
<title>featured_toolchain</title>
<g id="a_node13"><a xlink:href="https://github.com/takasek/pfdsl/issues/52" xlink:title="spec v0.0.7 実装済みツールチェーン (#52)&#10;criteria: spec v0.0.7 の全機能が実装され、check/fmt/graph がエラーなしで動作&#10;location: https://github.com/takasek/pfdsl/issues/52">
<polygon fill="#d4edda" stroke="black" points="1531.64,-391.2 1380.44,-391.2 1380.44,-316 1531.64,-316 1531.64,-391.2"/>
<text xml:space="preserve" text-anchor="middle" x="1456.04" y="-374.6" font-family="Times,serif" font-size="14.00">featured_toolchain</text>
<text xml:space="preserve" text-anchor="middle" x="1456.04" y="-357.8" font-family="Times,serif" font-size="14.00">spec v0.0.7</text>
<text xml:space="preserve" text-anchor="middle" x="1456.04" y="-341" font-family="Times,serif" font-size="14.00">実装済みツールチェ</text>
<text xml:space="preserve" text-anchor="middle" x="1456.04" y="-324.2" font-family="Times,serif" font-size="14.00">ーン (#52)</text>
</a>
</g>
<text xml:space="preserve" text-anchor="middle" x="1366.83" y="-303.4" font-family="Times,serif" font-size="14.00">done</text>
</g>
<!-- integrate_multifile -->
<g id="node23" class="node">
<title>integrate_multifile</title>
<g id="a_node23"><a xlink:title="マルチファイル仕様統合">
<ellipse fill="none" stroke="black" cx="1652.63" cy="-192.6" rx="84.98" ry="41.3"/>
<text xml:space="preserve" text-anchor="middle" x="1652.63" y="-205.2" font-family="Times,serif" font-size="14.00">integrate_multifile</text>
<text xml:space="preserve" text-anchor="middle" x="1652.63" y="-188.4" font-family="Times,serif" font-size="14.00">マルチファイル仕様</text>
<text xml:space="preserve" text-anchor="middle" x="1652.63" y="-171.6" font-family="Times,serif" font-size="14.00">統合</text>
</a>
</g>
</g>
<!-- featured_toolchain&#45;&gt;integrate_multifile -->
<g id="edge29" class="edge">
<title>featured_toolchain&#45;&gt;integrate_multifile</title>
<path fill="none" stroke="black" d="M1502.66,-315.85C1531.8,-291.74 1569.65,-260.43 1599.9,-235.4"/>
<polygon fill="black" stroke="black" points="1601.99,-238.22 1607.46,-229.14 1597.52,-232.82 1601.99,-238.22"/>
</g>
<!-- findings_r12 -->
<g id="node14" class="node">
<title>findings_r12</title>
<g id="a_node14"><a xlink:title="実践ラウンド1/2レビュー知見&#10;&#10;docs/examples の執筆・レビューで得た品質知見&#10;criteria: skill_template または adr_corpus への反映が確認済み">
<polygon fill="#d4edda" stroke="black" stroke-width="2" points="185.61,-674.8 27.21,-674.8 27.21,-616.4 185.61,-616.4 185.61,-674.8"/>
<text xml:space="preserve" text-anchor="middle" x="106.41" y="-658.2" font-family="Times,serif" font-size="14.00">findings_r12</text>
<text xml:space="preserve" text-anchor="middle" x="106.41" y="-641.4" font-family="Times,serif" font-size="14.00">実践ラウンド1/2レビ</text>
<text xml:space="preserve" text-anchor="middle" x="106.41" y="-624.6" font-family="Times,serif" font-size="14.00">ュー知見</text>
</a>
</g>
<text xml:space="preserve" text-anchor="middle" x="13.61" y="-603.8" font-family="Times,serif" font-size="14.00">done</text>
</g>
<!-- findings_r12&#45;&gt;implement_lints -->
<g id="edge20" class="edge">
<title>findings_r12&#45;&gt;implement_lints</title>
<path fill="none" stroke="black" d="M186.47,-645.6C208.64,-645.6 232.87,-645.6 255.45,-645.6"/>
<polygon fill="black" stroke="black" points="255.22,-649.1 265.22,-645.6 255.22,-642.1 255.22,-649.1"/>
</g>
<!-- i12_article -->
<g id="node15" class="node">
<title>i12_article</title>
<g id="a_node15"><a xlink:href="https://github.com/takasek/pfdsl/issues/12" xlink:title="公開記事 (#12)&#10;&#10;ADR 群を素材とした外部公開記事。依存なしで着手可能、spec v0.0.7 確定後はより充実&#10;criteria: 外部メディアに公開済みで URL が存在する&#10;location: https://github.com/takasek/pfdsl/issues/12">
<polygon fill="#f8f9fa" stroke="black" stroke-width="2" points="665.74,-58.4 543.34,-58.4 543.34,-16.8 665.74,-16.8 665.74,-58.4"/>
<text xml:space="preserve" text-anchor="middle" x="604.54" y="-41.8" font-family="Times,serif" font-size="14.00">i12_article</text>
<text xml:space="preserve" text-anchor="middle" x="604.54" y="-25" font-family="Times,serif" font-size="14.00">公開記事 (#12)</text>
</a>
</g>
<text xml:space="preserve" text-anchor="middle" x="530.89" y="-4.2" font-family="Times,serif" font-size="14.00">todo</text>
</g>
<!-- i5_hierarchy_spec&#45;&gt;integrate_multifile -->
<g id="edge26" class="edge">
<title>i5_hierarchy_spec&#45;&gt;integrate_multifile</title>
<path fill="none" stroke="black" d="M1531.99,-213.5C1541.46,-211.85 1551.22,-210.14 1560.9,-208.45"/>
<polygon fill="black" stroke="black" points="1561.45,-211.91 1570.7,-206.74 1560.25,-205.01 1561.45,-211.91"/>
</g>
<!-- i6_presets_spec&#45;&gt;integrate_multifile -->
<g id="edge27" class="edge">
<title>i6_presets_spec&#45;&gt;integrate_multifile</title>
<path fill="none" stroke="black" d="M1531.99,-171.7C1541.46,-173.35 1551.22,-175.06 1560.9,-176.75"/>
<polygon fill="black" stroke="black" points="1560.25,-180.19 1570.7,-178.46 1561.45,-173.29 1560.25,-180.19"/>
</g>
<!-- i99_pr_diff_image -->
<g id="node19" class="node">
<title>i99_pr_diff_image</title>
<g id="a_node19"><a xlink:href="https://github.com/takasek/pfdsl/issues/99" xlink:title="PR diff画像 (#99)&#10;&#10;マージPRの変更.pfdslにbefore/after/diffの3画像を生成。diff画像は変更箇所のみ色分け（追加緑/削除赤/変更黄）。詳細設計は docs/superpowers/specs/2026&#45;06&#45;20&#45;pr&#45;diff&#45;image&#45;design.md&#10;criteria: マージPRにbefore/after/diff3画像が添付され、diff画像が追加緑・削除赤・変更黄で差分のみ表示する&#10;location: https://github.com/takasek/pfdsl/issues/99">
<polygon fill="#fff3cd" stroke="black" stroke-width="2" points="676.54,-820.4 532.54,-820.4 532.54,-778.8 676.54,-778.8 676.54,-820.4"/>
<text xml:space="preserve" text-anchor="middle" x="604.54" y="-803.8" font-family="Times,serif" font-size="14.00">i99_pr_diff_image</text>
<text xml:space="preserve" text-anchor="middle" x="604.54" y="-787" font-family="Times,serif" font-size="14.00">PR diff画像 (#99)</text>
</a>
</g>
<text xml:space="preserve" text-anchor="middle" x="522.04" y="-766.2" font-family="Times,serif" font-size="14.00">wip</text>
</g>
<!-- lint_checker -->
<g id="node26" class="node">
<title>lint_checker</title>
<g id="a_node26"><a xlink:href="https://github.com/takasek/pfdsl/issues/4" xlink:title="lint拡張checker (#4)&#10;&#10;lint 候補の完全リストは issue #4 が一次情報（本文+コメント）。ここに列挙しない — 列挙は同期漏れで腐るため&#10;criteria: issue #4 の対象 lint がすべて実装され、check コマンドで動作確認済み&#10;location: https://github.com/takasek/pfdsl/issues/4">
<polygon fill="#d4edda" stroke="black" points="1083.5,-557.4 917.9,-557.4 917.9,-515.8 1083.5,-515.8 1083.5,-557.4"/>
<text xml:space="preserve" text-anchor="middle" x="1000.7" y="-540.8" font-family="Times,serif" font-size="14.00">lint_checker</text>
<text xml:space="preserve" text-anchor="middle" x="1000.7" y="-524" font-family="Times,serif" font-size="14.00">lint拡張checker (#4)</text>
</a>
</g>
<text xml:space="preserve" text-anchor="middle" x="904.3" y="-503.2" font-family="Times,serif" font-size="14.00">done</text>
</g>
<!-- implement_lints&#45;&gt;lint_checker -->
<g id="edge22" class="edge">
<title>implement_lints&#45;&gt;lint_checker</title>
<path fill="none" stroke="black" d="M413.57,-634.87C487.08,-623.47 606.24,-604.76 708.94,-587.6 775.05,-576.55 849.49,-563.48 906.51,-553.34"/>
<polygon fill="black" stroke="black" points="906.95,-556.82 916.18,-551.62 905.72,-549.92 906.95,-556.82"/>
</g>
<!-- implement_pr_diff_image&#45;&gt;i99_pr_diff_image -->
<g id="edge42" class="edge">
<title>implement_pr_diff_image&#45;&gt;i99_pr_diff_image</title>
<path fill="none" stroke="black" d="M458.52,-799.6C479.31,-799.6 500.62,-799.6 520.28,-799.6"/>
<polygon fill="black" stroke="black" points="520.14,-803.1 530.14,-799.6 520.14,-796.1 520.14,-803.1"/>
</g>
<!-- implement_spec_features -->
<g id="node22" class="node">
<title>implement_spec_features</title>
<ellipse fill="none" stroke="black" cx="1231.97" cy="-378.6" rx="112.47" ry="29.42"/>
<text xml:space="preserve" text-anchor="middle" x="1231.97" y="-382.8" font-family="Times,serif" font-size="14.00">implement_spec_features</text>
<text xml:space="preserve" text-anchor="middle" x="1231.97" y="-366" font-family="Times,serif" font-size="14.00">新仕様実装</text>
</g>
<!-- implement_spec_features&#45;&gt;featured_toolchain -->
<g id="edge25" class="edge">
<title>implement_spec_features&#45;&gt;featured_toolchain</title>
<path fill="none" stroke="black" d="M1335.88,-367.01C1346.91,-365.77 1358.05,-364.52 1368.86,-363.3"/>
<polygon fill="black" stroke="black" points="1368.93,-366.82 1378.48,-362.22 1368.15,-359.86 1368.93,-366.82"/>
</g>
<!-- spec_v008 -->
<g id="node37" class="node">
<title>spec_v008</title>
<g id="a_node37"><a xlink:title="仕様書 v0.0.8（マルチファイル統合）&#10;criteria: check/fmt/graph が全サンプルにエラーなし&#10;location: docs/spec/spec.md">
<polygon fill="#f8f9fa" stroke="black" stroke-width="2" points="1917.61,-230.2 1773.61,-230.2 1773.61,-155 1917.61,-155 1917.61,-230.2"/>
<text xml:space="preserve" text-anchor="middle" x="1845.61" y="-213.6" font-family="Times,serif" font-size="14.00">spec_v008</text>
<text xml:space="preserve" text-anchor="middle" x="1845.61" y="-196.8" font-family="Times,serif" font-size="14.00">仕様書 v0.0</text>
<text xml:space="preserve" text-anchor="middle" x="1845.61" y="-180" font-family="Times,serif" font-size="14.00">8（マルチファイル</text>
<text xml:space="preserve" text-anchor="middle" x="1845.61" y="-163.2" font-family="Times,serif" font-size="14.00">統合）</text>
</a>
</g>
<text xml:space="preserve" text-anchor="middle" x="1761.17" y="-142.4" font-family="Times,serif" font-size="14.00">todo</text>
</g>
<!-- integrate_multifile&#45;&gt;spec_v008 -->
<g id="edge30" class="edge">
<title>integrate_multifile&#45;&gt;spec_v008</title>
<path fill="none" stroke="black" d="M1737.95,-192.6C1745.74,-192.6 1753.63,-192.6 1761.4,-192.6"/>
<polygon fill="black" stroke="black" points="1761.18,-196.1 1771.18,-192.6 1761.18,-189.1 1761.18,-196.1"/>
</g>
<!-- spec_v007 -->
<g id="node36" class="node">
<title>spec_v007</title>
<g id="a_node36"><a xlink:title="仕様書 v0.0.7（統合）&#10;criteria: check/fmt/graph が全サンプルにエラーなし、v0.0.7 全フィールドが spec 本文に統合済み&#10;location: docs/spec/spec.md">
<polygon fill="#fff3cd" stroke="black" points="1079.9,-407.8 921.5,-407.8 921.5,-349.4 1079.9,-349.4 1079.9,-407.8"/>
<text xml:space="preserve" text-anchor="middle" x="1000.7" y="-391.2" font-family="Times,serif" font-size="14.00">spec_v007</text>
<text xml:space="preserve" text-anchor="middle" x="1000.7" y="-374.4" font-family="Times,serif" font-size="14.00">仕様書 v0.0.7（統合</text>
<text xml:space="preserve" text-anchor="middle" x="1000.7" y="-357.6" font-family="Times,serif" font-size="14.00">）</text>
</a>
</g>
<text xml:space="preserve" text-anchor="middle" x="911" y="-336.8" font-family="Times,serif" font-size="14.00">wip</text>
</g>
<!-- integrate_spec&#45;&gt;spec_v007 -->
<g id="edge18" class="edge">
<title>integrate_spec&#45;&gt;spec_v007</title>
<path fill="none" stroke="black" d="M882.36,-378.6C891.32,-378.6 900.61,-378.6 909.86,-378.6"/>
<polygon fill="black" stroke="black" points="909.59,-382.1 919.59,-378.6 909.59,-375.1 909.59,-382.1"/>
</g>
<!-- layer_audit_assets&#45;&gt;audit_distribution -->
<g id="edge36" class="edge">
<title>layer_audit_assets&#45;&gt;audit_distribution</title>
<path fill="none" stroke="black" d="M427.11,-977.6C455.79,-977.6 487.96,-977.6 516.91,-977.6"/>
<polygon fill="black" stroke="black" points="516.73,-981.1 526.73,-977.6 516.73,-974.1 516.73,-981.1"/>
</g>
<!-- lint_checker&#45;&gt;implement_spec_features -->
<g id="edge24" class="edge">
<title>lint_checker&#45;&gt;implement_spec_features</title>
<path fill="none" stroke="black" d="M1032.15,-515.62C1070.24,-489.37 1135.99,-444.06 1181.38,-412.77"/>
<polygon fill="black" stroke="black" points="1183.25,-415.74 1189.5,-407.18 1179.28,-409.97 1183.25,-415.74"/>
</g>
<!-- location_spec&#45;&gt;integrate_spec -->
<g id="edge15" class="edge">
<title>location_spec&#45;&gt;integrate_spec</title>
<path fill="none" stroke="black" d="M673.28,-378.6C692.39,-378.6 713.35,-378.6 733.08,-378.6"/>
<polygon fill="black" stroke="black" points="733.01,-382.1 743.01,-378.6 733.01,-375.1 733.01,-382.1"/>
</g>
<!-- multifile_policy&#45;&gt;integrate_multifile -->
<g id="edge28" class="edge">
<title>multifile_policy&#45;&gt;integrate_multifile</title>
<path fill="none" stroke="black" d="M1515.88,-112.09C1521.24,-114.92 1526.56,-117.78 1531.64,-120.6 1550.65,-131.13 1571.01,-143.08 1589.47,-154.19"/>
<polygon fill="black" stroke="black" points="1587.56,-157.12 1597.93,-159.3 1591.18,-151.13 1587.56,-157.12"/>
</g>
<!-- published_cli -->
<g id="node30" class="node">
<title>published_cli</title>
<g id="a_node30"><a xlink:href="https://www.npmjs.com/package/@pfdsl/cli" xlink:title="npm公開済みCLI&#10;&#10;現行公開バージョンは npm 一次情報（ここに書かない — ドリフトするため）。詳細は docs/pfdsl_implementation_flow.pfdsl の cli_published 参照&#10;criteria: npm show @pfdsl/cli version が期待バージョンを返す&#10;location: https://www.npmjs.com/package/@pfdsl/cli">
<polygon fill="#d4edda" stroke="black" stroke-width="2" points="665.74,-743.4 543.34,-743.4 543.34,-701.8 665.74,-701.8 665.74,-743.4"/>
<text xml:space="preserve" text-anchor="middle" x="604.54" y="-726.8" font-family="Times,serif" font-size="14.00">published_cli</text>
<text xml:space="preserve" text-anchor="middle" x="604.54" y="-710" font-family="Times,serif" font-size="14.00">npm公開済みCLI</text>
</a>
</g>
<text xml:space="preserve" text-anchor="middle" x="529.73" y="-689.2" font-family="Times,serif" font-size="14.00">done</text>
</g>
<!-- publish_cli&#45;&gt;published_cli -->
<g id="edge34" class="edge">
<title>publish_cli&#45;&gt;published_cli</title>
<path fill="none" stroke="black" d="M398.63,-722.6C437.2,-722.6 489.24,-722.6 531.23,-722.6"/>
<polygon fill="black" stroke="black" points="530.99,-726.1 540.99,-722.6 530.99,-719.1 530.99,-726.1"/>
</g>
<!-- restructure_skillgen -->
<g id="node31" class="node">
<title>restructure_skillgen</title>
<ellipse fill="none" stroke="black" cx="342.88" cy="-1054.6" rx="89.93" ry="29.42"/>
<text xml:space="preserve" text-anchor="middle" x="342.88" y="-1058.8" font-family="Times,serif" font-size="14.00">restructure_skillgen</text>
<text xml:space="preserve" text-anchor="middle" x="342.88" y="-1042" font-family="Times,serif" font-size="14.00">生成系再構成</text>
</g>
<!-- restructured_gen -->
<g id="node32" class="node">
<title>restructured_gen</title>
<g id="a_node32"><a xlink:href="https://github.com/takasek/pfdsl/issues/10" xlink:title="再構成済みスキル生成系 (#10)&#10;criteria: make gen&#45;skill が差分なしで完了し、skill と gh_skill_dist が一致&#10;location: https://github.com/takasek/pfdsl/issues/10">
<polygon fill="#d4edda" stroke="black" stroke-width="2" points="680.14,-1083.8 528.94,-1083.8 528.94,-1025.4 680.14,-1025.4 680.14,-1083.8"/>
<text xml:space="preserve" text-anchor="middle" x="604.54" y="-1067.2" font-family="Times,serif" font-size="14.00">restructured_gen</text>
<text xml:space="preserve" text-anchor="middle" x="604.54" y="-1050.4" font-family="Times,serif" font-size="14.00">再構成済みスキル生</text>
<text xml:space="preserve" text-anchor="middle" x="604.54" y="-1033.6" font-family="Times,serif" font-size="14.00">成系 (#10)</text>
</a>
</g>
<text xml:space="preserve" text-anchor="middle" x="515.33" y="-1012.8" font-family="Times,serif" font-size="14.00">done</text>
</g>
<!-- restructure_skillgen&#45;&gt;restructured_gen -->
<g id="edge32" class="edge">
<title>restructure_skillgen&#45;&gt;restructured_gen</title>
<path fill="none" stroke="black" d="M433.24,-1054.6C460.32,-1054.6 490.02,-1054.6 516.92,-1054.6"/>
<polygon fill="black" stroke="black" points="516.75,-1058.1 526.75,-1054.6 516.75,-1051.1 516.75,-1058.1"/>
</g>
<!-- revises_spec&#45;&gt;integrate_spec -->
<g id="edge14" class="edge">
<title>revises_spec&#45;&gt;integrate_spec</title>
<path fill="none" stroke="black" d="M668.79,-280.3C682.27,-287.21 696.26,-294.83 708.94,-302.6 730.07,-315.55 752.38,-331.59 770.84,-345.59"/>
<polygon fill="black" stroke="black" points="768.58,-348.27 778.65,-351.57 772.84,-342.71 768.58,-348.27"/>
</g>
<!-- skill_gen -->
<g id="node34" class="node">
<title>skill_gen</title>
<g id="a_node34"><a xlink:title="スキル生成系（現行）&#10;&#10;scripts/gen&#45;skill.mjs と docs/samples 構成&#10;criteria: make gen&#45;skill が差分なしで完了し、skill と gh_skill_dist が一致">
<polygon fill="#d4edda" stroke="black" stroke-width="2" points="182.01,-1083.8 30.81,-1083.8 30.81,-1025.4 182.01,-1025.4 182.01,-1083.8"/>
<text xml:space="preserve" text-anchor="middle" x="106.41" y="-1067.2" font-family="Times,serif" font-size="14.00">skill_gen</text>
<text xml:space="preserve" text-anchor="middle" x="106.41" y="-1050.4" font-family="Times,serif" font-size="14.00">スキル生成系（現行</text>
<text xml:space="preserve" text-anchor="middle" x="106.41" y="-1033.6" font-family="Times,serif" font-size="14.00">）</text>
</a>
</g>
<text xml:space="preserve" text-anchor="middle" x="17.21" y="-1012.8" font-family="Times,serif" font-size="14.00">done</text>
</g>
<!-- skill_gen&#45;&gt;restructure_skillgen -->
<g id="edge31" class="edge">
<title>skill_gen&#45;&gt;restructure_skillgen</title>
<path fill="none" stroke="black" d="M182.89,-1054.6C201.47,-1054.6 221.65,-1054.6 241.21,-1054.6"/>
<polygon fill="black" stroke="black" points="241.12,-1058.1 251.12,-1054.6 241.12,-1051.1 241.12,-1058.1"/>
</g>
<!-- spec_v006 -->
<g id="node35" class="node">
<title>spec_v006</title>
<g id="a_node35"><a xlink:title="仕様書 v0.0.6&#10;criteria: check/fmt/graph が全サンプルにエラーなし&#10;location: docs/spec/spec.md">
<polygon fill="#d4edda" stroke="black" stroke-width="2" points="164.01,-399.4 48.81,-399.4 48.81,-357.8 164.01,-357.8 164.01,-399.4"/>
<text xml:space="preserve" text-anchor="middle" x="106.41" y="-382.8" font-family="Times,serif" font-size="14.00">spec_v006</text>
<text xml:space="preserve" text-anchor="middle" x="106.41" y="-366" font-family="Times,serif" font-size="14.00">仕様書 v0.0.6</text>
</a>
</g>
<text xml:space="preserve" text-anchor="middle" x="35.21" y="-345.2" font-family="Times,serif" font-size="14.00">done</text>
</g>
<!-- spec_v006&#45;&gt;draft_criteria -->
<g id="edge5" class="edge">
<title>spec_v006&#45;&gt;draft_criteria</title>
<path fill="none" stroke="black" d="M118.16,-400.19C135.51,-432.89 172.74,-494.82 221.61,-529.6 235.4,-539.41 251.8,-546.85 267.98,-552.46"/>
<polygon fill="black" stroke="black" points="266.51,-555.66 277.11,-555.42 268.67,-549 266.51,-555.66"/>
</g>
<!-- spec_v006&#45;&gt;draft_external_stakeholders -->
<g id="edge43" class="edge">
<title>spec_v006&#45;&gt;draft_external_stakeholders</title>
<path fill="none" stroke="black" d="M156.83,-400.38C176.91,-409.2 200.35,-419.43 221.61,-428.6 232.46,-433.27 243.86,-438.15 255.16,-442.97"/>
<polygon fill="black" stroke="black" points="253.51,-446.07 264.08,-446.77 256.25,-439.63 253.51,-446.07"/>
</g>
<!-- spec_v006&#45;&gt;draft_location -->
<g id="edge9" class="edge">
<title>spec_v006&#45;&gt;draft_location</title>
<path fill="none" stroke="black" d="M164.77,-378.6C189.32,-378.6 218.65,-378.6 246.31,-378.6"/>
<polygon fill="black" stroke="black" points="246.12,-382.1 256.12,-378.6 246.12,-375.1 246.12,-382.1"/>
</g>
<!-- spec_v006&#45;&gt;draft_multifile_specs -->
<g id="edge1" class="edge">
<title>spec_v006&#45;&gt;draft_multifile_specs</title>
<path fill="none" stroke="black" d="M109.29,-357.07C115.1,-304.9 137.87,-171.74 221.61,-113.6 291.42,-65.14 518.56,-94.6 603.54,-94.6 603.54,-94.6 603.54,-94.6 814.42,-94.6 921.1,-94.6 1042.86,-103.2 1127.06,-110.51"/>
<polygon fill="black" stroke="black" points="1126.65,-113.99 1136.92,-111.37 1127.26,-107.01 1126.65,-113.99"/>
</g>
<!-- spec_v006&#45;&gt;draft_revises -->
<g id="edge7" class="edge">
<title>spec_v006&#45;&gt;draft_revises</title>
<path fill="none" stroke="black" d="M134.06,-356.88C156.57,-339.12 190.08,-314.02 221.61,-295.6 236.96,-286.63 254.03,-278.06 270.37,-270.46"/>
<polygon fill="black" stroke="black" points="271.41,-273.83 279.05,-266.49 268.5,-267.47 271.41,-273.83"/>
</g>
<!-- spec_v006&#45;&gt;implement_lints -->
<g id="edge19" class="edge">
<title>spec_v006&#45;&gt;implement_lints</title>
<path fill="none" stroke="black" d="M112.28,-400.29C123.5,-445.38 155.48,-549.75 221.61,-606.6 233.4,-616.73 247.87,-624.24 262.63,-629.81"/>
<polygon fill="black" stroke="black" points="261.38,-633.08 271.97,-633.03 263.66,-626.46 261.38,-633.08"/>
</g>
<!-- spec_v006&#45;&gt;integrate_spec -->
<g id="edge45" class="edge">
<title>spec_v006&#45;&gt;integrate_spec</title>
<path fill="none" stroke="#888888" stroke-dasharray="5,2" d="M146.24,-356.81C167.73,-346 195.35,-334.1 221.61,-328.6 433.67,-284.21 496.62,-297.46 708.94,-340.6 723.81,-343.62 739.39,-348.42 753.83,-353.6"/>
<polygon fill="#888888" stroke="#888888" points="752.6,-356.87 763.19,-357.08 755.04,-350.31 752.6,-356.87"/>
</g>
<!-- write_design_notes -->
<g id="node39" class="node">
<title>write_design_notes</title>
<ellipse fill="none" stroke="black" cx="342.88" cy="-151.6" rx="88.3" ry="29.42"/>
<text xml:space="preserve" text-anchor="middle" x="342.88" y="-155.8" font-family="Times,serif" font-size="14.00">write_design_notes</text>
<text xml:space="preserve" text-anchor="middle" x="342.88" y="-139" font-family="Times,serif" font-size="14.00">設計ノート執筆</text>
</g>
<!-- spec_v006&#45;&gt;write_design_notes -->
<g id="edge11" class="edge">
<title>spec_v006&#45;&gt;write_design_notes</title>
<path fill="none" stroke="black" d="M114.81,-356.84C129.18,-317.8 164.56,-235.73 221.61,-190.6 231.9,-182.46 243.94,-176 256.35,-170.87"/>
<polygon fill="black" stroke="black" points="257.33,-174.24 265.42,-167.41 254.83,-167.7 257.33,-174.24"/>
</g>
<!-- spec_v007&#45;&gt;implement_spec_features -->
<g id="edge23" class="edge">
<title>spec_v007&#45;&gt;implement_spec_features</title>
<path fill="none" stroke="black" d="M1080.28,-378.6C1089.22,-378.6 1098.49,-378.6 1107.83,-378.6"/>
<polygon fill="black" stroke="black" points="1107.73,-382.1 1117.73,-378.6 1107.73,-375.1 1107.73,-382.1"/>
</g>
<!-- write_article&#45;&gt;i12_article -->
<g id="edge38" class="edge">
<title>write_article&#45;&gt;i12_article</title>
<path fill="none" stroke="black" d="M404.43,-37.6C442.29,-37.6 491.27,-37.6 531.17,-37.6"/>
<polygon fill="black" stroke="black" points="530.93,-41.1 540.93,-37.6 530.93,-34.1 530.93,-41.1"/>
</g>
<!-- write_design_notes&#45;&gt;design_notes -->
<g id="edge12" class="edge">
<title>write_design_notes&#45;&gt;design_notes</title>
<path fill="none" stroke="black" d="M431.42,-153.29C459.12,-153.82 489.69,-154.41 517.29,-154.94"/>
<polygon fill="black" stroke="black" points="516.93,-158.43 527,-155.13 517.07,-151.43 516.93,-158.43"/>
</g>
</g>
</svg>
