<?xml version="1.0" encoding="UTF-8" standalone="no"?>
<!DOCTYPE svg PUBLIC "-//W3C//DTD SVG 1.1//EN"
 "http://www.w3.org/Graphics/SVG/1.1/DTD/svg11.dtd">
<!-- Generated by graphviz version 15.0.0 (0)
 -->
<!-- Title: PFDSL Pages: 1 -->
<svg width="1884pt" height="1271pt"
 viewBox="0.00 0.00 1884.00 1271.00" xmlns="http://www.w3.org/2000/svg" xmlns:xlink="http://www.w3.org/1999/xlink">
<g id="graph0" class="graph" transform="scale(1 1) rotate(0) translate(4 1266.82)">
<title>PFDSL</title>
<polygon fill="white" stroke="none" points="-4,4 -4,-1266.82 1879.56,-1266.82 1879.56,4 -4,4"/>
<text xml:space="preserve" text-anchor="middle" x="937.78" y="-1246.22" font-family="Times,serif" font-size="14.00">Issue 依存フロー（2026&#45;06）</text>
<!-- adr_corpus -->
<g id="node1" class="node">
<title>adr_corpus</title>
<g id="a_node1"><a xlink:title="ADR 群 (docs/adr)&#10;&#10;方法論の設計決定記録。一覧と本数は docs/adr/README.md が一次情報（ここに数を書かない — ドリフトするため）">
<polygon fill="#d4edda" stroke="black" stroke-width="2" points="178.41,-58.4 34.41,-58.4 34.41,-16.8 178.41,-16.8 178.41,-58.4"/>
<text xml:space="preserve" text-anchor="middle" x="106.41" y="-41.8" font-family="Times,serif" font-size="14.00">adr_corpus</text>
<text xml:space="preserve" text-anchor="middle" x="106.41" y="-25" font-family="Times,serif" font-size="14.00">ADR 群 (docs/adr)</text>
</a>
</g>
<text xml:space="preserve" text-anchor="middle" x="20.81" y="-4.2" font-family="Times,serif" font-size="14.00">done</text>
</g>
<!-- write_article -->
<g id="node42" class="node">
<title>write_article</title>
<ellipse fill="none" stroke="black" cx="343.45" cy="-37.6" rx="61.33" ry="29.42"/>
<text xml:space="preserve" text-anchor="middle" x="343.45" y="-41.8" font-family="Times,serif" font-size="14.00">write_article</text>
<text xml:space="preserve" text-anchor="middle" x="343.45" y="-25" font-family="Times,serif" font-size="14.00">記事執筆</text>
</g>
<!-- adr_corpus&#45;&gt;write_article -->
<g id="edge36" class="edge">
<title>adr_corpus&#45;&gt;write_article</title>
<path fill="none" stroke="black" d="M179.21,-37.6C208.17,-37.6 241.52,-37.6 270.5,-37.6"/>
<polygon fill="black" stroke="black" points="270.27,-41.1 280.27,-37.6 270.27,-34.1 270.27,-41.1"/>
</g>
<!-- audit_distribution -->
<g id="node2" class="node">
<title>audit_distribution</title>
<g id="a_node2"><a xlink:title="L3資産の階層化配布 (#43)&#10;&#10;audit コア + flow&#45;sync action を skill 同梱・配布可能化。scripts/lib/issues&#45;flow&#45;audit.mjs を #37 と共有するため着手順を調整。実配布フローは #11">
<polygon fill="#d4edda" stroke="black" stroke-width="2" points="659.69,-1160.8 508.49,-1160.8 508.49,-1102.4 659.69,-1102.4 659.69,-1160.8"/>
<text xml:space="preserve" text-anchor="middle" x="584.09" y="-1144.2" font-family="Times,serif" font-size="14.00">audit_distribution</text>
<text xml:space="preserve" text-anchor="middle" x="584.09" y="-1127.4" font-family="Times,serif" font-size="14.00">L3資産の階層化配布</text>
<text xml:space="preserve" text-anchor="middle" x="584.09" y="-1110.6" font-family="Times,serif" font-size="14.00"> (#43)</text>
</a>
</g>
<text xml:space="preserve" text-anchor="middle" x="494.88" y="-1089.8" font-family="Times,serif" font-size="14.00">done</text>
</g>
<!-- build_obsidian_plugin -->
<g id="node3" class="node">
<title>build_obsidian_plugin</title>
<g id="a_node3"><a xlink:title="Obsidianプラグイン実装">
<ellipse fill="none" stroke="black" cx="343.45" cy="-1042.6" rx="100.41" ry="41.3"/>
<text xml:space="preserve" text-anchor="middle" x="343.45" y="-1055.2" font-family="Times,serif" font-size="14.00">build_obsidian_plugin</text>
<text xml:space="preserve" text-anchor="middle" x="343.45" y="-1038.4" font-family="Times,serif" font-size="14.00">Obsidianプラグイン</text>
<text xml:space="preserve" text-anchor="middle" x="343.45" y="-1021.6" font-family="Times,serif" font-size="14.00">実装</text>
</a>
</g>
</g>
<!-- i3_obsidian_plugin -->
<g id="node18" class="node">
<title>i3_obsidian_plugin</title>
<g id="a_node18"><a xlink:title="Obsidian プラグイン (#3)">
<polygon fill="#f8f9fa" stroke="black" stroke-width="2" points="666.89,-1071.8 501.29,-1071.8 501.29,-1013.4 666.89,-1013.4 666.89,-1071.8"/>
<text xml:space="preserve" text-anchor="middle" x="584.09" y="-1055.2" font-family="Times,serif" font-size="14.00">i3_obsidian_plugin</text>
<text xml:space="preserve" text-anchor="middle" x="584.09" y="-1038.4" font-family="Times,serif" font-size="14.00">Obsidian プラグイン </text>
<text xml:space="preserve" text-anchor="middle" x="584.09" y="-1021.6" font-family="Times,serif" font-size="14.00">(#3)</text>
</a>
</g>
<text xml:space="preserve" text-anchor="middle" x="488.84" y="-1000.8" font-family="Times,serif" font-size="14.00">todo</text>
</g>
<!-- build_obsidian_plugin&#45;&gt;i3_obsidian_plugin -->
<g id="edge43" class="edge">
<title>build_obsidian_plugin&#45;&gt;i3_obsidian_plugin</title>
<path fill="none" stroke="black" d="M444.27,-1042.6C459.23,-1042.6 474.61,-1042.6 489.44,-1042.6"/>
<polygon fill="black" stroke="black" points="489.14,-1046.1 499.14,-1042.6 489.14,-1039.1 489.14,-1046.1"/>
</g>
<!-- cli_tool -->
<g id="node4" class="node">
<title>cli_tool</title>
<polygon fill="#d4edda" stroke="black" stroke-width="2" points="174.81,-858.4 38.01,-858.4 38.01,-816.8 174.81,-816.8 174.81,-858.4"/>
<text xml:space="preserve" text-anchor="middle" x="106.41" y="-841.8" font-family="Times,serif" font-size="14.00">cli_tool</text>
<text xml:space="preserve" text-anchor="middle" x="106.41" y="-825" font-family="Times,serif" font-size="14.00">CLI 実装（現行）</text>
<text xml:space="preserve" text-anchor="middle" x="24.41" y="-804.2" font-family="Times,serif" font-size="14.00">done</text>
</g>
<!-- cli_tool&#45;&gt;build_obsidian_plugin -->
<g id="edge42" class="edge">
<title>cli_tool&#45;&gt;build_obsidian_plugin</title>
<path fill="none" stroke="black" d="M118.58,-859.38C136.36,-892.12 173.98,-954.17 221.61,-991.6 231.45,-999.33 242.62,-1006.08 254.11,-1011.93"/>
<polygon fill="black" stroke="black" points="252.37,-1014.98 262.9,-1016.18 255.42,-1008.68 252.37,-1014.98"/>
</g>
<!-- fill_group_clusters -->
<g id="node12" class="node">
<title>fill_group_clusters</title>
<ellipse fill="none" stroke="black" cx="343.45" cy="-953.6" rx="86.1" ry="29.42"/>
<text xml:space="preserve" text-anchor="middle" x="343.45" y="-957.8" font-family="Times,serif" font-size="14.00">fill_group_clusters</text>
<text xml:space="preserve" text-anchor="middle" x="343.45" y="-941" font-family="Times,serif" font-size="14.00">クラスタ塗り実装</text>
</g>
<!-- cli_tool&#45;&gt;fill_group_clusters -->
<g id="edge38" class="edge">
<title>cli_tool&#45;&gt;fill_group_clusters</title>
<path fill="none" stroke="black" d="M134.7,-859.23C157.04,-876.12 190,-899.22 221.61,-914.6 235.09,-921.16 249.94,-926.98 264.47,-932"/>
<polygon fill="black" stroke="black" points="262.94,-935.18 273.54,-935.03 265.16,-928.54 262.94,-935.18"/>
</g>
<!-- implement_graph_nav -->
<g id="node22" class="node">
<title>implement_graph_nav</title>
<ellipse fill="none" stroke="black" cx="343.45" cy="-876.6" rx="100.38" ry="29.42"/>
<text xml:space="preserve" text-anchor="middle" x="343.45" y="-880.8" font-family="Times,serif" font-size="14.00">implement_graph_nav</text>
<text xml:space="preserve" text-anchor="middle" x="343.45" y="-864" font-family="Times,serif" font-size="14.00">閲覧支援実装</text>
</g>
<!-- cli_tool&#45;&gt;implement_graph_nav -->
<g id="edge40" class="edge">
<title>cli_tool&#45;&gt;implement_graph_nav</title>
<path fill="none" stroke="black" d="M175.71,-848.93C197.14,-852.49 221.24,-856.49 244.31,-860.32"/>
<polygon fill="black" stroke="black" points="243.61,-863.75 254.05,-861.93 244.76,-856.84 243.61,-863.75"/>
</g>
<!-- implement_lints -->
<g id="node23" class="node">
<title>implement_lints</title>
<ellipse fill="none" stroke="black" cx="343.45" cy="-544.6" rx="75.66" ry="29.42"/>
<text xml:space="preserve" text-anchor="middle" x="343.45" y="-548.8" font-family="Times,serif" font-size="14.00">implement_lints</text>
<text xml:space="preserve" text-anchor="middle" x="343.45" y="-532" font-family="Times,serif" font-size="14.00">lint実装</text>
</g>
<!-- cli_tool&#45;&gt;implement_lints -->
<g id="edge20" class="edge">
<title>cli_tool&#45;&gt;implement_lints</title>
<path fill="none" stroke="black" d="M111.01,-816.08C120.25,-767.44 149.39,-648.26 221.61,-583.6 233.24,-573.19 247.69,-565.55 262.49,-559.95"/>
<polygon fill="black" stroke="black" points="263.56,-563.29 271.87,-556.72 261.28,-556.67 263.56,-563.29"/>
</g>
<!-- implement_orphan_lint -->
<g id="node24" class="node">
<title>implement_orphan_lint</title>
<ellipse fill="none" stroke="black" cx="343.45" cy="-799.6" rx="104.24" ry="29.42"/>
<text xml:space="preserve" text-anchor="middle" x="343.45" y="-803.8" font-family="Times,serif" font-size="14.00">implement_orphan_lint</text>
<text xml:space="preserve" text-anchor="middle" x="343.45" y="-787" font-family="Times,serif" font-size="14.00">孤児検出lint実装</text>
</g>
<!-- cli_tool&#45;&gt;implement_orphan_lint -->
<g id="edge44" class="edge">
<title>cli_tool&#45;&gt;implement_orphan_lint</title>
<path fill="none" stroke="black" d="M175.71,-826.56C196.12,-823.26 218.94,-819.57 241,-816"/>
<polygon fill="black" stroke="black" points="241.29,-819.5 250.6,-814.45 240.17,-812.59 241.29,-819.5"/>
</g>
<!-- implement_pdf_png_export -->
<g id="node25" class="node">
<title>implement_pdf_png_export</title>
<g id="a_node25"><a xlink:title="PDF/PNGエクスポート実装">
<ellipse fill="none" stroke="black" cx="343.45" cy="-710.6" rx="121.84" ry="41.3"/>
<text xml:space="preserve" text-anchor="middle" x="343.45" y="-723.2" font-family="Times,serif" font-size="14.00">implement_pdf_png_export</text>
<text xml:space="preserve" text-anchor="middle" x="343.45" y="-706.4" font-family="Times,serif" font-size="14.00">PDF/PNGエクスポー</text>
<text xml:space="preserve" text-anchor="middle" x="343.45" y="-689.6" font-family="Times,serif" font-size="14.00">ト実装</text>
</a>
</g>
</g>
<!-- cli_tool&#45;&gt;implement_pdf_png_export -->
<g id="edge46" class="edge">
<title>cli_tool&#45;&gt;implement_pdf_png_export</title>
<path fill="none" stroke="black" d="M136.52,-816.01C159.05,-799.86 191.41,-777.84 221.61,-761.6 231.32,-756.38 241.67,-751.32 252.07,-746.53"/>
<polygon fill="black" stroke="black" points="253.42,-749.77 261.1,-742.47 250.54,-743.38 253.42,-749.77"/>
</g>
<!-- layer_audit_assets -->
<g id="node29" class="node">
<title>layer_audit_assets</title>
<ellipse fill="none" stroke="black" cx="343.45" cy="-1131.6" rx="83.89" ry="29.42"/>
<text xml:space="preserve" text-anchor="middle" x="343.45" y="-1135.8" font-family="Times,serif" font-size="14.00">layer_audit_assets</text>
<text xml:space="preserve" text-anchor="middle" x="343.45" y="-1119" font-family="Times,serif" font-size="14.00">L3資産階層化</text>
</g>
<!-- cli_tool&#45;&gt;layer_audit_assets -->
<g id="edge34" class="edge">
<title>cli_tool&#45;&gt;layer_audit_assets</title>
<path fill="none" stroke="black" d="M110.98,-859.2C120.17,-908.03 149.2,-1027.67 221.61,-1092.6 231.97,-1101.89 244.57,-1108.97 257.68,-1114.36"/>
<polygon fill="black" stroke="black" points="256.25,-1117.57 266.84,-1117.81 258.71,-1111.01 256.25,-1117.57"/>
</g>
<!-- publish_cli -->
<g id="node33" class="node">
<title>publish_cli</title>
<ellipse fill="none" stroke="black" cx="343.45" cy="-621.6" rx="55.31" ry="29.42"/>
<text xml:space="preserve" text-anchor="middle" x="343.45" y="-625.8" font-family="Times,serif" font-size="14.00">publish_cli</text>
<text xml:space="preserve" text-anchor="middle" x="343.45" y="-609" font-family="Times,serif" font-size="14.00">CLI公開</text>
</g>
<!-- cli_tool&#45;&gt;publish_cli -->
<g id="edge32" class="edge">
<title>cli_tool&#45;&gt;publish_cli</title>
<path fill="none" stroke="black" d="M115.64,-815.93C130.87,-778.71 166.95,-702.59 221.61,-660.6 238.36,-647.74 259.48,-639.04 279.37,-633.2"/>
<polygon fill="black" stroke="black" points="280.06,-636.63 288.79,-630.63 278.23,-629.88 280.06,-636.63"/>
</g>
<!-- criteria_spec -->
<g id="node5" class="node">
<title>criteria_spec</title>
<polygon fill="#d4edda" stroke="black" points="663.29,-481.4 504.89,-481.4 504.89,-439.8 663.29,-439.8 663.29,-481.4"/>
<text xml:space="preserve" text-anchor="middle" x="584.09" y="-464.8" font-family="Times,serif" font-size="14.00">criteria_spec</text>
<text xml:space="preserve" text-anchor="middle" x="584.09" y="-448" font-family="Times,serif" font-size="14.00">合否基準仕様案 (#7)</text>
<text xml:space="preserve" text-anchor="middle" x="491.28" y="-427.2" font-family="Times,serif" font-size="14.00">done</text>
</g>
<!-- integrate_spec -->
<g id="node28" class="node">
<title>integrate_spec</title>
<ellipse fill="none" stroke="black" cx="771.37" cy="-335.6" rx="68.48" ry="29.42"/>
<text xml:space="preserve" text-anchor="middle" x="771.37" y="-339.8" font-family="Times,serif" font-size="14.00">integrate_spec</text>
<text xml:space="preserve" text-anchor="middle" x="771.37" y="-323" font-family="Times,serif" font-size="14.00">仕様統合</text>
</g>
<!-- criteria_spec&#45;&gt;integrate_spec -->
<g id="edge13" class="edge">
<title>criteria_spec&#45;&gt;integrate_spec</title>
<path fill="none" stroke="black" d="M634.6,-439.43C645.51,-434.1 656.82,-428.04 666.89,-421.6 690.44,-406.53 714.58,-386.76 733.62,-369.97"/>
<polygon fill="black" stroke="black" points="735.73,-372.78 740.86,-363.51 731.07,-367.56 735.73,-372.78"/>
</g>
<!-- design_notes -->
<g id="node6" class="node">
<title>design_notes</title>
<g id="a_node6"><a xlink:title="設計判断ノート・分岐なし方針 (#9)">
<polygon fill="#d4edda" stroke="black" points="659.69,-379.8 508.49,-379.8 508.49,-321.4 659.69,-321.4 659.69,-379.8"/>
<text xml:space="preserve" text-anchor="middle" x="584.09" y="-363.2" font-family="Times,serif" font-size="14.00">design_notes</text>
<text xml:space="preserve" text-anchor="middle" x="584.09" y="-346.4" font-family="Times,serif" font-size="14.00">設計判断ノート・分</text>
<text xml:space="preserve" text-anchor="middle" x="584.09" y="-329.6" font-family="Times,serif" font-size="14.00">岐なし方針 (#9)</text>
</a>
</g>
<text xml:space="preserve" text-anchor="middle" x="494.88" y="-308.8" font-family="Times,serif" font-size="14.00">done</text>
</g>
<!-- design_notes&#45;&gt;integrate_spec -->
<g id="edge16" class="edge">
<title>design_notes&#45;&gt;integrate_spec</title>
<path fill="none" stroke="black" d="M660.18,-344.52C670.79,-343.66 681.72,-342.78 692.38,-341.91"/>
<polygon fill="black" stroke="black" points="692.62,-345.41 702.31,-341.11 692.06,-338.43 692.62,-345.41"/>
</g>
<!-- draft_criteria -->
<g id="node7" class="node">
<title>draft_criteria</title>
<ellipse fill="none" stroke="black" cx="343.45" cy="-467.6" rx="70.71" ry="29.42"/>
<text xml:space="preserve" text-anchor="middle" x="343.45" y="-471.8" font-family="Times,serif" font-size="14.00">draft_criteria</text>
<text xml:space="preserve" text-anchor="middle" x="343.45" y="-455" font-family="Times,serif" font-size="14.00">合否基準仕様起草</text>
</g>
<!-- draft_criteria&#45;&gt;criteria_spec -->
<g id="edge6" class="edge">
<title>draft_criteria&#45;&gt;criteria_spec</title>
<path fill="none" stroke="black" d="M414.44,-465.55C439.12,-464.82 467.21,-464 493.3,-463.23"/>
<polygon fill="black" stroke="black" points="493.33,-466.73 503.22,-462.94 493.12,-459.74 493.33,-466.73"/>
</g>
<!-- draft_location -->
<g id="node8" class="node">
<title>draft_location</title>
<g id="a_node8"><a xlink:title="location/command 起草">
<ellipse fill="none" stroke="black" cx="343.45" cy="-264.6" rx="84.99" ry="41.3"/>
<text xml:space="preserve" text-anchor="middle" x="343.45" y="-277.2" font-family="Times,serif" font-size="14.00">draft_location</text>
<text xml:space="preserve" text-anchor="middle" x="343.45" y="-260.4" font-family="Times,serif" font-size="14.00">location/command</text>
<text xml:space="preserve" text-anchor="middle" x="343.45" y="-243.6" font-family="Times,serif" font-size="14.00">起草</text>
</a>
</g>
</g>
<!-- location_spec -->
<g id="node31" class="node">
<title>location_spec</title>
<g id="a_node31"><a xlink:title="location/command 仕様案 (#13)&#10;&#10;ノードと実ファイル・実行手順を結ぶメタデータ。パス解決規則のみ multifile 方針と接点">
<polygon fill="#d4edda" stroke="black" points="652.49,-297.8 515.69,-297.8 515.69,-239.4 652.49,-239.4 652.49,-297.8"/>
<text xml:space="preserve" text-anchor="middle" x="584.09" y="-281.2" font-family="Times,serif" font-size="14.00">location_spec</text>
<text xml:space="preserve" text-anchor="middle" x="584.09" y="-264.4" font-family="Times,serif" font-size="14.00">location/command</text>
<text xml:space="preserve" text-anchor="middle" x="584.09" y="-247.6" font-family="Times,serif" font-size="14.00">仕様案 (#13)</text>
</a>
</g>
<text xml:space="preserve" text-anchor="middle" x="502.08" y="-226.8" font-family="Times,serif" font-size="14.00">done</text>
</g>
<!-- draft_location&#45;&gt;location_spec -->
<g id="edge10" class="edge">
<title>draft_location&#45;&gt;location_spec</title>
<path fill="none" stroke="black" d="M428.59,-266.01C453.14,-266.42 479.89,-266.87 504.11,-267.28"/>
<polygon fill="black" stroke="black" points="503.85,-270.77 513.9,-267.44 503.96,-263.77 503.85,-270.77"/>
</g>
<!-- draft_multifile_specs -->
<g id="node9" class="node">
<title>draft_multifile_specs</title>
<g id="a_node9"><a xlink:title="階層・プリセット共同起草&#10;&#10;#5 と #6 は決定が往復で形成される相互依存のため分割せず共同設計する。共有決定は方針記録として外化">
<ellipse fill="none" stroke="black" cx="1189.92" cy="-104.6" rx="95.44" ry="41.3"/>
<text xml:space="preserve" text-anchor="middle" x="1189.92" y="-117.2" font-family="Times,serif" font-size="14.00">draft_multifile_specs</text>
<text xml:space="preserve" text-anchor="middle" x="1189.92" y="-100.4" font-family="Times,serif" font-size="14.00">階層・プリセット共</text>
<text xml:space="preserve" text-anchor="middle" x="1189.92" y="-83.6" font-family="Times,serif" font-size="14.00">同起草</text>
</a>
</g>
</g>
<!-- i5_hierarchy_spec -->
<g id="node19" class="node">
<title>i5_hierarchy_spec</title>
<polygon fill="#f8f9fa" stroke="black" points="1489.59,-91.4 1338.39,-91.4 1338.39,-49.8 1489.59,-49.8 1489.59,-91.4"/>
<text xml:space="preserve" text-anchor="middle" x="1413.99" y="-74.8" font-family="Times,serif" font-size="14.00">i5_hierarchy_spec</text>
<text xml:space="preserve" text-anchor="middle" x="1413.99" y="-58" font-family="Times,serif" font-size="14.00">階層PFD仕様案 (#5)</text>
<text xml:space="preserve" text-anchor="middle" x="1325.95" y="-37.2" font-family="Times,serif" font-size="14.00">todo</text>
</g>
<!-- draft_multifile_specs&#45;&gt;i5_hierarchy_spec -->
<g id="edge2" class="edge">
<title>draft_multifile_specs&#45;&gt;i5_hierarchy_spec</title>
<path fill="none" stroke="black" d="M1280.29,-90.92C1295.71,-88.56 1311.71,-86.11 1327.03,-83.76"/>
<polygon fill="black" stroke="black" points="1327.21,-87.27 1336.56,-82.3 1326.15,-80.36 1327.21,-87.27"/>
</g>
<!-- i6_presets_spec -->
<g id="node20" class="node">
<title>i6_presets_spec</title>
<g id="a_node20"><a xlink:title="共有プリセット仕様案 (#6)">
<polygon fill="#f8f9fa" stroke="black" points="1489.59,-243.8 1338.39,-243.8 1338.39,-185.4 1489.59,-185.4 1489.59,-243.8"/>
<text xml:space="preserve" text-anchor="middle" x="1413.99" y="-227.2" font-family="Times,serif" font-size="14.00">i6_presets_spec</text>
<text xml:space="preserve" text-anchor="middle" x="1413.99" y="-210.4" font-family="Times,serif" font-size="14.00">共有プリセット仕様</text>
<text xml:space="preserve" text-anchor="middle" x="1413.99" y="-193.6" font-family="Times,serif" font-size="14.00">案 (#6)</text>
</a>
</g>
<text xml:space="preserve" text-anchor="middle" x="1325.95" y="-172.8" font-family="Times,serif" font-size="14.00">todo</text>
</g>
<!-- draft_multifile_specs&#45;&gt;i6_presets_spec -->
<g id="edge3" class="edge">
<title>draft_multifile_specs&#45;&gt;i6_presets_spec</title>
<path fill="none" stroke="black" d="M1253.67,-135.68C1281.55,-149.49 1314.47,-165.8 1343.13,-180"/>
<polygon fill="black" stroke="black" points="1341.21,-182.95 1351.72,-184.25 1344.31,-176.67 1341.21,-182.95"/>
</g>
<!-- multifile_policy -->
<g id="node32" class="node">
<title>multifile_policy</title>
<g id="a_node32"><a xlink:title="マルチファイル意味論方針&#10;&#10;共同起草で確定した ID スコープ・継承解決順・ファイル間参照の決定記録。ファイル横断機能（#8 実装等）と仕様統合の前提資料">
<polygon fill="#f8f9fa" stroke="black" points="1489.59,-167.8 1338.39,-167.8 1338.39,-109.4 1489.59,-109.4 1489.59,-167.8"/>
<text xml:space="preserve" text-anchor="middle" x="1413.99" y="-151.2" font-family="Times,serif" font-size="14.00">multifile_policy</text>
<text xml:space="preserve" text-anchor="middle" x="1413.99" y="-134.4" font-family="Times,serif" font-size="14.00">マルチファイル意味</text>
<text xml:space="preserve" text-anchor="middle" x="1413.99" y="-117.6" font-family="Times,serif" font-size="14.00">論方針</text>
</a>
</g>
<text xml:space="preserve" text-anchor="middle" x="1325.95" y="-96.8" font-family="Times,serif" font-size="14.00">todo</text>
</g>
<!-- draft_multifile_specs&#45;&gt;multifile_policy -->
<g id="edge4" class="edge">
<title>draft_multifile_specs&#45;&gt;multifile_policy</title>
<path fill="none" stroke="black" d="M1280.29,-118.28C1295.71,-120.64 1311.71,-123.09 1327.03,-125.44"/>
<polygon fill="black" stroke="black" points="1326.15,-128.84 1336.56,-126.9 1327.21,-121.93 1326.15,-128.84"/>
</g>
<!-- draft_revises -->
<g id="node10" class="node">
<title>draft_revises</title>
<g id="a_node10"><a xlink:title="改版チェーン仕様起草">
<ellipse fill="none" stroke="black" cx="343.45" cy="-163.6" rx="78.14" ry="41.3"/>
<text xml:space="preserve" text-anchor="middle" x="343.45" y="-176.2" font-family="Times,serif" font-size="14.00">draft_revises</text>
<text xml:space="preserve" text-anchor="middle" x="343.45" y="-159.4" font-family="Times,serif" font-size="14.00">改版チェーン仕様起</text>
<text xml:space="preserve" text-anchor="middle" x="343.45" y="-142.6" font-family="Times,serif" font-size="14.00">草</text>
</a>
</g>
</g>
<!-- revises_spec -->
<g id="node37" class="node">
<title>revises_spec</title>
<g id="a_node37"><a xlink:title="改版チェーン仕様案 (#8)">
<polygon fill="#d4edda" stroke="black" points="663.29,-202.8 504.89,-202.8 504.89,-144.4 663.29,-144.4 663.29,-202.8"/>
<text xml:space="preserve" text-anchor="middle" x="584.09" y="-186.2" font-family="Times,serif" font-size="14.00">revises_spec</text>
<text xml:space="preserve" text-anchor="middle" x="584.09" y="-169.4" font-family="Times,serif" font-size="14.00">改版チェーン仕様案 </text>
<text xml:space="preserve" text-anchor="middle" x="584.09" y="-152.6" font-family="Times,serif" font-size="14.00">(#8)</text>
</a>
</g>
<text xml:space="preserve" text-anchor="middle" x="491.28" y="-131.8" font-family="Times,serif" font-size="14.00">done</text>
</g>
<!-- draft_revises&#45;&gt;revises_spec -->
<g id="edge8" class="edge">
<title>draft_revises&#45;&gt;revises_spec</title>
<path fill="none" stroke="black" d="M421.6,-166.83C444.42,-167.79 469.6,-168.84 493.15,-169.83"/>
<polygon fill="black" stroke="black" points="492.92,-173.32 503.06,-170.25 493.21,-166.33 492.92,-173.32"/>
</g>
<!-- featured_toolchain -->
<g id="node11" class="node">
<title>featured_toolchain</title>
<g id="a_node11"><a xlink:title="spec v0.0.7 実装済みツールチェーン (#52)">
<polygon fill="#d4edda" stroke="black" points="1489.59,-361.2 1338.39,-361.2 1338.39,-286 1489.59,-286 1489.59,-361.2"/>
<text xml:space="preserve" text-anchor="middle" x="1413.99" y="-344.6" font-family="Times,serif" font-size="14.00">featured_toolchain</text>
<text xml:space="preserve" text-anchor="middle" x="1413.99" y="-327.8" font-family="Times,serif" font-size="14.00">spec v0.0.7</text>
<text xml:space="preserve" text-anchor="middle" x="1413.99" y="-311" font-family="Times,serif" font-size="14.00">実装済みツールチェ</text>
<text xml:space="preserve" text-anchor="middle" x="1413.99" y="-294.2" font-family="Times,serif" font-size="14.00">ーン (#52)</text>
</a>
</g>
<text xml:space="preserve" text-anchor="middle" x="1324.78" y="-273.4" font-family="Times,serif" font-size="14.00">done</text>
</g>
<!-- integrate_multifile -->
<g id="node27" class="node">
<title>integrate_multifile</title>
<g id="a_node27"><a xlink:title="マルチファイル仕様統合">
<ellipse fill="none" stroke="black" cx="1610.58" cy="-176.6" rx="84.98" ry="41.3"/>
<text xml:space="preserve" text-anchor="middle" x="1610.58" y="-189.2" font-family="Times,serif" font-size="14.00">integrate_multifile</text>
<text xml:space="preserve" text-anchor="middle" x="1610.58" y="-172.4" font-family="Times,serif" font-size="14.00">マルチファイル仕様</text>
<text xml:space="preserve" text-anchor="middle" x="1610.58" y="-155.6" font-family="Times,serif" font-size="14.00">統合</text>
</a>
</g>
</g>
<!-- featured_toolchain&#45;&gt;integrate_multifile -->
<g id="edge28" class="edge">
<title>featured_toolchain&#45;&gt;integrate_multifile</title>
<path fill="none" stroke="black" d="M1465.35,-285.55C1492.79,-264.83 1526.77,-239.16 1554.86,-217.94"/>
<polygon fill="black" stroke="black" points="1556.67,-220.95 1562.54,-212.13 1552.46,-215.37 1556.67,-220.95"/>
</g>
<!-- i15_group_fill -->
<g id="node15" class="node">
<title>i15_group_fill</title>
<g id="a_node15"><a xlink:title="group クラスタ塗りつぶし描画 (#15)">
<polygon fill="#f8f9fa" stroke="black" stroke-width="2" points="659.69,-982.8 508.49,-982.8 508.49,-924.4 659.69,-924.4 659.69,-982.8"/>
<text xml:space="preserve" text-anchor="middle" x="584.09" y="-966.2" font-family="Times,serif" font-size="14.00">i15_group_fill</text>
<text xml:space="preserve" text-anchor="middle" x="584.09" y="-949.4" font-family="Times,serif" font-size="14.00">group クラスタ塗り</text>
<text xml:space="preserve" text-anchor="middle" x="584.09" y="-932.6" font-family="Times,serif" font-size="14.00">つぶし描画 (#15)</text>
</a>
</g>
<text xml:space="preserve" text-anchor="middle" x="496.04" y="-911.8" font-family="Times,serif" font-size="14.00">todo</text>
</g>
<!-- fill_group_clusters&#45;&gt;i15_group_fill -->
<g id="edge39" class="edge">
<title>fill_group_clusters&#45;&gt;i15_group_fill</title>
<path fill="none" stroke="black" d="M429.93,-953.6C451.47,-953.6 474.61,-953.6 496.22,-953.6"/>
<polygon fill="black" stroke="black" points="496.19,-957.1 506.19,-953.6 496.19,-950.1 496.19,-957.1"/>
</g>
<!-- findings_r12 -->
<g id="node13" class="node">
<title>findings_r12</title>
<g id="a_node13"><a xlink:title="実践ラウンド1/2レビュー知見&#10;&#10;docs/examples の執筆・レビューで得た品質知見">
<polygon fill="#d4edda" stroke="black" stroke-width="2" points="185.61,-573.8 27.21,-573.8 27.21,-515.4 185.61,-515.4 185.61,-573.8"/>
<text xml:space="preserve" text-anchor="middle" x="106.41" y="-557.2" font-family="Times,serif" font-size="14.00">findings_r12</text>
<text xml:space="preserve" text-anchor="middle" x="106.41" y="-540.4" font-family="Times,serif" font-size="14.00">実践ラウンド1/2レビ</text>
<text xml:space="preserve" text-anchor="middle" x="106.41" y="-523.6" font-family="Times,serif" font-size="14.00">ュー知見</text>
</a>
</g>
<text xml:space="preserve" text-anchor="middle" x="13.61" y="-502.8" font-family="Times,serif" font-size="14.00">done</text>
</g>
<!-- findings_r12&#45;&gt;implement_lints -->
<g id="edge19" class="edge">
<title>findings_r12&#45;&gt;implement_lints</title>
<path fill="none" stroke="black" d="M186.33,-544.6C208.69,-544.6 233.15,-544.6 255.93,-544.6"/>
<polygon fill="black" stroke="black" points="255.81,-548.1 265.81,-544.6 255.81,-541.1 255.81,-548.1"/>
</g>
<!-- i12_article -->
<g id="node14" class="node">
<title>i12_article</title>
<g id="a_node14"><a xlink:title="公開記事 (#12)&#10;&#10;ADR 群を素材とした外部公開記事。依存なしで着手可能、spec v0.0.7 確定後はより充実">
<polygon fill="#f8f9fa" stroke="black" stroke-width="2" points="645.29,-58.4 522.89,-58.4 522.89,-16.8 645.29,-16.8 645.29,-58.4"/>
<text xml:space="preserve" text-anchor="middle" x="584.09" y="-41.8" font-family="Times,serif" font-size="14.00">i12_article</text>
<text xml:space="preserve" text-anchor="middle" x="584.09" y="-25" font-family="Times,serif" font-size="14.00">公開記事 (#12)</text>
</a>
</g>
<text xml:space="preserve" text-anchor="middle" x="510.44" y="-4.2" font-family="Times,serif" font-size="14.00">todo</text>
</g>
<!-- i17_graph_nav -->
<g id="node16" class="node">
<title>i17_graph_nav</title>
<g id="a_node16"><a xlink:title="大規模図の閲覧支援 (#17)&#10;&#10;設計未確定（issue 本文参照）。implement_graph_nav 着手前にどの機能（minimap / neighborhood focus / filter）を作るかをユーザーと合意すること。">
<polygon fill="#fff3cd" stroke="black" stroke-width="2" points="663.29,-905.8 504.89,-905.8 504.89,-847.4 663.29,-847.4 663.29,-905.8"/>
<text xml:space="preserve" text-anchor="middle" x="584.09" y="-889.2" font-family="Times,serif" font-size="14.00">i17_graph_nav</text>
<text xml:space="preserve" text-anchor="middle" x="584.09" y="-872.4" font-family="Times,serif" font-size="14.00">大規模図の閲覧支援 </text>
<text xml:space="preserve" text-anchor="middle" x="584.09" y="-855.6" font-family="Times,serif" font-size="14.00">(#17)</text>
</a>
</g>
<text xml:space="preserve" text-anchor="middle" x="494.39" y="-834.8" font-family="Times,serif" font-size="14.00">wip</text>
</g>
<!-- i37_orphan_lint -->
<g id="node17" class="node">
<title>i37_orphan_lint</title>
<g id="a_node17"><a xlink:title="孤児process検出lint (#37)&#10;&#10;check/audit が出力なき process・孤立ノードを検出する。終端監査の機械化（学習ループの lint 要件経路、dogfood #16 由来）">
<polygon fill="#f8f9fa" stroke="black" stroke-width="2" points="666.89,-828.8 501.29,-828.8 501.29,-770.4 666.89,-770.4 666.89,-828.8"/>
<text xml:space="preserve" text-anchor="middle" x="584.09" y="-812.2" font-family="Times,serif" font-size="14.00">i37_orphan_lint</text>
<text xml:space="preserve" text-anchor="middle" x="584.09" y="-795.4" font-family="Times,serif" font-size="14.00">孤児process検出lint </text>
<text xml:space="preserve" text-anchor="middle" x="584.09" y="-778.6" font-family="Times,serif" font-size="14.00">#37)</text>
</a>
</g>
<text xml:space="preserve" text-anchor="middle" x="488.84" y="-757.8" font-family="Times,serif" font-size="14.00">todo</text>
</g>
<!-- i5_hierarchy_spec&#45;&gt;integrate_multifile -->
<g id="edge25" class="edge">
<title>i5_hierarchy_spec&#45;&gt;integrate_multifile</title>
<path fill="none" stroke="black" d="M1470.9,-91.78C1477.28,-94.58 1483.63,-97.54 1489.59,-100.6 1510.24,-111.18 1531.92,-124.25 1551.09,-136.55"/>
<polygon fill="black" stroke="black" points="1549,-139.37 1559.3,-141.88 1552.81,-133.5 1549,-139.37"/>
</g>
<!-- i6_presets_spec&#45;&gt;integrate_multifile -->
<g id="edge26" class="edge">
<title>i6_presets_spec&#45;&gt;integrate_multifile</title>
<path fill="none" stroke="black" d="M1489.94,-199.96C1499.75,-198.05 1509.87,-196.07 1519.88,-194.12"/>
<polygon fill="black" stroke="black" points="1520.49,-197.56 1529.63,-192.21 1519.14,-190.69 1520.49,-197.56"/>
</g>
<!-- i72_pdf_png_export -->
<g id="node21" class="node">
<title>i72_pdf_png_export</title>
<g id="a_node21"><a xlink:title="PDF/PNG エクスポート (#72)&#10;&#10;pfdsl graph &#45;&#45;format pdf|png。Puppeteer optional peer dep 経由で SVG → PDF/PNG 変換">
<polygon fill="#fff3cd" stroke="black" stroke-width="2" points="659.69,-739.8 508.49,-739.8 508.49,-681.4 659.69,-681.4 659.69,-739.8"/>
<text xml:space="preserve" text-anchor="middle" x="584.09" y="-723.2" font-family="Times,serif" font-size="14.00">i72_pdf_png_export</text>
<text xml:space="preserve" text-anchor="middle" x="584.09" y="-706.4" font-family="Times,serif" font-size="14.00">PDF/PNG</text>
<text xml:space="preserve" text-anchor="middle" x="584.09" y="-689.6" font-family="Times,serif" font-size="14.00">エクスポート (#72)</text>
</a>
</g>
<text xml:space="preserve" text-anchor="middle" x="497.99" y="-668.8" font-family="Times,serif" font-size="14.00">wip</text>
</g>
<!-- implement_graph_nav&#45;&gt;i17_graph_nav -->
<g id="edge41" class="edge">
<title>implement_graph_nav&#45;&gt;i17_graph_nav</title>
<path fill="none" stroke="black" d="M444.27,-876.6C460.3,-876.6 476.82,-876.6 492.62,-876.6"/>
<polygon fill="black" stroke="black" points="492.46,-880.1 502.46,-876.6 492.46,-873.1 492.46,-880.1"/>
</g>
<!-- lint_checker -->
<g id="node30" class="node">
<title>lint_checker</title>
<g id="a_node30"><a xlink:title="lint拡張checker (#4)&#10;&#10;lint 候補の完全リストは issue #4 が一次情報（本文+コメント）。ここに列挙しない — 列挙は同期漏れで腐るため">
<polygon fill="#d4edda" stroke="black" points="1041.45,-485.4 875.85,-485.4 875.85,-443.8 1041.45,-443.8 1041.45,-485.4"/>
<text xml:space="preserve" text-anchor="middle" x="958.65" y="-468.8" font-family="Times,serif" font-size="14.00">lint_checker</text>
<text xml:space="preserve" text-anchor="middle" x="958.65" y="-452" font-family="Times,serif" font-size="14.00">lint拡張checker (#4)</text>
</a>
</g>
<text xml:space="preserve" text-anchor="middle" x="862.25" y="-431.2" font-family="Times,serif" font-size="14.00">done</text>
</g>
<!-- implement_lints&#45;&gt;lint_checker -->
<g id="edge21" class="edge">
<title>implement_lints&#45;&gt;lint_checker</title>
<path fill="none" stroke="black" d="M415.69,-535.31C526.71,-520.82 741,-492.86 864.26,-476.78"/>
<polygon fill="black" stroke="black" points="864.56,-480.27 874.03,-475.51 863.66,-473.33 864.56,-480.27"/>
</g>
<!-- implement_orphan_lint&#45;&gt;i37_orphan_lint -->
<g id="edge45" class="edge">
<title>implement_orphan_lint&#45;&gt;i37_orphan_lint</title>
<path fill="none" stroke="black" d="M448.08,-799.6C461.74,-799.6 475.68,-799.6 489.16,-799.6"/>
<polygon fill="black" stroke="black" points="488.85,-803.1 498.85,-799.6 488.85,-796.1 488.85,-803.1"/>
</g>
<!-- implement_pdf_png_export&#45;&gt;i72_pdf_png_export -->
<g id="edge47" class="edge">
<title>implement_pdf_png_export&#45;&gt;i72_pdf_png_export</title>
<path fill="none" stroke="black" d="M465.52,-710.6C475.8,-710.6 486.07,-710.6 496.01,-710.6"/>
<polygon fill="black" stroke="black" points="496,-714.1 506,-710.6 496,-707.1 496,-714.1"/>
</g>
<!-- implement_spec_features -->
<g id="node26" class="node">
<title>implement_spec_features</title>
<ellipse fill="none" stroke="black" cx="1189.92" cy="-335.6" rx="112.47" ry="29.42"/>
<text xml:space="preserve" text-anchor="middle" x="1189.92" y="-339.8" font-family="Times,serif" font-size="14.00">implement_spec_features</text>
<text xml:space="preserve" text-anchor="middle" x="1189.92" y="-323" font-family="Times,serif" font-size="14.00">新仕様実装</text>
</g>
<!-- implement_spec_features&#45;&gt;featured_toolchain -->
<g id="edge24" class="edge">
<title>implement_spec_features&#45;&gt;featured_toolchain</title>
<path fill="none" stroke="black" d="M1300.33,-329.69C1309.24,-329.21 1318.16,-328.72 1326.86,-328.25"/>
<polygon fill="black" stroke="black" points="1326.85,-331.76 1336.65,-327.73 1326.48,-324.77 1326.85,-331.76"/>
</g>
<!-- spec_v008 -->
<g id="node41" class="node">
<title>spec_v008</title>
<g id="a_node41"><a xlink:title="仕様書 v0.0.8（マルチファイル統合）">
<polygon fill="#f8f9fa" stroke="black" stroke-width="2" points="1875.56,-214.2 1731.56,-214.2 1731.56,-139 1875.56,-139 1875.56,-214.2"/>
<text xml:space="preserve" text-anchor="middle" x="1803.56" y="-197.6" font-family="Times,serif" font-size="14.00">spec_v008</text>
<text xml:space="preserve" text-anchor="middle" x="1803.56" y="-180.8" font-family="Times,serif" font-size="14.00">仕様書 v0.0</text>
<text xml:space="preserve" text-anchor="middle" x="1803.56" y="-164" font-family="Times,serif" font-size="14.00">8（マルチファイル</text>
<text xml:space="preserve" text-anchor="middle" x="1803.56" y="-147.2" font-family="Times,serif" font-size="14.00">統合）</text>
</a>
</g>
<text xml:space="preserve" text-anchor="middle" x="1719.12" y="-126.4" font-family="Times,serif" font-size="14.00">todo</text>
</g>
<!-- integrate_multifile&#45;&gt;spec_v008 -->
<g id="edge29" class="edge">
<title>integrate_multifile&#45;&gt;spec_v008</title>
<path fill="none" stroke="black" d="M1695.9,-176.6C1703.69,-176.6 1711.58,-176.6 1719.36,-176.6"/>
<polygon fill="black" stroke="black" points="1719.13,-180.1 1729.13,-176.6 1719.13,-173.1 1719.13,-180.1"/>
</g>
<!-- spec_v007 -->
<g id="node40" class="node">
<title>spec_v007</title>
<g id="a_node40"><a xlink:title="仕様書 v0.0.7（統合）">
<polygon fill="#fff3cd" stroke="black" points="1037.85,-364.8 879.45,-364.8 879.45,-306.4 1037.85,-306.4 1037.85,-364.8"/>
<text xml:space="preserve" text-anchor="middle" x="958.65" y="-348.2" font-family="Times,serif" font-size="14.00">spec_v007</text>
<text xml:space="preserve" text-anchor="middle" x="958.65" y="-331.4" font-family="Times,serif" font-size="14.00">仕様書 v0.0.7（統合</text>
<text xml:space="preserve" text-anchor="middle" x="958.65" y="-314.6" font-family="Times,serif" font-size="14.00">）</text>
</a>
</g>
<text xml:space="preserve" text-anchor="middle" x="868.95" y="-293.8" font-family="Times,serif" font-size="14.00">wip</text>
</g>
<!-- integrate_spec&#45;&gt;spec_v007 -->
<g id="edge17" class="edge">
<title>integrate_spec&#45;&gt;spec_v007</title>
<path fill="none" stroke="black" d="M840.31,-335.6C849.27,-335.6 858.56,-335.6 867.81,-335.6"/>
<polygon fill="black" stroke="black" points="867.54,-339.1 877.54,-335.6 867.54,-332.1 867.54,-339.1"/>
</g>
<!-- layer_audit_assets&#45;&gt;audit_distribution -->
<g id="edge35" class="edge">
<title>layer_audit_assets&#45;&gt;audit_distribution</title>
<path fill="none" stroke="black" d="M427.58,-1131.6C449.9,-1131.6 474.09,-1131.6 496.6,-1131.6"/>
<polygon fill="black" stroke="black" points="496.33,-1135.1 506.33,-1131.6 496.33,-1128.1 496.33,-1135.1"/>
</g>
<!-- lint_checker&#45;&gt;implement_spec_features -->
<g id="edge23" class="edge">
<title>lint_checker&#45;&gt;implement_spec_features</title>
<path fill="none" stroke="black" d="M997.26,-443.44C1033.71,-422.93 1089.52,-391.53 1131.53,-367.89"/>
<polygon fill="black" stroke="black" points="1133.03,-371.06 1140.03,-363.11 1129.6,-364.96 1133.03,-371.06"/>
</g>
<!-- location_spec&#45;&gt;integrate_spec -->
<g id="edge15" class="edge">
<title>location_spec&#45;&gt;integrate_spec</title>
<path fill="none" stroke="black" d="M652.77,-293.07C670.66,-299.54 689.89,-306.5 707.52,-312.87"/>
<polygon fill="black" stroke="black" points="706.24,-316.13 716.83,-316.24 708.62,-309.55 706.24,-316.13"/>
</g>
<!-- multifile_policy&#45;&gt;integrate_multifile -->
<g id="edge27" class="edge">
<title>multifile_policy&#45;&gt;integrate_multifile</title>
<path fill="none" stroke="black" d="M1489.94,-153.24C1499.75,-155.15 1509.87,-157.13 1519.88,-159.08"/>
<polygon fill="black" stroke="black" points="1519.14,-162.51 1529.63,-160.99 1520.49,-155.64 1519.14,-162.51"/>
</g>
<!-- published_cli -->
<g id="node34" class="node">
<title>published_cli</title>
<g id="a_node34"><a xlink:title="npm公開済みCLI&#10;&#10;@pfdsl/cli 0.0.3 公開済み（roadmap の cli_published に対応）。npm install &#45;g @pfdsl/cli で利用可">
<polygon fill="#d4edda" stroke="black" stroke-width="2" points="645.29,-642.4 522.89,-642.4 522.89,-600.8 645.29,-600.8 645.29,-642.4"/>
<text xml:space="preserve" text-anchor="middle" x="584.09" y="-625.8" font-family="Times,serif" font-size="14.00">published_cli</text>
<text xml:space="preserve" text-anchor="middle" x="584.09" y="-609" font-family="Times,serif" font-size="14.00">npm公開済みCLI</text>
</a>
</g>
<text xml:space="preserve" text-anchor="middle" x="509.28" y="-588.2" font-family="Times,serif" font-size="14.00">done</text>
</g>
<!-- publish_cli&#45;&gt;published_cli -->
<g id="edge33" class="edge">
<title>publish_cli&#45;&gt;published_cli</title>
<path fill="none" stroke="black" d="M399.2,-621.6C432.35,-621.6 475.02,-621.6 510.91,-621.6"/>
<polygon fill="black" stroke="black" points="510.79,-625.1 520.79,-621.6 510.79,-618.1 510.79,-625.1"/>
</g>
<!-- restructure_skillgen -->
<g id="node35" class="node">
<title>restructure_skillgen</title>
<ellipse fill="none" stroke="black" cx="343.45" cy="-1208.6" rx="89.93" ry="29.42"/>
<text xml:space="preserve" text-anchor="middle" x="343.45" y="-1212.8" font-family="Times,serif" font-size="14.00">restructure_skillgen</text>
<text xml:space="preserve" text-anchor="middle" x="343.45" y="-1196" font-family="Times,serif" font-size="14.00">生成系再構成</text>
</g>
<!-- restructured_gen -->
<g id="node36" class="node">
<title>restructured_gen</title>
<g id="a_node36"><a xlink:title="再構成済みスキル生成系 (#10)">
<polygon fill="#d4edda" stroke="black" stroke-width="2" points="659.69,-1237.8 508.49,-1237.8 508.49,-1179.4 659.69,-1179.4 659.69,-1237.8"/>
<text xml:space="preserve" text-anchor="middle" x="584.09" y="-1221.2" font-family="Times,serif" font-size="14.00">restructured_gen</text>
<text xml:space="preserve" text-anchor="middle" x="584.09" y="-1204.4" font-family="Times,serif" font-size="14.00">再構成済みスキル生</text>
<text xml:space="preserve" text-anchor="middle" x="584.09" y="-1187.6" font-family="Times,serif" font-size="14.00">成系 (#10)</text>
</a>
</g>
<text xml:space="preserve" text-anchor="middle" x="494.88" y="-1166.8" font-family="Times,serif" font-size="14.00">done</text>
</g>
<!-- restructure_skillgen&#45;&gt;restructured_gen -->
<g id="edge31" class="edge">
<title>restructure_skillgen&#45;&gt;restructured_gen</title>
<path fill="none" stroke="black" d="M433.65,-1208.6C454.11,-1208.6 475.83,-1208.6 496.19,-1208.6"/>
<polygon fill="black" stroke="black" points="496.16,-1212.1 506.16,-1208.6 496.16,-1205.1 496.16,-1212.1"/>
</g>
<!-- revises_spec&#45;&gt;integrate_spec -->
<g id="edge14" class="edge">
<title>revises_spec&#45;&gt;integrate_spec</title>
<path fill="none" stroke="black" d="M630.77,-203.22C642.84,-211.64 655.64,-221.11 666.89,-230.6 692.17,-251.92 718.29,-278.46 737.96,-299.53"/>
<polygon fill="black" stroke="black" points="735.32,-301.82 744.68,-306.79 740.45,-297.07 735.32,-301.82"/>
</g>
<!-- skill_gen -->
<g id="node38" class="node">
<title>skill_gen</title>
<g id="a_node38"><a xlink:title="スキル生成系（現行）&#10;&#10;scripts/gen&#45;skill.mjs と docs/samples 構成">
<polygon fill="#d4edda" stroke="black" stroke-width="2" points="182.01,-1237.8 30.81,-1237.8 30.81,-1179.4 182.01,-1179.4 182.01,-1237.8"/>
<text xml:space="preserve" text-anchor="middle" x="106.41" y="-1221.2" font-family="Times,serif" font-size="14.00">skill_gen</text>
<text xml:space="preserve" text-anchor="middle" x="106.41" y="-1204.4" font-family="Times,serif" font-size="14.00">スキル生成系（現行</text>
<text xml:space="preserve" text-anchor="middle" x="106.41" y="-1187.6" font-family="Times,serif" font-size="14.00">）</text>
</a>
</g>
<text xml:space="preserve" text-anchor="middle" x="17.21" y="-1166.8" font-family="Times,serif" font-size="14.00">done</text>
</g>
<!-- skill_gen&#45;&gt;restructure_skillgen -->
<g id="edge30" class="edge">
<title>skill_gen&#45;&gt;restructure_skillgen</title>
<path fill="none" stroke="black" d="M182.75,-1208.6C201.58,-1208.6 222.08,-1208.6 241.92,-1208.6"/>
<polygon fill="black" stroke="black" points="241.67,-1212.1 251.67,-1208.6 241.67,-1205.1 241.67,-1212.1"/>
</g>
<!-- spec_v006 -->
<g id="node39" class="node">
<title>spec_v006</title>
<polygon fill="#d4edda" stroke="black" stroke-width="2" points="164.01,-329.4 48.81,-329.4 48.81,-287.8 164.01,-287.8 164.01,-329.4"/>
<text xml:space="preserve" text-anchor="middle" x="106.41" y="-312.8" font-family="Times,serif" font-size="14.00">spec_v006</text>
<text xml:space="preserve" text-anchor="middle" x="106.41" y="-296" font-family="Times,serif" font-size="14.00">仕様書 v0.0.6</text>
<text xml:space="preserve" text-anchor="middle" x="35.21" y="-275.2" font-family="Times,serif" font-size="14.00">done</text>
</g>
<!-- spec_v006&#45;&gt;draft_criteria -->
<g id="edge5" class="edge">
<title>spec_v006&#45;&gt;draft_criteria</title>
<path fill="none" stroke="black" d="M123.7,-330.33C144.04,-356.09 181.1,-398.77 221.61,-424.6 236.93,-434.36 254.75,-442.27 271.93,-448.51"/>
<polygon fill="black" stroke="black" points="270.49,-451.72 281.09,-451.69 272.79,-445.11 270.49,-451.72"/>
</g>
<!-- spec_v006&#45;&gt;draft_location -->
<g id="edge9" class="edge">
<title>spec_v006&#45;&gt;draft_location</title>
<path fill="none" stroke="black" d="M164.91,-297.84C191.3,-292.9 223.21,-286.92 252.66,-281.41"/>
<polygon fill="black" stroke="black" points="253.14,-284.88 262.32,-279.6 251.85,-278 253.14,-284.88"/>
</g>
<!-- spec_v006&#45;&gt;draft_multifile_specs -->
<g id="edge1" class="edge">
<title>spec_v006&#45;&gt;draft_multifile_specs</title>
<path fill="none" stroke="black" d="M112.73,-287.11C124.37,-245.22 156.43,-153.27 221.61,-113.6 290.33,-71.78 502.65,-94.6 583.09,-94.6 583.09,-94.6 583.09,-94.6 772.37,-94.6 878.19,-94.6 999.08,-97.86 1083.27,-100.66"/>
<polygon fill="black" stroke="black" points="1083.01,-104.16 1093.13,-101 1083.25,-97.16 1083.01,-104.16"/>
</g>
<!-- spec_v006&#45;&gt;draft_revises -->
<g id="edge7" class="edge">
<title>spec_v006&#45;&gt;draft_revises</title>
<path fill="none" stroke="black" d="M129.55,-287.05C151.53,-266.48 186.9,-235.6 221.61,-214.6 236,-205.9 252.14,-197.97 267.82,-191.1"/>
<polygon fill="black" stroke="black" points="268.82,-194.48 276.64,-187.34 266.07,-188.04 268.82,-194.48"/>
</g>
<!-- spec_v006&#45;&gt;implement_lints -->
<g id="edge18" class="edge">
<title>spec_v006&#45;&gt;implement_lints</title>
<path fill="none" stroke="black" d="M114.07,-330.13C127.66,-370.51 162.38,-457.82 221.61,-505.6 233.83,-515.46 248.6,-522.85 263.56,-528.38"/>
<polygon fill="black" stroke="black" points="262.43,-531.69 273.02,-531.6 264.68,-525.07 262.43,-531.69"/>
</g>
<!-- spec_v006&#45;&gt;integrate_spec -->
<g id="edge48" class="edge">
<title>spec_v006&#45;&gt;integrate_spec</title>
<path fill="none" stroke="#888888" stroke-dasharray="5,2" d="M128.21,-330.13C149.47,-350.45 184.55,-379.55 221.61,-391.6 315.72,-422.19 570.87,-412.52 666.89,-388.6 686.21,-383.79 706,-374.82 723.04,-365.6"/>
<polygon fill="#888888" stroke="#888888" points="724.39,-368.86 731.41,-360.92 720.97,-362.75 724.39,-368.86"/>
</g>
<!-- write_design_notes -->
<g id="node43" class="node">
<title>write_design_notes</title>
<ellipse fill="none" stroke="black" cx="343.45" cy="-353.6" rx="88.3" ry="29.42"/>
<text xml:space="preserve" text-anchor="middle" x="343.45" y="-357.8" font-family="Times,serif" font-size="14.00">write_design_notes</text>
<text xml:space="preserve" text-anchor="middle" x="343.45" y="-341" font-family="Times,serif" font-size="14.00">設計ノート執筆</text>
</g>
<!-- spec_v006&#45;&gt;write_design_notes -->
<g id="edge11" class="edge">
<title>spec_v006&#45;&gt;write_design_notes</title>
<path fill="none" stroke="black" d="M164.91,-319.61C192.02,-324.8 224.96,-331.11 255.07,-336.87"/>
<polygon fill="black" stroke="black" points="254.05,-340.24 264.53,-338.68 255.37,-333.36 254.05,-340.24"/>
</g>
<!-- spec_v007&#45;&gt;implement_spec_features -->
<g id="edge22" class="edge">
<title>spec_v007&#45;&gt;implement_spec_features</title>
<path fill="none" stroke="black" d="M1038.23,-335.6C1047.17,-335.6 1056.44,-335.6 1065.78,-335.6"/>
<polygon fill="black" stroke="black" points="1065.68,-339.1 1075.68,-335.6 1065.68,-332.1 1065.68,-339.1"/>
</g>
<!-- write_article&#45;&gt;i12_article -->
<g id="edge37" class="edge">
<title>write_article&#45;&gt;i12_article</title>
<path fill="none" stroke="black" d="M404.98,-37.6C437.23,-37.6 477.13,-37.6 510.98,-37.6"/>
<polygon fill="black" stroke="black" points="510.7,-41.1 520.7,-37.6 510.7,-34.1 510.7,-41.1"/>
</g>
<!-- write_design_notes&#45;&gt;design_notes -->
<g id="edge12" class="edge">
<title>write_design_notes&#45;&gt;design_notes</title>
<path fill="none" stroke="black" d="M431.96,-352.5C453.15,-352.23 475.8,-351.95 496.93,-351.68"/>
<polygon fill="black" stroke="black" points="496.7,-355.19 506.65,-351.56 496.61,-348.19 496.7,-355.19"/>
</g>
</g>
</svg>
